<?xml version="1.0" encoding="utf-8"?>
<!-- Generator: Adobe Illustrator 14.0.0, SVG Export Plug-In . SVG Version: 6.00 Build 43363)  -->
<!DOCTYPE svg PUBLIC "-//W3C//DTD SVG 1.1//EN" "http://www.w3.org/Graphics/SVG/1.1/DTD/svg11.dtd">
<svg version="1.1" id="Layer_1" xmlns="http://www.w3.org/2000/svg" xmlns:xlink="http://www.w3.org/1999/xlink" x="0px" y="0px"
	 width="751px" height="424px" viewBox="0 0 751 424" enable-background="new 0 0 751 424" xml:space="preserve">
<g id="_x23_ffffffff">
	<path fill="#FFFFFF" stroke="#FFFFFF" stroke-width="5" d="M351.41,45.27c37.46-6.78,75.47-11.18,113.58-10.78
		c64.96,1.01,130.42,16.69,186.68,49.75c19.15,11.51,37.54,24.91,52.061,42.05c6.239,7.74,12.561,16.46,13.271,26.72
		c-0.8,8.37-6.22,15.33-10.93,21.97c-12.88,16.7-28.61,30.93-44.87,44.26c-30.84,24.9-64.7,45.869-99.91,63.98
		c-74.8,38.188-156.15,62.93-239.1,75.488c-59.582,9.029-120.042,11.729-180.2,8.932c36.53-10.201,72.61-22.781,106.28-40.392
		c17.74-9.42,35.06-20.271,49.1-34.8c10.1-10.65,18.6-24.301,18.42-39.45c0.28-8.608-4.31-16.601-10.44-22.33
		c-11.82-11.22-27.49-17.26-42.93-21.66c15.44-6.78,30.4-14.729,44.34-24.24c12.45-8.6,24.352-18.42,33.271-30.76
		c6.84-9.52,11.63-21.17,10.56-33.08c-0.7-8.22-5.34-15.68-11.6-20.86c-7.971-6.65-17.721-10.67-27.55-13.69
		c-16.01-4.75-32.65-6.91-49.271-8.06c-12.16-0.75-24.37-1.16-36.55-0.59C266.71,63.96,308.79,53.12,351.41,45.27 M394.24,45.71
		c-42.58,5.33-84.61,14.5-125.91,26.08c14.96,1.19,29.92,3.4,44.29,7.84c13.68,4.33,27.56,10.52,36.95,21.8
		c6.85,8.15,9.43,19.38,7.55,29.79c-2.75,17.562-14.3,32.2-27.05,43.92c-14.62,13.31-31.58,23.76-49.09,32.81
		c11.63,4.83,23.07,11.01,31.67,20.39c6.368,6.94,10.56,16.18,10.118,25.73c-0.328,15.05-7.97,28.92-17.798,39.92
		c-10.75,12.15-24,21.81-37.75,30.289c-25.79,15.781-53.91,27.261-82.31,37.431c47.9-0.04,95.84-3.61,143.148-11.26
		c82.392-13.32,163.11-38.62,237.2-77.25c32.511-17,63.79-36.53,92.49-59.44c13.72-11.13,27.04-22.9,38.53-36.38
		c5.09-6.13,10.12-12.56,12.979-20.08c2.23-6.37-1.08-12.9-4.35-18.25c-7.83-12.16-18.73-21.96-30-30.86
		c-15.36-11.89-32.17-21.82-49.63-30.29C585.14,58.64,541.39,47.24,497.1,43.16C462.86,39.94,428.33,41.51,394.24,45.71z"/>
	<path fill="#FFFFFF" stroke="#FFFFFF" stroke-width="5" d="M398.58,94.58c35.55-5.76,72.07-4.92,107.51,1.29
		c48.43,8.5,95.04,29.46,131.73,62.49c-26.642,24.43-56.98,44.58-88.771,61.67c-37.188,19.86-76.49,35.6-116.729,48.09
		c-29.222,9.04-58.96,16.479-89.09,21.76c40.01-19.71,80.06-39.39,119.42-60.399C485.64,217,508.93,204.82,530.38,189.75
		c-60.16,1.73-120.32,3.81-180.47,5.83c63.438-16.67,127.01-32.87,190.47-49.44c-15.96-10.52-33.72-17.91-51.53-24.7
		C459.39,110.52,429.12,101.89,398.58,94.58 M439.33,98.33c12.92,2.85,25.41,7.33,37.938,11.5c27.87,10.01,55.712,21.5,79.712,39.15
		c-48.11,12.57-96.302,24.85-144.392,37.47c46.7-1.33,93.392-3.04,140.09-4.48c-18.318,14.9-38.89,26.69-59.25,38.54
		c-31.108,17.73-63.04,33.971-95.06,49.96c45.3-11.86,89.56-27.89,131.59-48.569c34.62-17.279,67.85-37.851,97.03-63.391
		c-13.5-11.11-28.062-20.93-43.58-29.01c-38.9-20.29-82.72-30.15-126.431-31.49C451.09,98.07,445.19,97.39,439.33,98.33z"/>
</g>
<g id="_x23_828689ff">
	<path fill="#828689" d="M393.77,3.84c53.53-5.85,108.04-4.3,160.82,6.75c39.021,8.13,77.37,20.9,112.12,40.64
		c24.87,14.31,48.26,32.47,64.59,56.36c11.24,16.23,18.38,35.37,19.7,55.12v11.61c-0.97,11.78-4.5,23.25-9.79,33.78
		c-7.57,15.6-18.36,29.39-30.11,42.06c-21.59,22.81-46.83,41.88-73.27,58.689c-34.46,21.811-71.22,39.851-109,55.121
		c-72.851,29.18-149.771,48.358-227.89,56.108c-67.22,6.63-135.43,3.7-201.75-9.18c-33.58-6.771-66.98-15.45-98.55-28.892
		c41.69-11.42,83.06-24.08,123.8-38.57c31.77-11.5,63.46-23.698,93.13-39.979c11.2-6.359,22.36-13.2,31.46-22.42
		c4.61-4.95,9.17-11.061,8.84-18.17c-0.71-6.63-6.81-10.74-12.19-13.65c-12.31-6.148-25.93-8.988-39.36-11.488
		c-23.95-4.19-48.24-5.99-72.51-7.121c30.25-11.51,60.03-24.319,88.94-38.891c15.78-8.13,31.41-16.71,45.78-27.188
		c6.64-4.93,13.05-10.36,18.04-17.01c3.38-4.61,6.1-10.91,3.3-16.46c-3.92-7.27-12.13-10.56-19.52-13.16
		c-18.19-5.73-37.34-7.37-56.27-8.63c-40.48-2.2-81.07-0.8-121.49,1.96c17.83-11.87,36.6-22.25,55.61-32.08
		C224.89,40.22,308.11,13.19,393.77,3.84 M258.7,42.89c-44.98,14.99-88.66,34-130.06,57.14c31.36-1.69,62.86-2.04,94.18,0.72
		c17.09,1.6,34.29,3.96,50.6,9.54c8.67,3.21,17.77,7.31,23.25,15.12c3.87,5.43,4.32,12.78,1.69,18.83
		c-3.9,9.39-11.54,16.52-19.11,23.02c-15.71,12.94-33.57,22.93-51.54,32.36c-17.29,8.87-35.01,16.89-52.91,24.46
		c15.15,1.55,30.3,3.51,45.15,6.99c11.79,2.869,23.7,6.359,34.01,12.96c6.25,4.04,12.1,10.05,12.87,17.81
		c0.79,8.82-4.25,16.83-9.87,23.17c-9.51,10.45-21.49,18.26-33.57,25.4c-25.64,14.71-53.03,26.05-80.64,36.49
		c-37.08,13.879-74.93,25.6-112.99,36.49c30.06,10.09,61.05,17.248,92.32,22.378c58.19,9.41,117.57,11.132,176.23,5.57
		c85.08-8.16,168.84-29.88,247.24-63.88c36.26-15.87,71.41-34.47,104.021-56.97c25.938-18.12,50.71-38.642,69.89-64.021
		c10.62-14.36,19.6-30.64,22.09-48.56c2.16-19.49-2.45-39.44-11.96-56.5c-8.39-15.24-20.2-28.38-33.47-39.53
		c-25.26-21.09-55.22-35.8-86.07-46.78C566.34,19.76,520.22,11.72,473.98,9.85C400.95,7.22,327.93,20.07,258.7,42.89z"/>
</g>
<g id="_x23_1e1e1eff">
	<path fill="#1E1E1E" stroke="#1E1E1E" stroke-width="5" d="M258.7,42.89C327.93,20.07,400.95,7.22,473.98,9.85
		c46.238,1.87,92.358,9.91,136.068,25.25c30.852,10.98,60.812,25.69,86.07,46.78c13.27,11.15,25.08,24.29,33.47,39.53
		c9.51,17.06,14.12,37.01,11.96,56.5c-2.49,17.92-11.47,34.2-22.09,48.56c-19.18,25.38-43.95,45.9-69.89,64.021
		c-32.61,22.5-67.762,41.1-104.021,56.97c-78.398,34-162.16,55.72-247.24,63.88c-58.66,5.562-118.04,3.84-176.23-5.569
		c-31.27-5.131-62.26-12.289-92.32-22.379c38.06-10.892,75.91-22.611,112.99-36.49c27.61-10.44,55-21.78,80.64-36.49
		c12.08-7.141,24.06-14.95,33.57-25.4c5.62-6.34,10.66-14.35,9.87-23.17c-0.77-7.76-6.62-13.77-12.87-17.81
		c-10.31-6.601-22.22-10.091-34.01-12.96c-14.85-3.48-30-5.44-45.15-6.99c17.9-7.57,35.62-15.59,52.91-24.46
		c17.97-9.43,35.83-19.42,51.54-32.36c7.57-6.5,15.21-13.63,19.11-23.02c2.63-6.05,2.18-13.4-1.69-18.83
		c-5.48-7.81-14.58-11.91-23.25-15.12c-16.31-5.58-33.51-7.94-50.6-9.54c-31.32-2.76-62.82-2.41-94.18-0.72
		C170.04,76.89,213.72,57.88,258.7,42.89 M351.41,45.27c-42.62,7.85-84.7,18.69-125.79,32.46c12.18-0.57,24.39-0.16,36.55,0.59
		c16.62,1.15,33.26,3.31,49.271,8.06c9.828,3.02,19.578,7.04,27.55,13.69c6.26,5.18,10.898,12.64,11.6,20.86
		c1.07,11.91-3.72,23.56-10.56,33.08c-8.92,12.34-20.82,22.16-33.271,30.76c-13.94,9.51-28.9,17.46-44.34,24.24
		c15.44,4.4,31.11,10.44,42.93,21.66c6.13,5.73,10.72,13.721,10.44,22.33c0.18,15.15-8.32,28.8-18.42,39.45
		c-14.04,14.53-31.36,25.38-49.1,34.8c-33.67,17.609-69.75,30.189-106.28,40.391c60.16,2.799,120.62,0.101,180.2-8.931
		c82.949-12.56,164.301-37.3,239.101-75.489c35.21-18.111,69.07-39.08,99.91-63.979c16.26-13.33,31.989-27.56,44.87-44.26
		c4.71-6.64,10.13-13.6,10.93-21.97c-0.71-10.26-7.03-18.979-13.271-26.72c-14.521-17.14-32.909-30.54-52.061-42.05
		C595.41,51.18,529.95,35.5,464.99,34.49C426.88,34.09,388.87,38.49,351.41,45.27 M721.98,174.84
		c-19.4,22.92-41.29,43.66-64.802,62.311c-61.27,48.41-132.448,83.289-206.568,107.181c-85.57,27.38-175.86,39.97-265.641,37.239
		c-9.74,2.359-19.44,4.99-29.09,7.721c70.14,5.939,141.17,2.58,210.25-11.189c81.74-16.199,160.8-46.091,232.54-88.521
		c32.58-19.45,63.92-41.312,91.83-67.09c10.11-9.552,20.04-19.51,27.81-31.11C721.58,186.57,724.31,180.66,721.98,174.84z"/>
	<path fill="#1E1E1E" stroke="#1E1E1E" stroke-width="5" d="M439.33,98.33c5.86-0.94,11.76-0.26,17.65-0.32
		c43.71,1.34,87.528,11.2,126.43,31.49c15.52,8.08,30.08,17.9,43.58,29.01c-29.182,25.54-62.41,46.11-97.03,63.391
		c-42.03,20.681-86.29,36.709-131.59,48.569c32.02-15.989,63.95-32.229,95.06-49.96c20.36-11.85,40.932-23.64,59.25-38.54
		c-46.699,1.44-93.39,3.15-140.09,4.48c48.09-12.62,96.28-24.9,144.391-37.47c-24-17.65-51.841-29.14-79.711-39.15
		C464.74,105.66,452.25,101.18,439.33,98.33z"/>
</g>
<g id="_x23_91764cff">
	<path fill="#91764C" stroke="#91764C" stroke-width="5" d="M394.24,45.71c34.09-4.2,68.62-5.77,102.858-2.55
		c44.29,4.08,88.04,15.48,128.182,34.74c17.46,8.47,34.27,18.4,49.63,30.29c11.27,8.9,22.17,18.7,30,30.86
		c3.27,5.35,6.58,11.88,4.35,18.25c-2.858,7.52-7.89,13.95-12.979,20.08c-11.49,13.48-24.812,25.25-38.53,36.38
		c-28.7,22.91-59.979,42.44-92.49,59.44c-74.09,38.63-154.81,63.93-237.2,77.25c-47.31,7.649-95.25,11.22-143.148,11.26
		c28.4-10.17,56.52-21.649,82.31-37.431c13.75-8.479,27-18.139,37.75-30.289c9.83-11,17.47-24.87,17.799-39.92
		c0.439-9.551-3.75-18.79-10.119-25.73c-8.602-9.38-20.042-15.56-31.67-20.39c17.51-9.05,34.47-19.5,49.09-32.81
		c12.75-11.72,24.3-26.36,27.05-43.92c1.88-10.41-0.7-21.64-7.55-29.79c-9.392-11.28-23.271-17.47-36.95-21.8
		c-14.37-4.44-29.33-6.65-44.29-7.84C309.63,60.21,351.66,51.04,394.24,45.71 M398.58,94.58c30.54,7.31,60.81,15.94,90.27,26.86
		c17.812,6.79,35.57,14.18,51.53,24.7c-63.46,16.57-127.03,32.77-190.47,49.44c60.148-2.02,120.31-4.1,180.47-5.83
		c-21.45,15.07-44.74,27.25-67.729,39.73c-39.36,21.01-79.41,40.688-119.42,60.398c30.13-5.279,59.868-12.72,89.09-21.76
		c40.238-12.49,79.54-28.229,116.729-48.09c31.79-17.09,62.13-37.24,88.771-61.67c-36.69-33.03-83.302-53.99-131.73-62.49
		C470.65,89.66,434.13,88.82,398.58,94.58z"/>
</g>
<g id="_x23_ef5223ff">
	<path fill="#EF5223" stroke="#EF5223" stroke-width="5" d="M721.98,174.84c2.328,5.82-0.4,11.73-3.672,16.54
		c-7.77,11.6-17.698,21.56-27.81,31.11c-27.91,25.779-59.25,47.64-91.83,67.09c-71.74,42.43-150.8,72.32-232.54,88.52
		c-69.08,13.771-140.11,17.131-210.25,11.19c9.65-2.729,19.35-5.36,29.09-7.72c89.78,2.729,180.07-9.86,265.641-37.24
		c74.119-23.891,145.3-58.77,206.568-107.18C680.69,218.5,702.58,197.76,721.98,174.84z"/>
</g>
<g id="_x23_ffffffff_1_">
	<path fill="#FFFFFF" d="M351.09,45.268c37.46-6.78,75.47-11.18,113.58-10.78c64.96,1.01,130.42,16.69,186.68,49.75
		c19.15,11.51,37.54,24.91,52.061,42.05c6.239,7.74,12.561,16.46,13.271,26.72c-0.8,8.37-6.22,15.33-10.93,21.97
		c-12.88,16.7-28.61,30.93-44.87,44.26c-30.84,24.9-64.7,45.869-99.91,63.98c-74.8,38.188-156.15,62.93-239.1,75.488
		c-59.582,9.029-120.042,11.729-180.2,8.932c36.53-10.201,72.61-22.781,106.28-40.392c17.74-9.42,35.06-20.271,49.1-34.8
		c10.1-10.65,18.6-24.301,18.42-39.45c0.28-8.608-4.31-16.601-10.44-22.33c-11.82-11.22-27.49-17.26-42.93-21.66
		c15.44-6.78,30.4-14.729,44.34-24.24c12.45-8.6,24.352-18.42,33.271-30.76c6.84-9.52,11.63-21.17,10.56-33.08
		c-0.7-8.22-5.34-15.68-11.6-20.86c-7.971-6.65-17.721-10.67-27.55-13.69c-16.01-4.75-32.65-6.91-49.271-8.06
		c-12.16-0.75-24.37-1.16-36.55-0.59C266.39,63.958,308.47,53.118,351.09,45.268 M393.92,45.708
		c-42.58,5.33-84.61,14.5-125.91,26.08c14.96,1.19,29.92,3.4,44.29,7.84c13.68,4.33,27.56,10.52,36.95,21.8
		c6.85,8.15,9.43,19.38,7.55,29.79c-2.75,17.562-14.3,32.2-27.05,43.92c-14.62,13.31-31.58,23.76-49.09,32.81
		c11.63,4.83,23.07,11.01,31.67,20.39c6.368,6.94,10.56,16.18,10.118,25.73c-0.328,15.05-7.97,28.92-17.798,39.92
		c-10.75,12.15-24,21.81-37.75,30.289c-25.79,15.781-53.91,27.261-82.31,37.431c47.9-0.04,95.84-3.61,143.148-11.26
		c82.392-13.32,163.11-38.62,237.2-77.25c32.511-17,63.79-36.53,92.49-59.44c13.72-11.13,27.04-22.9,38.53-36.38
		c5.09-6.13,10.12-12.56,12.979-20.08c2.23-6.37-1.08-12.9-4.35-18.25c-7.83-12.16-18.73-21.96-30-30.86
		c-15.36-11.89-32.17-21.82-49.63-30.29c-40.139-19.26-83.889-30.66-128.179-34.74C462.54,39.938,428.01,41.508,393.92,45.708z"/>
	<path fill="#FFFFFF" d="M398.26,94.578c35.55-5.76,72.07-4.92,107.51,1.29c48.43,8.5,95.04,29.46,131.73,62.49
		c-26.642,24.43-56.98,44.58-88.771,61.67c-37.188,19.86-76.49,35.6-116.729,48.09c-29.222,9.04-58.96,16.479-89.09,21.76
		c40.01-19.71,80.06-39.39,119.42-60.399c22.989-12.48,46.279-24.66,67.729-39.73c-60.16,1.73-120.32,3.81-180.47,5.83
		c63.438-16.67,127.01-32.87,190.47-49.44c-15.96-10.52-33.72-17.91-51.53-24.7C459.069,110.518,428.8,101.888,398.26,94.578
		 M439.01,98.328c12.92,2.85,25.41,7.33,37.938,11.5c27.87,10.01,55.712,21.5,79.712,39.15c-48.11,12.57-96.302,24.85-144.392,37.47
		c46.7-1.33,93.392-3.04,140.09-4.48c-18.318,14.9-38.89,26.69-59.25,38.54c-31.108,17.73-63.04,33.971-95.06,49.96
		c45.3-11.86,89.56-27.89,131.59-48.569c34.62-17.279,67.85-37.851,97.03-63.391c-13.5-11.11-28.062-20.93-43.58-29.01
		c-38.9-20.29-82.72-30.15-126.431-31.49C450.77,98.068,444.87,97.388,439.01,98.328z"/>
</g>
<g id="_x23_828689ff_1_">
	<path fill="#828689" d="M393.449,3.838c53.53-5.85,108.04-4.3,160.82,6.75c39.021,8.13,77.37,20.9,112.12,40.64
		c24.87,14.31,48.26,32.47,64.59,56.36c11.24,16.23,18.38,35.37,19.7,55.12v11.61c-0.97,11.78-4.5,23.25-9.79,33.78
		c-7.57,15.601-18.36,29.391-30.11,42.061c-21.59,22.81-46.83,41.88-73.27,58.689c-34.46,21.811-71.22,39.851-109,55.121
		c-72.851,29.18-149.771,48.358-227.89,56.108c-67.22,6.63-135.43,3.7-201.75-9.18c-33.58-6.771-66.98-15.45-98.55-28.892
		c41.69-11.42,83.06-24.08,123.8-38.57c31.77-11.5,63.46-23.698,93.13-39.979c11.2-6.359,22.36-13.2,31.46-22.42
		c4.61-4.95,9.17-11.061,8.84-18.17c-0.71-6.63-6.81-10.74-12.19-13.65c-12.31-6.148-25.93-8.988-39.36-11.488
		c-23.95-4.19-48.24-5.99-72.51-7.121c30.25-11.51,60.03-24.319,88.94-38.891c15.78-8.13,31.41-16.71,45.78-27.188
		c6.64-4.93,13.05-10.36,18.04-17.01c3.38-4.61,6.1-10.91,3.3-16.46c-3.92-7.27-12.13-10.56-19.52-13.16
		c-18.19-5.73-37.34-7.37-56.27-8.63c-40.48-2.2-81.07-0.8-121.49,1.96c17.83-11.87,36.6-22.25,55.61-32.08
		C224.57,40.218,307.79,13.188,393.449,3.838 M258.38,42.888c-44.98,14.99-88.66,34-130.06,57.14c31.36-1.69,62.86-2.04,94.18,0.72
		c17.09,1.6,34.29,3.96,50.6,9.54c8.67,3.21,17.77,7.31,23.25,15.12c3.87,5.43,4.32,12.78,1.69,18.83
		c-3.9,9.39-11.54,16.52-19.11,23.02c-15.71,12.94-33.57,22.93-51.54,32.36c-17.29,8.87-35.01,16.89-52.91,24.46
		c15.15,1.55,30.3,3.51,45.15,6.99c11.79,2.869,23.7,6.359,34.01,12.96c6.25,4.04,12.1,10.05,12.87,17.81
		c0.79,8.82-4.25,16.83-9.87,23.17c-9.51,10.45-21.49,18.26-33.57,25.4c-25.64,14.71-53.03,26.05-80.64,36.49
		c-37.08,13.879-74.93,25.6-112.99,36.49c30.06,10.09,61.05,17.248,92.32,22.378c58.19,9.41,117.57,11.132,176.23,5.57
		c85.08-8.16,168.84-29.88,247.24-63.88c36.26-15.87,71.41-34.47,104.021-56.97c25.938-18.12,50.71-38.642,69.89-64.021
		c10.62-14.36,19.6-30.64,22.09-48.56c2.16-19.49-2.45-39.44-11.96-56.5c-8.39-15.24-20.2-28.38-33.47-39.53
		c-25.26-21.09-55.22-35.8-86.07-46.78C566.02,19.758,519.899,11.718,473.66,9.848C400.63,7.218,327.609,20.068,258.38,42.888z"/>
</g>
<g id="_x23_1e1e1eff_1_">
	<path fill="#1E1E1E" d="M258.38,42.888c69.229-22.82,142.25-35.67,215.28-33.04c46.238,1.87,92.358,9.91,136.068,25.25
		c30.852,10.98,60.812,25.69,86.07,46.78c13.27,11.15,25.08,24.29,33.47,39.53c9.51,17.06,14.12,37.01,11.96,56.5
		c-2.49,17.92-11.47,34.199-22.09,48.56c-19.18,25.38-43.95,45.9-69.89,64.021c-32.61,22.5-67.762,41.1-104.021,56.97
		c-78.398,34-162.16,55.72-247.24,63.88c-58.66,5.562-118.04,3.84-176.23-5.569c-31.27-5.131-62.26-12.289-92.32-22.379
		c38.06-10.892,75.91-22.611,112.99-36.49c27.61-10.44,55-21.78,80.64-36.49c12.08-7.141,24.06-14.95,33.57-25.4
		c5.62-6.34,10.66-14.35,9.87-23.17c-0.77-7.76-6.62-13.77-12.87-17.81c-10.31-6.601-22.22-10.091-34.01-12.96
		c-14.85-3.48-30-5.44-45.15-6.99c17.9-7.57,35.62-15.59,52.91-24.46c17.97-9.43,35.83-19.42,51.54-32.36
		c7.57-6.5,15.21-13.63,19.11-23.02c2.63-6.05,2.18-13.4-1.69-18.83c-5.48-7.81-14.58-11.91-23.25-15.12
		c-16.31-5.58-33.51-7.94-50.6-9.54c-31.32-2.76-62.82-2.41-94.18-0.72C169.72,76.888,213.4,57.878,258.38,42.888 M351.09,45.268
		c-42.62,7.85-84.7,18.69-125.79,32.46c12.18-0.57,24.39-0.16,36.55,0.59c16.62,1.15,33.26,3.31,49.271,8.06
		c9.828,3.02,19.578,7.04,27.55,13.69c6.26,5.18,10.898,12.64,11.6,20.86c1.07,11.91-3.72,23.56-10.56,33.08
		c-8.92,12.34-20.82,22.16-33.271,30.76c-13.94,9.51-28.9,17.46-44.34,24.24c15.44,4.4,31.11,10.44,42.93,21.66
		c6.13,5.73,10.72,13.721,10.44,22.33c0.18,15.15-8.32,28.8-18.42,39.45c-14.04,14.53-31.36,25.38-49.1,34.8
		c-33.67,17.609-69.75,30.189-106.28,40.391c60.16,2.799,120.62,0.101,180.2-8.931c82.949-12.56,164.301-37.3,239.101-75.489
		c35.21-18.111,69.07-39.08,99.91-63.979c16.26-13.33,31.989-27.56,44.87-44.26c4.71-6.64,10.13-13.6,10.93-21.97
		c-0.71-10.26-7.03-18.979-13.271-26.72c-14.521-17.14-32.909-30.54-52.061-42.05C595.09,51.178,529.63,35.498,464.67,34.488
		C426.56,34.088,388.55,38.488,351.09,45.268 M721.66,174.838c-19.4,22.92-41.29,43.66-64.802,62.311
		c-61.27,48.41-132.448,83.289-206.568,107.181c-85.57,27.38-175.86,39.97-265.641,37.239c-9.74,2.359-19.44,4.99-29.09,7.721
		c70.14,5.939,141.17,2.58,210.25-11.189c81.74-16.199,160.8-46.091,232.54-88.521c32.58-19.45,63.92-41.312,91.83-67.09
		c10.11-9.552,20.04-19.511,27.81-31.11C721.26,186.568,723.989,180.658,721.66,174.838z"/>
	<path fill="#1E1E1E" d="M439.01,98.328c5.86-0.94,11.76-0.26,17.65-0.32c43.71,1.34,87.528,11.2,126.43,31.49
		c15.52,8.08,30.08,17.9,43.58,29.01c-29.182,25.54-62.41,46.11-97.03,63.391c-42.03,20.681-86.29,36.709-131.59,48.569
		c32.02-15.989,63.95-32.229,95.06-49.96c20.36-11.85,40.932-23.64,59.25-38.54c-46.699,1.44-93.39,3.15-140.09,4.48
		c48.09-12.62,96.28-24.9,144.391-37.47c-24-17.65-51.841-29.14-79.711-39.15C464.42,105.658,451.93,101.178,439.01,98.328z"/>
	<path fill="#1E1E1E" d="M636.68,322.248c4.41,0,8.83-0.01,13.25,0.01c0,0.561,0,1.67,0,2.23c-1.92,0-3.84,0-5.75,0.01
		c-0.01,5.41-0.01,10.82,0,16.23c-0.56,0.01-1.68,0.028-2.24,0.039c-0.028-5.42-0.01-10.84-0.01-16.271c-1.76,0-3.51-0.01-5.25-0.01
		C636.68,323.928,636.68,322.809,636.68,322.248z"/>
	<path fill="#1E1E1E" d="M652.17,322.268c1.13-0.02,2.278-0.028,3.43-0.028c1.561,4.829,3.03,9.688,4.58,14.528
		c1.57-4.84,3.07-9.699,4.62-14.549c0.84,0.01,2.53,0.029,3.38,0.039c0,6.16,0,12.33-0.01,18.49l-2.23,0.01
		c-0.02-4.88-0.01-9.77-0.01-14.65c-1.53,4.892-3.04,9.781-4.62,14.66c-0.57-0.02-1.72-0.039-2.29-0.06
		c-1.51-4.851-2.979-9.7-4.58-14.521c-0.028,4.851,0.01,9.711-0.02,14.569l-2.23-0.01
		C652.17,334.588,652.189,328.428,652.17,322.268z"/>
</g>
<g id="_x23_91764cff_1_">
	<path fill="#91764C" d="M393.92,45.708c34.09-4.2,68.62-5.77,102.858-2.55c44.29,4.08,88.04,15.48,128.182,34.74
		c17.46,8.47,34.27,18.4,49.63,30.29c11.27,8.9,22.17,18.7,30,30.86c3.27,5.35,6.58,11.88,4.35,18.25
		c-2.858,7.52-7.89,13.95-12.979,20.08c-11.49,13.48-24.812,25.25-38.53,36.38c-28.7,22.91-59.979,42.44-92.49,59.44
		c-74.09,38.63-154.81,63.93-237.2,77.25c-47.31,7.649-95.25,11.22-143.148,11.26c28.4-10.17,56.52-21.649,82.31-37.431
		c13.75-8.479,27-18.139,37.75-30.289c9.83-11,17.47-24.87,17.799-39.92c0.439-9.551-3.75-18.79-10.119-25.73
		c-8.602-9.38-20.042-15.56-31.67-20.39c17.51-9.05,34.47-19.5,49.09-32.81c12.75-11.72,24.3-26.36,27.05-43.92
		c1.88-10.41-0.7-21.64-7.55-29.79c-9.392-11.28-23.271-17.47-36.95-21.8c-14.37-4.44-29.33-6.65-44.29-7.84
		C309.31,60.208,351.34,51.038,393.92,45.708 M398.26,94.578c30.54,7.31,60.81,15.94,90.27,26.86
		c17.812,6.79,35.57,14.18,51.53,24.7c-63.46,16.57-127.03,32.77-190.47,49.44c60.148-2.02,120.31-4.1,180.47-5.83
		c-21.45,15.07-44.74,27.25-67.729,39.73c-39.36,21.01-79.41,40.688-119.42,60.398c30.13-5.279,59.868-12.72,89.09-21.76
		c40.238-12.49,79.54-28.229,116.729-48.09c31.79-17.09,62.13-37.24,88.771-61.67c-36.69-33.03-83.302-53.99-131.73-62.49
		C470.33,89.658,433.81,88.818,398.26,94.578z"/>
</g>
<g id="_x23_ef5223ff_1_">
	<path fill="#EF5223" d="M721.66,174.838c2.328,5.82-0.4,11.73-3.672,16.54c-7.77,11.601-17.698,21.56-27.81,31.11
		c-27.91,25.779-59.25,47.64-91.83,67.09c-71.74,42.43-150.8,72.32-232.54,88.52c-69.08,13.771-140.11,17.131-210.25,11.19
		c9.65-2.729,19.35-5.36,29.09-7.72c89.78,2.729,180.07-9.86,265.641-37.24c74.119-23.891,145.3-58.77,206.568-107.18
		C680.37,218.498,702.26,197.758,721.66,174.838z"/>
</g>
</svg>
