<svg xmlns="http://www.w3.org/2000/svg" width="751" height="424" viewBox="0 0 751 424"><path d="M351.41 45.27c37.46-6.78 75.47-11.18 113.58-10.78 64.96 1.01 130.42 16.69 186.68 49.75 19.15 11.51 37.54 24.91 52.06 42.05 6.24 7.74 12.562 16.46 13.272 26.72-.8 8.37-6.22 15.33-10.93 21.97-12.88 16.7-28.61 30.93-44.87 44.26-30.84 24.9-64.7 45.87-99.91 63.98-74.8 38.188-156.15 62.93-239.1 75.488-59.582 9.03-120.042 11.73-180.2 8.932 36.53-10.2 72.61-22.78 106.28-40.392 17.74-9.42 35.06-20.27 49.1-34.8 10.1-10.65 18.6-24.3 18.42-39.45.28-8.608-4.31-16.6-10.44-22.33-11.82-11.22-27.49-17.26-42.93-21.66 15.44-6.78 30.4-14.73 44.34-24.24 12.45-8.6 24.352-18.42 33.27-30.76 6.84-9.52 11.63-21.17 10.56-33.08-.7-8.22-5.34-15.68-11.6-20.86-7.97-6.65-17.72-10.67-27.55-13.69-16.01-4.75-32.65-6.91-49.27-8.06-12.16-.75-24.37-1.16-36.55-.59C266.71 63.96 308.79 53.12 351.41 45.27m42.83.44c-42.58 5.33-84.61 14.5-125.91 26.08 14.96 1.19 29.92 3.4 44.29 7.84 13.68 4.33 27.56 10.52 36.95 21.8 6.85 8.15 9.43 19.38 7.55 29.79-2.75 17.562-14.3 32.2-27.05 43.92-14.62 13.31-31.58 23.76-49.09 32.81 11.63 4.83 23.07 11.01 31.67 20.39 6.368 6.94 10.56 16.18 10.118 25.73-.328 15.05-7.97 28.92-17.798 39.92-10.75 12.15-24 21.81-37.75 30.29-25.79 15.78-53.91 27.26-82.31 37.43 47.9-.04 95.84-3.61 143.148-11.26 82.392-13.32 163.11-38.62 237.2-77.25 32.51-17 63.79-36.53 92.49-59.44 13.72-11.13 27.04-22.9 38.53-36.38 5.09-6.13 10.12-12.56 12.98-20.08 2.23-6.37-1.08-12.9-4.35-18.25-7.83-12.16-18.73-21.96-30-30.86-15.36-11.89-32.17-21.82-49.63-30.29C585.14 58.64 541.39 47.24 497.1 43.16c-34.24-3.22-68.77-1.65-102.86 2.55zm4.34 48.87c35.55-5.76 72.07-4.92 107.51 1.29 48.43 8.5 95.04 29.46 131.73 62.49-26.642 24.43-56.98 44.58-88.77 61.67-37.19 19.86-76.49 35.6-116.73 48.09-29.222 9.04-58.96 16.48-89.09 21.76 40.01-19.71 80.06-39.39 119.42-60.4 22.99-12.48 46.28-24.66 67.73-39.73-60.16 1.73-120.32 3.81-180.47 5.83 63.438-16.67 127.01-32.87 190.47-49.44-15.96-10.52-33.72-17.91-51.53-24.7-29.46-10.92-59.73-19.55-90.27-26.86m40.75 3.75c12.92 2.85 25.41 7.33 37.938 11.5 27.87 10.01 55.712 21.5 79.712 39.15-48.11 12.57-96.302 24.85-144.392 37.47 46.7-1.33 93.392-3.04 140.09-4.48-18.318 14.9-38.89 26.69-59.25 38.54-31.108 17.73-63.04 33.97-95.06 49.96 45.3-11.86 89.56-27.89 131.59-48.57 34.62-17.278 67.85-37.85 97.03-63.39-13.5-11.11-28.062-20.93-43.58-29.01-38.9-20.29-82.72-30.15-126.43-31.49-5.888.06-11.788-.62-17.648.32z" fill="#fff" stroke="#fff" stroke-width="5"/><path fill="#828689" d="M393.77 3.84c53.53-5.85 108.04-4.3 160.82 6.75 39.02 8.13 77.37 20.9 112.12 40.64 24.87 14.31 48.26 32.47 64.59 56.36 11.24 16.23 18.38 35.37 19.7 55.12v11.61c-.97 11.78-4.5 23.25-9.79 33.78-7.57 15.6-18.36 29.39-30.11 42.06-21.59 22.81-46.83 41.88-73.27 58.69-34.46 21.81-71.22 39.85-109 55.12-72.85 29.18-149.77 48.358-227.89 56.108-67.22 6.63-135.43 3.7-201.75-9.18-33.58-6.77-66.98-15.45-98.55-28.892 41.69-11.42 83.06-24.08 123.8-38.57 31.77-11.5 63.46-23.698 93.13-39.98 11.2-6.358 22.36-13.2 31.46-22.42 4.61-4.95 9.17-11.06 8.84-18.17-.71-6.63-6.81-10.74-12.19-13.65-12.31-6.147-25.93-8.987-39.36-11.487-23.95-4.19-48.24-5.99-72.51-7.123 30.25-11.51 60.03-24.32 88.94-38.89 15.78-8.13 31.41-16.71 45.78-27.19 6.64-4.93 13.05-10.36 18.04-17.01 3.38-4.61 6.1-10.91 3.3-16.46-3.92-7.27-12.13-10.56-19.52-13.16-18.19-5.73-37.34-7.37-56.27-8.63-40.48-2.2-81.07-.8-121.49 1.96 17.83-11.87 36.6-22.25 55.61-32.08C224.89 40.22 308.11 13.19 393.77 3.84M258.7 42.89c-44.98 14.99-88.66 34-130.06 57.14 31.36-1.69 62.86-2.04 94.18.72 17.09 1.6 34.29 3.96 50.6 9.54 8.67 3.21 17.77 7.31 23.25 15.12 3.87 5.43 4.32 12.78 1.69 18.83-3.9 9.39-11.54 16.52-19.11 23.02-15.71 12.94-33.57 22.93-51.54 32.36-17.29 8.87-35.01 16.89-52.91 24.46 15.15 1.55 30.3 3.51 45.15 6.99 11.79 2.87 23.7 6.36 34.01 12.96 6.25 4.04 12.1 10.05 12.87 17.81.79 8.82-4.25 16.83-9.87 23.17-9.51 10.45-21.49 18.26-33.57 25.4-25.64 14.71-53.03 26.05-80.64 36.49-37.08 13.88-74.93 25.6-112.99 36.49 30.06 10.09 61.05 17.248 92.32 22.378 58.19 9.41 117.57 11.132 176.23 5.57 85.08-8.16 168.84-29.88 247.24-63.88 36.26-15.87 71.41-34.47 104.02-56.97 25.94-18.12 50.71-38.642 69.89-64.02 10.62-14.36 19.6-30.64 22.09-48.56 2.16-19.49-2.45-39.44-11.96-56.5-8.39-15.24-20.2-28.38-33.47-39.53-25.26-21.09-55.22-35.8-86.07-46.78C566.34 19.76 520.22 11.72 473.98 9.85 400.95 7.22 327.93 20.07 258.7 42.89z"/><path d="M258.7 42.89C327.93 20.07 400.95 7.22 473.98 9.85c46.238 1.87 92.358 9.91 136.068 25.25 30.852 10.98 60.812 25.69 86.07 46.78 13.27 11.15 25.08 24.29 33.47 39.53 9.51 17.06 14.12 37.01 11.96 56.5-2.49 17.92-11.47 34.2-22.09 48.56-19.18 25.38-43.95 45.9-69.89 64.02-32.61 22.5-67.762 41.1-104.02 56.97-78.4 34-162.16 55.72-247.24 63.88-58.66 5.563-118.04 3.84-176.23-5.568-31.27-5.13-62.26-12.29-92.32-22.38 38.06-10.89 75.91-22.61 112.99-36.49 27.61-10.44 55-21.78 80.64-36.49 12.08-7.14 24.06-14.95 33.57-25.4 5.62-6.34 10.66-14.35 9.87-23.17-.77-7.76-6.62-13.77-12.87-17.81-10.31-6.6-22.22-10.09-34.01-12.96-14.85-3.48-30-5.44-45.15-6.99 17.9-7.57 35.62-15.59 52.91-24.46 17.97-9.43 35.83-19.42 51.54-32.36 7.57-6.5 15.21-13.63 19.11-23.02 2.63-6.05 2.18-13.4-1.69-18.83-5.48-7.81-14.58-11.91-23.25-15.12-16.31-5.58-33.51-7.94-50.6-9.54-31.32-2.76-62.82-2.41-94.18-.72C170.04 76.89 213.72 57.88 258.7 42.89m92.71 2.38c-42.62 7.85-84.7 18.69-125.79 32.46 12.18-.57 24.39-.16 36.55.59 16.62 1.15 33.26 3.31 49.27 8.06 9.83 3.02 19.58 7.04 27.55 13.69 6.26 5.18 10.9 12.64 11.6 20.86 1.07 11.91-3.72 23.56-10.56 33.08-8.92 12.34-20.82 22.16-33.27 30.76-13.94 9.51-28.9 17.46-44.34 24.24 15.44 4.4 31.11 10.44 42.93 21.66 6.13 5.73 10.72 13.72 10.44 22.33.18 15.15-8.32 28.8-18.42 39.45-14.04 14.53-31.36 25.38-49.1 34.8-33.67 17.61-69.75 30.19-106.28 40.39 60.16 2.8 120.62.102 180.2-8.93 82.95-12.56 164.3-37.3 239.1-75.49 35.21-18.11 69.07-39.08 99.91-63.978 16.26-13.33 31.99-27.56 44.87-44.26 4.71-6.64 10.13-13.6 10.93-21.97-.71-10.26-7.03-18.98-13.27-26.72-14.52-17.14-32.91-30.54-52.06-42.05C595.41 51.18 529.95 35.5 464.99 34.49c-38.11-.4-76.12 4-113.58 10.78m370.57 129.57c-19.4 22.92-41.29 43.66-64.802 62.31-61.27 48.41-132.448 83.29-206.568 107.182-85.57 27.38-175.86 39.97-265.64 37.24-9.74 2.358-19.44 4.99-29.09 7.72 70.14 5.94 141.17 2.58 210.25-11.19 81.74-16.198 160.8-46.09 232.54-88.52 32.58-19.45 63.92-41.312 91.83-67.09 10.11-9.552 20.04-19.51 27.81-31.11 3.27-4.812 6-10.722 3.67-16.542zM439.33 98.33c5.86-.94 11.76-.26 17.65-.32 43.71 1.34 87.528 11.2 126.43 31.49 15.52 8.08 30.08 17.9 43.58 29.01-29.182 25.54-62.41 46.11-97.03 63.39-42.03 20.682-86.29 36.71-131.59 48.57 32.02-15.99 63.95-32.23 95.06-49.96 20.36-11.85 40.932-23.64 59.25-38.54-46.7 1.44-93.39 3.15-140.09 4.48 48.09-12.62 96.28-24.9 144.39-37.47-24-17.65-51.84-29.14-79.71-39.15-12.53-4.17-25.02-8.65-37.94-11.5z" fill="#1E1E1E" stroke="#1E1E1E" stroke-width="5"/><path fill="#91764C" stroke="#91764C" stroke-width="5" d="M394.24 45.71c34.09-4.2 68.62-5.77 102.858-2.55 44.29 4.08 88.04 15.48 128.182 34.74 17.46 8.47 34.27 18.4 49.63 30.29 11.27 8.9 22.17 18.7 30 30.86 3.27 5.35 6.58 11.88 4.35 18.25-2.858 7.52-7.89 13.95-12.98 20.08-11.49 13.48-24.81 25.25-38.53 36.38-28.7 22.91-59.978 42.44-92.49 59.44-74.09 38.63-154.81 63.93-237.2 77.25-47.31 7.65-95.25 11.22-143.147 11.26 28.4-10.17 56.52-21.65 82.31-37.43 13.75-8.48 27-18.14 37.75-30.29 9.83-11 17.47-24.87 17.8-39.92.438-9.55-3.75-18.79-10.12-25.73-8.602-9.38-20.042-15.56-31.67-20.39 17.51-9.05 34.47-19.5 49.09-32.81 12.75-11.72 24.3-26.36 27.05-43.92 1.88-10.41-.7-21.64-7.55-29.79-9.392-11.28-23.27-17.47-36.95-21.8-14.37-4.44-29.33-6.65-44.29-7.84C309.63 60.21 351.66 51.04 394.24 45.71m4.34 48.87c30.54 7.31 60.81 15.94 90.27 26.86 17.812 6.79 35.57 14.18 51.53 24.7-63.46 16.57-127.03 32.77-190.47 49.44 60.148-2.02 120.31-4.1 180.47-5.83-21.45 15.07-44.74 27.25-67.73 39.73-39.36 21.01-79.41 40.688-119.42 60.398 30.13-5.28 59.87-12.72 89.09-21.76 40.24-12.49 79.54-28.23 116.73-48.09 31.79-17.09 62.13-37.24 88.77-61.67-36.69-33.03-83.3-53.99-131.73-62.49-35.44-6.208-71.96-7.048-107.51-1.288z"/><path fill="#EF5223" stroke="#EF5223" stroke-width="5" d="M721.98 174.84c2.328 5.82-.4 11.73-3.672 16.54-7.77 11.6-17.698 21.56-27.81 31.11-27.91 25.78-59.25 47.64-91.83 67.09-71.74 42.43-150.8 72.32-232.54 88.52-69.08 13.77-140.11 17.13-210.25 11.19 9.65-2.73 19.35-5.36 29.09-7.72 89.78 2.73 180.07-9.86 265.64-37.24 74.12-23.89 145.3-58.77 206.57-107.18 23.512-18.65 45.402-39.39 64.802-62.31z"/><path d="M351.09 45.268c37.46-6.78 75.47-11.18 113.58-10.78 64.96 1.01 130.42 16.69 186.68 49.75 19.15 11.51 37.54 24.91 52.06 42.05 6.24 7.74 12.562 16.46 13.272 26.72-.8 8.37-6.22 15.33-10.93 21.97-12.88 16.7-28.61 30.93-44.87 44.26-30.84 24.9-64.7 45.87-99.91 63.98-74.8 38.188-156.15 62.93-239.1 75.488-59.582 9.03-120.042 11.73-180.2 8.932 36.53-10.2 72.61-22.78 106.28-40.392 17.74-9.42 35.06-20.27 49.1-34.8 10.1-10.65 18.6-24.3 18.42-39.45.28-8.608-4.31-16.6-10.44-22.33-11.82-11.22-27.49-17.26-42.93-21.66 15.44-6.78 30.4-14.73 44.34-24.24 12.45-8.6 24.352-18.42 33.27-30.76 6.84-9.52 11.63-21.17 10.56-33.08-.7-8.22-5.34-15.68-11.6-20.86-7.97-6.65-17.72-10.67-27.55-13.69-16.01-4.75-32.65-6.91-49.27-8.06-12.16-.75-24.37-1.16-36.55-.59C266.39 63.958 308.47 53.118 351.09 45.268m42.83.44c-42.58 5.33-84.61 14.5-125.91 26.08 14.96 1.19 29.92 3.4 44.29 7.84 13.68 4.33 27.56 10.52 36.95 21.8 6.85 8.15 9.43 19.38 7.55 29.79-2.75 17.562-14.3 32.2-27.05 43.92-14.62 13.31-31.58 23.76-49.09 32.81 11.63 4.83 23.07 11.01 31.67 20.39 6.368 6.94 10.56 16.18 10.118 25.73-.328 15.05-7.97 28.92-17.798 39.92-10.75 12.15-24 21.81-37.75 30.29-25.79 15.78-53.91 27.26-82.31 37.43 47.9-.04 95.84-3.61 143.148-11.26 82.392-13.32 163.11-38.62 237.2-77.25 32.51-17 63.79-36.53 92.49-59.44 13.72-11.13 27.04-22.9 38.53-36.38 5.09-6.13 10.12-12.56 12.98-20.08 2.23-6.37-1.08-12.9-4.35-18.25-7.83-12.16-18.73-21.96-30-30.86-15.36-11.89-32.17-21.82-49.63-30.29-40.14-19.26-83.89-30.66-128.18-34.74-34.238-3.22-68.768-1.65-102.858 2.55zm4.34 48.87c35.55-5.76 72.07-4.92 107.51 1.29 48.43 8.5 95.04 29.46 131.73 62.49-26.642 24.43-56.98 44.58-88.77 61.67-37.19 19.86-76.49 35.6-116.73 48.09-29.222 9.04-58.96 16.48-89.09 21.76 40.01-19.71 80.06-39.39 119.42-60.4 22.99-12.48 46.28-24.66 67.73-39.73-60.16 1.73-120.32 3.81-180.47 5.83 63.437-16.67 127.01-32.87 190.47-49.44-15.96-10.52-33.72-17.91-51.53-24.7-29.46-10.92-59.73-19.55-90.27-26.86m40.75 3.75c12.92 2.85 25.41 7.33 37.938 11.5 27.87 10.01 55.712 21.5 79.712 39.15-48.11 12.57-96.302 24.85-144.392 37.47 46.7-1.33 93.392-3.04 140.09-4.48-18.318 14.9-38.89 26.69-59.25 38.54-31.108 17.73-63.04 33.97-95.06 49.96 45.3-11.86 89.56-27.89 131.59-48.57 34.62-17.278 67.85-37.85 97.03-63.39-13.5-11.11-28.062-20.93-43.58-29.01-38.9-20.29-82.72-30.15-126.43-31.49-5.888.06-11.788-.62-17.648.32z" fill="#fff"/><path fill="#828689" d="M393.45 3.838c53.53-5.85 108.04-4.3 160.82 6.75 39.02 8.13 77.37 20.9 112.12 40.64 24.87 14.31 48.26 32.47 64.59 56.36 11.24 16.23 18.38 35.37 19.7 55.12v11.61c-.97 11.78-4.5 23.25-9.79 33.78-7.57 15.6-18.36 29.39-30.11 42.06-21.59 22.81-46.83 41.88-73.27 58.69-34.46 21.81-71.22 39.85-109 55.12-72.852 29.18-149.772 48.36-227.89 56.11-67.22 6.63-135.43 3.7-201.75-9.18-33.58-6.772-66.98-15.45-98.55-28.893 41.69-11.42 83.06-24.08 123.8-38.57 31.77-11.5 63.46-23.698 93.13-39.98 11.2-6.358 22.36-13.2 31.46-22.42 4.61-4.95 9.17-11.06 8.84-18.17-.71-6.63-6.81-10.74-12.19-13.65-12.31-6.147-25.93-8.987-39.36-11.487-23.95-4.19-48.24-5.99-72.51-7.12 30.25-11.51 60.03-24.32 88.94-38.892 15.78-8.13 31.41-16.71 45.78-27.188 6.64-4.93 13.05-10.36 18.04-17.01 3.38-4.61 6.1-10.91 3.3-16.46-3.92-7.27-12.13-10.56-19.52-13.16-18.19-5.73-37.34-7.37-56.27-8.63-40.48-2.2-81.07-.8-121.49 1.96 17.83-11.87 36.6-22.25 55.61-32.08 76.69-38.93 159.91-65.96 245.57-75.31m-135.07 39.05c-44.98 14.99-88.66 34-130.06 57.14 31.36-1.69 62.86-2.04 94.18.72 17.09 1.6 34.29 3.96 50.6 9.54 8.67 3.21 17.77 7.31 23.25 15.12 3.87 5.43 4.32 12.78 1.69 18.83-3.9 9.39-11.54 16.52-19.11 23.02-15.71 12.94-33.57 22.93-51.54 32.36-17.29 8.87-35.01 16.89-52.91 24.46 15.15 1.55 30.3 3.51 45.15 6.99 11.79 2.87 23.7 6.36 34.01 12.96 6.25 4.04 12.1 10.05 12.87 17.81.79 8.82-4.25 16.83-9.87 23.17-9.51 10.45-21.49 18.26-33.57 25.4-25.64 14.71-53.03 26.05-80.64 36.49-37.08 13.88-74.93 25.6-112.99 36.49 30.06 10.09 61.05 17.248 92.32 22.378 58.19 9.41 117.57 11.132 176.23 5.57 85.08-8.16 168.84-29.88 247.24-63.88 36.26-15.87 71.41-34.47 104.02-56.97 25.94-18.12 50.71-38.642 69.89-64.02 10.62-14.36 19.6-30.64 22.09-48.56 2.16-19.49-2.45-39.44-11.96-56.5-8.39-15.24-20.2-28.38-33.47-39.53-25.26-21.09-55.22-35.8-86.07-46.78-43.71-15.338-89.83-23.378-136.07-25.248-73.03-2.63-146.05 10.22-215.28 33.04z"/><path d="M258.38 42.888c69.23-22.82 142.25-35.67 215.28-33.04 46.238 1.87 92.358 9.91 136.068 25.25 30.852 10.98 60.812 25.69 86.07 46.78 13.27 11.15 25.08 24.29 33.47 39.53 9.51 17.06 14.12 37.01 11.96 56.5-2.49 17.92-11.47 34.2-22.09 48.56-19.18 25.38-43.95 45.9-69.89 64.02-32.61 22.5-67.762 41.1-104.02 56.97-78.4 34-162.16 55.72-247.24 63.88-58.66 5.563-118.04 3.84-176.23-5.568-31.27-5.13-62.26-12.29-92.32-22.38 38.06-10.89 75.91-22.61 112.99-36.49 27.61-10.44 55-21.78 80.64-36.49 12.08-7.14 24.06-14.95 33.57-25.4 5.62-6.34 10.66-14.35 9.87-23.17-.77-7.76-6.62-13.77-12.87-17.81-10.31-6.6-22.22-10.09-34.01-12.96-14.85-3.48-30-5.44-45.15-6.99 17.9-7.57 35.62-15.59 52.91-24.46 17.97-9.43 35.83-19.42 51.54-32.36 7.57-6.5 15.21-13.63 19.11-23.02 2.63-6.05 2.18-13.4-1.69-18.83-5.48-7.81-14.58-11.91-23.25-15.12-16.31-5.58-33.51-7.94-50.6-9.54-31.32-2.76-62.82-2.41-94.18-.72C169.72 76.89 213.4 57.88 258.38 42.89m92.71 2.38c-42.62 7.85-84.7 18.69-125.79 32.46 12.18-.57 24.39-.16 36.55.59 16.62 1.15 33.26 3.31 49.27 8.06 9.83 3.02 19.58 7.04 27.55 13.69 6.26 5.18 10.9 12.64 11.6 20.86 1.07 11.91-3.72 23.56-10.56 33.08-8.92 12.34-20.82 22.16-33.27 30.76-13.94 9.51-28.9 17.46-44.34 24.24 15.44 4.4 31.11 10.44 42.93 21.66 6.13 5.73 10.72 13.72 10.44 22.33.18 15.15-8.32 28.8-18.42 39.45-14.04 14.53-31.36 25.38-49.1 34.8-33.67 17.61-69.75 30.19-106.28 40.39 60.16 2.8 120.62.102 180.2-8.93 82.95-12.56 164.3-37.3 239.1-75.49 35.21-18.11 69.07-39.08 99.91-63.978 16.26-13.33 31.99-27.56 44.87-44.26 4.71-6.64 10.13-13.6 10.93-21.97-.71-10.26-7.03-18.98-13.27-26.72-14.52-17.14-32.91-30.54-52.06-42.05C595.09 51.18 529.63 35.5 464.67 34.49c-38.11-.4-76.12 4-113.58 10.78m370.57 129.57c-19.4 22.92-41.29 43.66-64.802 62.31-61.27 48.41-132.448 83.29-206.568 107.182-85.57 27.38-175.86 39.97-265.64 37.24-9.74 2.358-19.44 4.99-29.09 7.72 70.14 5.94 141.17 2.58 210.25-11.19 81.74-16.198 160.8-46.09 232.54-88.52 32.58-19.45 63.92-41.312 91.83-67.09 10.11-9.552 20.04-19.51 27.81-31.11 3.27-4.812 6-10.722 3.67-16.542zM439.01 98.328c5.86-.94 11.76-.26 17.65-.32 43.71 1.34 87.528 11.2 126.43 31.49 15.52 8.08 30.08 17.9 43.58 29.01-29.182 25.54-62.41 46.11-97.03 63.39-42.03 20.682-86.29 36.71-131.59 48.57 32.02-15.99 63.95-32.23 95.06-49.96 20.36-11.85 40.932-23.64 59.25-38.54-46.7 1.44-93.39 3.15-140.09 4.48 48.09-12.62 96.28-24.9 144.39-37.47-24-17.65-51.84-29.14-79.71-39.15-12.53-4.17-25.02-8.65-37.94-11.5zm197.67 223.92c4.41 0 8.83-.01 13.25.01v2.23c-1.92 0-3.84 0-5.75.01-.01 5.41-.01 10.82 0 16.23-.56.01-1.68.028-2.24.04-.028-5.42-.01-10.84-.01-16.272-1.76 0-3.51-.01-5.25-.01v-2.238zm15.49.02c1.13-.02 2.278-.028 3.43-.028 1.56 4.83 3.03 9.688 4.58 14.528 1.57-4.84 3.07-9.7 4.62-14.55l3.38.04c0 6.16 0 12.33-.01 18.49l-2.23.01c-.02-4.88-.01-9.77-.01-14.65-1.53 4.892-3.04 9.78-4.62 14.66-.57-.02-1.72-.04-2.29-.06-1.51-4.85-2.98-9.7-4.58-14.52-.028 4.85.01 9.71-.02 14.568l-2.23-.01c-.02-6.158 0-12.318-.02-18.478z" fill="#1E1E1E"/><path fill="#91764C" d="M393.92 45.708c34.09-4.2 68.62-5.77 102.858-2.55 44.29 4.08 88.04 15.48 128.182 34.74 17.46 8.47 34.27 18.4 49.63 30.29 11.27 8.9 22.17 18.7 30 30.86 3.27 5.35 6.58 11.88 4.35 18.25-2.858 7.52-7.89 13.95-12.98 20.08-11.49 13.48-24.81 25.25-38.53 36.38-28.7 22.91-59.978 42.44-92.49 59.44-74.09 38.63-154.81 63.93-237.2 77.25-47.31 7.65-95.25 11.22-143.147 11.26 28.4-10.17 56.52-21.65 82.31-37.43 13.75-8.48 27-18.14 37.75-30.29 9.83-11 17.47-24.87 17.8-39.92.438-9.55-3.75-18.79-10.12-25.73-8.602-9.38-20.042-15.56-31.67-20.39 17.51-9.05 34.47-19.5 49.09-32.81 12.75-11.72 24.3-26.36 27.05-43.92 1.88-10.41-.7-21.64-7.55-29.79-9.392-11.28-23.27-17.47-36.95-21.8-14.37-4.44-29.33-6.65-44.29-7.84 41.297-11.58 83.327-20.75 125.907-26.08m4.34 48.87c30.54 7.31 60.81 15.94 90.27 26.86 17.812 6.79 35.57 14.18 51.53 24.7-63.46 16.57-127.03 32.77-190.47 49.44 60.148-2.02 120.31-4.1 180.47-5.83-21.45 15.07-44.74 27.25-67.73 39.73-39.36 21.01-79.41 40.688-119.42 60.398 30.13-5.28 59.87-12.72 89.09-21.76 40.24-12.49 79.54-28.23 116.73-48.09 31.79-17.09 62.13-37.24 88.77-61.67-36.69-33.03-83.3-53.99-131.73-62.49-35.44-6.208-71.96-7.048-107.51-1.288z"/><path fill="#EF5223" d="M721.66 174.838c2.328 5.82-.4 11.73-3.672 16.54-7.77 11.6-17.698 21.56-27.81 31.11-27.91 25.78-59.25 47.64-91.83 67.09-71.74 42.43-150.8 72.32-232.54 88.52-69.08 13.77-140.11 17.13-210.25 11.19 9.65-2.73 19.35-5.36 29.09-7.72 89.78 2.73 180.07-9.86 265.64-37.24 74.12-23.89 145.3-58.77 206.57-107.18 23.512-18.65 45.402-39.39 64.802-62.31z"/></svg>