<svg xmlns="http://www.w3.org/2000/svg" width="230" height="230" viewBox="0 0 230 230"><path fill="#fff" d="M211.903 109.89l-5.102-2.28c.13-.985.21-2.206.142-3.594-.23-4.646-2.06-9.017-5.287-12.64l-5.253-5.894.23 7.767c-.012.166-.104 1.143-.688 2.638-.477 1.222-1.368 3-3.008 5.062l-1.148-.582-2.848-7.397 11.81-24.76.905 4.312 3.78-6.145c.097-.158.97-1.616 1.707-4.084.88-2.95 1.21-6.184.965-9.4l2.577-5.256.342-.696-.055-.772c-.014-.203-1.437-20.307-1.605-23.688-.083-1.656-1.58-4.236-3.643-6.274-1.983-1.96-5.363-4.296-10.202-4.296-1.795 0-3.517.293-5.118.873-1.193.43-2.077.944-2.47 1.253-.383.3-4.994 3.87-11.377 8.812-18.674 14.46-37.02 28.67-41.22 31.953h-.318c-1.75 0-5.39.11-10.108.84a75.88 75.88 0 0 0-15.904 4.26c-6.604 2.58-12.64 6.06-17.938 10.347-6.264 5.07-11.55 11.31-15.717 18.56l-57.892 46.52-2.22 1.782 1.76 2.233c.207.263.486.646.81 1.09 1.785 2.444 5.105 6.993 10.36 10.923 6.496 4.858 13.983 7.32 22.254 7.32 2.272 0 4.632-.187 7.014-.56l.043-.008.044-.01 11.19-2.1c.394 1.543.975 3.683 1.763 6.267 2.345 7.69 6.717 19.04 14.224 29.46 4.165 5.78 8.89 10.71 14.046 14.648 6.032 4.61 12.753 7.94 19.976 9.903l6.683 1.815-3.433-6.015c-.04-.07-4.086-7.236-6.852-16.896-1.887-6.59-3.46-15.412-1.983-23.895a85.542 85.542 0 0 0 3.925 8.346c2.7 4.985 5.652 9.045 8.776 12.064 4.134 3.996 8.598 6.21 13.268 6.577l7.104.56-4.708-5.312c-.13-.156-3.49-4.188-5.46-11.146-2.246-7.93-1.895-16.328 1.038-25.032a39.105 39.105 0 0 0 3.046 3.443c2.404 2.408 4.997 4.337 7.705 5.73 3.465 1.784 7.113 2.692 10.846 2.7l5.95.012-3.688-4.67c-.98-1.24-1.805-2.876-2.74-4.95-3.21-7.11-4.05-15.396-2.353-22.595l30.786 1.178.64.024.586-.247 14.836-6.238.92-.387.48-.874 9.153-16.568 1.513-2.738-2.855-1.275z"/><path d="M19.26 137.564c2.928 3.72 13.508 21.505 37.734 17.71l13.876-2.606s.728 3.416 2.357 8.76c4.534 14.86 16.87 44.096 46.25 52.075 0 0-16.714-29.287-6.517-51.348 0 0 8.893 31.874 26.374 33.254 0 0-14.95-17.136-2.933-44.22 0 0 7.936 15.124 22.282 15.152-1.193-1.51-2.137-3.403-3.105-5.55-3.207-7.103-4.923-17.152-1.897-26.736l33.063 1.266 14.835-6.24 9.152-16.568-7.207-3.22s2.8-8.356-4.015-16.004c0 0-.03 4.974-5.865 11.24l-4.14-2.098-3.69-9.583 15.448-32.393s1.367 2.702 1.727 4.413c0 0 3.01-4.893 2.185-12.52l2.933-5.98s-1.438-20.298-1.61-23.748c-.06-1.21-3.728-7.84-10.973-7.84-3.477 0-5.627 1.366-5.816 1.515-1.323 1.035-51.827 40.116-53.403 41.4-3.522-.172-39.862-.402-58.722 33.005l-58.32 46.862z"/><path fill="#EFE1C6" d="M50.133 147.53c3.105-.69-3.22-2.874-4.36-8.777 1.715 1.342 8.347 3.833 9.842 2.606 1.12-1.122-2.415-4.89-1.035-13.34 1.432-8.773 6.382-10.18 3.91-11.616-2.76-.46-28.405 20.7-28.405 20.7l4.025 6.67s13.493 5.022 16.023 3.757z"/><path fill="#8E0028" d="M191.502 128.45l8.208-3.44-2.387-5.558-5.82 8.998zm-61.367 27.093c-.19 1.265 1.495 1.955 2.108.498s3.986-11.115 5.29-11.23c.498-.044 1.108 2.756 2.836 5.597 2.794 4.592 8.088 10.12 11.04 10.12 1.308 0 1.523-.178 1.523-.178l-3.206-4.744-9.358-25.977-5.75 8.624-4.485 17.29zm-12.497-17.979s12.717 47.46 11.894 46.493c-13.444-15.814-14.04-33.345-14.04-33.345s-8.68 10.3-8.93 27.446l-3.088-.23 6.422-25.99 7.742-14.374z"/><path fill="#EFE1C6" d="M200.6 110.108s1.956-6.785-.228-11.644c-1.208 4.198-3.68 6.9-5.765 8.77l-7.432-3.61 15.064 9.752-9.086 2.146-8.318-2.99s1.63-8.817-.508-11.87c-.118.677-.628 1.675-.905 2.344-1.61 3.882-5.09 7.058-5.09 7.058l-8.025-2.9-6.593-17.287 24.11-38.947s2.665 2.683 3.987 5.94c1.61-5.02-.728-11.307-.728-11.307l2.875-4.64 6.994-5.078 1.284 6.383-11.5 31.893 9.124-19.664s.445.403 1.073 1.304c.655.94 1.504 2.408 1.955 3.603 1.073-2.722-.422-10.043-.422-10.043l2.645-4.87-3.22-11.882-12.22 8.438-36.022 41.098s-8.165 3.16-13.828 7.446c-1.21.916-2.25 1.94-3.134 2.933 0 0 9.507 1.802 10.35 8.165 0 0-3.074 1.8-7.628 5.232-16.577 12.494-53.422 45.472-38.908 81.63 2.643 6.586 7.028 13.174 13.513 19.877 0 0-18.304-30.992 3.7-66.173.007.817-.07 33.134 14.432 45.722-10.37-24.495 7.656-53.676 7.656-53.676-3.286 15.055 13.13 27.087 13.13 27.087-7.695-16.23-1.12-31.236-1.12-31.236l34.908 1.39 4.78-2.05 6.005-5.913 2.204 2.472 6.755-12.2-5.864-2.702zm-42.02-20.652l10.963-13.493-7.866 13.417 6.487 17.71-9.582-17.634z"/><path fill="#8E0028" d="M203.82 24.75c-1.063 1.322-2.654 6.842-2.654 6.842s-.162-4.57-2.318-7.446c-2.026-2.7-4.543-.345-6.297-2.846-.802-1.144-.775-2.817-.775-2.817l-4.888 3.68s-1.322 5.29-1.034 11.787c0 0-2.933-2.3-4.6-6.842 0 0-1.15 2.645-1.208 12.42 0 0-3.163-2.875-5.003-7.533 0 0-1.438 6.095-1.265 13.513 0 0-2.76-2.07-5.578-8.28 0 0-1.38 7.245-1.266 14.893 0 0-4.485-4.08-6.21-9.602 0 0-21.477 16.445-22.972 17.595-1.494 1.15-10.78 11.27-13.14 22.167 0 0-.258-5.376.5-10.494 0 0-9.147 6.507-14.284 12.104 0 0-.13-6.89 3.694-12.65 0 0-1.358.874-3.062 2.214-1.074.845-2.115 1.786-3.58 3.09-3.68 3.277-8.203 7.543-11.01 10.422 0 0 7.675-14.49 19.366-22.75 0 0-30.034 6.688-40.556 39.74-.288-.315.518-7.618.518-7.618l-51.405 40.806c11.73 16.177 31.05 13.953 33.197 13.57 6.388-1.14 26.287-4.265 26.287-4.265s-3.25-8.224-2.56-13.657c0 0 2.186 10.608 9.7 17.192l-16.408 2.262s.87 3.348 2.337 8.29c3.704 12.477 13.176 35.966 36.666 46.853 0 0-1.983-2.058-4.84-5.468-8.082-9.647-21.896-31.672-7.79-60.562-11.27 2.684-12.958-4.983-12.958-4.983 15.027 10.503 47.86-33.37 39.838-43.776 0 0 13.714-11.125 23.432-12.505l37.98-39.086 11.49-6.407 3.947 9.852-1.29-19.705zM56.42 146.765c-1.36.266-3.442.387-4.217.383-4.856-.024-16.072-1.685-20.278-9.046l40.097-32.162c-27.37 26.986 2.49 35.765 6.287 37.03-.002 0-17.463 2.932-21.89 3.795zm122.59-55.661l5.06-7.417-2.76 7.475 2.702 6.957z"/><path fill="#EFE1C6" d="M118.19 68.306s3.875-.95 9.318-.69c.37-1.093-1.385-1.323-2.765-1.323 2.2-1.58 5.678-2.674 5.678-2.674l1.898-2.243c-5.69.46-14.13 6.93-14.13 6.93z"/></svg>