<svg xmlns="http://www.w3.org/2000/svg" width="226.979" height="226.979" viewBox="0 0 226.979 226.979"><path fill="#FFF" d="M113.49 216.642c-27.553 0-53.457-10.73-72.94-30.213-19.482-19.484-30.212-45.389-30.212-72.939 0-27.553 10.729-53.457 30.212-72.939 19.483-19.482 45.387-30.212 72.94-30.212 27.552 0 53.455 10.73 72.938 30.212 19.482 19.482 30.214 45.387 30.214 72.939 0 27.551-10.731 53.455-30.214 72.939-19.483 19.482-45.387 30.213-72.938 30.213z"/><path fill="#FFC422" d="M113.489 20.675c51.258 0 92.815 41.554 92.815 92.814 0 51.257-41.557 92.814-92.815 92.814-51.26 0-92.814-41.558-92.814-92.814 0-51.26 41.554-92.814 92.814-92.814m0-20.675C98.178 0 83.313 3.003 69.308 8.927 55.791 14.644 43.656 22.824 33.24 33.24S14.644 55.791 8.927 69.308C3.003 83.313 0 98.177 0 113.489c0 15.311 3.003 30.177 8.927 44.18 5.717 13.518 13.897 25.652 24.313 36.067 10.416 10.417 22.551 18.598 36.067 24.314 14.005 5.924 28.87 8.928 44.182 8.928 15.311 0 30.177-3.004 44.181-8.928 13.517-5.717 25.651-13.897 36.067-24.313 10.417-10.416 18.597-22.551 24.313-36.067 5.924-14.004 8.928-28.87 8.928-44.181 0-15.312-3.004-30.177-8.928-44.182-5.717-13.517-13.896-25.651-24.313-36.067-10.416-10.416-22.551-18.596-36.067-24.313C143.667 3.003 128.8 0 113.489 0z"/><path fill="#FFC422" d="M122.143 73.221l-17.346-.006V11.487h17.346v61.734z"/><path fill="#231F20" d="M124.727 8.903v66.903l-22.515-.007V8.903h22.515m-5.168 5.169h-12.178v56.56l12.178.004V14.072z"/><path fill="#FFC422" d="M122.143 215.653h-17.347v-61.587h17.347v61.587z"/><path fill="#231F20" d="M124.727 151.481v66.756h-22.515v-66.756h22.515m-5.168 5.169h-12.178v56.418h12.178V156.65z"/><g><path fill="#FFC422" d="M179.52 191.887l-42.468-42.468 3.499-3.498.759-.758-.002-1.072-.015-14.963 50.493 50.492-12.266 12.267zm-132.101 0L35.153 179.62l52.966-52.965 3.697-3.696v24.529l-44.397 44.399zm168.132-69.643H135.65l-2.486-2.486-.757-.757h-1.069l-36.936-.011-2.585-.001v3.255h-80.43v-17.348h80.478V108.288h40.59l.757-.757 2.635-2.635H215.551v17.348zM91.865 104.231l-3.747-3.746L35.153 47.52l12.266-12.266L91.865 79.7v24.531zm49.492-6.282l-.016-14.771-.001-1.069-.757-.756-3.582-3.582 42.519-42.517 12.267 12.266-50.43 50.429z"/><path fill="#231F20" d="M179.52 31.599l15.921 15.921-54.793 54.792h77.489v22.515h-77.489l54.793 54.793-15.921 15.921-46.122-46.122 5.327-5.326-.017-15.135-7.372-7.373-36.935-.011v26.984L47.419 195.54l-15.921-15.92 54.793-54.793H8.803v-22.515h77.489L31.498 47.52l15.921-15.921 47.03 47.03v27.076h36.935l7.389-7.389-.016-15.135-5.41-5.409 46.173-46.173m0 7.309l-38.862 38.863 1.754 1.754 1.512 1.512.002 2.138.009 8.542L188.13 47.52l-8.61-8.612zm-132.101.001l-8.611 8.611L89.28 97.992V80.77L47.419 38.909zm165.548 68.572h-76.05l-1.878 1.878-1.513 1.514H89.28v-3.392H13.971v12.178h75.262v-3.256l5.171.002 36.934.012 2.14.001 1.514 1.513 1.729 1.729h76.248v-12.179h-.002zM89.232 129.196L38.808 179.62l8.611 8.611 41.813-41.813v-17.222zm54.652 6.177l.009 8.715.003 2.145-1.516 1.517-1.673 1.67 38.813 38.813 8.61-8.611-44.246-44.249z"/></g><g><g fill="#231F20"><path d="M142.025 172.151H65.667v-17.773l1.374-1.31 6.749-6.433V80.646l-6.75-6.442-1.372-1.309V55.116h76.361l1.291 1.262 16.631 16.25 1.334 1.304v31.811l-1.358 1.307-6.846 6.578 6.849 6.6 1.355 1.307v31.813l-1.335 1.304-16.631 16.239-1.294 1.26zm-43.194-25.1h30.671l4.79-4.79-.012-11.466-4.779-4.78-30.67-.009v21.045zm.048-45.776h30.67l4.791-4.793-.012-11.463-4.781-4.781-30.668-.009v21.046z"/><path d="M140.222 59.546l16.631 16.25v28.059l-10.164 9.768 10.164 9.795v28.063l-16.631 16.239H70.098v-11.445l8.123-7.741V78.75l-8.123-7.751V59.546h70.124m-45.773 46.159h36.935l7.389-7.389-.016-15.135-7.373-7.372-36.935-.012v29.908m-.048 45.776h36.935l7.389-7.389-.017-15.135-7.372-7.373-36.935-.011v29.908m49.432-100.795H61.238V74.791l2.743 2.618 5.379 5.133v62.197l-5.375 5.123-2.747 2.618v24.101h82.593l2.581-2.521 16.632-16.239 2.67-2.607V119.651l-2.712-2.613-3.533-3.405 3.525-3.388 2.72-2.615V72.066l-2.668-2.607-16.632-16.25-2.581-2.523zM103.31 96.844V84.66l24.403.007 2.186 2.187.009 7.795-2.193 2.194H103.31v.001zm-.048 45.776v-12.183l24.402.007 2.187 2.188.009 7.794-2.193 2.193h-24.405v.001z"/></g><path fill="#231F20" d="M141.048 169.751H68.067v-14.344l.629-.6 7.493-7.143V79.619l-7.494-7.151-.628-.6V57.515h72.982l.593.578 16.631 16.251.612.597v29.779l-.625.599-8.641 8.306 8.644 8.329.622.599v29.784l-.613.597-16.631 16.239-.593.578zm-44.616-20.299h34.065l6.197-6.197-.016-13.456-6.182-6.183-34.065-.011v25.847h.001zm.048-45.779h34.063l6.198-6.197-.015-13.454-6.184-6.184-34.062-.01v25.845z"/><path fill="#FFC422" d="M140.222 59.546l16.631 16.25v28.059l-10.164 9.768 10.164 9.795v28.063l-16.631 16.239H70.098v-11.445l8.123-7.741V78.75l-8.123-7.751V59.546h70.124m-45.773 46.159h36.935l7.389-7.389-.016-15.135-7.373-7.372-36.935-.012v29.908m-.048 45.776h36.935l7.389-7.389-.017-15.135-7.372-7.373-36.935-.011v29.908m47.476-95.996h-75.84v17.252l1.257 1.2 6.865 6.551v66.307l-6.863 6.541-1.259 1.2V171.782H141.876l1.184-1.155 16.631-16.239 1.225-1.195v-31.502l-1.244-1.197-7.123-6.865 7.119-6.845 1.248-1.198V74.087l-1.224-1.195-16.631-16.25-1.184-1.157zm-43.366 46.158V79.859l31.191.01 4.995 4.996.013 11.771-5.008 5.008H98.511v-.001zm-.049 45.778v-21.784l31.191.01 4.996 4.996.013 11.771-5.009 5.008H98.462v-.001z"/></g><g><path fill="#231F20" d="M113.489 20.675c51.258 0 92.815 41.554 92.815 92.814 0 51.257-41.557 92.814-92.815 92.814-51.26 0-92.814-41.558-92.814-92.814 0-51.26 41.554-92.814 92.814-92.814m0-16.244c-14.715 0-29 2.885-42.456 8.577-12.989 5.494-24.65 13.355-34.661 23.366-10.011 10.01-17.872 21.672-23.366 34.66-5.69 13.455-8.576 27.739-8.576 42.455 0 14.715 2.886 28.999 8.577 42.455 5.494 12.987 13.355 24.649 23.366 34.659 10.01 10.012 21.672 17.873 34.66 23.367 13.457 5.692 27.741 8.577 42.456 8.577 14.716 0 29-2.885 42.456-8.577 12.987-5.494 24.649-13.355 34.66-23.366s17.873-21.673 23.366-34.66c5.692-13.456 8.577-27.74 8.577-42.455 0-14.716-2.885-29-8.577-42.456-5.493-12.988-13.355-24.65-23.366-34.66-10.011-10.011-21.673-17.872-34.661-23.366-13.455-5.691-27.738-8.576-42.455-8.576z"/></g></svg>