<svg xmlns="http://www.w3.org/2000/svg" width="262.602" height="262.601" viewBox="0 0 262.602 262.601"><path fill="#fff" d="M233.246 79.616c-.184-1.286-1.134-.313-1.134-.313s-38.49 42.778-100.816 89.785C68.98 122.08 30.49 79.303 30.49 79.303s-.95-.973-1.135.313c0 0-1.4 7.07 4.12 12.82 0 0 38.207 42.41 90.657 82.008a815.881 815.881 0 0 1-15.12 10.87l1.65 8.822a528.799 528.799 0 0 0 20.633-14.373 530.28 530.28 0 0 0 20.643 14.373l1.65-8.823a781.177 781.177 0 0 1-15.12-10.87c52.45-39.598 90.647-82.008 90.647-82.008 5.532-5.747 4.13-12.82 4.13-12.82m-181.69 6.53c7.847 6.27 10.217 10.292 12.023 12.104 1.54 1.53 3.062 1.68 4.72 3.34 2.49 2.48 3.246 5.467 5.615 5.467 2.425 0 5.1-5.306 10.336-5.306 3.5 0-2.17 2.36-2.17 4.644 0 1.954 4.307-.724 5.247-.724 1.567 0 7.643 2.725 11.23-2.106-1.614-1.622-6.41-.963-6.41-7.288 0-1.747 1.495-5.214 5.303-5.214 3.053 0 5.385 2.692 4.417 5.763-.313.96 1.328 2.093 1.328 3.858 0 5.315-3.66 5.91-3.66 8.242 0 4.684 3.318 4.324 5.153 4.214 4.278 0 10.89 3.557 13.13 3.557 2.737 0 4.903-1.19 4.903-2.54 0-1.36-3.197-7.376-4.985-7.376-1.005 0-2.093 1.92-3.642 1.92-1.725 0-2.7-1.08-2.074-2.145.34-.604-.647-1.586-.647-3.18 0-1.938 2.673-6.11 7.873-6.11 4.306 0 8.805 3.74 8.805 9.765 0 5.003-1.354 7.893-1.354 8.884 0 1.85 3.522 4.01 5.78 4.01 2.25 0 10.677-3.143 13.388-3.143 2.7 0 5.836.2 5.836-2.303 0-2.5-1.716-7.28-3.54-7.28-1.81 0-5.976 5.874-11.323 5.874-.627 0-1.346-.13-1.346-1.027s1.43-2.937 2.178-3.38c.737-.433 4.656-2.115 4.656-3.53 0-.802-3.577-1.802-3.577-3.388 0-1.618 3.586-.323 3.586-1.88 0-1.407-3.272-2.72-3.272-6.478 0-2.71 1.863-5.514 5.366-5.514 6.786 0 11.036 5.07 17.406 5.07 5.404 0 11.342-2.862 13.94-2.862 7.902 0 7.7 8.926 15.545 8.926 3.65 0 4.95-1.38 4.95-5.656 0-2.343-1.133-2.117-2.507-2.117-1.364 0-1.558-1.046-3.586-1.046-2.97 0-6.25-1.54-6.25-3.052 0-1.55 11.1-5.1 12.722-5.1 5.68 0 6.214 11.332 15.342 11.332 2.305 0 4.01-.498 4.01-4.522 0-4.02-.645-3.655-1.383-3.56-.72.106-4.416 1.135-4.416-.018 0-1.162 1.75-2.314-.36-2.655-9.68-1.604-6.86-10.667-10.63-10.667-1.798 0-8.06 3.397-8.06-.507 0-2.153 1.494-5.09 1.494-9.728 0-5.126-2.932-8.163-.11-8.163 6.167 0 16.954 3.144 16.954 4.642 0 1.077-6.066.454-6.066 3.17 0 1.6 3.486 3.54 8.77 3.54 5.3 0 7.43-1.63 4.794-1.63-2.628 0-6.693-.076-6.693-1.91 0-1.83 4.693-1.02 4.693-2.946 0-2.84-4.785-2.623-13.553-5.126-43.655-12.415-58.85-28.613-86.25-28.613-33.725 0-28.33 22.998-48.826 28.188-16.208 4.116-17.71 12.387-17.71 22.25 0 5.547 1.88 10.198 2.912 11.03m15.49 8.554c-1.8 0-1.34-1.26-1.34-1.26 2.334-3.18 1.135-10.713 4.05-10.713 1.64 0-.71 1.678-.71 3.623 0 2.194 3.244 1.55 3.244 4.117 0 1.646-2.654 4.232-5.245 4.232m6.98 10.712s-1.35-.973-1.35-1.678c0-1.604 2.72-2.07 2.72-1.567 0 1.36-1.372 3.245-1.372 3.245m2.195-29.17c0 1.115-2.288 3.784-3.735 3.784-1.097 0-2.85-4.27-2.85-4.643 0-.37.508-1.08 2.112-1.08 1.613 0 4.472.81 4.472 1.937M63.08 59.277c6.473 0 9.82 3.814 9.82 7.994 0 4.187-3.514 7.216-7.404 7.216-2.48 0-3.218-2.074-3.218-3.126 0-1.435 2.148-2.71 2.148-4.407 0-2.126-2.59-3.587-5.173-3.587-4.38 0-7.33 3.757-7.33 1.904.002-2.207 4.428-5.993 11.157-5.993m78.34 69.626c-11.083 4.107-15.618 5.818-14.99 7.505.35.937 2.636 3.646 17.7-1.913 15-5.563 44.55-19.103 43.525-21.86-.497-1.355-21.388 7.072-46.236 16.268m24.21-97.4c18.3 5.03 28.84 9.677 29.31 7.994.46-1.688-14.088-6.938-27.52-10.63-13.435-3.69-27.374-5.523-26.923-5.1 1.41 1.334 6.823 2.703 25.133 7.736"/><path fill="#B0B7BB" d="M131.296 0C58.896 0 0 58.9 0 131.3c0 72.407 58.895 131.3 131.296 131.3 72.41 0 131.306-58.894 131.306-131.3C262.602 58.9 203.707 0 131.296 0m0 260.95C59.808 260.95 1.64 202.806 1.64 131.3 1.64 59.81 59.81 1.64 131.297 1.64c71.498 0 129.655 58.168 129.655 129.66 0 71.504-58.156 129.65-129.654 129.65m-.002-246.803c-64.592 0-117.144 52.557-117.144 117.148 0 64.612 52.552 117.155 117.144 117.155 64.602 0 117.153-52.543 117.153-117.155 0-64.59-52.554-117.148-117.155-117.148m31.92 178.08c.976.177 1.732.933 2.165 2.075 0 0 1.855-.7 2.887 1.992 0 0 1.937-.627 2.867 1.973 0 0 1.91-.627 2.877 1.992 0 0 1.818-.686 2.87 1.97 0 0 1.936-.616 2.866 1.993 0 0 1.854-.627 2.867 1.99 0 0 1.927-.627 2.886 1.973 0 0 1.843-.645 2.85 1.975.24-.036.46-.11.69-.073 1.91.332 2.95 2.82 2.434 5.78-.02.157-.056.313-.093.47 3.1-3.217 5.764-5.752 9.25-3.568 2.977 1.88 3.56 5.983 1.39 9.43-2.765 4.39-6.323 2.105-8.03.76-3.54 2.68-12.657 13.515-29.455 2.91-21.99-13.864-6.87-37.993-9.736-41.634-.757-.96-2.665-2.296-1.697-3.854.802-1.272 3.255-1.697 5.485-.296 4.25 2.692 3.836 7.228 2.775 12.558.58-.37 1.207-.526 1.853-.417m-8.26-7.476l-2.122 11.47a585.928 585.928 0 0 1-21.537-14.927 599.981 599.981 0 0 1-21.527 14.926l-2.122-11.47c4.693-3.3 9.93-7.053 14.4-10.335-51.314-39.012-89.04-80.655-89.483-81.145-5.91-6.146-4.49-13.576-4.443-13.83.185-1.618 1.91-2.43 3.292-.973.424.48 38.796 42.834 99.885 89.053 61.09-46.22 99.46-88.573 99.894-89.053 1.383-1.456 3.098-.646 3.282.973.056.254 1.476 7.685-4.435 13.83-.434.488-38.18 42.133-89.504 81.146 4.49 3.282 9.726 7.035 14.42 10.336m-94.373 37.45c-2.167-3.448-1.586-7.552 1.392-9.433 3.477-2.186 6.15.35 9.238 3.566-.027-.156-.064-.313-.092-.47-.506-2.96.535-5.448 2.435-5.78.24-.037.46.037.69.074 1.016-2.618 2.86-1.974 2.86-1.974.948-2.6 2.885-1.973 2.885-1.973 1.013-2.617 2.866-1.99 2.866-1.99.922-2.61 2.867-1.992 2.867-1.992 1.05-2.654 2.867-1.97 2.867-1.97.97-2.62 2.877-1.993 2.877-1.993.93-2.6 2.867-1.973 2.867-1.973 1.023-2.69 2.886-1.992 2.886-1.992.434-1.142 1.18-1.897 2.167-2.073.636-.11 1.27.046 1.853.415-1.07-5.33-1.484-9.866 2.775-12.558 2.23-1.4 4.684-.977 5.485.296.968 1.56-.94 2.896-1.696 3.855-2.867 3.64 12.253 27.77-9.754 41.635-16.79 10.604-25.898-.23-29.438-2.912-1.706 1.347-5.264 3.63-8.03-.756M143.577 99.86c0 1.53-1.125 2.016-3.255 2.214 1.152.973 3.245 1.517 3.245 3.056 0 1.766-2.14 3.062-5.265 4.61-.387.244-1.226 1.442-1.466 2.084 4.905 0 8.73-5.873 11.33-5.873 2.97 0 4.777 5.934 4.777 8.53 0 2.917-2.435 3.55-6.528 3.55-3.835 0-11.063 3.143-13.94 3.143-2.645 0-7.024-2.468-7.024-5.26 0-1.107 1.366-4.22 1.366-8.885 0-5.26-3.928-8.514-7.578-8.514-4.555 0-6.63 3.726-6.63 4.868 0 1.567 1.31 2.42.452 3.77.046.084.377.31 1.032.31.903 0 2.093-1.918 3.65-1.918 2.82 0 6.214 6.93 6.214 8.61 0 2.154-2.627 3.786-6.14 3.786-2.757 0-9.238-3.56-13.055-3.56-2.387.217-6.47.098-6.47-5.458 0-3.056 3.65-3.388 3.65-8.237 0-1.312-1.78-2.53-1.264-4.24.812-2.71-1.493-4.135-3.236-4.135-3.09 0-4.04 2.91-4.04 3.965 0 5.44 3.606 4.153 6.04 6.412.434.433.507 1.143.12 1.613-2.02 2.466-4.675 4.56-12.16 2.613-3.338 1.586-6.556 2.296-6.556-.516 0-1.24.848-2.277 1.752-3.153-3.845 1.055-5.864 5.056-8.694 5.056-3.2 0-4.14-3.49-6.48-5.83-1.126-1.126-3.79-2.288-4.712-3.344-5.136-6.314-7.92-8.574-11.94-12.008-1.585-1.277-3.364-6.675-3.364-12 0-9.87 1.42-19.08 18.642-23.454 19.48-4.946 15.084-28.226 49.122-28.226 28.01 0 45.71 17.416 86.59 28.663 9.147 2.51 14.467 2.31 14.467 6.316 0 2.38-2.867 2.453-4.453 3.048.48.253 1.75.558 5.218.558 3.328 0 4.333 4.126-4.794 4.126-5.624 0-10.02-2.107-10.02-4.785 0-2.532 2.765-3.196 4.673-3.542-2.994-1.275-9.604-3.004-14.242-3.022 0 0 1.272 3.683 1.272 6.92 0 4.872-1.494 7.836-1.494 9.726 0 1.795 4.98-.736 6.822-.736 5.32 0 1.724 9.27 10.833 10.677 2.196.44 2.464 1.7 1.735 3.135 0 0 1.327-.165 2.784-.48 1.935-.304 2.673.908 2.673 4.804 0 5.08-2.646 5.77-5.256 5.77-9.727 0-10.76-11.33-15.332-11.33-1.475 0-9.542 2.72-11.284 4.042.526.613 2.49 1.623 4.82 1.623 2.04 0 2.915 1.036 3.59 1.036 1.78 0 3.732.097 3.732 3.36 0 4.9-1.787 6.9-6.186 6.9-8.564 0-8.48-8.92-15.544-8.92-2.268 0-8.344 2.863-13.93 2.863-6.667 0-11.083-5.07-17.426-5.07-2.7 0-4.112 2.15-4.112 4.27.002 3.33 3.275 4.282 3.275 6.47m-18.69 12.826c-.913-2.945-3.817-8.385-7.146-8.385-1.733 0-3.235 1.54-3.235 1.54-.066-.944-.647-1.783-.647-2.457.036-.632 1.576-3.624 5.375-3.624 3.042 0 6.324 2.774 6.324 7.27a23.714 23.714 0 0 1-.67 5.655m-24.332-10.53c-2.212-2.973-5.92-1.018-5.92-5.88 0-.67.647-2.722 2.804-2.722 1.098 0 2.158.692 2.158 1.872 0 .434-.268.964-.268 1.604 0 2.236 2.02 3.09 1.226 5.126M131.298 15.8c43.858 0 82.1 24.576 101.646 60.68-.885-.05-1.854.3-2.674 1.16-.147.15-4.26 4.7-11.83 12.337.03-.36.057-.737.057-1.134 0-6.172-2.13-6.407-5.19-5.83 0 0 .092-2.26-3.052-2.855-8.188-.99-4.435-10.695-11.045-10.695-1.53 0-3.522.955-5.477 1.3.38-2.535 1.393-4.596 1.393-9.044 0-2.32-.488-4.163-.903-5.588 2.84.225 6.15.926 8.796 1.69-1.17.696-2.085 1.784-2.085 3.54 0 3.49 4.74 6.03 11.267 6.03 11.505 0 9.597-6.983 4.24-6.624.58-.567 1.032-1.268 1.032-2.352 0-4.89-5.992-5.107-15.37-7.514-26.745-7.647-42.38-16.457-56.792-22.274 4.638 1.466 11.35 2.996 19.656 5.278 20.744 5.702 30.896 11.603 32.37 6.25 1.245-4.52-12.17-8.988-29.263-13.69-28.276-7.776-29.493-4.938-29.908-3.435-.424 1.586.563 2.803 2.757 3.91-8.06-2.92-16.042-4.75-25.75-4.75-34.454 0-30.95 23.604-49.427 28.264-18.08 4.592-19.583 14.7-19.583 24.662 0 5.37 1.762 11.31 3.836 12.973 7.495 6 9.606 9.693 11.82 11.91 1.3 1.452 3.78 2.397 4.72 3.343 2.342 2.217 3.355 6.204 7.366 6.204 2.452 0 4.26-2.125 5.716-3.222-.01 1.447.97 5.278 7.883 1.87 0 0 5.615 1.785 9.69-.35a4.387 4.387 0 0 0-.147 1.074c0 6.592 5.024 6.96 7.79 6.707 3.596 0 9.772 3.56 12.98 3.56 2.933 0 5.274-1.1 6.49-2.693.5 3.314 5.09 5.92 8.17 5.92 3.07 0 10.538-3.145 13.93-3.145 3.66 0 7.782-.416 7.782-4.795 0-2.692-1.862-9.773-6.02-9.773-1.3 0-2.416.748-3.707 1.758.186-.425.342-.85.342-1.333 0-1.244-.71-2.02-1.55-2.613 1.172-.7 1.568-1.73 1.568-2.655 0-2.887-3.272-3.804-3.272-6.473 0-1.042.61-3.024 2.868-3.024 5.938 0 10.408 5.07 17.425 5.07 5.504 0 12.04-2.86 13.93-2.86 6.206 0 6.437 8.924 15.545 8.924 6.676 0 7.432-4.646 7.432-8.15 0-3.5-2.13-4.882-4.96-4.605-2.204-1.416-3.946-.766-5.81-1.397 2.822-1.23 7.487-2.72 8.73-2.826 3.09 0 5.357 11.34 15.27 11.34.202 0 .387-.02.58-.02-16.862 16.586-45.02 42.646-81.262 70.124C70.75 120.044 32.755 78.11 32.332 77.64c-.83-.862-1.788-1.213-2.674-1.162 19.547-36.105 57.772-60.68 101.638-60.68m8.04 7.6c-.028-.963 7.56-1.465 28.415 4.265 15.26 4.195 29.236 9.054 28.39 12.16-.97 3.522-11.32-1.756-30.85-7.126-17.923-4.927-25.89-6.343-25.953-9.298M15.793 131.294c0-17.484 3.92-34.08 10.907-48.95.092 2.98.986 7.646 4.94 11.754.435.492 37.59 41.5 88.334 80.29a787.347 787.347 0 0 1-8.99 6.48 2.973 2.973 0 0 0-.44-1.163c-1.135-1.798-4.297-2.498-7.192-.673-4.472 2.82-4.61 7.062-3.77 11.92-.13.01-.26.02-.407.046-1.152.204-2.047.942-2.674 2.013 0 0-1.5-.166-2.874 1.98 0 0-1.586-.137-2.867 1.982 0 0-1.513-.203-2.86 1.982 0 0-1.575-.12-2.875 1.992 0 0-1.586-.158-2.877 1.98 0 0-1.54-.158-2.867 1.99 0 0-1.56-.156-2.876 1.975 0 0-1.484-.166-2.857 1.99-.064 0-.13-.037-.194-.018-1.954.332-3.264 2.082-3.54 4.48-2.6-2.38-5.163-3.734-8.5-1.623-2.333 1.475-4.36 5.016-2.738 9.23-26.084-21.194-42.78-53.51-42.78-89.66m115.5 115.506c-24.56 0-47.36-7.717-66.104-20.838 1.32-.2 2.51-.848 3.357-1.438 3.365 2.738 13.507 12.916 30.176 2.406 13.6-8.584 13.607-20.568 12.05-29.844 6.417-4.297 14.825-10.105 20.522-14.253 5.698 4.148 14.115 9.957 20.532 14.253-1.558 9.275-1.55 21.26 12.05 29.844 16.67 10.51 26.81.332 30.167-2.406.848.59 2.047 1.236 3.365 1.438-18.744 13.12-41.545 20.838-66.115 20.838m72.733-25.843c1.622-4.232-.406-7.754-2.74-9.23-3.336-2.11-5.9-.755-8.5 1.624-.275-2.396-1.585-4.146-3.54-4.48-.063-.02-.13.02-.193.02-1.373-2.156-2.867-1.99-2.867-1.99-1.31-2.13-2.876-1.975-2.876-1.975-1.328-2.148-2.867-1.99-2.867-1.99-1.29-2.14-2.867-1.982-2.867-1.982-1.3-2.11-2.877-1.992-2.877-1.992-1.354-2.185-2.866-1.98-2.866-1.98-1.272-2.12-2.867-1.983-2.867-1.983-1.366-2.146-2.868-1.98-2.868-1.98-.628-1.07-1.52-1.81-2.675-2.012-.147-.027-.276-.035-.415-.045.848-4.86.71-9.1-3.762-11.922-2.894-1.825-6.057-1.125-7.19.673a2.855 2.855 0 0 0-.442 1.164 792.825 792.825 0 0 1-8.99-6.48c50.736-38.788 87.9-79.797 88.344-80.29 3.945-4.107 4.84-8.772 4.932-11.755 6.99 14.87 10.907 31.466 10.907 48.95 0 36.147-16.708 68.462-42.78 89.66m-44.292-19.447c-.72 6.637.425 13.553 9.34 19.176 8.445 5.33 13.848 3.234 18.043-.223-.91-.213-1.62-.96-2.026-2.047 0 0-1.872.702-2.904-1.98 0 0-1.928.616-2.868-1.983 0 0-1.9.627-2.858-1.99 0 0-1.835.682-2.876-1.982 0 0-1.937.635-2.877-1.982 0 0-1.842.627-2.865-1.982 0 0-1.927.62-2.867-1.98 0 0-1.862.646-2.867-1.973-.23.027-.46.11-.682.064-.693-.112-1.264-.51-1.69-1.116m1.062 2.25c.128.035.275.072.414.092.064.008.12-.02.203-.01 1.364 2.148 2.857 1.973 2.857 1.973 1.31 2.13 2.867 1.98 2.867 1.98 1.35 2.15 2.88 1.993 2.88 1.993 1.29 2.14 2.866 1.99 2.866 1.99 1.3 2.11 2.867 1.975 2.867 1.975 1.364 2.193 2.867 1.99 2.867 1.99 1.29 2.13 2.876 1.973 2.876 1.973 1.355 2.16 2.858 1.993 2.858 1.993.184.313.396.59.636.848-3.752 2.47-8.445 3.356-15.25-.92-7.43-4.7-9.144-10.28-8.94-15.876M93.523 220.69c8.906-5.624 10.068-12.54 9.34-19.177-.425.607-1.005.996-1.688 1.125-.23.037-.46-.037-.683-.074-1.014 2.62-2.876 1.973-2.876 1.973-.94 2.6-2.867 1.973-2.867 1.973-1.025 2.62-2.87 1.992-2.87 1.992-.93 2.617-2.876 1.99-2.876 1.99-1.042 2.656-2.867 1.982-2.867 1.982-.96 2.61-2.867 1.982-2.867 1.982-.93 2.6-2.866 1.982-2.866 1.982-1.023 2.684-2.896 1.982-2.896 1.982-.405 1.088-1.115 1.826-2.028 2.047 4.186 3.468 9.59 5.542 18.043.222m-15.286-.98s1.503.167 2.858-1.98c0 0 1.595.14 2.876-1.983 0 0 1.505.203 2.87-1.99 0 0 1.576.13 2.876-1.982 0 0 1.576.156 2.867-1.982 0 0 1.53.166 2.877-1.982 0 0 1.557.14 2.866-1.98 0 0 1.493.183 2.857-1.983.074-.01.14.027.203.018.14-.027.276-.064.406-.1.202 5.596-1.503 11.182-8.943 15.865-6.797 4.298-11.5 3.403-15.23.933.22-.25.442-.538.616-.85m66.75-82.895c28.37-10.487 46.754-20.324 45.01-25.045-1.77-4.79-14.953 2.038-49.443 14.793-16.604 6.146-17.582 7.685-16.457 10.704.894 2.412 3.9 5.836 20.89-.452m-4-9.08c29.668-10.98 46.706-18.61 47.85-15.53 1.374 3.737-22.598 15.428-44.282 23.45-16.014 5.927-18.67 2.853-19.287 1.188-.876-2.36 1.87-3.983 15.72-9.11"/><path fill="#FDBB30" d="M131.296 3.292C60.6 3.292 3.292 60.596 3.292 131.302c0 70.7 57.31 128.008 128.004 128.008 70.696 0 128.015-57.31 128.015-128.01 0-70.704-57.317-128.008-128.013-128.008m0 246.807c-65.597 0-118.794-53.197-118.794-118.8 0-65.606 53.197-118.794 118.794-118.794 65.607 0 118.795 53.188 118.795 118.794 0 65.604-53.187 118.8-118.794 118.8m30.332-48.698c.47.092.93-.13 1.363-.543.37 3.225 2.213 2.764 2.877 1.98.368 3.227 2.203 2.766 2.867 1.98.368 3.23 2.222 2.77 2.867 1.982.368 3.227 2.222 2.766 2.876 1.992.37 3.227 2.213 2.766 2.868 1.982.368 3.236 2.222 2.766 2.876 1.982.36 3.226 2.213 2.765 2.867 1.98.36 3.235 2.215 2.774 2.88 1.98.11 1.386.672 2.4 1.492 2.546 1.163.203 2.407-1.42 2.795-3.613.368-2.194-.268-4.14-1.43-4.333-.46-.073-.93.128-1.364.544-.358-3.22-2.212-2.765-2.875-1.98-.36-3.228-2.194-2.767-2.868-1.983-.36-3.236-2.212-2.766-2.857-1.982-.37-3.227-2.223-2.766-2.886-1.982-.35-3.236-2.204-2.775-2.867-2-.36-3.227-2.204-2.766-2.867-1.973-.36-3.227-2.213-2.766-2.868-1.992-.36-3.226-2.212-2.765-2.876-1.972-.11-1.373-.665-2.396-1.504-2.545-1.144-.202-2.406 1.42-2.784 3.616-.38 2.195.267 4.14 1.42 4.334M75.14 219.27c.82-.138 1.383-1.17 1.503-2.546.654.793 2.498 1.254 2.867-1.973.664.777 2.508 1.248 2.867-1.99.664.795 2.508 1.246 2.877-1.97.654.772 2.508 1.233 2.867-1.993.656.773 2.51 1.234 2.87-1.992.663.793 2.497 1.254 2.866-1.973.664.776 2.508 1.237 2.877-1.99.654.774 2.507 1.235 2.867-1.99.432.423.902.636 1.363.552 1.16-.203 1.798-2.14 1.42-4.332-.378-2.195-1.623-3.818-2.784-3.615-.83.14-1.395 1.162-1.505 2.535-.655-.783-2.5-1.244-2.867 1.992-.665-.793-2.5-1.244-2.868 1.982-.664-.783-2.518-1.246-2.877 1.982-.654-.785-2.508-1.236-2.867 1.982-.664-.775-2.5-1.246-2.867 1.99-.664-.783-2.518-1.244-2.877 1.982-.654-.783-2.508-1.244-2.867 1.982-.664-.783-2.508-1.244-2.876 1.992-.424-.426-.903-.646-1.364-.555-1.16.203-1.788 2.14-1.41 4.334.377 2.196 1.622 3.82 2.784 3.616m124.824-5.44c-7.22-4.555-12.096 20.174-31.55 7.91-21.444-13.533-.405-34.232-10.5-40.602-1.725-1.08-3.394-.664-3.753-.093-.367.58.74 1.318 1.606 2.416 3.743 4.72-12.16 27.744 9.44 41.36 18.477 11.655 27.476-4.194 28.996-3.245 1.236.793 4.242 3.947 6.77-.035 2.24-3.562.736-6.623-1.006-7.71m-93.14-30.37c.887-1.105 1.993-1.824 1.624-2.424-.37-.563-2.047-.986-3.77.102-10.088 6.362 10.96 27.07-10.503 40.602-19.443 12.264-24.33-12.465-31.54-7.91-1.742 1.098-3.245 4.14-.995 7.71 2.507 3.98 5.522.82 6.758.044 1.52-.967 10.528 14.89 28.986 3.236 21.602-13.617 5.698-36.64 9.44-41.36"/><path fill="#E31837" d="M69.13 89.73c-.444 0-.868.732-.868 1 0 .28.69 1.235 1.208 1.235.304 0 .682-.134.682-.406 0-1.06-.047-1.83-1.023-1.83"/><path fill="#002D62" d="M131.296 1.64C59.808 1.64 1.64 59.804 1.64 131.3c0 71.495 58.168 129.65 129.656 129.65 71.498 0 129.655-58.155 129.655-129.65 0-71.497-58.155-129.66-129.653-129.66m0 257.67C60.6 259.31 3.292 202 3.292 131.3c0-70.704 57.31-128.008 128.004-128.008 70.696 0 128.015 57.304 128.015 128.01 0 70.7-57.317 128.008-128.013 128.008m0-246.808c-65.6 0-118.798 53.192-118.798 118.794 0 65.616 53.197 118.795 118.794 118.795 65.607 0 118.795-53.18 118.795-118.793 0-65.602-53.186-118.794-118.793-118.794m0 235.95c-64.592 0-117.144-52.544-117.144-117.156 0-64.592 52.552-117.148 117.144-117.148 64.602 0 117.153 52.556 117.153 117.147 0 64.612-52.553 117.155-117.154 117.155M235.9 82.345c-.09 2.982-.976 7.647-4.93 11.765-.453.48-37.608 41.492-88.353 80.28a767.603 767.603 0 0 0 8.998 6.48c.056-.378.185-.766.434-1.162 1.14-1.798 4.304-2.498 7.2-.673 4.48 2.82 4.607 7.062 3.76 11.912.13.02.276.02.415.055 1.143.195 2.047.94 2.683 2.012 0 0 1.502-.166 2.857 1.98 0 0 1.595-.137 2.867 1.982 0 0 1.512-.203 2.876 1.992 0 0 1.577-.13 2.868 1.982 0 0 1.576-.156 2.867 1.982 0 0 1.54-.148 2.867 1.99 0 0 1.558-.146 2.876 1.982 0 0 1.503-.174 2.867 1.973.064.01.13-.027.203-.018 1.955.34 3.245 2.09 3.53 4.49 2.592-2.38 5.173-3.736 8.492-1.625 2.342 1.467 4.37 5.006 2.747 9.23 26.073-21.196 42.78-53.51 42.78-89.662.002-17.482-3.916-34.078-10.906-48.95M119.245 99.75c-3.808 0-5.348 2.993-5.384 3.63 0 .668.57 1.507.654 2.46 0 0 1.493-1.548 3.227-1.548 3.328 0 6.232 5.44 7.146 8.386.33-1.388.68-3.23.68-5.647 0-4.493-3.292-7.28-6.325-7.28m44.633 127.18c-13.59-8.573-13.6-20.567-12.04-29.853-6.427-4.277-14.835-10.096-20.542-14.244-5.697 4.148-14.115 9.966-20.53 14.244 1.565 9.285 1.548 21.28-12.042 29.854-16.67 10.52-26.81.334-30.176-2.404-.84.61-2.038 1.244-3.365 1.438 18.743 13.12 41.553 20.838 66.113 20.838 24.58 0 47.37-7.716 66.114-20.837-1.328-.193-2.518-.828-3.356-1.438-3.366 2.738-13.507 12.926-30.176 2.406M97.44 93.547c-2.146 0-2.802 2.05-2.802 2.73 0 4.853 3.716 2.908 5.92 5.872.783-2.03-1.227-2.883-1.227-5.12 0-.65.27-1.18.27-1.612 0-1.173-1.06-1.873-2.16-1.873M61.31 211.728c3.338-2.11 5.9-.756 8.5 1.623.277-2.396 1.587-4.146 3.54-4.49.066-.01.13.03.195.02 1.373-2.146 2.857-1.973 2.857-1.973 1.318-2.13 2.877-1.982 2.877-1.982 1.325-2.14 2.865-1.99 2.865-1.99 1.29-2.14 2.877-1.982 2.877-1.982 1.3-2.11 2.876-1.982 2.876-1.982 1.346-2.194 2.857-1.99 2.857-1.99 1.28-2.12 2.867-1.983 2.867-1.983 1.374-2.146 2.876-1.98 2.876-1.98.627-1.07 1.52-1.816 2.674-2.012.147-.035.277-.035.415-.055-.85-4.85-.71-9.09 3.76-11.913 2.897-1.825 6.06-1.125 7.192.673.25.396.386.784.44 1.162a775.239 775.239 0 0 0 8.99-6.48c-50.745-38.788-87.9-79.8-88.333-80.28-3.955-4.117-4.85-8.782-4.94-11.765-6.99 14.87-10.908 31.467-10.908 48.95 0 36.15 16.696 68.466 42.78 89.662-1.624-4.227.405-7.766 2.74-9.233m69.996-45.765c36.232-27.488 64.38-53.543 81.243-70.13-.187.01-.38.02-.565.02-9.92 0-12.188-11.33-15.277-11.33-1.245.105-5.91 1.594-8.73 2.812 1.86.645 3.613-.01 5.808 1.405 2.83-.273 4.97 1.104 4.97 4.61 0 3.492-.775 8.134-7.45 8.134-9.09 0-9.33-8.91-15.535-8.91-1.89 0-8.435 2.862-13.94 2.862-6.996 0-11.477-5.07-17.405-5.07-2.277 0-2.867 1.973-2.867 3.02 0 2.673 3.264 3.586 3.264 6.477 0 .927-.396 1.954-1.567 2.655.83.594 1.56 1.368 1.56 2.612 0 .48-.167.903-.352 1.323 1.29-1 2.406-1.747 3.706-1.747 4.167 0 6.02 7.08 6.02 9.77 0 4.383-4.13 4.788-7.78 4.788-3.393 0-10.86 3.144-13.93 3.144-3.08 0-7.663-2.608-8.17-5.91-1.208 1.596-3.56 2.68-6.49 2.68-3.218 0-9.386-3.56-12.98-3.56-2.776.263-7.79-.102-7.79-6.693 0-.396.063-.747.146-1.074-4.075 2.13-9.7.35-9.7.35-6.904 3.408-7.892-.427-7.882-1.87-1.447 1.098-3.255 3.218-5.707 3.218-4.01 0-5.024-3.982-7.366-6.2-.94-.944-3.42-1.898-4.72-3.342-2.213-2.222-4.324-5.91-11.82-11.916-2.073-1.67-3.844-7.61-3.844-12.973 0-9.958 1.512-20.07 19.592-24.658 18.475-4.666 14.972-28.27 49.425-28.27 9.7 0 17.692 1.836 25.75 4.75-2.193-1.11-3.18-2.324-2.747-3.91.406-1.498 1.613-4.34 29.908 3.44 17.084 4.69 30.5 9.163 29.254 13.69-1.466 5.342-11.626-.56-32.38-6.26-8.297-2.278-15.01-3.817-19.646-5.28 14.41 5.823 30.047 14.623 56.803 22.28 9.367 2.397 15.36 2.628 15.36 7.514 0 1.08-.452 1.784-1.033 2.352 5.356-.36 7.274 6.618-4.25 6.618-6.52 0-11.258-2.53-11.258-6.024 0-1.766.913-2.84 2.084-3.55-2.655-.75-5.956-1.452-8.796-1.678.415 1.424.903 3.264.903 5.577 0 4.457-1.022 6.513-1.4 9.053 1.954-.36 3.955-1.313 5.485-1.313 6.62 0 2.857 9.708 11.035 10.7 3.145.603 3.062 2.857 3.062 2.857 3.06-.575 5.18-.336 5.18 5.837 0 .396-.027.766-.055 1.134 7.588-7.638 11.69-12.187 11.83-12.34.82-.866 1.797-1.207 2.682-1.16-19.555-36.1-57.788-60.685-101.637-60.685-43.867 0-82.1 24.584-101.655 60.684.895-.047 1.862.294 2.683 1.16.42.468 38.413 42.41 98.968 88.322m9.247-39.39c34.49-12.757 47.665-19.594 49.444-14.795 1.743 4.72-16.64 14.55-45.01 25.045-16.992 6.288-19.997 2.854-20.892.452-1.115-3.03-.147-4.56 16.458-10.704m40.947 91.162s-1.586.14-2.867-1.982c0 0-1.513.203-2.877-1.99 0 0-1.567.13-2.867-1.982 0 0-1.576.156-2.867-1.982 0 0-1.54.156-2.88-1.982 0 0-1.565.14-2.866-1.982 0 0-1.493.176-2.857-1.992-.074 0-.147.037-.203.027a5.364 5.364 0 0 1-.415-.1c-.204 5.586 1.51 11.182 8.942 15.875 6.804 4.287 11.497 3.393 15.25.922a5.383 5.383 0 0 1-.637-.848c0-.002-1.503.164-2.86-1.984m-83.168-11.902c-1.31 2.13-2.867 1.973-2.867 1.973-1.347 2.15-2.886 1.994-2.886 1.994-1.282 2.14-2.858 1.973-2.858 1.973-1.3 2.12-2.867 1.992-2.867 1.992-1.366 2.192-2.888 1.99-2.888 1.99-1.272 2.13-2.858 1.972-2.858 1.972-1.355 2.16-2.867 1.993-2.867 1.993-.185.313-.387.59-.627.848 3.754 2.472 8.446 3.356 15.25-.92 7.432-4.702 9.146-10.27 8.943-15.876-.147.035-.276.072-.415.092-.064.017-.138-.02-.203 0-1.365 2.146-2.858 1.97-2.858 1.97M71.747 74.307c-1.604 0-2.11.71-2.11 1.078 0 .378 1.75 4.643 2.848 4.643 1.447 0 3.734-2.67 3.734-3.785 0-1.12-2.87-1.936-4.474-1.936m.932 29.428c0 .705 1.347 1.678 1.347 1.678s1.373-1.886 1.373-3.245c0-.503-2.72-.04-2.72 1.567m.23-36.46c0-4.18-3.355-7.997-9.818-7.997-6.73 0-11.175 3.775-11.175 5.997 0 1.85 2.97-1.908 7.35-1.908 2.57 0 5.152 1.457 5.152 3.577 0 1.7-2.14 2.98-2.14 4.42 0 1.038.738 3.126 3.228 3.126 3.882 0 7.403-3.035 7.403-7.216m71.508 21.842c6.352 0 10.76 5.07 17.425 5.07 5.59 0 11.665-2.86 13.924-2.86 7.07 0 6.988 8.923 15.553 8.923 4.398 0 6.187-2.007 6.187-6.9 0-3.28-1.954-3.367-3.733-3.367-.673 0-1.55-1.037-3.586-1.037-2.332 0-4.296-1.01-4.82-1.623 1.74-1.323 9.81-4.043 11.283-4.043 4.573 0 5.605 11.332 15.332 11.332 2.61 0 5.264-.69 5.264-5.767 0-3.9-.747-5.107-2.683-4.808a37.786 37.786 0 0 1-2.783.483c.73-1.438.46-2.7-1.733-3.135-9.11-1.405-5.514-10.69-10.833-10.69-1.843 0-6.82 2.54-6.82.747 0-1.885 1.492-4.85 1.492-9.722 0-3.24-1.27-6.92-1.27-6.92 4.637.01 11.256 1.743 14.243 3.02-1.908.35-4.674 1.01-4.674 3.54 0 2.684 4.397 4.786 10.02 4.786 9.128 0 8.123-4.126 4.795-4.126-3.467 0-4.738-.3-5.218-.554 1.586-.6 4.453-.673 4.453-3.052 0-4-5.32-3.803-14.467-6.315-40.88-11.245-58.58-28.665-86.59-28.665-34.03 0-29.642 23.28-49.123 28.23-17.222 4.37-18.642 13.585-18.642 23.45 0 5.324 1.78 10.722 3.365 12 4.028 3.424 6.804 5.692 11.93 12.007.932 1.056 3.596 2.218 4.72 3.343 2.343 2.342 3.283 5.836 6.482 5.836 2.83 0 4.858-4.005 8.694-5.06-.906.875-1.754 1.907-1.754 3.152 0 2.812 3.208 2.106 6.564.516 7.487 1.936 10.133-.148 12.152-2.614.387-.47.313-1.18-.12-1.623-2.434-2.244-6.04-.962-6.04-6.4 0-1.056.95-3.974 4.04-3.974 1.742 0 4.047 1.438 3.235 4.144-.516 1.71 1.264 2.93 1.264 4.242 0 4.854-3.65 5.172-3.65 8.242 0 5.54 4.095 5.675 6.474 5.453 3.816 0 10.298 3.55 13.055 3.55 3.512 0 6.14-1.622 6.14-3.775 0-1.678-3.394-8.606-6.215-8.606-1.558 0-2.747 1.913-3.65 1.913-.655 0-.986-.228-1.033-.31.85-1.35-.44-2.205-.44-3.78 0-1.13 2.064-4.86 6.62-4.86 3.65 0 7.577 3.255 7.577 8.515 0 4.665-1.365 7.78-1.365 8.884 0 2.792 4.38 5.26 7.025 5.26 2.876 0 10.104-3.146 13.94-3.146 4.093 0 6.527-.64 6.527-3.55 0-2.604-1.808-8.523-4.776-8.523-2.6 0-6.426 5.874-11.33 5.874.24-.646 1.08-1.844 1.465-2.088 3.126-1.55 5.265-2.845 5.265-4.605 0-1.54-2.094-2.097-3.246-3.06 2.13-.21 3.255-.683 3.255-2.21 0-2.197-3.275-3.143-3.275-6.475-.002-2.126 1.418-4.27 4.11-4.27m-5.348 4.27c0 3.757 3.264 5.07 3.264 6.477 0 1.567-3.595.263-3.595 1.885 0 1.577 3.587 2.577 3.587 3.384 0 1.416-3.92 3.095-4.665 3.527-.738.447-2.158 2.485-2.158 3.394 0 .895.71 1.02 1.336 1.02 5.348 0 9.506-5.873 11.33-5.873 1.817 0 3.532 4.785 3.532 7.28 0 2.502-3.126 2.304-5.837 2.304-2.72 0-11.127 3.145-13.386 3.145s-5.78-2.162-5.78-4.015c0-.99 1.364-3.88 1.364-8.883 0-6.024-4.51-9.76-8.823-9.76-5.2 0-7.874 4.173-7.874 6.105 0 1.6.997 2.58.647 3.194-.628 1.065.368 2.135 2.083 2.135 1.54 0 2.637-1.916 3.65-1.916 1.78 0 4.97 6.012 4.97 7.37 0 1.352-2.157 2.54-4.896 2.54-2.25 0-8.85-3.558-13.138-3.558-1.827.115-5.146.484-5.146-4.21 0-2.33 3.66-2.926 3.66-8.24 0-1.767-1.642-2.9-1.337-3.864.977-3.064-1.347-5.757-4.417-5.757-3.808 0-5.282 3.467-5.282 5.21 0 6.338 4.785 5.665 6.407 7.292-3.585 4.84-9.67 2.103-11.237 2.103-.932 0-5.237 2.683-5.237.73 0-2.288 5.66-4.648 2.158-4.648-5.246 0-7.91 5.307-10.345 5.307-2.36 0-3.127-2.983-5.606-5.464-1.65-1.664-3.18-1.807-4.71-3.347-1.827-1.813-4.188-5.83-12.033-12.1-1.022-.82-2.903-5.488-2.903-11.03 0-9.864 1.504-18.135 17.712-22.25 20.476-5.196 15.083-28.194 48.81-28.194 27.417 0 42.602 16.203 86.25 28.617 8.774 2.503 13.57 2.287 13.57 5.126 0 1.926-4.694 1.115-4.694 2.945s4.047 1.908 6.692 1.908c2.637 0 .498 1.632-4.794 1.632-5.302 0-8.786-1.937-8.786-3.54 0-2.71 6.075-2.098 6.075-3.172 0-1.503-10.787-4.638-16.945-4.638-2.83 0 .092 3.033.092 8.17 0 4.632-1.484 7.568-1.484 9.72 0 3.9 6.25.504 8.06.504 3.77 0 .94 9.062 10.638 10.666 2.094.34.36 1.503.36 2.65 0 1.162 3.688.125 4.416.032.737-.105 1.374-.475 1.374 3.55 0 4.02-1.715 4.522-4.02 4.522-9.11 0-9.645-11.332-15.342-11.332-1.613 0-12.714 3.55-12.714 5.107 0 1.512 3.282 3.052 6.26 3.052 2.028 0 2.213 1.037 3.587 1.037 1.363 0 2.497-.226 2.497 2.116 0 4.273-1.3 5.65-4.95 5.65-7.847 0-7.653-8.92-15.554-8.92-2.582 0-8.528 2.863-13.922 2.863-6.37 0-10.62-5.07-17.424-5.07-3.485 0-5.348 2.802-5.348 5.513m-70.01-7.04c0-1.945 2.343-3.613.7-3.613-2.912 0-1.704 7.532-4.046 10.703 0 0-.46 1.26 1.337 1.26 2.6 0 5.236-2.582 5.236-4.224 0-2.568-3.224-1.927-3.224-4.126m.415 5.62c-.506 0-1.207-.954-1.207-1.235 0-.266.424-1.003.867-1.003.985 0 1.013.774 1.013 1.834 0 .273-.378.407-.673.407M200.628 212.78c-3.477-2.204-6.15.35-9.248 3.54.037-.13.065-.295.093-.443.517-2.977-.535-5.457-2.435-5.78-.22-.046-.46.036-.69.065-.996-2.62-2.858-1.975-2.858-1.975-.94-2.6-2.867-1.982-2.867-1.982-1.023-2.607-2.867-1.98-2.867-1.98-.94-2.62-2.877-1.982-2.877-1.982-1.044-2.666-2.87-1.982-2.87-1.982-.977-2.617-2.866-1.99-2.866-1.99-.94-2.6-2.886-1.982-2.886-1.982-1.016-2.682-2.887-1.982-2.887-1.982-.423-1.133-1.18-1.908-2.156-2.082-.646-.102-1.282.055-1.845.424 1.052-5.33 1.476-9.866-2.784-12.558-2.23-1.402-4.684-.978-5.477.295-.987 1.55.93 2.895 1.68 3.854 2.865 3.65-12.255 27.77 9.752 41.643 16.798 10.594 25.916-.23 29.447-2.922 1.705 1.347 5.264 3.624 8.02-.757 2.176-3.44 1.594-7.544-1.383-9.425M163 193.453c.82.14 1.375 1.162 1.504 2.535.646-.783 2.5-1.244 2.867 1.982.665-.783 2.5-1.234 2.87 1.992.662-.783 2.506-1.246 2.875 1.982.654-.785 2.5-1.246 2.867 1.982.664-.785 2.5-1.246 2.867 1.98.663-.773 2.507-1.234 2.876 2.002.654-.793 2.498-1.254 2.867 1.973.664-.774 2.498-1.243 2.867 1.993.435-.426.904-.637 1.375-.555 1.16.203 1.788 2.14 1.41 4.334-.378 2.193-1.622 3.816-2.784 3.613-.83-.137-1.38-1.17-1.5-2.535-.655.783-2.51 1.244-2.868-1.982-.663.775-2.497 1.236-2.866-1.99-.664.793-2.517 1.244-2.876-1.992-.655.793-2.508 1.254-2.868-1.973-.663.773-2.508 1.234-2.876-1.992-.654.794-2.49 1.255-2.858-1.972-.664.775-2.517 1.236-2.876-1.99-.655.773-2.508 1.234-2.877-1.992-.424.424-.895.637-1.364.553-1.152-.203-1.79-2.14-1.41-4.33.377-2.206 1.622-3.82 2.783-3.616m24.11 27.003c-4.177 3.467-9.59 5.56-18.034.23-8.907-5.623-10.068-12.54-9.34-19.176.433.608.995.997 1.687 1.126.23.037.452-.037.69-.074.997 2.62 2.86 1.973 2.86 1.973.94 2.6 2.866 1.982 2.866 1.982 1.023 2.61 2.877 1.982 2.877 1.982.93 2.616 2.866 1.98 2.866 1.98 1.05 2.665 2.867 1.99 2.867 1.99.977 2.61 2.867 1.983 2.867 1.983.94 2.6 2.876 1.982 2.876 1.982 1.023 2.684 2.896 1.982 2.896 1.982.406 1.09 1.116 1.83 2.02 2.04m13.848 1.08c-2.518 3.983-5.523.82-6.768.046-1.52-.967-10.51 14.89-28.986 3.236-21.602-13.628-5.688-36.63-9.432-41.36-.885-1.106-1.982-1.825-1.623-2.416.37-.57 2.05-.995 3.773.093 10.086 6.362-10.963 27.07 10.49 40.602 19.445 12.263 24.332-12.466 31.55-7.91 1.735 1.096 3.247 4.14.998 7.71m-102.91 4.34c22.008-13.875 6.888-37.994 9.755-41.645.756-.96 2.664-2.305 1.696-3.863-.8-1.263-3.252-1.688-5.483-.286-4.26 2.692-3.845 7.228-2.775 12.558-.58-.37-1.216-.525-1.852-.406-.987.156-1.733.932-2.167 2.064 0 0-1.86-.7-2.885 1.975 0 0-1.937-.61-2.867 2 0 0-1.907-.637-2.876 1.982 0 0-1.815-.686-2.866 1.98 0 0-1.945-.627-2.867 1.982 0 0-1.853-.627-2.866 1.99 0 0-1.937-.627-2.886 1.973 0 0-1.844-.645-2.85 1.975-.24-.028-.46-.11-.7-.065-1.9.324-2.94 2.805-2.434 5.78.027.15.064.306.092.462-3.088-3.207-5.762-5.762-9.238-3.56-2.978 1.882-3.56 5.985-1.392 9.423 2.766 4.39 6.324 2.104 8.03.758 3.54 2.692 12.66 13.516 29.44 2.922M73.77 211.322c.46-.092.94.13 1.365.555.37-3.236 2.223-2.775 2.877-1.992.36-3.227 2.203-2.766 2.867-1.982.37-3.227 2.212-2.766 2.866-1.982.37-3.234 2.224-2.764 2.868-1.99.37-3.217 2.223-2.766 2.877-1.98.37-3.23 2.214-2.766 2.868-1.982.37-3.227 2.222-2.775 2.867-1.982.368-3.236 2.22-2.775 2.885-1.992.11-1.373.664-2.396 1.494-2.535 1.15-.204 2.414 1.42 2.783 3.614.378 2.193-.26 4.13-1.41 4.332-.47.084-.95-.13-1.374-.553-.37 3.227-2.214 2.766-2.868 1.992-.37 3.227-2.223 2.766-2.868 1.99-.368 3.227-2.212 2.766-2.867 1.973-.368 3.227-2.213 2.766-2.876 1.992-.368 3.226-2.203 2.765-2.866 1.99-.37 3.218-2.223 2.767-2.867 1.974-.37 3.236-2.222 2.766-2.876 1.99-.37 3.227-2.213 2.766-2.867 1.973-.12 1.375-.683 2.408-1.503 2.545-1.17.203-2.416-1.42-2.794-3.613-.378-2.2.267-4.136 1.42-4.34m29.097-9.81c.73 6.64-.425 13.555-9.34 19.178-8.454 5.32-13.848 3.245-18.043-.222.913-.22 1.623-.96 2.028-2.047 0 0 1.872.7 2.896-1.98 0 0 1.936.615 2.867-1.984 0 0 1.91.627 2.868-1.982 0 0 1.825.674 2.877-1.982 0 0 1.936.627 2.876-1.99 0 0 1.845.627 2.868-1.992 0 0 1.918.628 2.858-1.972 0 0 1.862.646 2.876-1.973.222.037.46.11.683.074.684-.13 1.264-.52 1.69-1.128m-34.47 20.07c-1.235.776-4.25 3.94-6.758-.044-2.25-3.56-.747-6.61.986-7.71 7.228-4.554 12.105 20.175 31.56 7.91 21.443-13.532.414-34.24 10.49-40.6 1.733-1.09 3.402-.665 3.762-.094.38.59-.737 1.328-1.604 2.416-3.753 4.73 12.16 27.732-9.44 41.37-18.476 11.644-27.475-4.213-28.996-3.247m53.66-47.176c-4.482 3.3-9.72 7.044-14.412 10.354l2.12 11.46c6.814-4.497 15.047-10.196 21.528-14.925 6.49 4.73 14.724 10.428 21.528 14.926l2.13-11.46c-4.702-3.31-9.94-7.05-14.41-10.352 51.315-39.004 89.06-80.64 89.494-81.142 5.91-6.146 4.5-13.576 4.435-13.83-.185-1.603-1.89-2.424-3.29-.963-.426.475-38.797 42.825-99.887 89.048C70.206 121.3 31.836 78.95 31.41 78.474c-1.38-1.46-3.105-.64-3.29.964-.046.253-1.466 7.684 4.436 13.83.442.502 38.177 42.137 89.504 81.14m-92.705-94.79c.193-1.286 1.134-.313 1.134-.313s38.49 42.778 100.805 89.785c62.325-47.008 100.808-89.786 100.808-89.786s.96-.973 1.143.313c0 0 1.393 7.07-4.13 12.82 0 0-38.197 42.41-90.647 82.008a780.503 780.503 0 0 0 15.12 10.87l-1.64 8.822a521.4 521.4 0 0 1-20.654-14.373c-6.693 4.896-13.58 9.718-20.643 14.373l-1.632-8.823a792.638 792.638 0 0 0 15.11-10.87c-52.44-39.598-90.645-82.008-90.645-82.008-5.532-5.747-4.13-12.82-4.13-12.82m115.2 56.04c21.684-8.024 45.655-19.715 44.27-23.454-1.133-3.074-18.17 4.56-47.84 15.53-13.84 5.127-16.585 6.754-15.72 9.114.61 1.66 3.265 4.74 19.29-1.19m-3.136-6.753c24.846-9.196 45.737-17.623 46.234-16.268 1.023 2.757-28.525 16.296-43.525 21.86-15.065 5.56-17.353 2.85-17.7 1.912-.63-1.685 3.906-3.396 14.99-7.504m54.718-89.08c.848-3.106-13.13-7.965-28.387-12.16-20.853-5.73-28.432-5.23-28.413-4.264.064 2.953 8.02 4.37 25.962 9.296 19.517 5.37 29.87 10.65 30.84 7.127m-28.72-10.958c13.424 3.688 27.98 8.948 27.52 10.63-.47 1.688-11.01-2.968-29.31-7.997-18.31-5.035-23.73-6.404-25.132-7.73-.45-.43 13.498 1.404 26.922 5.096"/><path fill="#002D62" d="M223.437 230.978h1.9v5.717h.682v-5.717h2v-.682h-4.584zm8.233 4.527l-1.64-5.21h-1.107v6.4h.69v-5.44l1.716 5.44h.68l1.715-5.44v5.44h.69v-6.4h-1.104z"/></svg>