<svg xmlns="http://www.w3.org/2000/svg" width="232.568" height="144.898" viewBox="0 0 232.568 144.898"><path fill="#fff" d="M63.47 138.03c-9.527 0-18.023-.66-25.254-1.966l-3.52-.634 2.996-1.953 6.663-4.343c-3.88-.446-9.887-1.542-15.95-4.23-9.367-4.15-20.53-13.002-20.53-31.588 0-13.323 5.615-25.858 16.695-37.26 9.77-10.054 23.565-19.035 41-26.695C96.03 15.98 136.07 7.67 170.062 7.67c9.87 0 18.688.714 26.207 2.124l3.503.657-2.994 1.933-6.646 4.29c3.836.506 9.8 1.696 15.822 4.474 9.256 4.27 20.29 13.216 20.29 31.58-.042 13.425-5.748 26.01-16.96 37.406-9.862 10.023-23.775 18.96-41.352 26.553-30.47 13.166-70.5 21.344-104.463 21.344z"/><path fill="#8E8E91" d="M170.062 9.09c9.637 0 18.453.694 25.946 2.1l-10.113 6.527s38.932.914 38.932 35.008C224.65 107.96 125.57 136.61 63.47 136.61c-9.32 0-17.808-.646-25.002-1.943l10.198-6.646s-39.372-.2-39.372-34.703C9.294 38.542 107.3 9.09 170.062 9.09m0-2.842C135.884 6.248 95.627 14.606 65 28.06c-17.606 7.736-31.55 16.823-41.45 27.01C12.204 66.742 6.452 79.61 6.452 93.316c0 15.315 7.39 26.688 21.376 32.887 4.498 1.995 8.97 3.136 12.61 3.788l-3.522 2.296-5.994 3.907 7.04 1.27c7.316 1.32 15.898 1.988 25.508 1.988 34.146 0 74.39-8.223 105.027-21.46 17.746-7.67 31.81-16.706 41.802-26.862 11.48-11.67 17.324-24.588 17.368-38.393 0-15.14-7.303-26.506-21.118-32.88-4.48-2.067-8.938-3.278-12.555-3.986l3.554-2.293 5.988-3.866L196.53 8.4c-7.604-1.428-16.51-2.15-26.468-2.15z"/><path d="M181.8 14.166s-5.006-.812-14.61-.812c-50.824 0-152.417 26.502-152.417 78.948 0 28.615 28.21 32.065 43.635 32.065 26.654 0 58.45-10.045 71.235-17.25 0 0-47.693 18.94-88.013 5.275 7.923 1.27 26.113-1.218 33.292-4.26 0 0-20.066-3.315-20.066-23.95 0-51.503 114.162-70.016 126.944-70.016zM69.468 85.908c5.31-9.64 5.446-15.728 11.535-22.9 10.565-12.002 43.972-21.09 62.136-21.09 18.335 0 24.76 11.836 24.86 19.298 0 21.174-44.152 38.424-44.074 38.424 42.586-28.65 41.1-45.037 16.55-45.037-20.296 0-57.918 13.344-71.008 31.305z" fill="#231F20"/><path fill="#E13A3E" d="M52.386 131.673s5.006.813 14.612.813c50.823 0 152.417-26.504 152.417-78.947 0-28.617-28.21-32.067-43.636-32.067-26.655 0-58.45 10.047-71.236 17.25 0 0 47.694-18.942 88.013-5.276-7.924-1.27-26.113 1.217-33.292 4.262 0 0 20.066 3.313 20.066 23.947.002 51.503-114.16 70.016-126.944 70.016z"/><g><path fill="#E13A3E" d="M158.09 62.096c-3.042-8.465-26.742-7.395-48.894.27-23.808 8.556-40.655 22.137-37.612 30.6 3.042 8.467 26.738 7.793 48.615-.162 23.806-8.555 40.93-22.243 37.89-30.708z"/><ellipse transform="rotate(-18.38 114.44 77.723)" fill="#231F20" cx="114.204" cy="77.722" rx="19.101" ry="6.297"/></g></svg>