<?xml version="1.0" encoding="utf-8"?>
<!-- Generator: Adobe Illustrator 13.0.0, SVG Export Plug-In . SVG Version: 6.00 Build 14948)  -->
<!DOCTYPE svg PUBLIC "-//W3C//DTD SVG 1.1//EN" "http://www.w3.org/Graphics/SVG/1.1/DTD/svg11.dtd">
<svg version="1.1" xmlns="http://www.w3.org/2000/svg" xmlns:xlink="http://www.w3.org/1999/xlink" x="0px" y="0px" width="307px"
	 height="264.701px" viewBox="0 0 307 264.701" enable-background="new 0 0 307 264.701" xml:space="preserve">
<g id="Layer_9">
</g>
<g id="Layer_8">
	<g id="Silver_BG">
		<path fill="#A7B1B7" d="M153.594,6.912L140.616,34.07c-19.307,1.774-47.279,8.937-72.278,22.172
			C35.766,73.484,7.951,101.587,7.951,135.354c0,48.202,46.206,61.516,50.952,64.064l-21.25,52.409l56.101-44.397
			c30.263,4.315,69.092,2.152,89.067-1.373l61.378,53.925l-20.946-63.058c0,0,15.169-5.127,20.467-8.08l56.925-131.053
			c-46.414,27.132-88.18,43.155-88.18,43.155l80.916-60.192l-51.104,8.698c0,0-28.639-18.792-80.018-17.245L153.594,6.912z"/>
	</g>
	<g id="Blue_BG">
		<path fill="#00285D" d="M290.123,69.647c-42.354,23.607-71.49,35.584-101.492,46.52l-1.765-5.248l91.532-63.571L176.746,73.373
			l56.778-22.93c0,0-27.362-15.619-74.883-13.248l-5.843-17.341l-31.665,65.729L73.083,99.2l44.459-18.23l20.516-41.853
			c-5.708,0.888-11.788,1.919-17.993,3.345C59.561,56.368,12.798,94.709,12.798,135.014c0,42.681,37.634,56.221,52.736,61.428
			l-19.849,43.604l46.607-37.835c32.046,4.806,70.902,3.043,92.185-1.282l51.651,45.945l-19.348-53.245
			c0,0,11.44-2.901,23.163-8.402L290.123,69.647z M95.689,131.165c-15.485-2.061-20.221-7.411-20.221-11.712
			c0-1.603,0.761-3.445,0.761-3.445l23.393,6.529L95.689,131.165z"/>
	</g>
	<g id="Red">
		<path id="Banner" fill="#E13A3E" d="M239.464,101.733c-52.796,27.413-98.943,38.255-128.532,38.255
			c-39.15,0-56.695-18.667-56.695-30.417c0-28.007,41.82-49.895,78.012-58.604l2.977-6.074
			c-30.299,5.548-64.503,18.136-84.06,36.023c-19.067,12.818-31.047,31.958-31.047,54.007c0,32.447,26.909,62.854,110.148,62.854
			c53.035,0,89.729-11.27,102.173-17.518c-52.182-0.32-105.537-15.863-105.537-15.863S194.84,138.279,239.464,101.733z"/>
		<path id="Banner_Tip" fill="#E13A3E" d="M161.972,46.878c0.006,0,0.013-0.001,0.02-0.001c5.408-0.445,10.862-0.676,16.317-0.676
			c23.1,0,38.482,3.732,38.482,3.732s-16.425-8.219-49.992-8.219c-2.057,0-4.188,0.054-6.382,0.159L161.972,46.878z"/>
	</g>
	<g id="White">
		<path id="Low_Stripe" fill="#FFFFFF" d="M162.328,172.642L162.328,172.642c0,0-18.803,2.97-41.876,2.97
			c-91.001,0-97.314-45.818-97.314-59.403c-1.959,5.89-3.006,12.119-3.018,18.6c0.056,0.952,3.559,53.142,104.138,53.142
			c41.313,0,75.761-9.61,75.761-9.61s0,0,0,0C186.329,176.884,173.4,174.778,162.328,172.642z"/>
		<path id="Top_Stripe" fill="#FFFFFF" d="M199.771,128.889c-0.226,0.089-55.403,21.889-93.646,21.889
			c-43.996,0-64.012-25.098-64.012-44.812c0-13.673,9.053-25.049,9.053-25.049c-0.293,0.198-0.586,0.397-0.876,0.597
			c-0.125,0.094-16.001,12.137-16.001,31.079c0,30.829,30.383,47.746,65.774,47.746c20.082,0,40.298-3.525,52.166-6.809
			C165.502,147.433,182.55,139.014,199.771,128.889z"/>
	</g>
	<g id="Star">
		<g id="Grey">
			<path fill="#A7B1B7" d="M200.941,208.188L200.941,208.188l17.21,13.531l-8.755-23.23
				C200.772,200.657,200.941,208.188,200.941,208.188z"/>
			<path fill="#A7B1B7" d="M105.661,131.951c1.534,0.051,3.137,0.079,4.816,0.079c25.108,0,54.498-8.195,69.043-12.805l-4.323-11.47
				l63.385-41.58l-74.447,18.066l-13.098-41.059l-20.811,49.621l-56.601,14.291l39.657,9.634L105.661,131.951z"/>
			<path fill="#A7B1B7" d="M72.137,198.921L72.137,198.921l-9.407,18.792l17.547-13.164
				C80.277,204.547,78.551,198.885,72.137,198.921z"/>
		</g>
		<g id="White_1_">
			<polygon fill="#FFFFFF" points="151.016,50.187 161.23,85.083 140.278,98.62 			"/>
			<polygon fill="#FFFFFF" points="85.135,106.22 131.281,93.682 140.278,98.62 			"/>
			<g>
				<path fill="#FFFFFF" d="M73.564,199.017l-7.069,13.849l8.695-13.465C74.695,199.229,74.153,199.098,73.564,199.017z"/>
				<path fill="#FFFFFF" d="M110.478,132.03c2.759,0,5.569-0.1,8.405-0.282l21.395-33.129l-24.863,18.409l-7.645,14.977
					C108.651,132.021,109.553,132.03,110.478,132.03z"/>
			</g>
			<g>
				<path fill="#FFFFFF" d="M212.985,214.629l-8.577-13.685c-1.66,1.414-2.525,3.083-2.977,4.463L212.985,214.629z"/>
				<path fill="#FFFFFF" d="M157.12,125.493L140.278,98.62v30.44C146.13,128.015,151.821,126.78,157.12,125.493z"/>
			</g>
			<polygon fill="#FFFFFF" points="140.278,98.62 173.528,105.673 227.085,72.344 			"/>
		</g>
	</g>
	<g id="Stars">
		<polygon fill="#FFFFFF" points="156.471,161.132 159.387,159.429 156.357,159.735 156.274,157.507 154.303,159.889 
			151.176,160.281 153.239,161.27 151.32,163.814 154.608,162.123 156.844,163.776 		"/>
		<polygon fill="#FFFFFF" points="173.295,164.498 176.132,162.975 173.181,163.1 173.168,161.192 171.405,163.274 168.421,163.595 
			170.283,164.677 168.421,166.96 171.433,165.487 173.569,167.08 		"/>
		<polygon fill="#FFFFFF" points="179.67,150.096 182.635,148.427 179.617,148.681 179.565,146.332 177.508,148.947 
			174.409,149.255 176.404,150.405 174.477,152.9 177.774,151.164 180.085,152.887 		"/>
		<polygon fill="#FFFFFF" points="196.623,151.775 199.372,150.227 196.573,150.462 196.525,148.284 194.616,150.71 
			191.744,150.995 193.594,152.062 191.805,154.375 194.863,152.766 197.006,154.363 		"/>
		<polygon fill="#FFFFFF" points="189.911,166.88 192.635,165.337 189.951,165.524 189.892,163.615 187.994,165.771 
			185.266,165.919 186.907,167.054 185.093,169.324 188.15,167.721 190.313,169.364 		"/>
		<polygon fill="#FFFFFF" points="211.155,169.097 214.387,167.388 211.103,167.521 211.155,165.278 208.902,167.864 
			205.681,168.188 207.711,169.337 205.655,171.874 209.126,170.085 211.53,171.928 		"/>
		<polygon fill="#FFFFFF" points="203.813,135.755 207.317,133.712 203.732,134.113 203.591,131.65 201.47,134.414 197.764,134.854 
			200.027,136.056 197.783,139.02 201.628,136.917 204.313,138.9 		"/>
		<polygon fill="#FFFFFF" points="234.495,169.504 238.922,167.181 234.495,167.38 234.537,164.437 231.572,167.842 
			227.085,168.322 229.929,169.725 227.146,173.33 231.8,170.84 235.036,173.39 		"/>
		<polygon fill="#FFFFFF" points="242.877,148.634 247.128,146.237 242.868,146.725 242.908,143.78 240.318,147.092 
			236.205,147.546 238.77,148.908 236.152,152.272 240.532,149.922 243.482,152.046 		"/>
		<polygon fill="#FFFFFF" points="250.138,128.264 254.444,125.801 250.158,126.202 249.959,123.217 247.294,126.642 
			242.828,127.163 245.553,128.605 242.828,132.211 247.555,129.687 250.84,132.11 		"/>
		<polygon fill="#FFFFFF" points="231.451,119.833 235.219,116.868 230.831,117.729 230.09,114.565 228.008,118.391 
			223.439,119.312 226.584,120.694 224.461,124.439 228.867,121.455 232.913,123.638 		"/>
		<polygon fill="#FFFFFF" points="257.924,104.946 263.098,101.827 257.613,102.479 257.135,98.469 253.988,102.91 248.396,103.576 
			252.211,105.436 249.008,110.089 254.699,106.841 258.972,109.798 		"/>
	</g>
	<g id="Dot">
		<path id="White_2_" fill="#FFFFFF" d="M204.773,149.815c0,2.483,1.843,9.774,10.574,9.774c9.535,0,19.55-9.213,19.55-18.426
			c0-5.688-4.006-10.254-10.335-10.254C212.385,130.909,204.773,142.605,204.773,149.815z"/>
		<path id="Red_1_" fill="#E13A3E" d="M207.657,148.587c0,4.272,2.777,8.332,8.065,8.332c8.386,0,16.156-7.909,16.156-15.568
			c0-4.033-3.127-8.105-8.198-8.105C214.668,133.245,207.657,142.593,207.657,148.587z"/>
	</g>
</g>
</svg>
