<svg xmlns="http://www.w3.org/2000/svg" width="307" height="264.701" viewBox="0 0 307 264.701"><path fill="#A7B1B7" d="M153.594 6.912L140.616 34.07c-19.307 1.774-47.28 8.937-72.278 22.172C35.766 73.484 7.95 101.587 7.95 135.354c0 48.202 46.207 61.516 50.953 64.064l-21.25 52.41 56.1-44.398c30.264 4.315 69.093 2.152 89.068-1.373l61.38 53.925-20.947-63.058s15.17-5.127 20.467-8.08L300.645 57.79c-46.414 27.133-88.18 43.156-88.18 43.156l80.916-60.192-51.103 8.698s-28.64-18.792-80.018-17.245l-8.666-25.295z"/><path fill="#00285D" d="M290.123 69.647c-42.354 23.607-71.49 35.584-101.492 46.52l-1.764-5.248 91.532-63.572-101.652 26.025 56.778-22.93s-27.362-15.62-74.883-13.248l-5.842-17.34-31.665 65.728L73.083 99.2l44.46-18.23 20.515-41.853c-5.708.888-11.788 1.92-17.993 3.345C59.56 56.368 12.798 94.71 12.798 135.014c0 42.68 37.634 56.22 52.736 61.428l-19.85 43.604 46.608-37.835c32.046 4.807 70.902 3.044 92.185-1.28l51.65 45.944-19.347-53.245s11.44-2.902 23.163-8.403l50.18-115.58zM95.69 131.165c-15.486-2.06-20.222-7.41-20.222-11.712 0-1.603.76-3.445.76-3.445l23.394 6.53-3.933 8.627z"/><g fill="#E13A3E"><path d="M239.464 101.733c-52.796 27.413-98.943 38.255-128.532 38.255-39.15 0-56.695-18.667-56.695-30.417 0-28.006 41.82-49.894 78.012-58.603l2.976-6.074c-30.3 5.548-64.503 18.136-84.06 36.023C32.1 93.734 20.12 112.874 20.12 134.923c0 32.447 26.908 62.854 110.147 62.854 53.035 0 89.73-11.27 102.173-17.518-52.182-.32-105.537-15.864-105.537-15.864s67.937-26.117 112.56-62.663zM161.972 46.878h.02a198.716 198.716 0 0 1 16.317-.677c23.1 0 38.48 3.733 38.48 3.733s-16.424-8.22-49.99-8.22c-2.058 0-4.19.055-6.383.16l1.555 5.005z"/></g><g fill="#fff"><path d="M162.328 172.642s-18.803 2.97-41.876 2.97c-91 0-97.314-45.818-97.314-59.403a59.031 59.031 0 0 0-3.018 18.6c.056.95 3.56 53.14 104.138 53.14 41.313 0 75.76-9.61 75.76-9.61-13.69-1.456-26.618-3.562-37.69-5.698z"/><path d="M199.77 128.89c-.225.088-55.402 21.888-93.645 21.888-43.996 0-64.012-25.098-64.012-44.812 0-13.673 9.053-25.05 9.053-25.05-.293.2-.586.398-.876.598-.125.094-16 12.137-16 31.08 0 30.828 30.382 47.745 65.773 47.745 20.082 0 40.298-3.526 52.166-6.81 13.272-6.097 30.32-14.516 47.54-24.64z"/></g><path d="M200.94 208.188l17.21 13.53-8.754-23.23c-8.624 2.17-8.455 9.7-8.455 9.7zm-95.28-76.238c1.535.052 3.138.08 4.817.08 25.108 0 54.498-8.195 69.043-12.805l-4.323-11.47 63.385-41.58-74.447 18.066-13.098-41.058-20.81 49.62-56.602 14.292 39.657 9.634-7.62 15.223zm-33.523 66.97l-9.407 18.793 17.547-13.164c0-.003-1.726-5.665-8.14-5.63z" fill="#A7B1B7"/><path d="M151.016 50.187l10.214 34.896-20.952 13.537zM85.135 106.22l46.146-12.538 8.998 4.938zm-11.571 92.797l-7.07 13.85L75.19 199.4a8.61 8.61 0 0 0-1.626-.383zm36.914-66.987c2.76 0 5.57-.1 8.405-.282l21.395-33.13-24.863 18.41-7.645 14.977c.88.016 1.783.025 2.708.025zm102.507 82.6l-8.577-13.686a9.825 9.825 0 0 0-2.977 4.463l11.555 9.222zm-55.865-89.137L140.278 98.62v30.44a281.134 281.134 0 0 0 16.842-3.567zM140.278 98.62l33.25 7.053 53.557-33.33zM156.47 161.132l2.917-1.703-3.03.305-.083-2.228-1.97 2.382-3.128.39 2.063.99-1.92 2.544 3.288-1.69 2.236 1.652zm16.825 3.366l2.837-1.523-2.95.125-.014-1.908-1.763 2.082-2.984.32 1.863 1.083-1.862 2.283 3.013-1.473 2.136 1.593zm6.375-14.402l2.965-1.67-3.018.255-.052-2.348-2.057 2.615-3.1.308 1.996 1.15-1.927 2.495 3.297-1.736 2.31 1.723zm16.953 1.679l2.75-1.548-2.8.235-.048-2.178-1.91 2.426-2.87.285 1.85 1.067-1.79 2.313 3.058-1.61 2.143 1.598zm-6.713 15.105l2.725-1.543-2.684.187-.058-1.91-1.898 2.157-2.728.15 1.64 1.134-1.813 2.27 3.057-1.603 2.163 1.644zm21.245 2.217l3.232-1.71-3.284.134.052-2.242-2.253 2.586-3.22.324 2.03 1.15-2.057 2.536 3.47-1.79 2.405 1.844zm-7.342-33.342l3.504-2.043-3.585.4-.14-2.462-2.122 2.764-3.706.44 2.263 1.202-2.244 2.964 3.845-2.103 2.685 1.983zm30.682 33.749l4.427-2.323-4.427.2.042-2.943-2.965 3.405-4.487.48 2.844 1.403-2.784 3.605 4.654-2.49 3.236 2.55zm8.382-20.87l4.25-2.397-4.26.488.04-2.945-2.59 3.312-4.112.454 2.565 1.362-2.618 3.364 4.38-2.35 2.95 2.124zm7.261-20.37l4.306-2.463-4.286.402-.2-2.985-2.664 3.425-4.466.52 2.725 1.443-2.725 3.606 4.727-2.523 3.285 2.423zm-18.688-8.431l3.77-2.965-4.39.86-.74-3.163-2.082 3.826-4.57.922 3.146 1.382-2.123 3.745 4.407-2.985 4.046 2.183zm26.474-14.887l5.174-3.12-5.485.653-.478-4.01-3.147 4.44-5.592.666 3.815 1.86-3.202 4.653 5.69-3.25 4.274 2.958z" fill="#fff"/><g><path fill="#fff" d="M204.773 149.815c0 2.483 1.843 9.774 10.574 9.774 9.535 0 19.55-9.214 19.55-18.427 0-5.688-4.006-10.254-10.335-10.254-12.177 0-19.79 11.695-19.79 18.905z"/><path fill="#E13A3E" d="M207.657 148.587c0 4.272 2.777 8.332 8.065 8.332 8.386 0 16.156-7.91 16.156-15.57 0-4.032-3.127-8.104-8.198-8.104-9.012 0-16.023 9.347-16.023 15.34z"/></g></svg>