<svg xmlns="http://www.w3.org/2000/svg" width="103.5" height="88.833" viewBox="0 0 103.5 88.833"><path fill="none" d="M1.007 1.293H102.5V88.08H1.008z"/><path d="M22.05 54.802c-1.942-.564-2.82-1.956-2.82-1.956 1.054-.296 1.565-1.815 2.327-1.99 1.222-.285.727.916 3.98 2.536 1.193.557 1.355.607 2.278.785-2.247 1.118-3.61 1.252-5.765.625m79.327-17.34c5.095-18.25-6.888-36.17-28.84-36.17-13.23 0-22.686 8.986-28.33 8.986-2.318 0-5-4.606-5-4.606-3.912 2.257-3.07 6.353-3.07 6.353-3.066-1.807-8.097-1.775-8.097-1.775-4.395.03-8.307 2.86-8.307 2.86-2.588 1.895-3.52 4.242-3.52 4.242-2.922.845-6.086 3.824-6.086 3.824-.78.783-1.083 1.023-1.083 1.023-1.955 1.474-4.542 1.565-4.542 1.565.208 2.076 1.353 4.154 1.353 4.154 1.956 2.948 5.538 3.52 5.538 3.52S9.57 33.36 6.487 34.3c-2.28.697-5.48 1.205-5.48 1.205.09.753.423 1.325.423 1.325 3.222 5.27 10.628 4.968 10.628 4.968 1.262.148 3.4-.21 3.4-.21-.903 1.263-1.957 5.087-1.957 5.087-.45 1.896-1.413 2.62-1.413 2.62-.995.812-3.674 2.407-3.674 2.407 1.174 1.534 4.247 2.228 4.247 2.228.058 2.498.978 6.023.978 6.023-4.17-.877-6.34.448-6.34.448 1.205 1.055 2.11 2.47 2.11 2.47 1.443 1.744 1.746 5.18 1.746 5.18.3 4.09 1.564 6.98 2.556 8.486.995 1.506 2.983 2.98 2.983 2.98 1.353 1.145 3.882 1.717 3.882 1.717 1.747.482 3.413.12 3.413.12-1.125.933-4.255 2.136-4.255 2.136.875 1.897 3.43 2.98 3.43 2.98 2.078 1.176 5.6 1.326 5.6 1.326 3.883-.032 7.076-3.163 7.076-3.163 3.42-3.104 5.54-4.128 8.93-3.867 4.97.383 8.445 4.53 17.977 4.53 19.23 0 34.76-18.41 37.17-34.438h-25.7s-2.686 9.408-9.255 9.408c-5.007 0-8.337-4.053-8.337-10.632 0-8.605 7.173-23.636 17.515-23.636 4.838 0 4.806 5.863 2.91 11.474l24.327-.01z"/><path fill="#FFC758" d="M21.942 55.865c-1.9-.388-2.85-1.547-4.046-3.06l-.15-.257c1.407-.456 2.225-2.064 3.454-2.838 1.937-.6 2.536 2.142 6.226 3.307 1.054.527 1.682.616 2.77 1.145-2.546 1.605-4.916 2.65-8.254 1.703m78.594-19.46C104.99 17.274 91.88 2.287 72.58 2.287c-12.31 0-22.175 8.84-28.134 9.104-2.487.11-5.48-4.093-5.48-4.093-3.368 2.526-.903 7.163-.903 7.163-4.993-3.673-10.6-3.1-10.6-3.1-8.365.812-10.41 6.833-10.41 6.833-4.88 1.807-6.563 4.395-6.563 4.395-3.012 2.167-4.756 1.958-4.756 1.958 1.145 6.29 7.706 5.99 7.706 5.99-2.59 4.998-11.017 5.78-11.017 5.78 3.01 4.816 10.173 4.396 10.173 4.396 2.45.263 5.783-1.063 7.427-1.808-1.1.575-1.613 1.03-1.613 1.03-3.16 2.224-3.09 6.28-4.72 9.168-.628 1.3-2.45 1.92-3.455 2.715 1.087.544 2.332 1.002 3.504 1.21-.03 2.016.946 6.898 1.596 8.848-2.348-1.747-5.99-.96-5.99-.96 4.035 5.022 2.14 8.123 4.163 12.798.68 2.31 2.79 4.296 4.91 5.705 5.495 2.476 9.29-.777 9.29-.777-.63 3.042-6.35 5.33-6.35 5.33 1.34 1.465 4.627 2.572 6.592 2.7 7.762.51 8.163-7.937 16.77-7.055 4.99.51 9.566 4.702 17.89 4.702 20.838 0 34.37-21.09 36.01-32.438H75.005s-2.896 9.47-9.916 9.47c-7.27 0-9.57-6.233-9.57-11.853 0-8.544 7.094-24.686 18.673-24.686 5.455 0 6.296 5.986 4.366 11.59h21.976z"/><path fill="#E03A3E" d="M29.276 24.396c-1.298-.21-2.806-.838-4.31-.46-2.68.376-4.398 3.014-6.99 3.516-2.892 1.088-7.16 1.255-9.42-1.34 0-.125-.206-.21-.167-.334 3.682-.42 5.607-4.563 9.208-5.232 4.31-1.59 8.706.334 11.467 3.557 0 .125.168.167.21.293M21.24 71.314c4.435 2.554 7.74-2.386 12.26-.71v.166c-3.512 1.3-5.06 5.148-8.284 6.822-1.675.795-4.018.795-5.65-.086-3.935-2.132-5.106-6.86-5.317-11.215-.166-1.046-.627-1.966-.964-2.97 3.978 1.297 4.02 6.698 7.953 7.994M98.52 34.017c3.09-13.795-7.083-29.35-25.905-29.44-11.49-.056-20.95 9.133-28.425 9.133-1.898 0-3.498-1.158-4.617-2.583.335 4.103 4.143 7.534 7.784 8.916-1.84.124-3.433-.587-5.065-.964-4.896-1.34-8.374-6.027-13.98-5.566-3.934-.126-7.41 2.26-9.334 5.524a6.922 6.922 0 0 1 3.308-1.674c2.886-.503 5.398.794 7.28 2.76 2.346 3.727 4.942 7.326 8.79 9.924-2.762 0-5.187-1.05-7.615-1.886-4.98-1.424-10.884-.797-14.652 2.762-1.924 3.14-5.148 5.693-8.703 6.446v.127l1.045.46c4.104 1.76 8.622.04 12.054-2.094 2.386-.754 5.233-.335 6.908 1.55 1.17 2.008 3.35 4.02 5.273 5.48-.504.21-1.006-.21-1.59-.21-3.307-1.628-8.29-3.85-11.637-.792-3.137 2.387-1.548 6.99-4.897 9.25 2.345.21 3.685-1.507 5.024-3.18 3.35-2.47 5.483 1.966 8.16 3.013 2.85 1.38 6.615.92 8.666 3.85-2.178.418-4.396.796-6.278 1.926-2.89 1.8-7.116 2.093-10.256.585-1.63-.88-2.76-2.094-3.847-3.6 0 .042 0 .125-.046.168.21 6.195 2.51 12.933 8.916 15.11 4.353 2.007 9.038-1.257 13.31.836-2.26.502-4.353 1.716-5.694 3.68-2.216 2.89-2.175 6.867-4.937 9.336-.503.46-1.256.71-1.757 1.088.543.25 1.087.378 1.714.46 3.057.502 5.652-1.465 7.366-3.767 2.472-2.385 6.22-3.842 9.21-3.64 6.032.405 10.528 4.784 18.494 4.813 15.86.064 29.86-15.05 32.834-27.44H76.71s-3.404 9.48-11.643 9.48c-10.286 0-12.08-9.604-12.08-14.372 0-11.2 8.78-27.204 21.186-27.204 5.885 0 9.35 6.01 7.432 11.733H98.52"/><path d="M43.338 85.34v-.912h.608c.312 0 .644.066.644.434 0 .453-.34.48-.72.48h-.532m0 .377h.512l.78 1.278h.497l-.835-1.3c.43-.054.763-.283.763-.812 0-.58-.345-.84-1.04-.84H42.89v2.95h.448V85.72zm.542 2.36c1.392 0 2.582-1.082 2.582-2.564 0-1.47-1.19-2.55-2.582-2.55-1.41 0-2.598 1.08-2.598 2.55 0 1.482 1.19 2.563 2.598 2.563m-2.086-2.563c0-1.21.915-2.125 2.086-2.125 1.155 0 2.07.915 2.07 2.125 0 1.23-.915 2.138-2.07 2.138-1.17 0-2.086-.907-2.086-2.138"/></svg>