<?xml version="1.0" encoding="UTF-8" standalone="no"?>
<!-- Created with Inkscape (http://www.inkscape.org/) -->
<svg
   xmlns:dc="http://purl.org/dc/elements/1.1/"
   xmlns:cc="http://creativecommons.org/ns#"
   xmlns:rdf="http://www.w3.org/1999/02/22-rdf-syntax-ns#"
   xmlns:svg="http://www.w3.org/2000/svg"
   xmlns="http://www.w3.org/2000/svg"
   xmlns:sodipodi="http://sodipodi.sourceforge.net/DTD/sodipodi-0.dtd"
   xmlns:inkscape="http://www.inkscape.org/namespaces/inkscape"
   width="640px"
   height="480px"
   id="svg3166"
   sodipodi:version="0.32"
   inkscape:version="0.46"
   sodipodi:docname="ChicagoBlackhawksLogo.svg"
   inkscape:output_extension="org.inkscape.output.svg.inkscape">
  <defs
     id="defs3168">
    <inkscape:perspective
       sodipodi:type="inkscape:persp3d"
       inkscape:vp_x="0 : 240 : 1"
       inkscape:vp_y="0 : 1000 : 0"
       inkscape:vp_z="640 : 240 : 1"
       inkscape:persp3d-origin="320 : 160 : 1"
       id="perspective3174" />
    <clipPath
       id="clipPath3432"
       clipPathUnits="userSpaceOnUse">
      <path
         id="path3434"
         d="M 444.343,591.026 L 576,591.026 L 576,702 L 444.343,702 L 444.343,591.026 z" />
    </clipPath>
    <clipPath
       id="clipPath3416"
       clipPathUnits="userSpaceOnUse">
      <path
         id="path3418"
         d="M 446.326,591.026 L 574.016,591.026 L 574.016,702 L 446.326,702 L 446.326,591.026 z" />
    </clipPath>
    <clipPath
       id="clipPath3204"
       clipPathUnits="userSpaceOnUse">
      <path
         id="path3206"
         d="M 444.343,591.026 L 576,591.026 L 576,702 L 444.343,702 L 444.343,591.026 z" />
    </clipPath>
    <clipPath
       id="clipPath2482"
       clipPathUnits="userSpaceOnUse">
      <path
         id="path2484"
         d="M 0,0 L 612,0 L 612,792 L 0,792 L 0,0 z" />
    </clipPath>
    <clipPath
       id="clipPath2460"
       clipPathUnits="userSpaceOnUse">
      <path
         id="path2462"
         d="M 0,0 L 612,0 L 612,792 L 0,792 L 0,0 z" />
    </clipPath>
    <inkscape:perspective
       id="perspective2450"
       inkscape:persp3d-origin="372.04724 : 350.78739 : 1"
       inkscape:vp_z="744.09448 : 526.18109 : 1"
       inkscape:vp_y="0 : 1000 : 0"
       inkscape:vp_x="0 : 526.18109 : 1"
       sodipodi:type="inkscape:persp3d" />
  </defs>
  <sodipodi:namedview
     id="base"
     pagecolor="#ffffff"
     bordercolor="#666666"
     borderopacity="1.0"
     inkscape:pageopacity="0.0"
     inkscape:pageshadow="2"
     inkscape:zoom="0.77472527"
     inkscape:cx="320"
     inkscape:cy="245.23328"
     inkscape:current-layer="layer1"
     inkscape:document-units="px"
     showgrid="false"
     inkscape:window-width="1530"
     inkscape:window-height="1000"
     inkscape:window-x="-8"
     inkscape:window-y="-8" />
  <metadata
     id="metadata3171">
    <rdf:RDF>
      <cc:Work
         rdf:about="">
        <dc:format>image/svg+xml</dc:format>
        <dc:type
           rdf:resource="http://purl.org/dc/dcmitype/StillImage" />
      </cc:Work>
    </rdf:RDF>
  </metadata>
  <g
     id="layer1"
     inkscape:label="Layer 1"
     inkscape:groupmode="layer">
    <g
       transform="matrix(1.0005508,0,0,-1.0403097,3.4871398,664.20428)"
       inkscape:label="2008-09%20Washington%20Capitals%20Official%20Guide-116-BC"
       id="g2452">
      <g
         transform="matrix(3.9713672,0,0,3.9383213,-1710.9148,-2138.9472)"
         id="g3200">
        <g
           clip-path="url(#clipPath3204)"
           id="g3202">
          <g
             transform="translate(472.4966,659.60361)"
             id="g3208">
            <path
               id="path3210"
               style="fill:#ffffff;fill-opacity:1;fill-rule:nonzero;stroke:none"
               d="M 0,0 C 1.23,0.41 1.23,0.273 0.137,0.82 C -0.957,1.367 -5.174,2.713 -5.174,2.713 C -5.174,2.713 -5.447,1.504 -5.311,1.093 C -5.174,0.683 -5.174,-0.301 -5.311,-0.847 C -5.311,-0.847 -1.23,-0.411 0,0" />
          </g>
          <g
             transform="translate(476.114,652.8625)"
             id="g3212">
            <path
               id="path3214"
               style="fill:#ffffff;fill-opacity:1;fill-rule:nonzero;stroke:none"
               d="M 0,0 C -1.626,-1.001 -3.178,-1.279 -6.062,-1.451 C -5.802,-2.007 -5.134,-2.484 -4.143,-2.419 C -5.145,-3.314 -5.628,-4.019 -5.737,-4.547 C -3.43,-3.495 -1.749,-2.987 1.368,-3.155 C 6.426,-3.429 6.521,-1.188 5.29,0.726 C 4.06,2.639 1.318,0.811 0,0" />
          </g>
          <g
             transform="translate(518.44099,656.093)"
             id="g3216">
            <path
               id="path3218"
               style="fill:#ffffff;fill-opacity:1;fill-rule:nonzero;stroke:none"
               d="M 0,0 L -4.524,-2.093 C -4.844,-2.593 -5.156,-3.097 -5.465,-3.602 L -0.523,-1.265 C -1.553,-3.804 -2.549,-6.486 -3.431,-8.998 C -5.015,-10.048 -8.459,-11.308 -9.742,-11.761 C -9.887,-12.102 -10.027,-12.442 -10.162,-12.782 C -8.826,-12.347 -5.397,-11.177 -3.828,-10.141 C -5.25,-14.262 -6.317,-17.757 -6.655,-19.105 C -6.71,-19.324 -6.576,-19.547 -6.356,-19.602 C -6.136,-19.657 -5.914,-19.524 -5.859,-19.304 C -5.534,-18.006 -4.524,-14.847 -3.222,-11.118 C -2.591,-12.836 -1.258,-14.999 0.003,-16.335 C 0.265,-16.086 0.453,-15.917 0.587,-15.811 C 0.59,-15.789 0.594,-15.764 0.597,-15.742 C -0.745,-14.32 -2.106,-11.517 -2.682,-9.583 C -1.874,-7.313 -0.984,-4.906 -0.091,-2.622 C 0.406,-3.833 1.787,-6.026 2.36,-6.917 C 2.463,-6.477 2.568,-6.028 2.676,-5.573 C 2.097,-4.734 0.699,-2.631 0.385,-1.416 C 1.859,2.274 3.302,5.5 4.353,7.075 C 4.668,7.549 5.141,8.81 4.757,8.971 C 3.319,7.295 1.633,3.893 0,0" />
          </g>
          <g
             transform="translate(568.79739,630.5822)"
             id="g3220">
            <path
               id="path3222"
               style="fill:#ffffff;fill-opacity:1;fill-rule:nonzero;stroke:none"
               d="M 0,0 C -0.23,0.053 -0.456,0.111 -0.696,0.162 C -2.807,0.615 -5.274,1.152 -8.786,5.577 L -6.942,11.11 C -5.6,8.836 -4.614,7.099 -4.236,6.29 C -4.141,6.085 -3.897,5.997 -3.691,6.092 C -3.486,6.188 -3.397,6.433 -3.493,6.637 C -3.891,7.491 -4.922,9.306 -6.317,11.664 L -1.124,10.719 C -0.128,7.286 0.324,3.7 0,0 M -15.712,17.18 L -13.786,22.392 C -11.512,18.701 -9.259,15.006 -7.496,12.043 L -9.389,6.362 C -11.199,8.791 -13.278,12.241 -15.712,17.18 M -20.82,28.559 L -20.086,32.538 C -18.409,29.857 -16.378,26.594 -14.332,23.279 L -16.21,18.2 C -17.624,21.13 -19.154,24.554 -20.82,28.559 M -26.574,43.344 C -26.622,43.583 -26.506,43.775 -26.22,43.535 C -25.502,42.85 -24.681,42.089 -23.755,41.233 C -21.323,38.987 -18.322,36.216 -15.278,33.008 L -20.173,34.204 C -21.925,37 -23.15,38.932 -23.346,39.228 C -23.472,39.417 -23.726,39.468 -23.915,39.342 C -24.103,39.216 -24.155,38.962 -24.029,38.774 C -23.708,38.292 -22.458,36.322 -20.731,33.566 L -21.396,29.957 C -22.997,33.868 -24.719,38.305 -26.574,43.344 M -6.174,21.581 L -13.697,23.801 C -15.79,27.189 -17.862,30.514 -19.549,33.207 L -14.255,31.913 C -11.401,28.818 -8.564,25.35 -6.174,21.581 M -5.542,20.555 C -3.832,17.722 -2.392,14.728 -1.394,11.602 L -6.871,12.598 C -8.62,15.533 -10.826,19.144 -13.052,22.754 L -5.622,20.561 C -5.595,20.554 -5.568,20.557 -5.542,20.555 M -23.198,41.836 C -24.968,43.47 -26.394,44.788 -27.35,45.816 C -27.538,45.489 -27.766,45.185 -28.027,44.917 C -12.344,1.827 -5.983,0.455 -0.867,-0.641 C -0.473,-0.725 -0.101,-0.805 0.267,-0.904 L 0.731,-1.031 L 0.781,-0.551 C 2.719,17.909 -14.141,33.474 -23.198,41.836" />
          </g>
          <g
             transform="translate(461.58971,623.103)"
             id="g3224">
            <path
               id="path3226"
               style="fill:#ffffff;fill-opacity:1;fill-rule:nonzero;stroke:none"
               d="M 0,0 C -0.217,0.094 -0.512,0.038 -0.433,-0.277 C -0.433,-0.277 0.04,-2.514 0.04,-3.472 C 0.04,-3.892 0.004,-4.261 -0.059,-4.586 C 1.721,-10.436 7.316,-7.205 3.248,-2.626 C 1.886,-2.036 0.813,-0.354 0,0" />
          </g>
          <g
             transform="translate(545.46609,627.2133)"
             id="g3228">
            <path
               id="path3230"
               style="fill:#fee011;fill-opacity:1;fill-rule:nonzero;stroke:none"
               d="M 0,0 C -0.499,1.098 -1.148,4.049 -1.877,8.031 L -4.686,4.548 C -3.85,1.943 -2.845,-0.575 -1.63,-2.934 L 0,0 z" />
          </g>
          <g
             transform="translate(542.92059,644.0497)"
             id="g3232">
            <path
               id="path3234"
               style="fill:#fee011;fill-opacity:1;fill-rule:nonzero;stroke:none"
               d="M 0,0 C 0.451,-2.783 0.893,-5.425 1.311,-7.758 L 6.942,-10.809 C 6.866,-8.675 6.635,-6.273 6.193,-3.573 L 0,0 z" />
          </g>
          <g
             transform="translate(537.5025,648.66991)"
             id="g3236">
            <path
               id="path3238"
               style="fill:#fee011;fill-opacity:1;fill-rule:nonzero;stroke:none"
               d="M 0,0 C 0.223,-2.368 0.531,-4.778 0.942,-7.182 L 4.437,-3.688 C 4.083,-1.482 3.721,0.812 3.359,3.127 L 0,0 z" />
          </g>
          <g
             transform="translate(539.81821,674.7614)"
             id="g3240">
            <path
               id="path3242"
               style="fill:#fee011;fill-opacity:1;fill-rule:nonzero;stroke:none"
               d="M 0,0 C -0.382,-0.221 -0.798,-0.388 -1.241,-0.488 C 0.2,-3.592 1.481,-6.528 2.62,-9.309 C 1.734,-6.423 0.859,-3.329 0,0" />
          </g>
          <g
             transform="translate(539.0657,668.399)"
             id="g3244">
            <path
               id="path3246"
               style="fill:#fee011;fill-opacity:1;fill-rule:nonzero;stroke:none"
               d="M 0,0 C 0.628,-3.768 1.331,-8.283 2.055,-12.935 C 2.199,-13.863 2.346,-14.801 2.493,-15.742 L 8.018,-18.836 C 6.499,-13.357 4.257,-6.978 1.03,0.46 C 0.599,1.464 -0.216,1.003 0,0" />
          </g>
          <g
             transform="translate(541.7191,651.62711)"
             id="g3248">
            <path
               id="path3250"
               style="fill:#fee011;fill-opacity:1;fill-rule:nonzero;stroke:none"
               d="M 0,0 C 0.343,-2.196 0.69,-4.398 1.033,-6.533 L 7.216,-10.099 C 6.836,-7.974 6.326,-5.67 5.664,-3.173 L 0,0 z" />
          </g>
          <g
             transform="translate(540.70911,652.7756)"
             id="g3252">
            <path
               id="path3254"
               style="fill:#fee011;fill-opacity:1;fill-rule:nonzero;stroke:none"
               d="M 0,0 C -0.133,0.854 -0.266,1.709 -0.399,2.563 C -1.123,7.216 -1.826,11.728 -2.453,15.488 C -2.596,16.348 -3.509,16.401 -3.581,15.182 C -3.792,10.299 -3.883,3.823 -3.298,-3.07 L 0,0 z" />
          </g>
          <g
             transform="translate(543.3951,636.31149)"
             id="g3256">
            <path
               id="path3258"
               style="fill:#fee011;fill-opacity:1;fill-rule:nonzero;stroke:none"
               d="M 0,0 C -0.413,2.306 -0.848,4.908 -1.295,7.672 L -4.775,4.19 C -4.292,1.556 -3.682,-1.065 -2.911,-3.61 L 0,0 z" />
          </g>
          <g
             transform="translate(553.3694,637.9032)"
             id="g3260">
            <path
               id="path3262"
               style="fill:#fee011;fill-opacity:1;fill-rule:nonzero;stroke:none"
               d="M 0,0 C -1.544,2.293 -3.362,5.738 -4.651,8.679 C -0.567,-8.244 -3.752,-15.842 -5.246,-19.404 L -5.555,-20.149 C -5.555,-20.149 -5.818,-20.786 -5.82,-20.791 L -6.254,-20.254 C -19.301,-4.13 -17.38,25.827 -16.749,35.67 C -16.734,35.91 -16.719,36.136 -16.706,36.355 C -16.806,36.376 -16.904,36.402 -17.002,36.43 L -17.829,36.191 C -18.239,34.141 -18.239,13.771 -17.693,7.619 C -17.146,1.467 -15.641,-6.462 -15.505,-9.742 C -15.231,-10.427 -11.853,-15.822 -10.584,-18.219 C -9.354,-20.542 -7.576,-23.413 -7.166,-26.148 C -0.05,-19.583 1.262,-8.992 0,0" />
          </g>
          <g
             transform="translate(549.8862,632.29559)"
             id="g3264">
            <path
               id="path3266"
               style="fill:#fee011;fill-opacity:1;fill-rule:nonzero;stroke:none"
               d="M 0,0 L -5.468,2.962 C -4.732,-1.056 -4.087,-3.984 -3.627,-4.836 L -0.619,-7.482 C -0.222,-5.478 0.045,-3.02 0,0" />
          </g>
          <g
             transform="translate(547.3669,618.8177)"
             id="g3268">
            <path
               id="path3270"
               style="fill:#fee011;fill-opacity:1;fill-rule:nonzero;stroke:none"
               d="M 0,0 C 0.493,1.175 1.172,2.802 1.702,5.078 L -1.326,7.742 L -3.077,4.59 C -2.173,2.936 -1.167,1.365 -0.039,-0.094 L 0,0 z" />
          </g>
          <g
             transform="translate(533.8441,618.66879)"
             id="g3272">
            <path
               id="path3274"
               style="fill:#fee011;fill-opacity:1;fill-rule:nonzero;stroke:none"
               d="M 0,0 C -1.748,0.811 -3.602,1.965 -4.761,3.128 C -4.992,5.385 -5.093,8.885 -5.062,13.008 C -3.575,11.679 -0.75,9.94 0.255,9.337 C 0.433,5.819 0.304,2.713 0,0 M -0.889,-5.249 C -1.88,-6.276 -3.908,-4.011 -4.729,-2.487 L -5.002,-3.307 C -6.263,-5.828 -7.201,-5.473 -7.878,-4.678 C -8.263,-3.068 -8.586,-1.423 -8.849,0.257 C -8.02,0.707 -6.073,1.787 -5.214,2.461 C -4.112,1.289 -0.901,-0.484 -0.109,-0.912 C -0.318,-2.504 -0.587,-3.948 -0.889,-5.249 M -9.691,11.055 L -6.039,13.553 C -6.056,9.453 -5.919,5.882 -5.626,3.375 C -6.529,2.525 -8.215,1.584 -8.988,1.174 C -9.44,4.349 -9.672,7.644 -9.691,11.055 M -9.044,22.084 C -8.336,22.57 -6.471,23.884 -5.672,24.784 C -5.879,21.256 -6,17.777 -6.032,14.583 C -6.864,13.844 -8.714,12.559 -9.698,11.888 C -9.682,15.18 -9.46,18.583 -9.044,22.084 M -8.493,26.123 C -7.714,31.034 -6.703,35.226 -5.324,39.612 C -5.037,40.759 -4.087,40.898 -4.231,39.68 C -4.836,35.468 -5.292,30.736 -5.595,26.038 C -6.085,25.296 -8.126,23.726 -8.924,23.128 C -8.796,24.118 -8.653,25.116 -8.493,26.123 M -2.13,39.308 C -1.895,33.599 -1.462,27.099 -1.075,22.418 C -2.038,22.989 -3.63,24.136 -4.67,25.125 C -4.388,30.212 -3.957,35.352 -3.376,39.752 C -3.09,41.186 -2.273,40.742 -2.13,39.308 M -0.487,16.538 C -0.15,14.336 0.066,12.264 0.194,10.304 C -1.196,11.099 -3.708,12.822 -5.051,14.182 C -5.012,17.269 -4.903,20.65 -4.726,24.083 C -3.633,23.086 -1.948,21.905 -0.981,21.315 C -0.787,19.067 -0.611,17.353 -0.487,16.538 M -1.302,53.132 C -4.942,44.105 -7.893,35.143 -9.304,26.252 C -11.785,10.616 -10.472,-3.146 -5.407,-14.661 C -5.395,-14.888 -4.992,-15.263 -4.592,-15.39 C -4.114,-15.54 -4.023,-15.117 -3.71,-14.668 C -2.968,-13.609 3.441,-3.736 0.325,16.663 C -0.292,20.69 -2.116,49.601 -1.302,53.132" />
          </g>
          <g
             transform="translate(510.9424,617.80479)"
             id="g3276">
            <path
               id="path3278"
               style="fill:#fee011;fill-opacity:1;fill-rule:nonzero;stroke:none"
               d="M 0,0 C -0.033,0.783 0.15,1.075 0.223,1.161 C 1.125,1.454 1.813,0.368 2.329,-1.152 C 2.508,-2.235 2.568,-3.191 2.549,-4.034 C 1.28,-3.005 0.067,-1.614 0,0 M 13.439,57.994 L 13.439,57.868 C 13.891,57.886 14.244,58.267 14.227,58.719 C 14.209,59.172 13.828,59.525 13.376,59.508 C 5.468,59.71 -6.432,58.641 -13.495,57.121 C -13.846,60.577 -14.939,62.665 -16.182,65.032 C -16.922,66.439 -17.687,67.895 -18.376,69.826 C -19.223,72.197 -19.204,73.901 -18.323,74.624 C -17.236,75.514 -14.839,75.112 -13.282,74.178 C -13.012,74.016 -12.71,73.824 -12.39,73.62 C -9.425,71.732 -4.462,68.572 0.903,72.73 C 2.41,73.898 3.634,74.346 4.538,74.062 C 6.206,73.541 7.137,70.573 8.039,67.705 L 8.095,67.527 C 8.678,65.669 9.761,64.335 11.31,63.564 C 13.394,62.527 16.252,63.192 17.624,63.971 C 18.018,64.195 18.155,64.57 17.932,64.963 C 17.708,65.357 17.207,65.495 16.813,65.271 C 15.935,64.771 13.776,64.043 12.041,64.907 C 10.905,65.471 10.105,66.603 9.66,68.019 L 9.605,68.195 C 8.576,71.467 7.514,74.723 5.029,75.502 C 3.56,75.962 1.883,75.438 -0.102,73.9 C -4.553,70.45 -8.739,73.114 -11.509,74.878 C -11.838,75.088 -12.148,75.285 -12.439,75.458 C -14.068,76.437 -17.388,77.511 -19.362,75.892 C -20.863,74.663 -21.051,72.436 -19.921,69.274 C -19.192,67.234 -18.364,65.658 -17.635,64.269 C -15.592,60.382 -13.979,57.312 -15.856,46.449 C -18.534,30.942 -18.973,24.807 -13.394,16.857 C -12.221,15.183 -11.214,13.867 -10.325,12.706 C -7.168,8.581 -5.861,6.871 -5.477,-0.352 C -5.211,-5.345 -3.641,-8.979 -1.276,-10.072 C -0.155,-10.591 1.047,-10.461 2.023,-9.717 C 2.842,-9.093 3.426,-8.1 3.785,-6.859 C 3.894,-6.922 4.002,-6.984 4.103,-7.039 C 5.04,-7.559 6.676,-6.978 7.676,-5.77 C 8.685,-4.553 10.429,-0.998 4.858,5.686 C 3.515,7.297 2.038,8.791 0.608,10.234 C -1.01,11.867 -2.538,13.41 -3.878,15.103 C -6.409,18.301 -9.561,22.281 -8.626,32.841 L -8.074,39.228 C -7.693,43.734 -7.67,44.003 -7.28,45.565 C -6.757,47.652 -6.023,48.663 -5.668,48.713 C -5.501,48.738 -5.047,48.488 -4.408,47.399 C -3.111,45.186 -1.892,44.192 -0.783,44.444 C 0.534,44.744 0.834,46.55 0.945,47.882 C 1.342,52.657 2.097,52.899 2.129,52.907 C 2.133,52.908 2.565,52.919 3.57,51.564 C 4.862,49.818 5.707,48.759 6.748,48.958 C 7.853,49.168 8.181,50.398 9.058,53.684 L 9.259,54.436 C 9.375,54.874 9.117,55.324 8.679,55.441 C 8.242,55.559 7.792,55.173 7.675,54.736 L 7.472,53.981 C 7.076,52.493 6.698,51.081 6.419,50.557 C 5.991,50.925 5.209,51.979 4.887,52.414 C 4.137,53.427 2.988,54.731 1.68,54.358 C 0.348,53.979 -0.339,52.106 -0.691,47.893 C -0.809,46.466 -1.071,46.041 -1.157,45.936 C -1.4,46.012 -2.114,46.602 -2.993,48.102 C -3.331,48.679 -4.358,50.559 -5.902,50.337 C -7.51,50.107 -8.404,47.831 -8.871,45.962 C -9.293,44.273 -9.324,43.902 -9.708,39.366 L -10.26,32.985 C -11.253,21.775 -7.734,17.329 -5.164,14.084 C -3.767,12.32 -2.136,10.672 -0.558,9.079 C 0.848,7.661 2.3,6.193 3.598,4.636 C 6.757,0.845 7.863,-2.455 6.633,-4.419 C 6.027,-5.385 5.093,-5.636 4.868,-5.588 C 4.657,-5.471 4.403,-5.322 4.125,-5.15 C 4.26,-3.874 4.204,-2.425 3.944,-0.856 C 3.634,0.998 1.795,2.955 -0.048,2.763 C -0.767,2.689 -1.732,2.137 -1.639,-0.069 C -1.532,-2.627 0.477,-4.617 2.336,-5.932 C 2.057,-7.188 1.554,-8.012 1.029,-8.413 C 0.531,-8.792 -0.012,-8.85 -0.587,-8.584 C -1.916,-7.969 -3.564,-5.423 -3.839,-0.265 C -4.25,7.466 -5.745,9.42 -9.022,13.703 C -9.901,14.851 -10.897,16.154 -12.052,17.799 C -17.273,25.24 -16.831,31.157 -14.239,46.17 C -13.544,50.197 -13.315,53.198 -13.398,55.597 C -6.302,57.261 4.436,58.26 13.439,57.994" />
          </g>
          <g
             transform="translate(494.50639,616.0168)"
             id="g3280">
            <path
               id="path3282"
               style="fill:#e7a908;fill-opacity:1;fill-rule:nonzero;stroke:none"
               d="M 0,0 C -1.947,0.532 -2.842,3.462 -2,6.545 C -1.157,9.627 1.103,11.695 3.05,11.163 C 4.997,10.63 5.892,7.701 5.05,4.617 C 4.208,1.536 1.946,-0.532 0,0 M -7.771,16.246 C -17.477,19.116 -11.306,31.114 -6.814,29.915 C -12.693,24.583 -9.729,18.39 -7.771,16.246 M -19.118,31.966 C -15.655,33.564 -14.606,30.189 -17.887,29.232 C -27.245,26.502 -28.004,31.282 -25.816,33.334 C -31.558,36.751 -24.176,39.622 -21.032,40.579 C -17.887,41.536 -18.024,38.528 -19.801,38.118 C -21.579,37.708 -22.262,37.298 -23.766,36.888 C -24.543,36.676 -24.732,35.99 -24.454,35.395 C -21.57,35.566 -20.019,35.845 -18.392,36.846 C -17.074,37.656 -14.333,39.485 -13.103,37.571 C -11.871,35.657 -11.966,33.417 -17.025,33.691 C -20.141,33.859 -21.823,33.351 -24.129,32.299 C -24.436,30.812 -21.742,30.755 -19.118,31.966 M -30.119,38.261 C -31.169,38.066 -30.441,40.526 -30.549,41.174 C -31.738,40.936 -33.922,41.269 -34.139,41.744 C -34.407,42.331 -33.052,42.667 -30.363,42.786 C -30.58,44.084 -31.023,46.422 -30.208,47.687 C -32.251,48.397 -34.551,48.847 -32.709,50.219 C -31.133,51.392 -31.488,52.116 -31.488,52.116 C -32.495,52.923 -33.732,54.64 -31.115,55.718 C -28.5,56.798 -24.93,56.217 -23.084,54.746 C -20.928,53.028 -17.898,51.081 -15.538,51.406 C -11.746,51.93 -12.599,50.116 -14.872,49.204 C -17.53,48.136 -21.482,50.122 -22.369,50.666 C -23.254,51.21 -25.928,52.616 -26.351,51.467 C -26.775,50.319 -27.531,49.494 -26.583,48.868 C -24.606,47.564 -21.399,45.647 -19.587,44.77 C -18.262,44.128 -18.391,43.203 -20.826,42.616 C -23.613,41.944 -27.829,41.286 -27.829,41.286 C -28.135,39.747 -29.035,38.463 -30.119,38.261 M -19.445,64.577 C -17.258,66.08 -16.028,67.037 -16.028,67.037 C -14.524,67.994 -14.602,67.484 -13.567,66.764 C -12.358,65.923 -10.168,63.838 -9.413,63.083 C -8.046,61.716 -9.227,60.662 -10.255,62.032 C -12.146,64.555 -14.776,66.027 -14.776,66.027 L -16.038,65.186 C -13.988,63.409 -9.346,59.485 -7.52,56.563 C -6.994,55.722 -8.046,55.091 -8.782,56.037 C -11.308,59.284 -17.3,64.24 -17.3,64.24 L -18.562,63.399 C -17.058,61.895 -14.881,60.349 -14.04,58.982 C -13.229,57.665 -13.842,56.57 -15.016,58.078 C -16.459,59.929 -18.352,61.296 -18.352,61.296 C -19.719,62.389 -21.632,63.073 -19.445,64.577 M -29.183,4.298 C -29.349,4.334 -29.511,4.39 -29.669,4.46 C -25.6,-0.118 -31.196,-3.35 -32.976,2.5 C -33.579,-0.596 -36.736,0.488 -36.308,2.629 C -36.067,3.836 -35.992,6.062 -35.992,7.164 C -35.992,7.598 -36.622,8.559 -35.755,8.861 C -34.849,9.176 -34.296,9.254 -33.705,9.689 C -32.837,10.24 -32.429,9.408 -32.127,9.215 C -30.975,8.479 -29.685,8.047 -28.342,7.559 C -24.872,6.296 -27.132,3.865 -29.183,4.298 M 5.148,1.754 C 8.98,11.02 2.714,13.267 0.842,11.935 C -9.002,27.315 -5.255,39.239 -4.49,44.817 C -1.619,65.733 -11.072,68.562 -14.353,71.023 C -18.249,69.177 -27.682,61.508 -33.014,56.792 C -38.345,52.076 -36.705,50.19 -36.294,47.524 C -35.884,44.858 -37.524,42.356 -38.55,40.921 C -39.575,39.485 -39.945,38.522 -44.045,32.164 C -48.147,25.807 -44.292,24.229 -42.036,24.229 C -39.78,24.229 -35.525,25.012 -31.707,25.331 C -30.445,25.435 -29.126,26.662 -30.151,28.149 C -31.176,29.636 -32.474,30.499 -33.989,30.411 C -35.326,30.331 -35.813,28.674 -33.848,28.22 C -32.155,28.576 -31.925,26.292 -34.88,27.203 C -36.934,27.839 -37.659,32.166 -33.489,31.641 C -29.659,31.161 -27.816,27.959 -28.342,25.541 C -27.727,25.336 -24.881,23.643 -24.162,21.755 C -22.899,18.443 -24.7,18.685 -25.503,20.703 C -27.395,25.462 -33.648,23.695 -37.525,23.367 C -39.81,23.173 -39.271,22.882 -39.657,21.645 C -40.682,18.364 -41.318,15.144 -39.062,14.529 C -37.238,14.032 -32.994,14.877 -31.353,15.288 C -29.713,15.698 -29.918,16.928 -31.558,16.723 C -33.199,16.518 -34.019,18.159 -31.558,18.569 C -29.098,18.979 -27.662,17.748 -27.867,16.723 C -28.072,15.698 -27.457,14.877 -26.841,14.673 C -26.227,14.468 -25.736,13.022 -25.611,12.211 C -25.201,9.545 -27.457,9.957 -27.252,11.801 C -27.161,12.617 -28.482,13.852 -29.713,13.237 C -30.943,12.621 -36.93,12.006 -39.596,12.416 C -41.441,10.572 -40.321,8.71 -39.706,7.89 C -39.091,7.069 -38.795,4.224 -39.596,2.451 C -42.262,-3.455 -36.119,-5.634 -33.629,-5.792 C -24.834,-6.349 -17.906,-4.858 -11.628,-2.56 C -8.433,-1.199 -6.326,1.357 -4.49,3.805 C -5.07,1.243 -6.4,-1.098 -8.555,-2.687 C -11.574,-4.758 -16.809,-6.251 -19.977,-7.02 C -19.977,-7.02 -19.501,-10.75 -18.64,-13.33 C -17.896,-15.56 -16.523,-17.266 -15.946,-18.793 C -15.174,-20.829 -14.672,-23.044 -12.159,-22.341 C -1.965,-19.486 6.932,-15.019 11.649,-12.149 C 11.239,-11.535 6.378,-0.913 5.148,1.754" />
          </g>
          <g
             transform="translate(497.0006,625.1422)"
             id="g3284">
            <path
               id="path3286"
               style="fill:#e7a908;fill-opacity:1;fill-rule:nonzero;stroke:none"
               d="M 0,0 C -1.236,0.336 -2.434,-0.872 -2.969,-2.829 C -3.504,-4.785 -3.173,-6.751 -1.938,-7.087 C -0.702,-7.425 0.388,-5.942 0.922,-3.985 C 1.457,-2.029 1.235,-0.338 0,0" />
          </g>
          <g
             transform="translate(466.6418,668.4057)"
             id="g3288">
            <path
               id="path3290"
               style="fill:#e7a908;fill-opacity:1;fill-rule:nonzero;stroke:none"
               d="M 0,0 C -1.298,-0.217 -2.838,-0.695 -3.109,-1.073 C -3.333,-1.388 -1.41,-2.284 -0.773,-2.562 C -0.136,-2.841 -0.069,-2.193 0.209,-1.556 C 0.487,-0.919 1.298,0.217 0,0" />
          </g>
          <g
             transform="translate(540.05659,688.5518)"
             id="g3292">
            <path
               id="path3294"
               style="fill:#f57215;fill-opacity:1;fill-rule:nonzero;stroke:none"
               d="M 0,0 L -7.13,0 L -2.578,-4.931 L 0,-4.931 L 0,0 z" />
          </g>
          <g
             transform="translate(561.3011,642.6256)"
             id="g3296">
            <path
               id="path3298"
               style="fill:#f57215;fill-opacity:1;fill-rule:nonzero;stroke:none"
               d="M 0,0 C -1.763,2.963 -4.016,6.657 -6.29,10.349 L -8.216,5.136 C -5.782,0.198 -3.702,-3.252 -1.893,-5.681 L 0,0 z" />
          </g>
          <g
             transform="translate(547.9776,659.1409)"
             id="g3300">
            <path
               id="path3302"
               style="fill:#f57215;fill-opacity:1;fill-rule:nonzero;stroke:none"
               d="M 0,0 C 1.665,-4.005 3.196,-7.428 4.61,-10.359 L 6.488,-5.28 C 4.441,-1.964 2.411,1.299 0.733,3.979 L 0,0 z" />
          </g>
          <g
             transform="translate(563.17571,651.1433)"
             id="g3304">
            <path
               id="path3306"
               style="fill:#f57215;fill-opacity:1;fill-rule:nonzero;stroke:none"
               d="M 0,0 L -7.43,2.193 C -5.205,-1.417 -2.999,-5.028 -1.25,-7.964 L 4.228,-8.96 C 3.229,-5.833 1.789,-2.839 0.08,-0.007 C 0.054,-0.004 0.027,-0.007 0,0" />
          </g>
          <g
             transform="translate(572.17841,638.2766)"
             id="g3308">
            <path
               id="path3310"
               style="fill:#f57215;fill-opacity:1;fill-rule:nonzero;stroke:none"
               d="M 0,0 C -3.282,21.053 -27.205,37.185 -30.076,40.056 L -30.161,39.931 C -30.22,39.276 -30.42,38.664 -30.731,38.121 C -29.775,37.094 -28.349,35.776 -26.579,34.142 C -17.522,25.78 -0.662,10.215 -2.6,-8.245 L -2.65,-8.725 L -3.114,-8.599 C -3.482,-8.499 -3.854,-8.419 -4.248,-8.336 C -9.364,-7.239 -15.725,-5.867 -31.408,37.223 C -31.689,36.936 -32.01,36.688 -32.36,36.485 C -31.501,33.156 -30.626,30.062 -29.74,27.175 C -27.673,22.125 -26.078,17.588 -24.867,13.516 C -13.701,-13.153 -2.259,-11.868 0.411,-11.756 C -0.411,-9.843 0.703,-4.508 0,0" />
          </g>
          <g
             transform="translate(545.04269,671.8156)"
             id="g3312">
            <path
               id="path3314"
               style="fill:#f57215;fill-opacity:1;fill-rule:nonzero;stroke:none"
               d="M 0,0 C -0.926,0.856 -1.747,1.616 -2.465,2.302 C -2.751,2.541 -2.868,2.349 -2.819,2.111 C -0.965,-2.929 0.758,-7.366 2.359,-11.276 L 3.024,-7.667 C 1.297,-4.911 0.047,-2.941 -0.274,-2.46 C -0.4,-2.272 -0.348,-2.017 -0.16,-1.891 C 0.028,-1.766 0.282,-1.816 0.409,-2.005 C 0.605,-2.301 1.829,-4.233 3.582,-7.029 L 8.476,-8.225 C 5.433,-5.018 2.432,-2.246 0,0" />
          </g>
          <g
             transform="translate(549.2486,663.7896)"
             id="g3316">
            <path
               id="path3318"
               style="fill:#f57215;fill-opacity:1;fill-rule:nonzero;stroke:none"
               d="M 0,0 C 1.687,-2.694 3.759,-6.019 5.851,-9.407 L 13.375,-11.627 C 10.984,-7.857 8.147,-4.39 5.294,-1.294 L 0,0 z" />
          </g>
          <g
             transform="translate(568.10159,630.744)"
             id="g3320">
            <path
               id="path3322"
               style="fill:#f57215;fill-opacity:1;fill-rule:nonzero;stroke:none"
               d="M 0,0 C 0.24,-0.051 0.466,-0.109 0.696,-0.162 C 1.02,3.538 0.567,7.125 -0.428,10.557 L -5.621,11.502 C -4.227,9.144 -3.195,7.33 -2.797,6.475 C -2.702,6.271 -2.79,6.027 -2.995,5.93 C -3.201,5.835 -3.445,5.924 -3.541,6.129 C -3.918,6.938 -4.904,8.675 -6.246,10.948 L -8.09,5.415 C -4.578,0.991 -2.112,0.453 0,0" />
          </g>
          <g
             transform="translate(528.79269,632.8503)"
             id="g3324">
            <path
               id="path3326"
               style="fill:#007f55;fill-opacity:1;fill-rule:nonzero;stroke:none"
               d="M 0,0 C 1.343,-1.36 3.856,-3.083 5.245,-3.877 C 5.117,-1.918 4.902,0.155 4.565,2.356 C 4.44,3.172 4.264,4.885 4.07,7.134 C 3.103,7.723 1.419,8.905 0.326,9.901 C 0.148,6.469 0.04,3.087 0,0" />
          </g>
          <g
             transform="translate(528.7821,631.6763)"
             id="g3328">
            <path
               id="path3330"
               style="fill:#007f55;fill-opacity:1;fill-rule:nonzero;stroke:none"
               d="M 0,0 C -0.031,-4.123 0.07,-7.623 0.301,-9.88 C 1.46,-11.042 3.314,-12.197 5.062,-13.008 C 5.366,-10.295 5.495,-7.189 5.317,-3.671 C 4.312,-3.067 1.487,-1.328 0,0" />
          </g>
          <g
             transform="translate(530.134,604.00121)"
             id="g3332">
            <path
               id="path3334"
               style="fill:#007f55;fill-opacity:1;fill-rule:nonzero;stroke:none"
               d="M 0,0 C -0.313,-0.449 -0.404,-0.872 -0.882,-0.722 C -1.282,-0.596 -1.685,-0.22 -1.697,0.006 C -6.761,11.521 -8.075,25.284 -5.594,40.919 C -4.183,49.81 -1.232,58.772 2.409,67.8 C 1.594,64.269 3.419,35.358 4.035,31.33 C 7.151,10.932 0.742,1.058 0,0 M 4.039,69.82 C 4.241,70.473 4.394,70.942 4.513,71.279 C 4.195,71.56 3.918,71.887 3.69,72.249 C -1.485,65.193 -16.492,22.268 -1.9,-1.654 C -1.349,-2.693 -0.243,-2.824 0.262,-2.195 C 2.912,0.33 7.976,13.353 6.09,23.886 C 4.088,35.057 2.945,66.265 4.039,69.82" />
          </g>
          <g
             transform="translate(532.76891,641.0865)"
             id="g3336">
            <path
               id="path3338"
               style="fill:#007f55;fill-opacity:1;fill-rule:nonzero;stroke:none"
               d="M 0,0 C -0.387,4.681 -0.82,11.181 -1.055,16.89 C -1.198,18.324 -2.014,18.768 -2.301,17.334 C -2.882,12.935 -3.312,7.794 -3.595,2.707 C -2.555,1.718 -0.962,0.571 0,0" />
          </g>
          <g
             transform="translate(527.8054,632.22211)"
             id="g3340">
            <path
               id="path3342"
               style="fill:#007f55;fill-opacity:1;fill-rule:nonzero;stroke:none"
               d="M 0,0 L -3.652,-2.498 C -3.634,-5.91 -3.401,-9.204 -2.949,-12.379 C -2.177,-11.969 -0.49,-11.028 0.413,-10.179 C 0.119,-7.671 -0.017,-4.1 0,0" />
          </g>
          <g
             transform="translate(524.99541,618.92619)"
             id="g3344">
            <path
               id="path3346"
               style="fill:#007f55;fill-opacity:1;fill-rule:nonzero;stroke:none"
               d="M 0,0 C 0.262,-1.68 0.586,-3.325 0.971,-4.936 C 1.648,-5.731 2.586,-6.086 3.846,-3.564 L 4.12,-2.744 C 4.941,-4.268 6.969,-6.533 7.96,-5.506 C 8.261,-4.206 8.531,-2.762 8.74,-1.17 C 7.948,-0.742 4.737,1.032 3.634,2.204 C 2.776,1.53 0.828,0.45 0,0" />
          </g>
          <g
             transform="translate(528.2495,644.7063)"
             id="g3348">
            <path
               id="path3350"
               style="fill:#007f55;fill-opacity:1;fill-rule:nonzero;stroke:none"
               d="M 0,0 C 0.303,4.698 0.758,9.431 1.364,13.643 C 1.508,14.861 0.557,14.721 0.271,13.574 C -1.108,9.188 -2.119,4.996 -2.899,0.085 C -3.058,-0.921 -3.201,-1.92 -3.329,-2.909 C -2.531,-2.311 -0.491,-0.741 0,0" />
          </g>
          <g
             transform="translate(528.1721,643.45261)"
             id="g3352">
            <path
               id="path3354"
               style="fill:#007f55;fill-opacity:1;fill-rule:nonzero;stroke:none"
               d="M 0,0 C -0.799,-0.9 -2.664,-2.214 -3.372,-2.7 C -3.788,-6.201 -4.01,-9.604 -4.026,-12.896 C -3.042,-12.225 -1.192,-10.94 -0.36,-10.201 C -0.328,-7.007 -0.207,-3.528 0,0" />
          </g>
          <g
             transform="translate(537.5912,676.4427)"
             id="g3356">
            <path
               id="path3358"
               style="fill:#007f55;fill-opacity:1;fill-rule:nonzero;stroke:none"
               d="M 0,0 C -1.194,0 -2.163,0.968 -2.163,2.163 C -2.163,3.358 -1.194,4.326 0,4.326 C 1.194,4.326 2.163,3.358 2.163,2.163 C 2.163,0.968 1.194,0 0,0 M 0,5.543 C -1.866,5.543 -3.38,4.029 -3.38,2.163 C -3.38,0.297 -1.866,-1.216 0,-1.216 C 1.866,-1.216 3.379,0.297 3.379,2.163 C 3.379,4.029 1.866,5.543 0,5.543" />
          </g>
          <g
             transform="translate(546.66479,685.4415)"
             id="g3360">
            <path
               id="path3362"
               style="fill:#007f55;fill-opacity:1;fill-rule:nonzero;stroke:none"
               d="M 0,0 C -1.58,-0.663 -3.333,-1.899 -4.386,-3.308 L -3.333,-6.289 L 1.458,-5.168 L 0,0 z" />
          </g>
          <g
             transform="translate(520.8015,649.17599)"
             id="g3364">
            <path
               id="path3366"
               style="fill:#007f55;fill-opacity:1;fill-rule:nonzero;stroke:none"
               d="M 0,0 C -0.89,-3.859 -1.509,-7.082 -1.763,-8.825 C -1.766,-8.847 -1.77,-8.872 -1.773,-8.894 C -1.908,-9 -2.096,-9.169 -2.358,-9.418 C -2.676,-9.719 -3.104,-10.141 -3.706,-10.737 C -5.367,-12.38 -7.583,-14.567 -9.045,-15.629 C -9.84,-14.156 -12.579,-8.993 -12.994,-7.1 C -12.846,-6.69 -12.688,-6.278 -12.523,-5.865 C -12.388,-5.525 -12.248,-5.185 -12.102,-4.844 C -10.947,-2.133 -9.47,0.619 -7.826,3.315 C -7.517,3.82 -7.204,4.324 -6.885,4.824 C -2.126,12.284 3.737,19.15 7.447,23.232 C 4.598,17.524 2.034,8.558 0.316,1.344 C 0.208,0.889 0.102,0.44 0,0 M -13.81,-6.933 L -13.847,-7.038 L -13.826,-7.147 C -13.409,-9.374 -9.703,-16.141 -9.545,-16.429 L -9.333,-16.815 L -8.963,-16.576 C -7.456,-15.6 -4.955,-13.126 -3.13,-11.32 C -2.273,-10.473 -1.389,-9.597 -1.201,-9.485 L -1.032,-9.383 C -1.013,-9.373 -0.987,-9.177 -0.987,-9.177 C -0.265,-3.839 5.048,20.064 10.247,27.129 C 6.473,23.355 -8.928,6.734 -13.81,-6.933" />
          </g>
          <g
             transform="translate(497.9229,621.1568)"
             id="g3368">
            <path
               id="path3370"
               style="fill:#e32739;fill-opacity:1;fill-rule:nonzero;stroke:none"
               d="M 0,0 C -0.535,-1.957 -1.624,-3.439 -2.86,-3.102 C -4.096,-2.765 -4.426,-0.799 -3.891,1.156 C -3.356,3.114 -2.159,4.322 -0.922,3.985 C 0.313,3.647 0.534,1.957 0,0 M -0.366,6.023 C -2.313,6.555 -4.574,4.487 -5.416,1.405 C -6.258,-1.678 -5.363,-4.608 -3.416,-5.14 C -1.47,-5.672 0.791,-3.604 1.634,-0.523 C 2.476,2.56 1.581,5.49 -0.366,6.023" />
          </g>
          <g
             transform="translate(475.3889,647.9832)"
             id="g3372">
            <path
               id="path3374"
               style="fill:#e32739;fill-opacity:1;fill-rule:nonzero;stroke:none"
               d="M 0,0 C -2.624,-1.211 -5.319,-1.155 -5.012,0.333 C -4.903,0.86 -4.42,1.565 -3.418,2.46 C -4.409,2.395 -5.077,2.873 -5.337,3.429 C -5.614,4.024 -5.425,4.709 -4.648,4.922 C -3.145,5.332 -2.461,5.742 -0.683,6.152 C 1.093,6.562 1.23,9.57 -1.914,8.613 C -5.058,7.655 -12.441,4.785 -6.699,1.367 C -8.886,-0.684 -8.127,-5.464 1.23,-2.734 C 4.511,-1.777 3.462,1.598 0,0" />
          </g>
          <g
             transform="translate(517.9183,654.8282)"
             id="g3376">
            <path
               id="path3378"
               style="fill:#e32739;fill-opacity:1;fill-rule:nonzero;stroke:none"
               d="M 0,0 L -4.942,-2.338 C -6.587,-5.033 -8.063,-7.786 -9.219,-10.496 C -7.936,-10.044 -4.492,-8.783 -2.908,-7.733 C -2.026,-5.221 -1.03,-2.539 0,0" />
          </g>
          <g
             transform="translate(523.1981,665.0643)"
             id="g3380">
            <path
               id="path3382"
               style="fill:#e32739;fill-opacity:1;fill-rule:nonzero;stroke:none"
               d="M 0,0 C 0.384,-0.161 -0.089,-1.422 -0.404,-1.896 C -1.455,-3.471 -2.898,-6.697 -4.372,-10.388 C -4.058,-11.602 -2.66,-13.705 -2.081,-14.545 C -0.362,-7.33 2.202,1.635 5.051,7.343 C 1.341,3.262 -4.523,-3.604 -9.281,-11.064 L -4.757,-8.971 C -3.124,-5.078 -1.438,-1.676 0,0" />
          </g>
          <g
             transform="translate(519.8149,639.9991)"
             id="g3384">
            <path
               id="path3386"
               style="fill:#e32739;fill-opacity:1;fill-rule:nonzero;stroke:none"
               d="M 0,0 C 0,0 -0.026,-0.196 -0.045,-0.206 L -0.215,-0.308 C -0.402,-0.42 -1.287,-1.296 -2.143,-2.143 C -3.969,-3.949 -6.469,-6.424 -7.976,-7.399 L -8.346,-7.638 L -8.558,-7.252 C -8.716,-6.965 -12.422,-0.197 -12.84,2.029 L -12.86,2.139 L -12.823,2.243 C -7.942,15.911 7.46,32.532 11.234,36.306 C 6.034,29.24 0.722,5.337 0,0 M 13.335,38.715 C 13.094,38.747 12.733,38.624 12.171,38.187 C 10.941,37.229 -4.12,25.536 -13.53,4.019 C -14.537,1.716 -14.624,2.652 -13.667,0.054 C -12.709,-2.543 -10.112,-7.054 -9.429,-8.148 C -8.745,-9.241 -8.85,-9.663 -7.893,-8.978 C -4.476,-6.108 -1.744,-3.205 -0.65,-2.384 C 0.541,-1.492 1.45,-0.131 1.539,1.39 C 1.716,4.398 7.659,31.224 13.538,37.103 C 13.554,37.119 13.565,37.133 13.58,37.148 C 13.42,37.605 13.329,38.094 13.329,38.606 C 13.329,38.643 13.334,38.679 13.335,38.715" />
          </g>
          <g
             transform="translate(515.759,646.5099)"
             id="g3388">
            <path
               id="path3390"
               style="fill:#e32739;fill-opacity:1;fill-rule:nonzero;stroke:none"
               d="M 0,0 C 0.576,-1.934 1.937,-4.737 3.279,-6.159 C 3.533,-4.416 4.152,-1.193 5.042,2.666 C 4.469,3.557 3.089,5.75 2.591,6.961 C 1.698,4.677 0.808,2.27 0,0" />
          </g>
          <g
             transform="translate(517.09509,638.4393)"
             id="g3392">
            <path
               id="path3394"
               style="fill:#e32739;fill-opacity:1;fill-rule:nonzero;stroke:none"
               d="M 0,0 C 0.602,0.596 1.03,1.017 1.349,1.319 C 0.088,2.655 -1.245,4.818 -1.876,6.536 C -3.178,2.807 -4.188,-0.353 -4.513,-1.651 C -4.568,-1.87 -4.79,-2.003 -5.01,-1.948 C -5.23,-1.894 -5.364,-1.671 -5.309,-1.452 C -4.971,-0.103 -3.904,3.392 -2.482,7.512 C -4.051,6.476 -7.48,5.307 -8.816,4.872 C -8.981,4.458 -9.139,4.046 -9.288,3.636 C -8.872,1.744 -6.133,-3.419 -5.339,-4.892 C -3.877,-3.83 -1.66,-1.643 0,0" />
          </g>
          <g
             transform="translate(537.5912,680.7686)"
             id="g3396">
            <path
               id="path3398"
               style="fill:#e32739;fill-opacity:1;fill-rule:nonzero;stroke:none"
               d="M 0,0 C -1.194,0 -2.163,-0.968 -2.163,-2.163 C -2.163,-3.358 -1.194,-4.326 0,-4.326 C 1.194,-4.326 2.163,-3.358 2.163,-2.163 C 2.163,-0.968 1.194,0 0,0" />
          </g>
          <g
             transform="translate(466.1642,623.57539)"
             id="g3400">
            <path
               id="path3402"
               style="fill:#e32739;fill-opacity:1;fill-rule:nonzero;stroke:none"
               d="M 0,0 C -1.343,0.489 -2.633,0.92 -3.785,1.657 C -4.087,1.849 -4.495,2.682 -5.362,2.131 C -5.954,1.695 -6.507,1.617 -7.413,1.302 C -8.279,1 -7.65,0.04 -7.65,-0.395 C -7.65,-1.497 -7.725,-3.723 -7.966,-4.929 C -8.394,-7.071 -5.237,-8.154 -4.634,-5.058 C -4.57,-4.734 -4.535,-4.364 -4.535,-3.944 C -4.535,-2.987 -5.007,-0.75 -5.007,-0.75 C -5.087,-0.434 -4.791,-0.379 -4.575,-0.472 C -3.761,-0.826 -2.688,-2.509 -1.327,-3.099 C -1.168,-3.168 -1.007,-3.225 -0.841,-3.26 C 1.21,-3.693 3.47,-1.263 0,0" />
          </g>
          <g
             transform="translate(546.25909,627.4594)"
             id="g3404">
            <path
               id="path3406"
               style="fill:#1c418c;fill-opacity:1;fill-rule:nonzero;stroke:none"
               d="M 0,0 C -0.46,0.852 -1.105,3.781 -1.841,7.798 L 3.627,4.836 C 3.672,1.816 3.405,-0.642 3.008,-2.646 L 0,0 z M 1.108,-8.642 L 1.069,-8.735 C -0.06,-7.276 -1.065,-5.706 -1.969,-4.052 L -0.218,-0.9 L 2.809,-3.564 C 2.28,-5.84 1.601,-7.466 1.108,-8.642 M -5.479,4.301 L -2.67,7.785 C -1.941,3.803 -1.292,0.852 -0.793,-0.246 L -2.423,-3.18 C -3.638,-0.821 -4.643,1.697 -5.479,4.301 M -7.639,13.043 L -4.159,16.524 C -3.712,13.76 -3.277,11.159 -2.864,8.852 L -5.775,5.242 C -6.546,7.788 -7.156,10.408 -7.639,13.043 M -8.757,21.211 L -5.398,24.338 C -5.036,22.023 -4.674,19.729 -4.319,17.523 L -7.815,14.028 C -8.225,16.433 -8.533,18.843 -8.757,21.211 M -9.131,40.498 C -9.059,41.717 -8.146,41.665 -8.003,40.805 C -7.376,37.045 -6.673,32.532 -5.949,27.879 C -5.816,27.026 -5.683,26.17 -5.55,25.316 L -8.848,22.246 C -9.432,29.139 -9.342,35.616 -9.131,40.498 M -6.164,41.4 C -2.936,33.962 -0.694,27.583 0.824,22.103 L -4.7,25.198 C -4.847,26.139 -4.995,27.077 -5.139,28.005 C -5.863,32.657 -6.566,37.172 -7.193,40.94 C -7.409,41.943 -6.594,42.404 -6.164,41.4 M 1.124,20.995 C 1.786,18.498 2.296,16.194 2.676,14.069 L -3.507,17.635 C -3.85,19.77 -4.197,21.972 -4.54,24.168 L 1.124,20.995 z M 3.604,5.781 L -2.028,8.832 C -2.446,11.166 -2.887,13.807 -3.339,16.59 L 2.855,13.018 C 3.297,10.318 3.528,7.915 3.604,5.781 M 2.459,19.123 C 2.062,20.77 1.595,22.504 1.053,24.333 C -0.158,28.405 -1.754,32.942 -3.821,37.993 C -4.96,40.774 -6.241,43.71 -7.682,46.814 C -7.999,46.742 -8.329,46.7 -8.668,46.7 C -8.986,46.7 -9.297,46.735 -9.596,46.798 C -9.609,46.58 -9.624,46.354 -9.639,46.114 C -10.27,36.271 -12.191,6.314 0.856,-9.811 L 1.291,-10.347 C 1.292,-10.343 1.555,-9.705 1.555,-9.705 L 1.864,-8.96 C 3.358,-5.398 6.544,2.2 2.459,19.123" />
          </g>
          <g
             transform="translate(559.9855,618.85741)"
             id="g3408">
            <path
               id="path3410"
               style="fill:#231f20;fill-opacity:1;fill-rule:nonzero;stroke:none"
               d="M 0,0 C -1.441,0 -2.61,1.169 -2.61,2.609 C -2.61,4.05 -1.441,5.219 0,5.219 C 1.44,5.219 2.609,4.05 2.609,2.609 C 2.609,1.169 1.44,0 0,0 M 0,5.93 C -1.834,5.93 -3.321,4.444 -3.321,2.609 C -3.321,0.775 -1.834,-0.711 0,-0.711 C 1.833,-0.711 3.32,0.775 3.32,2.609 C 3.32,4.444 1.833,5.93 0,5.93" />
          </g>
        </g>
      </g>
      <g
         transform="matrix(3.9713672,0,0,3.9383213,-1710.9148,-2138.9472)"
         id="g3412">
        <g
           clip-path="url(#clipPath3416)"
           id="g3414">
          <g
             transform="translate(560.2224,621.8228)"
             id="g3420">
            <path
               id="path3422"
               style="fill:#231f20;fill-opacity:1;fill-rule:nonzero;stroke:none"
               d="M 0,0 L -0.889,0 L -0.889,0.829 L 0,0.829 C 0.228,0.829 0.414,0.643 0.414,0.414 C 0.414,0.186 0.228,0 0,0 M 1.126,0.414 C 1.126,1.036 0.622,1.541 0,1.541 L -1.602,1.542 L -1.602,-2.254 L -0.889,-2.254 L -0.889,-0.712 L -0.378,-0.712 L 0.34,-2.254 L 1.126,-2.254 L 0.377,-0.647 C 0.813,-0.491 1.126,-0.074 1.126,0.414" />
          </g>
          <g
             transform="translate(547.3116,651.79269)"
             id="g3424">
            <path
               id="path3426"
               style="fill:#231f20;fill-opacity:1;fill-rule:nonzero;stroke:none"
               d="M 0,0 C 0.543,-1.829 1.009,-3.564 1.406,-5.211 C 2.696,-8.152 4.514,-11.597 6.058,-13.889 C 7.32,-22.881 6.008,-33.473 -1.109,-40.038 C -1.519,-37.303 -3.296,-34.432 -4.526,-32.109 C -5.795,-29.711 -9.174,-24.316 -9.447,-23.632 C -9.584,-20.352 -11.088,-12.422 -11.635,-6.27 C -12.182,-0.118 -12.182,20.251 -11.771,22.302 L -10.944,22.541 C -10.846,22.513 -10.748,22.486 -10.648,22.465 C -10.35,22.401 -10.039,22.366 -9.72,22.366 C -9.381,22.366 -9.052,22.408 -8.735,22.481 C -8.291,22.581 -7.875,22.747 -7.493,22.969 C -7.143,23.172 -6.822,23.42 -6.542,23.707 C -6.28,23.975 -6.052,24.278 -5.864,24.605 C -5.554,25.148 -5.353,25.76 -5.295,26.415 L -5.21,26.54 C -2.338,23.669 21.585,7.537 24.867,-13.516 C 25.57,-18.025 24.456,-23.359 25.277,-25.272 C 22.608,-25.384 11.166,-26.669 0,0 M -16.916,-49.986 C -17.42,-50.616 -18.527,-50.485 -19.078,-49.445 C -33.669,-25.523 -18.663,17.402 -13.487,24.457 C -13.26,24.095 -12.983,23.769 -12.665,23.487 C -12.784,23.151 -12.937,22.681 -13.138,22.028 C -14.233,18.473 -13.089,-12.734 -11.088,-23.906 C -9.201,-34.439 -14.265,-47.462 -16.916,-49.986 M -28.147,-14.178 C -29.241,-14.998 -31.972,-17.901 -35.39,-20.771 C -36.347,-21.457 -36.242,-21.035 -36.925,-19.942 C -37.609,-18.847 -40.206,-14.337 -41.163,-11.74 C -42.12,-9.141 -42.033,-10.077 -41.027,-7.774 C -31.617,13.742 -16.556,25.435 -15.326,26.393 C -14.764,26.83 -14.403,26.953 -14.162,26.922 C -14.163,26.886 -14.168,26.85 -14.168,26.813 C -14.168,26.301 -14.077,25.812 -13.917,25.354 C -13.932,25.34 -13.943,25.325 -13.958,25.309 C -19.837,19.43 -25.78,-7.395 -25.958,-10.404 C -26.047,-11.924 -26.956,-13.285 -28.147,-14.178 M -28.693,-39.758 C -29.693,-40.966 -31.33,-41.547 -32.266,-41.027 C -32.367,-40.972 -32.475,-40.909 -32.584,-40.846 C -32.943,-42.088 -33.527,-43.081 -34.346,-43.705 C -35.322,-44.449 -36.524,-44.579 -37.645,-44.06 C -40.01,-42.967 -41.581,-39.333 -41.846,-34.34 C -42.231,-27.116 -43.537,-25.407 -46.694,-21.282 C -47.583,-20.121 -48.59,-18.804 -49.763,-17.131 C -55.342,-9.181 -54.903,-3.045 -52.225,12.462 C -50.349,23.324 -51.961,26.394 -54.004,30.282 C -54.734,31.671 -55.561,33.246 -56.291,35.286 C -57.42,38.448 -57.232,40.675 -55.732,41.904 C -53.758,43.523 -50.437,42.449 -48.808,41.47 C -48.517,41.297 -48.207,41.1 -47.878,40.89 C -45.109,39.127 -40.923,36.462 -36.472,39.912 C -34.487,41.45 -32.809,41.974 -31.341,41.514 C -28.856,40.735 -27.793,37.479 -26.765,34.207 L -26.709,34.031 C -26.265,32.615 -25.464,31.484 -24.328,30.919 C -22.593,30.055 -20.435,30.783 -19.556,31.283 C -19.162,31.508 -18.661,31.369 -18.437,30.976 C -18.214,30.582 -18.351,30.207 -18.745,29.983 C -20.117,29.204 -22.975,28.539 -25.059,29.576 C -26.609,30.347 -27.691,31.681 -28.275,33.539 L -28.33,33.717 C -29.232,36.586 -30.163,39.553 -31.831,40.074 C -32.736,40.358 -33.959,39.91 -35.466,38.742 C -40.831,34.584 -45.794,37.744 -48.759,39.632 C -49.079,39.836 -49.381,40.028 -49.652,40.19 C -51.208,41.124 -53.605,41.527 -54.692,40.636 C -55.574,39.913 -55.592,38.209 -54.746,35.838 C -54.056,33.907 -53.291,32.452 -52.552,31.044 C -51.309,28.677 -50.216,26.589 -49.865,23.133 C -42.801,24.654 -30.902,25.723 -22.994,25.52 C -22.541,25.537 -22.16,25.184 -22.143,24.731 C -22.125,24.279 -22.478,23.898 -22.931,23.88 L -22.931,24.006 C -31.933,24.273 -42.671,23.273 -49.768,21.609 C -49.684,19.21 -49.913,16.209 -50.609,12.182 C -53.201,-2.831 -53.642,-8.748 -48.422,-16.189 C -47.267,-17.834 -46.27,-19.137 -45.391,-20.285 C -42.114,-24.567 -40.619,-26.522 -40.208,-34.253 C -39.934,-39.411 -38.285,-41.956 -36.957,-42.572 C -36.382,-42.838 -35.839,-42.78 -35.341,-42.4 C -34.815,-42 -34.312,-41.175 -34.034,-39.92 C -35.893,-38.604 -37.902,-36.615 -38.008,-34.057 C -38.101,-31.851 -37.137,-31.299 -36.417,-31.225 C -34.574,-31.033 -32.735,-32.99 -32.425,-34.844 C -32.165,-36.413 -32.109,-37.862 -32.245,-39.138 C -31.966,-39.31 -31.712,-39.458 -31.501,-39.575 C -31.276,-39.624 -30.342,-39.373 -29.737,-38.406 C -28.507,-36.443 -29.612,-33.143 -32.772,-29.352 C -34.07,-27.795 -35.522,-26.327 -36.928,-24.909 C -38.505,-23.316 -40.136,-21.668 -41.533,-19.904 C -44.103,-16.659 -47.622,-12.213 -46.629,-1.003 L -46.077,5.378 C -45.694,9.914 -45.663,10.285 -45.24,11.974 C -44.773,13.843 -43.879,16.119 -42.271,16.349 C -40.728,16.571 -39.7,14.691 -39.363,14.115 C -38.483,12.614 -37.769,12.024 -37.526,11.948 C -37.44,12.053 -37.178,12.479 -37.06,13.905 C -36.709,18.118 -36.022,19.991 -34.689,20.371 C -33.381,20.743 -32.232,19.439 -31.482,18.426 C -31.16,17.991 -30.379,16.937 -29.95,16.569 C -29.671,17.093 -29.293,18.505 -28.897,19.993 L -28.695,20.748 C -28.578,21.185 -28.127,21.571 -27.69,21.454 C -27.253,21.336 -26.994,20.886 -27.11,20.448 L -27.312,19.696 C -28.188,16.41 -28.516,15.181 -29.622,14.97 C -30.662,14.771 -31.508,15.831 -32.799,17.576 C -33.804,18.931 -34.237,18.92 -34.24,18.919 C -34.272,18.912 -35.027,18.669 -35.425,13.894 C -35.535,12.562 -35.835,10.756 -37.152,10.456 C -38.261,10.204 -39.481,11.198 -40.778,13.411 C -41.416,14.5 -41.87,14.75 -42.038,14.726 C -42.392,14.675 -43.127,13.664 -43.649,11.577 C -44.039,10.015 -44.062,9.746 -44.443,5.24 L -44.995,-1.147 C -45.931,-11.707 -42.779,-15.687 -40.247,-18.885 C -38.907,-20.578 -37.379,-22.121 -35.761,-23.754 C -34.331,-25.197 -32.854,-26.691 -31.511,-28.302 C -25.941,-34.986 -27.685,-38.541 -28.693,-39.758 M -64.964,-58.117 C -67.477,-58.82 -67.979,-56.605 -68.751,-54.568 C -69.329,-53.042 -70.701,-51.336 -71.445,-49.106 C -72.306,-46.525 -72.782,-42.796 -72.782,-42.796 C -69.614,-42.027 -64.38,-40.534 -61.361,-38.463 C -59.205,-36.874 -57.876,-34.533 -57.295,-31.971 C -59.132,-34.419 -61.238,-36.975 -64.433,-38.336 C -70.711,-40.634 -77.639,-42.125 -86.434,-41.568 C -88.924,-41.41 -95.067,-39.231 -92.401,-33.325 C -91.601,-31.552 -91.896,-28.707 -92.512,-27.886 C -93.127,-27.066 -94.246,-25.204 -92.401,-23.359 C -89.735,-23.769 -83.748,-23.155 -82.518,-22.539 C -81.287,-21.924 -79.966,-23.159 -80.057,-23.975 C -80.262,-25.819 -78.006,-26.231 -78.417,-23.564 C -78.542,-22.754 -79.032,-21.308 -79.646,-21.103 C -80.262,-20.899 -80.878,-20.078 -80.672,-19.052 C -80.468,-18.028 -81.903,-16.797 -84.363,-17.207 C -86.825,-17.617 -86.004,-19.258 -84.363,-19.052 C -82.723,-18.847 -82.518,-20.078 -84.158,-20.488 C -85.799,-20.899 -90.044,-21.744 -91.867,-21.247 C -94.124,-20.632 -93.487,-17.412 -92.463,-14.131 C -92.076,-12.893 -92.615,-12.603 -90.33,-12.409 C -86.453,-12.081 -80.201,-10.314 -78.308,-15.073 C -77.505,-17.091 -75.705,-17.333 -76.967,-14.02 C -77.686,-12.133 -80.532,-10.439 -81.147,-10.235 C -80.621,-7.816 -82.464,-4.615 -86.294,-4.135 C -90.464,-3.61 -89.739,-7.937 -87.685,-8.573 C -84.731,-9.484 -84.96,-7.2 -86.653,-7.556 C -88.618,-7.102 -88.131,-5.445 -86.794,-5.365 C -85.279,-5.276 -83.981,-6.14 -82.956,-7.627 C -81.931,-9.114 -83.25,-10.34 -84.513,-10.445 C -88.33,-10.764 -92.586,-11.547 -94.841,-11.547 C -97.098,-11.547 -100.952,-9.968 -96.851,-3.612 C -92.75,2.746 -92.38,3.709 -91.355,5.145 C -90.329,6.58 -88.69,9.082 -89.1,11.749 C -89.51,14.414 -91.151,16.3 -85.819,21.016 C -80.487,25.732 -71.055,33.402 -67.158,35.247 C -63.877,32.786 -54.424,29.957 -57.295,9.041 C -58.061,3.463 -61.807,-8.461 -51.964,-23.84 C -50.092,-22.509 -43.825,-24.756 -47.657,-34.022 C -46.427,-36.689 -41.566,-47.311 -41.156,-47.925 C -45.874,-50.795 -54.77,-55.262 -64.964,-58.117 M -6.342,26.813 C -6.342,24.947 -7.854,23.434 -9.72,23.434 C -11.587,23.434 -13.101,24.947 -13.101,26.813 C -13.101,28.679 -11.587,30.193 -9.72,30.193 C -7.854,30.193 -6.342,28.679 -6.342,26.813 M -7.255,36.759 L -7.255,31.828 L -9.833,31.828 L -14.385,36.759 L -7.255,36.759 z M -0.647,33.649 L 0.811,28.48 L -3.98,27.359 L -5.033,30.341 C -3.98,31.75 -2.226,32.986 -0.647,33.649 M 26.06,-21.75 C 28.664,1.686 5.982,18.376 -2.583,25.805 L 2.993,27.045 L 0.122,36.519 C 0.122,36.519 -3.568,34.058 -5.414,32.828 L -5.414,38.569 L -16.283,38.569 C -16.283,38.569 -20.179,42.056 -26.946,47.182 C -33.714,52.309 -45.709,49.391 -48.232,49.286 C -49.705,49.18 -52.685,50.116 -58.222,49.706 C -67.65,49.008 -69.537,41.199 -67.897,37.508 C -74.254,33.202 -92.881,19.72 -91.856,15.208 C -91.168,12.183 -90.72,9.656 -92.361,7.811 C -92.97,7.125 -93.796,4.53 -98.718,-2.648 C -104.578,-11.194 -97.556,-13.873 -94.727,-13.831 C -94.727,-13.831 -94.608,-14.651 -94.821,-15.157 C -95.505,-16.769 -95.847,-21.103 -95.027,-22.128 C -94.841,-22.36 -94.711,-22.483 -94.621,-22.548 C -94.677,-22.573 -94.746,-22.63 -94.821,-22.744 C -95.232,-23.359 -96.767,-24.858 -95.027,-27.46 C -92.956,-30.556 -95.042,-32.082 -95.248,-33.928 C -96.798,-47.882 -78.556,-42.825 -75.074,-43.23 C -74.887,-44.82 -74.475,-47.467 -73.547,-49.965 C -72.441,-52.944 -70.868,-54.366 -70.405,-56.358 C -69.845,-58.772 -68.581,-61.264 -66.112,-60.682 C -56.474,-58.406 -44.376,-52.888 -38.635,-49.196 C -36.584,-50.223 -28.587,-51.043 -24.485,-50.633 C -20.384,-50.223 -19.418,-52.615 -17.307,-52.273 C -16.596,-51.798 -16.155,-50.607 -15.553,-49.873 C -11.046,-44.389 -9.072,-31.442 -9.679,-25.371 C -7.289,-29.924 -2.267,-37.127 -1.847,-41.597 C 6.161,-38.163 9.006,-22.36 7.214,-15.607 C 13.982,-25.019 20.144,-26.961 26.705,-26.325 C 26.6,-26.065 25.9,-23.174 26.06,-21.75" />
          </g>
        </g>
      </g>
      <g
         transform="matrix(3.9713672,0,0,3.9383213,-1710.9148,-2138.9472)"
         id="g3428">
        <g
           clip-path="url(#clipPath3432)"
           id="g3430">
          <g
             transform="translate(511.16541,618.9659)"
             id="g3436">
            <path
               id="path3438"
               style="fill:#231f20;fill-opacity:1;fill-rule:nonzero;stroke:none"
               d="M 0,0 C -0.073,-0.087 -0.256,-0.378 -0.223,-1.161 C -0.156,-2.775 1.057,-4.166 2.326,-5.195 C 2.345,-4.352 2.285,-3.396 2.106,-2.313 C 1.59,-0.793 0.902,0.293 0,0" />
          </g>
          <g
             transform="translate(486.7356,632.2623)"
             id="g3440">
            <path
               id="path3442"
               style="fill:#231f20;fill-opacity:1;fill-rule:nonzero;stroke:none"
               d="M 0,0 C -1.958,2.144 -4.922,8.338 0.957,13.67 C -3.535,14.869 -9.707,2.87 0,0" />
          </g>
          <g
             transform="translate(476.15421,677.3123)"
             id="g3444">
            <path
               id="path3446"
               style="fill:#231f20;fill-opacity:1;fill-rule:nonzero;stroke:none"
               d="M 0,0 C 0,0 1.893,-1.367 3.336,-3.218 C 4.51,-4.725 5.123,-3.631 4.312,-2.313 C 3.471,-0.946 1.294,0.599 -0.21,2.103 L 1.052,2.944 C 1.052,2.944 7.044,-2.011 9.57,-5.258 C 10.306,-6.204 11.358,-5.573 10.832,-4.732 C 9.006,-1.811 4.364,2.114 2.314,3.891 L 3.576,4.732 C 3.576,4.732 6.206,3.26 8.098,0.736 C 9.125,-0.633 10.306,0.42 8.939,1.788 C 8.184,2.543 5.994,4.627 4.785,5.468 C 3.751,6.188 3.828,6.698 2.324,5.742 C 2.324,5.742 1.094,4.785 -1.093,3.281 C -3.28,1.777 -1.367,1.094 0,0" />
          </g>
          <g
             transform="translate(472.6335,660.42329)"
             id="g3448">
            <path
               id="path3450"
               style="fill:#231f20;fill-opacity:1;fill-rule:nonzero;stroke:none"
               d="M 0,0 C 1.094,-0.547 1.094,-0.41 -0.137,-0.82 C -1.367,-1.23 -5.448,-1.667 -5.448,-1.667 C -5.311,-1.12 -5.311,-0.137 -5.448,0.274 C -5.584,0.684 -5.311,1.893 -5.311,1.893 C -5.311,1.893 -1.094,0.547 0,0 M -6.765,5.42 C -7.401,5.698 -9.325,6.594 -9.101,6.909 C -8.83,7.288 -7.29,7.765 -5.992,7.982 C -4.694,8.199 -5.504,7.063 -5.783,6.427 C -6.061,5.79 -6.128,5.142 -6.765,5.42 M 6.335,7 C 3.975,6.674 0.945,8.621 -1.211,10.339 C -3.057,11.81 -6.627,12.391 -9.243,11.312 C -11.859,10.233 -10.622,8.516 -9.615,7.709 C -9.615,7.709 -9.26,6.986 -10.836,5.812 C -12.678,4.441 -10.378,3.991 -8.335,3.281 C -9.15,2.015 -8.707,-0.322 -8.49,-1.62 C -11.179,-1.739 -12.534,-2.076 -12.266,-2.662 C -12.05,-3.137 -9.865,-3.47 -8.676,-3.232 C -8.568,-3.881 -9.296,-6.34 -8.246,-6.146 C -7.162,-5.944 -6.263,-4.659 -5.956,-3.12 C -5.956,-3.12 -1.741,-2.462 1.047,-1.79 C 3.482,-1.204 3.611,-0.278 2.286,0.363 C 0.474,1.24 -2.733,3.157 -4.71,4.462 C -5.658,5.087 -4.902,5.912 -4.479,7.061 C -4.055,8.209 -1.381,6.804 -0.496,6.259 C 0.391,5.715 4.343,3.73 7.001,4.798 C 9.274,5.71 10.127,7.523 6.335,7" />
          </g>
        </g>
      </g>
    </g>
  </g>
</svg>
