<svg xmlns="http://www.w3.org/2000/svg" width="640" height="480"><defs><clipPath id="c"><path d="M444.343 591.026H576V702H444.343V591.026z"/></clipPath><clipPath id="b"><path d="M446.326 591.026h127.69V702h-127.69V591.026z"/></clipPath><clipPath id="a"><path d="M444.343 591.026H576V702H444.343V591.026z"/></clipPath></defs><g clip-path="url(#a)" transform="matrix(3.97355 0 0 -4.09707 -1708.37 2889.372)"><path d="M472.497 659.604c1.23.41 1.23.273.137.82-1.094.547-5.311 1.893-5.311 1.893s-.273-1.21-.137-1.62c.137-.41.137-1.394 0-1.94 0 0 4.08.436 5.31.847M476.114 652.862c-1.626-1-3.178-1.279-6.062-1.45.26-.557.928-1.034 1.919-.969-1.002-.895-1.485-1.6-1.594-2.128 2.307 1.052 3.988 1.56 7.105 1.392 5.058-.274 5.153 1.967 3.922 3.881-1.23 1.913-3.972.085-5.29-.726M518.441 656.093L513.917 654a88 88 0 0 1-.941-1.509l4.942 2.337a176.353 176.353 0 0 1-2.908-7.733c-1.584-1.05-5.028-2.31-6.311-2.763a45.817 45.817 0 0 1-.42-1.021c1.336.435 4.765 1.605 6.334 2.641-1.422-4.121-2.489-7.616-2.827-8.964a.41.41 0 0 1 .796-.199c.325 1.298 1.335 4.457 2.637 8.186.631-1.718 1.964-3.881 3.225-5.217.262.249.45.418.584.524l.01.069c-1.342 1.422-2.703 4.225-3.279 6.159.808 2.27 1.698 4.677 2.591 6.961.497-1.211 1.878-3.404 2.451-4.295l.316 1.344c-.579.839-1.977 2.942-2.291 4.157 1.474 3.69 2.917 6.916 3.968 8.491.315.474.788 1.735.404 1.896-1.438-1.676-3.124-5.078-4.757-8.971M568.797 630.582c-.23.053-.456.111-.696.162-2.11.453-4.578.99-8.09 5.415l1.844 5.533c1.342-2.274 2.328-4.01 2.706-4.82a.41.41 0 0 1 .743.347c-.398.854-1.429 2.67-2.824 5.027l5.193-.945c.996-3.433 1.448-7.019 1.124-10.719m-15.712 17.18l1.926 5.212a832.308 832.308 0 0 0 6.29-10.349l-1.893-5.68c-1.81 2.428-3.889 5.878-6.323 10.817m-5.108 11.38l.734 3.978a1860.88 1860.88 0 0 0 5.754-9.259l-1.878-5.079c-1.414 2.93-2.944 6.354-4.61 10.36m-5.754 14.784c-.048.24.068.431.354.191.718-.685 1.54-1.446 2.465-2.302 2.432-2.246 5.433-5.017 8.477-8.225l-4.895 1.196a523.426 523.426 0 0 1-3.173 5.024.41.41 0 1 1-.683-.454c.321-.482 1.571-2.452 3.298-5.208l-.665-3.609a402.493 402.493 0 0 0-5.178 13.387m20.4-21.763l-7.523 2.22a1819.583 1819.583 0 0 1-5.852 9.406l5.294-1.294c2.854-3.095 5.691-6.563 8.081-10.332m.632-1.026c1.71-2.833 3.15-5.827 4.148-8.953l-5.477.996a831.045 831.045 0 0 1-6.18 10.156l7.43-2.193c.026-.007.053-.004.08-.006m-17.657 21.281c-1.77 1.634-3.196 2.952-4.152 3.98a4.518 4.518 0 0 0-.677-.899c15.683-43.09 22.044-44.462 27.16-45.558.394-.084.766-.164 1.134-.263l.464-.127.05.48c1.938 18.46-14.922 34.025-23.979 42.387M461.59 623.103c-.217.094-.512.038-.433-.277 0 0 .473-2.237.473-3.195 0-.42-.036-.789-.1-1.114 1.78-5.85 7.376-2.619 3.308 1.96-1.362.59-2.435 2.272-3.248 2.626" fill="#fff"/><path d="M545.466 627.213c-.499 1.098-1.148 4.05-1.877 8.031l-2.809-3.483c.836-2.605 1.841-5.123 3.056-7.482l1.63 2.934zM542.92 644.05c.452-2.783.894-5.425 1.312-7.758l5.63-3.051c-.075 2.134-.306 4.536-.748 7.236l-6.193 3.573zM537.503 648.67c.223-2.368.53-4.778.942-7.182l3.495 3.494c-.354 2.206-.716 4.5-1.078 6.815l-3.36-3.127zM539.818 674.761a4.418 4.418 0 0 0-1.24-.488 209.845 209.845 0 0 0 3.86-8.82 213.31 213.31 0 0 0-2.62 9.308M539.066 668.399c.628-3.768 1.33-8.283 2.055-12.935.144-.928.29-1.866.438-2.807l5.525-3.094c-1.52 5.479-3.761 11.858-6.988 19.296-.431 1.004-1.246.543-1.03-.46M541.72 651.627c.342-2.196.69-4.398 1.032-6.533l6.183-3.566a86.497 86.497 0 0 1-1.552 6.926l-5.664 3.173zM540.71 652.776l-.4 2.563c-.724 4.653-1.427 9.165-2.054 12.925-.143.86-1.056.913-1.128-.306-.21-4.883-.302-11.36.283-18.252l3.298 3.07zM543.395 636.311a471.615 471.615 0 0 0-1.295 7.672l-3.48-3.482a71.327 71.327 0 0 1 1.864-7.8l2.911 3.61z" fill="#fee011"/><path d="M553.37 637.903c-1.545 2.293-3.363 5.738-4.652 8.68 4.084-16.924.9-24.522-.595-28.084l-.309-.745-.265-.642-.434.537c-13.047 16.124-11.126 46.081-10.495 55.924l.043.685c-.1.021-.198.047-.296.075l-.827-.239c-.41-2.05-.41-22.42.136-28.572.547-6.152 2.052-14.08 2.188-17.36.274-.686 3.652-6.08 4.921-8.478 1.23-2.323 3.008-5.194 3.418-7.929 7.116 6.565 8.428 17.156 7.166 26.148" fill="#fee011"/><path d="M549.886 632.296l-5.468 2.962c.736-4.018 1.381-6.946 1.841-7.798l3.008-2.646c.397 2.004.664 4.462.62 7.482M547.367 618.818c.493 1.175 1.172 2.802 1.702 5.078l-3.028 2.664-1.751-3.152a35.388 35.388 0 0 1 3.038-4.684l.039.094zM533.844 618.669c-1.748.81-3.602 1.965-4.76 3.128-.232 2.257-.333 5.757-.302 9.88 1.487-1.33 4.312-3.068 5.317-3.671.178-3.518.05-6.624-.255-9.337m-.889-5.25c-.99-1.026-3.019 1.239-3.84 2.763l-.273-.82c-1.26-2.521-2.199-2.166-2.876-1.371a63.32 63.32 0 0 0-.97 4.935c.828.45 2.775 1.53 3.634 2.204 1.102-1.172 4.313-2.945 5.105-3.373a45.182 45.182 0 0 0-.78-4.337m-8.802 16.304l3.652 2.498c-.017-4.1.12-7.671.413-10.178-.903-.85-2.589-1.791-3.362-2.201a72.972 72.972 0 0 0-.703 9.88m.647 11.03c.708.486 2.573 1.8 3.372 2.7a212.82 212.82 0 0 1-.36-10.201c-.832-.74-2.682-2.024-3.666-2.695.016 3.292.238 6.695.654 10.196m.551 4.039a90.98 90.98 0 0 0 3.17 13.489c.286 1.147 1.236 1.286 1.092.068-.605-4.212-1.06-8.944-1.364-13.642-.49-.742-2.53-2.312-3.329-2.91.128.99.271 1.988.431 2.995m6.363 13.185c.235-5.71.668-12.21 1.055-16.89-.963.57-2.555 1.718-3.595 2.707.282 5.087.713 10.227 1.294 14.627.286 1.434 1.103.99 1.246-.444m1.643-22.77c.337-2.202.553-4.274.681-6.234-1.39.795-3.902 2.518-5.245 3.878.04 3.087.148 6.468.325 9.9 1.093-.996 2.778-2.177 3.745-2.767.194-2.248.37-3.962.494-4.777m-.815 36.594c-3.64-9.027-6.59-17.99-8.002-26.88-2.48-15.636-1.168-29.398 3.897-40.913.012-.227.415-.602.815-.73.478-.15.57.274.882.723.742 1.059 7.151 10.932 4.035 31.33-.617 4.028-2.44 32.939-1.627 36.47" fill="#fee011"/><path d="M510.942 617.805c-.033.783.15 1.075.223 1.16.902.294 1.59-.792 2.106-2.312a15.51 15.51 0 0 0 .22-2.882c-1.269 1.029-2.482 2.42-2.549 4.034m13.44 57.994v-.126a.822.822 0 0 1-.064 1.64c-7.908.202-19.808-.867-26.87-2.387-.352 3.456-1.445 5.544-2.688 7.91-.74 1.408-1.505 2.864-2.194 4.795-.847 2.37-.828 4.075.053 4.798 1.087.89 3.484.488 5.041-.446.27-.162.572-.354.892-.558 2.965-1.888 7.928-5.048 13.293-.89 1.507 1.168 2.731 1.616 3.635 1.332 1.668-.521 2.6-3.49 3.501-6.357l.056-.178c.583-1.858 1.666-3.192 3.215-3.963 2.084-1.037 4.942-.372 6.314.407.394.224.531.599.308.992a.82.82 0 0 1-1.119.308c-.878-.5-3.037-1.228-4.772-.364-1.136.564-1.936 1.696-2.38 3.112l-.056.176c-1.029 3.272-2.09 6.528-4.576 7.307-1.469.46-3.146-.064-5.13-1.602-4.452-3.45-8.638-.786-11.408.978-.329.21-.639.407-.93.58-1.629.979-4.949 2.053-6.923.434-1.5-1.23-1.689-3.456-.559-6.618.73-2.04 1.557-3.616 2.286-5.005 2.043-3.887 3.656-6.957 1.78-17.82-2.679-15.507-3.118-21.642 2.461-29.592 1.173-1.674 2.18-2.99 3.07-4.151 3.156-4.125 4.463-5.835 4.847-13.058.266-4.993 1.836-8.627 4.201-9.72 1.121-.52 2.323-.39 3.3.355.818.624 1.402 1.617 1.761 2.858.11-.063.217-.125.318-.18.937-.52 2.573.06 3.573 1.269 1.01 1.217 2.753 4.772-2.818 11.456-1.343 1.61-2.82 3.105-4.25 4.548-1.618 1.633-3.146 3.176-4.486 4.869-2.53 3.198-5.683 7.178-4.748 17.738l.552 6.387c.381 4.506.404 4.775.794 6.337.523 2.087 1.257 3.098 1.612 3.148.167.025.621-.225 1.26-1.314 1.297-2.213 2.516-3.207 3.625-2.955 1.317.3 1.617 2.106 1.728 3.438.397 4.775 1.152 5.017 1.184 5.025.004 0 .436.012 1.441-1.343 1.292-1.746 2.137-2.805 3.178-2.606 1.105.21 1.433 1.44 2.31 4.726l.201.752a.821.821 0 0 1-.58 1.005c-.437.118-.887-.268-1.004-.705l-.203-.755c-.396-1.488-.774-2.9-1.053-3.424-.428.368-1.21 1.422-1.532 1.857-.75 1.013-1.899 2.317-3.207 1.944-1.332-.38-2.019-2.252-2.37-6.465-.119-1.427-.38-1.852-.467-1.957-.243.076-.957.666-1.836 2.166-.338.577-1.365 2.457-2.909 2.235-1.608-.23-2.502-2.506-2.969-4.375-.422-1.69-.453-2.06-.837-6.596l-.552-6.381c-.993-11.21 2.526-15.656 5.096-18.901 1.397-1.764 3.028-3.412 4.606-5.005 1.406-1.418 2.858-2.886 4.156-4.443 3.16-3.791 4.265-7.091 3.035-9.055-.606-.966-1.54-1.217-1.765-1.17-.21.118-.465.267-.743.439.135 1.276.08 2.725-.18 4.294-.31 1.854-2.15 3.81-3.993 3.619-.719-.074-1.684-.626-1.59-2.832.106-2.558 2.115-4.548 3.974-5.863-.279-1.256-.782-2.08-1.307-2.481-.498-.38-1.04-.437-1.616-.171-1.329.615-2.977 3.16-3.252 8.319-.41 7.73-1.906 9.685-5.183 13.968a116.635 116.635 0 0 0-3.03 4.096c-5.22 7.44-4.779 13.358-2.187 28.37.695 4.028.924 7.029.841 9.428 7.096 1.664 17.834 2.663 26.837 2.397" fill="#fee011"/><path d="M494.506 616.017c-1.947.532-2.842 3.462-2 6.545.843 3.082 3.103 5.15 5.05 4.618 1.947-.533 2.842-3.462 2-6.546-.842-3.081-3.104-5.15-5.05-4.617m-7.77 16.246c-9.707 2.87-3.536 14.868.956 13.669-5.879-5.332-2.915-11.525-.957-13.67m-11.347 15.72c3.463 1.599 4.512-1.776 1.231-2.733-9.358-2.73-10.117 2.05-7.929 4.102-5.742 3.417 1.64 6.288 4.784 7.245 3.145.957 3.008-2.051 1.231-2.461-1.778-.41-2.46-.82-3.965-1.23-.777-.212-.966-.898-.688-1.493 2.884.17 4.435.45 6.062 1.45 1.318.81 4.06 2.64 5.29.726 1.231-1.914 1.136-4.154-3.923-3.88-3.116.168-4.798-.34-7.104-1.392-.307-1.487 2.387-1.544 5.011-.333m-11 6.295c-1.05-.195-.323 2.265-.43 2.913-1.19-.238-3.374.095-3.59.57-.269.587 1.086.923 3.775 1.042-.217 1.298-.66 3.636.155 4.9-2.043.71-4.343 1.16-2.5 2.533 1.575 1.173 1.22 1.897 1.22 1.897-1.007.807-2.244 2.524.373 3.602 2.615 1.08 6.185.499 8.031-.972 2.156-1.718 5.186-3.665 7.546-3.34 3.792.524 2.94-1.29.666-2.202-2.658-1.068-6.61.918-7.497 1.462-.885.544-3.559 1.95-3.982.8-.424-1.147-1.18-1.972-.232-2.598 1.977-1.304 5.184-3.221 6.996-4.098 1.325-.642 1.196-1.567-1.239-2.154-2.787-.672-7.003-1.33-7.003-1.33-.306-1.54-1.206-2.823-2.29-3.025m10.674 26.316c2.187 1.503 3.417 2.46 3.417 2.46 1.504.957 1.426.447 2.461-.273 1.21-.841 3.4-2.926 4.154-3.681 1.367-1.367.186-2.421-.842-1.051-1.89 2.523-4.52 3.995-4.52 3.995l-1.263-.841c2.05-1.777 6.692-5.701 8.518-8.623.526-.841-.526-1.472-1.262-.526-2.526 3.247-8.518 8.203-8.518 8.203l-1.262-.841c1.504-1.504 3.681-3.05 4.522-4.417.811-1.317.198-2.412-.976-.904-1.443 1.85-3.336 3.218-3.336 3.218-1.367 1.093-3.28 1.777-1.093 3.28m-9.738-60.278a2.521 2.521 0 0 0-.486.162c4.07-4.578-1.527-7.81-3.307-1.96-.603-3.096-3.76-2.012-3.332.129.241 1.207.316 3.433.316 4.535 0 .434-.63 1.395.237 1.697.906.315 1.46.393 2.05.828.868.55 1.276-.281 1.578-.474 1.152-.736 2.442-1.168 3.785-1.656 3.47-1.263 1.21-3.694-.84-3.261m34.33-2.544c3.832 9.266-2.434 11.513-4.306 10.18-9.844 15.38-6.097 27.305-5.332 32.883 2.871 20.916-6.582 23.745-9.863 26.206-3.896-1.846-13.329-9.515-18.66-14.231-5.332-4.716-3.692-6.602-3.28-9.268.41-2.666-1.23-5.168-2.257-6.603-1.025-1.436-1.395-2.4-5.495-8.757-4.102-6.357-.247-7.935 2.01-7.935 2.255 0 6.51.783 10.328 1.102 1.262.104 2.581 1.33 1.556 2.818-1.025 1.487-2.323 2.35-3.838 2.262-1.337-.08-1.824-1.737.141-2.191 1.693.356 1.923-1.928-1.032-1.017-2.054.636-2.779 4.963 1.391 4.438 3.83-.48 5.673-3.682 5.147-6.1.615-.205 3.461-1.898 4.18-3.786 1.263-3.312-.538-3.07-1.34-1.052-1.893 4.759-8.146 2.992-12.023 2.664-2.285-.194-1.746-.485-2.132-1.722-1.025-3.281-1.66-6.501.595-7.116 1.824-.497 6.068.348 7.71.759 1.64.41 1.434 1.64-.206 1.435-1.64-.205-2.46 1.436 0 1.846 2.46.41 3.896-.821 3.691-1.846-.205-1.025.41-1.846 1.026-2.05.614-.205 1.105-1.651 1.23-2.462.41-2.666-1.846-2.254-1.64-.41.09.816-1.23 2.05-2.462 1.436-1.23-.616-7.217-1.231-9.883-.821-1.845-1.844-.725-3.706-.11-4.526.615-.821.911-3.666.11-5.44-2.666-5.905 3.477-8.084 5.967-8.242 8.795-.557 15.723.934 22.001 3.232 3.195 1.36 5.302 3.917 7.138 6.365-.58-2.562-1.91-4.903-4.065-6.492-3.019-2.071-8.254-3.564-11.422-4.333 0 0 .476-3.73 1.337-6.31.744-2.23 2.117-3.936 2.694-5.463.772-2.036 1.274-4.251 3.787-3.548 10.194 2.855 19.091 7.322 23.808 10.192-.41.614-5.27 11.236-6.5 13.903" fill="#e7a908"/><path d="M497 625.142c-1.235.336-2.433-.872-2.968-2.829-.535-1.956-.204-3.922 1.03-4.258 1.237-.338 2.327 1.145 2.86 3.102.536 1.956.314 3.647-.921 3.985M466.642 668.406c-1.298-.217-2.838-.695-3.11-1.073-.223-.315 1.7-1.211 2.337-1.49.637-.278.704.37.982 1.007.278.637 1.089 1.773-.21 1.556" fill="#e7a908"/><path d="M540.057 688.552h-7.13l4.552-4.931h2.578v4.93zM561.301 642.626a839.75 839.75 0 0 1-6.29 10.349l-1.926-5.213c2.434-4.938 4.514-8.388 6.323-10.817l1.893 5.68zM547.978 659.14c1.665-4.004 3.196-7.427 4.61-10.358l1.878 5.079a1768.352 1768.352 0 0 1-5.755 9.259l-.733-3.98zM563.176 651.143l-7.43 2.193a834.63 834.63 0 0 0 6.18-10.157l5.478-.996c-1 3.127-2.44 6.121-4.148 8.953-.026.003-.053 0-.08.007" fill="#f57215"/><path d="M572.178 638.277c-3.282 21.053-27.205 37.185-30.076 40.056l-.085-.125a4.431 4.431 0 0 0-.57-1.81c.956-1.027 2.382-2.345 4.152-3.98 9.057-8.361 25.917-23.926 23.98-42.386l-.05-.48-.465.126c-.368.1-.74.18-1.134.263-5.116 1.097-11.477 2.469-27.16 45.559a4.471 4.471 0 0 0-.952-.738 213.767 213.767 0 0 1 2.62-9.31c2.067-5.05 3.662-9.587 4.873-13.66 11.166-26.668 22.608-25.383 25.278-25.271-.822 1.913.292 7.248-.41 11.756" fill="#f57215"/><path d="M545.043 671.816c-.926.856-1.747 1.616-2.465 2.302-.286.239-.403.047-.354-.191a398.612 398.612 0 0 1 5.178-13.387l.665 3.609c-1.727 2.756-2.977 4.726-3.298 5.207a.41.41 0 0 0 .683.455 547.27 547.27 0 0 0 3.173-5.024l4.894-1.196c-3.043 3.207-6.044 5.979-8.476 8.225" fill="#f57215"/><path d="M549.249 663.79c1.687-2.694 3.759-6.02 5.85-9.407l7.525-2.22c-2.391 3.77-5.228 7.237-8.081 10.333l-5.294 1.294zM568.102 630.744c.24-.051.466-.109.696-.162.324 3.7-.13 7.287-1.124 10.719l-5.193.945c1.394-2.358 2.426-4.172 2.824-5.027a.412.412 0 0 0-.198-.545.412.412 0 0 0-.546.199c-.377.809-1.363 2.546-2.705 4.819l-1.844-5.533c3.512-4.424 5.978-4.962 8.09-5.415" fill="#f57215"/><path d="M528.793 632.85c1.343-1.36 3.856-3.083 5.245-3.877a72.154 72.154 0 0 1-.68 6.233c-.125.816-.301 2.53-.495 4.778-.967.59-2.651 1.771-3.744 2.767a258.29 258.29 0 0 1-.326-9.9M528.782 631.676c-.03-4.123.07-7.623.301-9.88 1.16-1.162 3.013-2.317 4.761-3.128.304 2.713.433 5.82.255 9.337-1.005.604-3.83 2.343-5.317 3.671" fill="#007f55"/><path d="M530.134 604.001c-.313-.449-.404-.872-.882-.722-.4.126-.803.502-.815.728-5.064 11.515-6.378 25.278-3.897 40.913 1.411 8.891 4.362 17.853 8.003 26.881-.815-3.53 1.01-32.442 1.626-36.47 3.116-20.398-3.293-30.272-4.035-31.33m4.039 69.82c.202.653.355 1.122.474 1.46a4.48 4.48 0 0 0-.823.97c-5.175-7.057-20.182-49.982-5.59-73.904.551-1.039 1.657-1.17 2.162-.54 2.65 2.524 7.714 15.547 5.828 26.08-2.002 11.171-3.145 42.38-2.051 45.934" fill="#007f55"/><path d="M532.769 641.087a441.522 441.522 0 0 0-1.055 16.89c-.143 1.434-.96 1.878-1.246.444-.581-4.4-1.011-9.54-1.294-14.628 1.04-.989 2.633-2.136 3.595-2.707M527.805 632.222l-3.652-2.498c.018-3.412.251-6.706.703-9.88.772.41 2.46 1.35 3.362 2.2-.294 2.507-.43 6.078-.413 10.178M524.995 618.926c.262-1.68.586-3.325.971-4.936.677-.795 1.615-1.15 2.875 1.372l.274.82c.821-1.524 2.85-3.789 3.84-2.762.301 1.3.571 2.744.78 4.336-.792.428-4.003 2.202-5.106 3.374-.858-.674-2.806-1.754-3.634-2.204M528.25 644.706c.303 4.698.758 9.431 1.364 13.643.144 1.218-.807 1.078-1.093-.069a91.105 91.105 0 0 1-3.17-13.489 107.884 107.884 0 0 1-.43-2.994c.798.598 2.838 2.168 3.329 2.91M528.172 643.453c-.799-.9-2.664-2.214-3.372-2.7a90.236 90.236 0 0 1-.654-10.196c.984.67 2.834 1.956 3.666 2.695.032 3.194.153 6.673.36 10.2M537.591 676.443a2.163 2.163 0 1 0 0 4.326 2.163 2.163 0 0 0 0-4.326m0 5.543a3.38 3.38 0 1 1 0-6.758 3.38 3.38 0 0 1 0 6.758M546.665 685.442c-1.58-.663-3.333-1.9-4.386-3.308l1.053-2.981 4.79 1.12-1.457 5.168zM520.802 649.176c-.89-3.859-1.51-7.082-1.763-8.825l-.01-.069a9.133 9.133 0 0 1-.585-.524 94.383 94.383 0 0 1-1.348-1.319c-1.661-1.643-3.877-3.83-5.34-4.892-.794 1.473-3.533 6.636-3.948 8.529a41.537 41.537 0 0 0 .892 2.256c1.154 2.711 2.631 5.463 4.275 8.159.31.505.622 1.009.941 1.509 4.76 7.46 10.622 14.326 14.332 18.408-2.849-5.708-5.413-14.674-7.13-21.888-.108-.455-.214-.904-.316-1.344m-13.81-6.933l-.037-.105.02-.109c.418-2.227 4.124-8.994 4.282-9.282l.212-.386.37.239c1.507.976 4.008 3.45 5.833 5.256.857.847 1.74 1.723 1.929 1.835l.169.102c.019.01.045.206.045.206.721 5.338 6.034 29.241 11.233 36.306-3.774-3.774-19.175-20.395-24.057-34.062" fill="#007f55"/><path d="M497.923 621.157c-.535-1.957-1.624-3.44-2.86-3.102-1.236.337-1.566 2.303-1.031 4.258.535 1.958 1.732 3.166 2.969 2.829 1.235-.338 1.456-2.028.922-3.985m-.366 6.023c-1.947.532-4.208-1.536-5.05-4.618-.842-3.083.053-6.013 2-6.545 1.946-.532 4.207 1.536 5.05 4.617.842 3.083-.053 6.013-2 6.546M475.389 647.983c-2.624-1.21-5.32-1.155-5.012.333.109.527.592 1.232 1.594 2.127-.991-.065-1.66.413-1.92.97-.276.594-.087 1.28.69 1.492 1.503.41 2.187.82 3.965 1.23 1.776.41 1.913 3.418-1.231 2.461-3.144-.958-10.527-3.828-4.785-7.246-2.187-2.05-1.428-6.83 7.929-4.1 3.28.956 2.232 4.331-1.23 2.733M517.918 654.828l-4.942-2.338c-1.645-2.695-3.12-5.448-4.277-8.158 1.283.452 4.727 1.713 6.311 2.763a176.353 176.353 0 0 0 2.908 7.733" fill="#e32739"/><path d="M523.198 665.064c.384-.16-.089-1.422-.404-1.896-1.05-1.575-2.494-4.8-3.968-8.492.314-1.214 1.712-3.317 2.291-4.157 1.72 7.215 4.283 16.18 7.132 21.888-3.71-4.08-9.574-10.947-14.332-18.407l4.524 2.093c1.633 3.893 3.32 7.295 4.757 8.971" fill="#e32739"/><path d="M519.815 640s-.026-.197-.045-.207l-.17-.102c-.187-.112-1.072-.988-1.928-1.835-1.826-1.806-4.326-4.28-5.833-5.256l-.37-.239-.212.386c-.158.287-3.864 7.055-4.282 9.281l-.02.11.037.104c4.88 13.668 20.283 30.29 24.057 34.063-5.2-7.066-10.512-30.969-11.234-36.306m13.335 38.715c-.241.032-.602-.09-1.164-.528-1.23-.958-16.291-12.65-25.701-34.168-1.007-2.303-1.094-1.367-.137-3.965.958-2.597 3.555-7.108 4.238-8.202.684-1.093.579-1.515 1.536-.83 3.417 2.87 6.149 5.773 7.243 6.594 1.19.892 2.1 2.253 2.189 3.774.177 3.008 6.12 29.834 11.999 35.713l.042.045c-.16.457-.251.946-.251 1.458 0 .037.005.073.006.11" fill="#e32739"/><path d="M515.759 646.51c.576-1.934 1.937-4.737 3.279-6.16.254 1.744.873 4.967 1.763 8.826-.573.89-1.953 3.084-2.451 4.295a245.936 245.936 0 0 1-2.591-6.961M517.095 638.44c.602.595 1.03 1.016 1.35 1.318-1.262 1.336-2.595 3.5-3.226 5.217-1.302-3.729-2.312-6.889-2.637-8.187a.41.41 0 0 0-.796.2c.338 1.348 1.405 4.843 2.827 8.963-1.569-1.036-4.998-2.205-6.334-2.64a43.158 43.158 0 0 1-.472-1.236c.416-1.892 3.155-7.055 3.95-8.528 1.461 1.062 3.678 3.25 5.338 4.892M537.591 680.769a2.163 2.163 0 1 1 0-4.327 2.163 2.163 0 0 1 0 4.327M466.164 623.575c-1.343.49-2.633.92-3.785 1.657-.302.192-.71 1.025-1.577.474-.592-.436-1.145-.514-2.05-.829-.867-.302-.238-1.262-.238-1.697 0-1.102-.075-3.328-.316-4.534-.428-2.142 2.73-3.225 3.332-.129.064.324.1.694.1 1.114 0 .957-.473 3.194-.473 3.194-.08.316.216.371.432.278.814-.354 1.887-2.037 3.248-2.627a2.54 2.54 0 0 1 .486-.16c2.051-.434 4.311 1.996.841 3.26" fill="#e32739"/><path d="M546.26 627.46c-.46.851-1.106 3.78-1.842 7.797l5.468-2.962c.045-3.02-.222-5.478-.619-7.482l-3.008 2.646zm1.107-8.643l-.039-.093a35.277 35.277 0 0 0-3.038 4.683l1.751 3.152 3.027-2.664c-.529-2.276-1.208-3.902-1.7-5.078m-6.588 12.943l2.81 3.484c.728-3.982 1.377-6.933 1.876-8.03l-1.63-2.935c-1.215 2.36-2.22 4.877-3.056 7.481m-2.16 8.742l3.48 3.481c.447-2.764.882-5.365 1.295-7.672l-2.91-3.61a71.344 71.344 0 0 0-1.865 7.801m-1.118 8.168l3.36 3.127c.361-2.315.723-4.609 1.078-6.815l-3.496-3.495a97.431 97.431 0 0 0-.942 7.183m-.374 19.287c.072 1.22.985 1.167 1.128.307.627-3.76 1.33-8.273 2.054-12.926l.4-2.563-3.299-3.07c-.584 6.893-.494 13.37-.283 18.252m2.967.902c3.228-7.438 5.47-13.817 6.988-19.297l-5.524 3.095-.439 2.807c-.724 4.652-1.427 9.167-2.054 12.935-.216 1.003.6 1.464 1.03.46m7.287-20.405a86.497 86.497 0 0 0 1.552-6.926l-6.183 3.566c-.343 2.135-.69 4.337-1.033 6.533l5.664-3.173zm2.48-15.214l-5.632 3.051a498.859 498.859 0 0 0-1.31 7.758l6.193-3.572c.442-2.7.673-5.103.75-7.237m-1.146 13.342a104.783 104.783 0 0 1-1.406 5.21c-1.21 4.072-2.807 8.61-4.874 13.66a209.845 209.845 0 0 1-3.86 8.821 4.448 4.448 0 0 0-.987-.114c-.318 0-.629.035-.928.098l-.043-.684c-.63-9.843-2.552-39.8 10.495-55.925l.435-.536.264.642.31.745c1.493 3.562 4.68 11.16.594 28.083" fill="#1c418c"/><path d="M559.986 618.857a2.61 2.61 0 1 0 0 5.221 2.61 2.61 0 0 0 0-5.22m0 5.93a3.32 3.32 0 1 1-.001-6.642 3.32 3.32 0 0 1 0 6.641" fill="#231f20"/></g><g clip-path="url(#b)" transform="matrix(3.97355 0 0 -4.09707 -1708.37 2889.372)"><path d="M560.222 621.823h-.889v.829h.89a.415.415 0 0 0 0-.83m1.125.415c0 .622-.504 1.127-1.126 1.127h-1.602v-3.795h.713v1.542h.511l.718-1.542h.786l-.749 1.607c.436.156.75.573.75 1.06" fill="#231f20"/><path d="M547.312 651.793a103.727 103.727 0 0 0 1.406-5.211c1.29-2.941 3.108-6.386 4.652-8.678 1.262-8.992-.05-19.584-7.167-26.15-.41 2.736-2.187 5.607-3.417 7.93-1.27 2.398-4.648 7.793-4.921 8.477-.137 3.28-1.641 11.21-2.188 17.362-.547 6.152-.547 26.52-.136 28.572l.827.239a4.279 4.279 0 0 1 1.224-.175c.339 0 .668.042.985.115a4.44 4.44 0 0 1 2.871 2.124 4.43 4.43 0 0 1 .569 1.81l.085.125c2.872-2.871 26.795-19.003 30.077-40.056.703-4.51-.411-9.843.41-11.756-2.67-.112-14.111-1.397-25.277 25.272m-16.916-49.986c-.504-.63-1.611-.5-2.162.54-14.591 23.923.415 66.848 5.59 73.903a4.47 4.47 0 0 1 .823-.97 38.678 38.678 0 0 1-.473-1.46c-1.095-3.554.049-34.761 2.05-45.933 1.887-10.533-3.177-23.556-5.828-26.08m-11.231 35.808c-1.094-.82-3.825-3.723-7.243-6.593-.957-.686-.852-.264-1.535.829-.684 1.095-3.281 5.605-4.238 8.202-.957 2.599-.87 1.663.136 3.966 9.41 21.516 24.47 33.209 25.7 34.167.563.437.924.56 1.165.529-.001-.036-.006-.072-.006-.11 0-.511.09-1 .25-1.458-.014-.014-.025-.03-.04-.045-5.88-5.88-11.822-32.704-12-35.713-.09-1.52-.998-2.881-2.19-3.774m-.545-25.58c-1-1.208-2.637-1.79-3.573-1.27-.101.056-.21.119-.318.182-.36-1.242-.943-2.235-1.762-2.86-.976-.743-2.178-.873-3.3-.354-2.364 1.093-3.935 4.727-4.2 9.72-.385 7.224-1.691 8.933-4.848 13.058a116.035 116.035 0 0 0-3.07 4.15c-5.578 7.95-5.14 14.087-2.461 29.594 1.876 10.862.264 13.932-1.78 17.82-.73 1.389-1.556 2.964-2.286 5.004-1.13 3.162-.941 5.389.559 6.618 1.974 1.619 5.295.545 6.924-.434.29-.173.6-.37.93-.58 2.769-1.763 6.955-4.428 11.406-.978 1.985 1.538 3.663 2.062 5.13 1.602 2.486-.78 3.549-4.035 4.577-7.307l.056-.176c.444-1.416 1.245-2.547 2.38-3.112 1.736-.864 3.894-.136 4.773.364a.82.82 0 0 0 1.119-.307c.223-.394.086-.77-.308-.993-1.372-.78-4.23-1.444-6.314-.407-1.55.77-2.632 2.105-3.216 3.963l-.055.178c-.902 2.869-1.833 5.836-3.501 6.357-.905.284-2.128-.164-3.635-1.332-5.365-4.158-10.328-.998-13.293.89-.32.204-.622.396-.893.558-1.556.934-3.953 1.337-5.04.446-.882-.723-.9-2.427-.054-4.798.69-1.931 1.455-3.386 2.194-4.794 1.243-2.367 2.336-4.455 2.687-7.911 7.064 1.52 18.963 2.59 26.87 2.387a.82.82 0 0 0 .064-1.64v.126c-9.002.267-19.74-.733-26.837-2.397.084-2.4-.145-5.4-.841-9.427-2.592-15.013-3.033-20.93 2.187-28.371a116.522 116.522 0 0 1 3.03-4.096c3.278-4.282 4.773-6.237 5.184-13.968.274-5.158 1.923-7.703 3.25-8.32.576-.265 1.119-.207 1.617.173.526.4 1.029 1.225 1.307 2.48-1.86 1.316-3.868 3.305-3.974 5.863-.093 2.206.87 2.758 1.59 2.832 1.844.192 3.683-1.765 3.993-3.62.26-1.568.316-3.017.18-4.293.279-.172.533-.32.744-.437.225-.05 1.159.202 1.764 1.169 1.23 1.963.125 5.263-3.035 9.054-1.298 1.557-2.75 3.025-4.156 4.443-1.577 1.593-3.208 3.24-4.605 5.005-2.57 3.245-6.09 7.69-5.096 18.9l.552 6.382c.383 4.536.414 4.907.837 6.596.467 1.869 1.36 4.145 2.969 4.375 1.543.222 2.57-1.658 2.908-2.234.88-1.501 1.594-2.091 1.837-2.167.086.105.348.53.466 1.957.35 4.213 1.038 6.086 2.37 6.466 1.309.372 2.458-.932 3.208-1.945.322-.435 1.103-1.49 1.532-1.857.279.524.657 1.936 1.053 3.424l.202.755c.117.437.568.823 1.005.706a.823.823 0 0 0 .58-1.006l-.202-.752c-.876-3.286-1.204-4.515-2.31-4.726-1.04-.2-1.886.86-3.177 2.606-1.005 1.355-1.438 1.344-1.441 1.343-.032-.007-.787-.25-1.185-5.025-.11-1.332-.41-3.138-1.727-3.438-1.11-.252-2.33.742-3.626 2.955-.638 1.089-1.092 1.339-1.26 1.315-.354-.051-1.09-1.062-1.611-3.15-.39-1.561-.413-1.83-.794-6.336l-.552-6.387c-.936-10.56 2.216-14.54 4.748-17.738 1.34-1.693 2.868-3.236 4.486-4.87 1.43-1.442 2.907-2.936 4.25-4.547 5.57-6.684 3.826-10.24 2.818-11.456m-36.271-18.36c-2.513-.702-3.015 1.513-3.787 3.55-.578 1.526-1.95 3.232-2.694 5.462-.861 2.58-1.337 6.31-1.337 6.31 3.168.769 8.402 2.262 11.42 4.333 2.157 1.589 3.486 3.93 4.067 6.492-1.837-2.448-3.943-5.004-7.138-6.365-6.278-2.298-13.206-3.79-22.001-3.232-2.49.158-8.633 2.337-5.967 8.243.8 1.773.505 4.618-.111 5.439-.615.82-1.734 2.682.11 4.527 2.667-.41 8.654.204 9.884.82 1.23.615 2.552-.62 2.46-1.436-.204-1.844 2.052-2.256 1.64.41-.124.81-.614 2.257-1.228 2.462-.616.204-1.232 1.025-1.026 2.05.204 1.025-1.231 2.256-3.691 1.846-2.462-.41-1.641-2.051 0-1.845 1.64.205 1.845-1.026.205-1.436-1.641-.411-5.886-1.256-7.71-.76-2.256.616-1.62 3.836-.595 7.117.387 1.238-.152 1.528 2.133 1.722 3.877.328 10.129 2.095 12.022-2.664.803-2.018 2.603-2.26 1.34 1.053-.718 1.887-3.564 3.58-4.18 3.785.527 2.419-1.316 5.62-5.146 6.1-4.17.525-3.445-3.802-1.391-4.438 2.954-.911 2.725 1.373 1.032 1.017-1.965.454-1.478 2.11-.141 2.19 1.515.09 2.813-.774 3.838-2.261s-.294-2.713-1.557-2.818c-3.817-.32-8.073-1.102-10.328-1.102-2.257 0-6.111 1.579-2.01 7.935 4.1 6.358 4.47 7.32 5.496 8.757 1.026 1.435 2.665 3.937 2.255 6.604-.41 2.665-2.051 4.55 3.28 9.267 5.333 4.716 14.765 12.386 18.662 14.23 3.28-2.46 12.734-5.29 9.863-26.205-.766-5.578-4.512-17.502 5.33-32.881 1.873 1.33 8.14-.916 4.308-10.182 1.23-2.667 6.09-13.29 6.5-13.903-4.717-2.87-13.613-7.337-23.807-10.192m58.622 84.93a3.38 3.38 0 1 0-6.757.003 3.38 3.38 0 0 0 6.757-.003m-.913 9.946v-4.931h-2.578l-4.552 4.93h7.13zm6.608-3.11l1.458-5.17-4.791-1.12-1.053 2.982c1.053 1.409 2.807 2.645 4.386 3.308m26.707-55.4c2.604 23.437-20.078 40.127-28.643 47.556l5.576 1.24-2.871 9.474-5.536-3.691v5.74h-10.87s-3.895 3.488-10.662 8.614c-6.768 5.127-18.763 2.209-21.286 2.104-1.473-.106-4.453.83-9.99.42-9.428-.698-11.315-8.507-9.675-12.198-6.357-4.306-24.984-17.788-23.96-22.3.689-3.025 1.137-5.552-.504-7.397-.61-.686-1.435-3.281-6.357-10.46-5.86-8.545 1.162-11.224 3.99-11.182 0 0 .12-.82-.093-1.326-.684-1.612-1.026-5.946-.206-6.971.186-.232.316-.355.406-.42a.509.509 0 0 1-.2-.196c-.411-.615-1.946-2.114-.206-4.716 2.07-3.096-.015-4.622-.221-6.468-1.55-13.954 16.692-8.897 20.174-9.302.187-1.59.599-4.237 1.527-6.735 1.106-2.98 2.679-4.401 3.142-6.393.56-2.414 1.824-4.906 4.293-4.324 9.638 2.276 21.736 7.794 27.477 11.486 2.05-1.027 10.048-1.847 14.15-1.437 4.1.41 5.067-1.982 7.178-1.64.71.475 1.152 1.666 1.754 2.4 4.507 5.484 6.48 18.43 5.874 24.502 2.39-4.553 7.412-11.756 7.832-16.226 8.008 3.434 10.853 19.237 9.06 25.99 6.769-9.412 12.93-11.354 19.492-10.718-.105.26-.805 3.15-.645 4.575" fill="#231f20"/></g><g clip-path="url(#c)" transform="matrix(3.97355 0 0 -4.09707 -1708.37 2889.372)"><path d="M511.165 618.966c-.073-.087-.256-.378-.223-1.161.067-1.614 1.28-3.005 2.55-4.034a15.51 15.51 0 0 1-.22 2.882c-.517 1.52-1.205 2.606-2.107 2.313M486.736 632.262c-1.958 2.144-4.922 8.338.957 13.67-4.492 1.2-10.664-10.8-.957-13.67M476.154 677.312s1.893-1.367 3.336-3.218c1.174-1.507 1.787-.413.976.905-.84 1.367-3.018 2.912-4.522 4.416l1.262.841s5.992-4.955 8.518-8.202c.736-.946 1.788-.315 1.262.526-1.826 2.921-6.468 6.846-8.518 8.623l1.262.841s2.63-1.472 4.522-3.996c1.027-1.369 2.208-.316.841 1.052-.755.755-2.945 2.84-4.154 3.68-1.034.72-.957 1.23-2.46.274 0 0-1.23-.957-3.418-2.46-2.187-1.505-.274-2.188 1.093-3.282M472.634 660.423c1.094-.547 1.094-.41-.137-.82-1.23-.41-5.311-.847-5.311-.847.137.547.137 1.53 0 1.941-.136.41.137 1.62.137 1.62s4.217-1.347 5.31-1.894m-6.764 5.42c-.636.278-2.56 1.174-2.336 1.49.27.378 1.81.855 3.109 1.072 1.298.217.488-.919.209-1.555-.278-.637-.345-1.285-.982-1.007m13.1 1.58c-2.36-.326-5.39 1.621-7.546 3.34-1.846 1.47-5.416 2.051-8.032.972-2.616-1.079-1.38-2.796-.372-3.603 0 0 .355-.723-1.221-1.897-1.842-1.37.458-1.82 2.5-2.53-.814-1.267-.371-3.604-.154-4.902-2.69-.119-4.044-.456-3.776-1.042.216-.475 2.4-.808 3.59-.57.108-.649-.62-3.108.43-2.914 1.084.202 1.983 1.487 2.29 3.026 0 0 4.215.658 7.003 1.33 2.435.586 2.564 1.512 1.239 2.153-1.812.877-5.02 2.794-6.996 4.1-.948.624-.192 1.45.23 2.598.425 1.148 3.099-.257 3.984-.802.887-.544 4.839-2.529 7.497-1.46 2.273.911 3.126 2.724-.666 2.201" fill="#231f20"/></g></svg>