<svg xmlns="http://www.w3.org/2000/svg" width="243.823" height="200" viewBox="0 0 243.823 200" overflow="visible"><path fill="#005488" d="M241.666 145.178c-.521-1.235-6.977-15.327-11.821-20.304-6.28-9.035-6.518-8.703-6.28-9.035 10.762-15.168 14.942-31.06 10.402-45.404-7.73-24.423-38.719-37.976-77.896-37.55a30.817 30.817 0 0 0-5.205-6.28c-5.228-4.857-11.444-7.423-16.719-7.423L122.31 0 95.412 43.593C34.176 64.164-6.178 108.127 4.839 142.954c2.877 9.088 15.369 22.155 15.369 22.155L0 198.975c49.707-6.006 91.221-8.191 91.221-8.191l2.696-10.762c14.632-1.11 30.142-4.067 45.837-9.035a214.141 214.141 0 0 0 12.55-4.405c1.933 6.185 4.208 13.391 4.663 14.453 7.535 17.803 32.609 24.209 55.999 14.31 23.388-9.902 36.239-32.363 28.7-50.167z"/><path fill="#A7B1B7" d="M157.44 154.759c-26.22-12.29-47.521-3.277-53.259-2.46a120.197 120.197 0 0 1-4.462 1.683c-1.05.382-2.098.75-3.124 1.087-28.512 9.386-48.065 3.833-57.813-8.902a30.149 30.149 0 0 1-1.798-2.637c-11.985-19.38-4.067-52.198 26.269-76.322-56.029 42.473-31.039 76.646-28.717 79.358.096.165.198.32.295.489-15.595 25.525-27.256 44.852-28.153 47.031 33.594-3.685 81.527-7.37 81.527-7.37L98.55 157.31c22.171-8.906 47.145-8.835 69.542 5.639-.001.001-.818-4.501-10.652-8.19z"/><path fill="#FFF" d="M219.278 111.186c1.661.56 7.356-14.763 6.992-22.933-1.149-25.924-31.143-45.742-67.457-44.958-.37 3.519-1.036 6.531-1.896 8.68l31.443 48.99c.001-.001 17.015.942 30.918 10.221zM32.384 142.767C15.82 116.586 38.612 79.003 83.88 54.133c-112.319 50.238-56.783 96.732-56.783 96.732l5.559-7.685c-.092-.137-.185-.271-.272-.413zM98.507 168.042l2.866-7.374c35.643-11.881 47.935-2.456 47.935-2.456-25.4 9.83-50.801 9.83-50.801 9.83z"/><path fill="none" d="M112.748 114.298c8.791-3.076 17.351-7.09 26.18-10.411l-.007.062c.537-.223 1.074-.439 1.614-.662 7.114-2.592 11.474-4.326 11.474-4.326s12.199-3.567 18.705-4.158c-11.467 0-31.496 5.765-31.496 5.765s-3.918 1.495-6.267 2.413c-1.046.404-10.168-23.847-10.168-23.847s-9.568 27.172-11.399 32.665c-.142.421-6.422 2.464-6.422 2.464s-14.749 6.553-20.483 7.375c3.703 0 8.582-1.172 12.816-2.46 5.328-1.293 10.184-3.707 15.453-4.88z"/><path fill="#A7B1B7" d="M63.252 67.208a195.662 195.662 0 0 1 10.616-7.498 114.125 114.125 0 0 0-10.616 7.498z"/><path fill="none" d="M116.276 109.269s9.306-4.236 11.86-4.521l-5.156-14.963-6.704 19.484z"/><path fill="none" d="M112.748 114.298c8.791-3.076 17.351-7.09 26.18-10.411l-.007.062c.537-.223 1.074-.439 1.614-.662 7.114-2.592 11.474-4.326 11.474-4.326s12.199-3.567 18.705-4.158c-11.467 0-31.496 5.765-31.496 5.765s-3.918 1.495-6.267 2.413c-1.046.404-10.168-23.847-10.168-23.847s-9.568 27.172-11.399 32.665c-.142.421-6.422 2.464-6.422 2.464s-14.749 6.553-20.483 7.375c3.703 0 8.582-1.172 12.816-2.46 5.328-1.293 10.184-3.707 15.453-4.88z"/><path fill="#FFF" d="M77.961 62.988C41.91 83.474 39.45 121.984 39.45 121.984s2.46-.822 2.46 0c-.296 6.495.69 11.281 2.488 14.914l11.583-19.141c-5.628-10.416-5.089-28.45 21.98-54.769z"/><path fill="#8B2942" d="M36.604 149.773l-25.012 41.308 74.836-6.824 8.957-25.715c-7.5 2.548-42.866 13.084-58.781-8.769z"/><path fill="none" d="M96.595 155.069l2.351-6.752c-12.926 3.432-25.835 5.386-39.828-.111-5.769-2.1-11.525-4.871-14.72-11.308l-5.617 9.27c9.749 12.734 29.302 18.288 57.814 8.901zM122.98 89.785l-6.704 19.483s9.306-4.236 11.86-4.521l-5.156-14.962z"/><path d="M240.636 166.724c-7.403 19.581-43.458 40.07-69.448 26.369-6.785-3.92-10.061-9.244-15.145-20.379 20.244 23.012 61.888-8.649 61.888-8.649s6.877-1.736 6.877-7.016c3.521-2.632 5.28-6.148 7.917-9.665 2.632 5.275 7.911 19.34 7.911 19.34z"/><path fill="none" d="M116.276 109.269s9.306-4.236 11.86-4.521l-5.156-14.963-6.704 19.484z"/><path fill="#A7B1B7" d="M139.219 100.569s-3.918 1.495-6.267 2.413c-1.046.404-10.168-23.847-10.168-23.847s-9.568 27.172-11.399 32.665c-.142.421-6.422 2.464-6.422 2.464s-14.749 6.553-20.483 7.375c3.703 0 8.582-1.172 12.816-2.46 5.327-1.292 10.183-3.707 15.453-4.879 8.791-3.076 17.351-7.09 26.18-10.411l-.007.062c.537-.223 1.074-.439 1.614-.662 7.114-2.592 11.474-4.326 11.474-4.326s12.199-3.567 18.705-4.158c-11.468-.001-31.496 5.764-31.496 5.764zm-22.943 8.7l6.704-19.483 5.156 14.963c-2.554.283-11.86 4.52-11.86 4.52z"/><path fill="none" d="M132.952 102.981c-1.046.404-10.168-23.847-10.168-23.847s-9.568 27.172-11.399 32.665c-.142.421-6.422 2.464-6.422 2.464s-14.749 6.553-20.483 7.375c3.703 0 8.582-1.172 12.816-2.46 5.327-1.292 10.183-3.707 15.453-4.879 8.791-3.076 17.351-7.09 26.18-10.411l-.007.062c.537-.223 1.074-.439 1.614-.662 7.114-2.592 11.474-4.326 11.474-4.326s12.199-3.567 18.705-4.158c-11.467 0-31.496 5.765-31.496 5.765s-3.919 1.494-6.267 2.412z"/><path fill="#A7B1B7" d="M183.251 100.683L122.207 5.221s-61.452 100.921-61.428 99.621c-1.196 2.717-1.705 5.261-1.554 7.566l2.897-4.792 60.256-97.613 56.913 88.438c.741 1.113 1.273 2.032 1.625 2.788 5.407.361 2.335-.546 2.335-.546z"/><path fill="#8B2942" d="M179.291 98.44l-56.913-88.438-60.256 97.613-2.897 4.792c.952 14.541 28.442 19.366 77.76-4.045 8.514-4.036 19.933-6.735 35.237-7.207 2.231-.069 4.537-.094 6.931-.065.674.061 1.256.104 1.762.138-.351-.756-.884-1.675-1.624-2.788zm-27.282.522s-4.36 1.734-11.474 4.326c-.54.222-1.077.439-1.614.662l.007-.062c-8.83 3.32-17.389 7.334-26.18 10.411-5.27 1.172-10.125 3.587-15.453 4.879-4.234 1.288-9.113 2.46-12.816 2.46 5.734-.821 20.483-7.375 20.483-7.375s6.28-2.043 6.422-2.464c1.831-5.492 11.399-32.665 11.399-32.665s9.122 24.251 10.168 23.847c2.349-.918 6.267-2.413 6.267-2.413s20.028-5.765 31.496-5.765c-6.506.592-18.705 4.159-18.705 4.159z"/><path fill="#FFF" d="M154.689 49.249c5.619-30.506-31.366-28.184-31.366-28.184l-1.527 7.599-5.665 2.173-4.352 13.34-3.718 2.339-6.61 11.353s41.484-30.87 53.238-8.62z"/><path fill="#005488" d="M119.751 35.676l-1.094 3.279s20.214-7.102 31.681-1.094c0 0-4.913-8.194-30.587-2.185z"/><path fill="#A7B1B7" d="M109.919 49.88l1.637-3.688c30.319-16.39 39.739-4.917 39.739-4.917-16.388-8.194-41.376 8.605-41.376 8.605z"/><path fill="#FFF" d="M212.338 112.971c-21.362-10.323-42.154-8.831-55.72-5.826-9.586 2.127-15.564 5.004-15.564 5.004-38.101 15.979-56.129 18.848-69.648 14.749-.819.822-.819 1.639-2.458 1.639-3.34-.635-9.394-4.174-12.967-10.781l-11.583 19.141c3.195 6.438 8.951 9.208 14.72 11.308 13.992 5.497 26.902 3.543 39.828.111 18.865-4.999 37.769-13.143 60.129-5.848 13.936 4.916 35.237 17.614 35.237 27.86-21.302 11.06-34.411-.821-36.052-2.459 7.375 11.473 24.171 11.059 35.23 4.915l6.073-3.015-2.792-5.999 1.639-1.639 4.912 4.093-3.277-9.83c0-.817 9.016 8.196 9.016 8.196 2.46 0-8.197-14.75-8.197-14.75s-4.093 2.456-5.735 3.276c-4.915-9.012-20.076-16.796-22.94-18.025-5.736-2.46-24.99-8.197-43.427-5.737 11.881-4.506 22.124-5.736 31.954-4.914 24.582 1.638 37.695 19.664 37.695 19.664l4.093-3.277s17.208 18.025 19.666 29.498v-24.583c.819-.817.819-.817 1.639-1.638 1.64.821 3.279 4.098 3.279 4.098l.821-10.655c6.553 6.558 10.649 15.569 12.29 24.583.819-19.661-11.471-38.508-27.861-49.159z"/><path fill="#005488" d="M193.491 107.647s21.779 14.186 22.359 18.358l-3.996 4.773-1.343 6.447-3.971-4.657s-1.321.208-1.987 1.092c-4.917-6.558-13.114-10.651-20.482-14.75-17.208-5.735-36.054-5.735-53.258 0-18.028 8.192-36.055 16.388-55.721 16.388-24.186-2.096-24.766-19.038-24.908-28.992l2.787-15.869s-21.307 40.968 9.833 48.138c22.939 4.099 44.244-5.731 63.91-14.749 10.242-3.894 43.427-15.362 71.285 9.834 2.457.821 3.277 3.276 5.733 4.914.82-.816 3.276-1.638 3.276-1.638l5.739 6.558s.821-6.558 1.641-9.834c.821-.817 1.636-1.639 1.636-1.639l2.458-4.098v-1.638-1.639c-8.055-12.221-24.991-16.999-24.991-16.999z"/><path fill="#A7B1B7" d="M200.324 180.98l-1.64 3.277c-24.038 8.467-34.143-1.092-35.233-2.73 17.478 8.738 36.873-.547 36.873-.547z"/><path fill="#A7B1B7" d="M218.619 181.251l-.546 3.006c-35.503 19.664-49.709 3.547-49.709 3.547s18.301 12.295 50.255-6.553z"/></svg>