<svg xmlns="http://www.w3.org/2000/svg" width="200.225" height="125.388" viewBox="0 0 200.225 125.388" overflow="visible"><path fill="#D4A129" d="M23.06 49.158l30.69 26.731-30.095 49.499 57.221-30.69 35.442 30.294-5.345-46.135 57.023-29.5zM72.164 45.595l33.982-.216L100.676.45z"/><path fill="#015837" d="M100.084 56.882h35.242l-33.659 17.819 3.959 29.7-23.759-19.8s-34.058 17.819-34.058 17.422c.794-.791 17.03-28.116 17.03-28.116l-19.8-17.422h29.305L95.33 22.823l4.754 34.059z"/><path fill="#D4A129" stroke="#C99F32" stroke-width=".225" d="M10.55 33.989c-.583 1.81-.439 5.247 8.607 5.231 4.902-.01 10.636-.791 11.871-4.229.911-2.534-2.574-3.209-7.528-4.012l-5.025-.803c-7.57-1.206-14.88-2.369-12.311-9.519 1.303-3.622 6.566-10.008 22.655-10.036 15.192-.031 16.923 6.48 15.561 10.461l-9.945.019c.247-1.447.653-4.885-8.393-4.869-3.936.01-8.972.966-10.031 3.91-.911 2.531 2.072 3.072 4.028 3.384l11.384 1.922c6.376 1.075 11.939 2.872 9.841 8.712C37.751 43.933 22.25 44.82 17.9 44.83-.192 44.861-.84 38.033.606 34.007l9.944-.018zM124.59 26.198l3.236-9.065 13.374-.022c6.293-.013 6.565 2.628 5.923 4.422-1.197 3.353-4.367 4.631-9.945 4.641l-12.588.024zm-17.284 18.991l10.511-.019 4.734-13.262 11.086-.022c7.938-.013 7.727 1.778 6.073 6.403-1.245 3.494-1.44 5.238-1.298 6.844l11.872-.021.32-.897c-2.086-.563-1.648-1.791.121-6.747 2.258-6.325.34-7.356-3.439-8.578 5.481-1.141 9.486-4.353 10.818-8.084 1.044-2.925.917-9.578-12.742-9.55l-25.959.05-12.097 33.883zM165.906 34.623c-.583 1.81-.436 5.247 8.609 5.228 4.901-.009 10.634-.787 11.87-4.228.913-2.534-2.572-3.206-7.528-4.009l-5.021-.806c-7.574-1.207-14.884-2.369-12.314-9.519 1.303-3.619 6.565-10.003 22.654-10.035 15.192-.028 16.923 6.481 15.561 10.462l-9.944.019c.244-1.447.651-4.884-8.392-4.869-3.938.009-8.975.965-10.033 3.906-.911 2.534 2.072 3.075 4.026 3.387l11.386 1.922c6.376 1.075 11.942 2.872 9.84 8.709-3.513 9.775-19.016 10.663-23.364 10.668-18.092.035-18.741-6.793-17.294-10.818l9.944-.017zM88.607 10.622l-40.326.071-2.067 5.749h.186l-.581 1.616 14.806-.029-9.616 27.06 10.358-.019 9.614-27.056 15.164-.028 2.066-5.747h-.186z"/><path fill="#015837" stroke="#007A41" stroke-width=".45" d="M19.947 1.859h3.006c1.337 0 3.414.181 3.006 2.418-.225 1.244-1.319 2.541-3.866 2.541h-3.048l.902-4.959zm-4.209 6.266h6.494c4.948 0 6.648-2.341 6.943-3.966.261-1.434-.389-3.606-5.44-3.606h-6.619l-1.378 7.572zM54.558 2.262h.041l1.314 2.994H52.09l2.468-2.994zm-3.541 4.303h5.534l.675 1.56h3.403L56.725.553h-3.611l-6.723 7.572h3.297l1.329-1.56zM82.762 6.756h7.453l-.249 1.369H79.379L80.757.553h3.133l-1.128 6.203zM112.626 6.628h7.453L119.828 8h-10.586l1.38-7.575h3.133l-1.129 6.203zM145.743 2.134h.042l1.314 2.997h-3.82l2.464-2.997zm-3.539 4.304h5.533L148.415 8h3.403L147.912.425h-3.613L137.579 8h3.298l1.327-1.562zM173.226 5.666c-.055.422.217 1.225 2.953 1.225 1.481 0 3.162-.178 3.311-.981.106-.59-.992-.75-2.543-.938l-1.575-.19c-2.369-.285-4.658-.56-4.354-2.225.155-.844 1.32-2.331 6.188-2.331 4.592 0 5.548 1.519 5.4 2.447H179.6c-.022-.337-.128-1.138-2.862-1.138-1.19 0-2.65.219-2.773.903-.109.59.828.719 1.442.793l3.572.453c2 .253 3.803.675 3.556 2.038-.42 2.278-5.05 2.478-6.367 2.478-5.469 0-6.119-1.594-5.948-2.534h3.006z"/></svg>