<svg xmlns="http://www.w3.org/2000/svg" width="300" height="225" viewBox="0 0 300 225"><path fill="#FFF" d="M270.119 77.557c-9.533 8.335-20.363 13.709-32.157 17.62-11.227 3.724-22.809 5.443-34.444 4.97-1.467-.06-2.418-2.585-3.915-3.477-1.229-.733-3.028-.478-4.628-.716-.61-.094-.7-1.276-.299-1.403 2.475-.806 5.127-.5 7.793-.934 1.197-.201 1.283-1.749 2.142-2.133 3.493-1.557 7.4-1.006 11.188-1.373.947-.085.465-1.779 1.109-2.069 1.398-.619 2.858.482 4.39.84 1.326.328 1.334-1.715 2.025-1.514 2.709.759 3.843.132 5.771-1.433.35-.294 1.198-.026 1.792.132.614.158 1.6.524 1.923-.269 2.052-5.076 7.495-.191 10.646-1.182.824-.251-.485-1.65.141-2.068 2.193-1.417 4.803.46 7.043-.584.853-.405.035-1.672.507-2.197.726-.819 2.001.282 2.926-.162.696-.333 1.852-.708 2.386-.734 2.568-.073 4.351-1.275 6.862-1.688.406-.06.657-.743 1.066-.836 1.958-.465 5.497.175 5.733.311.285.174.584.387 0 .899m-16.81 21.097c1.233.29 3.539.768 3.157 1.083-19.464 15.961-44.621 19.021-68.009 19.255-2.287-3.059-6.142-4.378-9.503-6.27-.201-.107-.192-1.033 0-1.132 2.742-1.352 5.801-.818 8.803-1.283 1.109-.166 1.425-1.809 2.457-2.12 3.484-1.067 6.877-2.406 10.562-2.257 3.092.133 6.112.393 9.213.248.93-.046.534-1.907 1.408-2.073 3.46-.627 6.719.743 10.203.035.699-.137.866-1.527 1.156-1.651 3.787-1.527 8.202-.234 12.211-1.616-.414-.367-1.031-.917-.604-1.254.673-.524 1.863-.256 2.621-.175 1.588.166 3.405.366 4.953-.772 1.041-.768 2.7.375 3.902-.026 1.284-.418 2.484-1.178 3.794-.751 1.467.482 2.465.482 3.676.759zm-50.823 33.024c-13.27 2.486-25.76 2.149-38.544-1.109-.652-.175 1.101-1.468 2.031-1.801 3.046-1.074 6.377-1.292 9.438-2.393.641-.237 1.148-1.216 1.634-1.706 1.251-1.275 3.408-1.676 5.044-2.167 5.007-1.493 10.273.199 15.602.98 2.111.313 4.112.542 6.211 1.161.26.08 1.151-.27 1.24-.874.104-.691.12-1.553.76-1.57 1.685-.038 3.528.636 5.06.043 1.966-.768 4.129-.235 6.218-.534.551-.08.133-.874.691-1.006 2.129-.494 4.36.491 6.278-.401 1.459-.678 4.71 1.318 5.341 2.116-8.36 4.701-17.278 7.443-27.004 9.261zm-.025 11.196c-8.463 2.614-17.015 2.577-25.632 2.584-8.786.022-16.999-2.576-25.631-4.951-.513-.137-.436-.811-.296-.899 1.213-.679 2.745-.295 4.027-.837.691-.281.836-1.207 1.441-1.574.794-.49 2.569-.426 3.327-.883 1.109-.661 1.434-1.459 2.527-2.112 1.014-.604 2.259.394 3.718.078 2.947-.618 5.077 1.992 7.827 2.793 1.101.316 2.073-.652 3.041-.494 1.11.175 1.967 1.194 3.11 1.526.891.261 1.54.291 2.457-.157 1.291-.627 2.567 1.117 4.009.777.486-.111.479-1.136 1.059-1.187 2.329-.184 3.86 2.277 6.138 2.243.238-.009.431-.46.707-.576 1.216-.461 2.342.603 3.801.176 1.801-.533 3.443.874 4.63 2.26.554.631.414 1.033-.26 1.233zm-26.674 12.31c.808.61 1.226 1.626.956 1.712-5.293 1.564-13.986.673-20.422.097-5.725-.516-11.125-2.106-16.38-4.234-3.515-1.426-6.91-2.781-10.225-4.808-.891-.542-2.243-.742-2.376-1.959-.017-.135.256-.54.308-.566 1.932-.96 4.108.414 6.07-.217.691-.227 1.182-1.408 1.749-1.4 1.433.017 2.995.542 4.317-.435.968-.733 2.393-.217 3.404.252 1.356.631 3.539 3.635 5.25 3.297.474-.099 3.319-.665 3.8-.388 2.667 1.599 6.979 4.773 9.969 4.942.585.04.968-1.718 1.711-1.334 1.809.952 2.981 2.3 4.466 2.567.478.09 1.352-.661 1.91-.575 1.093.157 1.731.968 2.927 1.816.516.359 1.74.593 2.566 1.233zm-21.872 11.206c-19.147.448-36.593-10.706-49.155-25.567-.184-.217-.2-.917.273-.892 2.201.158 3.929 1.591 5.886 2.499 2.141.978 4.56 3.921 6.76 2.202.457-.359.184-1.058.666-.926 2.884.759 4.884 3.178 6.979 5.259 1.8 1.801 2.734 4.32 5.067 5.46 1.015.486 1.783-1.809 2.576-1.117 1.75 1.525 2.96 3.038 4.833 4.435.776.586 1.241-1.18 1.553-1.325.823-.375 2.717 1.518 3.668 2.278 1.198.95 2.49 2.234 3.992 3.135.742.439 1.399-.627 2.09-.345 1.118.459 2.185 1.133 3.4 1.475.758.209 1.428 1.817 2.017 2.55.751.918-.158.871-.605.879zm-40.744 35.583c-8.715 5.049-17.783 7.694-27.627 8.603-4.599.422-9.086.115-13.637-.559-31.492-4.653-56.599-33.237-56.137-64.686 0-.064.473 1.093 1.066 1.301.716.243 1.006-.34 1.466-.858.658-.74 1.392.841 2.266.535.269-.103.503-.594.67-.551 1.689.4 1.715-1.634 3.067-1.302.814.2.583 1.459 1.058 2.235.482.798 1.327.908 2.018.598 2.533-1.113 1.634-4.125 3.118-6.066.665 3.502.025 7.009.814 10.57 1.186 5.311 2.436 10.212 4.734 15.035 4.078 8.57 10.472 15.305 18.747 20.522 23.106 14.587 53.873 6.837 68.363-15.012 2.09.432 4.709 1.294 7.191 1.644 1.361.191 2.717.191 4.078 0 .265-.043 1.059-.286.981-.393-2.073-2.936-6.424-6.394-6.782-10.821 4.274 1.611 9.478 3.353 14.703 5.127-6.901 13.731-16.431 26.126-30.157 34.078zm-93.174-85.314c4.256-8.144 9.849-14.972 16.695-21.2 8.825-8.019 18.695-13.313 30.434-15.927 14.102-3.126 27.205-2.461 40.961 3.575.598.251-1.118 3.851-1.544 3.685-23.2-8.813-50.456-5.179-68.043 12.852-6.718 6.876-14.114 14.063-15.521 23.793-1.143-1.527.102-3.763-1.442-5.047-.682-.55-1.31 1.101-1.877.508-.551-.571 0-1.583.337-2.239zm135.467-73.17c26.783-.567 59.916.751 78.263-4.278 15.723-4.3 26.781-8.45 38.935-20.128 1.893-1.826 2.525-1.493 1.334.473-7.493 12.421-20.438 21.515-38.26 26.493-20.048 5.609-58.33 3.425-80.271 4.282-24.489.951-42.736 10.254-50.431 26.783l-5.699-2.282c6.901-20.424 29.896-30.785 56.129-31.343zM97.965 152.066c-1.642-1.826-1.702-4.525-.631-6.658.657-1.302 2.798-2.846 3.651-1.877.849.951 1.258 2.543 1.958 3.484.559.752 1.416.849 1.991 1.702.584.865 1.144 2.431 1.907 3.042.55.456 1.309.656 1.817 1.224.393.427.469 1.082.836 1.441.367.35 1.015.392 1.425.759.716.627 1.216 2.142 2.09 2.377.486.123 1.284-.394 1.693-.158.751.456 1.378 1.058 1.975 1.732.627.712 1.22 1.492 1.86 2.2.584.644 1.143 1.579 1.877 2.018.524.303 1.54-.481 1.958-.132.55.447.811 1.6 1.374 1.932.759.453 1.868.034 2.295.818.542.973 1.484 3.225 2.376 4.501-11.961-1.966-22.407-9.418-30.452-18.405zm-16.379-50.661c-23.49 0-42.535 19.045-42.535 42.544 0 23.489 19.045 42.534 42.535 42.534 14.144 0 26.676-6.901 34.409-17.521l5.686 2.024c-8.693 12.856-23.4 21.314-40.095 21.314-26.706 0-48.353-21.647-48.353-48.353 0-26.706 21.647-48.362 48.353-48.362 7.05 0 14.746 1.801 21.498 4.939v6.697a42.431 42.431 0 0 0-21.498-5.816zm17.637 24.83a24.527 24.527 0 0 0-6.091-4.476l10.275-8.762c.06 4.475-1.125 9.986-3.032 14.354l-1.152-1.116zm-17.561 42.377c3.792 0 7.444-.866 10.753-2.466l1.066 14.938a39.046 39.046 0 0 1-11.82 1.824c-.734 0-1.475-.024-2.201-.059l-2.235-14.653c1.452.266 2.936.416 4.437.416zm-5.143-4.983l-.926-6.104a14.69 14.69 0 0 0 5.136 1.259l-4.21 4.845zm-1.545 5.35l2.086 13.654a38.85 38.85 0 0 1-11.261-3.093l9.175-10.561zm-13.235-10.433c.725.972 1.502 1.924 2.375 2.798a24.703 24.703 0 0 0 9.32 5.843l-9.819 11.305a39.14 39.14 0 0 1-10.16-7.645l8.284-12.301zm-1.626-1.771l-8.275 12.279a38.99 38.99 0 0 1-6.671-11.251l14.946-1.028zm-2.968-16.861a25.628 25.628 0 0 0-.299 3.869c0 3.773.858 7.4 2.436 10.7l-14.921 1.033a39.205 39.205 0 0 1-1.778-11.692c0-.374.017-.749.034-1.125l14.528-2.785zm-.073-2.376l-14.315 2.76a38.725 38.725 0 0 1 3.229-12.421l11.086 9.661zm10.57-14.221a24.893 24.893 0 0 0-9.371 12.17l-11.227-9.794a39.383 39.383 0 0 1 8.629-11.036l11.969 8.66zm2.768-1.65c-.2.103-.409.199-.61.311l-12.272-8.863a38.656 38.656 0 0 1 13.014-6.752l-.132 15.304zm-3.562 24.407c.025.183.069.357.094.531l-4.995 7.427a22.166 22.166 0 0 1-2.5-10.249c0-1.31.132-2.594.35-3.861l7.051 6.152zm3.468-12.037c-.315.356-.602.741-.883 1.134l-8.876 1.692a22.163 22.163 0 0 1 5.4-8.796 22.161 22.161 0 0 1 3.958-3.116l.47.332-.069 8.754zm-3.608 8.812l-4.492-3.911 5.716-1.101a15.23 15.23 0 0 0-1.224 5.012zm3.694 10.867l-5.686.394 3.093-4.586a14.88 14.88 0 0 0 2.593 4.192zm2.375 2.185c.073.05.15.094.222.148l1.327 8.697a22.17 22.17 0 0 1-8.369-5.246 21.968 21.968 0 0 1-2.474-2.964l9.294-.635zm3.767-26.165a14.858 14.858 0 0 0-3.877 2.098l.042-4.875 3.835 2.777zm12.135.84a14.847 14.847 0 0 0-4.15-1.483l3.65-3.114.5 4.597zm-.384-25.255a39.019 39.019 0 0 1 14.161 5.409l-11.683 9.964c-.277-.11-.558-.209-.844-.303l-1.634-15.07zm-1.522 52.589a15.06 15.06 0 0 0 4.85-2.876l.456 6.31-5.306-3.434zm-5.111-6.061c-4.444 0-8.053-3.608-8.053-8.065 0-4.445 3.608-8.063 8.053-8.063a8.067 8.067 0 0 1 8.066 8.063 8.062 8.062 0 0 1-8.066 8.065zm2.167 6.935l7.602 4.928a21.921 21.921 0 0 1-9.769 2.294c-1.284 0-2.559-.128-3.809-.341l5.976-6.881zm-11.068-38.168l.124-14.877a39.542 39.542 0 0 1 8.778-1.002c1.442 0 2.858.102 4.249.251l1.586 14.686a24.768 24.768 0 0 0-5.835-.716c-3.136 0-6.13.593-8.902 1.658zm8.901.944c2.107 0 4.167.307 6.134.875l.077.741-6.637 5.659c-.584.019-1.151.083-1.723.159l-6.778-4.893v-.665a22.181 22.181 0 0 1 8.927-1.876zm10.92 11.986a14.503 14.503 0 0 0-1.369-1.293l-.883-8.108.627-.534a22.193 22.193 0 0 1 6.423 4.457l1.954 1.95-1.518 3.127-5.234.401zm1.015 1.423l3.553-.114-1.501 3.441c-.461-1.343-1.25-2.183-2.052-3.327zm.866 26.959l-.666-9.285c1.258 1.766 2.875 4.295 4.394 5.584-1.284 1.568-2.068 2.519-3.728 3.701zm12.37 11.76c-3.275 2.759-6.991 5.021-11.061 6.586l-1.032-14.413 12.093 7.827zm-10.728-9.734a24.97 24.97 0 0 0 3.118-2.61l1.536-1.417 11.496 8.169c-.951 1.144-2.069 2.5-3.613 3.984l-12.537-8.126zM253.347 56.426c11.82-2.892 21.707-9.068 29.595-17.787.575-.759 2.542-3.126 2.926-3.885.376-.76.764-.76.474.098-.283.845-2.227 3.976-2.709 4.927-4.918 8.053-12.745 13.031-20.738 17.122-11.688 5.95-24.233 9.478-37.179 10.194-23.063 1.293-46.02.427-69.057.516-8.438.034-16.396 2.645-23.875 7.371-7.938 5.025-13.563 11.926-17.313 20.163-3.177 6.97-2.942 14.737-3.592 22.483-.852 10.259-5.993 19.319-13.397 23.447 3.276-5.985 6.709-12.882 7.835-19.941 1.134-7.094.026-12.702.312-18.964.656-14.435 9.827-26.881 22.411-33.992 8.91-5.042 18.272-8.168 28.309-8.543 7.878-.29 15.698.367 23.588.9 9.619.652 19.165.618 28.715.349 1.135-.025 2.637.009 3.779-.025 13.427-.449 26.541-1.157 39.916-4.433zm-81.226 16.61c1.706-.657 4.071 1.787 6 .103 1.109-.969 3.269.566 4.9 1.3 1.699.768 2.875-.384 4.275-1.284.917-.593 2.341 1.173 3.953.785.551-.128.423-1.353.973-1.42 1.886-.222 3.545 1.553 5.27.793.617-.277 1.292-1.352 1.965-1.757.827-.503 1.953.666 2.56.124 1.778-1.608 3.57-.935 5.221-.691.35.055.691 1.425.273 1.689-6.975 4.329-13.901 5.493-21.873 6.376-3.849.436-11.5-.282-16.179-3.007-2.648-1.526 1.229-2.444 2.662-3.011zm3.348 36.043c-7.367 1.702-14.312 1.229-21.499-.499-1.496-.358-2.34-1.817-3.531-2.849-.26-.226-1.501-.094-1.543-.243-.5-1.467-.875-2.064-2.064-3.016-.184-.15-.329-1.109.264-1.161 1.834-.149 3.634-.366 5.452-.593.932-.115.976-1.757 1.782-2.098 1.885-.777 4.018-.875 6.104-1.092 5.391-.559 10.65-1.424 16.056-1.024 5.433.414 10.477 2.175 15.71 3.776.669.2 1.858.623 1.275 1.548-.718 1.126-2.239 1.135-3.426 1.937-1.575 1.058-3.826.657-5.242 2-2.001 1.916-4.693 2.064-7.27 2.393-.708.098-1.284.733-2.068.921zm-29.607 17.296c-2.435-.613-6.07-1.398-6.637-2.893.328.095.959-.813.985-1.074.077-1.135-2.167-1.374-2.943-2.142-.201-.19-.358-1.168.26-1.177 1.199-.03 3.732 1.012 5.469.12.473-.234.499-.918 1.216-1.213.717-.298 1.676.103 2.141-.14.443-.256 1.16-.333 1.492-.789.244-.337-.149-1.285.209-1.635.593-.592 1.416-.311 2.316-.895.576-.366 1.109-1.315 1.57-1.583.874-.508 2.029-.567 3.024-.64 2.823-.201 5.659-.077 8.525.291 2.438.308 4.796.542 7.197 1.24 3.933 1.137 7.792 1.993 11.277 4.121-2.119 2.876-5.604 3.024-8.506 4.525-2.342 1.216-4.857 1.34-7.295 2.073-6.682 2.02-13.583 3.496-20.3 1.811zm-32.993 8.437c1.036.176 1.859-.409 2.708-.199 1.143.277 1.617.384 2.495.835.567-.358 1.425-.485 1.715-.575 1.6-.507 3.442.491 5.119.367.819-.061.768-1.801 1.391-2.086 2.312-1.05 5.354.485 7.797-.124.282-.077.073-1.352 1.148-2.141.443-.329 2.367-.359 2.985-.603.068-.251.141-.818.708-1.108 1.851-.918 4.474.61 7.085 1.031 1.834.303 3.643.96 5.469 1.562 1.414.465 3.552 1.775 3.091 2.249-7.366 7.485-18.887 8.386-29.022 7.66-5.963-.432-12.446-.508-17.275-4.431-1.113-.893.303-2.744 1.595-3.43.926-.491 2.018.827 2.991.993zm13.705-13.078c2.892 1.365 5.941 2.533 8.202 4.785-5.042 3.043-10.646 3.968-16.438 4.919-2.116.35-4.334.718-6.467-.129 1.241-4.423 2.866-8.7 4.449-13 3.608.577 6.935 1.86 10.254 3.425zm9.635-40.509c1.651-.576 3.732-1.037 3.477-3.275-.06-.521.806-.828 1.267-.888 1.258-.167 2.49-.213 3.723-.533.994-.256 1.404-1.292 2.172-1.843 2.682-1.94 6.039-.039 8.65-1.156 1.198-.524 2.418-.802 3.468-.191 2.618 1.54 6.475 2.133 7.269 5.31-9.355 5.469-20.449 6.974-31.117 6.842.05-1.574-.517-3.694 1.091-4.266zm5.443 7.883c3.425.742 6.062 2.525 9.128 3.728 1.19.465 3.732 1.834 2.576 2.508-9.704 5.566-20.964 6.275-31.91 6.21.115-1.658.942-2.819 1.318-4.367.481-1.976 3.54-2.47 3.493-5.204-.017-1.506 2.948-1.216 3.881-2.534.375-.525.751-1.331 1.25-1.417 3.469-.575 6.762.325 10.264 1.076zm-22.838 19.015c.708-1.045 1.19-2.469 1.792-2.811 4.415-2.534 10.212-1.399 15.202-.008 4.304 1.194 8.744 2.209 11.905 5.536.175.183.149.823.017.883-9.546 4.377-20.022 6.211-30.336 5.085-.298-.035.077-2.228-.115-3.66-.141-.999.824-1.575 1.6-2.508.417-.508-.585-1.728-.065-2.517zm84.355-18.874c-14.063 5.447-29.283 5.447-44.106 4.611-.612-.034-.754-1.19-1.181-1.766-.541-.76-1.766-.96-2.418-1.442-.525-.393-.473-1.058-1.041-1.518-.533-.444-1.967-.333-2.828-.717-.324-.132-.733-1.186-.324-1.425 1.842-1.075 4.692.797 5.861-.725 1.94-2.508 4.435-.645 6.691-1.511.691-.264.533-1.16.846-1.548 1.94-2.359 5.522-2.662 8.615-2.734 2.543-.06 5.57.025 7.802.307 6.211.969 11.696 1.924 17.19 4.568 1.526.743 3.275 1.11 4.619 2.449.55.542.072 1.011.274 1.451zm84.69-53.263c-.375 1.519-.828 2.917-1.396 4.534-4.185 11.862-13.333 19.463-23.238 26.698-9.286 6.778-18.632 11.039-29.684 13.598-8.402 1.941-16.46 3.677-24.896 3.076-1.941-.141-3.435-1.417-5.243-2.308-.776-.375-2.095-.26-2.883-.704-.87-.499-.461-1.616.605-1.809 1.259-.23 2.67.286 3.643-.264 2.461-1.395 5.161-.828 7.597-1.608 1.442-.452.039-2.487 1.113-2.819 1.387-.448 2.909-.602 4.36-.99.695-.184.817-1.868 1.168-1.971 1.992-.58 5.426.269 8.087.217.841-.008.273-1.539 1.313-1.557 3.336-.034 3.037.376 5.286-1.125 2.06-1.378 7.054.559 6.994-2.611 4.21-.699 8.72.55 12.512-2.239.618-.445 1.752 0 2.603-.542.489-.311.455-1.109 1.057-1.284 1.582-.477 3.259-.46 4.734-1.143.867-.401.718-1.885 1.169-2.086 9.192-4.176 16.802-9.793 22.111-18.521 1.041-1.702 2.202-4.074 2.492-4.833.279-.758.735-.643.496.291zM275.98 73.279c-3.759-.299-7.504.094-11.262-.2-.601-.043-.451-1.007-.261-1.157 14.896-11.853 25.998-27.759 26.182-46.612 0-.235-.396-.524-.571-.295-10.306 13.582-22.563 26.041-39.745 28.135-.812.107-.866-1.317-.235-1.727 15.671-10.203 27.134-23.848 30.959-42.194.043-.209-.358-.508-.567-.29-11.209 11.7-24.646 19.911-40.091 24.437-27.819 8.164-56.21 5.396-84.409 5.485-11.167.035-22.419 1.003-32.716 5.827-12.72 5.955-23.639 15.573-29.509 28.493l-.183.342a70.796 70.796 0 0 0-12.187-1.033c-39.608 0-71.728 32.106-71.728 71.724 0 39.613 32.119 71.729 71.728 71.729 30.383 0 56.343-18.888 66.802-45.568l1.011-.017c3.515.141 7.392.273 10.86-1.117.418-.175 1.634-.969 1.183-1.843-.563-1.066-2.283-3.218-2.816-4.658-.124-.312-.201-.935.299-.942 8.7-.062 18.056.498 26.057-2.661-2.025-3.341-6.666-5.81-9.217-9.095-.576-.747.551-1.155.934-1.155 12.152-.044 23.48-.052 34.184-5.503.402-.209.409-.647.175-.892-2.367-2.471-5.294-4.804-8.035-6.744 13.537-2.707 28.433-9.487 32.715-13.329.452-.41.158-.806-.081-1.075-1.135-1.352-4.168-3.391-4.734-3.958-.191-.192-.136-.828-.025-.884 12.038-4.61 23.929-9.878 32.575-20.132.393-.481-.148-1.118-.627-1.215-3.484-.666-6.808-.824-10.241-.777 0-.456-.138-1.126.063-1.25 9.005-5.234 16.98-10.728 23.775-18.662.203-.237.338-1.145-.262-1.187z"/><path fill="#EC2024" d="M276.239 74.464c-6.795 7.934-14.771 13.428-23.775 18.662-.201.124-.063.793-.063 1.25 3.434-.047 6.757.111 10.241.777.479.098 1.02.734.627 1.215-8.646 10.254-20.537 15.522-32.575 20.132-.11.056-.166.691.025.884.566.567 3.6 2.606 4.734 3.958.239.27.533.665.081 1.075-4.282 3.842-19.178 10.622-32.715 13.329 2.741 1.94 5.668 4.273 8.035 6.744.234.244.228.683-.175.892-10.703 5.451-22.031 5.459-34.184 5.503-.383 0-1.51.408-.934 1.155 2.551 3.285 7.191 5.754 9.217 9.095-8.001 3.159-17.356 2.6-26.057 2.661-.5.008-.423.631-.299.942.533 1.44 2.253 3.592 2.816 4.658.451.874-.765 1.668-1.183 1.843-3.469 1.391-7.346 1.258-10.86 1.117l-1.011.017c-10.459 26.681-36.418 45.568-66.802 45.568-39.608 0-71.728-32.115-71.728-71.729 0-39.617 32.119-71.724 71.728-71.724 4.16 0 8.229.342 12.187 1.033l.183-.342c5.87-12.92 16.789-22.539 29.509-28.493 10.297-4.824 21.549-5.792 32.716-5.827 28.199-.089 56.59 2.679 84.409-5.485 15.445-4.525 28.882-12.737 40.091-24.437.209-.218.61.081.567.29-3.825 18.346-15.288 31.991-30.959 42.194-.631.41-.576 1.834.235 1.727 17.182-2.094 29.439-14.554 39.745-28.135.175-.229.571.06.571.295-.184 18.853-11.286 34.759-26.182 46.612-.19.15-.34 1.114.261 1.157 3.758.294 7.503-.099 11.262.2.603.044.468.952.262 1.187m-.077-3.442c-1.982-.154-3.948-.128-5.844-.103-.383.009-.768.009-1.143.009 11.39-9.917 23.524-25.23 23.725-45.603.01-1.108-.75-2.146-1.842-2.52a2.483 2.483 0 0 0-2.798.844c-8.045 10.604-17.949 21.621-31.43 25.797 14.29-10.809 23.176-24.155 26.433-39.767.218-1.092-.348-2.227-1.38-2.777-1.028-.542-2.244-.35-3.029.465-10.954 11.423-24.112 19.446-39.102 23.839-21.732 6.369-44.335 5.963-66.191 5.579-5.762-.103-11.722-.208-17.591-.192-10.334.039-22.418.781-33.667 6.044C108.709 49 98.105 59.058 92.279 71.043a74.333 74.333 0 0 0-10.895-.814C40.59 70.229 7.4 103.415 7.4 144.213c0 40.796 33.189 73.988 73.984 73.988 15.164 0 29.744-4.56 42.156-13.188 11.708-8.126 20.712-19.298 26.156-32.374 3.382.131 7.459.2 11.202-1.311.2-.081 1.894-.806 2.503-2.449a3.13 3.13 0 0 0-.162-2.533c-.273-.517-.674-1.117-1.147-1.809-.103-.146-.209-.312-.324-.478h.755c7.79.017 15.838.042 23.085-2.823a2.3 2.3 0 0 0 1.313-1.379 2.268 2.268 0 0 0-.213-1.897c-1.292-2.142-3.354-3.852-5.354-5.511-.533-.447-1.058-.884-1.564-1.318 11.141-.081 21.728-.552 31.914-5.741.818-.418 1.377-1.161 1.525-2.052a2.791 2.791 0 0 0-.741-2.41c-1.275-1.33-2.768-2.691-4.453-4.065 12.195-3.159 24.765-8.953 29.01-12.771 1.04-.934 1.492-2.602.141-4.2-.656-.784-1.685-1.652-2.7-2.437 10.987-4.342 22.138-9.691 30.506-19.638.662-.78.846-1.817.504-2.79a3.303 3.303 0 0 0-2.427-2.094 44.98 44.98 0 0 0-4.803-.648c6.77-4.209 13.627-9.251 19.688-16.341.718-.841.926-2.213.5-3.259a2.703 2.703 0 0 0-2.292-1.663z"/><path fill="#EC2024" d="M262.761 59.049c-.451.201-.302 1.685-1.169 2.086-1.476.682-3.152.666-4.734 1.143-.602.175-.567.973-1.057 1.284-.851.542-1.984.098-2.603.542-3.792 2.789-8.302 1.54-12.512 2.239.06 3.169-4.935 1.232-6.994 2.611-2.249 1.501-1.95 1.091-5.286 1.125-1.04.018-.473 1.549-1.313 1.557-2.661.051-6.095-.797-8.087-.217-.351.103-.473 1.787-1.168 1.971-1.451.388-2.974.542-4.36.99-1.074.333.329 2.367-1.113 2.819-2.436.781-5.136.213-7.597 1.608-.973.55-2.384.034-3.643.264-1.066.192-1.476 1.31-.605 1.809.788.444 2.106.329 2.883.704 1.809.892 3.302 2.167 5.243 2.308 8.437.602 16.494-1.135 24.896-3.076 11.052-2.559 20.397-6.82 29.684-13.598 9.905-7.235 19.054-14.835 23.238-26.698.567-1.617 1.021-3.015 1.396-4.534.238-.935-.218-1.049-.495-.291-.29.759-1.451 3.131-2.492 4.833-5.31 8.728-12.92 14.346-22.112 18.521M202.896 87.799c-1.344-1.339-3.093-1.707-4.619-2.449-5.494-2.644-10.979-3.6-17.19-4.568-2.231-.281-5.259-.366-7.802-.307-3.093.073-6.675.375-8.615 2.734-.313.388-.154 1.284-.846 1.548-2.257.866-4.751-.998-6.691 1.511-1.169 1.522-4.02-.35-5.861.725-.409.239 0 1.292.324 1.425.861.384 2.295.273 2.828.717.568.46.516 1.125 1.041 1.518.652.482 1.877.682 2.418 1.442.427.576.568 1.732 1.181 1.766 14.823.836 30.043.836 44.106-4.611-.203-.441.275-.91-.274-1.451M117.279 113.148c.192 1.433-.183 3.625.115 3.66 10.314 1.126 20.79-.708 30.336-5.085.132-.06.158-.7-.017-.883-3.161-3.327-7.602-4.342-11.905-5.536-4.99-1.391-10.787-2.525-15.202.008-.601.341-1.083 1.766-1.792 2.811-.521.789.482 2.009.064 2.517-.775.934-1.74 1.51-1.599 2.508M166.234 78.649c-.794-3.177-4.65-3.771-7.269-5.31-1.05-.61-2.27-.333-3.468.191-2.611 1.117-5.968-.784-8.65 1.156-.768.55-1.178 1.586-2.172 1.843-1.233.32-2.465.366-3.723.533-.461.06-1.327.367-1.267.888.256 2.239-1.826 2.7-3.477 3.275-1.608.572-1.041 2.692-1.092 4.266 10.669.132 21.763-1.373 31.118-6.842M131.389 88.033c-.499.085-.875.892-1.25 1.417-.934 1.318-3.898 1.028-3.881 2.534.047 2.733-3.012 3.228-3.493 5.204-.375 1.548-1.203 2.709-1.318 4.367 10.945.064 22.206-.644 31.91-6.21 1.156-.674-1.386-2.043-2.576-2.508-3.067-1.203-5.703-2.986-9.128-3.728-3.503-.752-6.796-1.652-10.264-1.076M111.871 131.31c2.132.847 4.351.479 6.467.129 5.792-.951 11.397-1.876 16.438-4.919-2.261-2.252-5.31-3.42-8.202-4.785-3.319-1.565-6.646-2.849-10.254-3.425-1.583 4.299-3.208 8.577-4.449 13M109.878 133.819c-1.292.686-2.708 2.537-1.595 3.43 4.829 3.923 11.312 3.999 17.275 4.431 10.135.726 21.656-.175 29.022-7.66.461-.474-1.677-1.784-3.091-2.249-1.827-.602-3.635-1.259-5.469-1.562-2.611-.421-5.234-1.949-7.085-1.031-.568.29-.64.857-.708 1.108-.618.243-2.542.273-2.985.603-1.075.789-.866 2.063-1.148 2.141-2.443.609-5.485-.926-7.797.124-.623.285-.572 2.025-1.391 2.086-1.676.124-3.519-.874-5.119-.367-.29.09-1.147.217-1.715.575-.878-.451-1.352-.558-2.495-.835-.849-.21-1.672.375-2.708.199-.973-.166-2.065-1.484-2.991-.993M173.459 122.493c2.901-1.501 6.387-1.649 8.506-4.525-3.485-2.128-7.345-2.984-11.277-4.121-2.401-.698-4.76-.933-7.197-1.24-2.866-.367-5.702-.491-8.525-.291-.995.073-2.15.132-3.024.64-.461.268-.994 1.217-1.57 1.583-.9.584-1.724.303-2.316.895-.358.35.034 1.298-.209 1.635-.333.456-1.049.533-1.492.789-.465.242-1.424-.158-2.141.14-.717.295-.743.979-1.216 1.213-1.736.892-4.27-.15-5.469-.12-.618.009-.46.986-.26 1.177.776.768 3.02 1.007 2.943 2.142-.025.261-.657 1.169-.985 1.074.567 1.494 4.202 2.279 6.637 2.893 6.717 1.685 13.619.209 20.302-1.809 2.436-.735 4.951-.859 7.293-2.075M190.048 103.764c1.187-.802 2.708-.811 3.426-1.937.583-.925-.606-1.348-1.275-1.548-5.233-1.601-10.277-3.362-15.71-3.776-5.405-.4-10.665.465-16.056 1.024-2.086.217-4.219.315-6.104 1.092-.807.341-.851 1.983-1.782 2.098-1.818.227-3.618.444-5.452.593-.593.051-.448 1.011-.264 1.161 1.189.951 1.565 1.548 2.064 3.016.042.149 1.283.017 1.543.243 1.191 1.032 2.035 2.491 3.531 2.849 7.188 1.728 14.132 2.201 21.499.499.784-.188 1.36-.823 2.067-.921 2.576-.329 5.269-.478 7.27-2.393 1.417-1.343 3.668-.942 5.243-2M185.638 79.054c7.972-.883 14.898-2.047 21.873-6.376.418-.265.076-1.634-.273-1.689-1.65-.244-3.442-.917-5.221.691-.606.542-1.732-.627-2.56-.124-.673.405-1.348 1.48-1.965 1.757-1.725.759-3.384-1.015-5.27-.793-.55.068-.422 1.292-.973 1.42-1.612.388-3.036-1.378-3.953-.785-1.4.9-2.576 2.052-4.275 1.284-1.632-.733-3.791-2.269-4.9-1.3-1.929 1.684-4.294-.76-6-.103-1.434.567-5.311 1.485-2.662 3.011 4.679 2.725 12.33 3.443 16.179 3.007"/><path fill="#EC2024" d="M209.651 60.883c-9.55.269-19.096.303-28.715-.349-7.89-.533-15.71-1.19-23.588-.9-10.037.375-19.399 3.502-28.309 8.543-12.583 7.111-21.754 19.557-22.411 33.992-.286 6.262.822 11.87-.312 18.964-1.126 7.06-4.56 13.956-7.835 19.941 7.404-4.128 12.545-13.188 13.397-23.447.649-7.746.415-15.514 3.592-22.483 3.75-8.237 9.376-15.138 17.313-20.163 7.478-4.726 15.437-7.337 23.875-7.371 23.037-.089 45.994.777 69.057-.516 12.945-.716 25.49-4.244 37.179-10.194 7.993-4.091 15.82-9.069 20.738-17.122.482-.952 2.426-4.083 2.709-4.927.29-.857-.098-.857-.474-.098-.384.759-2.351 3.126-2.926 3.885-7.888 8.719-17.774 14.895-29.595 17.787-13.375 3.276-26.488 3.984-39.916 4.432-1.142.035-2.644.001-3.779.026M112.254 168.096l-11.496-8.169-1.536 1.417a24.885 24.885 0 0 1-3.118 2.61l12.536 8.126c1.546-1.484 2.663-2.841 3.614-3.984M95.772 180.273c4.069-1.565 7.785-3.827 11.061-6.586l-12.092-7.827 1.031 14.413M93.798 152.643l.666 9.285c1.659-1.182 2.444-2.133 3.728-3.701-1.52-1.289-3.136-3.819-4.394-5.584M93.597 134.969c.802 1.145 1.591 1.984 2.052 3.327l1.501-3.441-3.553.114M99.334 130.018l-1.954-1.95a22.206 22.206 0 0 0-6.423-4.457l-.627.534.883 8.108c.478.4.942.828 1.369 1.293l5.234-.401 1.518-3.127M72.735 124.102l6.778 4.893a16.914 16.914 0 0 1 1.723-.159l6.637-5.659-.077-.741a22.083 22.083 0 0 0-6.134-.875c-3.126 0-6.146.657-8.927 1.877v.664M87.498 119.674l-1.586-14.686a39.822 39.822 0 0 0-4.249-.251c-3.011 0-5.945.358-8.778 1.002l-.124 14.877a24.745 24.745 0 0 1 8.901-1.658c2.001 0 3.95.26 5.836.716M81.662 166.006c3.515 0 6.825-.835 9.769-2.294l-7.602-4.928-5.976 6.881c1.25.213 2.525.341 3.809.341M89.729 143.783a8.068 8.068 0 0 0-8.066-8.063c-4.444 0-8.053 3.617-8.053 8.063 0 4.457 3.608 8.065 8.053 8.065a8.062 8.062 0 0 0 8.066-8.065M91.623 155.034a15.049 15.049 0 0 1-4.85 2.876l5.306 3.434-.456-6.31M102.457 110.729a39.037 39.037 0 0 0-14.161-5.409l1.634 15.07c.286.094.567.192.844.303l11.683-9.964M84.529 129.093c1.476.285 2.866.802 4.15 1.483l-.5-4.598-3.65 3.115M72.667 131.834a14.858 14.858 0 0 1 3.877-2.098l-3.834-2.777-.043 4.875M65.958 159.501a22.154 22.154 0 0 0 8.369 5.246L73 156.05c-.072-.055-.149-.099-.222-.148l-9.294.636a22.022 22.022 0 0 0 2.474 2.963M70.402 153.716a14.902 14.902 0 0 1-2.593-4.192l-3.093 4.586 5.686-.394M66.708 142.849c.124-1.774.55-3.458 1.224-5.012l-5.716 1.101 4.492 3.911M65.958 128.067a22.156 22.156 0 0 0-5.4 8.796l8.876-1.692c.281-.393.567-.777.883-1.134l.068-8.754-.47-.332a22.19 22.19 0 0 0-3.957 3.116M59.448 143.783c0 3.634.874 7.118 2.5 10.249l4.995-7.427c-.025-.174-.069-.349-.094-.531l-7.05-6.152a22.721 22.721 0 0 0-.351 3.861M69.8 121.978c.201-.111.41-.208.61-.311l.132-15.305a38.674 38.674 0 0 0-13.014 6.752l12.272 8.864M47.044 125.693l11.227 9.794a24.893 24.893 0 0 1 9.371-12.17l-11.969-8.66a39.397 39.397 0 0 0-8.629 11.036M42.757 140.298l14.315-2.76-11.086-9.661a38.699 38.699 0 0 0-3.229 12.421M42.583 143.824c0 4.074.627 8.003 1.778 11.692l14.921-1.033a24.73 24.73 0 0 1-2.436-10.7c0-1.319.106-2.611.299-3.869l-14.528 2.785c-.017.376-.034.751-.034 1.125M60.113 156.775l-14.946 1.028a38.967 38.967 0 0 0 6.671 11.251l8.275-12.279M73.435 167.187a24.687 24.687 0 0 1-9.32-5.843c-.874-.874-1.65-1.826-2.375-2.798l-8.284 12.301a39.201 39.201 0 0 0 10.16 7.645l9.819-11.305M74.974 168.979l-9.175 10.562a38.882 38.882 0 0 0 11.261 3.093l-2.086-13.655M75.593 157.525l.926 6.104 4.21-4.845a14.662 14.662 0 0 1-5.136-1.259M81.662 182.909c4.125 0 8.101-.645 11.82-1.824l-1.066-14.938a24.644 24.644 0 0 1-10.753 2.466c-1.501 0-2.985-.15-4.436-.415l2.235 14.653c.725.034 1.466.058 2.2.058"/><path fill="#EC2024" d="M103.407 112.998l-10.275 8.762a24.477 24.477 0 0 1 6.091 4.476l1.152 1.117c1.907-4.369 3.092-9.88 3.032-14.355"/><path fill="#EC2024" d="M81.586 95.587c-26.706 0-48.353 21.656-48.353 48.362 0 26.705 21.647 48.353 48.353 48.353 16.695 0 31.402-8.458 40.095-21.314l-5.686-2.024c-7.733 10.619-20.265 17.521-34.409 17.521-23.49 0-42.535-19.045-42.535-42.534 0-23.499 19.045-42.544 42.535-42.544a42.413 42.413 0 0 1 21.498 5.818v-6.697c-6.752-3.14-14.448-4.941-21.498-4.941"/><path fill="#EC2024" d="M126.041 165.971c-.427-.784-1.536-.365-2.295-.818-.563-.332-.823-1.484-1.374-1.932-.418-.35-1.434.435-1.958.132-.734-.438-1.292-1.374-1.877-2.018-.64-.708-1.233-1.488-1.86-2.2-.597-.675-1.224-1.276-1.975-1.732-.409-.235-1.207.281-1.693.158-.874-.235-1.374-1.75-2.09-2.377-.41-.367-1.058-.409-1.425-.759-.367-.359-.443-1.015-.836-1.441-.508-.567-1.267-.768-1.817-1.224-.764-.611-1.323-2.177-1.907-3.042-.576-.854-1.433-.95-1.991-1.702-.7-.941-1.11-2.533-1.958-3.484-.853-.969-2.994.575-3.651 1.877-1.071 2.133-1.011 4.832.631 6.658 8.045 8.986 18.491 16.438 30.452 18.405-.893-1.277-1.834-3.529-2.376-4.501M155.464 50.331c21.941-.857 60.224 1.327 80.271-4.282 17.821-4.978 30.767-14.072 38.26-26.493 1.191-1.966.559-2.299-1.334-.473-12.153 11.678-23.212 15.829-38.935 20.128-18.347 5.03-51.479 3.711-78.263 4.278-26.233.559-49.228 10.919-56.13 31.343l5.699 2.282c7.696-16.529 25.943-25.832 50.432-26.783M21.537 118.39c1.544 1.284.299 3.52 1.442 5.047 1.407-9.729 8.804-16.917 15.521-23.793 17.587-18.03 44.843-21.664 68.043-12.852.426.166 2.142-3.434 1.544-3.685-13.756-6.036-26.859-6.701-40.961-3.575-11.739 2.615-21.609 7.908-30.434 15.927-6.846 6.228-12.438 13.057-16.695 21.2-.337.656-.888 1.668-.337 2.238.567.593 1.194-1.057 1.877-.507"/><path fill="#EC2024" d="M135.407 173.59c.077.106-.717.35-.981.393-1.36.191-2.717.191-4.078 0-2.482-.35-5.101-1.212-7.191-1.644-14.49 21.849-45.257 29.599-68.363 15.012-8.274-5.218-14.668-11.952-18.747-20.522-2.299-4.823-3.548-9.725-4.734-15.035-.789-3.562-.149-7.068-.814-10.57-1.484 1.941-.585 4.953-3.118 6.066-.691.311-1.536.2-2.018-.598-.474-.776-.243-2.035-1.058-2.235-1.352-.332-1.378 1.702-3.067 1.302-.167-.043-.401.448-.67.551-.874.306-1.608-1.275-2.266-.535-.46.519-.75 1.102-1.466.858-.593-.208-1.066-1.365-1.066-1.301-.461 31.448 24.646 60.032 56.137 64.686 4.551.674 9.039.98 13.637.559 9.844-.908 18.912-3.554 27.627-8.603 13.726-7.951 23.255-20.347 30.157-34.077-5.225-1.774-10.429-3.516-14.703-5.127.358 4.426 4.709 7.884 6.782 10.82M152.504 162.96c-1.216-.342-2.283-1.016-3.4-1.475-.691-.282-1.348.784-2.09.345-1.502-.9-2.794-2.185-3.992-3.135-.951-.761-2.846-2.653-3.668-2.278-.312.146-.776 1.911-1.553 1.325-1.873-1.396-3.083-2.909-4.833-4.435-.793-.691-1.561 1.604-2.576 1.117-2.333-1.14-3.268-3.659-5.067-5.46-2.094-2.081-4.095-4.5-6.979-5.259-.482-.132-.209.566-.666.926-2.2 1.719-4.619-1.225-6.76-2.202-1.958-.908-3.686-2.341-5.886-2.499-.474-.025-.457.675-.273.892 12.562 14.861 30.008 26.016 49.155 25.567.447-.008 1.356.039.605-.88-.589-.732-1.259-2.34-2.017-2.549M170.294 152.135c-.559-.086-1.433.665-1.91.575-1.484-.268-2.657-1.615-4.466-2.567-.743-.384-1.126 1.374-1.711 1.334-2.989-.169-7.302-3.344-9.969-4.942-.481-.277-3.327.289-3.8.388-1.711.338-3.894-2.666-5.25-3.297-1.011-.469-2.436-.985-3.404-.252-1.322.977-2.884.451-4.317.435-.567-.008-1.058 1.174-1.749 1.4-1.962.631-4.138-.743-6.07.217-.052.026-.324.432-.308.566.133 1.217 1.485 1.417 2.376 1.959 3.314 2.026 6.71 3.382 10.225 4.808 5.255 2.128 10.655 3.719 16.38 4.234 6.436.576 15.129 1.468 20.422-.097.27-.086-.148-1.102-.956-1.712-.826-.64-2.05-.874-2.566-1.232-1.196-.849-1.834-1.66-2.927-1.817M198.092 139.381c-1.459.427-2.585-.637-3.801-.176-.276.116-.469.567-.707.576-2.277.034-3.809-2.427-6.138-2.243-.58.051-.572 1.075-1.059 1.187-1.441.34-2.718-1.404-4.009-.777-.917.448-1.566.418-2.457.157-1.144-.332-2-1.352-3.11-1.526-.968-.158-1.94.811-3.041.494-2.75-.801-4.88-3.411-7.827-2.793-1.459.315-2.704-.683-3.718-.078-1.094.653-1.418 1.451-2.527 2.112-.758.457-2.533.393-3.327.883-.605.367-.75 1.293-1.441 1.574-1.282.542-2.814.158-4.027.837-.14.089-.217.763.296.899 8.632 2.375 16.845 4.974 25.631 4.951 8.617-.007 17.169.03 25.632-2.584.674-.2.814-.602.261-1.233-1.188-1.386-2.83-2.793-4.631-2.26M224.149 120.301c-1.918.893-4.149-.093-6.278.401-.559.132-.141.926-.691 1.006-2.089.299-4.252-.233-6.218.534-1.531.593-3.375-.081-5.06-.043-.64.018-.656.879-.76 1.57-.089.604-.98.954-1.24.874-2.099-.619-4.1-.848-6.211-1.161-5.328-.781-10.595-2.474-15.602-.98-1.636.491-3.793.892-5.044 2.167-.485.49-.993 1.469-1.634 1.706-3.062 1.101-6.393 1.318-9.438 2.393-.931.333-2.684 1.626-2.031 1.801 12.784 3.259 25.274 3.596 38.544 1.109 9.726-1.817 18.644-4.56 27.004-9.261-.631-.798-3.882-2.794-5.341-2.116M245.839 98.646c-1.202.401-2.861-.742-3.902.026-1.548 1.138-3.365.938-4.953.772-.758-.082-1.948-.35-2.621.175-.427.337.19.887.604 1.254-4.009 1.381-8.424.089-12.211 1.616-.29.125-.457 1.515-1.156 1.651-3.484.708-6.743-.662-10.203-.035-.874.166-.479 2.027-1.408 2.073-3.101.145-6.121-.115-9.213-.248-3.685-.149-7.077 1.19-10.562 2.257-1.032.311-1.348 1.954-2.457 2.12-3.002.465-6.061-.068-8.803 1.283-.192.099-.201 1.025 0 1.132 3.361 1.892 7.216 3.211 9.503 6.27 23.388-.234 48.545-3.294 68.009-19.255.382-.316-1.924-.793-3.157-1.083-1.211-.277-2.209-.277-3.676-.759-1.31-.427-2.51.333-3.794.751M270.119 76.657c-.236-.136-3.775-.776-5.733-.311-.409.094-.66.776-1.066.836-2.512.414-4.294 1.616-6.862 1.688-.534.026-1.689.401-2.386.734-.925.444-2.2-.657-2.926.162-.472.524.346 1.792-.507 2.197-2.24 1.044-4.85-.832-7.043.584-.626.418.684 1.817-.141 2.068-3.151.99-8.595-3.894-10.646 1.182-.323.793-1.309.427-1.923.269-.594-.159-1.442-.427-1.792-.132-1.929 1.565-3.063 2.192-5.771 1.433-.691-.201-.699 1.842-2.025 1.514-1.531-.358-2.991-1.459-4.39-.84-.645.29-.162 1.983-1.109 2.069-3.787.367-7.694-.184-11.188 1.373-.858.384-.944 1.933-2.142 2.133-2.666.435-5.318.128-7.793.934-.401.127-.312 1.31.299 1.403 1.6.239 3.399-.017 4.628.716 1.497.891 2.448 3.417 3.915 3.477 11.636.474 23.218-1.246 34.444-4.97 11.794-3.911 22.624-9.285 32.157-17.62.584-.511.285-.724 0-.899M157.856 190.045c-2.909 0-5.268-2.345-5.268-5.254s2.358-5.268 5.268-5.268 5.259 2.358 5.259 5.268-2.349 5.254-5.259 5.254m0-11.954a6.7 6.7 0 0 0-6.7 6.7 6.695 6.695 0 0 0 6.7 6.697 6.694 6.694 0 0 0 6.692-6.697 6.697 6.697 0 0 0-6.692-6.7z"/><path fill="#EC2024" d="M158.33 184.073h-1.791v-1.671h1.791a.836.836 0 0 1 0 1.671m2.269-.839a2.275 2.275 0 0 0-2.269-2.274h-3.224v7.656h1.433v-3.109h1.028l1.449 3.109h1.591l-1.509-3.242a2.262 2.262 0 0 0 1.501-2.14z"/></svg>