<svg xmlns="http://www.w3.org/2000/svg" width="2000" height="2000" viewBox="0 0 2000 2000"><path fill="#fff" d="M1000.346 58.663c-519.25 0-941.657 422.432-941.657 941.658 0 519.276 422.405 941.686 941.656 941.686 519.227 0 941.66-422.406 941.66-941.685 0-519.225-422.435-941.657-941.66-941.657zm151.855 373.05c0 72.707-60.058 143.466-151.854 143.466-91.82 0-151.854-70.76-151.854-143.468 0-106.39 92.27-163.214 151.854-311.73C1059.93 268.5 1152.2 325.323 1152.2 431.713zm-151.854 1466.746c-496.006 0-898.085-402.08-898.085-898.14 0-478.363 374.077-869.398 845.683-896.51L843.89 267.974c-44.41 70.128-51.933 128.66-51.933 160.77 0 123.56 109.546 205.05 208.39 205.05 98.87 0 208.39-81.49 208.39-205.05 0-32.108-7.52-90.642-51.934-160.77L1052.78 103.81c471.604 27.112 845.68 418.147 845.68 896.51 0 496.06-402.106 898.14-898.114 898.14zM1210.55 211.385c34.5 48.015 79.254 117.25 79.254 214.174 0 150.828-127.53 291.72-289.458 291.72-161.926 0-289.458-140.893-289.458-291.72 0-96.924 44.78-166.16 79.28-214.175-348.99 92.717-606.157 410.813-606.157 788.938 0 450.856 365.503 816.358 816.334 816.358 450.857 0 816.336-365.5 816.336-816.357.002-378.128-257.164-696.22-606.13-788.938zM483.04 1550.337c-90.218-103.813-148.015-228.638-159.137-384.384v-304.05c0-44.203 17.092-102.788 80.778-102.788h61.663c30.818 0 81.2 9.255 81.2 77.068v678.206c0 55.51-34.842 70.105-64.502 35.947zm160.112 142.73c-49.776-28.45-93.98-63.98-133.317-106.915 0 0 14.726 5.205 31.24-4.523 17.512-10.336 23.56-34.37 23.56-47.728v-309.967c16.986 0 30.16-18.854 30.16-35.396V917.356c0-24.85-14.725-35.946-29.792-35.946V760.165h127.4V881.41c-14.095 0-29.82 14.412-29.82 35.947v270.576c0 19.302 11.177 35.998 24.693 35.998v435.317c0 28.798-22.562 46.127-44.124 33.82zm217.672 82.856c-70.97-11.097-127.82-34.92-188.458-67.447 0 0 30.317-5.52 30.317-36.862v-447.678c17.117 0 34.922-16.25 34.922-36V917.36c0-23.77-14.7-35.944-28.77-35.944V760.17h137.71v121.246c-14.884 0-40.075 12.175-40.075 35.944 0 11.31-.184 256.563 0 266.846.396 24.03 1.21 40.046 26.53 40.046 24.667 0 27.927-11.438 27.927-37.996v-88.036h58.562v627.825c0 33.944-25.77 55.006-58.666 49.878zm235.5 6.18c-34.605 5.63-64.555 6.995-97.713 6.995-29.03 0-70.894-1.71-98.816-5.02 0 0 34.867-8.415 34.867-55.195V1223.94c14.647 0 22.588-15.385 22.588-36 0 0 .736-252.093 0-270.576 0-21.38-14.28-35.946-49.304-35.946V760.96h253.803v197.268h-64.503v-39.812s-3.05-38.022-25.664-38.022c-27.77 0-32.134 18.224-32.134 41.862 0 3.497 0 30.95-.025 61.925h64.004v88.378H1039.4c0 46.2 0 106.075.052 110.282.42 25.85 1.185 42.915 26.585 42.915 24.638 0 27.87-11.99 27.9-42.915.023-39.05 0-83.854 0-83.854h66.786v613.468c0 38.016-28.057 63.732-64.397 69.65zm354.433-227.637c-1.024 51.38-4.706 66.263-16.04 76.544-33.842 30.766-58.53 46.598-101.473 71.366 2.18-1.763 8.388-11.23 7.545-60.585v-545.65c0-23.587-9.94-40.02-27.583-40.02-21.563 0-27.374 18.48-27.374 35.94v95.874c0 21.563 20.853 36.84 37.973 36.84l.024 429.323c0 31.896-8.336 59.794-29.896 69.022-40.68 17.46-96.373 37.996-140.39 48.225 0 0 23.85-15.487 23.35-83.303-.105-14.383 0-447.677 0-464.11 16.276 0 32.868-15.382 32.868-35.998V918.41c0-21.247-18.326-36.998-29.793-36.998V760.165h180.857c36.97 4.076 63.188 17.407 63.188 70.892V944.1c0 13.357 4.13 48.277-13.358 62.66-17.46 14.41-14.382 13.36-14.382 13.36s25.688 12.33 25.688 42.147v125.35c0 20.063 11.492 36.314 28.794 36.314v330.536zm90.402-643.26v62.688c0 10.28 6.39 16.54 15.436 23.613 14.357 11.333 88.354 70.917 88.354 70.917 8.204 9.258 26.716 18.514 26.716 53.434 0 28.793 4.63 122.063-35.974 218.882-40.07 95.583-86.3 170.522-169.523 263.03v-501.424h67.813v96.558c1.024 36 57.506 31.868 57.506 5.18v-67.813c0-11.333 0-14.407-6.126-19.562-6.203-5.128-95.584-77.02-102.763-82.173-7.203-5.126-11.33-13.357-11.33-33.92V811.55c1.05-24.665 13.908-51.38 52.932-51.38h95.557c37.022 4.076 57.062 16.408 57.062 62.66v137.71h-79.148v-48.332c-.006-40.05-56.515-41.13-56.515-1.002zM401.63 913.598v280.174c0 45.31 63.69 43.23 63.69-2.05V911.547c-2.816-43.176-63.69-41.126-63.69 2.05zm887.808-2.208v50.804c0 36.182 50.934 34.523 50.934-1.657 0-32.896 1.396-29.424 0-50.75-2.474-37.84-50.934-36.21-50.934 1.603z"/><path fill="#E56B1F" d="M1000.346 119.983c-59.585 148.515-151.854 205.34-151.854 311.73 0 72.707 60.03 143.466 151.854 143.466 91.797 0 151.855-70.76 151.855-143.468 0-106.39-92.27-163.214-151.854-311.73z"/><path fill="#fff" d="M1000.346 31C465.87 31 31 465.818 31 1000.32s434.87 969.372 969.346 969.372c534.504 0 969.346-434.87 969.346-969.372S1534.852 31 1000.346 31zm0 1911.005c-519.25 0-941.657-422.407-941.657-941.685 0-519.228 422.405-941.658 941.656-941.658 519.227 0 941.66 422.432 941.66 941.658 0 519.278-422.435 941.685-941.66 941.685z"/><path fill="#003876" d="M1052.778 103.81L1156.8 267.974c44.414 70.128 51.935 128.66 51.935 160.77 0 123.56-109.52 205.05-208.39 205.05-98.844 0-208.39-81.49-208.39-205.05 0-32.108 7.52-90.642 51.934-160.77L947.94 103.81c-471.604 27.112-845.68 418.148-845.68 896.51 0 496.06 402.08 898.14 898.085 898.14 496.007 0 898.113-402.08 898.113-898.14 0-478.362-374.073-869.398-845.68-896.51zm-52.432 1712.87c-450.83 0-816.333-365.5-816.333-816.357 0-378.125 257.167-696.22 606.157-788.938-34.5 48.015-79.28 117.25-79.28 214.174 0 150.828 127.532 291.72 289.458 291.72 161.927 0 289.458-140.893 289.458-291.72 0-96.924-44.754-166.16-79.253-214.175 348.965 92.717 606.13 410.813 606.13 788.938 0 450.856-365.48 816.358-816.337 816.358zm-313.07-157.428v-435.316c-13.518 0-24.692-16.696-24.692-36V917.36c0-21.534 15.727-35.944 29.82-35.944V760.17h-127.4v121.246c15.066 0 29.792 11.097 29.792 35.944v271.184c0 16.54-13.174 35.395-30.16 35.395v309.968c0 13.356-6.05 37.392-23.562 47.727-16.515 9.73-31.24 4.523-31.24 4.523 39.34 42.938 83.542 78.465 133.318 106.914 21.562 12.302 44.124-5.027 44.124-33.82zm232.214 66.79v-627.825h-58.563v88.036c0 26.56-3.26 37.996-27.926 37.996-25.32 0-26.136-16.014-26.53-40.047-.184-10.282 0-255.537 0-266.844 0-23.772 25.19-35.947 40.074-35.947V760.166H708.838v121.247c14.068 0 28.768 12.175 28.768 35.946v270.575c0 19.748-17.804 36-34.92 36v447.676c0 31.344-30.318 36.864-30.318 36.864 60.637 32.526 117.486 56.352 188.458 67.446 32.894 5.13 58.663-15.93 58.663-49.878zm241.23-627.062h-66.787s.025 44.808 0 83.854c-.027 30.924-3.263 42.915-27.898 42.915-25.4 0-26.164-17.067-26.586-42.916-.053-4.207-.053-64.082-.053-110.282h64.027v-88.377h-64.003c.025-30.976.025-58.428.025-61.925 0-23.64 4.364-41.863 32.135-41.863 22.613 0 25.664 20.563 25.664 38.023v39.81h64.503V760.955H907.944v120.458c35.023 0 49.304 14.565 49.304 35.946.736 18.483 0 270.575 0 270.575 0 20.616-7.94 36-22.587 36v504.944c0 46.78-34.866 55.194-34.866 55.194 27.925 3.314 69.787 5.022 98.817 5.022 33.16 0 63.107-1.366 97.713-6.994 36.34-5.918 64.396-31.634 64.396-69.655V1098.98zm516.096-138.445V822.827c0-46.253-20.036-58.585-57.063-62.66H1524.2c-39.022 0-51.882 26.714-52.933 51.38v189.063c0 20.563 4.13 28.795 11.332 33.92 7.18 5.152 96.558 77.046 102.763 82.174 6.125 5.153 6.125 8.23 6.125 19.563v67.815c0 26.688-56.48 30.817-57.508-5.182v-96.557h-67.814v501.423c83.225-92.507 129.452-167.447 169.525-263.03 40.602-96.817 35.973-190.088 35.973-218.88 0-34.922-18.512-44.177-26.716-53.435 0 0-73.994-59.583-88.352-70.916-9.048-7.073-15.438-13.332-15.438-23.613v-62.687c0-40.126 56.51-39.048 56.51 1v48.33l79.15.002zM547.543 1514.39V836.186c0-67.813-50.382-77.068-81.2-77.068H404.68c-63.686 0-80.777 58.585-80.777 102.788v304.05c11.122 155.746 68.92 280.57 159.138 384.384 29.66 34.155 64.503 19.56 64.503-35.95zm-82.225-322.668c0 45.282-63.688 47.358-63.688 2.053V913.6c0-43.177 60.874-45.228 63.688-2.05v280.172zm956.645-4.102v-125.35c0-29.817-25.688-42.15-25.688-42.15s-3.078 1.053 14.382-13.357c17.487-14.384 13.358-49.304 13.358-62.662V831.06c0-53.483-26.22-66.815-63.188-70.893H1179.97v121.247c11.465 0 29.792 15.75 29.792 36.998v269.525c0 20.615-16.592 36-32.87 36 0 16.433-.104 449.727 0 464.107.5 67.815-23.35 83.303-23.35 83.303 44.02-10.23 99.71-30.765 140.392-48.226 21.563-9.228 29.896-37.127 29.896-69.02l-.024-429.324c-17.12 0-37.973-15.275-37.973-36.84v-95.872c0-17.46 5.812-35.944 27.374-35.944 17.645 0 27.582 16.434 27.582 40.02v545.65c.842 49.356-5.365 58.822-7.546 60.585 42.938-24.77 67.63-40.6 101.474-71.366 11.333-10.28 15.015-25.164 16.04-76.545v-330.528c-17.303 0-28.795-16.25-28.795-36.317zm-81.594-227.085c0 36.182-50.935 37.84-50.935 1.657v-50.804c0-37.813 48.463-39.44 50.934-1.604 1.395 21.327 0 17.856 0 50.75z"/></svg>