<?xml version="1.0" encoding="utf-8"?>
<!-- Generator: Adobe Illustrator 15.0.2, SVG Export Plug-In . SVG Version: 6.00 Build 0)  -->
<!DOCTYPE svg PUBLIC "-//W3C//DTD SVG 1.1//EN" "http://www.w3.org/Graphics/SVG/1.1/DTD/svg11.dtd">
<svg version="1.1" id="Layer_1" xmlns="http://www.w3.org/2000/svg" xmlns:xlink="http://www.w3.org/1999/xlink" x="0px" y="0px"
	 width="2000px" height="2000px" viewBox="0 0 2000 2000" enable-background="new 0 0 2000 2000" xml:space="preserve">
<path fill="#FFFFFF" d="M1000.346,58.663c-519.251,0-941.657,422.432-941.657,941.658c0,519.275,422.406,941.685,941.657,941.685
	c519.227,0,941.659-422.406,941.659-941.685C1942.005,481.095,1519.571,58.663,1000.346,58.663z M1152.201,431.712
	c0,72.708-60.059,143.467-151.855,143.467c-91.821,0-151.854-70.759-151.854-143.467c0-106.389,92.27-163.214,151.854-311.729
	C1059.931,268.498,1152.201,325.323,1152.201,431.712z M1000.346,1898.459c-496.006,0-898.085-402.079-898.085-898.139
	c0-478.363,374.076-869.398,845.682-896.509L843.891,267.973c-44.412,70.128-51.934,128.661-51.934,160.769
	c0,123.562,109.546,205.05,208.389,205.05c98.871,0,208.391-81.489,208.391-205.05c0-32.107-7.521-90.641-51.934-160.769
	l-104.023-164.162c471.604,27.111,845.681,418.146,845.681,896.509C1898.459,1496.38,1496.354,1898.459,1000.346,1898.459z"/>
<path fill="#FFFFFF" d="M1210.551,211.385c34.499,48.015,79.253,117.251,79.253,214.174c0,150.829-127.53,291.721-289.458,291.721
	c-161.926,0-289.458-140.893-289.458-291.721c0-96.923,44.781-166.159,79.28-214.174
	c-348.99,92.717-606.157,410.813-606.157,788.938c0,450.856,365.502,816.358,816.333,816.358
	c450.857,0,816.336-365.502,816.336-816.358C1816.682,622.195,1559.516,304.102,1210.551,211.385z M483.041,1550.337
	c-90.219-103.813-148.016-228.638-159.138-384.384v-304.05c0-44.203,17.092-102.788,80.778-102.788c49.329,0,61.662,0,61.662,0
	c30.818,0,81.2,9.255,81.2,77.068c0,67.844,0,678.206,0,678.206C547.543,1569.9,512.701,1584.495,483.041,1550.337z
	 M643.152,1693.066c-49.776-28.449-93.979-63.978-133.317-106.914c0,0,14.726,5.205,31.239-4.523
	c17.513-10.335,23.561-34.368,23.561-47.727c0-14.382,0-293.534,0-309.967c16.986,0,30.161-18.854,30.161-35.396
	c0,0,0-252.671,0-271.182c0-24.851-14.726-35.946-29.793-35.946c0-2.077,0-121.247,0-121.247h127.4c0,0,0,111.991,0,121.247
	c-14.095,0-29.819,14.411-29.819,35.946c0,11.307,0,260.319,0,270.576c0,19.302,11.176,35.998,24.692,35.998
	c0,8.202,0,426.086,0,435.316C687.276,1688.045,664.714,1705.374,643.152,1693.066z M860.824,1775.923
	c-70.971-11.097-127.821-34.92-188.458-67.447c0,0,30.317-5.521,30.317-36.862c0-14.387,0-431.243,0-447.678
	c17.117,0,34.922-16.251,34.922-35.999c0,0,0-252.064,0-270.577c0-23.771-14.699-35.944-28.769-35.944c0-2.077,0-121.247,0-121.247
	h137.708c0,0,0,111.991,0,121.247c-14.883,0-40.074,12.175-40.074,35.944c0,11.309-0.184,256.563,0,266.846
	c0.396,24.031,1.209,40.046,26.531,40.046c24.666,0,27.926-11.438,27.926-37.996c0-39.021,0-88.036,0-88.036h58.562v627.825
	C919.489,1759.989,893.72,1781.051,860.824,1775.923z M1096.323,1782.104c-34.604,5.63-64.554,6.994-97.712,6.994
	c-29.03,0-70.895-1.71-98.817-5.021c0,0,34.867-8.414,34.867-55.194c0-14.383,0-488.513,0-504.943c14.646,0,22.587-15.385,22.587-36
	c0,0,0.736-252.093,0-270.576c0-21.379-14.279-35.946-49.304-35.946c0-2.077,0-120.458,0-120.458h253.803c0,0,0,188.038,0,197.268
	h-64.503c0,0,0-22.352,0-39.812s-3.051-38.022-25.664-38.022c-27.771,0-32.134,18.224-32.134,41.862c0,3.497,0,30.949-0.025,61.925
	h64.003v88.377h-64.027c0,46.2,0,106.075,0.052,110.282c0.422,25.849,1.186,42.915,26.586,42.915
	c24.638,0,27.871-11.991,27.899-42.915c0.024-39.049,0-83.854,0-83.854h66.787v613.468
	C1160.721,1750.47,1132.663,1776.186,1096.323,1782.104z M1450.757,1554.466c-1.024,51.38-4.706,66.263-16.039,76.544
	c-33.843,30.766-58.532,46.598-101.474,71.366c2.181-1.763,8.388-11.229,7.545-60.585c0,0,0-521.985,0-545.651
	c0-23.587-9.938-40.021-27.582-40.021c-21.563,0-27.374,18.482-27.374,35.942c0,11.31,0,85.617,0,95.873
	c0,21.563,20.853,36.841,37.973,36.841c0,8.229,0.024,420.118,0.024,429.322c0,31.896-8.336,59.794-29.896,69.022
	c-40.681,17.461-96.373,37.997-140.391,48.226c0,0,23.85-15.487,23.35-83.303c-0.104-14.383,0-447.677,0-464.109
	c16.277,0,32.869-15.383,32.869-35.999c0,0,0-251.04,0-269.524c0-21.247-18.326-36.998-29.793-36.998c0-2.077,0-121.247,0-121.247
	h180.858c36.971,4.076,63.188,17.407,63.188,70.892c0,39.048,0,99.659,0,113.042c0,13.358,4.129,48.278-13.358,62.662
	c-17.46,14.41-14.382,13.358-14.382,13.358s25.688,12.332,25.688,42.148c0,29.792,0,109.94,0,125.35
	c0,20.063,11.492,36.314,28.794,36.314V1554.466L1450.757,1554.466z M1541.159,911.206c0,12.333,0,52.407,0,62.688
	c0,10.281,6.391,16.54,15.437,23.613c14.357,11.333,88.354,70.917,88.354,70.917c8.204,9.258,26.716,18.514,26.716,53.434
	c0,28.793,4.629,122.063-35.974,218.882c-40.071,95.583-86.301,170.522-169.523,263.029v-501.423h67.814v96.558
	c1.024,35.999,57.506,31.868,57.506,5.181c0-26.742,0-56.535,0-67.814c0-11.334,0-14.408-6.125-19.563
	c-6.203-5.128-95.584-77.021-102.763-82.173c-7.204-5.126-11.332-13.357-11.332-33.921c0-20.537,0-189.063,0-189.063
	c1.052-24.666,13.909-51.381,52.933-51.381h95.557c37.023,4.076,57.063,16.408,57.063,62.661c0,39.075,0,124.324,0,137.708h-79.148
	v-48.331C1597.668,872.157,1541.159,871.079,1541.159,911.206z"/>
<path fill="#FFFFFF" d="M401.631,913.598c0,0,0,237.054,0,280.174c0,45.31,63.688,43.231,63.688-2.051V911.548
	C462.504,868.372,401.631,870.422,401.631,913.598z"/>
<path fill="#FFFFFF" d="M1289.438,911.39c0,0,0,16.25,0,50.804c0,36.182,50.934,34.523,50.934-1.657c0-32.896,1.396-29.424,0-50.75
	C1337.898,871.947,1289.438,873.577,1289.438,911.39z"/>
<path fill="#E56B1F" d="M1000.346,119.983c-59.585,148.515-151.854,205.34-151.854,311.729c0,72.708,60.031,143.467,151.854,143.467
	c91.797,0,151.855-70.759,151.855-143.467C1152.201,325.323,1059.931,268.498,1000.346,119.983z"/>
<path fill="#FFFFFF" d="M1000.346,31C465.87,31,31,465.818,31,1000.32s434.87,969.372,969.346,969.372
	c534.504,0,969.346-434.87,969.346-969.372S1534.852,31,1000.346,31z M1000.346,1942.005
	c-519.251,0-941.657-422.407-941.657-941.685c0-519.228,422.406-941.658,941.657-941.658c519.227,0,941.659,422.432,941.659,941.658
	C1942.005,1519.598,1519.571,1942.005,1000.346,1942.005z"/>
<path fill="#003876" d="M1052.778,103.811l104.023,164.162c44.413,70.128,51.934,128.661,51.934,160.769
	c0,123.562-109.521,205.05-208.391,205.05c-98.843,0-208.389-81.489-208.389-205.05c0-32.107,7.521-90.641,51.934-160.769
	l104.052-164.162C476.336,130.922,102.26,521.958,102.26,1000.32c0,496.06,402.08,898.139,898.085,898.139
	c496.007,0,898.113-402.079,898.113-898.139C1898.459,521.958,1524.385,130.922,1052.778,103.811z M1000.346,1816.681
	c-450.831,0-816.333-365.502-816.333-816.358c0-378.125,257.167-696.219,606.157-788.938
	c-34.499,48.015-79.28,117.251-79.28,214.174c0,150.829,127.532,291.721,289.458,291.721c161.927,0,289.458-140.893,289.458-291.721
	c0-96.923-44.754-166.159-79.253-214.174c348.965,92.717,606.131,410.813,606.131,788.938
	C1816.682,1451.179,1451.203,1816.681,1000.346,1816.681z"/>
<path fill="#003876" d="M687.276,1659.252c0-9.23,0-427.114,0-435.316c-13.518,0-24.692-16.696-24.692-35.999
	c0-10.256,0-259.271,0-270.577c0-21.534,15.727-35.944,29.819-35.944c0-9.256,0-121.247,0-121.247h-127.4c0,0,0,119.169,0,121.247
	c15.067,0,29.793,11.097,29.793,35.944c0,18.513,0,271.184,0,271.184c0,16.54-13.174,35.395-30.161,35.395
	c0,16.435,0,295.585,0,309.969c0,13.356-6.048,37.392-23.561,47.727c-16.515,9.729-31.239,4.523-31.239,4.523
	c39.338,42.938,83.541,78.465,133.317,106.914C664.714,1705.374,687.276,1688.045,687.276,1659.252z"/>
<path fill="#003876" d="M919.489,1726.042v-627.825h-58.562c0,0,0,49.018,0,88.036c0,26.561-3.26,37.996-27.926,37.996
	c-25.322,0-26.137-16.013-26.531-40.046c-0.184-10.282,0-255.537,0-266.844c0-23.771,25.191-35.946,40.074-35.946
	c0-9.256,0-121.247,0-121.247H708.838c0,0,0,119.169,0,121.247c14.068,0,28.768,12.175,28.768,35.946c0,18.511,0,270.576,0,270.576
	c0,19.748-17.804,36-34.92,36c0,16.433,0,433.291,0,447.676c0,31.343-30.318,36.863-30.318,36.863
	c60.637,32.526,117.486,56.352,188.458,67.446C893.72,1781.051,919.489,1759.989,919.489,1726.042z"/>
<path fill="#003876" d="M1160.721,1098.979h-66.788c0,0,0.025,44.809,0,83.855c-0.027,30.924-3.263,42.915-27.898,42.915
	c-25.4,0-26.164-17.066-26.586-42.915c-0.052-4.207-0.052-64.082-0.052-110.282h64.027v-88.377h-64.003
	c0.024-30.976,0.024-58.428,0.024-61.925c0-23.64,4.364-41.863,32.135-41.863c22.613,0,25.664,20.563,25.664,38.023
	c0,17.459,0,39.811,0,39.811h64.503c0-9.229,0-197.267,0-197.267H907.944c0,0,0,118.381,0,120.458
	c35.023,0,49.304,14.565,49.304,35.946c0.736,18.483,0,270.575,0,270.575c0,20.616-7.94,35.999-22.587,35.999
	c0,16.435,0,490.563,0,504.945c0,46.78-34.867,55.194-34.867,55.194c27.925,3.313,69.787,5.021,98.817,5.021
	c33.158,0,63.106-1.366,97.712-6.994c36.34-5.918,64.396-31.634,64.396-69.655L1160.721,1098.979L1160.721,1098.979z"/>
<path fill="#003876" d="M1676.816,960.535c0-13.383,0-98.632,0-137.708c0-46.253-20.036-58.585-57.063-62.661H1524.2
	c-39.022,0-51.882,26.715-52.933,51.381c0,0,0,168.525,0,189.063c0,20.563,4.129,28.795,11.332,33.921
	c7.18,5.151,96.559,77.045,102.764,82.173c6.125,5.153,6.125,8.229,6.125,19.563c0,11.28,0,41.073,0,67.815
	c0,26.688-56.481,30.817-57.508-5.182v-96.557h-67.814v501.423c83.225-92.507,129.452-167.447,169.525-263.03
	c40.601-96.817,35.972-190.088,35.972-218.881c0-34.921-18.512-44.176-26.716-53.434c0,0-73.994-59.584-88.352-70.917
	c-9.048-7.073-15.438-13.332-15.438-23.613s0-50.354,0-62.688c0-40.126,56.509-39.048,56.509,0.999v48.331L1676.816,960.535
	L1676.816,960.535z"/>
<path fill="#003876" d="M547.543,1514.391c0,0,0-610.362,0-678.206c0-67.813-50.382-77.068-81.2-77.068c0,0-12.333,0-61.662,0
	c-63.687,0-80.778,58.585-80.778,102.788v304.05c11.122,155.746,68.919,280.569,159.138,384.384
	C512.701,1584.495,547.543,1569.9,547.543,1514.391z M465.318,1191.722c0,45.282-63.688,47.358-63.688,2.053
	c0-43.122,0-280.176,0-280.176c0-43.176,60.874-45.227,63.688-2.05V1191.722z"/>
<path fill="#003876" d="M1421.963,1187.62c0-15.408,0-95.558,0-125.349c0-29.818-25.688-42.15-25.688-42.15
	s-3.078,1.052,14.382-13.358c17.487-14.384,13.358-49.304,13.358-62.662c0-13.383,0-73.992,0-113.042
	c0-53.482-26.219-66.814-63.188-70.892h-180.858c0,0,0,119.169,0,121.247c11.466,0,29.793,15.75,29.793,36.998
	c0,18.486,0,269.525,0,269.525c0,20.615-16.592,36-32.87,36c0,16.433-0.104,449.727,0,464.107
	c0.5,67.815-23.349,83.303-23.349,83.303c44.018-10.229,99.71-30.765,140.391-48.226c21.563-9.229,29.896-37.128,29.896-69.021
	c0-9.204-0.024-421.095-0.024-429.324c-17.12,0-37.973-15.275-37.973-36.839c0-10.257,0-84.565,0-95.873
	c0-17.46,5.812-35.944,27.374-35.944c17.645,0,27.582,16.434,27.582,40.021c0,23.666,0,545.649,0,545.649
	c0.843,49.356-5.364,58.822-7.545,60.585c42.938-24.77,67.631-40.601,101.474-71.366c11.333-10.279,15.015-25.163,16.039-76.544
	v-330.528C1433.455,1223.936,1421.963,1207.686,1421.963,1187.62z M1340.369,960.535c0,36.182-50.934,37.839-50.934,1.657
	c0-34.554,0-50.804,0-50.804c0-37.813,48.463-39.441,50.934-1.604C1341.765,931.111,1340.369,927.64,1340.369,960.535z"/>
</svg>
