<svg xmlns="http://www.w3.org/2000/svg" width="227" height="222.446" version="1"><defs><clipPath id="a"><path d="M0 1732h1828V0H0v1732z"/></clipPath></defs><g clip-path="url(#a)" transform="matrix(.12888 0 0 -.12888 -.215 222.833)"><path d="M459.25 1638.5l133.083-4.833s76.417 13.083 95.75 14.083c33.167 17.25 102.167 45 163.25 49.917L884.5 1729l31.75-31.125c16.084.125 112.25-20.625 163.084-50.875 17.791-.25 95.916-12.75 95.916-12.75l133.25 3.75c-7.167-23.333-56.5-134-87-185.5l12.75-10.5c-1.583-16.333-18-106.75 4.417-128.833l-40.542 7.708c8.376-33.875 16.209-41.708 24.292-53.625l-19.25-23.083C1227.75 1232 1252 1207 1257.75 1173.5c32.251 7.5 57.917-9.5 76.75-37.75 0 0 20.625 66.5 24.25 72.5s81 15.25 90.75 11.5c7.408-2.849 73.001-52.612 73.001-62.25 0-2.325-1.768-6.099-3.126-9.938-2.187-6.178-4.375-12.437-4.375-12.437 9 .375 54.75-.875 64.75-5.875 4.991-2.496 56.25-58.11 56.25-66.75 0-2.877-12.105-27.806-12.5-28.5 0 0 48.5-9 60-17s34.75-65.25 34.75-74.25c0-6.1-17.75-28.75-17.917-32.583 6-.5 40.792-12.292 46.667-18.167 2.318-2.318 11.827-37.04 15.167-53.833.773-3.888.833-6.827.833-8.167 0-3.281-68.183-120.683-69.5-122-6.835-6.835-33.478-11.503-46.167-10.167 0 0-25.166-42.667-106.583-58.333 21.584 19.833 53.5 73.25 49.75 77 0 0-52.875 4-89 3.75 0 0-28.667-7.25-49.167-7.25s-43.333 4-67.999 13.999c-.508 0-8.001-1.333-15.501-2C1336.25 697 1316.419 685.784 1302 679c-16.545-7.786-55.782-19.382-85.333-29.667-42.842-14.91-64.298-25.514-67.479-27.396L1149 630l-29.5-.5c-35.817-46.099-36.234-45.824-60.25-83.25-2.862-4.461-6.243-8.096-8.25-11.75-.788-2.996.905-25.362-.666-54.667-2.505-46.7-8.123-74.672-29.334-109.333-1.79-2.926-2.938-10.382-6.167-20.667-3.145-10.017-8.307-22.733-14.666-35.333-8.543-16.926-19.249-33.229-28.167-47-9.246-14.277-16.577-25.764-18-28.5-4.833-22.667-6.5-50-6.5-50s34.75-39 70.75-39c24.581 0 80 13.25 80 91 0 20.949-4.331 58.361-11.833 79.667-2.558 7.266-6.219 13.125-9.917 19.333l7 .5-11.5 34 6.375-1.125L1078 398l9.375-3.125.625 26.625 7.5-3 5 24 10-15 8 10.5 8-20.5 6 5 5.625-20.875 6.125 3.5L1150 383.5l6 4 3.833-31.334L1165.5 361l-3.833-39.501L1167 325.5c0-33.5-2.573-82.497-9.667-104.833-9.201-28.97-22.696-55.248-41.833-74.167-34.034-33.648-76.531-44.667-96.083-44.667-44.482 0-74.667 28.417-74.667 28.417C942 123.75 938 50.5 938 38.5c0-14.758-14.169-18.691-18-20.5l-2.5-10.5s-4.5 3.5-4.5 9c-1 1.25-7.5 1.5-7.5 1.5-3.348-3.109-7.485-5.667-12.833-5.667C891 9.833 890 3 890 3s-4.75 3.375-4 10.75c-2.375-.25-8.375-.125-11.5 5.125-1.917-4.792-6.875-3.5-10.125-3.5-1.375-4-2.625-11.25-2.625-11.25s-4.708 2.666-4.583 14.041c-2.667 1.167-9.417 6.084-11.584 10.917-1.222 2.726-4.083 2.403-6.833-.333-.868-.863-4.083-.723-4.083-9.083-4.334 4.082-5.167 11.833-4.417 18.208 0 0-7.125 7.25-7.125 18S827 78.333 829 85.666c.5 3.084-9.5-6.166-9.5-6.166s-.75 17.875 19.5 27.499c4.5 14.001 13.667 28.668 22.167 39.834 1.833 20.5 9.833 56.5 13.166 70.833-19 31.333-40.5 91.501-43 110.501s-3.666-5.5-18.333-13.334c7.75-10.083 17-43.667 17-54.333 1.167-2.166 14.666-16.499 11.667-32.5 0 0-5.167 8.999-7.834 8.999-2.666 0 6.5-32.667 5.167-42-1.333-9.333-11-10.166-13-13.499s-2.667-11-2.667-11-3.333 2.834-3.833 8.667c-.165 1.922-3.305 2.481-4.833 1.999-2.548-.805-2.375-3.115-5.334-4.5-2.958-1.385-8.333-1.667-8.333-1.667-2.333-1.666-4.333-10.666-4.333-10.666-8 7.166.166 11.833-9.834 11.833-3.833 0-5.759-4.371-7.333-5-1.667-.667-7.5-1.791-9.75-.666-3.375-6.25-3.125-9.875-3.125-9.875-4.75 4.25-4.375 11.5-4.375 11.5s-3.333-.084-6.125 2.125-4.5 5.5-4.5 5.5-2.5-1.688-4.562-1.875c-2.063-.188-4.73.458-4.73.458-.5-3.75-2.666-8.416-2.666-8.416-3.834 3.916-3.667 9.75-3.667 9.75s-11.875 5.458-11.875 33.958c0 11.75 7.542 17.375 11.542 26.708 1.98 4.622 4.367 16.447 8 32.167 7.598 32.887 7.767 37.631 6 41.166 0 0-13.734 6.951-26.334 28.334-22.684 38.499-30.666 105.362-30.666 145.333 0 20 2.333 17.666 2.333 25.666-12.667 42-69.333 104-80.667 123.334-4 .666-17.333 2.666-17.333 2.666l.167-12.832C512.062 664.195 465.17 674.082 448.5 681.5c-20.956 9.326-36.285 22.216-48.167 38.166C396 719.167 381 720.999 377 722.999 328.5 710 294 712.5 261.437 720.25l-87.104-4.584c2.667-10.999 41.25-70.416 49.917-75.749C170 650.75 139.75 671.5 119 698.333c-1.983-.446-40.543 3.168-44.667 8.666-4.969 6.626-72.666 120.909-72.666 122 0 12.043 14.583 57.751 17.458 63.126C20.896 895.437 43.34 905.298 65.5 911c0 0-17.833 24.666-17.833 32.666 0 11.352 29.705 69.081 32.458 71.834 7.667 7.667 61.625 18.875 61.625 18.875s-12.083 20.292-12.083 27.625c0 9.07 46.041 61.674 57.333 67.833 7.333 4 64.312 5.542 64.312 5.542-1.592 2.104-8.913 19.687-8.312 22.291 2.694 11.672 66.649 60.385 74.667 62.167 10.962 2.437 80.979-4.586 88-9.5 4.06-2.842 31.5-96.166 33.333-101.333 25.614 25.613 49.5 36.167 73.667 36.667-7.042 23.458-4.667 69.083 53.083 98.083L545 1266.5s15 12.875 24 53.833l-40.5-8.583c15.5 19.917 12.604 34.802 12.5 52.5-.148 25.162-3.829 50.011-6.667 77.75l12.5 10.833C503.667 1533 459.25 1638.5 459.25 1638.5" fill="#002f5d"/><path d="M814.5 1269.5l-58.917 57.5-6.083-5.625 25.125-26.625c-15.125-14-30.875-30-30.875-56.75 0-17.372 5.39-46.937 34.5-58.5 7.966-3.164 18.21-4.25 30-4.25 38.875 0 64.5 15 66.75 17.25l.25 9s-38.917 32.833-60.75 68M993 1294l26.25 28.25-6.25 5.917-50.5-57.667c-10.833-21.833-70-68.5-70-68.5l.125-9.125S917.5 1175.5 959 1175.5c10.464 0 19.747.322 27.834 2.833 23.986 7.451 37.166 29.5 37.166 60.167 0 32-22 49.167-31 55.5" fill="#fff"/><path d="M1141.75 1348.375l-11.125-5.313L1151.5 1407l-35 43.75 20.75 11.625L1173 1413s-30.25-59.5-31.25-64.625M967.833 1483.5L941.5 1456l-8 9.5 30 49-17.5 65.75 8.25 12.5 52.833-73.833 26.25-21.917-65.5-13.5zm253.168-45.5l-35.334 26.667 12.5 21-35.167-4 30.833 34.5-39.499-17.5s-79.667 124.333-89.667 143c-49.557 28.768-151.396 45.844-154.334 46l-26.333 25-17.25-16.417 14 3 22.5-22.5s61.25-12.25 75.084-24.417c-2.178.208-7.59.132-14.709.542-15.764.907-38.921 2.458-46.958 2.458-11.667 0-30.959-1.5-32.292-6.833-1.333-5.333.625-8.167.625-13.833 0-5.667-1.333-5.334-1.333-12.334 0-9.458 5.208-17.083 11.333-21.833l-16-36.833L894.667 1543l-4-116.333 12.333-13-19.667-32.334-18.666 32.334 12 12.666-8.334 111.334L844 1558.333 865.333 1593l-20 36.333-31.666-37.666 8.666-12-17.666-65.334 30.208-48.958-8.125-9.75L801.667 1484l-134 9.667-4 15.333 28.666 22.667-10 12.333-40.166-28.167L650 1483.5l163.333-36.167 10.917-31.583 23-3.25L816 1390l45.333-31-3-4-34 13-12.5-13.333 39.334-29.834L847 1321l-28 13-28.5-24.667L806 1300l78.25-29 78.25 28.5 21.75 17-22.5 20.875-41-16.375-3.75 3.75 46.75 34-11.5 12L909 1355l-2 4 45 31.5-31.25 22.5 22.75 3 10.25 31.25 147.5 32.5v-10.5l-35.25-16-20.666-45.583L966.667 1382l22-23.667L976 1348.5l34-28 21.5-13.5s34-31.333 34-66.667c0-94.333-86.666-87.5-86.666-87.5l-2.334-13.666L982 1135l49.333 16-2-11-18.666-16c-6-12.667-36-104.333-36-104.333l.666-2.667 45.874-2.057c5.808 19.355 10.155 37.377 12.665 49.712 1.64 8.056 2.495 13.686 2.461 15.678L1207.667 1268c-5 3.333-21.666 39.667-25.333 67.667l34.999-6.5c-8.583 36.583 3.668 108.833 3.668 108.833" fill="#d69c05"/><path d="M630 1359.667l-11 4-24.333 48.667L648 1469.666l18-.416 35.667-16.583 20-45 79.666-26-22.833-23.417 13.167-9.25c-8.837-7.447-20.289-17.841-30.917-25.75-8.815-6.558-12.029-7.641-16.187-10.5-14.257-9.802-42.063-36.73-42.063-74.25 0-43.417 22.844-85.833 85.5-85.833.402-1.428 1.126-6.691 2.806-14.137 4.595-20.361 16.341-57.036 48.194-76.196-27.667.5-53.312 72.916-53.312 72.916l-49.063 15.875 1-10.25 19.708-17.541c11-26.667 34.917-102.46 34.917-102.46l-18.083 15.46L748 1120s-27.75 16.25-42 52.75c-8.75 8-24 30.25-24 63.25 0 25.57 8.684 50.764 22 71 12.375 18.806 29.333 31.334 39.5 44.417l-.333 10.417-27.834 9.665-23.833 62L662 1452l-45.5-45.5 13.5-46.833zM620.125 1561.583L639 1555l37.5 60-56.375-53.417z" fill="#d69c05"/><path d="M1033.872 1064.655c-6.452-31.712-25.05-101.01-49.372-133.905l-11.333 14.916c-2.917-7.917-15.834-37-26.167-45.416 0 0-7.25 6.75-14.875 20.625-2.125-7.25-14.25-25.875-19.125-31.5l-13.75 19.875-17.292-28.959-16.542 29.584c-3.04-3.25-14.854-21.125-14.854-21.125l-18.03 30.281S819.624 900.875 817 899.875c-4 4.625-13.75 15.75-25.625 44.625-7.75-8.125-11.875-14.25-11.875-14.25-3.875 5.416-8.086 12.294-11.75 20.125-17.136 36.626-31.25 94.125-32.417 107.541l10.25-19.583L750.5 1055l18-32 7.075 16.646 16.675-18.77S791 1013.25 791 1005c0-4.697.631-11.957 1.5-19.667C794.746 965.395 803.268 944 845 944c21.833 0 25.25 3.25 39 3.25s18-3.25 37-3.25c18.561 0 27.15 2.388 36.751 8.5 16.453 10.472 18.75 27.947 18.75 50.5 0 11.791-1.168 14-1.168 14 8.167 6.625 13.167 19.25 13.167 19.25s4.5-9.25 4-15.5c2.251 2 16.25 35.5 16.25 35.5 4.375-3.125 6.25-13.25 6.25-13.25 3 .125 12 11 18.872 21.655M1030.167 1354.667l37.833 2.583 27.667 41.084-14.667 18-27.833-44.334-28.667-10.166 5.667-7.167zM1048.75 1554l7.625 10.875 69.208-49.292-2.25-19.416L1100 1493.5l4.5 15.5-55.75 45zM556 1460.75l8 6.5-21 36.5 26-3.5-28 31.5 8.5 11 58.5-26 5.5 8.75c-57.75 23.5-102.25 58.25-124.917 77.333-.25-4 55.417-125.583 67.417-142.083M1153.5 1525.25l6-9 58.917 26.417 8-11-27.917-31.417 26.125 3.75-21.125-36.25 9-6.5c14 23.5 61.5 127 66.25 141.563-11.667-10.25-58.25-50.063-125.25-77.563M797 1154.875c0 1.333 5 5.625 15.5 5.625 15.75 0 17.5-3.417 17.5-5.5s-8.75-60-4.25-71.5c-18 22.75-28.75 57.5-28.75 71.375M941.5 1084c19.667 19.333 28.834 62.5 28.834 71.167 0 4-6 5.833-14.5 5.833-6.834 0-19.167-2.667-19.167-5.5 0-3 8.167-36.667 4.833-71.5M915 1126c3 0 6.625 18.625 6.625 32.5 0 7.25-17.875-1.25-17.875-5.25s7-13 11.25-27.25M893.75 1132c2.75 0 6.917 17.917 6.917 22.917S885.5 1160 885.5 1155s5-23 8.25-23M873.5 1131.875c2.25 0 7.375 17.75 7.375 23.25s-15.5 4.25-15.5-.375 5.5-22.875 8.125-22.875M851.5 1126.25c2.75 3 10.5 23.375 10.5 27.375 0 5.125-8.875 7.625-12.75 7.625s-4.875-3.75-4.875-6.5 4.75-28.5 7.125-28.5" fill="#fff"/><path d="M840 964c3 0 4.667.333 4.667 3S828 1006.25 823 1032.333c-4.25-8.333-5-24-5-29.333 0-5.333.667-24 3-30s14.333-9 19-9M922.25 967.75c0-3 4.25-3.75 6.25-3.75s13.25 1.5 17 7c1.834 3.5 3.75 24.25 3.75 32.75s-2 22-4.75 28.5c-5.25-29.75-22.25-64.5-22.25-64.5M910.167 984.5c-2 0-7.167-11.875-7.167-16.5 0-2.766 4.427-3.697 7.5-3.667 3.409.034 5.5 1.301 5.5 3.667 0 2.375-3.666 16.5-5.833 16.5M892.5 984.333c-2.167 0-7-13.167-7-17s13-5.667 13 .333-4.667 16.667-6 16.667M875.5 984.25c-1.5 0-6.5-13.625-6.5-17.25s12.625-5.25 12.625-.5-4.625 17.75-6.125 17.75M857.625 984.375c-1.375 0-6.75-14.125-6.75-16.875S864 963 864 967s-3.625 17.375-6.375 17.375" fill="#fff"/><path d="M885 1256.25L821.5 1280c0-2.421 8.598-13.437 19.671-25.382.47 5.283 5.829 5.715 5.829 5.715 6.119 0 22.833-8.409 22.833-24.5 0-1.542-.128-4.846-2.846-5.857 3.242-2.615 6.33-4.869 9.114-6.558L884.75 1252l8.871-28.734c2.846 1.714 6.016 4.038 9.345 6.752-1.656 1.865-2.966 4.196-2.966 6.482 0 12.5 14 24.5 21 24.5 0 0 5.962-.168 8.181-5.489 10.519 11.652 18.569 22.322 18.569 24.989L885 1256.25zM891.667 1067.333c-1-8.667-.333-47.667-6.667-60.667-8.666 15-6 45.334-8 58.334s-10.666 29.666-10.666 42.333L884.667 1087l16 21c0-18.334-8-32-9-40.667m84.833 71.833c-16-67.166-43.833-70.333-49.5-77.166 14 33.5 3.333 74.666 2.667 81.666-4.333-24.666-17-35.333-17-35.333l-10 21.667-7.333-14-11.667 14.666L873 1117l-10.166 13.666L853 1108c-9.166 12.166-11.5 19.666-16 34.666-8.666-40.333 2-80.333 2-80.333-31.853 19.161-43.599 55.836-48.194 76.197l-5.118-3.28c5.312-37.584 23.229-122.667 23.229-122.667 1.52 13.587 7.461 35.501 15.417 48.417 10.166-48 22.333-75.334 22.333-75.334l10.333 12 10-10 7.334 10 9.333-10.333L893 998.666l7.667-11L910.334 999l10.333-13.667s15.083 34.917 22.666 80c8.333-18.333 15-52.667 15-52.667C963.999 1027 982 1135 982 1135l-5.5 4.166zM884 1185.5s-12.25-14.5-25.75-19.25h8.786c1.071 1.256 3.335 2.125 5.964 2.125 2.629 0 4.893-.869 5.964-2.125h8.947c1.071 1.256 3.335 2.125 5.964 2.125 2.629 0 4.893-.869 5.964-2.125h8.536c-13.5 6-24.375 19.25-24.375 19.25" fill="#c8213f"/><path d="M1013.55 1444.1c1.984-3.118 3.117-6.393 3.117-9.35 0-13.3-11-24.083-26.167-24.083-9.937 0-18.701 4.629-23.563 11.562l-2.93-9.205c6.486-5.722 15.51-9.274 25.493-9.274 21.167 0 35.75 13.879 35.75 31 0 3.998-.883 7.815-2.471 11.325l-9.228-1.974z" fill="#fff"/><path d="M971 1435l-.225-.704c.276-9.453 8.991-17.046 19.725-17.046 10.907 0 19.75 7.835 19.75 17.5 0 2.947-.831 5.72-2.283 8.156L971 1435z" fill="#c8213f"/><path d="M1006 1428.333a4.418 4.418 0 0 0-8.834 0c0 2.44 1.978 3.833 4.417 3.833s4.417-1.393 4.417-3.832M800.392 1421.864c-4.488-6.729-12.517-11.198-22.277-11.198-15.167 0-27.602 10.783-27.602 24.084 0 3.698 1 7.088 2.75 10.056l-8.205 1.755c-1.732-3.64-2.693-7.628-2.693-11.81 0-17.122 16.006-31 35.75-31 10.299 0 19.032 3.291 25.292 8.637l-3.015 9.476z" fill="#fff"/><path d="M796 1435.667l-36.056 7.71c-1.634-2.546-2.58-5.486-2.58-8.627 0-9.665 8.843-17.5 19.75-17.5 10.326 0 18.789 7.025 19.663 15.974l-.777 2.443z" fill="#c8213f"/><path d="M787.25 1430.125c-2.439 0-4.417-1.394-4.417-3.833a4.418 4.418 0 0 1 8.834 0c0 2.439-1.978 3.833-4.417 3.833" fill="#fff"/><path d="M1275 1240l-3.5-13-286-39.5s-4.499-5.667-7.833-5.667c-3.334 0-5.667 4.5-5.667 8.334 0 3.833 5.167 13.666 11 13.666 5 0 5.334-4.5 5.334-4.5L1275 1240zM986.375 1218.75c-3.125 0-8.25 4.375-8.25 12.25 0 4.375 3.25 10.75 7.875 10.75 2.875 0 5.25-3.375 5.25-3.375l301.917 74.958-1.833-13-299.396-74.458s-.813-7.125-5.563-7.125M991.084 1257.667c-5.875 0-11.084 10.083-11.084 14.27 0 4.188 2.688 8 5.625 8 2.938 0 5.959-3.187 5.959-3.187l319.083 124.583-1.333-13.5-313.167-122.167s.792-8-5.083-8M599.065 1225.438L494.25 1240.25l3.75-13.5 114.407-15.71-13.342 14.398z" fill="#002f5d"/><path d="M612.407 1211.04l76.86-10.556-2.29 12.532-87.912 12.422 13.342-14.399z" fill="#fff"/><path d="M785.167 1204c-4.333 0-6.083-4-6.083-4l-92.106 13.016 2.29-12.532L782 1187.75s4.334-5.833 8.167-5.833 4.833 5.583 4.833 7.75c0 4.75-3.416 14.333-9.833 14.333M572.226 1289.661l-96.476 24.09 2.5-13.5 88.758-22.004 5.218 11.414z" fill="#002f5d"/><path d="M567.008 1278.248l117.288-29.075 2.73 11.825-114.8 28.664-5.218-11.414z" fill="#fff"/><path d="M782.25 1241.875c-3.25 0-5.625-3.25-5.625-3.25l-89.6 22.372-2.729-11.824 90.454-22.423s2.5-8.75 7.25-8.583c3.333 0 7 8 7 11.833 0 3.167-.5 11.875-6.75 11.875M782 1279.875c-2.5 0-5.375-2.375-5.375-2.375l-73.561 28.673-4.955-11.079L771 1266.5s1.125-9.25 5.75-9.25 10.25 11.125 10.25 15c0 1.75-.375 7.625-5 7.625M553.088 1364.631l-94.588 36.87 1.5-13 92.913-36.45.175 12.58z" fill="#002f5d"/><path d="M552.913 1352.052l145.196-56.958 4.955 11.079-149.976 58.459-.175-12.58z" fill="#fff"/><path d="M589.667 1205.667l-.333 9.333L717 1075.334c5.955-32.98 12.48-57.733 19.334-80 15.359-49.895 29.469-73.503 49.333-92.667L788.334 916s13.333-23 32.666-40.333c2.5 4.083 9.5 19.083 9.5 19.083s18.25-28.75 23.75-32.5l9.5 21.25 18.5-29.75L900 883.5l10.75-22 22.75 33.25 8.875-20.125c23.25 22.875 30.875 38.25 32.25 41.125 2.875-2.875 2.25-12.875 2.25-12.875L992.125 917s9.287 10.927 19.375 31.5c11.333 23.11 29.75 79.25 38.167 125.5L1188 1226l29-20.666 20.333-36.334L1114 1040.667l-8.333-26.667c50.667 47 163.333 129.334 163.333 129.334l47.667-36-28.333-96-53.667 18.333L1170 972.334l18-9.667s-23.333-36-26.666-37.667l18.666-.333-46.5-83.167 12 106-93-119-339.397-1.588-86.728 120.463L647 838.667 598.5 921.5l14.5 2.167-30.75 42.583 19.25-.25-51 67.25 10 14.75L680 951.5l-105 148.25 10.25 19.75L723 1013l-18 43.333-115.333 149.333zM880 422.999l46 59-11.667-1 47.334 57.334-28.333-4.334 128.666 174-68.333-62L987 667.666l-61-73.667-9.666 22.667-34.001-44.667-30.333 44-10.667-21.666-63.666 72.666 35.666-64.333-55.666 38.333L815 572.333l-43.667 20 53.334-56.667-25.334 3 48-55.667-20.333 5 53-65zM802.667 315l-10 1.333-27 77L781.334 389 763 423l23.667-7.667-18.333 34.334L789.667 440l-7.333 40 27-46.333 5.333-41.334-12-77.333zM1008.5 526s12-35.5-13.5-174l-67-122.5-4.5 27.5 12 41 3.5 14.5 11 4.5-5.5 20 2 55 9.5 8-2 19.5-.5 27.5 55 79zM907.667 130.667L926 158V48.667l-11.666-6.5L905 52.333l-3.666-13.666-15-.667-5 14-7-13.667-13.667 1.334-2.334 17L849 45.333l-9.666 8V61L910 86l-2.333 44.667zM828.333 207.5s-19.333 71-21.833 75l-11.75-14 6.75-31.75-65-30.25v-8l11.5-4.75 9.25 10.5 3.5-14.75 15.5-1 6.25 14 7-10.25 15.75 3 .75 16 10.5-9.75 11.833 6zM1084.25 136l1.957 7.093c14.155 13.136 26.793 35.573 26.793 35.573l2.667 21.333 6-17 2 45.667 9-27.667 6.667 34.334 3.333-22.334 10 23.334c-1.666-14.5-8.181-29.035-15.667-44-11.336-22.662-24.764-39.675-38.907-52.256L1084.25 136zM1100.667 751.333l81.666 101.334h-11.666L1194 877l11.333-20 3.667-2.333c1.375-12.146 2.233-29.657 17.167-54.668 6.788-11.368 16.646-23.093 30.5-38.666C1253.333 794 1255 821 1255 821l21 1 7-16.334L1327.333 767l-40.666 10.333 13.333-20-32.333 1L1285 746l-39.667-15L1183 749.333l23.333-30.667-58 7L1173.667 700 1137 682.333l-20 27.333-16.333 41.667z" fill="#d69c05"/><path d="M1207.334 882.333L1197.667 897l12.667 51.666 37.333 28.667 44-16.332 2 6.666 7-2.666 14.667 33s7.416-13.75 36.667-35.334c0 0 4.749-27.666-21.501-114.416 9.25 7.75 67.25 55.5 85.834 108.083L1423 958s5-27.5 27-40c1.333-66-28.667-108.667-41-133 27 16.333 81 45 112 105.5.375-5.375-4.5-28-1-37.5 1.785-4.847 11.16-11.958 16.5-20.5 2.5-4 3-13 3-16.5s-13-53.5-21-62l-12.5 3-17-22s-22.5-9-38.5-9c-9.559 0-23.554.909-36.75 4.25-18.369 4.649-22.25 8.25-38.25 13.25l-81.166 70.583L1284 838.5s-23-5-26-3 12 61 32 106c-31.5 4-88.5-3.5-82.666-59.167" fill="#d69c05"/><path d="M1351 983c-3.5 7-10.667 14.667-10.667 28-4.333 11 32.167 70.5 90.667 81.333l8-34.333s4.667 38.333 0 49c-6 3.5-43.667 4-43.667 4l-7.166 15.833 21.5 68.334S1450.5 1203 1453 1202.5s55-42.5 55.5-44.5c.169-.675-6.165-21.069-16-47-19.297-50.881-47.5-118-49.5-130l-20-8s17.5 46 5.5 104.5c-40.5-4-83.5-54-83.5-68.5 0-8.5 7-17 6-26M1535 1110l43 4s43-46 45-52-75.5-149-75.5-149-13-4-18-2c0 0 13.5 38 6 84-49.5-6.5-82.5-49.5-82.5-49.5l3.5 13.5c21.5 27.5 54 51.5 86 51 2.5-9 5.5-36 5.5-36s4.5 2 4.5 49.5c-17.499 8.167-44.166 5.833-44.166 5.833l-5 10.667 31.666 70zM1617.334 948l-1.333 11.667 20.666 44 43.334-3.667s23.332-45.333 25.666-55.333l-46.667-81-20.5-37.167s-3.001-4-17.667-4c0 0 18.834 47.833 17.501 87.167-70.834-8.834-94.501-47.834-94.501-47.834V850s-2.666 4.334-2.666 10.5c0 6.167 4 16.167 4 16.167l17.708 17.583S1601.334 927 1647 926c2.334-13.667 3.001-38.333 3.001-38.333s6 5 10.666 49c-18.333 9.666-43.333 11.333-43.333 11.333M1599.667 759.167s-1.334-7.667-2-8.167c0 0-1.833 2.499 0 9.333 0 0 3.146 4.329 8.5 9.5 14.749 14.241 52.083 39.167 85.5 31.167 4.333-6.417 1.999-33 1.916-32.75C1696.75 772 1708.25 801 1711 816.333c-20.499 9.667-36.75 11.417-36.75 11.417l-.75 11.75c2 3.334 23.5 42.75 27.5 42.75s27.5-3.75 37-5.75c1.334-4.666 11.5-34.75 12.75-43.25-15.5-29.75-59.25-104-67.5-117-4.75-2.25-17.5-5.25-24.917-4.584 0 0 22.334 22.667 28 79.334-47.999 2.167-79.833-24.167-86.666-31.833M588.25 690.75L626 725l23 48.5-68 76 16-1.5-25.5 29s-11-20.5-14.5-22c-.25-4.25-1.75-34.25-26.5-70l-21.375-24.125S514.5 811.5 510 823c-25.75-30.25-67.25-72.5-67.25-72.5L502 754l-14.75-21.25 53.5 7.25L523 717.75l65.25-27zM559.667 885.333l7 10.667-13 52.333L518 977l-51-17.334-16.666 38c-6.334-8.666-16.667-21-38-35 0 0-.555-16.62 3.166-38.666 4.154-24.617 12.982-55.974 20.5-78 0 0-65 48-86 110.5l-9 1.167c-.81-8.095-8.667-30.666-26.333-39.666 0 0 .413-24.04 8.333-55 6.756-26.411 20.334-54.667 31-76.334C317.5 804.5 264 846 244 890.5c0 0 2-19.5 2-27.75s-6.5-20.5-17.75-30.25c-.25-3-3-13.75-3.25-16s14.25-45.75 24-62l11.5 1 16.5-21s28-8.834 36-8.834 53.5 4.334 67 11.584c6.34 3.404 26.266 21.174 46.063 38.625A61247.567 61247.567 0 0 0 470.5 815l11 24s22.834-5.334 25.834-2.667S500.75 885.75 475.25 941.5c12 2.75 86.5 6 84.417-56.167" fill="#d69c05"/><path d="M404 1178s45.5-143.5 46.5-150.5-22.5-37-36-46c-.5 9 6 25.5 6 25.5-2.265 8.801-2.089 16.71-25.5 39.5-12.275 11.949-27.875 24.234-57.5 31.875-11.5-47.5 3.5-97.875 3.5-97.875s-36 52-5 115c36.667-8.167 64.333-34.5 64.333-34.5s-4.229 6.655-10.666 15.5c-10.435 14.338-28.104 34.563-53.667 42.5-1.5 6-23 57.5-23 57.5l14 9.5 77-8zM201 1101l59.75 2s46.75-118.75 49-127.25 18.25-11.5 18.25-11.5.5-12.25-11.5-27.25c-8.25 25-61.75 56.25-86.75 59-6.417-60 5.25-80.667 5.25-80.667s-3.197 3.461-6.333 11c-5.168 12.424-11.334 33.62-11.334 51.667 0 9.75 6.167 34.5 6.167 34.5s26-.5 62.5-23.5c-5.5 9.25-36.5 40.5-71.5 45.5l-18.167 41.5-5.333 9.667L201 1101zM152.333 1005L209 900.333s14-4.666 20-2.666c3.333-13.334 2-38.667 2-38.667s-6-12.001-10-13.334c1.166 4 .666 10 0 16 0 0-13.384 27.092-64.5 42.001-9.027 2.632-19.328 4.298-30.834 6C129 861.667 143 830.25 143 830.25S112 862.5 122.5 925c36.75-1 66.25-20.75 66.25-20.75s-31.75 36.5-74.5 39.5L93 979l6.5 13.5 52.833 12.5zM39.334 861.667L44 875.334l32.666 11.333S109.001 833 114.334 819c8.666-13.5 39-11.667 39-11.667S168.5 782.5 171.5 780c1.25-4.25 2.75-34 2.75-34s-3.25-5.5-5.75-6.25-.75 18.5-.75 18.5-31.25 33.5-88.75 32.5C82.75 742.5 107.5 710 107.5 710s-11.75 7.75-15.75 15.25S68 768.333 72.5 803.5c31 1.167 63.833-11.333 63.833-11.333-3.996 7.011-26.171 20.464-34.5 23.666-7.47 2.872-20.29 4.315-37.833 7.5l-24.667 38.334z" fill="#d69c05"/><path d="M835.333 399.667l-22 41-31 39.333L808 420.667l-10.667 3.666 10-28-16 5.667L806 365l-18.667 12 15.333-62 14.667 22.333 18 62.334zM720.333 764.666l-93.958 182.709L730 840.666l-39 97L750.667 881l-7.333 62.666c4-9 31.668-53.666 47-69l4 15.667c20-26.667 32-36 32-36L834.668 870l9.667-13.334 12.333-12 8 13.334 17-23.667 18 25L910 845l11.666 11 9.667 15.333s10-13.667 10-17c6 1 22.667 22 30.333 38.667 1-5.667 3.334-15.667 2.334-18.334 0 0 31.333 35 51.666 72.667l-5-66.667L1080 937l-38-95.667L1145.5 947.5l-94.166-181.834-10 35L994.667 706 982 734l-48.667-83.334-9.667 27.667-38-64-38 63.333-9.333-26.333L789.667 734l-13-27.667-46 95-10.333-36.667zM856.5 379l18 32.5 3.5-102S861.5 351 856.5 379M1008.5 526s-63-73.5-77.5-95.5l17.5-29H926l15-30.5-19-.5c1.625-4.125 25.167-51.084 25.167-51.084l-9.834-5.417s-17.916-66.417-24-79.333L928 229.5v25.166l8.166 8.166-2.499 21.501 10 8-4.334 15.666L954 313.333l-5.667 21.666 11.334 6-8 20 14.666 3-12.666 22.334 21 1.333-14 24.333h21l-16.334 35 15.334-5L1008.5 526zM1084.25 136l1.958 7.097a67.718 67.718 0 0 0-1.208-1.098c-31.667-28-72.666-28.666-86.666-27.666l10-5.667s6-.667 9.666-.667c22.743 0 52.744 7.762 80.076 32.067L1084.25 136z" fill="#fff"/><path d="M1097 357.5l14 47.5s5.5-49 3.5-69.5l10 12.25-.5-41-5 24.25-12.5-17.5v59l-9.5-15zM1114.5 304.75l-2.25-40.75 8 8-.25-22.75 10.25 8.5.25-20.25 6.5 37-9.5-6.25.25 22.25-9-8.75-4.25 23z" fill="#c8213f"/><path d="M1148.667 238.667l7.666 21.666 3 54.334L1152 310l6 40.667-10.333-10 2.666 39L1138 371l.333 23-9.666-9.667-6 29L1122 357l7.333 9.333 1.334-19.666 9.666 9.333-4-70.667L1149.667 296s-1.666-51.666-1-57.333M1326 830.5c-3.26-3.26 5.333-18.167 7-20.5 1.667-2.333 19.411-17.878 33.5-29.667 3.307-2.767 5.811-5.465 8-6.833 8-5 21.167-5.084 24.167-4.084S1389 806.5 1385.5 809.5s-56.5 24-59.5 21M1351.154 938.516a389.525 389.525 0 0 1-19.487 6.484c-4.666-9.333-9.333-84.668-5.333-89.334.322-.376 2.353-1.371 5.55-2.8 12.247 41.223 17.294 68.562 19.27 85.65M1418.444 790.639c5.218-10.716 10.25-20.662 12.89-22.973 3.42-2.991 43.421-8.998 72.922-12.923L1518.5 754c3.073 3.265 6.882 12.655 10.411 23.178-6.61 12.598-18.28 38.147-41.117 66.484-23.829-25.368-50.363-41.708-69.35-53.023M1415.408 796.898c11.04 19.996 26.782 48.567 32.473 87.23-14.52 12.048-31.498 23.751-51.41 34.353-21.365-31.308-50.15-56.826-61.894-66.803 18.431-8.028 61.675-25.356 67.757-30.678 2.382-2.084 7.595-12.784 13.074-24.102M249 754.5c20.685 1.677 79.19 7.601 87 15 2.951 2.795 6.632 11.368 10.787 20.883-21.563 11.647-47.448 30.312-68.766 52.358-13.681-17.315-27.291-38.103-40.504-63.252 3.718-9.432 8.04-19.103 11.483-24.989M369.083 917.723c-16.002-7.931-33.15-18.296-50.728-33.058A285.732 285.732 0 0 1 323 863c5.806-22.693 16.644-46.74 26.348-66.807 4.421 9.888 9.282 19.75 14.319 24.473 6.15 5.766 45.397 21.579 65.186 31.007-12.646 10.459-39.538 34.618-59.77 66.05M440 858c2.5 14.5-7.333 81.333-9 85.667-5.26-2.434-11.043-4.749-17.258-7.162A232.102 232.102 0 0 1 415.5 924c3.68-21.808 11.026-48.89 17.882-70.104 3.506 1.79 5.895 3.214 6.618 4.104M365.875 770.875C368.104 765.676 384.5 770 390.5 773c2.84 1.42 11.423 9.369 20.5 17.333 10.099 8.859 20.684 17.824 22 19.667 2.5 3.5 9 19.5 7 21s-30.5-6.5-60-20c-8-16.5-15.625-36.625-14.125-40.125" fill="#c8213f"/><path d="M90.813 780c-.334-18.333 19.812-96.459 111.813-127.125-10.876 13.375-40.626 52.458-46.293 98.792-2.5 13.666-54.167 30.166-65.52 28.333M137.667 897c-.333-18.333 9.083-119.5 114.083-167-10.875 13.375-41.75 70.75-41.416 128.333-2.5 13.667-48.334 36-72.667 38.667M239 982.667c-1.833-9.5-13.333-107.333 92.333-170.167-10.333 17-29.833 65.5-25 122.167-2.5 13.666-44.833 42.167-67.333 48M346.334 1064.667C343.625 1056.125 326 961 417 879.667c-10.334 26-21 86.333-8 128.667-4.334 22.666-40.167 50.5-62.667 56.333M1420 1064.5c2.709-8.542 20.334-103.667-70.666-185 10.333 26 19.666 86.167 6.666 128.5 4.333 22.667 41.5 50.667 64 56.5M1674.188 779.834c.333-18.334-19.814-96.459-111.814-127.125 10.875 13.375 40.625 52.457 46.292 98.791 2.5 13.666 54.167 30.166 65.521 28.334M1627.332 896.833c.334-18.333-9.998-116.5-109.331-163.167 10.875 13.375 38.332 63.334 36 123.334 2.5 13.666 48.999 37.166 73.331 39.833M1526 982.5c1.834-9.5 14.668-106.667-91-169.5 10.334 17 30 65.25 23.666 121.5 2.5 13.666 44.834 42.167 67.334 48M1239.167 924.333c13.559 6.188 28.734 6.961 34.834 5-23.334-61.667-30.001-82.417-30.001-137.75-20.88 25.068-25.745 60.385-26.5 83.917-.498 15.504.266 30.08 4.5 36.25 3.31 4.821 10.665 9.615 17.167 12.583M526.584 924.5c-13.559 6.188-28.734 6.961-34.834 5 23.334-61.667 30.001-82.418 30.001-137.75 20.88 25.068 25.745 60.385 26.5 83.917.498 15.504-.266 30.079-4.5 36.25-3.31 4.821-10.665 9.615-17.167 12.583" fill="#fff"/><path d="M97.5 771l7.5-.5s15.871-42.29 43-74.75c10.166-12.163 21.916-22.299 35-29.25 0 0-54.5 15.5-85.5 104.5M147.25 888.125l9.125-1.875s2.733-13.402 8.792-32.75c8.733-27.888 25.462-68.362 60-100.834 0 0-56.834 30.834-77.917 135.459M244.75 972.25l8-3.5c7.25-55.5 24.462-103.028 59-135.5 0 0-57.75 40.75-67 139M352 1054l8.167-4.5c.833-35.75-.917-90 37.5-141.833 0 0-51.167 46.083-45.667 146.333M1629.5 756.75l-8.25-3s-18-69.5-48.5-92.5c0 0 38.5 18 56.75 95.5M1571.5 864.75l-8.25-6.75s-2.25-79.25-32-111c0 0 38 24 40.25 117.75M1476.667 944.333l-7.167-5.5c-4.667-31.667-1.333-80.5-25.167-109.5 0 0 36.667 25.333 32.334 115M1374 1020l-6.25-5.5c1.083-25.5 9.583-76.25-9.167-115 0 0 33.417 37.25 15.417 120.5M1229.667 905l-7.666-9.667s4-57.666 16-83.333c0 0-10 45.333-8.334 93M536.667 904.667l7-9.333S542 841 528 810.667c0 0 10 39.667 8.667 94" fill="#d69c05"/></g></svg>