<svg xmlns="http://www.w3.org/2000/svg" xmlns:xlink="http://www.w3.org/1999/xlink" width="422" height="470" viewBox="0 0 422 470"><path fill="#fff" d="M27.93 246.817h355.14v78.163L205.5 453.307 27.93 324.98v-78.163zm0-220.547h355.14v209.576H27.93V26.27zM15.378 331.397l190.122 137.4 190.122-137.4V13.717H15.378v317.68z"/><defs><path id="a" d="M-345.27-346.93h6131.014v7934.26H-345.27z"/></defs><clipPath id="b"><use xlink:href="#a" overflow="visible"/></clipPath><path clip-path="url(#b)" fill="#fff" d="M334.008 124.45h-98.483V86.02h98.483v38.43zM212.25 69.12c3.26 7.61 8.928 25.666 8.928 59.286s-5.67 51.675-8.927 59.276h23.274V141.37h98.483v46.312h23.265c-3.248-7.602-8.918-25.656-8.918-59.276s5.67-51.675 8.918-59.286h-145.02zM77.013 170.777V128.4c0-33.62 5.66-51.674 8.907-59.275H53.724c3.253 7.602 8.912 25.656 8.912 59.276 0 33.63-5.66 51.67-8.902 59.287h129.168c2.127-3.346 8.208-14.254 9.61-29.702-7.375 5.03-22.765 12.792-48.45 12.792h-67.05zm122.064 206.646c-8.564 0-17.874-1.013-24.414-1.893 8.663 3.272 21.71 4.627 21.71 4.627-9.637 0-20.228-1.27-26.738-2.216 9.544 3.67 25.637 5.162 25.637 5.162-23.675-.642-37.69-4.158-37.69-4.158l-10.868-63.102 11 14.694c4.83-7.876 14.206-14.215 26.225-17.742l-3.317-8.086 17.014 7.646v-4.177l7.865-13.535 7.86 13.535v4.177l17.014-7.646-3.316 8.086c12.02 3.527 21.396 9.866 26.23 17.742l10.995-14.694-10.87 63.102s-14.013 3.517-37.684 4.158c0 0 16.09-1.492 25.633-5.16-6.51.943-17.1 2.215-26.737 2.215 0 0 13.046-1.354 21.71-4.627-6.53.88-15.85 1.893-24.415 1.893 0 0 12.724-1.325 21.382-4.51-7.733-1.644-17.262-2.984-27.8-2.984-10.54 0-20.07 1.34-27.803 2.983 8.654 3.185 21.377 4.51 21.377 4.51m-2.934-71.33l8.452-14.586-4.147-7.073-.988-1.022.69-1.022 1.53.112.24 1.282 3.58 6.192 3.576-6.192.24-1.282 1.53-.112.69 1.022-.99 1.022-4.146 7.073 8.452 14.587h6.683l-.822 1.58h-6.74l-8.473-14.582-8.477 14.582h-6.74l-.822-1.58h6.683zm59.383 75.757l12.332-70.757-2.563-1.11s-10.057 13.442-11.94 15.946c-4.128-5.05-12.004-11.32-22.672-14.837.85-2.055 4.72-11.46 4.72-11.46s-5.943 2.39-8.507 3.433c.27-.528.543-1.052.543-1.052s-9.118.475-10.562.553c-.73-1.28-5.698-10.086-6.37-11.27.588-1.042 2.48-4.34 2.682-4.687.313-.273 2.646-2.245 2.646-2.245l-3.032-5.763-6.423.44s-.11 3.02-.14 3.566l-.74 1.223-.743-1.222-.132-3.566-6.428-.44-3.028 5.763s2.332 1.972 2.645 2.245c.2.348 2.094 3.645 2.686 4.687-.674 1.184-5.64 9.988-6.373 11.27-1.442-.078-10.56-.553-10.56-.553s.272.523.532 1.052c-2.555-1.042-8.498-3.434-8.498-3.434s3.87 9.406 4.71 11.46c-10.658 3.52-18.533 9.79-22.672 14.837l-11.93-15.947-2.574 1.11 12.342 70.757s17.56 4.486 50.02 4.486c32.468 0 50.028-4.486 50.028-4.486m-95.855-48.695l2.984 3.996c7.294-14.264 21.88-15.878 21.88-15.878-12.512 4.646-17.712 11.984-19.404 19.165l2.798 3.747s-.362 10.067 1.644 14.293c.63-.24 1.36-.5 2.182-.777-6.51-26.82 14.616-31.762 14.616-31.762-14.925 7.715-13.535 21.45-10.497 30.51a87.985 87.985 0 0 1 4.094-1.022l2.255-11.134a5.17 5.17 0 0 1-3.307-4.818c0-2.842 2.313-5.17 5.16-5.17 1.674 0 3.155.802 4.11 2.035a4.89 4.89 0 0 1 2.293 4.137 4.874 4.874 0 0 1-2.523 4.266l4.735 8.648a118.94 118.94 0 0 1 7.714-.518l-15.306-37.27c-11.872 3.46-21.176 9.868-25.427 17.552"/><path clip-path="url(#b)" fill="#fff" d="M223.496 343.91a5.15 5.15 0 0 1-2.538-4.437 5.169 5.169 0 0 1 9.27-3.135 4.888 4.888 0 0 1 2.294 4.138c0 2.24-1.512 4.13-3.576 4.687l2.084 10.258c1.492.343 2.852.686 4.095 1.033 3.047-9.055 4.432-22.8-10.508-30.515 0 0 21.127 4.94 14.626 31.757.822.283 1.55.543 2.182.782 2.006-4.226 1.644-14.293 1.644-14.293l2.807-3.737c-1.702-7.195-6.9-14.528-19.414-19.175 0 0 14.587 1.624 21.88 15.878l2.984-3.996c-4.246-7.685-13.545-14.098-25.427-17.552l-15.306 37.265c2.61.093 5.2.27 7.704.523l5.198-9.48zm-39.416-.508a3.933 3.933 0 0 1-3.93-3.924 3.924 3.924 0 0 1 3.93-3.918 3.925 3.925 0 0 1 3.928 3.918 3.933 3.933 0 0 1-3.928 3.924m0-8.336a4.414 4.414 0 0 0 0 8.829c2.43 0 4.407-1.985 4.407-4.417a4.419 4.419 0 0 0-4.407-4.412m42.048 8.336a3.93 3.93 0 0 1-3.923-3.924 3.92 3.92 0 0 1 3.923-3.918 3.913 3.913 0 0 1 3.918 3.918 3.921 3.921 0 0 1-3.918 3.924m4.412-3.923a4.42 4.42 0 0 0-4.412-4.413c-2.43 0-4.417 1.986-4.417 4.412a4.428 4.428 0 0 0 4.418 4.416 4.42 4.42 0 0 0 4.412-4.417m-74.397 11.233c0-1.076-.812-1.938-1.814-1.938-.18 0-.338.03-.5.084l.65 3.776c.93-.083 1.664-.904 1.664-1.922m-1.81-5.532c-.382 0-.763.05-1.115.132l.12.71c.32-.08.65-.133.994-.133 2.46 0 4.456 2.157 4.456 4.823 0 2.42-1.663 4.437-3.825 4.765l.127.704c2.495-.393 4.407-2.696 4.407-5.47 0-3.058-2.314-5.532-5.166-5.532m100.52 5.533c0 1.018.733 1.84 1.663 1.923l.65-3.776a1.528 1.528 0 0 0-.51-.084c-.992 0-1.803.86-1.803 1.937m1.051 5.47l.117-.705c-2.152-.328-3.825-2.344-3.825-4.765 0-2.666 2.006-4.818 4.466-4.818.344 0 .677.04.994.127l.122-.71a4.959 4.959 0 0 0-1.115-.132c-2.85 0-5.164 2.475-5.164 5.532 0 2.773 1.912 5.077 4.407 5.47m-52.445-43.144c0-1.125.91-2.035 2.04-2.035a2.04 2.04 0 0 1 2.035 2.035c0 1.12-.92 2.03-2.035 2.03-1.13 0-2.04-.91-2.04-2.03m4.334 0c0-1.263-1.03-2.3-2.294-2.3a2.308 2.308 0 0 0-2.304 2.3 2.3 2.3 0 0 0 4.598 0m10.102 2.372c1.12 0 2.03.925 2.03 2.045s-.91 2.035-2.03 2.035c-1.125 0-2.035-.915-2.035-2.035s.91-2.045 2.036-2.045m0 4.34a2.301 2.301 0 0 0 2.294-2.295c0-1.272-1.032-2.304-2.294-2.304s-2.294 1.03-2.294 2.304a2.3 2.3 0 0 0 2.294 2.294m-25.971-4.339c1.125 0 2.035.925 2.035 2.045s-.91 2.035-2.034 2.035c-1.12 0-2.03-.915-2.03-2.035s.91-2.045 2.03-2.045m0 4.34a2.3 2.3 0 0 0 0-4.599 2.305 2.305 0 0 0-2.304 2.304 2.302 2.302 0 0 0 2.304 2.294"/><path fill="#B0B7BB" d="M39.122 266.267h332.76v52.995L205.506 439.507 39.122 319.262v-52.995zM383.07 324.98v-78.168H27.935v78.168l177.57 128.33L383.07 324.98zm-11.192-105.634H39.122V37.472h332.756v181.874zM383.07 26.27H27.93v209.576h355.14V26.27z"/><defs><path id="c" d="M-345.27-346.93h6131.014v7934.26H-345.27z"/></defs><clipPath id="d"><use xlink:href="#c" overflow="visible"/></clipPath><path clip-path="url(#d)" fill="#B0B7BB" d="M212.246 69.12h145.03c-3.252 7.61-8.912 25.66-8.912 59.286 0 33.63 5.66 51.67 8.912 59.286h-23.27V141.37H235.53v46.322h-23.283c3.258-7.616 8.927-25.656 8.927-59.286 0-33.625-5.668-51.675-8.926-59.286m26.16 121.443v-46.31h92.725v46.31h30.78s-10.675-16.357-10.675-62.157c0-45.785 10.674-62.163 10.674-62.163H207.627s10.67 16.378 10.67 62.163c0 45.8-10.67 62.157-10.67 62.157h30.778z"/><path fill="#B0B7BB" d="M331.126 121.582H238.4v-32.67h92.726v32.67zm2.887-35.557h-98.488v38.434h98.488V86.024zM53.724 69.12h32.19c-3.247 7.61-8.896 25.66-8.896 59.286v42.376h67.04c25.685 0 41.084-7.768 48.445-12.797-1.39 15.448-7.484 26.36-9.597 29.707H53.724c3.258-7.616 8.907-25.656 8.907-59.286 0-33.625-5.658-51.675-8.906-59.286M184.46 190.563s11.28-15.354 11.28-38.756c0 0-15.437 16.1-51.684 16.1H79.894v-39.5c0-45.786 10.66-62.164 10.66-62.164H49.095s10.66 16.378 10.66 62.163c0 45.8-10.66 62.157-10.66 62.157H184.46zm8.254 129.937a2.49 2.49 0 0 1-1.434-.45 2.687 2.687 0 0 1-2.045-2.607 2.7 2.7 0 0 1 2.686-2.686 2.7 2.7 0 0 1 2.14 1.062 2.535 2.535 0 0 1 1.187 2.146 2.531 2.531 0 0 1-2.533 2.533m4.92-6.604l-14.356-6.442 14.357 34.956v-28.514zm21.053 6.606a2.5 2.5 0 0 1-1.442-.45 2.685 2.685 0 0 1-2.035-2.607 2.694 2.694 0 0 1 2.687-2.686c.86 0 1.634.42 2.123 1.062a2.513 2.513 0 0 1 1.203 2.146 2.538 2.538 0 0 1-2.535 2.533m-5.332-6.604v28.514l14.356-34.956-14.356 6.442zm-10.547-.869c0-1.482 1.203-2.68 2.686-2.68s2.686 1.197 2.686 2.68a2.686 2.686 0 1 1-5.372 0m9.108.264l-6.423-8.375-6.413 8.374 6.413 7.62 6.423-7.62zm36.237 42.978l1.99-2.803 1.385 2.113-3.375.69zm1.462-6.212l.22 2.514-3.306-.98 3.087-1.535zm1.32-3.523l-1.1 2.27-2.34-2.533 3.44.262zm2.936-2.347l-2.104 1.385-.715-3.366 2.818 1.98zm2.323-3.664l1.404 3.147-2.524.117 1.12-3.263zm-18.86 27.227c-.383 0-.726-.098-1.043-.26.01 0 .03.01.04.01a2.593 2.593 0 0 0 2.034-4.196 2.353 2.353 0 0 1 1.31 2.105c0 1.29-1.04 2.342-2.342 2.342m-3.097-2.842a2.1 2.1 0 0 1 2.094-2.104c1.15 0 2.094.94 2.094 2.105 0 1.15-.944 2.094-2.094 2.094a2.1 2.1 0 0 1-2.094-2.095m-16.968-.723c-.382 0-.734-.088-1.057-.25h.054a2.595 2.595 0 0 0 2.593-2.597c0-.598-.22-1.15-.572-1.59a2.329 2.329 0 0 1 1.325 2.094 2.347 2.347 0 0 1-2.343 2.342m-3.107-2.847c0-1.15.94-2.094 2.104-2.094a2.096 2.096 0 1 1 .001 4.193 2.096 2.096 0 0 1-2.104-2.098m-7.797-15.106c-.367 0-.72-.09-1.042-.25h.054a2.604 2.604 0 0 0 2.593-2.598c0-.607-.22-1.15-.57-1.6.78.38 1.324 1.18 1.324 2.103a2.35 2.35 0 0 1-2.358 2.344m-3.096-2.847a2.1 2.1 0 1 1 4.202-.001 2.099 2.099 0 0 1-2.094 2.093 2.103 2.103 0 0 1-2.108-2.093m-8.996 20.8c-.377 0-.73-.09-1.042-.25h.044a2.598 2.598 0 0 0 2.592-2.598c0-.598-.21-1.15-.563-1.59a2.319 2.319 0 0 1 1.316 2.094 2.345 2.345 0 0 1-2.346 2.342m-3.09-2.847a2.098 2.098 0 0 1 4.197.001 2.098 2.098 0 0 1-2.103 2.098 2.094 2.094 0 0 1-2.094-2.098m-16.935 6.412c-.377 0-.73-.098-1.042-.26.01 0 .034.01.044.01a2.597 2.597 0 0 0 2.593-2.592c0-.61-.21-1.164-.563-1.604a2.35 2.35 0 0 1 1.315 2.105 2.34 2.34 0 0 1-2.347 2.342m-3.092-2.842a2.1 2.1 0 0 1 2.094-2.104c1.15 0 2.094.94 2.094 2.105 0 1.15-.944 2.094-2.094 2.094a2.1 2.1 0 0 1-2.094-2.095m-9.988-12.337l.22-2.514 3.077 1.536-3.297.978zm-1.693 3.01l1.37-2.114 2.006 2.803-3.375-.69zm.577-9.046l3.44-.264-2.334 2.533-1.106-2.268zm-.83-.963l-2.105-1.386 2.817-1.98-.713 3.365zm-5.832-1.904l1.414-3.146 1.115 3.263-2.53-.117zm2.548 13.937l2.313-1.003.118 3.443-2.43-2.44zm96.815-1.003l2.304 1.003-2.426 2.44.123-3.443zm3.033.268c-2.822-.45-5-3.032-5-6.158 0-3.438 2.637-6.23 5.87-6.23.43 0 .842.038 1.243.126l3.995-23.22-17.4 23.24c.383 11.142-2.352 15.628-2.352 15.628s-5.84-2.344-12.313-3.654l-2.284-11.25a4.963 4.963 0 0 1-2.656-.852l-.088-.03-5.714 10.42s-7.21-.695-10.82-.695l3.22-10.008-5.993-15.457-5.992 15.457 3.23 10.008c-3.606 0-10.82.695-10.82.695l-5.29-9.65a4.8 4.8 0 0 1-3.075-.35l-2.373 11.712c-6.48 1.31-12.312 3.654-12.312 3.654s-2.74-4.486-2.368-15.63l-17.4-23.24 4.008 23.222c.39-.088.812-.127 1.232-.127 3.248 0 5.88 2.792 5.88 6.23 0 3.126-2.182 5.71-5.01 6.158l3.47 20.11c5.478-2.11 23.91-8.468 46.82-8.468 22.923 0 41.355 6.358 46.823 8.467l3.468-20.11z"/><path d="M143.142 311.098l2.563-1.115s10.067 13.438 11.94 15.95c4.13-5.052 12.004-11.322 22.673-14.835-.842-2.064-4.71-11.47-4.71-11.47l8.496 3.433c-.27-.518-.533-1.05-.533-1.05s9.11.478 10.552.552c.73-1.28 5.7-10.08 6.37-11.27-.588-1.032-2.477-4.33-2.672-4.682-.323-.27-2.646-2.25-2.646-2.25l3.023-5.763 6.433.45.132 3.557.738 1.223.743-1.223.133-3.557 6.428-.45 3.027 5.763s-2.322 1.98-2.645 2.25c-.2.353-2.084 3.65-2.686 4.682.685 1.188 5.65 9.988 6.383 11.27 1.443-.073 10.546-.553 10.546-.553s-.27.532-.528 1.05c2.553-1.03 8.496-3.433 8.496-3.433s-3.86 9.406-4.71 11.47c10.668 3.514 18.544 9.784 22.672 14.837 1.874-2.514 11.94-15.95 11.94-15.95l2.563 1.114-12.332 70.757s-17.57 4.477-50.03 4.477c-32.456 0-50.026-4.477-50.026-4.477l-12.332-70.757zm228.74 8.164v-52.995H39.123v52.995L205.5 439.507l166.383-120.245zm-9.972-128.699h-30.784v-46.31H238.41v46.31h-30.787s10.67-16.357 10.67-62.157c0-45.785-10.67-62.163-10.67-62.163H361.91s-10.67 16.378-10.67 62.163c0 45.8 10.67 62.157 10.67 62.157m-177.45 0H49.1s10.66-16.357 10.66-62.157c0-45.785-10.66-62.163-10.66-62.163h41.443s-10.66 16.378-10.66 62.163v39.5h64.18c36.24 0 51.68-16.1 51.68-16.1-.002 23.403-11.282 38.757-11.282 38.757M371.88 37.46H39.122v181.876h332.756V37.46zM238.41 88.91h92.726v32.672H238.41z"/><defs><path id="e" d="M-345.27-346.93h6131.014v7934.26H-345.27z"/></defs><clipPath id="f"><use xlink:href="#e" overflow="visible"/></clipPath><path clip-path="url(#f)" d="M184.08 335.556a3.93 3.93 0 0 0-3.93 3.918 3.931 3.931 0 0 0 3.93 3.93 3.933 3.933 0 0 0 3.928-3.93c0-2.158-1.766-3.918-3.928-3.918m42.048 0a3.928 3.928 0 0 0-3.928 3.918c0 2.172 1.76 3.93 3.928 3.93a3.924 3.924 0 0 0 0-7.848m-67.45 41.422l-3.468-20.11c2.827-.448 5.01-3.03 5.01-6.157 0-3.437-2.643-6.23-5.89-6.23-.422 0-.833.04-1.233.132l-3.997-23.226 17.4 23.245c-.382 11.14 2.357 15.63 2.357 15.63s5.83-2.35 12.312-3.66l2.382-11.71a4.82 4.82 0 0 0 3.067.353l5.287 9.646s7.215-.69 10.82-.69l-3.22-10.01 5.993-15.456 5.992 15.457-3.23 10.01c3.61 0 10.82.69 10.82.69l5.725-10.42c.02.01.05.02.088.03.753.522 1.663.82 2.646.85l2.285 11.25c6.48 1.312 12.322 3.66 12.322 3.66s2.725-4.49 2.353-15.63l17.4-23.244-4.007 23.226a5.436 5.436 0 0 0-1.233-.132c-3.243 0-5.88 2.793-5.88 6.23 0 3.127 2.177 5.71 5.01 6.16l-3.464 20.108c-5.483-2.104-23.915-8.467-46.827-8.467-22.922 0-41.354 6.364-46.822 8.468m-3.708-21.5c2.162-.332 3.825-2.343 3.825-4.77 0-2.665-2-4.817-4.466-4.817a4.2 4.2 0 0 0-.994.118l-.117-.7c.356-.077.728-.13 1.11-.13 2.865 0 5.18 2.474 5.18 5.53 0 2.774-1.923 5.078-4.418 5.47l-.122-.7zm-1.14-6.622c.156-.05.328-.08.5-.08 1.002 0 1.813.862 1.813 1.934 0 1.013-.733 1.844-1.663 1.923l-.65-3.777zm30.255-4.96c-2.437 0-4.422-1.98-4.422-4.417s1.985-4.408 4.422-4.408c2.43 0 4.407 1.972 4.407 4.407s-1.976 4.416-4.407 4.416m1.008-28.298l15.31 37.274c-2.616.093-5.2.264-7.703.523l-4.74-8.658a4.841 4.841 0 0 0 2.515-4.256c0-1.755-.91-3.286-2.295-4.146a5.174 5.174 0 0 0-4.094-2.025 5.174 5.174 0 0 0-5.17 5.17c0 2.195 1.38 4.06 3.315 4.808l-2.264 11.14c-1.492.34-2.856.684-4.1 1.02-3.032-9.054-4.427-22.8 10.513-30.504 0 0-21.133 4.93-14.632 31.757-.817.274-1.55.534-2.172.773-2.006-4.216-1.653-14.293-1.653-14.293l-2.793-3.737c1.692-7.186 6.893-14.52 19.415-19.175 0 0-14.597 1.624-21.88 15.878l-2.994-3.986c4.257-7.685 13.55-14.098 25.423-17.562m-1.82-8.145l14.36 6.442v28.51l-14.36-34.952zm22.227-2.538l6.423 8.38-6.423 7.62-6.423-7.62 6.423-8.38zm7.856 8.98l14.366-6.44-14.366 34.95v-28.51zm12.772 30a4.42 4.42 0 0 1-4.417-4.416 4.414 4.414 0 0 1 4.418-4.408c2.437 0 4.407 1.972 4.407 4.407s-1.97 4.416-4.407 4.416m25.197-10.737l-2.99 3.985c-7.292-14.254-21.874-15.878-21.874-15.878 12.523 4.656 17.708 11.99 19.415 19.175l-2.798 3.737s.353 10.076-1.653 14.292c-.63-.24-1.36-.5-2.182-.772 6.51-26.826-14.626-31.757-14.626-31.757 14.935 7.705 13.555 21.45 10.518 30.505-1.253-.338-2.612-.68-4.11-1.022l-2.068-10.258a4.87 4.87 0 0 0 3.566-4.687 4.87 4.87 0 0 0-2.294-4.146 5.187 5.187 0 0 0-4.1-2.025 5.174 5.174 0 0 0-5.17 5.17c0 1.893 1.02 3.526 2.533 4.436l-5.198 9.48c-2.505-.26-5.078-.43-7.7-.523L225.9 315.6c11.88 3.462 21.174 9.875 25.425 17.56m6.33 12.85a4.063 4.063 0 0 0-.994-.118c-2.45 0-4.465 2.152-4.465 4.818 0 2.426 1.673 4.437 3.825 4.77l-.117.7c-2.495-.393-4.407-2.696-4.407-5.47 0-3.058 2.313-5.532 5.165-5.532.383 0 .755.054 1.116.132l-.122.7zm-1.14 6.623c-.935-.08-1.663-.91-1.663-1.923 0-1.07.807-1.933 1.81-1.933.172 0 .343.03.514.08l-.66 3.776zM233.3 372.908c-8.664 3.19-21.377 4.51-21.377 4.51 8.565 0 17.874-1.003 24.414-1.883-8.668 3.272-21.72 4.617-21.72 4.617 9.647 0 20.237-1.27 26.748-2.206-9.548 3.67-25.637 5.16-25.637 5.16 23.676-.64 37.69-4.167 37.69-4.167l10.868-63.103-11 14.694c-4.83-7.86-14.206-14.204-26.24-17.74l3.327-8.082-17.018 7.64v-4.176l-7.856-13.525-7.866 13.525v4.177l-17.01-7.642 3.317 8.08c-12.022 3.538-21.4 9.882-26.237 17.743l-11-14.693 10.883 63.102s14.015 3.525 37.685 4.167c0 0-16.087-1.492-25.636-5.16 6.516.934 17.092 2.205 26.737 2.205 0 0-13.04-1.345-21.708-4.617 6.535.88 15.85 1.883 24.414 1.883 0 0-12.723-1.32-21.386-4.51 7.743-1.644 17.272-2.984 27.81-2.984 10.542 0 20.065 1.34 27.8 2.984"/><path d="M197.028 307.674l8.472-14.587 8.468 14.587h6.75l.822-1.585h-6.692l-8.452-14.588 4.142-7.068 1.003-1.023-.688-1.02-1.54.106-.246 1.287-3.566 6.188-3.575-6.187-.25-1.287-1.53-.107-.696 1.02 1.002 1.024 4.15 7.068-8.455 14.587h-6.686l.812 1.584z"/><defs><path id="g" d="M-345.27-346.93h6131.014v7934.26H-345.27z"/></defs><clipPath id="h"><use xlink:href="#g" overflow="visible"/></clipPath><path clip-path="url(#h)" d="M195.306 359.74c.353.44.572.992.572 1.595a2.611 2.611 0 0 1-2.606 2.602c-.01 0-.02-.01-.04-.01.318.162.67.26 1.043.26 1.3 0 2.343-1.052 2.343-2.354 0-.92-.53-1.712-1.312-2.093m-20.026 3.56c.347.44.567.994.567 1.605a2.606 2.606 0 0 1-2.603 2.593c-.01 0-.02-.01-.04-.01.318.16.67.264 1.043.264 1.3 0 2.353-1.057 2.353-2.357 0-.92-.552-1.712-1.32-2.094m40.982.636h-.04c.31.152.66.25 1.043.25a2.348 2.348 0 0 0 2.343-2.344c0-.934-.538-1.722-1.31-2.103.336.44.562.987.562 1.604a2.6 2.6 0 0 1-2.598 2.593m20.07 3.561h-.04c.314.15.66.25 1.043.25a2.348 2.348 0 0 0 2.343-2.344c0-.935-.538-1.712-1.31-2.104.35.44.562.988.562 1.604a2.598 2.598 0 0 1-2.598 2.594m-27.612-23.612c0-.924-.544-1.717-1.32-2.093.346.44.566.992.566 1.59a2.595 2.595 0 0 1-2.593 2.597h-.04c.31.162.66.25 1.043.25a2.348 2.348 0 0 0 2.343-2.344m-13.345 17.454a2.098 2.098 0 0 0-4.196 0c0 1.16.938 2.093 2.104 2.093 1.15 0 2.094-.934 2.094-2.093m-20.032 3.56a2.1 2.1 0 0 0-2.094-2.094c-1.16 0-2.104.944-2.104 2.094s.944 2.094 2.104 2.094a2.1 2.1 0 0 0 2.094-2.094m40.918-1.467a2.096 2.096 0 0 0 2.094-2.093c0-1.16-.94-2.104-2.094-2.104-1.15 0-2.094.943-2.094 2.104 0 1.154.944 2.093 2.094 2.093m20.07 3.567a2.1 2.1 0 0 0 2.094-2.095c0-1.164-.94-2.1-2.094-2.1-1.15 0-2.094.936-2.094 2.1 0 1.15.945 2.094 2.094 2.094m-28.865-23.611a2.09 2.09 0 0 0-2.094-2.094c-1.16 0-2.104.93-2.104 2.094a2.099 2.099 0 0 0 4.197.001"/><path d="M153.4 343.666l2.514.117-1.115-3.262zm3.722.524l2.104 1.39.71-3.377zm2.93 2.342l1.11 2.276 2.334-2.535zm1.111 6.041l3.307-.982-3.087-1.53zm-1.688 3.004l3.376.69-2-2.803zm-3.541 2.03l2.43 2.44-.117-3.443zm99.146-13.824l2.516-.122-1.4-3.144zm-3.315 1.797l2.113-1.395-2.822-1.987zm-1.922 3.222l1.095-2.27-3.44-.263zm-3.317 2.788l3.307.983-.21-2.513zm1.624 4.68l3.375-.688-1.384-2.118zm4.47 3.778l2.437-2.445-2.304-1.003z"/><path fill="none" d="M-53.52 147.494h612v792h-612z"/><path d="M203.206 313.035c0-1.263 1.022-2.3 2.294-2.3a2.304 2.304 0 0 1 2.294 2.3c0 1.262-1.03 2.29-2.294 2.29a2.292 2.292 0 0 1-2.294-2.29m4.98 0c0-1.487-1.203-2.686-2.686-2.686a2.683 2.683 0 1 0 0 5.365 2.682 2.682 0 0 0 2.686-2.68m9.704 6.712a2.3 2.3 0 0 1-2.293-2.294 2.302 2.302 0 0 1 2.294-2.304 2.304 2.304 0 0 1 2.305 2.304 2.303 2.303 0 0 1-2.304 2.294m2.133-3.928a2.687 2.687 0 0 0-2.133-1.062 2.696 2.696 0 0 0-2.686 2.695 2.69 2.69 0 0 0 2.045 2.604c.41.278.898.44 1.432.44a2.53 2.53 0 0 0 2.534-2.534c0-.9-.48-1.69-1.193-2.142m-28.094 3.927a2.303 2.303 0 0 1-2.303-2.294 2.305 2.305 0 0 1 2.304-2.304 2.301 2.301 0 0 1 2.295 2.304 2.301 2.301 0 0 1-2.294 2.294m2.124-3.928a2.682 2.682 0 0 0-2.123-1.062 2.704 2.704 0 0 0-2.694 2.695 2.69 2.69 0 0 0 2.045 2.604c.412.278.9.44 1.435.44a2.528 2.528 0 0 0 1.339-4.676m13.472-2.784a2.033 2.033 0 1 0-4.065-.005 2.033 2.033 0 0 0 4.065.005m10.366 2.377a2.034 2.034 0 1 0-.005 4.067 2.034 2.034 0 0 0 .006-4.067m-25.971 0a2.033 2.033 0 1 0 .003 4.065 2.033 2.033 0 0 0-.002-4.065M327.28 398.628h3.044c.782 0 1.413.63 1.413 1.41 0 .79-.63 1.422-1.413 1.422h-3.043v-2.832zm-2.444 10.547h2.445v-5.278h1.742l2.466 5.278h2.695l-2.573-5.498a3.868 3.868 0 0 0 2.573-3.64 3.855 3.855 0 0 0-3.86-3.854h-5.487v12.992zm13.614-6.495c0 4.94-4.008 8.936-8.94 8.936a8.93 8.93 0 0 1-8.936-8.937 8.93 8.93 0 0 1 8.937-8.934c4.932 0 8.94 3.997 8.94 8.933m-20.316 0c0 6.284 5.088 11.382 11.378 11.382 6.28 0 11.373-5.098 11.373-11.383 0-6.282-5.092-11.38-11.373-11.38-6.29 0-11.378 5.097-11.378 11.38"/><path fill="#fff" d="M495.266 198.65a.882.882 0 0 1 0-1.765.882.882 0 0 1 0 1.764m0-1.88a.998.998 0 0 0 0 1.993c.549 0 .996-.447.996-.996s-.448-.996-.996-.996m5.374 2.03c.485 0 .882.395.882.88a.883.883 0 1 1-1.767.002c0-.487.396-.883.883-.883m0 1.877a.996.996 0 1 0-.002.002m-11.253-1.878a.88.88 0 1 1-.001 1.763.88.88 0 0 1 .001-1.764m0 1.877a.997.997 0 1 0-.001.002"/></svg>