<svg xmlns="http://www.w3.org/2000/svg" xmlns:xlink="http://www.w3.org/1999/xlink" width="422" height="470" viewBox="0 0 422 470"><pattern x="-147" y="518" width="69" height="69" patternUnits="userSpaceOnUse" viewBox="2.125 -70.896 69 69" overflow="visible"><path fill="none" d="M71.125-1.896h-69v-69h69z"/><path fill="#F6BB60" d="M71.125-1.896h-69v-69h69z"/><g fill="#fff"><path d="M61.772-71.653c.018.072.007.127-.026.19-.053.1-.112.063-.165.128-.05.063-.098.276-.078.362-.17.058-.01.227-.015.35-.002.05-.04.105-.045.16-.01.12.017.267.068.37.097.2.268.414.435.545.19.148.365.572.608.63.177.043.384-.103.543-.142.18-.043.397.01.57-.053.223-.08.128-.337.29-.45.103-.074.286-.01.405-.05.2-.07.34-.264.377-.46.016-.083.01-.146.04-.222.038-.103.11-.16.09-.293-.01-.062-.053-.12-.065-.187-.022-.114.002-.224 0-.337-.003-.2.017-.38-.078-.55-.38-.688-1.236-.93-1.975-.79-.18.035-.288.127-.443.208-.17.088-.14.166-.318.224-.082.026-.217.124-.216.224 0 .115.005.05.012.17-.02.01-.02-.006-.03-.026M54.105-71.653c.018.072.007.127-.026.19-.054.1-.113.063-.166.128-.05.063-.1.276-.08.362-.168.058-.01.227-.014.35-.002.05-.04.105-.045.16-.01.12.017.267.068.37.097.2.268.414.435.545.19.148.365.572.608.63.177.043.384-.103.543-.142.18-.043.396.01.57-.053.222-.08.127-.337.288-.45.104-.074.287-.01.406-.05.2-.07.34-.264.376-.46.016-.083.01-.146.04-.222.038-.103.11-.16.09-.293-.01-.062-.053-.12-.065-.187-.022-.114.002-.224 0-.337-.003-.2.017-.38-.078-.55-.38-.688-1.236-.93-1.975-.79-.18.035-.287.127-.442.208-.17.088-.14.166-.318.224-.08.026-.216.124-.215.224 0 .115.005.05.012.17-.022.01-.022-.006-.03-.026M46.44-71.653c.017.072.006.127-.027.19-.053.1-.112.063-.165.128-.05.063-.1.276-.08.362-.168.058-.01.227-.014.35-.002.05-.04.105-.045.16-.01.12.016.267.067.37.097.2.268.414.435.545.19.148.365.572.608.63.177.043.384-.103.543-.142.18-.043.397.01.57-.053.223-.08.128-.337.29-.45.103-.074.286-.01.405-.05.2-.07.34-.264.376-.46.016-.083.01-.146.04-.222.038-.103.11-.16.09-.293-.01-.062-.053-.12-.065-.187-.023-.114 0-.224 0-.337-.004-.2.016-.38-.08-.55-.38-.688-1.235-.93-1.974-.79-.18.035-.287.127-.442.208-.17.088-.14.166-.318.224-.08.026-.216.124-.215.224.002.115.006.05.013.17-.02.01-.02-.006-.03-.026M38.772-71.653c.018.072.007.127-.026.19-.053.1-.112.063-.165.128-.05.063-.098.276-.078.362-.17.058-.01.227-.015.35-.002.05-.04.105-.045.16-.01.12.017.267.068.37.097.2.268.414.435.545.19.148.365.572.608.63.177.043.384-.103.543-.142.18-.043.397.01.57-.053.223-.08.128-.337.29-.45.103-.074.286-.01.405-.05.2-.07.34-.264.377-.46.016-.083.01-.146.04-.222.038-.103.11-.16.09-.293-.01-.062-.053-.12-.065-.187-.022-.114.002-.224 0-.337-.003-.2.017-.38-.078-.55-.38-.688-1.236-.93-1.975-.79-.18.035-.288.127-.443.208-.17.088-.14.166-.318.224-.082.026-.217.124-.216.224 0 .115.005.05.012.17-.02.01-.02-.006-.03-.026M31.105-71.653c.018.072.007.127-.026.19-.054.1-.113.063-.166.128-.05.063-.1.276-.08.362-.168.058-.01.227-.014.35-.002.05-.04.105-.045.16-.01.12.017.267.068.37.097.2.268.414.435.545.19.148.365.572.608.63.177.043.384-.103.543-.142.18-.043.396.01.57-.053.222-.08.127-.337.288-.45.104-.074.287-.01.406-.05.2-.07.34-.264.376-.46.016-.083.01-.146.04-.222.038-.103.11-.16.09-.293-.01-.062-.053-.12-.065-.187-.022-.114.002-.224 0-.337-.003-.2.017-.38-.078-.55-.38-.688-1.236-.93-1.975-.79-.18.035-.287.127-.442.208-.17.088-.14.166-.318.224-.08.026-.216.124-.215.224 0 .115.005.05.012.17-.022.01-.022-.006-.03-.026M23.44-71.653c.017.072.006.127-.027.19-.053.1-.112.063-.165.128-.05.063-.1.276-.08.362-.168.058-.01.227-.014.35-.002.05-.04.105-.045.16-.01.12.016.267.067.37.097.2.268.414.435.545.19.148.365.572.608.63.177.043.384-.103.543-.142.18-.043.397.01.57-.053.223-.08.128-.337.29-.45.103-.074.286-.01.405-.05.2-.07.34-.264.376-.46.016-.083.01-.146.04-.222.038-.103.11-.16.09-.293-.01-.062-.053-.12-.065-.187-.023-.114 0-.224 0-.337-.004-.2.016-.38-.08-.55-.38-.688-1.235-.93-1.974-.79-.18.035-.287.127-.442.208-.17.088-.14.166-.318.224-.08.026-.216.124-.215.224.002.115.006.05.013.17-.02.01-.02-.006-.03-.026M15.772-71.653c.018.072.007.127-.026.19-.053.1-.112.063-.165.128-.05.063-.098.276-.078.362-.17.058-.01.227-.015.35-.002.05-.04.105-.045.16-.01.12.017.267.068.37.097.2.268.414.435.545.19.148.365.572.608.63.177.043.384-.103.543-.142.18-.043.397.01.57-.053.223-.08.128-.337.29-.45.103-.074.286-.01.405-.05.2-.07.34-.264.377-.46.016-.083.01-.146.04-.222.038-.103.11-.16.09-.293-.01-.062-.053-.12-.065-.187-.022-.114.002-.224 0-.337-.003-.2.017-.38-.078-.55-.38-.688-1.236-.93-1.975-.79-.18.035-.288.127-.443.208-.17.088-.14.166-.318.224-.082.026-.217.124-.216.224 0 .115.005.05.012.17-.02.01-.02-.006-.03-.026M8.105-71.653c.018.072.007.127-.026.19-.054.1-.113.063-.166.128-.05.063-.1.276-.08.362-.168.058-.01.227-.014.35-.002.05-.04.105-.045.16-.01.12.017.267.068.37.097.2.268.414.435.545.19.148.365.572.608.63.177.043.384-.103.543-.142.18-.043.396.01.57-.053.222-.08.127-.337.288-.45.104-.074.287-.01.406-.05.2-.07.34-.264.376-.46.016-.083.01-.146.04-.222.038-.103.11-.16.09-.293-.01-.062-.053-.12-.065-.187-.022-.114.002-.224 0-.337-.003-.2.017-.38-.078-.55-.38-.688-1.236-.93-1.975-.79-.18.035-.287.127-.442.208-.17.088-.14.166-.318.224-.08.026-.216.124-.215.224 0 .115.005.05.012.17-.022.01-.022-.006-.03-.026M.44-71.653c.017.072.007.127-.027.19-.052.1-.113.063-.165.128-.05.063-.1.276-.08.362-.168.058-.01.227-.014.35-.002.05-.04.105-.045.16-.01.12.016.267.067.37.097.2.268.414.435.545.19.148.365.572.608.63.177.043.384-.103.543-.142.18-.043.397.01.57-.053.223-.08.128-.337.29-.45.103-.074.286-.01.405-.05.2-.07.34-.264.376-.46.016-.083.01-.146.04-.222.037-.103.11-.16.09-.293-.01-.062-.052-.12-.065-.187-.022-.114 0-.224 0-.337-.004-.2.016-.38-.08-.55-.38-.688-1.235-.93-1.974-.79-.18.035-.287.127-.442.208-.17.088-.14.166-.318.224-.08.026-.215.124-.215.224.003.115.006.05.013.17-.02.01-.02-.006-.03-.026"/></g><path fill="#fff" d="M69.44-71.653c.017.072.007.127-.027.19-.052.1-.113.063-.165.128-.05.063-.1.276-.08.362-.168.058-.01.227-.014.35-.002.05-.04.105-.045.16-.01.12.016.267.067.37.097.2.268.414.435.545.19.148.365.572.608.63.177.043.384-.103.543-.142.18-.043.397.01.57-.053.223-.08.128-.337.29-.45.103-.074.286-.01.405-.05.2-.07.34-.264.376-.46.016-.083.01-.146.04-.222.037-.103.11-.16.09-.293-.01-.062-.052-.12-.065-.187-.022-.114 0-.224 0-.337-.004-.2.016-.38-.08-.55-.38-.688-1.235-.93-1.974-.79-.18.035-.287.127-.442.208-.17.088-.14.166-.318.224-.08.026-.215.124-.215.224.003.115.006.05.013.17-.02.01-.02-.006-.03-.026M.495-71.653c.018.072.008.127-.026.19-.053.1-.114.063-.166.128-.05.063-.1.276-.08.362-.168.058-.01.227-.014.35-.002.05-.04.105-.045.16-.01.12.017.267.068.37.097.2.268.414.435.545.19.148.365.572.608.63.177.043.384-.103.543-.142.18-.043.396.01.57-.053.222-.08.127-.337.288-.45.104-.074.287-.01.406-.05.2-.07.34-.264.376-.46.016-.083.01-.146.04-.222.037-.103.11-.16.09-.293-.01-.062-.052-.12-.065-.187-.02-.114.002-.224 0-.337-.003-.2.017-.38-.078-.55-.38-.688-1.236-.93-1.975-.79-.18.035-.287.127-.442.208-.17.088-.14.166-.318.224-.08.026-.215.124-.215.224.003.116.006.052.013.17-.02.01-.02-.005-.03-.025"/><g fill="#fff"><path d="M69.44-64c.017.07.006.126-.027.19-.053.1-.112.062-.165.127-.05.063-.1.276-.08.362-.168.057-.01.226-.014.35-.002.05-.04.104-.045.16-.01.12.016.266.067.37.097.198.268.413.435.544.19.148.365.572.608.63.177.043.384-.103.543-.142.18-.043.397.01.57-.053.223-.08.128-.338.29-.45.103-.075.286-.01.405-.052.2-.07.34-.263.376-.46.016-.082.01-.145.04-.22.038-.104.11-.16.09-.294-.01-.062-.053-.12-.065-.187-.023-.114 0-.224 0-.337-.004-.2.016-.38-.08-.55-.38-.688-1.235-.93-1.974-.79-.18.035-.287.127-.442.208-.17.088-.14.166-.318.224-.08.026-.216.124-.215.224.002.115.006.05.013.17-.02.01-.02-.006-.03-.026M61.778-64c.018.07.007.126-.026.19-.053.1-.112.062-.165.127-.05.063-.1.276-.08.362-.168.057-.008.226-.014.35-.002.05-.04.104-.045.16-.01.12.017.266.068.37.097.198.268.413.435.544.19.148.366.572.61.63.176.043.383-.103.542-.142.18-.043.397.01.57-.053.223-.08.128-.338.29-.45.103-.075.286-.01.405-.052.2-.07.34-.263.376-.46.016-.082.01-.145.04-.22.038-.104.11-.16.09-.294-.01-.062-.053-.12-.065-.187-.022-.114.002-.224 0-.337-.003-.2.017-.38-.078-.55-.38-.688-1.236-.93-1.975-.79-.18.035-.287.127-.442.208-.17.088-.14.166-.318.224-.08.026-.216.124-.215.224 0 .115.005.05.012.17-.02.01-.02-.006-.03-.026M54.118-64c.018.07.007.126-.026.19-.053.1-.112.062-.165.127-.05.063-.1.276-.08.362-.168.057-.008.226-.014.35-.002.05-.04.104-.045.16-.01.12.017.266.068.37.097.198.268.413.435.544.19.148.366.572.61.63.176.043.383-.103.542-.142.18-.043.397.01.57-.053.223-.08.128-.338.29-.45.103-.075.286-.01.405-.052.2-.07.34-.263.376-.46.016-.082.01-.145.04-.22.038-.104.11-.16.09-.294-.01-.062-.053-.12-.065-.187-.022-.114.002-.224 0-.337-.003-.2.017-.38-.078-.55-.38-.688-1.236-.93-1.975-.79-.18.035-.287.127-.442.208-.17.088-.14.166-.318.224-.08.026-.216.124-.215.224 0 .115.005.05.012.17-.02.01-.02-.006-.03-.026M46.458-64c.018.07.007.126-.026.19-.053.1-.112.062-.165.127-.05.063-.1.276-.08.362-.168.057-.008.226-.014.35-.002.05-.04.104-.045.16-.01.12.017.266.068.37.097.198.268.413.435.544.19.148.366.572.61.63.176.043.383-.103.542-.142.18-.043.397.01.57-.053.223-.08.128-.338.29-.45.103-.075.286-.01.405-.052.2-.07.34-.263.376-.46.016-.082.01-.145.04-.22.038-.104.11-.16.09-.294-.01-.062-.053-.12-.065-.187-.022-.114.002-.224 0-.337-.003-.2.017-.38-.078-.55-.38-.688-1.236-.93-1.975-.79-.18.035-.287.127-.442.208-.17.088-.14.166-.318.224-.08.026-.216.124-.215.224 0 .115.005.05.012.17-.02.01-.02-.006-.03-.026M38.797-64c.018.07.007.126-.026.19-.052.1-.11.062-.164.127-.05.063-.1.276-.08.362-.168.057-.008.226-.014.35-.002.05-.04.104-.045.16-.01.12.017.266.068.37.097.198.268.413.435.544.19.148.365.572.608.63.177.043.384-.103.543-.142.18-.043.398.01.572-.053.222-.08.127-.338.288-.45.104-.075.287-.01.406-.052.2-.07.34-.263.376-.46.016-.082.01-.145.04-.22.038-.104.11-.16.09-.294-.01-.062-.053-.12-.065-.187-.022-.114.002-.224 0-.337-.003-.2.017-.38-.078-.55-.38-.688-1.237-.93-1.976-.79-.18.035-.287.127-.442.208-.17.088-.14.166-.318.224-.08.026-.216.124-.215.224 0 .115.004.05.01.17-.02.01-.02-.006-.03-.026M31.137-64c.018.07.007.126-.026.19-.052.1-.11.062-.164.127-.05.063-.1.276-.08.362-.168.057-.008.226-.014.35-.002.05-.04.104-.045.16-.01.12.017.266.068.37.097.198.268.413.435.544.19.148.365.572.608.63.177.043.384-.103.543-.142.18-.043.398.01.572-.053.222-.08.127-.338.288-.45.104-.075.287-.01.406-.052.2-.07.34-.263.376-.46.016-.082.01-.145.04-.22.038-.104.11-.16.09-.294-.01-.062-.053-.12-.065-.187-.022-.114.002-.224 0-.337-.003-.2.017-.38-.078-.55-.38-.688-1.237-.93-1.976-.79-.18.035-.287.127-.442.208-.17.088-.14.166-.318.224-.08.026-.216.124-.215.224 0 .115.004.05.01.17-.02.01-.02-.006-.03-.026M23.477-64c.018.07.007.126-.026.19-.052.1-.11.062-.164.127-.05.063-.1.276-.08.362-.168.057-.008.226-.014.35-.002.05-.04.104-.045.16-.01.12.017.266.068.37.097.198.268.413.435.544.19.148.365.572.608.63.177.043.384-.103.543-.142.18-.043.398.01.572-.053.222-.08.127-.338.288-.45.104-.075.287-.01.406-.052.2-.07.34-.263.376-.46.016-.082.01-.145.04-.22.038-.104.11-.16.09-.294-.01-.062-.053-.12-.065-.187-.022-.114.002-.224 0-.337-.003-.2.017-.38-.078-.55-.38-.688-1.237-.93-1.976-.79-.18.035-.287.127-.442.208-.17.088-.14.166-.318.224-.08.026-.216.124-.215.224 0 .115.004.05.01.17-.02.01-.02-.006-.03-.026M15.816-64c.018.07.007.126-.026.19-.053.1-.112.062-.165.127-.05.063-.1.276-.08.362-.168.057-.008.226-.014.35 0 .05-.04.104-.044.16-.01.12.017.266.068.37.097.198.268.413.435.544.19.148.364.572.607.63.177.043.384-.103.543-.142.18-.043.397.01.57-.053.223-.08.128-.338.29-.45.103-.075.286-.01.405-.052.2-.07.34-.263.376-.46.017-.082.01-.145.04-.22.04-.104.11-.16.09-.294-.01-.062-.052-.12-.064-.187-.022-.114.002-.224 0-.337-.003-.2.017-.38-.078-.55-.38-.688-1.236-.93-1.975-.79-.18.035-.287.127-.442.208-.17.088-.138.166-.317.224-.08.026-.216.124-.215.224 0 .115.005.05.012.17-.02.01-.02-.006-.03-.026M8.156-64c.018.07.007.126-.026.19-.053.1-.112.062-.165.127-.05.063-.1.276-.08.362-.168.057-.008.226-.014.35 0 .05-.04.104-.044.16-.01.12.017.266.068.37.097.198.268.413.435.544.19.148.364.572.607.63.177.043.384-.103.543-.142.18-.043.397.01.57-.053.223-.08.128-.338.29-.45.103-.075.286-.01.405-.052.2-.07.34-.263.376-.46.017-.082.01-.145.04-.22.04-.104.11-.16.09-.294-.01-.062-.052-.12-.064-.187-.022-.114.002-.224 0-.337-.003-.2.017-.38-.078-.55-.38-.688-1.236-.93-1.975-.79-.18.035-.287.127-.442.208-.17.088-.138.166-.317.224-.08.026-.216.124-.215.224 0 .115.005.05.012.17-.02.01-.02-.006-.03-.026M.495-64c.018.07.007.126-.026.19-.054.1-.113.062-.166.127-.05.063-.1.276-.08.362-.168.057-.01.226-.014.35-.002.05-.04.104-.045.16-.01.12.017.266.068.37.097.198.268.413.435.544.19.148.365.572.608.63.177.043.384-.103.543-.142.18-.042.397.01.57-.052.223-.08.128-.337.29-.45.103-.074.286-.01.405-.05.2-.07.34-.264.376-.46.017-.083.01-.146.04-.222.04-.103.11-.16.09-.293-.01-.062-.052-.12-.064-.187-.022-.114.002-.224 0-.337-.003-.2.017-.378-.078-.55-.38-.687-1.236-.928-1.975-.788-.18.034-.287.126-.442.207-.17.087-.138.165-.317.223-.08.026-.216.124-.215.224 0 .115.005.05.012.17-.02.01-.02-.006-.03-.026M69.44-56.348c.017.072.006.127-.027.19-.053.1-.112.063-.165.128-.05.063-.1.276-.08.362-.168.058-.01.227-.014.35-.002.05-.04.105-.045.16-.01.12.016.267.067.37.097.2.268.414.435.545.19.148.365.572.608.63.177.043.384-.103.543-.142.18-.043.397.01.57-.053.223-.08.128-.337.29-.45.103-.074.286-.01.405-.05.2-.07.34-.264.376-.46.016-.083.01-.146.04-.222.038-.103.11-.16.09-.293-.01-.062-.053-.12-.065-.187-.023-.114 0-.224 0-.337-.004-.2.016-.38-.08-.55-.38-.688-1.235-.93-1.974-.79-.18.035-.287.127-.442.208-.17.09-.14.167-.318.225-.08.026-.216.124-.215.224.002.114.006.05.013.168-.02.01-.02-.005-.03-.025M61.778-56.348c.018.072.007.127-.026.19-.053.1-.112.063-.165.128-.05.063-.1.276-.08.362-.168.058-.008.227-.014.35-.002.05-.04.105-.045.16-.01.12.017.267.068.37.097.2.268.414.435.545.19.148.366.572.61.63.176.043.383-.103.542-.142.18-.043.397.01.57-.053.223-.08.128-.337.29-.45.103-.074.286-.01.405-.05.2-.07.34-.264.376-.46.016-.083.01-.146.04-.222.038-.103.11-.16.09-.293-.01-.062-.053-.12-.065-.187-.022-.114.002-.224 0-.337-.003-.2.017-.38-.078-.55-.38-.688-1.236-.93-1.975-.79-.18.035-.287.127-.442.208-.17.09-.14.167-.318.225-.08.026-.216.124-.215.224 0 .114.005.05.012.168-.02.01-.02-.005-.03-.025M54.118-56.348c.018.072.007.127-.026.19-.053.1-.112.063-.165.128-.05.063-.1.276-.08.362-.168.058-.008.227-.014.35-.002.05-.04.105-.045.16-.01.12.017.267.068.37.097.2.268.414.435.545.19.148.366.572.61.63.176.043.383-.103.542-.142.18-.043.397.01.57-.053.223-.08.128-.337.29-.45.103-.074.286-.01.405-.05.2-.07.34-.264.376-.46.016-.083.01-.146.04-.222.038-.103.11-.16.09-.293-.01-.062-.053-.12-.065-.187-.022-.114.002-.224 0-.337-.003-.2.017-.38-.078-.55-.38-.688-1.236-.93-1.975-.79-.18.035-.287.127-.442.208-.17.09-.14.167-.318.225-.08.026-.216.124-.215.224 0 .114.005.05.012.168-.02.01-.02-.005-.03-.025M46.458-56.348c.018.072.007.127-.026.19-.053.1-.112.063-.165.128-.05.063-.1.276-.08.362-.168.058-.008.227-.014.35-.002.05-.04.105-.045.16-.01.12.017.267.068.37.097.2.268.414.435.545.19.148.366.572.61.63.176.043.383-.103.542-.142.18-.043.397.01.57-.053.223-.08.128-.337.29-.45.103-.074.286-.01.405-.05.2-.07.34-.264.376-.46.016-.083.01-.146.04-.222.038-.103.11-.16.09-.293-.01-.062-.053-.12-.065-.187-.022-.114.002-.224 0-.337-.003-.2.017-.38-.078-.55-.38-.688-1.236-.93-1.975-.79-.18.035-.287.127-.442.208-.17.09-.14.167-.318.225-.08.026-.216.124-.215.224 0 .114.005.05.012.168-.02.01-.02-.005-.03-.025M38.797-56.348c.018.072.007.127-.026.19-.052.1-.11.063-.164.128-.05.063-.1.276-.08.362-.168.058-.008.227-.014.35-.002.05-.04.105-.045.16-.01.12.017.267.068.37.097.2.268.414.435.545.19.148.365.572.608.63.177.043.384-.103.543-.142.18-.043.398.01.572-.053.222-.08.127-.337.288-.45.104-.074.287-.01.406-.05.2-.07.34-.264.376-.46.016-.083.01-.146.04-.222.038-.103.11-.16.09-.293-.01-.062-.053-.12-.065-.187-.022-.114.002-.224 0-.337-.003-.2.017-.38-.078-.55-.38-.688-1.237-.93-1.976-.79-.18.035-.287.127-.442.208-.17.09-.14.167-.318.225-.08.026-.216.124-.215.224 0 .114.004.05.01.168-.02.01-.02-.005-.03-.025M31.137-56.348c.018.072.007.127-.026.19-.052.1-.11.063-.164.128-.05.063-.1.276-.08.362-.168.058-.008.227-.014.35-.002.05-.04.105-.045.16-.01.12.017.267.068.37.097.2.268.414.435.545.19.148.365.572.608.63.177.043.384-.103.543-.142.18-.043.398.01.572-.053.222-.08.127-.337.288-.45.104-.074.287-.01.406-.05.2-.07.34-.264.376-.46.016-.083.01-.146.04-.222.038-.103.11-.16.09-.293-.01-.062-.053-.12-.065-.187-.022-.114.002-.224 0-.337-.003-.2.017-.38-.078-.55-.38-.688-1.237-.93-1.976-.79-.18.035-.287.127-.442.208-.17.09-.14.167-.318.225-.08.026-.216.124-.215.224 0 .114.004.05.01.168-.02.01-.02-.005-.03-.025M23.477-56.348c.018.072.007.127-.026.19-.052.1-.11.063-.164.128-.05.063-.1.276-.08.362-.168.058-.008.227-.014.35-.002.05-.04.105-.045.16-.01.12.017.267.068.37.097.2.268.414.435.545.19.148.365.572.608.63.177.043.384-.103.543-.142.18-.043.398.01.572-.053.222-.08.127-.337.288-.45.104-.074.287-.01.406-.05.2-.07.34-.264.376-.46.016-.083.01-.146.04-.222.038-.103.11-.16.09-.293-.01-.062-.053-.12-.065-.187-.022-.114.002-.224 0-.337-.003-.2.017-.38-.078-.55-.38-.688-1.237-.93-1.976-.79-.18.035-.287.127-.442.208-.17.09-.14.167-.318.225-.08.026-.216.124-.215.224 0 .114.004.05.01.168-.02.01-.02-.005-.03-.025M15.816-56.348c.018.072.007.127-.026.19-.053.1-.112.063-.165.128-.05.063-.1.276-.08.362-.168.058-.008.227-.014.35 0 .05-.04.105-.044.16-.01.12.017.267.068.37.097.2.268.414.435.545.19.148.364.572.607.63.177.043.384-.103.543-.142.18-.043.397.01.57-.053.223-.08.128-.337.29-.45.103-.074.286-.01.405-.05.2-.07.34-.264.376-.46.017-.083.01-.146.04-.222.04-.103.11-.16.09-.293-.01-.062-.052-.12-.064-.187-.022-.114.002-.224 0-.337-.003-.2.017-.38-.078-.55-.38-.688-1.236-.93-1.975-.79-.18.035-.287.127-.442.208-.17.09-.138.167-.317.225-.08.026-.216.124-.215.224 0 .114.005.05.012.168-.02.01-.02-.005-.03-.025M8.156-56.348c.018.072.007.127-.026.19-.053.1-.112.063-.165.128-.05.063-.1.276-.08.362-.168.058-.008.227-.014.35 0 .05-.04.105-.044.16-.01.12.017.267.068.37.097.2.268.414.435.545.19.148.364.572.607.63.177.043.384-.103.543-.142.18-.043.397.01.57-.053.223-.08.128-.337.29-.45.103-.074.286-.01.405-.05.2-.07.34-.264.376-.46.017-.083.01-.146.04-.222.04-.103.11-.16.09-.293-.01-.062-.052-.12-.064-.187-.022-.114.002-.224 0-.337-.003-.2.017-.38-.078-.55-.38-.688-1.236-.93-1.975-.79-.18.035-.287.127-.442.208-.17.09-.138.167-.317.225-.08.026-.216.124-.215.224 0 .114.005.05.012.168-.02.01-.02-.005-.03-.025M.495-56.348c.018.072.007.127-.026.19-.054.1-.113.063-.166.128-.05.063-.1.276-.08.362-.168.058-.01.227-.014.35-.002.05-.04.105-.045.16-.01.12.017.267.068.37.097.2.268.414.435.545.19.148.365.572.608.63.177.043.384-.103.543-.142.18-.043.396.01.57-.053.222-.08.127-.337.288-.45.104-.074.287-.01.406-.05.2-.07.34-.264.376-.46.016-.083.01-.146.04-.222.038-.103.11-.16.09-.293-.01-.062-.053-.12-.065-.187-.022-.114.002-.224 0-.337-.003-.2.017-.38-.078-.55-.38-.688-1.236-.93-1.975-.79-.18.035-.287.127-.442.208-.17.09-.14.167-.318.225-.08.026-.216.124-.215.224.003.116.006.052.013.17-.02.01-.02-.005-.03-.025M69.44-48.695c.017.072.006.127-.027.19-.053.1-.112.063-.165.128-.05.063-.1.276-.08.362-.168.058-.01.227-.014.35-.002.05-.04.105-.045.16-.01.12.016.267.067.37.097.2.268.414.435.545.19.148.365.572.608.63.177.043.384-.103.543-.142.18-.043.397.01.57-.053.223-.08.128-.337.29-.45.103-.074.286-.01.405-.05.2-.07.34-.264.376-.46.016-.083.01-.146.04-.222.038-.103.11-.16.09-.293-.01-.062-.053-.12-.065-.187-.023-.114 0-.224 0-.337-.004-.2.016-.38-.08-.55-.38-.688-1.235-.93-1.974-.79-.18.035-.287.127-.442.208-.17.088-.14.166-.318.224-.08.026-.216.124-.215.224.002.115.006.05.013.17-.02.01-.02-.006-.03-.026M61.778-48.695c.018.072.007.127-.026.19-.053.1-.112.063-.165.128-.05.063-.1.276-.08.362-.168.058-.008.227-.014.35-.002.05-.04.105-.045.16-.01.12.017.267.068.37.097.2.268.414.435.545.19.148.366.572.61.63.176.043.383-.103.542-.142.18-.043.397.01.57-.053.223-.08.128-.337.29-.45.103-.074.286-.01.405-.05.2-.07.34-.264.376-.46.016-.083.01-.146.04-.222.038-.103.11-.16.09-.293-.01-.062-.053-.12-.065-.187-.022-.114.002-.224 0-.337-.003-.2.017-.38-.078-.55-.38-.688-1.236-.93-1.975-.79-.18.035-.287.127-.442.208-.17.088-.14.166-.318.224-.08.026-.216.124-.215.224 0 .115.005.05.012.17-.02.01-.02-.006-.03-.026M54.118-48.695c.018.072.007.127-.026.19-.053.1-.112.063-.165.128-.05.063-.1.276-.08.362-.168.058-.008.227-.014.35-.002.05-.04.105-.045.16-.01.12.017.267.068.37.097.2.268.414.435.545.19.148.366.572.61.63.176.043.383-.103.542-.142.18-.043.397.01.57-.053.223-.08.128-.337.29-.45.103-.074.286-.01.405-.05.2-.07.34-.264.376-.46.016-.083.01-.146.04-.222.038-.103.11-.16.09-.293-.01-.062-.053-.12-.065-.187-.022-.114.002-.224 0-.337-.003-.2.017-.38-.078-.55-.38-.688-1.236-.93-1.975-.79-.18.035-.287.127-.442.208-.17.088-.14.166-.318.224-.08.026-.216.124-.215.224 0 .115.005.05.012.17-.02.01-.02-.006-.03-.026M46.458-48.695c.018.072.007.127-.026.19-.053.1-.112.063-.165.128-.05.063-.1.276-.08.362-.168.058-.008.227-.014.35-.002.05-.04.105-.045.16-.01.12.017.267.068.37.097.2.268.414.435.545.19.148.366.572.61.63.176.043.383-.103.542-.142.18-.043.397.01.57-.053.223-.08.128-.337.29-.45.103-.074.286-.01.405-.05.2-.07.34-.264.376-.46.016-.083.01-.146.04-.222.038-.103.11-.16.09-.293-.01-.062-.053-.12-.065-.187-.022-.114.002-.224 0-.337-.003-.2.017-.38-.078-.55-.38-.688-1.236-.93-1.975-.79-.18.035-.287.127-.442.208-.17.088-.14.166-.318.224-.08.026-.216.124-.215.224 0 .115.005.05.012.17-.02.01-.02-.006-.03-.026M38.797-48.695c.018.072.007.127-.026.19-.052.1-.11.063-.164.128-.05.063-.1.276-.08.362-.168.058-.008.227-.014.35-.002.05-.04.105-.045.16-.01.12.017.267.068.37.097.2.268.414.435.545.19.148.365.572.608.63.177.043.384-.103.543-.142.18-.043.398.01.572-.053.222-.08.127-.337.288-.45.104-.074.287-.01.406-.05.2-.07.34-.264.376-.46.016-.083.01-.146.04-.222.038-.103.11-.16.09-.293-.01-.062-.053-.12-.065-.187-.022-.114.002-.224 0-.337-.003-.2.017-.38-.078-.55-.38-.688-1.237-.93-1.976-.79-.18.035-.287.127-.442.208-.17.088-.14.166-.318.224-.08.026-.216.124-.215.224 0 .115.004.05.01.17-.02.01-.02-.006-.03-.026M31.137-48.695c.018.072.007.127-.026.19-.052.1-.11.063-.164.128-.05.063-.1.276-.08.362-.168.058-.008.227-.014.35-.002.05-.04.105-.045.16-.01.12.017.267.068.37.097.2.268.414.435.545.19.148.365.572.608.63.177.043.384-.103.543-.142.18-.043.398.01.572-.053.222-.08.127-.337.288-.45.104-.074.287-.01.406-.05.2-.07.34-.264.376-.46.016-.083.01-.146.04-.222.038-.103.11-.16.09-.293-.01-.062-.053-.12-.065-.187-.022-.114.002-.224 0-.337-.003-.2.017-.38-.078-.55-.38-.688-1.237-.93-1.976-.79-.18.035-.287.127-.442.208-.17.088-.14.166-.318.224-.08.026-.216.124-.215.224 0 .115.004.05.01.17-.02.01-.02-.006-.03-.026M23.477-48.695c.018.072.007.127-.026.19-.052.1-.11.063-.164.128-.05.063-.1.276-.08.362-.168.058-.008.227-.014.35-.002.05-.04.105-.045.16-.01.12.017.267.068.37.097.2.268.414.435.545.19.148.365.572.608.63.177.043.384-.103.543-.142.18-.043.398.01.572-.053.222-.08.127-.337.288-.45.104-.074.287-.01.406-.05.2-.07.34-.264.376-.46.016-.083.01-.146.04-.222.038-.103.11-.16.09-.293-.01-.062-.053-.12-.065-.187-.022-.114.002-.224 0-.337-.003-.2.017-.38-.078-.55-.38-.688-1.237-.93-1.976-.79-.18.035-.287.127-.442.208-.17.088-.14.166-.318.224-.08.026-.216.124-.215.224 0 .115.004.05.01.17-.02.01-.02-.006-.03-.026M15.816-48.695c.018.072.007.127-.026.19-.053.1-.112.063-.165.128-.05.063-.1.276-.08.362-.168.058-.008.227-.014.35 0 .05-.04.105-.044.16-.01.12.017.267.068.37.097.2.268.414.435.545.19.148.364.572.607.63.177.043.384-.103.543-.142.18-.043.397.01.57-.053.223-.08.128-.337.29-.45.103-.074.286-.01.405-.05.2-.07.34-.264.376-.46.017-.083.01-.146.04-.222.04-.103.11-.16.09-.293-.01-.062-.052-.12-.064-.187-.022-.114.002-.224 0-.337-.003-.2.017-.38-.078-.55-.38-.688-1.236-.93-1.975-.79-.18.035-.287.127-.442.208-.17.088-.138.166-.317.224-.08.026-.216.124-.215.224 0 .115.005.05.012.17-.02.01-.02-.006-.03-.026M8.156-48.695c.018.072.007.127-.026.19-.053.1-.112.063-.165.128-.05.063-.1.276-.08.362-.168.058-.008.227-.014.35 0 .05-.04.105-.044.16-.01.12.017.267.068.37.097.2.268.414.435.545.19.148.364.572.607.63.177.043.384-.103.543-.142.18-.043.397.01.57-.053.223-.08.128-.337.29-.45.103-.074.286-.01.405-.05.2-.07.34-.264.376-.46.017-.083.01-.146.04-.222.04-.103.11-.16.09-.293-.01-.062-.052-.12-.064-.187-.022-.114.002-.224 0-.337-.003-.2.017-.38-.078-.55-.38-.688-1.236-.93-1.975-.79-.18.035-.287.127-.442.208-.17.088-.138.166-.317.224-.08.026-.216.124-.215.224 0 .115.005.05.012.17-.02.01-.02-.006-.03-.026M.495-48.695c.018.072.007.127-.026.19-.054.1-.113.063-.166.128-.05.063-.1.276-.08.362-.168.058-.01.227-.014.35-.002.05-.04.105-.045.16-.01.12.017.267.068.37.097.2.268.414.435.545.19.148.365.572.608.63.177.043.384-.103.543-.142.18-.043.396.01.57-.053.222-.08.127-.337.288-.45.104-.074.287-.01.406-.05.2-.07.34-.264.376-.46.016-.083.01-.146.04-.222.038-.103.11-.16.09-.293-.01-.062-.053-.12-.065-.187-.022-.114.002-.224 0-.337-.003-.2.017-.38-.078-.55-.38-.688-1.236-.93-1.975-.79-.18.035-.287.127-.442.208-.17.088-.14.166-.318.224-.08.026-.216.124-.215.224 0 .115.005.05.012.17-.022.01-.022-.006-.03-.026M69.44-41.042c.017.072.006.127-.027.19-.053.1-.112.063-.165.128-.05.063-.1.276-.08.362-.168.058-.01.227-.014.35-.002.05-.04.105-.045.16-.01.12.016.267.067.37.097.2.268.414.435.545.19.148.365.572.608.63.177.043.384-.103.543-.142.18-.042.397.01.57-.052.223-.08.128-.337.29-.45.103-.074.286-.01.405-.05.2-.07.34-.264.376-.46.016-.083.01-.146.04-.222.038-.103.11-.16.09-.293-.01-.062-.053-.12-.065-.187-.023-.114 0-.224 0-.337-.004-.2.016-.38-.08-.55-.38-.69-1.235-.93-1.974-.79-.18.034-.287.126-.442.207-.17.088-.14.166-.318.224-.08.027-.216.125-.215.225.002.115.006.05.013.17-.02.01-.02-.006-.03-.026M61.778-41.042c.018.072.007.127-.026.19-.053.1-.112.063-.165.128-.05.063-.1.276-.08.362-.168.058-.008.227-.014.35-.002.05-.04.105-.045.16-.01.12.017.267.068.37.097.2.268.414.435.545.19.148.366.572.61.63.176.043.383-.103.542-.142.18-.042.397.01.57-.052.223-.08.128-.337.29-.45.103-.074.286-.01.405-.05.2-.07.34-.264.376-.46.016-.083.01-.146.04-.222.038-.103.11-.16.09-.293-.01-.062-.053-.12-.065-.187-.022-.114.002-.224 0-.337-.003-.2.017-.38-.078-.55-.38-.69-1.236-.93-1.975-.79-.18.034-.287.126-.442.207-.17.088-.14.166-.318.224-.08.027-.216.125-.215.225 0 .115.005.05.012.17-.02.01-.02-.006-.03-.026M54.118-41.042c.018.072.007.127-.026.19-.053.1-.112.063-.165.128-.05.063-.1.276-.08.362-.168.058-.008.227-.014.35-.002.05-.04.105-.045.16-.01.12.017.267.068.37.097.2.268.414.435.545.19.148.366.572.61.63.176.043.383-.103.542-.142.18-.042.397.01.57-.052.223-.08.128-.337.29-.45.103-.074.286-.01.405-.05.2-.07.34-.264.376-.46.016-.083.01-.146.04-.222.038-.103.11-.16.09-.293-.01-.062-.053-.12-.065-.187-.022-.114.002-.224 0-.337-.003-.2.017-.38-.078-.55-.38-.69-1.236-.93-1.975-.79-.18.034-.287.126-.442.207-.17.088-.14.166-.318.224-.08.027-.216.125-.215.225 0 .115.005.05.012.17-.02.01-.02-.006-.03-.026M46.458-41.042c.018.072.007.127-.026.19-.053.1-.112.063-.165.128-.05.063-.1.276-.08.362-.168.058-.008.227-.014.35-.002.05-.04.105-.045.16-.01.12.017.267.068.37.097.2.268.414.435.545.19.148.366.572.61.63.176.043.383-.103.542-.142.18-.042.397.01.57-.052.223-.08.128-.337.29-.45.103-.074.286-.01.405-.05.2-.07.34-.264.376-.46.016-.083.01-.146.04-.222.038-.103.11-.16.09-.293-.01-.062-.053-.12-.065-.187-.022-.114.002-.224 0-.337-.003-.2.017-.38-.078-.55-.38-.69-1.236-.93-1.975-.79-.18.034-.287.126-.442.207-.17.088-.14.166-.318.224-.08.027-.216.125-.215.225 0 .115.005.05.012.17-.02.01-.02-.006-.03-.026M38.797-41.042c.018.072.007.127-.026.19-.052.1-.11.063-.164.128-.05.063-.1.276-.08.362-.168.058-.008.227-.014.35-.002.05-.04.105-.045.16-.01.12.017.267.068.37.097.2.268.414.435.545.19.148.365.572.608.63.177.043.384-.103.543-.142.18-.042.398.01.572-.052.222-.08.127-.337.288-.45.104-.074.287-.01.406-.05.2-.07.34-.264.376-.46.016-.083.01-.146.04-.222.038-.103.11-.16.09-.293-.01-.062-.053-.12-.065-.187-.022-.114.002-.224 0-.337-.003-.2.017-.38-.078-.55-.38-.69-1.237-.93-1.976-.79-.18.034-.287.126-.442.207-.17.088-.14.166-.318.224-.08.027-.216.125-.215.225 0 .115.004.05.01.17-.02.01-.02-.006-.03-.026M31.137-41.042c.018.072.007.127-.026.19-.052.1-.11.063-.164.128-.05.063-.1.276-.08.362-.168.058-.008.227-.014.35-.002.05-.04.105-.045.16-.01.12.017.267.068.37.097.2.268.414.435.545.19.148.365.572.608.63.177.043.384-.103.543-.142.18-.042.398.01.572-.052.222-.08.127-.337.288-.45.104-.074.287-.01.406-.05.2-.07.34-.264.376-.46.016-.083.01-.146.04-.222.038-.103.11-.16.09-.293-.01-.062-.053-.12-.065-.187-.022-.114.002-.224 0-.337-.003-.2.017-.38-.078-.55-.38-.69-1.237-.93-1.976-.79-.18.034-.287.126-.442.207-.17.088-.14.166-.318.224-.08.027-.216.125-.215.225 0 .115.004.05.01.17-.02.01-.02-.006-.03-.026M23.477-41.042c.018.072.007.127-.026.19-.052.1-.11.063-.164.128-.05.063-.1.276-.08.362-.168.058-.008.227-.014.35-.002.05-.04.105-.045.16-.01.12.017.267.068.37.097.2.268.414.435.545.19.148.365.572.608.63.177.043.384-.103.543-.142.18-.042.398.01.572-.052.222-.08.127-.337.288-.45.104-.074.287-.01.406-.05.2-.07.34-.264.376-.46.016-.083.01-.146.04-.222.038-.103.11-.16.09-.293-.01-.062-.053-.12-.065-.187-.022-.114.002-.224 0-.337-.003-.2.017-.38-.078-.55-.38-.69-1.237-.93-1.976-.79-.18.034-.287.126-.442.207-.17.088-.14.166-.318.224-.08.027-.216.125-.215.225 0 .115.004.05.01.17-.02.01-.02-.006-.03-.026M15.816-41.042c.018.072.007.127-.026.19-.053.1-.112.063-.165.128-.05.063-.1.276-.08.362-.168.058-.008.227-.014.35 0 .05-.04.105-.044.16-.01.12.017.267.068.37.097.2.268.414.435.545.19.148.364.572.607.63.177.043.384-.103.543-.142.18-.042.397.01.57-.052.223-.08.128-.337.29-.45.103-.074.286-.01.405-.05.2-.07.34-.264.376-.46.017-.083.01-.146.04-.222.04-.103.11-.16.09-.293-.01-.062-.052-.12-.064-.187-.022-.114.002-.224 0-.337-.003-.2.017-.38-.078-.55-.38-.69-1.236-.93-1.975-.79-.18.034-.287.126-.442.207-.17.088-.138.166-.317.224-.08.027-.216.125-.215.225 0 .115.005.05.012.17-.02.01-.02-.006-.03-.026M8.156-41.042c.018.072.007.127-.026.19-.053.1-.112.063-.165.128-.05.063-.1.276-.08.362-.168.058-.008.227-.014.35 0 .05-.04.105-.044.16-.01.12.017.267.068.37.097.2.268.414.435.545.19.148.364.572.607.63.177.043.384-.103.543-.142.18-.042.397.01.57-.052.223-.08.128-.337.29-.45.103-.074.286-.01.405-.05.2-.07.34-.264.376-.46.017-.083.01-.146.04-.222.04-.103.11-.16.09-.293-.01-.062-.052-.12-.064-.187-.022-.114.002-.224 0-.337-.003-.2.017-.38-.078-.55-.38-.69-1.236-.93-1.975-.79-.18.034-.287.126-.442.207-.17.088-.138.166-.317.224-.08.027-.216.125-.215.225 0 .115.005.05.012.17-.02.01-.02-.005-.03-.025M.495-41.042c.018.072.007.127-.026.19-.054.1-.113.063-.166.128-.05.063-.1.276-.08.362-.168.058-.01.227-.014.35-.002.05-.04.105-.045.16-.01.12.017.267.068.37.097.2.268.414.435.545.19.148.365.572.608.63.177.043.384-.103.543-.142.18-.042.396.01.57-.052.222-.08.127-.337.288-.45.104-.074.287-.01.406-.05.2-.07.34-.264.376-.46.016-.083.01-.146.04-.222.038-.103.11-.16.09-.293-.01-.062-.053-.12-.065-.187-.022-.114.002-.224 0-.337-.003-.2.017-.38-.078-.55-.38-.69-1.236-.93-1.975-.79-.18.034-.287.126-.442.207-.17.088-.14.166-.318.224-.08.027-.216.125-.215.225 0 .115.005.05.012.17-.022.01-.022-.006-.03-.026M69.44-33.39c.017.072.006.127-.027.19-.053.1-.112.063-.165.128-.05.063-.1.276-.08.362-.168.058-.01.227-.014.35-.002.05-.04.105-.045.16-.01.12.016.267.067.37.097.2.268.414.435.545.19.148.365.572.608.63.177.043.384-.103.543-.142.18-.043.397.01.57-.053.223-.08.128-.337.29-.45.103-.074.286-.01.405-.05.2-.07.34-.264.376-.46.016-.083.01-.146.04-.222.038-.103.11-.16.09-.293-.01-.062-.053-.12-.065-.187-.023-.114 0-.224 0-.337-.004-.2.016-.378-.08-.55-.38-.687-1.235-.928-1.974-.788-.18.034-.287.126-.442.207-.17.087-.14.165-.318.223-.08.026-.216.124-.215.224.002.115.006.05.013.17-.02.01-.02-.006-.03-.026M61.778-33.39c.018.072.007.127-.026.19-.053.1-.112.063-.165.128-.05.063-.1.276-.08.362-.168.058-.008.227-.014.35-.002.05-.04.105-.045.16-.01.12.017.267.068.37.097.2.268.414.435.545.19.148.366.572.61.63.176.043.383-.103.542-.142.18-.043.397.01.57-.053.223-.08.128-.337.29-.45.103-.074.286-.01.405-.05.2-.07.34-.264.376-.46.016-.083.01-.146.04-.222.038-.103.11-.16.09-.293-.01-.062-.053-.12-.065-.187-.022-.114.002-.224 0-.337-.003-.2.017-.378-.078-.55-.38-.687-1.236-.928-1.975-.788-.18.034-.287.126-.442.207-.17.087-.14.165-.318.223-.08.026-.216.124-.215.224 0 .115.005.05.012.17-.02.01-.02-.006-.03-.026M54.118-33.39c.018.072.007.127-.026.19-.053.1-.112.063-.165.128-.05.063-.1.276-.08.362-.168.058-.008.227-.014.35-.002.05-.04.105-.045.16-.01.12.017.267.068.37.097.2.268.414.435.545.19.148.366.572.61.63.176.043.383-.103.542-.142.18-.043.397.01.57-.053.223-.08.128-.337.29-.45.103-.074.286-.01.405-.05.2-.07.34-.264.376-.46.016-.083.01-.146.04-.222.038-.103.11-.16.09-.293-.01-.062-.053-.12-.065-.187-.022-.114.002-.224 0-.337-.003-.2.017-.378-.078-.55-.38-.687-1.236-.928-1.975-.788-.18.034-.287.126-.442.207-.17.087-.14.165-.318.223-.08.026-.216.124-.215.224 0 .115.005.05.012.17-.02.01-.02-.006-.03-.026M46.458-33.39c.018.072.007.127-.026.19-.053.1-.112.063-.165.128-.05.063-.1.276-.08.362-.168.058-.008.227-.014.35-.002.05-.04.105-.045.16-.01.12.017.267.068.37.097.2.268.414.435.545.19.148.366.572.61.63.176.043.383-.103.542-.142.18-.043.397.01.57-.053.223-.08.128-.337.29-.45.103-.074.286-.01.405-.05.2-.07.34-.264.376-.46.016-.083.01-.146.04-.222.038-.103.11-.16.09-.293-.01-.062-.053-.12-.065-.187-.022-.114.002-.224 0-.337-.003-.2.017-.378-.078-.55-.38-.687-1.236-.928-1.975-.788-.18.034-.287.126-.442.207-.17.087-.14.165-.318.223-.08.026-.216.124-.215.224 0 .115.005.05.012.17-.02.01-.02-.006-.03-.026M38.797-33.39c.018.072.007.127-.026.19-.052.1-.11.063-.164.128-.05.063-.1.276-.08.362-.168.058-.008.227-.014.35-.002.05-.04.105-.045.16-.01.12.017.267.068.37.097.2.268.414.435.545.19.148.365.572.608.63.177.043.384-.103.543-.142.18-.043.398.01.572-.053.222-.08.127-.337.288-.45.104-.074.287-.01.406-.05.2-.07.34-.264.376-.46.016-.083.01-.146.04-.222.038-.103.11-.16.09-.293-.01-.062-.053-.12-.065-.187-.022-.114.002-.224 0-.337-.003-.2.017-.378-.078-.55-.38-.687-1.237-.928-1.976-.788-.18.034-.287.126-.442.207-.17.087-.14.165-.318.223-.08.026-.216.124-.215.224 0 .115.004.05.01.17-.02.01-.02-.006-.03-.026M31.137-33.39c.018.072.007.127-.026.19-.052.1-.11.063-.164.128-.05.063-.1.276-.08.362-.168.058-.008.227-.014.35-.002.05-.04.105-.045.16-.01.12.017.267.068.37.097.2.268.414.435.545.19.148.365.572.608.63.177.043.384-.103.543-.142.18-.043.398.01.572-.053.222-.08.127-.337.288-.45.104-.074.287-.01.406-.05.2-.07.34-.264.376-.46.016-.083.01-.146.04-.222.038-.103.11-.16.09-.293-.01-.062-.053-.12-.065-.187-.022-.114.002-.224 0-.337-.003-.2.017-.378-.078-.55-.38-.687-1.237-.928-1.976-.788-.18.034-.287.126-.442.207-.17.087-.14.165-.318.223-.08.026-.216.124-.215.224 0 .115.004.05.01.17-.02.01-.02-.006-.03-.026M23.477-33.39c.018.072.007.127-.026.19-.052.1-.11.063-.164.128-.05.063-.1.276-.08.362-.168.058-.008.227-.014.35-.002.05-.04.105-.045.16-.01.12.017.267.068.37.097.2.268.414.435.545.19.148.365.572.608.63.177.043.384-.103.543-.142.18-.043.398.01.572-.053.222-.08.127-.337.288-.45.104-.074.287-.01.406-.05.2-.07.34-.264.376-.46.016-.083.01-.146.04-.222.038-.103.11-.16.09-.293-.01-.062-.053-.12-.065-.187-.022-.114.002-.224 0-.337-.003-.2.017-.378-.078-.55-.38-.687-1.237-.928-1.976-.788-.18.034-.287.126-.442.207-.17.087-.14.165-.318.223-.08.026-.216.124-.215.224 0 .115.004.05.01.17-.02.01-.02-.006-.03-.026M15.816-33.39c.018.072.007.127-.026.19-.053.1-.112.063-.165.128-.05.063-.1.276-.08.362-.168.058-.008.227-.014.35 0 .05-.04.105-.044.16-.01.12.017.267.068.37.097.2.268.414.435.545.19.148.364.572.607.63.177.043.384-.103.543-.142.18-.043.397.01.57-.053.223-.08.128-.337.29-.45.103-.074.286-.01.405-.05.2-.07.34-.264.376-.46.017-.083.01-.146.04-.222.04-.103.11-.16.09-.293-.01-.062-.052-.12-.064-.187-.022-.114.002-.224 0-.337-.003-.2.017-.378-.078-.55-.38-.687-1.236-.928-1.975-.788-.18.034-.287.126-.442.207-.17.087-.138.165-.317.223-.08.026-.216.124-.215.224 0 .115.005.05.012.17-.02.01-.02-.006-.03-.026M8.156-33.39c.018.072.007.127-.026.19-.053.1-.112.063-.165.128-.05.063-.1.276-.08.362-.168.058-.008.227-.014.35 0 .05-.04.105-.044.16-.01.12.017.267.068.37.097.2.268.414.435.545.19.148.364.572.607.63.177.043.384-.103.543-.142.18-.043.397.01.57-.053.223-.08.128-.337.29-.45.103-.074.286-.01.405-.05.2-.07.34-.264.376-.46.017-.083.01-.146.04-.222.04-.103.11-.16.09-.293-.01-.062-.052-.12-.064-.187-.022-.114.002-.224 0-.337-.003-.2.017-.378-.078-.55-.38-.687-1.236-.928-1.975-.788-.18.034-.287.126-.442.207-.17.087-.138.165-.317.223-.08.026-.216.124-.215.224 0 .115.005.05.012.17-.02.01-.02-.006-.03-.026M.495-33.39c.018.072.007.127-.026.19-.054.1-.113.063-.166.128-.05.063-.1.276-.08.362-.168.058-.01.227-.014.35-.002.05-.04.105-.045.16-.01.12.017.267.068.37.097.2.268.414.435.545.19.148.365.572.608.63.177.043.384-.103.543-.142.18-.043.396.01.57-.053.222-.08.127-.337.288-.45.104-.074.287-.01.406-.05.2-.07.34-.264.376-.46.016-.083.01-.146.04-.222.038-.103.11-.16.09-.293-.01-.062-.053-.12-.065-.187-.022-.114.002-.224 0-.337-.003-.2.017-.378-.078-.55-.38-.687-1.236-.928-1.975-.788-.18.034-.287.126-.442.207-.17.087-.14.165-.318.223-.08.026-.216.124-.215.224.003.117.006.053.013.17-.02.012-.02-.004-.03-.024M69.44-25.736c.017.072.006.127-.027.19-.053.1-.112.063-.165.128-.05.063-.1.276-.08.362-.168.058-.01.227-.014.35-.002.05-.04.105-.045.16-.01.12.016.267.067.37.097.2.268.414.435.545.19.147.365.57.608.63.177.042.384-.104.543-.143.18-.043.397.01.57-.053.223-.08.128-.337.29-.45.103-.074.286-.01.405-.05.2-.07.34-.264.376-.46.016-.083.01-.146.04-.222.038-.103.11-.16.09-.293-.01-.063-.053-.12-.065-.188-.023-.114 0-.224 0-.337-.004-.2.016-.38-.08-.55-.38-.688-1.235-.93-1.974-.79-.18.035-.287.127-.442.208-.17.088-.14.166-.318.224-.08.026-.216.124-.215.224.002.116.006.052.013.17-.02.01-.02-.005-.03-.025M61.778-25.736c.018.072.007.127-.026.19-.053.1-.112.063-.165.128-.05.063-.1.276-.08.362-.168.058-.008.227-.014.35-.002.05-.04.105-.045.16-.01.12.017.267.068.37.097.2.268.414.435.545.19.147.366.57.61.63.176.042.383-.104.542-.143.18-.043.397.01.57-.053.223-.08.128-.337.29-.45.103-.074.286-.01.405-.05.2-.07.34-.264.376-.46.016-.083.01-.146.04-.222.038-.103.11-.16.09-.293-.01-.063-.053-.12-.065-.188-.022-.114.002-.224 0-.337-.003-.2.017-.38-.078-.55-.38-.688-1.236-.93-1.975-.79-.18.035-.287.127-.442.208-.17.088-.14.166-.318.224-.08.026-.216.124-.215.224 0 .116.005.052.012.17-.02.01-.02-.005-.03-.025M54.118-25.736c.018.072.007.127-.026.19-.053.1-.112.063-.165.128-.05.063-.1.276-.08.362-.168.058-.008.227-.014.35-.002.05-.04.105-.045.16-.01.12.017.267.068.37.097.2.268.414.435.545.19.147.366.57.61.63.176.042.383-.104.542-.143.18-.043.397.01.57-.053.223-.08.128-.337.29-.45.103-.074.286-.01.405-.05.2-.07.34-.264.376-.46.016-.083.01-.146.04-.222.038-.103.11-.16.09-.293-.01-.063-.053-.12-.065-.188-.022-.114.002-.224 0-.337-.003-.2.017-.38-.078-.55-.38-.688-1.236-.93-1.975-.79-.18.035-.287.127-.442.208-.17.088-.14.166-.318.224-.08.026-.216.124-.215.224 0 .116.005.052.012.17-.02.01-.02-.005-.03-.025M46.458-25.736c.018.072.007.127-.026.19-.053.1-.112.063-.165.128-.05.063-.1.276-.08.362-.168.058-.008.227-.014.35-.002.05-.04.105-.045.16-.01.12.017.267.068.37.097.2.268.414.435.545.19.147.366.57.61.63.176.042.383-.104.542-.143.18-.043.397.01.57-.053.223-.08.128-.337.29-.45.103-.074.286-.01.405-.05.2-.07.34-.264.376-.46.016-.083.01-.146.04-.222.038-.103.11-.16.09-.293-.01-.063-.053-.12-.065-.188-.022-.114.002-.224 0-.337-.003-.2.017-.38-.078-.55-.38-.688-1.236-.93-1.975-.79-.18.035-.287.127-.442.208-.17.088-.14.166-.318.224-.08.026-.216.124-.215.224 0 .116.005.052.012.17-.02.01-.02-.005-.03-.025M38.797-25.736c.018.072.007.127-.026.19-.052.1-.11.063-.164.128-.05.063-.1.276-.08.362-.168.058-.008.227-.014.35-.002.05-.04.105-.045.16-.01.12.017.267.068.37.097.2.268.414.435.545.19.147.365.57.608.63.177.042.384-.104.543-.143.18-.043.398.01.572-.053.222-.08.127-.337.288-.45.104-.074.287-.01.406-.05.2-.07.34-.264.376-.46.016-.083.01-.146.04-.222.038-.103.11-.16.09-.293-.01-.063-.053-.12-.065-.188-.022-.114.002-.224 0-.337-.003-.2.017-.38-.078-.55-.38-.688-1.237-.93-1.976-.79-.18.035-.287.127-.442.208-.17.088-.14.166-.318.224-.08.026-.216.124-.215.224 0 .116.004.052.01.17-.02.01-.02-.005-.03-.025M31.137-25.736c.018.072.007.127-.026.19-.052.1-.11.063-.164.128-.05.063-.1.276-.08.362-.168.058-.008.227-.014.35-.002.05-.04.105-.045.16-.01.12.017.267.068.37.097.2.268.414.435.545.19.147.365.57.608.63.177.042.384-.104.543-.143.18-.043.398.01.572-.053.222-.08.127-.337.288-.45.104-.074.287-.01.406-.05.2-.07.34-.264.376-.46.016-.083.01-.146.04-.222.038-.103.11-.16.09-.293-.01-.063-.053-.12-.065-.188-.022-.114.002-.224 0-.337-.003-.2.017-.38-.078-.55-.38-.688-1.237-.93-1.976-.79-.18.035-.287.127-.442.208-.17.088-.14.166-.318.224-.08.026-.216.124-.215.224 0 .116.004.052.01.17-.02.01-.02-.005-.03-.025M23.477-25.736c.018.072.007.127-.026.19-.052.1-.11.063-.164.128-.05.063-.1.276-.08.362-.168.058-.008.227-.014.35-.002.05-.04.105-.045.16-.01.12.017.267.068.37.097.2.268.414.435.545.19.147.365.57.608.63.177.042.384-.104.543-.143.18-.043.398.01.572-.053.222-.08.127-.337.288-.45.104-.074.287-.01.406-.05.2-.07.34-.264.376-.46.016-.083.01-.146.04-.222.038-.103.11-.16.09-.293-.01-.063-.053-.12-.065-.188-.022-.114.002-.224 0-.337-.003-.2.017-.38-.078-.55-.38-.688-1.237-.93-1.976-.79-.18.035-.287.127-.442.208-.17.088-.14.166-.318.224-.08.026-.216.124-.215.224 0 .116.004.052.01.17-.02.01-.02-.005-.03-.025M15.816-25.736c.018.072.007.127-.026.19-.053.1-.112.063-.165.128-.05.063-.1.276-.08.362-.168.058-.008.227-.014.35 0 .05-.04.105-.044.16-.01.12.017.267.068.37.097.2.268.414.435.545.19.147.364.57.607.63.177.042.384-.104.543-.143.18-.043.397.01.57-.053.223-.08.128-.337.29-.45.103-.074.286-.01.405-.05.2-.07.34-.264.376-.46.017-.083.01-.146.04-.222.04-.103.11-.16.09-.293-.01-.063-.052-.12-.064-.188-.022-.114.002-.224 0-.337-.003-.2.017-.38-.078-.55-.38-.688-1.236-.93-1.975-.79-.18.035-.287.127-.442.208-.17.088-.138.166-.317.224-.08.026-.216.124-.215.224 0 .116.005.052.012.17-.02.01-.02-.005-.03-.025M8.156-25.736c.018.072.007.127-.026.19-.053.1-.112.063-.165.128-.05.063-.1.276-.08.362-.168.058-.008.227-.014.35 0 .05-.04.105-.044.16-.01.12.017.267.068.37.097.2.268.414.435.545.19.147.364.57.607.63.177.042.384-.104.543-.143.18-.043.397.01.57-.053.223-.08.128-.337.29-.45.103-.074.286-.01.405-.05.2-.07.34-.264.376-.46.017-.083.01-.146.04-.222.04-.103.11-.16.09-.293-.01-.063-.052-.12-.064-.188-.022-.114.002-.224 0-.337-.003-.2.017-.38-.078-.55-.38-.688-1.236-.93-1.975-.79-.18.035-.287.127-.442.208-.17.088-.138.166-.317.224-.08.026-.216.124-.215.224 0 .116.005.052.012.17-.02.01-.02-.005-.03-.025M.495-25.736c.018.072.007.127-.026.19-.054.1-.113.063-.166.128-.05.063-.1.276-.08.362-.168.058-.01.227-.014.35-.002.05-.04.105-.045.16-.01.12.017.267.068.37.097.2.268.414.435.545.19.147.365.57.608.63.177.042.384-.104.543-.143.18-.043.396.01.57-.053.222-.08.127-.337.288-.45.104-.074.287-.01.406-.05.2-.07.34-.264.376-.46.016-.083.01-.146.04-.222.038-.103.11-.16.09-.293-.01-.063-.053-.12-.065-.188-.022-.114.002-.224 0-.337-.003-.2.017-.38-.078-.55-.38-.688-1.236-.93-1.975-.79-.18.035-.287.127-.442.208-.17.088-.14.166-.318.224-.08.026-.216.124-.215.224 0 .116.005.052.012.17-.022.01-.022-.005-.03-.025M69.44-18.084c.017.072.006.127-.027.19-.053.1-.112.063-.165.128-.05.063-.1.276-.08.362-.168.058-.01.227-.014.35-.002.05-.04.105-.045.16-.01.12.016.267.067.37.097.2.268.414.435.545.19.15.365.573.608.632.177.042.384-.104.543-.143.18-.044.397.01.57-.054.223-.08.128-.337.29-.45.103-.074.286-.01.405-.05.2-.07.34-.264.376-.46.016-.083.01-.146.04-.222.038-.103.11-.16.09-.293-.01-.06-.053-.12-.065-.186-.023-.114 0-.224 0-.337-.004-.2.016-.38-.08-.55-.38-.688-1.235-.93-1.974-.79-.18.035-.287.127-.442.208-.17.088-.14.166-.318.224-.08.025-.216.123-.215.223.002.115.006.05.013.17-.02.01-.02-.006-.03-.026M61.778-18.084c.018.072.007.127-.026.19-.053.1-.112.063-.165.128-.05.063-.1.276-.08.362-.168.058-.008.227-.014.35-.002.05-.04.105-.045.16-.01.12.017.267.068.37.097.2.268.414.435.545.19.15.366.573.61.632.176.042.383-.104.542-.143.18-.044.397.01.57-.054.223-.08.128-.337.29-.45.103-.074.286-.01.405-.05.2-.07.34-.264.376-.46.016-.083.01-.146.04-.222.038-.103.11-.16.09-.293-.01-.06-.053-.12-.065-.186-.022-.114.002-.224 0-.337-.003-.2.017-.38-.078-.55-.38-.688-1.236-.93-1.975-.79-.18.035-.287.127-.442.208-.17.088-.14.166-.318.224-.08.025-.216.123-.215.223 0 .115.005.05.012.17-.02.01-.02-.006-.03-.026M54.118-18.084c.018.072.007.127-.026.19-.053.1-.112.063-.165.128-.05.063-.1.276-.08.362-.168.058-.008.227-.014.35-.002.05-.04.105-.045.16-.01.12.017.267.068.37.097.2.268.414.435.545.19.15.366.573.61.632.176.042.383-.104.542-.143.18-.044.397.01.57-.054.223-.08.128-.337.29-.45.103-.074.286-.01.405-.05.2-.07.34-.264.376-.46.016-.083.01-.146.04-.222.038-.103.11-.16.09-.293-.01-.06-.053-.12-.065-.186-.022-.114.002-.224 0-.337-.003-.2.017-.38-.078-.55-.38-.688-1.236-.93-1.975-.79-.18.035-.287.127-.442.208-.17.088-.14.166-.318.224-.08.025-.216.123-.215.223 0 .115.005.05.012.17-.02.01-.02-.006-.03-.026M46.458-18.084c.018.072.007.127-.026.19-.053.1-.112.063-.165.128-.05.063-.1.276-.08.362-.168.058-.008.227-.014.35-.002.05-.04.105-.045.16-.01.12.017.267.068.37.097.2.268.414.435.545.19.15.366.573.61.632.176.042.383-.104.542-.143.18-.044.397.01.57-.054.223-.08.128-.337.29-.45.103-.074.286-.01.405-.05.2-.07.34-.264.376-.46.016-.083.01-.146.04-.222.038-.103.11-.16.09-.293-.01-.06-.053-.12-.065-.186-.022-.114.002-.224 0-.337-.003-.2.017-.38-.078-.55-.38-.688-1.236-.93-1.975-.79-.18.035-.287.127-.442.208-.17.088-.14.166-.318.224-.08.025-.216.123-.215.223 0 .115.005.05.012.17-.02.01-.02-.006-.03-.026M38.797-18.084c.018.072.007.127-.026.19-.052.1-.11.063-.164.128-.05.063-.1.276-.08.362-.168.058-.008.227-.014.35-.002.05-.04.105-.045.16-.01.12.017.267.068.37.097.2.268.414.435.545.19.15.365.573.608.632.177.042.384-.104.543-.143.18-.044.398.01.572-.054.222-.08.127-.337.288-.45.104-.074.287-.01.406-.05.2-.07.34-.264.376-.46.016-.083.01-.146.04-.222.038-.103.11-.16.09-.293-.01-.06-.053-.12-.065-.186-.022-.114.002-.224 0-.337-.003-.2.017-.38-.078-.55-.38-.688-1.237-.93-1.976-.79-.18.035-.287.127-.442.208-.17.088-.14.166-.318.224-.08.025-.216.123-.215.223 0 .115.004.05.01.17-.02.01-.02-.006-.03-.026M31.137-18.084c.018.072.007.127-.026.19-.052.1-.11.063-.164.128-.05.063-.1.276-.08.362-.168.058-.008.227-.014.35-.002.05-.04.105-.045.16-.01.12.017.267.068.37.097.2.268.414.435.545.19.15.365.573.608.632.177.042.384-.104.543-.143.18-.044.398.01.572-.054.222-.08.127-.337.288-.45.104-.074.287-.01.406-.05.2-.07.34-.264.376-.46.016-.083.01-.146.04-.222.038-.103.11-.16.09-.293-.01-.06-.053-.12-.065-.186-.022-.114.002-.224 0-.337-.003-.2.017-.38-.078-.55-.38-.688-1.237-.93-1.976-.79-.18.035-.287.127-.442.208-.17.088-.14.166-.318.224-.08.025-.216.123-.215.223 0 .115.004.05.01.17-.02.01-.02-.006-.03-.026M23.477-18.084c.018.072.007.127-.026.19-.052.1-.11.063-.164.128-.05.063-.1.276-.08.362-.168.058-.008.227-.014.35-.002.05-.04.105-.045.16-.01.12.017.267.068.37.097.2.268.414.435.545.19.15.365.573.608.632.177.042.384-.104.543-.143.18-.044.398.01.572-.054.222-.08.127-.337.288-.45.104-.074.287-.01.406-.05.2-.07.34-.264.376-.46.016-.083.01-.146.04-.222.038-.103.11-.16.09-.293-.01-.06-.053-.12-.065-.186-.022-.114.002-.224 0-.337-.003-.2.017-.38-.078-.55-.38-.688-1.237-.93-1.976-.79-.18.035-.287.127-.442.208-.17.088-.14.166-.318.224-.08.025-.216.123-.215.223 0 .115.004.05.01.17-.02.01-.02-.006-.03-.026M15.816-18.084c.018.072.007.127-.026.19-.053.1-.112.063-.165.128-.05.063-.1.276-.08.362-.168.058-.008.227-.014.35 0 .05-.04.105-.044.16-.01.12.017.267.068.37.097.2.268.414.435.545.19.15.364.573.607.632.177.042.384-.104.543-.143.18-.044.397.01.57-.054.223-.08.128-.337.29-.45.103-.074.286-.01.405-.05.2-.07.34-.264.376-.46.017-.083.01-.146.04-.222.04-.103.11-.16.09-.293-.01-.06-.052-.12-.064-.186-.022-.114.002-.224 0-.337-.003-.2.017-.38-.078-.55-.38-.688-1.236-.93-1.975-.79-.18.035-.287.127-.442.208-.17.088-.138.166-.317.224-.08.025-.216.123-.215.223 0 .115.005.05.012.17-.02.01-.02-.006-.03-.026M8.156-18.084c.018.072.007.127-.026.19-.053.1-.112.063-.165.128-.05.063-.1.276-.08.362-.168.058-.008.227-.014.35 0 .05-.04.105-.044.16-.01.12.017.267.068.37.097.2.268.414.435.545.19.15.364.573.607.632.177.042.384-.104.543-.143.18-.044.397.01.57-.054.223-.08.128-.337.29-.45.103-.074.286-.01.405-.05.2-.07.34-.264.376-.46.017-.083.01-.146.04-.222.04-.103.11-.16.09-.293-.01-.06-.052-.12-.064-.186-.022-.114.002-.224 0-.337-.003-.2.017-.38-.078-.55-.38-.688-1.236-.93-1.975-.79-.18.035-.287.127-.442.208-.17.088-.138.166-.317.224-.08.025-.216.123-.215.223 0 .115.005.05.012.17-.02.01-.02-.006-.03-.026M.495-18.084c.018.072.007.127-.026.19-.054.1-.113.063-.166.128-.05.063-.1.276-.08.362-.168.058-.01.227-.014.35-.002.05-.04.105-.045.16-.01.12.017.267.068.37.097.2.268.414.435.545.19.15.365.573.608.632.177.042.384-.104.543-.143.18-.044.396.01.57-.054.222-.08.127-.337.288-.45.104-.074.287-.01.406-.05.2-.07.34-.264.376-.46.016-.083.01-.146.04-.222.038-.103.11-.16.09-.293-.01-.06-.053-.12-.065-.186-.022-.114.002-.224 0-.337-.003-.2.017-.38-.078-.55-.38-.688-1.236-.93-1.975-.79-.18.035-.287.127-.442.208-.17.088-.14.166-.318.224-.08.025-.216.123-.215.223.003.117.006.052.013.17-.02.01-.02-.005-.03-.025M69.44-10.43c.017.07.006.126-.027.19-.053.1-.112.062-.165.127-.05.063-.1.276-.08.362-.168.058-.01.227-.014.35-.002.05-.04.105-.045.16-.01.12.016.267.067.37.097.2.268.414.435.545.19.148.365.572.608.63.177.043.384-.103.543-.142.18-.043.397.01.57-.053.223-.08.128-.337.29-.45.103-.074.286-.01.405-.05.2-.07.34-.264.376-.46.016-.083.01-.146.04-.222.038-.103.11-.16.09-.293-.01-.062-.053-.12-.065-.187-.023-.114 0-.224 0-.337-.004-.2.016-.378-.08-.55-.38-.687-1.235-.928-1.974-.788-.18.034-.287.126-.442.207-.17.087-.14.165-.318.223-.08.026-.216.124-.215.224.002.115.006.05.013.17-.02.01-.02-.006-.03-.026M61.778-10.43c.018.07.007.126-.026.19-.053.1-.112.062-.165.127-.05.063-.1.276-.08.362-.168.057-.008.226-.014.35-.002.05-.04.104-.045.16-.01.12.017.266.068.37.097.198.268.413.435.544.19.148.366.572.61.63.176.043.383-.103.542-.142.18-.043.397.01.57-.053.223-.08.128-.338.29-.45.103-.075.286-.01.405-.052.2-.07.34-.263.376-.46.016-.082.01-.145.04-.22.038-.104.11-.16.09-.294-.01-.062-.053-.12-.065-.187-.022-.114.002-.224 0-.337-.003-.2.017-.38-.078-.55-.38-.688-1.236-.93-1.975-.79-.18.035-.287.127-.442.208-.17.088-.14.166-.318.224-.08.026-.216.124-.215.224 0 .115.005.05.012.17-.02.01-.02-.006-.03-.026M54.118-10.43c.018.07.007.126-.026.19-.053.1-.112.062-.165.127-.05.063-.1.276-.08.362-.168.057-.008.226-.014.35-.002.05-.04.104-.045.16-.01.12.017.266.068.37.097.198.268.413.435.544.19.148.366.572.61.63.176.043.383-.103.542-.142.18-.043.397.01.57-.053.223-.08.128-.338.29-.45.103-.075.286-.01.405-.052.2-.07.34-.263.376-.46.016-.082.01-.145.04-.22.038-.104.11-.16.09-.294-.01-.062-.053-.12-.065-.187-.022-.114.002-.224 0-.337-.003-.2.017-.38-.078-.55-.38-.688-1.236-.93-1.975-.79-.18.035-.287.127-.442.208-.17.088-.14.166-.318.224-.08.026-.216.124-.215.224 0 .115.005.05.012.17-.02.01-.02-.006-.03-.026M46.458-10.43c.018.07.007.126-.026.19-.053.1-.112.062-.165.127-.05.063-.1.276-.08.362-.168.057-.008.226-.014.35-.002.05-.04.104-.045.16-.01.12.017.266.068.37.097.198.268.413.435.544.19.148.366.572.61.63.176.043.383-.103.542-.142.18-.043.397.01.57-.053.223-.08.128-.338.29-.45.103-.075.286-.01.405-.052.2-.07.34-.263.376-.46.016-.082.01-.145.04-.22.038-.104.11-.16.09-.294-.01-.062-.053-.12-.065-.187-.022-.114.002-.224 0-.337-.003-.2.017-.38-.078-.55-.38-.688-1.236-.93-1.975-.79-.18.035-.287.127-.442.208-.17.088-.14.166-.318.224-.08.026-.216.124-.215.224 0 .115.005.05.012.17-.02.01-.02-.006-.03-.026M38.797-10.43c.018.07.007.126-.026.19-.052.1-.11.062-.164.127-.05.063-.1.276-.08.362-.168.057-.008.226-.014.35-.002.05-.04.104-.045.16-.01.12.017.266.068.37.097.198.268.413.435.544.19.148.365.572.608.63.177.043.384-.103.543-.142.18-.043.398.01.572-.053.222-.08.127-.338.288-.45.104-.075.287-.01.406-.052.2-.07.34-.263.376-.46.016-.082.01-.145.04-.22.038-.104.11-.16.09-.294-.01-.062-.053-.12-.065-.187-.022-.114.002-.224 0-.337-.003-.2.017-.38-.078-.55-.38-.688-1.237-.93-1.976-.79-.18.035-.287.127-.442.208-.17.088-.14.166-.318.224-.08.026-.216.124-.215.224 0 .115.004.05.01.17-.02.01-.02-.006-.03-.026M31.137-10.43c.018.07.007.126-.026.19-.052.1-.11.062-.164.127-.05.063-.1.276-.08.362-.168.057-.008.226-.014.35-.002.05-.04.104-.045.16-.01.12.017.266.068.37.097.198.268.413.435.544.19.148.365.572.608.63.177.043.384-.103.543-.142.18-.043.398.01.572-.053.222-.08.127-.338.288-.45.104-.075.287-.01.406-.052.2-.07.34-.263.376-.46.016-.082.01-.145.04-.22.038-.104.11-.16.09-.294-.01-.062-.053-.12-.065-.187-.022-.114.002-.224 0-.337-.003-.2.017-.38-.078-.55-.38-.688-1.237-.93-1.976-.79-.18.035-.287.127-.442.208-.17.088-.14.166-.318.224-.08.026-.216.124-.215.224 0 .115.004.05.01.17-.02.01-.02-.006-.03-.026M23.477-10.43c.018.07.007.126-.026.19-.052.1-.11.062-.164.127-.05.063-.1.276-.08.362-.168.057-.008.226-.014.35-.002.05-.04.104-.045.16-.01.12.017.266.068.37.097.198.268.413.435.544.19.148.365.572.608.63.177.043.384-.103.543-.142.18-.043.398.01.572-.053.222-.08.127-.338.288-.45.104-.075.287-.01.406-.052.2-.07.34-.263.376-.46.016-.082.01-.145.04-.22.038-.104.11-.16.09-.294-.01-.062-.053-.12-.065-.187-.022-.114.002-.224 0-.337-.003-.2.017-.38-.078-.55-.38-.688-1.237-.93-1.976-.79-.18.035-.287.127-.442.208-.17.088-.14.166-.318.224-.08.026-.216.124-.215.224 0 .115.004.05.01.17-.02.01-.02-.006-.03-.026M15.816-10.43c.018.07.007.126-.026.19-.053.1-.112.062-.165.127-.05.063-.1.276-.08.362-.168.057-.008.226-.014.35 0 .05-.04.104-.044.16-.01.12.017.266.068.37.097.198.268.413.435.544.19.148.364.572.607.63.177.043.384-.103.543-.142.18-.043.397.01.57-.053.223-.08.13-.337.29-.45.104-.074.287-.01.406-.05.2-.07.34-.264.376-.46.016-.083.01-.146.04-.222.038-.103.11-.16.09-.293-.01-.062-.053-.12-.065-.187-.022-.114.002-.224 0-.337-.003-.2.017-.378-.078-.55-.38-.687-1.237-.928-1.976-.788-.18.034-.287.126-.442.207-.17.087-.14.165-.318.223-.08.026-.216.124-.215.224 0 .115.004.05.01.17-.02.01-.02-.006-.03-.026M8.156-10.43c.018.07.007.126-.026.19-.053.1-.112.062-.165.127-.05.063-.1.277-.08.363-.168.058-.01.227-.014.35-.002.05-.04.105-.044.16-.01.12.017.267.068.37.097.2.268.414.435.545.19.148.364.572.607.63.177.043.384-.104.543-.142.18-.043.397.01.57-.053.223-.08.128-.337.29-.45.103-.074.286-.01.405-.05.2-.07.34-.264.376-.46.017-.083.01-.146.04-.222.04-.103.11-.16.09-.293-.01-.062-.052-.12-.064-.187-.022-.114.002-.224 0-.337-.003-.2.017-.378-.078-.55-.38-.687-1.236-.928-1.975-.788-.18.034-.287.126-.442.207-.17.087-.138.165-.317.223-.08.026-.216.124-.215.224 0 .115.005.05.012.17-.02.01-.02-.006-.03-.026M.495-10.43c.018.07.007.126-.026.19-.054.1-.113.062-.166.127-.05.063-.1.277-.08.363-.168.058-.01.227-.014.35-.002.05-.04.105-.045.16-.01.12.017.267.068.37.097.2.268.414.435.545.19.148.365.572.608.63.178.043.384-.104.543-.142.18-.043.397.01.57-.053.223-.08.128-.337.29-.45.103-.074.286-.01.405-.05.2-.07.34-.264.376-.46.017-.083.01-.145.04-.22.04-.104.11-.16.09-.294-.01-.062-.052-.12-.064-.187-.022-.115.002-.225 0-.338-.003-.2.017-.38-.078-.55-.38-.688-1.236-.93-1.975-.79-.18.035-.287.127-.442.208-.17.088-.138.166-.317.224-.08.026-.216.124-.215.224 0 .115.005.05.012.17-.02.01-.02-.006-.03-.026"/></g><g fill="#fff"><path d="M69.44-2.778c.017.072.007.127-.027.19-.052.1-.113.063-.165.128-.05.063-.1.276-.08.362-.168.058-.01.227-.014.35-.002.05-.04.105-.045.16-.01.12.016.267.067.37.097.2.268.414.435.545.19.148.365.572.608.63.177.043.384-.103.543-.142.18-.043.397.01.57-.053.223-.08.128-.337.29-.45.103-.074.286-.01.405-.05.2-.07.34-.264.376-.46.016-.083.01-.146.04-.222.037-.103.11-.16.09-.293-.01-.062-.052-.12-.065-.187-.022-.114 0-.224 0-.337-.004-.2.016-.38-.08-.55-.38-.688-1.235-.93-1.974-.79-.18.035-.287.127-.442.208-.17.09-.14.167-.318.225-.08.026-.215.124-.215.224.003.114.006.05.013.168-.02.01-.02-.005-.03-.025M61.778-2.778c.018.072.007.127-.026.19-.052.1-.112.063-.165.128-.05.063-.1.276-.08.362-.168.058-.01.227-.014.35-.002.05-.04.105-.045.16-.01.12.017.267.068.37.097.2.268.414.435.545.19.148.366.572.61.63.177.043.383-.103.543-.142.18-.043.397.01.57-.053.223-.08.128-.337.29-.45.103-.074.286-.01.405-.05.2-.07.34-.264.376-.46.016-.083.01-.146.04-.222.038-.103.11-.16.09-.293-.01-.062-.053-.12-.065-.187-.023-.114 0-.224 0-.337-.004-.2.016-.38-.08-.55-.38-.688-1.235-.93-1.974-.79-.18.035-.287.127-.442.208-.17.09-.14.167-.318.225-.08.028-.216.125-.215.225.002.115.006.05.013.17-.02.01-.02-.006-.03-.026M54.118-2.778c.018.072.007.127-.026.19-.052.1-.112.063-.165.128-.05.063-.1.276-.08.362-.168.058-.01.227-.014.35-.002.05-.04.105-.045.16-.01.12.017.267.068.37.097.2.268.414.435.545.19.148.366.572.61.63.177.043.383-.103.542-.142.18-.043.397.01.57-.053.223-.08.128-.337.29-.45.103-.074.286-.01.405-.05.2-.07.34-.264.376-.46.016-.083.01-.146.04-.222.038-.103.11-.16.09-.293-.01-.062-.053-.12-.065-.187-.022-.114.002-.224 0-.337-.003-.2.017-.38-.078-.55-.38-.688-1.236-.93-1.975-.79-.18.035-.287.127-.442.208-.17.09-.14.167-.318.225-.08.028-.215.125-.214.225.002.115.006.05.013.17-.02.01-.02-.006-.03-.026M46.458-2.778c.018.072.007.127-.026.19-.053.1-.112.063-.165.128-.05.063-.1.276-.08.362-.168.058-.01.227-.014.35-.002.05-.04.105-.045.16-.01.12.017.267.068.37.097.2.268.414.435.545.19.148.366.572.61.63.176.043.383-.103.542-.142.18-.043.397.01.57-.053.223-.08.128-.337.29-.45.103-.074.286-.01.405-.05.2-.07.34-.264.376-.46.016-.083.01-.146.04-.222.038-.103.11-.16.09-.293-.01-.062-.053-.12-.065-.187-.022-.114.002-.224 0-.337-.003-.2.017-.38-.078-.55-.38-.688-1.236-.93-1.975-.79-.18.035-.287.127-.442.208-.17.09-.14.167-.318.225-.08.028-.216.125-.215.225 0 .115.005.05.012.17-.02.01-.02-.006-.03-.026M38.797-2.778c.018.072.007.127-.026.19-.052.1-.11.063-.164.128-.05.063-.1.276-.08.362-.168.058-.01.227-.014.35-.002.05-.04.105-.045.16-.01.12.017.267.068.37.097.2.268.414.435.545.19.148.365.572.608.63.178.043.384-.103.544-.142.18-.043.397.01.57-.053.223-.08.128-.337.29-.45.103-.074.286-.01.405-.05.2-.07.34-.264.376-.46.016-.083.01-.146.04-.222.038-.103.11-.16.09-.293-.01-.062-.053-.12-.065-.187-.022-.114.002-.224 0-.337-.003-.2.017-.38-.078-.55-.38-.688-1.236-.93-1.975-.79-.18.035-.287.127-.442.208-.17.09-.14.167-.318.225-.08.028-.216.125-.215.225 0 .115.005.05.012.17-.02.01-.02-.006-.03-.026M31.137-2.778c.018.072.007.127-.026.19-.052.1-.11.063-.164.128-.05.063-.1.276-.08.362-.168.058-.01.227-.014.35-.002.05-.04.105-.045.16-.01.12.017.267.068.37.097.2.268.414.435.545.19.148.365.572.608.63.177.043.384-.103.543-.142.18-.043.398.01.572-.053.222-.08.127-.337.288-.45.104-.074.287-.01.406-.05.2-.07.34-.264.376-.46.016-.083.01-.146.04-.222.038-.103.11-.16.09-.293-.01-.062-.053-.12-.065-.187-.022-.114.002-.224 0-.337-.003-.2.017-.38-.078-.55-.38-.688-1.237-.93-1.976-.79-.18.035-.287.127-.442.208-.17.09-.14.167-.318.225-.08.028-.215.125-.214.225 0 .115.005.05.012.17-.02.01-.02-.006-.03-.026M23.477-2.778c.018.072.007.127-.026.19-.052.1-.11.063-.164.128-.05.063-.1.276-.08.362-.168.058-.01.227-.014.35-.002.05-.04.105-.045.16-.01.12.017.267.068.37.097.2.268.414.435.545.19.148.365.572.608.63.177.043.384-.103.543-.142.18-.043.398.01.572-.053.222-.08.127-.337.288-.45.104-.074.287-.01.406-.05.2-.07.34-.264.376-.46.016-.083.01-.146.04-.222.038-.103.11-.16.09-.293-.01-.062-.053-.12-.065-.187-.022-.114.002-.224 0-.337-.003-.2.017-.38-.078-.55-.38-.688-1.237-.93-1.976-.79-.18.035-.287.127-.442.208-.17.09-.14.167-.318.225-.08.026-.216.124-.215.224 0 .114.004.05.01.168-.02.01-.02-.005-.03-.025M15.816-2.778c.018.072.007.127-.026.19-.053.1-.112.063-.165.128-.05.063-.1.276-.08.362-.168.058-.01.227-.014.35 0 .05-.04.105-.044.16-.01.12.017.267.068.37.097.2.268.414.435.545.19.148.364.572.607.63.177.043.384-.103.543-.142.18-.043.397.01.57-.053.223-.08.128-.337.29-.45.103-.074.286-.01.405-.05.2-.07.34-.264.376-.46.017-.083.01-.146.04-.222.04-.103.11-.16.09-.293-.01-.062-.052-.12-.064-.187-.022-.114.002-.224 0-.337-.003-.2.017-.38-.078-.55-.38-.688-1.236-.93-1.975-.79-.18.035-.287.127-.442.208-.17.09-.138.167-.317.225-.08.026-.216.124-.215.224 0 .114.005.05.012.168-.02.012-.02-.004-.03-.024M8.156-2.778c.018.072.007.127-.026.19-.053.1-.112.063-.165.128-.05.063-.1.276-.08.362-.168.058-.01.227-.014.35-.002.05-.04.105-.044.16-.01.12.017.267.068.37.097.2.268.414.435.545.19.148.364.572.607.63.177.043.384-.103.543-.142.18-.043.397.01.57-.053.223-.08.128-.337.29-.45.103-.074.286-.01.405-.05.2-.07.34-.264.376-.46.017-.083.01-.146.04-.222.04-.103.11-.16.09-.293-.01-.062-.052-.12-.064-.187-.022-.114.002-.224 0-.337-.003-.2.017-.38-.078-.55-.38-.688-1.236-.93-1.975-.79-.18.037-.286.13-.44.21-.17.088-.14.166-.32.224-.08.026-.215.123-.214.223 0 .115.004.05.01.17-.02.01-.02-.006-.03-.026M.495-2.778c.018.072.008.127-.026.19-.053.1-.114.063-.166.128-.05.063-.1.276-.08.362-.168.058-.01.227-.014.35-.002.05-.04.105-.045.16-.01.12.017.267.068.37.097.2.268.414.435.545.19.148.365.572.608.63.178.043.384-.103.543-.142.18-.043.397.01.57-.052.223-.08.128-.337.29-.45.103-.074.286-.01.405-.05.2-.07.34-.264.376-.46.017-.083.01-.146.04-.222.038-.102.11-.16.09-.292-.01-.062-.05-.12-.064-.187-.02-.113.002-.223 0-.336-.003-.2.017-.38-.078-.55-.38-.688-1.236-.93-1.975-.79-.18.036-.286.128-.442.21-.17.087-.138.165-.317.223-.08.026-.215.123-.215.223.002.115.005.05.012.17-.02.01-.022-.006-.03-.026"/></g></pattern><path fill="#fff" d="M27.93 246.817h355.14v78.163L205.5 453.307 27.93 324.98v-78.163zm0-220.547h355.14v209.576H27.93V26.27zM15.378 331.397l190.122 137.4 190.122-137.4V13.717H15.378v317.68z"/><defs><path id="a" d="M-345.27-346.93h6131.014v7934.26H-345.27z"/></defs><clipPath id="b"><use xlink:href="#a" overflow="visible"/></clipPath><path clip-path="url(#b)" fill="#fff" d="M334.008 124.45h-98.483V86.02h98.483v38.43zM212.25 69.12c3.26 7.61 8.928 25.666 8.928 59.286s-5.67 51.675-8.927 59.276h23.274V141.37h98.483v46.312h23.265c-3.248-7.602-8.918-25.656-8.918-59.276s5.67-51.675 8.918-59.286h-145.02zM77.013 170.777V128.4c0-33.62 5.66-51.674 8.907-59.275H53.724c3.253 7.602 8.912 25.656 8.912 59.276 0 33.63-5.66 51.67-8.902 59.287h129.168c2.127-3.346 8.208-14.254 9.61-29.702-7.375 5.03-22.765 12.792-48.45 12.792h-67.05zM199.077 377.423c-8.564 0-17.874-1.013-24.414-1.893 8.663 3.272 21.71 4.627 21.71 4.627-9.637 0-20.228-1.27-26.738-2.216 9.544 3.67 25.637 5.162 25.637 5.162-23.675-.642-37.69-4.158-37.69-4.158l-10.868-63.102 11 14.694c4.83-7.876 14.206-14.215 26.225-17.742l-3.317-8.086 17.014 7.646v-4.177l7.865-13.535 7.86 13.535v4.177l17.014-7.646-3.316 8.086c12.02 3.527 21.396 9.866 26.23 17.742l10.995-14.694-10.87 63.102s-14.013 3.517-37.684 4.158c0 0 16.09-1.492 25.633-5.16-6.51.943-17.1 2.215-26.737 2.215 0 0 13.046-1.354 21.71-4.627-6.53.88-15.85 1.893-24.415 1.893 0 0 12.724-1.325 21.382-4.51-7.733-1.644-17.262-2.984-27.8-2.984-10.54 0-20.07 1.34-27.803 2.983 8.654 3.185 21.377 4.51 21.377 4.51m-2.934-71.33l8.452-14.586-4.147-7.073-.988-1.022.69-1.022 1.53.112.24 1.282 3.58 6.192 3.576-6.192.24-1.282 1.53-.112.69 1.022-.99 1.022-4.146 7.073 8.452 14.587h6.683l-.822 1.58h-6.74l-8.473-14.582-8.477 14.582h-6.74l-.822-1.58h6.683zm59.383 75.757l12.332-70.757-2.563-1.11s-10.057 13.442-11.94 15.946c-4.128-5.05-12.004-11.32-22.672-14.837.85-2.055 4.72-11.46 4.72-11.46s-5.943 2.39-8.507 3.433c.27-.528.543-1.052.543-1.052s-9.118.475-10.562.553c-.73-1.28-5.698-10.086-6.37-11.27.588-1.042 2.48-4.34 2.682-4.687.313-.273 2.646-2.245 2.646-2.245l-3.032-5.763-6.423.44s-.11 3.02-.14 3.566l-.74 1.223-.743-1.222-.132-3.566-6.428-.44-3.028 5.763s2.332 1.972 2.645 2.245c.2.348 2.094 3.645 2.686 4.687-.674 1.184-5.64 9.988-6.373 11.27-1.442-.078-10.56-.553-10.56-.553s.272.523.532 1.052c-2.555-1.042-8.498-3.434-8.498-3.434s3.87 9.406 4.71 11.46c-10.658 3.52-18.533 9.79-22.672 14.837l-11.93-15.947-2.574 1.11 12.342 70.757s17.56 4.486 50.02 4.486c32.468 0 50.028-4.486 50.028-4.486M159.67 333.154l2.984 3.996c7.294-14.264 21.88-15.878 21.88-15.878-12.512 4.646-17.712 11.984-19.404 19.165l2.798 3.747s-.362 10.067 1.644 14.293c.63-.24 1.36-.5 2.182-.777-6.51-26.82 14.616-31.762 14.616-31.762-14.925 7.715-13.535 21.45-10.497 30.51 1.242-.343 2.602-.686 4.094-1.022l2.255-11.134c-1.932-.748-3.307-2.622-3.307-4.818 0-2.842 2.313-5.17 5.16-5.17 1.674 0 3.155.802 4.11 2.035 1.37.86 2.293 2.395 2.293 4.137 0 1.835-1.02 3.435-2.523 4.266l4.735 8.648c2.504-.248 5.092-.43 7.714-.518l-15.306-37.27c-11.872 3.46-21.176 9.868-25.427 17.552"/><path clip-path="url(#b)" fill="#fff" d="M223.496 343.91c-1.517-.9-2.538-2.543-2.538-4.437 0-2.847 2.318-5.16 5.17-5.16 1.663 0 3.155.792 4.1 2.025 1.37.86 2.294 2.392 2.294 4.138 0 2.24-1.512 4.13-3.576 4.687l2.084 10.258c1.492.343 2.852.686 4.095 1.033 3.047-9.055 4.432-22.8-10.508-30.515 0 0 21.127 4.94 14.626 31.757.822.283 1.55.543 2.182.782 2.006-4.226 1.644-14.293 1.644-14.293l2.807-3.737c-1.702-7.195-6.9-14.528-19.414-19.175 0 0 14.587 1.624 21.88 15.878l2.984-3.996c-4.246-7.685-13.545-14.098-25.427-17.552l-15.306 37.265c2.61.093 5.2.27 7.704.523l5.198-9.48zM184.08 343.402c-2.167 0-3.93-1.762-3.93-3.924 0-2.167 1.763-3.918 3.93-3.918 2.162 0 3.928 1.75 3.928 3.918 0 2.163-1.766 3.924-3.928 3.924m0-8.336c-2.437 0-4.407 1.986-4.407 4.412 0 2.432 1.97 4.417 4.407 4.417 2.43 0 4.407-1.985 4.407-4.417 0-2.425-1.976-4.412-4.407-4.412M226.128 343.402c-2.162 0-3.923-1.762-3.923-3.924 0-2.167 1.76-3.918 3.923-3.918 2.167 0 3.918 1.75 3.918 3.918 0 2.163-1.75 3.924-3.918 3.924m4.412-3.923c0-2.427-1.976-4.413-4.412-4.413-2.43 0-4.417 1.986-4.417 4.412 0 2.43 1.987 4.416 4.418 4.416 2.436 0 4.412-1.986 4.412-4.417M156.144 350.71c0-1.076-.812-1.938-1.814-1.938-.18 0-.338.03-.5.084l.65 3.776c.93-.083 1.664-.904 1.664-1.922M154.334 345.178c-.382 0-.763.05-1.115.132l.12.71c.32-.08.65-.133.994-.133 2.46 0 4.456 2.157 4.456 4.823 0 2.42-1.663 4.437-3.825 4.765l.127.704c2.495-.393 4.407-2.696 4.407-5.47 0-3.058-2.314-5.532-5.166-5.532M254.852 350.71c0 1.018.733 1.84 1.663 1.923l.65-3.776c-.156-.055-.327-.084-.51-.084-.992 0-1.803.86-1.803 1.937M255.903 356.18l.117-.705c-2.152-.328-3.825-2.344-3.825-4.765 0-2.666 2.006-4.818 4.466-4.818.344 0 .677.04.994.127l.122-.71c-.36-.083-.733-.132-1.115-.132-2.85 0-5.164 2.475-5.164 5.532 0 2.773 1.912 5.077 4.407 5.47M203.46 313.035c0-1.125.91-2.035 2.04-2.035 1.115 0 2.035.91 2.035 2.035 0 1.12-.92 2.03-2.035 2.03-1.13 0-2.04-.91-2.04-2.03m4.334 0c0-1.263-1.03-2.3-2.294-2.3-1.27 0-2.304 1.037-2.304 2.3 0 1.262 1.032 2.29 2.304 2.29 1.263 0 2.294-1.028 2.294-2.29M217.896 315.407c1.12 0 2.03.925 2.03 2.045s-.91 2.035-2.03 2.035c-1.125 0-2.035-.915-2.035-2.035s.91-2.045 2.036-2.045m0 4.34c1.262 0 2.294-1.033 2.294-2.295 0-1.272-1.032-2.304-2.294-2.304s-2.294 1.03-2.294 2.304c0 1.262 1.032 2.294 2.294 2.294M191.926 315.407c1.125 0 2.035.925 2.035 2.045s-.91 2.035-2.034 2.035c-1.12 0-2.03-.915-2.03-2.035s.91-2.045 2.03-2.045m0 4.34c1.263 0 2.294-1.033 2.294-2.295 0-1.272-1.03-2.304-2.294-2.304-1.27 0-2.304 1.03-2.304 2.304 0 1.262 1.032 2.294 2.304 2.294"/><path fill="#B0B7BB" d="M39.122 266.267h332.76v52.995L205.506 439.507 39.122 319.262v-52.995zM383.07 324.98v-78.168H27.935v78.168l177.57 128.33L383.07 324.98zM371.878 219.346H39.122V37.472h332.756v181.874zM383.07 26.27H27.93v209.576h355.14V26.27z"/><defs><path id="c" d="M-345.27-346.93h6131.014v7934.26H-345.27z"/></defs><clipPath id="d"><use xlink:href="#c" overflow="visible"/></clipPath><path clip-path="url(#d)" fill="#B0B7BB" d="M212.246 69.12h145.03c-3.252 7.61-8.912 25.66-8.912 59.286 0 33.63 5.66 51.67 8.912 59.286h-23.27V141.37H235.53v46.322h-23.283c3.258-7.616 8.927-25.656 8.927-59.286 0-33.625-5.668-51.675-8.926-59.286m26.16 121.443v-46.31h92.725v46.31h30.78s-10.675-16.357-10.675-62.157c0-45.785 10.674-62.163 10.674-62.163H207.627s10.67 16.378 10.67 62.163c0 45.8-10.67 62.157-10.67 62.157h30.778z"/><path fill="#B0B7BB" d="M331.126 121.582H238.4v-32.67h92.726v32.67zm2.887-35.557h-98.488v38.434h98.488V86.024zM53.724 69.12h32.19c-3.247 7.61-8.896 25.66-8.896 59.286v42.376h67.04c25.685 0 41.084-7.768 48.445-12.797-1.39 15.448-7.484 26.36-9.597 29.707H53.724c3.258-7.616 8.907-25.656 8.907-59.286 0-33.625-5.658-51.675-8.906-59.286M184.46 190.563s11.28-15.354 11.28-38.756c0 0-15.437 16.1-51.684 16.1H79.894v-39.5c0-45.786 10.66-62.164 10.66-62.164H49.095s10.66 16.378 10.66 62.163c0 45.8-10.66 62.157-10.66 62.157H184.46zM192.714 320.5c-.528 0-1.022-.162-1.434-.45-1.17-.284-2.045-1.346-2.045-2.607 0-1.473 1.213-2.686 2.686-2.686.872 0 1.645.42 2.14 1.062.708.444 1.187 1.24 1.187 2.146 0 1.398-1.13 2.533-2.533 2.533m4.92-6.604l-14.356-6.442 14.357 34.956v-28.514zM218.688 320.5c-.533 0-1.032-.162-1.442-.45-1.164-.284-2.035-1.346-2.035-2.607 0-1.473 1.204-2.686 2.687-2.686.86 0 1.634.42 2.123 1.062.724.444 1.203 1.24 1.203 2.146 0 1.398-1.14 2.533-2.535 2.533m-5.332-6.604v28.514l14.356-34.956-14.356 6.442zM202.81 313.025c0-1.482 1.203-2.68 2.686-2.68s2.686 1.197 2.686 2.68c0 1.496-1.203 2.695-2.686 2.695s-2.686-1.2-2.686-2.695m9.108.264l-6.423-8.375-6.413 8.374 6.413 7.62 6.423-7.62zM248.155 356.267l1.99-2.803 1.385 2.113-3.375.69zm1.462-6.212l.22 2.514-3.306-.98 3.087-1.535zm1.32-3.523l-1.1 2.27-2.34-2.533 3.44.262zm2.936-2.347l-2.104 1.385-.715-3.366 2.818 1.98zm2.323-3.664l1.404 3.147-2.524.117 1.12-3.263zm-18.86 27.227c-.383 0-.726-.098-1.043-.26.01 0 .03.01.04.01 1.433 0 2.592-1.163 2.592-2.592 0-.61-.21-1.164-.558-1.604.768.383 1.31 1.175 1.31 2.105 0 1.29-1.04 2.342-2.342 2.342m-3.097-2.842c0-1.164.94-2.104 2.094-2.104 1.15 0 2.094.94 2.094 2.105 0 1.15-.944 2.094-2.094 2.094-1.154 0-2.094-.945-2.094-2.095m-16.968-.723c-.382 0-.734-.088-1.057-.25h.054c1.434 0 2.593-1.164 2.593-2.597 0-.598-.22-1.15-.572-1.59.782.38 1.325 1.17 1.325 2.094 0 1.29-1.052 2.342-2.343 2.342m-3.107-2.847c0-1.15.94-2.094 2.104-2.094 1.15 0 2.094.944 2.094 2.095 0 1.164-.943 2.098-2.093 2.098-1.164 0-2.104-.934-2.104-2.098m-7.797-15.106c-.367 0-.72-.09-1.042-.25h.054c1.42 0 2.593-1.165 2.593-2.598 0-.607-.22-1.15-.57-1.6.78.38 1.324 1.18 1.324 2.103 0 1.293-1.052 2.344-2.358 2.344m-3.096-2.847c0-1.15.944-2.094 2.108-2.094 1.15 0 2.094.942 2.094 2.093 0 1.154-.944 2.093-2.094 2.093-1.164 0-2.108-.94-2.108-2.093m-8.996 20.8c-.377 0-.73-.09-1.042-.25h.044c1.428 0 2.592-1.165 2.592-2.598 0-.598-.21-1.15-.563-1.59.783.38 1.316 1.17 1.316 2.094.002 1.29-1.05 2.342-2.346 2.342m-3.09-2.847c0-1.15.938-2.094 2.093-2.094 1.16 0 2.104.944 2.104 2.095 0 1.164-.943 2.098-2.103 2.098-1.155 0-2.094-.934-2.094-2.098m-16.935 6.412c-.377 0-.73-.098-1.042-.26.01 0 .034.01.044.01 1.428 0 2.593-1.163 2.593-2.592 0-.61-.21-1.164-.563-1.604.772.383 1.315 1.175 1.315 2.105 0 1.29-1.04 2.342-2.347 2.342m-3.092-2.842c0-1.164.94-2.104 2.094-2.104 1.15 0 2.094.94 2.094 2.105 0 1.15-.944 2.094-2.094 2.094-1.154 0-2.094-.945-2.094-2.095m-9.988-12.337l.22-2.514 3.077 1.536-3.297.978zm-1.693 3.01l1.37-2.114 2.006 2.803-3.375-.69zm.577-9.046l3.44-.264-2.334 2.533-1.106-2.268zm-.83-.963l-2.105-1.386 2.817-1.98-.713 3.365zm-5.832-1.904l1.414-3.146 1.115 3.263-2.53-.117zm2.548 13.937l2.313-1.003.118 3.443-2.43-2.44zm96.815-1.003l2.304 1.003-2.426 2.44.123-3.443zm3.033.268c-2.822-.45-5-3.032-5-6.158 0-3.438 2.637-6.23 5.87-6.23.43 0 .842.038 1.243.126l3.995-23.22-17.4 23.24c.383 11.142-2.352 15.628-2.352 15.628s-5.84-2.344-12.313-3.654l-2.284-11.25c-.983-.03-1.894-.333-2.656-.852l-.088-.03-5.714 10.42s-7.21-.695-10.82-.695l3.22-10.008-5.993-15.457-5.992 15.457 3.23 10.008c-3.606 0-10.82.695-10.82.695l-5.29-9.65c-.33.072-.674.11-1.02.11-.734 0-1.434-.17-2.055-.46l-2.373 11.712c-6.48 1.31-12.312 3.654-12.312 3.654s-2.74-4.486-2.368-15.63l-17.4-23.24 4.008 23.222c.39-.088.812-.127 1.232-.127 3.248 0 5.88 2.792 5.88 6.23 0 3.126-2.182 5.71-5.01 6.158l3.47 20.11c5.478-2.11 23.91-8.468 46.82-8.468 22.923 0 41.355 6.358 46.823 8.467l3.468-20.11z"/><path d="M143.142 311.098l2.563-1.115s10.067 13.438 11.94 15.95c4.13-5.052 12.004-11.322 22.673-14.835-.842-2.064-4.71-11.47-4.71-11.47l8.496 3.433c-.27-.518-.533-1.05-.533-1.05s9.11.478 10.552.552c.73-1.28 5.7-10.08 6.37-11.27-.588-1.032-2.477-4.33-2.672-4.682-.323-.27-2.646-2.25-2.646-2.25l3.023-5.763 6.433.45.132 3.557.738 1.223.743-1.223.133-3.557 6.428-.45 3.027 5.763s-2.322 1.98-2.645 2.25c-.2.353-2.084 3.65-2.686 4.682.685 1.188 5.65 9.988 6.383 11.27 1.443-.073 10.546-.553 10.546-.553s-.27.532-.528 1.05c2.553-1.03 8.496-3.433 8.496-3.433s-3.86 9.406-4.71 11.47c10.668 3.514 18.544 9.784 22.672 14.837 1.874-2.514 11.94-15.95 11.94-15.95l2.563 1.114-12.332 70.757s-17.57 4.477-50.03 4.477c-32.456 0-50.026-4.477-50.026-4.477l-12.332-70.757zm228.74 8.164v-52.995H39.123v52.995L205.5 439.507l166.383-120.245zM361.91 190.563h-30.784v-46.31H238.41v46.31h-30.787s10.67-16.357 10.67-62.157c0-45.785-10.67-62.163-10.67-62.163H361.91s-10.67 16.378-10.67 62.163c0 45.8 10.67 62.157 10.67 62.157m-177.45 0H49.1s10.66-16.357 10.66-62.157c0-45.785-10.66-62.163-10.66-62.163h41.443s-10.66 16.378-10.66 62.163v39.5h64.18c36.24 0 51.68-16.1 51.68-16.1-.002 23.403-11.282 38.757-11.282 38.757M371.88 37.46H39.122v181.876h332.756V37.46zM238.41 88.91h92.726v32.672H238.41z"/><defs><path id="e" d="M-345.27-346.93h6131.014v7934.26H-345.27z"/></defs><clipPath id="f"><use xlink:href="#e" overflow="visible"/></clipPath><path clip-path="url(#f)" d="M184.08 335.556c-2.167 0-3.93 1.76-3.93 3.918 0 2.172 1.763 3.93 3.93 3.93 2.162 0 3.928-1.758 3.928-3.93 0-2.158-1.766-3.918-3.928-3.918M226.128 335.556c-2.167 0-3.928 1.76-3.928 3.918 0 2.172 1.76 3.93 3.928 3.93 2.162 0 3.918-1.758 3.918-3.93 0-2.158-1.756-3.918-3.918-3.918M158.678 376.978l-3.468-20.11c2.827-.448 5.01-3.03 5.01-6.157 0-3.437-2.643-6.23-5.89-6.23-.422 0-.833.04-1.233.132l-3.997-23.226 17.4 23.245c-.382 11.14 2.357 15.63 2.357 15.63s5.83-2.35 12.312-3.66l2.382-11.71c.62.29 1.31.46 2.055.46.352 0 .69-.04 1.012-.107l5.287 9.646s7.215-.69 10.82-.69l-3.22-10.01 5.993-15.456 5.992 15.457-3.23 10.01c3.61 0 10.82.69 10.82.69l5.725-10.42c.02.01.05.02.088.03.753.522 1.663.82 2.646.85l2.285 11.25c6.48 1.312 12.322 3.66 12.322 3.66s2.725-4.49 2.353-15.63l17.4-23.244-4.007 23.226c-.4-.093-.813-.132-1.233-.132-3.243 0-5.88 2.793-5.88 6.23 0 3.127 2.177 5.71 5.01 6.16l-3.464 20.108c-5.483-2.104-23.915-8.467-46.827-8.467-22.922 0-41.354 6.364-46.822 8.468m-3.708-21.5c2.162-.332 3.825-2.343 3.825-4.77 0-2.665-2-4.817-4.466-4.817-.344 0-.67.04-.994.118l-.117-.7c.356-.077.728-.13 1.11-.13 2.865 0 5.18 2.474 5.18 5.53 0 2.774-1.923 5.078-4.418 5.47l-.122-.7zm-1.14-6.622c.156-.05.328-.08.5-.08 1.002 0 1.813.862 1.813 1.934 0 1.013-.733 1.844-1.663 1.923l-.65-3.777zm30.255-4.96c-2.437 0-4.422-1.98-4.422-4.417s1.985-4.408 4.422-4.408c2.43 0 4.407 1.972 4.407 4.407s-1.976 4.416-4.407 4.416m1.008-28.298l15.31 37.274c-2.616.093-5.2.264-7.703.523l-4.74-8.658c1.502-.822 2.515-2.42 2.515-4.256 0-1.755-.91-3.286-2.295-4.146-.938-1.224-2.436-2.025-4.094-2.025-2.857 0-5.17 2.322-5.17 5.17 0 2.195 1.38 4.06 3.315 4.808l-2.264 11.14c-1.492.34-2.856.684-4.1 1.02-3.032-9.054-4.427-22.8 10.513-30.504 0 0-21.133 4.93-14.632 31.757-.817.274-1.55.534-2.172.773-2.006-4.216-1.653-14.293-1.653-14.293l-2.793-3.737c1.692-7.186 6.893-14.52 19.415-19.175 0 0-14.597 1.624-21.88 15.878l-2.994-3.986c4.257-7.685 13.55-14.098 25.423-17.562m-1.82-8.145l14.36 6.442v28.51l-14.36-34.952zm22.227-2.538l6.423 8.38-6.423 7.62-6.423-7.62 6.423-8.38zm7.856 8.98l14.366-6.44-14.366 34.95v-28.51zm12.772 30c-2.436 0-4.417-1.98-4.417-4.416 0-2.437 1.982-4.408 4.418-4.408 2.437 0 4.407 1.972 4.407 4.407s-1.97 4.416-4.407 4.416m25.197-10.737l-2.99 3.985c-7.292-14.254-21.874-15.878-21.874-15.878 12.523 4.656 17.708 11.99 19.415 19.175l-2.798 3.737s.353 10.076-1.653 14.292c-.63-.24-1.36-.5-2.182-.772 6.51-26.826-14.626-31.757-14.626-31.757 14.935 7.705 13.555 21.45 10.518 30.505-1.253-.338-2.612-.68-4.11-1.022l-2.068-10.258c2.05-.567 3.566-2.45 3.566-4.687 0-1.755-.915-3.286-2.294-4.146-.944-1.224-2.437-2.025-4.1-2.025-2.856 0-5.17 2.322-5.17 5.17 0 1.893 1.02 3.526 2.533 4.436l-5.198 9.48c-2.505-.26-5.078-.43-7.7-.523L225.9 315.6c11.88 3.462 21.174 9.875 25.425 17.56m6.33 12.85c-.318-.08-.65-.118-.994-.118-2.45 0-4.465 2.152-4.465 4.818 0 2.426 1.673 4.437 3.825 4.77l-.117.7c-2.495-.393-4.407-2.696-4.407-5.47 0-3.058 2.313-5.532 5.165-5.532.383 0 .755.054 1.116.132l-.122.7zm-1.14 6.623c-.935-.08-1.663-.91-1.663-1.923 0-1.07.807-1.933 1.81-1.933.172 0 .343.03.514.08l-.66 3.776zM233.3 372.908c-8.664 3.19-21.377 4.51-21.377 4.51 8.565 0 17.874-1.003 24.414-1.883-8.668 3.272-21.72 4.617-21.72 4.617 9.647 0 20.237-1.27 26.748-2.206-9.548 3.67-25.637 5.16-25.637 5.16 23.676-.64 37.69-4.167 37.69-4.167l10.868-63.103-11 14.694c-4.83-7.86-14.206-14.204-26.24-17.74l3.327-8.082-17.018 7.64v-4.176l-7.856-13.525-7.866 13.525v4.177l-17.01-7.642 3.317 8.08c-12.022 3.538-21.4 9.882-26.237 17.743l-11-14.693 10.883 63.102s14.015 3.525 37.685 4.167c0 0-16.087-1.492-25.636-5.16 6.516.934 17.092 2.205 26.737 2.205 0 0-13.04-1.345-21.708-4.617 6.535.88 15.85 1.883 24.414 1.883 0 0-12.723-1.32-21.386-4.51 7.743-1.644 17.272-2.984 27.81-2.984 10.542 0 20.065 1.34 27.8 2.984"/><path d="M197.028 307.674l8.472-14.587 8.468 14.587h6.75l.822-1.585h-6.692l-8.452-14.588 4.142-7.068 1.003-1.023-.688-1.02-1.54.106-.246 1.287-3.566 6.188-3.575-6.187-.25-1.287-1.53-.107-.696 1.02 1.002 1.024 4.15 7.068-8.455 14.587h-6.686l.812 1.584z"/><defs><path id="g" d="M-345.27-346.93h6131.014v7934.26H-345.27z"/></defs><clipPath id="h"><use xlink:href="#g" overflow="visible"/></clipPath><path clip-path="url(#h)" d="M195.306 359.74c.353.44.572.992.572 1.595 0 1.433-1.174 2.602-2.606 2.602-.01 0-.02-.01-.04-.01.318.162.67.26 1.043.26 1.3 0 2.343-1.052 2.343-2.354 0-.92-.53-1.712-1.312-2.093M175.28 363.3c.347.44.567.994.567 1.605 0 1.424-1.17 2.593-2.603 2.593-.01 0-.02-.01-.04-.01.318.16.67.264 1.043.264 1.3 0 2.353-1.057 2.353-2.357 0-.92-.552-1.712-1.32-2.094M216.262 363.937h-.04c.31.152.66.25 1.043.25 1.29 0 2.343-1.052 2.343-2.344 0-.934-.538-1.722-1.31-2.103.336.44.562.987.562 1.604 0 1.428-1.165 2.593-2.598 2.593M236.332 367.498h-.04c.314.15.66.25 1.043.25 1.29 0 2.343-1.053 2.343-2.344 0-.935-.538-1.712-1.31-2.104.35.44.562.988.562 1.604 0 1.43-1.164 2.594-2.598 2.594M208.72 343.886c0-.924-.544-1.717-1.32-2.093.346.44.566.992.566 1.59 0 1.433-1.16 2.597-2.593 2.597h-.04c.31.162.66.25 1.043.25 1.29 0 2.343-1.052 2.343-2.344M195.374 361.34c0-1.155-.943-2.094-2.093-2.094-1.164 0-2.103.938-2.103 2.094 0 1.16.938 2.093 2.104 2.093 1.15 0 2.094-.934 2.094-2.093M175.344 364.9c0-1.15-.94-2.094-2.094-2.094-1.16 0-2.104.944-2.104 2.094s.944 2.094 2.104 2.094c1.154 0 2.094-.944 2.094-2.094M216.262 363.433c1.154 0 2.094-.938 2.094-2.093 0-1.16-.94-2.104-2.094-2.104-1.15 0-2.094.943-2.094 2.104 0 1.154.944 2.093 2.094 2.093M236.332 367c1.154 0 2.094-.945 2.094-2.095 0-1.164-.94-2.1-2.094-2.1-1.15 0-2.094.936-2.094 2.1 0 1.15.945 2.094 2.094 2.094M207.467 343.388c0-1.165-.94-2.094-2.094-2.094-1.16 0-2.104.93-2.104 2.094 0 1.15.943 2.093 2.103 2.093 1.154 0 2.094-.943 2.094-2.092"/><path d="M153.4 343.666l2.514.117-1.115-3.262zM157.122 344.19l2.104 1.39.71-3.377zM160.052 346.532l1.11 2.276 2.334-2.535zM161.163 352.573l3.307-.982-3.087-1.53zM159.475 355.577l3.376.69-2-2.803zM155.934 357.607l2.43 2.44-.117-3.443zM255.08 343.783l2.516-.122-1.4-3.144zM251.765 345.58l2.113-1.395-2.822-1.987zM249.843 348.802l1.095-2.27-3.44-.263zM246.526 351.59l3.307.983-.21-2.513zM248.15 356.27l3.375-.688-1.384-2.118zM252.62 360.048l2.437-2.445-2.304-1.003z"/><path fill="none" d="M-53.52 147.494h612v792h-612z"/><path d="M203.206 313.035c0-1.263 1.022-2.3 2.294-2.3 1.263 0 2.294 1.037 2.294 2.3 0 1.262-1.03 2.29-2.294 2.29-1.27 0-2.294-1.028-2.294-2.29m4.98 0c0-1.487-1.203-2.686-2.686-2.686s-2.686 1.197-2.686 2.685c0 1.48 1.203 2.68 2.686 2.68s2.686-1.198 2.686-2.68M217.89 319.746c-1.26 0-2.293-1.032-2.293-2.294 0-1.272 1.032-2.304 2.294-2.304 1.272 0 2.305 1.03 2.305 2.304 0 1.262-1.033 2.294-2.304 2.294m2.133-3.928c-.49-.64-1.262-1.062-2.133-1.062-1.482 0-2.686 1.213-2.686 2.695 0 1.253.87 2.314 2.045 2.604.41.278.898.44 1.432.44 1.4 0 2.534-1.13 2.534-2.534 0-.9-.48-1.69-1.193-2.142M191.93 319.746c-1.27 0-2.303-1.032-2.303-2.294 0-1.272 1.032-2.304 2.304-2.304 1.263 0 2.295 1.03 2.295 2.304 0 1.262-1.033 2.294-2.294 2.294m2.124-3.928c-.49-.64-1.262-1.062-2.123-1.062-1.48 0-2.694 1.213-2.694 2.695 0 1.253.87 2.314 2.045 2.604.412.278.9.44 1.435.44 1.403 0 2.533-1.13 2.533-2.534 0-.9-.48-1.69-1.194-2.142M207.53 313.035c0-1.125-.91-2.035-2.03-2.035-1.125 0-2.035.91-2.035 2.035 0 1.12.91 2.03 2.035 2.03 1.12 0 2.03-.91 2.03-2.03M217.896 315.412c-1.125 0-2.035.91-2.035 2.035 0 1.12.91 2.03 2.036 2.03 1.12 0 2.03-.91 2.03-2.03 0-1.125-.91-2.035-2.03-2.035M191.926 315.412c-1.12 0-2.03.91-2.03 2.035 0 1.12.91 2.03 2.03 2.03 1.125 0 2.035-.91 2.035-2.03 0-1.125-.91-2.035-2.034-2.035"/><path d="M327.28 398.628h3.044c.782 0 1.413.63 1.413 1.41 0 .79-.63 1.422-1.413 1.422h-3.043v-2.832zm-2.444 10.547h2.445v-5.278h1.742l2.466 5.278h2.695l-2.573-5.498c1.502-.533 2.573-1.967 2.573-3.64 0-2.133-1.73-3.854-3.86-3.854h-5.487v12.992zM338.45 402.68c0 4.94-4.008 8.936-8.94 8.936-4.94 0-8.936-3.996-8.936-8.937 0-4.937 3.996-8.934 8.937-8.934 4.932 0 8.94 3.997 8.94 8.933m-20.316 0c0 6.284 5.088 11.382 11.378 11.382 6.28 0 11.373-5.098 11.373-11.383 0-6.282-5.092-11.38-11.373-11.38-6.29 0-11.378 5.097-11.378 11.38"/><path fill="#fff" d="M495.266 198.65c-.486 0-.88-.396-.88-.883 0-.486.394-.882.88-.882s.88.396.88.882c0 .487-.394.882-.88.882m0-1.88c-.55 0-.996.448-.996.997s.447.996.996.996.996-.447.996-.996-.448-.996-.996-.996M500.64 198.8c.485 0 .882.395.882.88 0 .488-.396.882-.883.882s-.884-.394-.884-.88c0-.487.396-.883.883-.883m0 1.877c.548 0 .995-.448.995-.996 0-.55-.447-.995-.996-.995s-.997.446-.997.996.447.997.996.997M489.383 198.8c.486 0 .88.395.88.88 0 .488-.394.882-.88.882s-.88-.394-.88-.88c0-.487.393-.883.88-.883m0 1.877c.55 0 .996-.448.996-.996 0-.55-.448-.995-.997-.995s-.996.446-.996.996.447.997.996.997"/></svg>