<svg xmlns="http://www.w3.org/2000/svg" width="227" height="147" version="1"><defs><clipPath id="a"><path d="M0 150h230V0H0v150z"/></clipPath></defs><g clip-path="url(#a)"><path d="M129.216 146.09l61.405-60.348-13.013-.043 48.35-51.52s-11.253-3.357-14.92-3.98l7.728-6.135c-12.85-3.316-39.46-7.542-67.695-5.677 0 0-6.033-17.45-29.294-17.45-26.57 0-32.93 20.474-32.93 20.474S56.95 28.045 27.77 46.966l6.3 4.767S20.93 58.468 1 74.265c2.16 8.937 10.854 20.49 11.735 21.528 3.435 2.345 15.284 8.642 24.434 11.782 1.678-.405 4.973-1.79 4.973-1.79 1.056.432 6.01 1.768 7.378 1.944-.973 5.875 3.363 9.193 3.363 9.193l-3 1.646s4.082 9.2 24.082 13.946c45.24-10.05 55.25 13.574 55.25 13.574" fill="#eee3c6"/><path d="M5.637 75.793c2.114 5.638 6.01 11.98 9.74 17.077 1.15 1.027 12.767 7.09 21.906 10.55.974-.137 3.99-1.503 4.518-1.845.53 0 7.234 2.984 15.896 2.984 3.067 0 5.43-.312 5.43-.956 0-.526-1.277-1.188-1.865-1.448-1.766-.786-4.103-1.456-4.103-3.364 0-1.907 3.482-4.445 19.274-4.445 9.95 0 16.497.553 16.497.553v1.12c-5.09 0-10.367.75-13.89 1.618-2.237.55-5.736 1.58-5.736 2.693 0 2.048 9.1 2.062 9.1 6.135 0 3.308-3.382 6.923-15.937 6.923-6.788 0-12.26-2.207-12.725-2.207-.467 0-.56.155-.56.31 0 .23.387 1 1.088 1.95.983 1.333 2.686 3.02 5.705 4.097l-4.056 2.3c4.6 4.7 15.75 7.933 18.06 8.58 0 0 38.27-10.015 56.02 11.673l48.587-50.452-11.5-.063 46.13-52.452s-8.827-3.192-17.738-4.933l6.072-4.726s-30.673-6.403-55.603-4.382c0 0-4.662-17.544-26.444-17.544-21.097 0-27.895 19.4-27.895 19.4s-25.054 4.082-56.74 22.38l6.754 5.182S27.05 59.282 5.637 75.793" fill="#015836"/><path d="M29.946 89.41s4.207 1.305 15.414.585l12.854-7.902 9.844 3.192 2.995-4.195H67.82l6.558-10.6 5.566 10.6h-2.518l1.678 3.667 7.026-1.273 2.922-3.732H86.44l3.917-6H87.31l6.187-10.57 5.378 10.82H96.42l3.792 6.404H97.26l5.822 10.516 5.637-8.08h-3.855l5.885-8.912h-3.73l8.538-14.84 7.42 14.84h-3.067l4.974 8.91h-3.482l4.89 10.777 8.374-13.513h-4.6l6.755-11.15h-4.226l9.2-18.402 9.493 19.398h-3.357l6.093 10.196h-4.187l4.81 9.947 7.584-11.646h-4.063l8.912-12.89h-4.81l14.3-19.648 7.67 13.595 15.873-19.625s-27.687-11.628-68.556-11.628c-54.256 0-85.01 19.066-85.01 19.066s35.604-12.423 74.71-12.423c28.538 0 45.49 6.497 45.49 6.497S130.22 41.22 71.5 57.1c9.53 0 15.25 2.757 15.25 2.757s-23.83 4.25-57.197 18.528l4.27 6.32-3.877 4.705z" fill="#bf2b37"/><path d="M105.638 49.026a20.683 20.683 0 0 0 13.56 5.038c7.643 0 14.32-4.13 17.927-10.277-8.78 1.13-19.35 2.79-31.487 5.24M98.59 30.713a20.77 20.77 0 0 0 .04 5.456c7.236-.785 14.863-1.275 22.627-1.275 6.885 0 13.092.38 18.553.952a20.951 20.951 0 0 0-.425-7.453 217.24 217.24 0 0 0-7.828-.142c-12.207 0-23.223.966-32.968 2.46" fill="#efb410"/><path d="M137.386 23.265c-3.538-6.402-10.356-10.737-18.19-10.737-10.594 0-19.335 7.934-20.607 18.185 9.24-3.42 24.624-6.345 38.796-7.448" fill="#efb410"/><path d="M121.164 40.948c-8.798.28-24.962 1.064-51.158 7.573-.006.003-.013.003-.02.004-.307-2.03-.58-3.62-.58-3.62s-1.06 1.734-2.4 4.157c-6.628 2.386-14.853 5.862-20.305 8.782 3.348-1.165 9.986-3.36 18.726-5.824-.904 1.757-1.8 3.63-2.497 5.362l4.558-4.104s3.14 1.815 3.305 1.752c-.077-1.09-.24-2.48-.43-3.882 14.092-3.79 32.204-8.025 50.8-10.198" fill="#fff"/></g></svg>