<svg xmlns="http://www.w3.org/2000/svg" width="225" height="152.446" viewBox="0 0 225 152.446"><path d="M199.418 74.58l17.612-18.87-8.387-39.003L170.9 5.382l-3.775 3.774S136.23 0 109.11 0C52.633 0 0 30.265 0 76.05c0 43.546 41.688 76.396 109.11 76.396 62.07 0 115.89-39.7 115.89-39.7L199.418 74.58zM77.376 94.24S55.83 86.375 55.83 76.467c0-12.424 21.546-18.033 21.546-18.033V94.24zm39.073 4.016c-4.334.643-10.066.37-10.066.37v-9.368h10.065v8.998zm0-35.418h-10.066v-9.366c8.98-.02 8.82.18 10.065.364v9.002zm28.238 29.567V59.902c22.018 6.5 34.18 18.034 34.18 18.034s-16.776 9.856-34.18 14.47z" fill="#21386F"/><path d="M192.498 78.565c-18.705 12.518-36.52 20.32-55.988 23.984V50.234c36.877 6.954 51.165 25.185 51.165 25.185l20.97-21.81-7.13-31.033-28.52-7.968-3.773 3.773S142.592 7.69 106.367 7.69C48.65 7.69 7.995 41.03 7.995 76.26c0 38.372 40.235 68.288 97.446 68.288 60.847 0 108.866-33.69 108.866-33.69l-21.808-32.293zm-85.922-30.982c5.51 0 10.695.24 15.57.677v20.87h-21.6V47.68c1.943-.063 3.946-.1 6.03-.1zm-58.66 28.78c0-7.505 5.058-22.78 37.43-27.415v54.423c-38.033-6.118-37.43-27.007-37.43-27.007zm52.63 28.503V82.864h21.6v21.617c-4.43.372-8.963.56-13.63.56-2.784 0-5.435-.063-7.97-.174z" fill="#fff"/><path d="M170.48 25.093l4.193-4.613 22.646 6.71 5.032 25.163-15.518 15.518s-25.163-26-81.465-26c-44.35 0-63.014 18.924-63.014 33.55 0 14.625 16.775 35.227 65.075 35.227 49.628 0 83.6-24.324 83.6-24.324l15.097 22.648s-41.1 30.056-102.33 30.056c-48.44 0-90.028-24.184-90.028-63.397 0-35.648 42.427-62.227 92.438-62.227 42.045 0 64.272 11.69 64.272 11.69z" fill="#BE2F37"/></svg>