<?xml version="1.0" encoding="utf-8"?>
<!-- Generator: Adobe Illustrator 12.0.0, SVG Export Plug-In . SVG Version: 6.00 Build 51448)  -->
<!DOCTYPE svg PUBLIC "-//W3C//DTD SVG 1.1//EN" "http://www.w3.org/Graphics/SVG/1.1/DTD/svg11.dtd" [
	<!ENTITY ns_svg "http://www.w3.org/2000/svg">
	<!ENTITY ns_xlink "http://www.w3.org/1999/xlink">
]>
<svg  version="1.1" id="Layer_1" xmlns="&ns_svg;" xmlns:xlink="&ns_xlink;" width="158.83" height="160.241"
	 viewBox="0 0 158.83 160.241" overflow="visible" enable-background="new 0 0 158.83 160.241" xml:space="preserve">
<g>
	<path fill-rule="evenodd" clip-rule="evenodd" d="M80.674,148.093c38.755,0,70.172-31.42,70.172-70.176
		c0-38.757-31.417-70.178-70.172-70.178c-38.753,0-70.171,31.42-70.171,70.178C10.503,116.673,41.92,148.093,80.674,148.093
		L80.674,148.093z"/>
	<path fill-rule="evenodd" clip-rule="evenodd" fill="#FFFFFF" d="M80.674,140.706c34.673,0,62.782-28.112,62.782-62.789
		c0-34.678-28.109-62.79-62.782-62.79c-34.673,0-62.785,28.112-62.785,62.79C17.889,112.593,46,140.706,80.674,140.706
		L80.674,140.706z"/>
	<path fill-rule="evenodd" clip-rule="evenodd" d="M23.367,147.779c-8.125,3.484-15.691,8.835-18.519,12.462
		c-4.528-11.02-5.42-18.627-4.55-26.897c1.194-11.348,5.72-21.671,11.887-28.998c0.291,6.383,1.936,11.552,5.669,11.007
		c2.974-0.436,4.234-2.06,6.197-2.903c6.345-2.725,12.063-3.181,20.104-3.181c7.31,0,18.874,3.209,24.042-1.96
		c3.343-3.343,6.674-6.756,6.674-6.756l-7.255-13.204l-7.761,20.124c-6.093-1.739-13.638-2.103-16.901-2.103
		c-6.964,0-14.84,1.912-18.281,3.19l-1.167-1.982c-0.631-1.324-0.937-1.927-0.937-1.927l19.224-48.208
		c4.643-11.027,6.674-17.993,14.799-19.733c7.828-1.677,12.481,1.196,18.57,7.836c5.513,6.01,15.088,18.861,15.088,18.861
		l8.706-22.925c-9.068,0-17.774-6.094-17.774-15.379c0-6.964,2.299-13.189,9.649-18.137c3.106-2.091,7.033-3.784,10.661-4.798
		c5.184-1.447,9.688-1.732,9.688-1.732c-0.655,0.582-1.415,1.414-1.415,1.414c-1.307,1.306-4.788,4.826-5.041,7.038
		c-0.361,3.137,2.283,4.861,6.418,4.861c2.489,0,21.255,0.037,21.255,0.037c3.844,0,6.747-3.627,4.569-7.11
		c-1.734-2.775-2.357-3.337-3.591-5.223c0,0-0.688-0.871-1.195-1.452c0,0,2.103,0,3.191,0c2.684,0,11.563,0.697,16.757,5.659
		c4.859,4.643,5.755,6.306,6.602,12.552c0.579,4.28-1.306,11.39-5.813,15.438c-4.354,3.909-11.224,6.362-16.385,7.196l-23.94,63.261
		c-5.063,12.676-8.364,18.388-17.555,23.724c-8.995,5.224-18.134,6.385-23.356,6.385c-8.851,0-13.01-2.158-21.037-5.078
		c-7.857-2.858-12.299-2.344-14.291-1.015c-1.958,1.306-2.248,1.596-2.762,2.751c-0.752,1.696,0.546,4.493,2.399,5.955
		c5.114,4.026,10.482,6.421,11.497,6.854C46.399,143.681,31.717,144.201,23.367,147.779L23.367,147.779z"/>
	<path fill-rule="evenodd" clip-rule="evenodd" fill="#E13A3E" d="M26.002,105.074c4.183-1.24,10.788-2.607,16.951-2.607
		c0.903,0,8.215,0.05,15.116,1.569l9.086-23.554l11.263,20.5l-1.411,1.534c-0.139,0.151-3.412,3.499-6.759,6.845
		c-5.559,5.559-15.109,2.896-23.008,2.828l-3.085-0.02l-4.336-0.05c-5.501-0.088-9.832,0.938-14.624,2.996
		c-0.458,0.196-0.925,0.5-1.467,0.853c-1.289,0.838-2.893,1.879-5.456,2.254c-1.784,0.261-3.456-0.204-4.836-1.344
		c-1.316-1.082-2.322-2.777-3.022-5.05c-3.845,6.381-6.411,14.027-7.23,21.818c-0.706,6.713-0.148,12.714,2.765,21.276
		c4.043-3.453,10.059-7.147,16.274-9.81c4.454-1.911,10.354-2.98,15.334-3.584c-1.104-0.73-2.238-1.537-3.363-2.425
		c-2.708-2.13-4.667-6.235-3.256-9.412c0.84-1.894,1.665-2.562,3.803-3.988c2.409-1.605,7.295-2.787,16.892,0.703l3.427,1.275
		c5.799,2.187,9.63,3.628,16.619,3.628c3.482,0,12.589-0.584,21.9-5.991c8.28-4.81,11.355-9.782,16.133-21.897l0.201-0.437
		l24.497-64.737l1.655-0.268c4.321-0.7,10.821-2.819,14.91-6.493c3.854-3.459,5.309-9.708,4.876-12.887
		c-0.749-5.534-1.339-6.648-5.729-10.842c-3.141-3.001-8.331-4.272-12.05-4.688c0.383,0.551,0.82,1.212,1.354,2.067
		c1.482,2.372,1.59,5.074,0.292,7.412c-1.412,2.551-4.218,4.136-7.328,4.136l-21.25-0.035c-3.405,0-6.072-0.973-7.71-2.81
		c-1.274-1.429-1.824-3.255-1.591-5.284c0.133-1.177,0.67-2.443,1.681-3.921c-0.412,0.102-0.827,0.209-1.251,0.327
		c-3.55,0.99-7.129,2.598-9.821,4.41c-5.785,3.895-8.364,8.746-8.364,15.73c0,3.016,1.166,5.776,3.371,7.981
		c2.814,2.817,7.113,4.497,11.5,4.497h4.205L91.083,69.383l-3.16-4.242c-0.094-0.128-9.55-12.803-14.9-18.634
		c-6.079-6.63-9.776-8.256-15.824-6.961c-5.569,1.195-7.513,5.388-11.376,14.759l-1.342,3.229l-19.145,47.743L26.002,105.074
		L26.002,105.074z"/>
	<polygon fill-rule="evenodd" clip-rule="evenodd" fill="#E13A3E" points="44.466,57.568 44.48,57.535 44.488,57.519 44.466,57.568 
			"/>
	<polygon fill-rule="evenodd" clip-rule="evenodd" fill="#E13A3E" points="109.956,102.894 109.914,102.986 109.878,103.079 
		109.956,102.894 	"/>
	<path fill-rule="evenodd" clip-rule="evenodd" d="M142.196,131.006c1.631,0,3.022,0.576,4.175,1.731
		c1.146,1.146,1.72,2.533,1.72,4.157c0,1.638-0.573,3.032-1.72,4.188c-1.146,1.153-2.538,1.73-4.175,1.73
		c-1.639,0-3.032-0.577-4.177-1.73c-1.14-1.155-1.709-2.55-1.709-4.188c0-1.624,0.572-3.011,1.72-4.157
		C139.181,131.583,140.571,131.006,142.196,131.006L142.196,131.006z M149.061,136.886c0-1.89-0.669-3.499-2.007-4.829
		c-1.339-1.331-2.957-1.995-4.854-1.995c-1.885,0-3.495,0.664-4.826,1.995c-1.338,1.336-2.007,2.946-2.007,4.829
		c0,1.901,0.663,3.522,1.987,4.858c1.331,1.342,2.947,2.013,4.846,2.013c1.897,0,3.516-0.671,4.854-2.013
		C148.392,140.401,149.061,138.782,149.061,136.886L149.061,136.886z M144.014,135.424c0,0.57-0.26,0.956-0.78,1.157
		c-0.283,0.112-0.705,0.167-1.271,0.167h-1.203v-2.686h1.138c0.739,0,1.278,0.093,1.613,0.275
		C143.847,134.524,144.014,134.885,144.014,135.424L144.014,135.424z M139.441,133.119v7.506h1.318v-2.932h1.053
		c0.71,0,1.206,0.079,1.486,0.238c0.479,0.278,0.715,0.848,0.715,1.708v0.59l0.03,0.24c0.006,0.03,0.012,0.059,0.018,0.084
		c0.006,0.024,0.01,0.047,0.018,0.071h1.229l-0.046-0.092c-0.029-0.061-0.05-0.191-0.062-0.389c-0.01-0.197-0.018-0.384-0.018-0.558
		v-0.548c0-0.375-0.137-0.762-0.407-1.157c-0.274-0.396-0.707-0.639-1.296-0.733c0.467-0.073,0.83-0.195,1.091-0.365
		c0.491-0.315,0.737-0.812,0.737-1.485c0-0.945-0.39-1.583-1.17-1.906c-0.437-0.182-1.121-0.272-2.059-0.272H139.441
		L139.441,133.119z"/>
</g>
</svg>
