<svg xmlns="http://www.w3.org/2000/svg" width="158.83" height="160.241" viewBox="0 0 158.83 160.241" overflow="visible"><g fill-rule="evenodd" clip-rule="evenodd"><path d="M80.674 148.093c38.755 0 70.172-31.42 70.172-70.176 0-38.757-31.417-70.178-70.172-70.178-38.753 0-70.171 31.42-70.171 70.178 0 38.756 31.417 70.176 70.171 70.176z"/><path fill="#FFF" d="M80.674 140.706c34.673 0 62.782-28.112 62.782-62.789 0-34.678-28.109-62.79-62.782-62.79-34.673 0-62.785 28.112-62.785 62.79 0 34.676 28.111 62.789 62.785 62.789z"/><path d="M23.367 147.779c-8.125 3.484-15.691 8.835-18.519 12.462-4.528-11.02-5.42-18.627-4.55-26.897 1.194-11.348 5.72-21.671 11.887-28.998.291 6.383 1.936 11.552 5.669 11.007 2.974-.436 4.234-2.06 6.197-2.903 6.345-2.725 12.063-3.181 20.104-3.181 7.31 0 18.874 3.209 24.042-1.96 3.343-3.343 6.674-6.756 6.674-6.756l-7.255-13.204-7.761 20.124c-6.093-1.739-13.638-2.103-16.901-2.103-6.964 0-14.84 1.912-18.281 3.19l-1.167-1.982a97.976 97.976 0 0 0-.937-1.927l19.224-48.208c4.643-11.027 6.674-17.993 14.799-19.733 7.828-1.677 12.481 1.196 18.57 7.836 5.513 6.01 15.088 18.861 15.088 18.861l8.706-22.925c-9.068 0-17.774-6.094-17.774-15.379 0-6.964 2.299-13.189 9.649-18.137 3.106-2.091 7.033-3.784 10.661-4.798C106.676.721 111.18.436 111.18.436c-.655.582-1.415 1.414-1.415 1.414-1.307 1.306-4.788 4.826-5.041 7.038-.361 3.137 2.283 4.861 6.418 4.861 2.489 0 21.255.037 21.255.037 3.844 0 6.747-3.627 4.569-7.11-1.734-2.775-2.357-3.337-3.591-5.223 0 0-.688-.871-1.195-1.452h3.191c2.684 0 11.563.697 16.757 5.659 4.859 4.643 5.755 6.306 6.602 12.552.579 4.28-1.306 11.39-5.813 15.438-4.354 3.909-11.224 6.362-16.385 7.196l-23.94 63.261c-5.063 12.676-8.364 18.388-17.555 23.724-8.995 5.224-18.134 6.385-23.356 6.385-8.851 0-13.01-2.158-21.037-5.078-7.857-2.858-12.299-2.344-14.291-1.015-1.958 1.306-2.248 1.596-2.762 2.751-.752 1.696.546 4.493 2.399 5.955 5.114 4.026 10.482 6.421 11.497 6.854-1.088-.002-15.77.518-24.12 4.096z"/><path fill="#E13A3E" d="M26.002 105.074c4.183-1.24 10.788-2.607 16.951-2.607.903 0 8.215.05 15.116 1.569l9.086-23.554 11.263 20.5-1.411 1.534c-.139.151-3.412 3.499-6.759 6.845-5.559 5.559-15.109 2.896-23.008 2.828l-3.085-.02-4.336-.05c-5.501-.088-9.832.938-14.624 2.996-.458.196-.925.5-1.467.853-1.289.838-2.893 1.879-5.456 2.254-1.784.261-3.456-.204-4.836-1.344-1.316-1.082-2.322-2.777-3.022-5.05-3.845 6.381-6.411 14.027-7.23 21.818-.706 6.713-.148 12.714 2.765 21.276 4.043-3.453 10.059-7.147 16.274-9.81 4.454-1.911 10.354-2.98 15.334-3.584a49.454 49.454 0 0 1-3.363-2.425c-2.708-2.13-4.667-6.235-3.256-9.412.84-1.894 1.665-2.562 3.803-3.988 2.409-1.605 7.295-2.787 16.892.703l3.427 1.275c5.799 2.187 9.63 3.628 16.619 3.628 3.482 0 12.589-.584 21.9-5.991 8.28-4.81 11.355-9.782 16.133-21.897l.201-.437 24.497-64.737 1.655-.268c4.321-.7 10.821-2.819 14.91-6.493 3.854-3.459 5.309-9.708 4.876-12.887-.749-5.534-1.339-6.648-5.729-10.842-3.141-3.001-8.331-4.272-12.05-4.688.383.551.82 1.212 1.354 2.067 1.482 2.372 1.59 5.074.292 7.412-1.412 2.551-4.218 4.136-7.328 4.136l-21.25-.035c-3.405 0-6.072-.973-7.71-2.81-1.274-1.429-1.824-3.255-1.591-5.284.133-1.177.67-2.443 1.681-3.921a44.78 44.78 0 0 0-1.251.327c-3.55.99-7.129 2.598-9.821 4.41-5.785 3.895-8.364 8.746-8.364 15.73 0 3.016 1.166 5.776 3.371 7.981 2.814 2.817 7.113 4.497 11.5 4.497h4.205L91.083 69.383l-3.16-4.242c-.094-.128-9.55-12.803-14.9-18.634-6.079-6.63-9.776-8.256-15.824-6.961-5.569 1.195-7.513 5.388-11.376 14.759l-1.342 3.229-19.145 47.743.666-.203z"/><path fill="#E13A3E" d="M44.466 57.568l.014-.033.008-.016-.022.049zM109.956 102.894l-.042.092-.036.093.078-.185z"/><path d="M142.196 131.006c1.631 0 3.022.576 4.175 1.731 1.146 1.146 1.72 2.533 1.72 4.157 0 1.638-.573 3.032-1.72 4.188-1.146 1.153-2.538 1.73-4.175 1.73-1.639 0-3.032-.577-4.177-1.73-1.14-1.155-1.709-2.55-1.709-4.188 0-1.624.572-3.011 1.72-4.157 1.151-1.154 2.541-1.731 4.166-1.731zm6.865 5.88c0-1.89-.669-3.499-2.007-4.829-1.339-1.331-2.957-1.995-4.854-1.995-1.885 0-3.495.664-4.826 1.995-1.338 1.336-2.007 2.946-2.007 4.829 0 1.901.663 3.522 1.987 4.858 1.331 1.342 2.947 2.013 4.846 2.013 1.897 0 3.516-.671 4.854-2.013 1.338-1.343 2.007-2.962 2.007-4.858zm-5.047-1.462c0 .57-.26.956-.78 1.157-.283.112-.705.167-1.271.167h-1.203v-2.686h1.138c.739 0 1.278.093 1.613.275.336.187.503.548.503 1.087zm-4.573-2.305v7.506h1.318v-2.932h1.053c.71 0 1.206.079 1.486.238.479.278.715.848.715 1.708v.59l.03.24.018.084c.006.024.01.047.018.071h1.229l-.046-.092c-.029-.061-.05-.191-.062-.389-.01-.197-.018-.384-.018-.558v-.548c0-.375-.137-.762-.407-1.157-.274-.396-.707-.639-1.296-.733.467-.073.83-.195 1.091-.365.491-.315.737-.812.737-1.485 0-.945-.39-1.583-1.17-1.906-.437-.182-1.121-.272-2.059-.272h-2.637z"/></g></svg>