<svg xmlns="http://www.w3.org/2000/svg" xmlns:xlink="http://www.w3.org/1999/xlink" width="437.904" height="253.71" viewBox="0 0 437.904 253.71"><defs><path id="a" d="M0 0h437.904v253.71H0z"/></defs><clipPath id="b"><use xlink:href="#a" overflow="visible"/></clipPath><path clip-path="url(#b)" fill="#fff" d="M138.752 63.808s-16.943 6.863-28.585 24.426a509.113 509.113 0 0 1 17.464-4.42c5.18-12.026 11.122-20.006 11.122-20.006m240.449 36.596c10.554 2.894 18.817 6.65 18.817 6.65s14.31 9.055 20.706-2.552l-21.86-10.29c-6.114 3.542-12.113 5.396-17.664 6.192M82.927 63.294l77.607-17.365s3.07 9.975 16.306 17.978l-.23 2.454c-6.146 1.242-15.787 5.195-24.985 12.41a532.753 532.753 0 0 1 45.776-6.498l3.927-9.184c-24.343 3.57-35.317-17.137-35.317-17.137l-1.863-6.325-141.28 31.61c15.243 1.055 32.05 5.903 47.356 13.71 3.652-12.196 12.704-21.654 12.704-21.654m236.562 38.741c-6.493 3.242-12.116 7.674-18.475 13.093l7.335-13.783s-19.347-.783-37.867-.432l-12.095 13.303c-4.51-1.366-9.272-2.13-14.21-2.243-.283-6.728 2.356-14.385 8.275-21.73-7.834 5.91-12.572 13.488-13.56 21.887-3.447.266-6.81.867-10.055 1.766-1.696-5.596-1.508-12.484 1.076-19.974-4.564 6.958-6.447 14.33-5.503 21.4a53.43 53.43 0 0 0-9.276 4.574c-2.854-4.344-4.6-10.135-4.732-17.042-1.648 7.075-1.19 13.673 1.31 19.347-10.34 7.705-15 17.027-15 17.027-32.838-5.918-52.718 21.56-53.417 40.843-2.083-13.38 2.198-37.043 28.646-48.306l8.78-20.517a13.576 13.576 0 0 1 2.128-3.487c-29.495 5.503-47.78 17.188-47.78 17.188s-7.946 14.223-4.548 28.76c0 0-5.184-7.05-8.245-19.052a64.288 64.288 0 0 0-3.313 3.36 53.432 53.432 0 0 1 1.654 13.156c0 21.496-8.986 35.028-8.986 35.028l30.08 6.104s11.377 16.55 35.8 16.55c7.724 0 17.88-.854 17.88-5.78 0-3.722-9.145-8.776-9.145-19.556 0-17.504 21.986-35.667 45.577-43.442 27.57-9.08 69.678-19.66 90.866-19.66 60.087 0 58.107 39.67 58.107 39.67l2.913-.135c13.375-7.517 25.215-8.947 28.67-9.21 5.79-21.555-5.203-40.994-92.888-48.706"/><path clip-path="url(#b)" fill="#fff" d="M245.996 59.95c-12.72.534-22.7 5.138-30.295 10.87a489.162 489.162 0 0 1 30.814-.912c5.173-6.833 8.253-14.308 8.253-22.13 0-13.487-6.906-21.39-6.906-21.39l33.433-7.41 10.398 5.098s-24.566 9.443-24.566 36.072c0 3.788.558 7.225 1.436 10.33 17.677.888 35.946 2.838 54.51 6.2 0 0 5.998 14.57 22.527 14.57 8 0 14.112-4.432 14.112-4.432 17.916 13.542 34.33 6.07 34.33 6.07l-6.142-5.1-5.87 3.12 3.65-5.47-2.244-2.55-7.926 4.088 4.964-7.525-1.723-1.986-6.69 2.944 3.835-6.528-2.696-4.14c-2.516 11.03-12.354 12.348-20.808 11.687l-.44-4.88a11.882 11.882 0 0 1-6.325 1.814c-6.6 0-11.945-5.348-11.945-11.938 0-3.775-18.608-20.424-18.608-20.424l24.082 7.44c20.184 6.237 19.3 16.248 19.532 21.678 3.398 1.5 11.053 2.595 14.512-5.375l-2.547-13.255-16.033-7.776-11.01-10.303-61.674-24.932L221.23 26.94c14.306 3.443 26.143 10.91 26.143 10.91s4.544 10.457-1.377 22.1m120.82 2.028l-2.996 11.597c0-8.778-5.193-13.814-20.56-22.855l23.557 11.258zM78.425 89.5a122.68 122.68 0 0 1 8.6 5.703c2.518-.84 5.494-1.8 8.888-2.842 5.222-19.967 15.917-33.212 15.917-33.212C89.66 67.434 80.26 85.53 78.425 89.5"/><path clip-path="url(#b)" fill="#fff" d="M170.39 43.93s8.86 15.084 24.657 15.084l16.406-1.13L224.93 43.8l18.402-2.833c-6.82-4.13-14.512-7.11-22.36-9.225L205.59 53.23l9.778-22.854a140.498 140.498 0 0 0-8.528-1.583L193.58 47.27l8.207-19.172c-3.46-.422-6.828-.723-10.047-.925l-10.14 14.14 6.133-14.35c-14.32-.6-24.776.56-24.776.56l3.526 3.04 3.907 13.368zm20.73 141.597c1.938 8.757 7.79 11.225 8.35 14.498 0 0 15.205-3.13 25.302-18.153-19.664 9.895-33.65 3.655-33.65 3.655"/><defs><path id="c" d="M0 0h437.904v253.416H0z"/></defs><clipPath id="d"><use xlink:href="#c" overflow="visible"/></clipPath><path clip-path="url(#d)" fill="#fff" d="M369.06 149.25c0-8.572-14.187-16.792-20.873-16.792-27.537 0-27.162 58.5-124.247 108.06 82.686-11.946 145.12-68.19 145.12-91.268"/><path clip-path="url(#d)" fill="#FDBB30" d="M425.563 99.558a5.41 5.41 0 0 0-2.65-2.816L399.9 85.627l-7.1-5.457-10.336-12.822-3.407-15.286a5.385 5.385 0 0 0-2.6-3.52l-16.175-9.19-10.175-10.218a5.29 5.29 0 0 0-1.674-1.143L285.108.45a5.418 5.418 0 0 0-3.21-.347l-86.3 17.24c-23.495-1.836-44.085 1.11-44.957 1.235-5.292.88-5.32 6.6-3.48 8.438L17.994 52.822a5.39 5.39 0 0 0-3.237 2.02L1.088 72.813C-1.34 76.01.49 80.886 4.69 81.436c.948.124 94.376 12.915 94.376 69.583 0 20.868-14.324 41.39-14.47 41.597-2.072 2.933-.814 7.657 3.448 8.425l52.77 9.53c3.997 3.19 17.427 12.625 36.97 12.625 23.137 0 29.687-8.75 31.19-15.92 11.47-4.884 25.89-16.455 25.89-25.784 0-5.815-5.232-9.716-10.115-9.716-.56 0-1.058.2-1.59.287 0 0-2.464-4.556-8.423-4.556-2.547 0-5.317 1.28-7.475 2.198 5.29-6.08 14.032-13.324 28.015-17.955 21.565-7.153 49.683-13.21 63.763-16.05-21.404 62.21-94.713 94.89-95.487 95.22-4.362 1.9-3.572 7.428-1.777 8.573l-8.017 3.59c-5.702 2.512-3.274 10.813 2.634 10.31 77.368-6.575 134.27-33.66 173.895-82.625h15.937c.928 0 1.826-.237 2.634-.68 15.59-8.706 26.06-8.352 26.16-8.35 2.146.1 4.185-1.08 5.13-3 7.724-15.707 16.043-24.03 16.124-24.105 1.148-1.154 2.26-3.32 1.213-5.89l-11.924-29.182zm-10.254 56.794s-11.634-.713-29.083 9.015H371.62l-2.69-1.454c-39.472 50.928-95.714 77.53-172.993 84.104 0 0 26.22-11.548 40.43-19.046l-30.662 6.904S288.793 199.83 306.95 128.65c0 0-42.864 7.87-73.372 17.973-30.194 10-38.425 31.927-38.425 31.927 10.755-.998 16.305-5.645 19.585-5.645 3.91 0 5.387 4.04 4.36 6.332 1.802-.77 4.015-2.066 5.652-2.066 1.975 0 4.72 1.68 4.72 4.32 0 6.576-14.658 18.47-25.485 21.965 0 4.018-1.582 14.342-26.2 14.342-21.164 0-34.63-12.3-34.63-12.3L89 195.728s15.46-21.786 15.46-44.71c0-62.155-99.08-74.938-99.08-74.938l13.67-17.97 139.692-27.904-7.314-6.292s21.053-3.09 44.552-1.148l86.976-17.373 63.337 27.544 10.683 10.74 16.817 9.548 3.67 16.524L389 84.057l8.043 6.188 23.524 11.358 11.923 29.18s-8.89 8.704-17.18 25.57"/><defs><path id="e" d="M0 0h437.904v253.71H0z"/></defs><clipPath id="f"><use xlink:href="#e" overflow="visible"/></clipPath><path clip-path="url(#f)" fill="#FDBB30" d="M398.02 107.055s-8.264-3.76-18.817-6.648c-16.394 2.35-28.872-4.53-28.872-4.53-13.593 0-22.87 2.183-30.84 6.156 87.686 7.712 98.68 27.15 92.887 48.706.66-.052 1.015-.063 1.015-.063s5.93-11.067 12.81-19.092c0 0-8.928-18.718-40.256-20.275l12.074-4.255zM127.632 83.816a514.054 514.054 0 0 0-17.464 4.418 63.258 63.258 0 0 0-8.65 19.597c8.394 8.883 14.636 19.064 17.45 30.192a62.57 62.57 0 0 1 3.312-3.364 70.63 70.63 0 0 1-2.2-17.522c0-12.316 3.548-24.03 7.552-33.32M323.07 76.68c-18.566-3.37-36.833-5.32-54.513-6.2 3.49 12.383 12.186 19.15 12.186 19.15l-10.26 11.284c18.522-.353 37.864.43 37.864.43l-7.332 13.782 19.092-21 2.962-17.447zM195.934 95.508l-9.396 2.197 10.866-25.432a531.306 531.306 0 0 0-45.778 6.5c-13.078 10.252-25.268 27.095-25.268 52.118 0 12.546 4.165 22.816 4.165 22.816-3.398-14.536 4.547-28.76 4.547-28.76s18.287-11.68 47.782-17.183c2.066-2.467 5.078-4.194 9.435-5.325 21.17-5.497 42.805-17.435 54.232-32.532a491.423 491.423 0 0 0-30.817.91c-13.873 10.47-19.77 24.692-19.77 24.692m-101.797 5.304a88.955 88.955 0 0 1 1.778-8.455 414.356 414.356 0 0 0-8.885 2.845 110.705 110.705 0 0 1 7.107 5.61m253.137-26.138c2.51 0 4.367-1.18 4.367-1.18-.164-.888-.36-1.73-.58-2.538-.614.388-1.486.773-2.522.773-2.715 0-4.392-2.086-4.392-4.388 0-1.956 1.342-3.726 3.26-4.226-2.4-3.396-4.805-4.83-4.805-4.83s-4.19 2.347-4.19 7.514c0 5.173 4.34 8.875 8.862 8.875"/><path clip-path="url(#f)" fill="#002D62" d="M397.046 90.245L389 84.057l-11.537-14.303-3.673-16.523-16.816-9.55-10.68-10.74-63.335-27.545-86.983 17.372c-23.494-1.942-44.547 1.154-44.547 1.154l7.31 6.287-139.69 27.9L5.382 76.08s99.077 12.786 99.077 74.94c0 22.922-15.462 44.708-15.462 44.708l54.152 9.77s13.47 12.296 34.63 12.296c24.62 0 26.202-10.318 26.202-14.338 10.827-3.497 25.49-15.387 25.49-21.968 0-2.637-2.748-4.316-4.723-4.316-1.638 0-3.854 1.293-5.655 2.07 1.03-2.296-.447-6.336-4.36-6.336-3.277 0-8.826 4.646-19.584 5.647 0 0 8.234-21.928 38.427-31.93 30.51-10.107 73.37-17.972 73.37-17.972-18.155 71.178-101.242 107.224-101.242 107.224l30.662-6.906c-14.214 7.505-40.434 19.046-40.434 19.046 77.28-6.575 133.526-33.174 172.998-84.102l2.684 1.45h14.612c17.446-9.725 29.085-9.01 29.085-9.01 8.288-16.866 17.177-25.57 17.177-25.57l-11.92-29.182-23.52-11.355zM187.736 26.96l-6.138 14.354 10.14-14.14c3.22.2 6.59.498 10.048.92l-8.21 19.175 13.26-18.482c2.823.44 5.67.965 8.53 1.585l-9.778 22.857 15.385-21.49c7.845 2.115 15.54 5.093 22.365 9.227l-18.41 2.832-13.474 14.08-16.407 1.135c-15.795 0-24.658-15.084-24.658-15.084l-3.904-13.372-3.524-3.036s10.45-1.16 24.773-.56m-93.602 73.85a112.492 112.492 0 0 0-7.107-5.61 125.672 125.672 0 0 0-8.6-5.702c1.837-3.97 11.237-22.067 33.402-30.353 0 0-10.695 13.245-15.915 33.213a88.58 88.58 0 0 0-1.78 8.453m130.637 81.06c-10.1 15.023-25.3 18.15-25.3 18.15-.563-3.274-6.414-5.74-8.35-14.496 0 0 13.987 6.24 33.65-3.655m-.833 58.644c97.087-49.56 96.71-108.064 124.25-108.064 6.684 0 20.874 8.23 20.874 16.795 0 23.082-62.432 79.325-145.123 91.27M426.2 131.582c-6.88 8.028-12.807 19.097-12.807 19.097s-.357.008-1.015.06c-3.452.267-15.293 1.697-28.67 9.215l-2.913.128s1.98-39.666-58.107-39.666c-21.185 0-63.302 10.58-90.866 19.656-23.592 7.778-45.577 25.944-45.577 43.446 0 10.773 9.14 15.833 9.14 19.552 0 4.926-10.15 5.78-17.876 5.78-24.425 0-35.8-16.544-35.8-16.544l-30.078-6.11s8.986-13.526 8.986-35.025c0-4.513-.577-8.902-1.654-13.157-2.813-11.126-9.055-21.302-17.45-30.184a63.24 63.24 0 0 1 8.655-19.598c11.643-17.565 28.58-24.425 28.58-24.425s-5.94 7.977-11.12 20.007c-4.004 9.292-7.55 21-7.55 33.318 0 6.61.914 12.498 2.197 17.525 3.06 11.996 8.244 19.046 8.244 19.046s-4.16-10.265-4.16-22.813c0-25.03 12.186-41.87 25.263-52.12 9.2-7.217 18.842-11.17 24.984-12.413l.23-2.455c-13.235-7.998-16.305-17.98-16.305-17.98l-77.605 17.37s-9.053 9.458-12.704 21.65c-15.306-7.802-32.112-12.649-47.354-13.7l141.28-31.613 1.86 6.325s10.975 20.704 35.315 17.137l-3.924 9.18-10.864 25.436 9.396-2.197s5.894-14.222 19.767-24.69c7.594-5.73 17.575-10.334 30.292-10.87 5.923-11.64 1.38-22.098 1.38-22.098s-11.838-7.47-26.14-10.91l60.7-13.47 61.676 24.934 11.01 10.305 16.033 7.78 2.55 13.25 2.696 4.138-3.837 6.528 6.69-2.94 1.723 1.98-4.964 7.528 7.925-4.09 2.245 2.553-3.65 5.47 5.87-3.116 6.143 5.098s-16.42 7.47-34.333-6.07c0 0-6.114 4.43-14.112 4.43-16.53 0-22.526-14.566-22.526-14.566l-2.962 17.442-19.094 21.003c6.36-5.42 11.98-9.85 18.475-13.093 7.964-3.976 17.247-6.157 30.84-6.157 0 0 12.478 6.88 28.873 4.527 5.548-.797 11.547-2.65 17.664-6.19l21.86 10.29c-6.4 11.608-20.707 2.552-20.707 2.552l-12.075 4.256c31.327 1.556 40.254 20.27 40.254 20.27m-67.509-56.466c-.23-5.432.65-15.446-19.532-21.683l-24.088-7.44s18.617 16.646 18.617 20.424c0 6.592 5.342 11.94 11.942 11.94 2.323 0 4.496-.666 6.326-1.814l.44 4.882c8.455.66 18.29-.66 20.803-11.687-3.452 7.97-11.106 6.872-14.508 5.378m-11.416-.443c-4.52 0-8.862-3.702-8.862-8.874 0-5.166 4.19-7.512 4.19-7.512s2.404 1.433 4.806 4.83c-1.918.5-3.26 2.27-3.26 4.225 0 2.302 1.677 4.388 4.392 4.388 1.036 0 1.908-.384 2.522-.772.22.808.416 1.65.58 2.537 0 0-1.857 1.18-4.368 1.18m16.545-1.102l3-11.595-23.554-11.262c15.364 9.046 20.554 14.083 20.554 22.857"/><path clip-path="url(#f)" fill="#002D62" d="M271.734 253.416V246.9h2.27v-.785h-5.21v.784h2.153v6.516zm9.573 0v-7.3h-1.26l-1.874 5.937-1.867-5.938h-1.256v7.3h.78v-6.2l1.956 6.2h.78l1.955-6.2v6.2zM291.69 24.077l-10.4-5.1-33.43 7.413s6.912 7.9 6.912 21.39c0 7.817-3.085 15.298-8.253 22.127-11.43 15.097-33.064 27.034-54.235 32.532-4.357 1.127-7.367 2.852-9.435 5.32a13.487 13.487 0 0 0-2.13 3.486l-8.78 20.52c-26.446 11.262-30.725 34.925-28.646 48.308.7-19.286 20.58-46.764 53.418-40.846 0 0 4.66-9.323 15-17.03-2.5-5.67-2.957-12.268-1.308-19.342.13 6.904 1.876 12.693 4.728 17.04a53.397 53.397 0 0 1 9.28-4.574c-.944-7.067.94-14.444 5.5-21.4-2.578 7.49-2.765 14.38-1.072 19.974a53.25 53.25 0 0 1 10.053-1.764c.995-8.4 5.725-15.98 13.562-21.887-5.92 7.346-8.56 14.997-8.27 21.73 4.936.112 9.697.875 14.205 2.24l12.098-13.304 10.257-11.276s-8.693-6.77-12.186-19.155a38.057 38.057 0 0 1-1.434-10.33c0-26.63 24.565-36.073 24.565-36.073"/></svg>