<svg xmlns="http://www.w3.org/2000/svg" xmlns:xlink="http://www.w3.org/1999/xlink" width="288.46" height="278.286" viewBox="0 0 288.46 278.286"><defs><path id="a" d="M0 0h288.46v278.28H0z"/></defs><clipPath id="b"><use xlink:href="#a" overflow="visible"/></clipPath><path clip-path="url(#b)" fill="#fff" d="M144.227.003C64.572.003 0 62.3 0 139.143c0 76.843 64.572 139.143 144.227 139.143 79.66 0 144.233-62.3 144.233-139.143S223.885.003 144.227.003m0 268.032c-73.99 0-133.963-57.708-133.963-128.892S70.237 10.25 144.227 10.25c73.987 0 133.963 57.708 133.963 128.893 0 71.186-59.976 128.892-133.963 128.892"/><defs><path id="c" d="M0 0h288.46v278.28H0z"/></defs><clipPath id="d"><use xlink:href="#c" overflow="visible"/></clipPath><path clip-path="url(#d)" fill="#fff" d="M148.27 179.434a5.136 5.136 0 0 1-3.92 2.83l-57.733 7.946c-.51.073-.98.35-1.29.765-.31.403-.438.934-.357 1.438l3.52 23.105c.08.53.38 1.01.833 1.312.45.3 1 .397 1.53.277l5.725-1.374 3.416-13.315a.859.859 0 0 1 1.035-.626l11.217 2.75c.34.073.593.357.642.694l1.004 6.38 7.205-1.722v-2.89c0-.307.13-.602.357-.806.23-.206.535-.302.837-.266l8.945 1.06c.252.023.45.16.623.336l17.178-4.094a5.14 5.14 0 0 0 3.468-2.818l10.655-22.683-11.233-5.73-3.66 7.43z"/><defs><path id="e" d="M0 0h288.46v278.28H0z"/></defs><clipPath id="f"><use xlink:href="#e" overflow="visible"/></clipPath><path clip-path="url(#f)" fill="#fff" d="M153.308 169.212l11.18 5.702.89-1.896-11.15-5.684z"/><defs><path id="g" d="M0 0h288.46v278.28H0z"/></defs><clipPath id="h"><use xlink:href="#g" overflow="visible"/></clipPath><path clip-path="url(#h)" fill="#fff" d="M169.81 163.59l-10.982-5.6-.554 1.127-.373.753 11.017 5.61z"/><defs><path id="i" d="M0 0h288.46v278.28H0z"/></defs><clipPath id="j"><use xlink:href="#i" overflow="visible"/></clipPath><path clip-path="url(#j)" fill="#fff" d="M155.608 164.54l11.094 5.66.89-1.896-11.065-5.64z"/><defs><path id="k" d="M0 0h288.46v278.28H0z"/></defs><clipPath id="l"><use xlink:href="#k" overflow="visible"/></clipPath><path clip-path="url(#l)" fill="#fff" d="M194.37 85.79L167.64 28.2a1.922 1.922 0 0 0-1.75-1.12h-46.396c-1.07 0-1.936.867-1.936 1.936v37.71l-20.423-39.44C84.965 32.01 73.742 38.492 63.812 46.43v70.17c0 1.065.86 1.936 1.93 1.936h26.345c1.06 0 1.93-.87 1.93-1.936V85.23l19.398 32.365c.352.58.98.94 1.66.94h29.544a1.94 1.94 0 0 0 1.935-1.937V55.744l30.39 65.45-3.635 7.375-13.11 26.622 10.93 5.576 1.458-3.1 6.634-14.136 3.274-6.96 6.742-14.353 35.55-75.674c-2.625-2.1-5.34-4.088-8.145-5.978l-22.274 45.22z"/><defs><path id="m" d="M0 0h288.46v278.28H0z"/></defs><clipPath id="n"><use xlink:href="#m" overflow="visible"/></clipPath><path clip-path="url(#n)" fill="#fff" d="M186.472 167.147c-9.764 0-17.675 2.68-17.675 5.978 0 3.287 7.912 5.96 17.675 5.96 9.752 0 17.673-2.673 17.673-5.96 0-3.3-7.92-5.978-17.673-5.978"/><defs><path id="o" d="M0 0h288.46v278.28H0z"/></defs><clipPath id="p"><use xlink:href="#o" overflow="visible"/></clipPath><path clip-path="url(#p)" fill="#F47D30" d="M164.487 174.914l-11.18-5.702-1.378 2.794 11.233 5.73z"/><defs><path id="q" d="M0 0h288.46v278.28H0z"/></defs><clipPath id="r"><use xlink:href="#q" overflow="visible"/></clipPath><path clip-path="url(#r)" fill="#F47D30" d="M95.123 166.334c4.64-5.25 11.224.963 16.74-2.36 4.267-2.18 7.905 1.638 12.478.94 2.876-.048 7.216-3.226 9.7.59 2.094 1.017 5.04.64 6.823-.685 1.11-4.023 5.728-2.464 8.78-3.39 2.01-.452 5.947-2.474 8.632-2.312l.554-1.126 10.98 5.6 1.322-2.818-10.925-5.582 13.11-26.625c-7.76-1.23-17.39 3.904-24.163.304-7.8-.24-16.88.272-23.79-3.385-4.49-.72-9.296-.653-13.378-2.29-2.188 4.1-4.653-1.34-7.277-.545-1.582.505-2.9 2.233-2.58 4.087-.808 4.248-5.973 1.764-8.63 3.55-4.877 2.768-7.583-4.216-12.242-4.152-3.176-.864-6.965-.476-8.73 2.766-2.74.696-4.14-2.876-7.247-1.71-2.158-1.34.96-2.265.167-3.884-1.776-1.944-5.086-3.356-7.588-1.722-.46 3.33 3.105 6.2 1.224 9.69-1.86.384-1.755-2.322-3.322-2.957-1.79-.863-1.86 1.32-2.818 2.16-3.482-.158-2.754-4.04-3.844-6.142-4.045-.63-7.28 1.848-10.616 3.314-2.336 1.775-.807 5.58-2.818 7.44-1.56-1.172-1.4-3.42-2.94-4.818-1.307-.858-2.872-1.48-4.488-.918-1.493.36-1.924 1.6-2.237 2.908.038.782.825 1.4 1.678 1.176 1.005.235 1.776 1.412 1.307 2.4-.52.704-.84 2.12-2.078 1.863-1.327-1.258-3.18-3.022-5.05-2.257-.79.696-.006 1.635-.006 2.406-.848 2.857 1.248 4.5 2.794 6.52.524 2.235.747 5.497-.965 7.122-2.308.457-2.882 3.004-3.11 4.95.55 1.95 2.693 1.798 3.476 3.418.42 1.33-1.03 2.335-2.213 3.083.458 2.203.988 4.382 1.57 6.55 1.413-.555 3.023-1.085 3.947-.934.777.39 1.328 1.095 1.328 1.877.75 1.463 2.318 2.93 4.097 2.09 1.782-.772 3.404-3.233 5.327-2.228v-16.244l8.316 7.297v8.416c3.088-.074 6.607.24 9.454-.91 5.652.42 12.398 1.975 17.304-1.25 4.346-.78 8.364-2.247 13.03-2.236 3.183-.22 5.958 1.178 8.917.96"/><defs><path id="s" d="M0 0h288.46v278.28H0z"/></defs><clipPath id="t"><use xlink:href="#s" overflow="visible"/></clipPath><path clip-path="url(#t)" fill="#F47D30" d="M191.95 131.24c3.118-4.12 11.1.812 12.123-5.554 1.24-3.316 4.96-2.08 7.285-3.717.704-1.23-.53-2.084-.77-3.17 3.045-3.324 7.152-5.63 10.414-9.03 2.336-2.312 5.983-1.788 9.005-1.845 1.397-.843 3.432-2.09 3.727-3.708l-.392-.557c-4.27-.623-8.892.14-12.86 1.44-4.44 4.016-9.34 6.876-14.663 8.498-3.625 4.608-11.18 6.766-16.58 8.624l-6.743 14.348c3.414-.906 7.936-3.332 9.453-5.33"/><defs><path id="u" d="M0 0h288.46v278.28H0z"/></defs><clipPath id="v"><use xlink:href="#u" overflow="visible"/></clipPath><path clip-path="url(#v)" fill="#F47D30" d="M168.917 165.48l-11.016-5.61-1.366 2.793 11.06 5.634z"/><defs><path id="w" d="M0 0h288.46v278.28H0z"/></defs><clipPath id="x"><use xlink:href="#w" overflow="visible"/></clipPath><path clip-path="url(#x)" fill="#F47D30" d="M154.228 167.334l11.15 5.684 1.324-2.818-11.094-5.665z"/><defs><path id="y" d="M0 0h288.46v278.28H0z"/></defs><clipPath id="z"><use xlink:href="#y" overflow="visible"/></clipPath><path clip-path="url(#z)" fill="#F47D30" d="M144.227 10.255c-73.99 0-133.963 57.703-133.963 128.892 0 71.18 59.973 128.888 133.963 128.888 73.987 0 133.963-57.708 133.963-128.888 0-71.19-59.976-128.892-133.963-128.892m0 249.52c-69.44 0-125.718-54.004-125.718-120.628 0-37.278 17.62-70.59 45.298-92.718C73.74 38.49 84.97 32.013 97.14 27.29c14.547-5.64 30.434-8.78 47.087-8.78 26.98 0 51.942 8.18 72.416 22.056a123.445 123.445 0 0 1 8.14 5.98c24.097 19.325 40.513 47.127 44.3 78.638l-2.68.9c-1.59 5.966-8.452 2.01-11.36 6.25-3.696.21-7.728.53-9.673 4.254-1.18.364-2.877.364-3.335-1.098.795-3.42-4.792-4.6-2.215-8.242-.155-1.547-2.03-1.7-3.202-1.246-2.456.913-2.65 3.564-2.937 5.716-3.365.617-3.647-5.265-7.296-3.877-3.73 3.555-8.452 5.184-13.815 4.242-9.52-.734-12.66 11.66-20.8 14.268-3.49.542-8.74-1.47-12.545-2.82l-6.64 14.136 3.872-.963c2.57-.613 4.605-2.324 6.93-3.54 3.77 2.87 4.4-2.648 7.446-2.95 1.937-.444 3.557 1.265 4.792 2.662 4.575 1.95 10.096.65 13.835-2.433 3.997-1.71 9.107-1 13.164-2.757 2.715-1.795 5.346-3.944 9.18-3.324 11.378-3.91 26.066-8.737 37.872-12.872.168 2.534.27 5.08.27 7.657-.004 66.626-56.282 120.63-125.72 120.63"/><defs><path id="A" d="M0 0h288.46v278.28H0z"/></defs><clipPath id="B"><use xlink:href="#A" overflow="visible"/></clipPath><path clip-path="url(#B)" fill="#F47D30" d="M68.937 184.876l-12.003-10.81c-4.648-4.18-7.89-.508-7.89 2.172v11.167c0 2.148.72 3.412 1.688 4.677l10.866 14.188c.61.79.846 1.583.846 2.552v1.572c0 1.265-1.117 1.15-1.983.367l-2.35-2.003c-.837-.645-.752-1.975-.752-3.125V204.2c0-.777-.82-2.144-1.644-2.817l-5.433-4.96c-.818-.795-1.236-.132-1.236 1.986v6.476c0 1.686 1.114 5.093 3.648 7.38l12.434 11.19c3.02 2.69 5.63.08 5.63-6.145v-7.138c0-3.54-1.58-7.116-3.43-9.535l-9.146-11.903s-.822-1.09-.822-2.48v-1.234s.322-1.793 1.75-.493l2.33 2.095c.606.56 1.006 1.402 1.006 2.407v1.685c0 .975.253 1.71 1.176 2.552l4.377 3.937c1.85 1.662 2.757.458 2.757-.993v-6.71c0-2.47-1.068-3.95-1.817-4.624"/><defs><path id="C" d="M0 0h288.46v278.28H0z"/></defs><clipPath id="D"><use xlink:href="#C" overflow="visible"/></clipPath><path clip-path="url(#D)" fill="#F47D30" d="M89.22 231.15l-6.582-3.9v-32.827c0-.373-.2-.728-.53-.915l-6.164-3.66a1.065 1.065 0 0 0-1.08-.006 1.058 1.058 0 0 0-.536.92V229.6c0 .38.19.733.524.92l13.27 7.88a1.077 1.077 0 0 0 1.623-.92v-5.407c0-.377-.205-.72-.524-.92"/><defs><path id="E" d="M0 0h288.46v278.28H0z"/></defs><clipPath id="F"><use xlink:href="#E" overflow="visible"/></clipPath><path clip-path="url(#F)" fill="#F47D30" d="M113.9 211.616l-1.012-6.38a.849.849 0 0 0-.64-.7l-11.22-2.744a.854.854 0 0 0-1.035.62l-3.417 13.322-5.91 23.067c-.12.44.128.893.568 1.037l6.607 2.143c.23.066.477.048.685-.06a.91.91 0 0 0 .416-.542l1.707-6.748 9.042 2.943 1.306 8.2a.844.844 0 0 0 .58.674l6.912 2.252a.856.856 0 0 0 1.116-.94l-5.705-36.144zm-11.418 15.742l3.434-13.538 2.453 15.46-5.888-1.922z"/><defs><path id="G" d="M0 0h288.46v278.28H0z"/></defs><clipPath id="H"><use xlink:href="#G" overflow="visible"/></clipPath><path clip-path="url(#H)" fill="#F47D30" d="M150.81 209.305l-6.165-.73a1.104 1.104 0 0 0-.836.26c-.236.205-.365.5-.365.806v21.546l-11.362-23.598c-.055-.102-.142-.174-.22-.26-.168-.168-.37-.312-.624-.334l-8.94-1.055a1.033 1.033 0 0 0-.842.26c-.23.203-.358.498-.358.805v41.135c0 .534.395 1 .923 1.064l6.17.843c.308.048.617-.05.847-.253.232-.198.367-.493.367-.806V224.01l13.45 26.217c.194.386.594.614 1.013.592l6.88-.418a1.071 1.071 0 0 0 1.01-1.064V210.37a1.07 1.07 0 0 0-.95-1.065"/><defs><path id="I" d="M0 0h288.46v278.28H0z"/></defs><clipPath id="J"><use xlink:href="#I" overflow="visible"/></clipPath><path clip-path="url(#J)" fill="#F47D30" d="M174.576 205.446l-17.247 3.437a1.079 1.079 0 0 0-.868 1.06v38.767c0 .314.15.608.392.82.242.205.566.29.868.23l16.854-3.006c8.308-1.485 8.308-6.483 8.308-7.555v-30.424s0-4.984-8.308-3.33m0 30.533s0 3.654-3.24 4.23l-6.56 1.18V215.31l6.18-1.24c3.62-.716 3.62 2.647 3.62 2.647v19.26z"/><defs><path id="K" d="M0 0h288.46v278.28H0z"/></defs><clipPath id="L"><use xlink:href="#K" overflow="visible"/></clipPath><path clip-path="url(#L)" fill="#F47D30" d="M204.254 193.846a.868.868 0 0 0-.832-.048l-15.543 7.615a.855.855 0 0 0-.482.765v39.05a.855.855 0 0 0 1.21.783l15.55-6.994a.859.859 0 0 0 .504-.783v-5.52c0-.29-.15-.554-.397-.71a.823.823 0 0 0-.813-.072l-6.532 2.945a.86.86 0 0 1-1.21-.782v-7.387c0-.35.198-.648.5-.783l7.945-3.58a.855.855 0 0 0 .506-.78v-5.55a.855.855 0 0 0-1.24-.768l-6.478 3.172a.88.88 0 0 1-.83-.042.863.863 0 0 1-.403-.73v-7.898c0-.323.187-.63.475-.77l7.995-3.907a.872.872 0 0 0 .48-.772v-5.73a.833.833 0 0 0-.406-.722"/><defs><path id="M" d="M0 0h288.46v278.28H0z"/></defs><clipPath id="N"><use xlink:href="#M" overflow="visible"/></clipPath><path clip-path="url(#N)" fill="#F47D30" d="M223.023 206.553s4.864-3.63 4.864-10.234V186.09c0-5.43-3.474-5.936-7.43-3.203l-12.966 8.945a.848.848 0 0 0-.372.71v38.604c0 .314.175.6.46.756.287.153.624.14.888-.053l6.6-4.473a.876.876 0 0 0 .372-.704v-14.894l1.36-.938 7.237 9.462a.865.865 0 0 0 1.168.193l4.827-3.287a.857.857 0 0 0 .193-1.23l-7.2-9.43zm-2.565-8.867c0 1.404-.818 3.035-1.818 3.72l-1.86 1.29a.865.865 0 0 1-.884.06.859.859 0 0 1-.458-.77v-6.863a.83.83 0 0 1 .374-.7l2.703-1.865c1.078-.746 1.943-.024 1.943 1.13v3.998z"/><defs><path id="O" d="M0 0h288.46v278.28H0z"/></defs><clipPath id="P"><use xlink:href="#O" overflow="visible"/></clipPath><path clip-path="url(#P)" fill="#F47D30" d="M241.18 161.922l-8.37 9.24c-2.143 2.41-2.635 4.973-2.635 7.924v3.93c0 2.757.56 5.22 4.13 5.966l4.575 1.035c1.48.326 2.3.735 2.3 1.807v1c0 1.612-.374 2.016-1.06 2.703-.675.668-2.24 2.282-2.24.265v-1.717c0-1.432-.602-1.432-1.512-.518l-5.28 5.43c-.624.577-.914 1.25-.914 2.36v3.467c0 6.226 3.22 7.44 6.502 3.12l7.92-10.452c3.25-4.292 3.25-8.596 3.25-11.063 0-2.963-2.527-4.18-4.358-4.498l-3.864-.668c-1.38-.253-1.745-1.205-1.745-2.528v-2.12c0-.638 0-2.317 1.124-3.49l.777-.796c.814-.83 1.398-.83 1.398.673v3.04c0 .62.35.995.908.417l4.84-5.01c.825-.847.92-2.166.92-3.062v-5.075c.004-5.263-3.608-4.757-6.667-1.38"/><defs><path id="Q" d="M0 0h288.46v278.28H0z"/></defs><clipPath id="R"><use xlink:href="#Q" overflow="visible"/></clipPath><path clip-path="url(#R)" fill="#F47D30" d="M38.103 170.29v22.237l5.893 8.47c1.474 2.12 2.423 1.608 2.423-.222v-31.01c-2.658.717-5.782-.155-8.317.525"/><defs><path id="S" d="M0 0h288.46v278.28H0z"/></defs><clipPath id="T"><use xlink:href="#S" overflow="visible"/></clipPath><path clip-path="url(#T)" fill="#F47D30" d="M204.145 182.92v-9.8c0 3.298-7.92 5.965-17.673 5.965-9.764 0-17.675-2.667-17.675-5.966v9.8c0 3.3 7.912 5.966 17.675 5.966 9.752 0 17.673-2.667 17.673-5.966"/><defs><path id="U" d="M0 0h288.46v278.28H0z"/></defs><clipPath id="V"><use xlink:href="#U" overflow="visible"/></clipPath><path clip-path="url(#V)" fill="#00539B" d="M255.615 238.922c-3.943 0-7.153 3.208-7.153 7.153 0 3.947 3.21 7.157 7.153 7.157 3.95 0 7.158-3.21 7.158-7.157 0-3.945-3.208-7.153-7.158-7.153m0 12.775a5.626 5.626 0 0 1-5.623-5.62 5.625 5.625 0 0 1 5.623-5.625 5.614 5.614 0 0 1 5.623 5.624 5.613 5.613 0 0 1-5.623 5.62"/><defs><path id="W" d="M0 0h288.46v278.28H0z"/></defs><clipPath id="X"><use xlink:href="#W" overflow="visible"/></clipPath><path clip-path="url(#X)" fill="#00539B" d="M258.553 244.418a2.42 2.42 0 0 0-2.42-2.426l-3.45-.01v8.174h1.535v-3.324h1.097l1.554 3.324h1.683l-1.612-3.456a2.41 2.41 0 0 0 1.613-2.282m-2.42.886h-1.916v-1.782h1.916c.494 0 .89.397.89.897a.887.887 0 0 1-.89.884"/><defs><path id="Y" d="M0 0h288.46v278.28H0z"/></defs><clipPath id="Z"><use xlink:href="#Y" overflow="visible"/></clipPath><path clip-path="url(#Z)" fill="#00539B" d="M46.416 169.767v-8.416l-8.313-7.296v16.236c2.537-.68 5.665.192 8.313-.523"/><defs><path id="aa" d="M0 0h288.46v278.28H0z"/></defs><clipPath id="ab"><use xlink:href="#aa" overflow="visible"/></clipPath><path clip-path="url(#ab)" fill="#00539B" d="M269.666 131.49c-11.798 4.14-26.487 8.968-37.865 12.872-3.834-.62-6.465 1.53-9.18 3.323-4.056 1.758-9.168 1.048-13.165 2.758-3.74 3.082-9.26 4.382-13.833 2.432-1.234-1.403-2.854-3.105-4.793-2.66-3.047.3-3.678 5.82-7.44 2.95-2.33 1.215-4.36 2.925-6.936 3.54l-3.87.962-1.45 3.106-1.325 2.817-.892 1.897-1.324 2.817-.89 1.896-1.332 2.82-.885 1.888-1.325 2.83-10.655 22.682a5.167 5.167 0 0 1-3.467 2.818l-17.184 4.094c.087.083.174.156.223.252l11.367 23.61v-21.55c0-.303.13-.604.36-.807.23-.2.534-.302.834-.266l6.168.735c.542.06.95.518.95 1.06v38.966c0 .573-.444 1.042-1.017 1.08l-6.87.403a1.064 1.064 0 0 1-1.017-.585l-13.446-26.222v24.982c0 .307-.136.602-.37.806a1.08 1.08 0 0 1-.85.26l-6.164-.844a1.089 1.089 0 0 1-.93-1.065v-38.25l-7.203 1.72 5.71 36.14a.86.86 0 0 1-.29.78.881.881 0 0 1-.828.17l-6.91-2.25a.867.867 0 0 1-.584-.68l-1.3-8.2-9.045-2.943-1.706 6.74c-.06.23-.21.43-.418.55a.91.91 0 0 1-.68.06l-6.613-2.15a.857.857 0 0 1-.566-1.03l5.918-23.068-5.734 1.374a1.947 1.947 0 0 1-1.522-.277 1.92 1.92 0 0 1-.83-1.31l-3.522-23.106a1.9 1.9 0 0 1 .358-1.438c.307-.416.776-.69 1.288-.765l57.737-7.944a5.141 5.141 0 0 0 3.915-2.83l3.667-7.43 1.372-2.793.927-1.878 1.373-2.8.92-1.87 1.378-2.794.368-.746c-2.686-.168-6.635 1.854-8.632 2.306-3.052.92-7.67-.632-8.78 3.39-1.785 1.322-4.725 1.702-6.823.685-2.483-3.817-6.824-.64-9.695-.59-4.575.692-8.21-3.12-12.477-.94-5.517 3.323-12.103-2.89-16.744 2.354-2.957.228-5.736-1.174-8.917-.958-4.66-.013-8.68 1.456-13.027 2.233-4.907 3.232-11.65 1.668-17.308 1.252-2.842 1.15-6.37.83-9.45.91v31.007c0 1.837-.95 2.342-2.424.217L38.1 192.53V170.3c-1.923-1-3.542 1.456-5.324 2.22-1.782.85-3.347-.62-4.105-2.082 0-.782-.54-1.475-1.317-1.885-.928-.137-2.54.393-3.946.942a106.27 106.27 0 0 1-1.572-6.55c1.184-.74 2.625-1.747 2.212-3.083-.79-1.626-2.93-1.47-3.482-3.42.235-1.945.8-4.492 3.112-4.95 1.713-1.618 1.493-4.875.96-7.126-1.547-2.02-3.636-3.657-2.79-6.52 0-.764-.784-1.7.01-2.4 1.867-.766 3.724 1.002 5.043 2.253 1.246.26 1.565-1.16 2.083-1.854.47-.993-.307-2.164-1.307-2.405-.85.222-1.646-.395-1.677-1.17.307-1.308.746-2.553 2.236-2.917 1.61-.56 3.18.064 4.488.924 1.54 1.393 1.382 3.645 2.94 4.816 2.012-1.858.482-5.665 2.818-7.44 3.33-1.466 6.57-3.947 10.616-3.317 1.09 2.11.358 5.993 3.847 6.146.954-.847 1.03-3.03 2.818-2.165 1.565.635 1.46 3.342 3.322 2.96 1.873-3.483-1.688-6.36-1.228-9.69 2.5-1.634 5.812-.222 7.588 1.72.794 1.62-2.324 2.545-.166 3.88 3.105-1.164 4.5 2.418 7.24 1.717 1.766-3.245 5.564-3.633 8.73-2.77 4.67-.06 7.375 6.93 12.245 4.157 2.66-1.782 7.823.695 8.63-3.552-.316-1.857 1.005-3.576 2.582-4.08 2.62-.8 5.087 4.634 7.28.534 4.074 1.64 8.89 1.572 13.377 2.293 6.905 3.657 15.99 3.146 23.78 3.383 6.78 3.6 16.41-1.535 24.166-.3l3.63-7.373-30.39-65.454v60.862a1.93 1.93 0 0 1-1.93 1.93h-29.55c-.68 0-1.31-.36-1.653-.937l-19.4-32.357v31.36a1.93 1.93 0 0 1-1.93 1.93h-26.34a1.931 1.931 0 0 1-1.938-1.93V46.426c-27.678 22.132-45.3 55.443-45.3 92.718 0 66.622 56.28 120.633 125.722 120.633 69.427 0 125.712-54.01 125.712-120.633-.002-2.57-.11-5.12-.278-7.654m-198.91 64.728c0 1.444-.908 2.654-2.762.982l-4.376-3.932c-.923-.842-1.176-1.584-1.176-2.558v-1.68c0-1.01-.4-1.848-1-2.414l-2.33-2.096c-1.435-1.29-1.757.5-1.757.5v1.228c0 1.402.82 2.492.82 2.492l9.148 11.896c1.854 2.42 3.435 5.996 3.435 9.535v7.14c0 6.22-2.616 8.842-5.635 6.153L52.695 212.26c-2.54-2.288-3.65-5.688-3.65-7.38v-6.473c0-2.118.415-2.774 1.24-1.985l5.423 4.96c.828.667 1.646 2.045 1.646 2.817v1.43c0 1.156-.08 2.487.758 3.125l2.348 2.005c.863.782 1.98.904 1.98-.373v-1.566c0-.96-.23-1.755-.846-2.55l-10.86-14.195c-.97-1.253-1.692-2.517-1.692-4.666v-11.17c0-2.69 3.24-6.356 7.886-2.17l12.007 10.804c.747.675 1.82 2.156 1.82 4.625v6.718zm18.985 41.255c0 .39-.2.74-.54.932a1.053 1.053 0 0 1-1.078-.01l-13.274-7.868a1.09 1.09 0 0 1-.524-.923V190.77c0-.39.205-.74.54-.933a1.088 1.088 0 0 1 1.082.01l6.165 3.655c.33.2.525.547.525.92v32.826l6.582 3.91c.328.186.523.54.523.92v5.395zm93.144 1.727c0 1.065 0 6.068-8.313 7.55l-16.85 3.016a1.102 1.102 0 0 1-.873-.235c-.24-.21-.38-.51-.38-.824v-38.768c0-.518.357-.957.863-1.054l17.24-3.432c8.314-1.655 8.314 3.324 8.314 3.324V239.2zm-14.088-56.273v-9.802c0-3.3 7.912-5.978 17.675-5.978 9.753 0 17.67 2.68 17.67 5.978v9.802c0 3.298-7.917 5.964-17.67 5.964-9.762 0-17.674-2.666-17.674-5.963m35.867 17.372a.87.87 0 0 1-.487.77l-7.988 3.913a.831.831 0 0 0-.47.77v7.885c0 .302.145.58.397.735a.832.832 0 0 0 .83.036l6.478-3.168a.842.842 0 0 1 .832.044c.25.16.41.433.41.728v5.55a.849.849 0 0 1-.513.783l-7.933 3.574a.843.843 0 0 0-.5.784v7.394c0 .275.143.553.382.71a.848.848 0 0 0 .82.06l6.526-2.938a.841.841 0 0 1 .818.068c.24.162.397.426.397.72v5.51c0 .343-.193.65-.51.782l-15.54 6.994a.855.855 0 0 1-.818-.048.857.857 0 0 1-.397-.733V202.18a.86.86 0 0 1 .48-.773l15.544-7.602a.861.861 0 0 1 1.24.772v5.724zm25.37 16.914l-4.83 3.28a.854.854 0 0 1-1.168-.19l-7.236-9.46-1.36.948v14.88a.9.9 0 0 1-.374.718l-6.604 4.473a.869.869 0 0 1-.885.054.883.883 0 0 1-.458-.76v-38.616c0-.28.137-.54.372-.703l12.967-8.945c3.954-2.728 7.428-2.222 7.428 3.196v10.233c0 6.605-4.864 10.23-4.864 10.23l7.2 9.437a.858.858 0 0 1-.191 1.226m17.812-48.838c0 .895-.084 2.21-.91 3.063l-4.844 5.007c-.56.578-.91.205-.91-.415v-3.04c0-1.505-.577-1.505-1.396-.675l-.777.795c-1.125 1.172-1.125 2.853-1.125 3.49v2.12c0 1.324.367 2.282 1.757 2.523l3.852.674c1.83.317 4.354 1.535 4.354 4.49 0 2.48 0 6.772-3.246 11.07l-7.916 10.457c-3.286 4.316-6.507 3.106-6.507-3.124v-3.468c0-1.106.29-1.78.915-2.36l5.286-5.43c.903-.915 1.503-.915 1.503.52v1.72c0 2.01 1.566.398 2.24-.276.692-.675 1.06-1.072 1.06-2.697v-1c0-1.072-.824-1.48-2.298-1.805l-4.576-1.035c-3.577-.747-4.13-3.21-4.13-5.966v-3.925c0-2.963.494-5.52 2.637-7.93l8.368-9.24c3.058-3.377 6.666-3.88 6.666 1.38v5.074h-.002z"/><defs><path id="ac" d="M0 0h288.46v278.28H0z"/></defs><clipPath id="ad"><use xlink:href="#ac" overflow="visible"/></clipPath><path clip-path="url(#ad)" fill="#00539B" d="M108.366 229.28l-2.452-15.46-3.435 13.538z"/><defs><path id="ae" d="M0 0h288.46v278.28H0z"/></defs><clipPath id="af"><use xlink:href="#ae" overflow="visible"/></clipPath><path clip-path="url(#af)" fill="#00539B" d="M117.56 29.016c0-1.066.863-1.936 1.935-1.936h46.39c.758 0 1.444.436 1.757 1.123L194.37 85.79l22.273-45.228C196.176 26.687 171.2 18.505 144.23 18.505c-16.653 0-32.546 3.14-47.093 8.786l20.423 39.44V29.016z"/><defs><path id="ag" d="M0 0h288.46v278.28H0z"/></defs><clipPath id="ah"><use xlink:href="#ag" overflow="visible"/></clipPath><path clip-path="url(#ah)" fill="#00539B" d="M205.82 113.598c5.327-1.623 10.215-4.488 14.664-8.494 3.972-1.306 8.59-2.065 12.858-1.448l.397.56c-.303 1.62-2.337 2.86-3.733 3.705-3.022.06-6.67-.463-9.005 1.843-3.263 3.404-7.37 5.715-10.415 9.036.24 1.08 1.47 1.943.777 3.162-2.33 1.647-6.05.4-7.29 3.724-1.023 6.37-9.007 1.436-12.125 5.553-1.518 1.998-6.045 4.427-9.452 5.326l-3.275 6.965c3.804 1.344 9.053 3.366 12.545 2.82 8.14-2.608 11.282-15.006 20.805-14.265 5.357.936 10.078-.684 13.81-4.248 3.648-1.387 3.938 4.5 7.297 3.877.29-2.146.48-4.8 2.943-5.708 1.16-.463 3.04-.304 3.195 1.237-2.577 3.645 3.01 4.82 2.216 8.24.452 1.47 2.155 1.47 3.33 1.1 1.95-3.717 5.978-4.04 9.686-4.247 2.895-4.248 9.764-.283 11.354-6.252l2.685-.906c-3.793-31.505-20.21-59.314-44.3-78.63l-35.548 75.666c5.392-1.852 12.946-4.005 16.577-8.616"/><defs><path id="ai" d="M0 0h288.46v278.28H0z"/></defs><clipPath id="aj"><use xlink:href="#ai" overflow="visible"/></clipPath><path clip-path="url(#aj)" fill="#00539B" d="M218.51 192.558l-2.704 1.866a.838.838 0 0 0-.368.71v6.857c0 .32.18.61.458.76a.85.85 0 0 0 .885-.056l1.867-1.288c1-.692 1.807-2.318 1.807-3.72v-3.998c0-1.154-.86-1.876-1.945-1.13"/><defs><path id="ak" d="M0 0h288.46v278.28H0z"/></defs><clipPath id="al"><use xlink:href="#ak" overflow="visible"/></clipPath><path clip-path="url(#al)" fill="#00539B" d="M170.958 214.078l-6.176 1.234v26.08l6.556-1.182c3.232-.577 3.232-4.232 3.232-4.232v-19.263s0-3.36-3.612-2.637"/></svg>