<?xml version="1.0" encoding="UTF-8" standalone="no"?>
<!-- Created with Inkscape (http://www.inkscape.org/) -->
<svg
   xmlns:dc="http://purl.org/dc/elements/1.1/"
   xmlns:cc="http://creativecommons.org/ns#"
   xmlns:rdf="http://www.w3.org/1999/02/22-rdf-syntax-ns#"
   xmlns:svg="http://www.w3.org/2000/svg"
   xmlns="http://www.w3.org/2000/svg"
   xmlns:sodipodi="http://sodipodi.sourceforge.net/DTD/sodipodi-0.dtd"
   xmlns:inkscape="http://www.inkscape.org/namespaces/inkscape"
   id="svg2"
   sodipodi:version="0.32"
   inkscape:version="0.46"
   width="227"
   height="227"
   xml:space="preserve"
   sodipodi:docname="New York Rangers.svg"
   version="1.0"
   inkscape:output_extension="org.inkscape.output.svg.inkscape"><metadata
     id="metadata7"><rdf:RDF><cc:Work
         rdf:about=""><dc:format>image/svg+xml</dc:format><dc:type
           rdf:resource="http://purl.org/dc/dcmitype/StillImage" /></cc:Work></rdf:RDF></metadata><defs
     id="defs5"><inkscape:perspective
       sodipodi:type="inkscape:persp3d"
       inkscape:vp_x="0 : 526.18109 : 1"
       inkscape:vp_y="0 : 1000 : 0"
       inkscape:vp_z="744.09448 : 526.18109 : 1"
       inkscape:persp3d-origin="372.04724 : 350.78739 : 1"
       id="perspective9" /><clipPath
       clipPathUnits="userSpaceOnUse"
       id="clipPath17"><path
         d="M 0,227 L 227,227 L 227,0 L 0,0 L 0,227 z"
         id="path19" /></clipPath></defs><sodipodi:namedview
     inkscape:window-height="904"
     inkscape:window-width="1280"
     inkscape:pageshadow="2"
     inkscape:pageopacity="0.0"
     guidetolerance="10.0"
     gridtolerance="10.0"
     objecttolerance="10.0"
     borderopacity="1.0"
     bordercolor="#666666"
     pagecolor="#ffffff"
     id="base"
     showgrid="false"
     inkscape:zoom="1.6281938"
     inkscape:cx="57.732684"
     inkscape:cy="92.740801"
     inkscape:window-x="-4"
     inkscape:window-y="-4"
     inkscape:current-layer="g11" /><g
     id="g11"
     inkscape:groupmode="layer"
     inkscape:label="New York Rangers"
     transform="matrix(1.25,0,0,-1.25,0,283.75)"><g
       id="g13"
       transform="matrix(0.8,0,0,0.8,1.6e-4,45.39984)"><g
         id="g15"
         clip-path="url(#clipPath17)"><g
           id="g21"
           transform="translate(212.2168,221.2012)"><path
             d="M 0,0 L -39.842,0 L -43.094,0 L -45.43,-2.264 L -50.9,-7.565 L -57.205,-1.668 L -59.521,0.498 L -60.208,0.498 L -62.69,0.498 L -98.646,0.498 L -134.603,0.498 L -137.773,0.498 L -140.088,-1.668 L -146.393,-7.565 L -151.863,-2.264 L -154.199,0 L -157.451,0 L -197.293,0 L -211.217,0 L -194.198,-30.052 L -194.128,-175.851 C -194.128,-177.252 -193.962,-179.451 -193.331,-182.021 C -192.386,-185.865 -190.382,-190.563 -186.232,-194.324 C -182.087,-198.092 -175.829,-200.791 -166.845,-200.779 L -122.61,-200.779 C -118.051,-200.78 -114.343,-201.962 -111.383,-203.503 C -108.427,-205.044 -106.235,-206.952 -104.798,-208.389 C -103.343,-209.844 -102.187,-211.224 -101.402,-212.23 C -101.01,-212.734 -100.71,-213.145 -100.511,-213.426 C -100.412,-213.565 -100.338,-213.674 -100.289,-213.744 C -100.266,-213.779 -100.248,-213.805 -100.237,-213.821 C -100.227,-213.838 -100.225,-213.84 -100.225,-213.84 L -98.876,-215.9 L -97.382,-213.942 C -97.381,-213.942 -97.179,-213.677 -96.849,-213.251 C -96.354,-212.612 -95.577,-211.62 -94.803,-210.668 C -94.035,-209.722 -93.242,-208.791 -92.823,-208.376 C -92.23,-207.779 -90.123,-205.842 -86.959,-204.096 C -83.789,-202.343 -79.576,-200.777 -74.683,-200.779 L -30.447,-200.779 C -25.948,-200.778 -21.998,-200.199 -18.584,-199.107 C -13.469,-197.476 -9.557,-194.656 -6.977,-191 C -4.393,-187.347 -3.161,-182.912 -3.164,-178.153 L -3.164,-29.889 L 6.984,-11.99 L 13.783,0 L 0,0 z"
             style="fill:#0161ab;fill-opacity:1;fill-rule:nonzero;stroke:none"
             id="path23" /></g><g
           id="g25"
           transform="translate(152.0088,219.9561)"><path
             d="M 0,0 L -2.481,0 L -38.438,0 L -74.395,0 L -76.876,0 L -78.689,-1.695 L -86.206,-8.727 L -92.868,-2.271 L -94.697,-0.498 L -97.243,-0.498 L -137.085,-0.498 L -148.019,-0.498 L -132.248,-28.347 L -132.178,-174.605 C -132.178,-179.661 -129.702,-197.791 -106.637,-197.791 L -62.402,-197.791 C -52.671,-197.791 -46.395,-202.875 -43.358,-205.911 C -40.321,-208.948 -38.559,-211.64 -38.559,-211.64 C -38.559,-211.64 -35.232,-207.283 -33.848,-205.898 C -32.463,-204.514 -25.015,-197.791 -14.475,-197.791 L 29.761,-197.791 C 47.161,-197.791 55.302,-188.817 55.302,-176.908 L 55.302,-28.185 L 65.677,-9.885 L 71,-0.498 L 60.208,-0.498 L 20.367,-0.498 L 17.82,-0.498 L 15.991,-2.271 L 9.33,-8.727 L 1.813,-1.695 L 0,0 z M -2.481,-6.287 L 9.406,-17.408 L 20.367,-6.785 L 60.208,-6.785 L 49.015,-26.526 L 49.015,-176.908 C 49.015,-186.712 41.587,-191.504 29.761,-191.504 L -14.475,-191.504 C -30.865,-191.504 -38.438,-202.593 -38.438,-202.593 C -38.438,-202.593 -46.011,-191.504 -62.402,-191.504 L -106.637,-191.504 C -118.463,-191.504 -125.891,-186.712 -125.891,-176.908 L -125.891,-26.526 L -137.085,-6.785 L -97.243,-6.785 L -86.283,-17.408 L -74.395,-6.287 L -38.438,-6.287 L -2.481,-6.287"
             style="fill:#ffffff;fill-opacity:1;fill-rule:nonzero;stroke:none"
             id="path27" /></g><g
           id="g29"
           transform="translate(30.8276,121.5957)"><path
             d="M 0,0 L 0,-76.961 C 0,-83.546 4.783,-88.393 15.444,-88.393 L 57.532,-88.393 C 74.984,-88.393 82.74,-98.403 82.74,-98.403 C 82.74,-98.403 90.738,-88.394 106.333,-88.394 L 122.782,-88.394 L 0,0 z"
             style="fill:#ffffff;fill-opacity:1;fill-rule:nonzero;stroke:none"
             id="path31" /></g><path
           d="M 196.21,158.916 L 30.828,158.916 L 30.828,154.981 L 196.21,154.981 L 196.21,158.916 z"
           style="fill:#ffffff;fill-opacity:1;fill-rule:nonzero;stroke:none"
           id="path33" /><g
           id="g35"
           transform="translate(196.21,66.3232)"><path
             d="M 0,0 L 0,4.048 L -110.24,82.635 L -115.86,82.635 L 0,0 z"
             style="fill:#ffffff;fill-opacity:1;fill-rule:nonzero;stroke:none"
             id="path37" /></g><g
           id="g39"
           transform="translate(30.8276,133.7617)"><path
             d="M 0,0 L 0,-4.037 L 133.825,-100.56 L 139.525,-100.56 L 0,0 z"
             style="fill:#ffffff;fill-opacity:1;fill-rule:nonzero;stroke:none"
             id="path41" /></g><g
           id="g43"
           transform="translate(196.21,78.5137)"><path
             d="M 0,0 L 0,70.444 L -98.818,70.444 L 0,0 z"
             style="fill:#e3393f;fill-opacity:1;fill-rule:nonzero;stroke:none"
             id="path45" /></g><g
           id="g47"
           transform="translate(50.1064,163.8105)"><path
             d="M 0,0 L -4.61,0 L -12.847,19.23 L -12.847,0 L -17.476,0 L -17.476,29.824 L -12.723,29.824 L -4.629,11.06 L -4.629,29.824 L 0,29.824 L 0,0 z"
             style="fill:#ffffff;fill-opacity:1;fill-rule:nonzero;stroke:none"
             id="path49" /></g><g
           id="g51"
           transform="translate(68.6123,188.8472)"><path
             d="M 0,0 L -7.223,0 L -7.223,-7.541 L -0.033,-7.541 L -0.033,-12.224 L -7.223,-12.224 L -7.223,-20.187 L 0,-20.187 L 0,-24.912 L -12,-24.912 L -12,4.767 L 0,4.767 L 0,0 z"
             style="fill:#ffffff;fill-opacity:1;fill-rule:nonzero;stroke:none"
             id="path53" /></g><g
           id="g55"
           transform="translate(89.3267,163.8105)"><path
             d="M 0,0 L -2.77,15.801 L -5.509,0 L -11.111,0 L -15.949,29.866 L -11.411,29.866 L -8.248,11.133 L -5.182,29.85 L -0.42,29.85 L 2.77,11.319 L 5.726,29.845 L 10.509,29.845 L 5.517,0 L 0,0 z"
             style="fill:#ffffff;fill-opacity:1;fill-rule:nonzero;stroke:none"
             id="path57" /></g><g
           id="g59"
           transform="translate(123.3467,163.8936)"><path
             d="M 0,0 L -4.899,0 L -4.899,12.326 L -11.309,29.757 L -6.495,29.757 L -2.416,18.783 L 1.563,29.751 L 6.47,29.751 L 0,12.201 L 0,0 z"
             style="fill:#ffffff;fill-opacity:1;fill-rule:nonzero;stroke:none"
             id="path61" /></g><g
           id="g63"
           transform="translate(137.3008,173.8286)"><path
             d="M 0,0 C 0,-2.171 -0.013,-2.973 0.343,-3.833 C 0.769,-4.735 1.775,-5.203 2.805,-5.203 C 3.834,-5.203 4.803,-4.72 5.229,-3.818 C 5.619,-2.958 5.609,-2.212 5.609,0 L 5.609,9.792 C 5.609,12.004 5.658,12.711 5.268,13.571 C 4.842,14.473 3.834,14.995 2.805,14.995 C 1.775,14.995 0.792,14.48 0.366,13.579 C 0.011,12.759 0,11.963 0,9.792 L 0,0 z M 10.311,-0.333 C 10.311,-4.415 10.294,-5.278 9.176,-6.925 C 8.194,-8.364 5.496,-9.955 2.773,-9.955 C 0.124,-9.955 -2.29,-8.891 -3.532,-7.07 C -4.65,-5.423 -4.764,-3.583 -4.764,-0.333 L -4.764,10.198 C -4.764,13.622 -4.685,15.3 -3.392,17.205 C -2.02,19.215 -0.032,19.819 2.773,19.819 C 5.424,19.819 7.83,18.983 9.072,17.163 C 10.564,14.966 10.311,13.987 10.311,10.198 L 10.311,-0.333 z"
             style="fill:#ffffff;fill-opacity:1;fill-rule:nonzero;stroke:none"
             id="path65" /></g><g
           id="g67"
           transform="translate(159.4258,182.9526)"><path
             d="M 0,0 C 2.269,0 3.644,-0.127 4.469,0.342 C 5.346,0.84 5.413,1.905 5.413,2.989 C 5.413,4.044 5.438,5.031 4.563,5.529 C 3.737,5.998 2.269,5.949 0,5.949 L -1.959,5.949 L -1.959,0 L 0,0 z M -1.92,-19.064 L -6.708,-19.064 L -6.708,10.708 L 1.007,10.708 C 5.239,10.708 6.328,10.544 7.861,9.294 C 9.641,7.885 10.157,6.346 10.16,4.673 L 10.164,1.156 C 10.164,-0.343 9.376,-2.065 8.422,-2.905 C 7.229,-3.956 5.81,-4.307 5.714,-4.353 L 10.974,-19.064 L 6.126,-19.064 L 1.025,-4.386 L -1.92,-4.386 L -1.92,-19.064 z"
             style="fill:#ffffff;fill-opacity:1;fill-rule:nonzero;stroke:none"
             id="path69" /></g><g
           id="g71"
           transform="translate(180.4814,183.5083)"><path
             d="M 0,0 L 6.288,10.137 L 11.112,10.137 L 5.261,0.585 L 14.317,-19.615 L 9.494,-19.615 L 2.397,-3.834 L 0,-7.538 L 0,-19.615 L -4.724,-19.615 L -4.724,10.137 L 0,10.137 L 0,0 z"
             style="fill:#ffffff;fill-opacity:1;fill-rule:nonzero;stroke:none"
             id="path73" /></g><g
           id="g75"
           transform="translate(160.0283,69.8789)"><path
             d="M 0,0 C 1.827,-1.341 2.846,-2.276 3.842,-2.312 C 4.9,-2.35 5.708,-1.362 6.476,-0.317 C 7.222,0.7 7.94,1.637 7.587,2.635 C 7.254,3.574 6.036,4.396 4.208,5.736 L 2.63,6.895 L -1.578,1.158 L 0,0 z M -12.067,-13.262 L -15.928,-10.43 L 1.684,13.574 L 7.903,9.012 C 11.316,6.508 12.097,5.731 12.594,3.816 C 13.195,1.628 12.701,0.081 11.714,-1.269 L 8.794,-5.104 C 7.907,-6.313 6.253,-7.235 4.986,-7.349 C 3.403,-7.49 2.052,-6.934 1.947,-6.914 L -1.672,-20.889 L -5.58,-18.021 L -1.882,-4.331 L -4.257,-2.589 L -12.067,-13.262 z"
             style="fill:#ffffff;fill-opacity:1;fill-rule:nonzero;stroke:none"
             id="path77" /></g><g
           id="g79"
           transform="translate(91.6294,124.3076)"><path
             d="M 0,0 L -9.326,-7.884 L -4.616,-11.225 L 0,0 z M -12.652,-10.45 L -17.812,-14.399 L -21.624,-11.616 L 2.646,7.78 L 6.318,4.855 L -4.435,-24.15 L -8.289,-21.329 L -6.172,-15.271 L -12.652,-10.45 z"
             style="fill:#ffffff;fill-opacity:1;fill-rule:nonzero;stroke:none"
             id="path81" /></g><g
           id="g83"
           transform="translate(104.749,87.5439)"><path
             d="M 0,0 L -3.778,2.704 L 0.691,23.218 L -10.53,7.536 L -14.325,10.251 L 3.08,34.571 L 6.976,31.783 L 2.66,11.734 L 13.61,27.036 L 17.404,24.32 L 0,0 z"
             style="fill:#ffffff;fill-opacity:1;fill-rule:nonzero;stroke:none"
             id="path85" /></g><g
           id="g87"
           transform="translate(113.1973,85.2188)"><path
             d="M 0,0 C 0,2.606 2.341,5.39 3.48,6.893 L 8.216,13.444 M 19.384,1.657 L 10.146,-10.831 L 7.984,-9.275 L 8.092,-8.009 C 6.411,-7.937 5.712,-7.807 3.299,-6.069 C 0.973,-4.395 -0.13,-1.474 0,0 C 0.315,3.027 2.341,5.39 3.48,6.893 L 8.216,13.444 C 11.504,18.011 12.166,19.044 14.923,19.73 C 17.154,20.336 18.831,19.561 21.318,17.771 C 24.376,15.568 25.084,13.568 25.084,11.64 C 25.084,8.983 23.777,7.821 21.303,4.397 L 17.47,7.199 C 19.213,9.605 21.246,11.639 18.735,13.651 C 17.677,14.5 17.283,14.793 16.557,14.793 C 15.4,14.793 14.97,14.555 13.527,12.552 L 7.656,4.502 C 6.385,2.736 4.876,0.75 4.876,0.062 C 4.876,-1.287 5.626,-1.771 6.971,-2.739 C 9.173,-4.324 10.159,-2.954 12.57,0.396 L 13.278,1.379 L 9.461,4.087 L 11.577,7.179 L 19.384,1.657 z"
             style="fill:#ffffff;fill-opacity:1;fill-rule:nonzero;stroke:none"
             id="path89" /></g><g
           id="g91"
           transform="translate(153.0645,83.582)"><path
             d="M 0,0 L -5.787,4.321 L -10.299,-1.721 L -4.538,-6.022 L -7.34,-9.775 L -13.101,-5.474 L -17.865,-11.854 L -12.077,-16.176 L -14.904,-19.961 L -24.52,-12.781 L -6.764,10.999 L 2.853,3.819 L 0,0 z"
             style="fill:#ffffff;fill-opacity:1;fill-rule:nonzero;stroke:none"
             id="path93" /></g><g
           id="g95"
           transform="translate(69.4424,135.0186)"><path
             d="M 0,0 C 1.827,-1.34 2.846,-2.276 3.842,-2.312 C 4.9,-2.35 5.708,-1.362 6.476,-0.317 C 7.222,0.7 7.94,1.636 7.587,2.634 C 7.254,3.574 6.036,4.396 4.208,5.736 L 2.63,6.894 L -1.578,1.158 L 0,0 z M -12.068,-13.262 L -15.928,-10.43 L 1.684,13.574 L 7.903,9.011 C 11.316,6.507 12.097,5.731 12.594,3.817 C 13.195,1.628 12.701,0.082 11.713,-1.269 L 8.794,-5.105 C 7.908,-6.313 6.253,-7.236 4.987,-7.349 C 3.403,-7.49 2.052,-6.934 1.947,-6.914 L -1.672,-20.889 L -5.58,-18.022 L -1.882,-4.331 L -4.256,-2.589 L -12.068,-13.262 z"
             style="fill:#ffffff;fill-opacity:1;fill-rule:nonzero;stroke:none"
             id="path97" /></g><g
           id="g99"
           transform="translate(183.4082,57.3018)"><path
             d="M 0,0 C 2.739,2.583 2.292,5.165 0.498,6.349 C -1.147,7.436 -3.201,7.854 -4.824,5.789 C -5.455,4.984 -5.715,3.828 -5.468,2.656 C -5.264,1.512 -5.532,1.215 -3.983,-2.677 C -2.8,-5.794 -2.707,-7.386 -2.707,-8.963 C -2.707,-9.336 -2.805,-12.613 -4.17,-14.036 C -7.874,-17.896 -11.594,-18.511 -16.712,-14.378 C -24.462,-8.123 -16.826,-1.701 -16.494,-1.058 L -13.352,-3.33 C -14.938,-5.758 -17.796,-9.004 -13.056,-11.638 C -11.764,-12.355 -9.454,-13.098 -7.967,-11.204 C -7.026,-10.005 -6.859,-8.256 -8.527,-3.89 C -10.494,1.285 -10.409,1.645 -10.598,3.469 C -10.771,5.229 -10.256,6.96 -9.13,8.395 C -6.109,12.241 -0.744,13.519 3.922,9.43 C 9.71,4.357 5.883,0.312 3.859,-2.895 L 0,0 z"
             style="fill:#ffffff;fill-opacity:1;fill-rule:nonzero;stroke:none"
             id="path101" /></g></g></g></g></svg>