<svg xmlns="http://www.w3.org/2000/svg" width="227" height="227" version="1"><defs><clipPath id="a"><path d="M0 227h227V0H0v227z"/></clipPath></defs><g clip-path="url(#a)" transform="matrix(1 0 0 -1 0 227)"><path d="M212.217 221.201h-43.094l-2.336-2.264-5.47-5.3-6.305 5.896-2.316 2.166H74.444l-2.315-2.166-6.305-5.897-5.47 5.301-2.336 2.264H1l17.019-30.052.07-145.799c0-1.4.166-3.6.797-6.17.945-3.844 2.949-8.542 7.099-12.303 4.145-3.768 10.403-6.467 19.387-6.455h44.235c4.559 0 8.267-1.183 11.227-2.724 2.956-1.54 5.148-3.449 6.585-4.886a42.32 42.32 0 0 0 3.396-3.84c.392-.505.692-.916.89-1.197.1-.139.174-.248.223-.318l.052-.077a.154.154 0 0 1 .012-.019l1.349-2.06 1.494 1.958s.203.265.533.691c.495.64 1.272 1.631 2.046 2.583.768.946 1.56 1.877 1.98 2.292.593.597 2.7 2.534 5.864 4.28 3.17 1.753 7.383 3.32 12.276 3.317h44.236c4.499.001 8.449.58 11.863 1.672 5.115 1.631 9.027 4.451 11.607 8.107 2.584 3.653 3.816 8.088 3.813 12.847v148.264l10.148 17.9 6.799 11.99h-13.783z" fill="#0161ab"/><path d="M152.009 219.956H75.133l-1.813-1.695-7.517-7.032-6.662 6.456-1.83 1.773H3.99l15.77-27.849.07-146.258c0-5.056 2.477-23.186 25.542-23.186h44.235c9.73 0 16.007-5.084 19.044-8.12 3.037-3.037 4.799-5.729 4.799-5.729s3.327 4.357 4.71 5.742c1.386 1.384 8.834 8.107 19.374 8.107h44.236c17.4 0 25.54 8.974 25.54 20.883v148.723l10.376 18.3 5.323 9.387h-53.18l-1.83-1.773-6.66-6.456-7.517 7.032-1.813 1.695zm-2.481-6.287l11.887-11.12 10.96 10.622h39.842l-11.193-19.74V43.047c0-9.804-7.428-14.596-19.254-14.596h-44.236c-16.39 0-23.963-11.089-23.963-11.089s-7.573 11.09-23.964 11.09H45.372c-11.826 0-19.254 4.791-19.254 14.595V193.43l-11.194 19.741h39.842l10.96-10.623 11.888 11.121h71.914" fill="#fff"/><path d="M30.828 121.596V44.635c0-6.585 4.783-11.432 15.444-11.432H88.36c17.452 0 25.208-10.01 25.208-10.01s7.998 10.009 23.593 10.009h16.449L30.828 121.596zM196.21 158.916H30.828v-3.935H196.21v3.935zM196.21 66.323v4.048L85.97 148.958h-5.62l115.86-82.635zM30.828 133.762v-4.037l133.825-96.523h5.7L30.828 133.762z" fill="#fff"/><path d="M196.21 78.514v70.444H97.392l98.818-70.444z" fill="#e3393f"/><path d="M50.106 163.81h-4.61l-8.237 19.23v-19.23H32.63v29.824h4.753l8.094-18.763v18.763h4.63v-29.823zM68.612 188.847H61.39v-7.54h7.19v-4.684h-7.19v-7.963h7.223v-4.725h-12v29.68h12v-4.768zM89.327 163.81l-2.77 15.801-2.74-15.8h-5.601l-4.838 29.865h4.538l3.163-18.733 3.066 18.717h4.762l3.19-18.53 2.956 18.525h4.783l-4.992-29.845h-5.517zM123.347 163.894h-4.9v12.326l-6.41 17.43h4.815l4.079-10.973 3.979 10.968h4.907l-6.47-17.55v-12.201zM137.3 173.829c0-2.171-.012-2.973.344-3.833.426-.902 1.432-1.37 2.462-1.37 1.029 0 1.998.483 2.424 1.385.39.86.38 1.606.38 3.818v9.792c0 2.212.049 2.919-.341 3.779-.426.902-1.434 1.424-2.463 1.424-1.03 0-2.013-.515-2.44-1.416-.354-.82-.365-1.616-.365-3.787v-9.792zm10.312-.333c0-4.082-.017-4.945-1.135-6.592-.982-1.44-3.68-3.03-6.403-3.03-2.65 0-5.063 1.064-6.305 2.885-1.118 1.647-1.232 3.487-1.232 6.737v10.53c0 3.425.079 5.103 1.372 7.008 1.372 2.01 3.36 2.614 6.165 2.614 2.65 0 5.057-.836 6.299-2.656 1.492-2.197 1.239-3.176 1.239-6.965v-10.531zM159.426 182.953c2.269 0 3.644-.127 4.469.342.877.498.944 1.563.944 2.647 0 1.055.025 2.042-.85 2.54-.826.469-2.294.42-4.563.42h-1.96v-5.95h1.96zm-1.92-19.064h-4.788v29.772h7.715c4.232 0 5.32-.164 6.854-1.414 1.78-1.41 2.296-2.948 2.299-4.621l.004-3.517c0-1.5-.788-3.221-1.742-4.061-1.193-1.051-2.612-1.402-2.708-1.448l5.26-14.711h-4.848l-5.101 14.678h-2.945v-14.678zM180.481 183.508l6.288 10.137h4.824l-5.85-9.552 9.055-20.2h-4.823l-7.097 15.781-2.397-3.704v-12.077h-4.724v29.752h4.724v-10.137zM160.028 69.879c1.827-1.341 2.846-2.276 3.842-2.312 1.058-.038 1.866.95 2.634 1.995.746 1.017 1.464 1.954 1.111 2.952-.333.939-1.55 1.76-3.379 3.1l-1.578 1.16-4.208-5.737 1.578-1.158zm-12.067-13.262l-3.86 2.832 17.611 24.004 6.22-4.562c3.412-2.504 4.193-3.281 4.69-5.196.601-2.188.107-3.735-.88-5.085l-2.92-3.835c-.887-1.21-2.54-2.131-3.808-2.245-1.583-.141-2.934.415-3.039.435l-3.619-13.975-3.908 2.868 3.698 13.69-2.375 1.742-7.81-10.673zM91.63 124.308l-9.327-7.884 4.71-3.341 4.616 11.225zm-12.653-10.45l-5.16-3.95-3.812 2.784 24.27 19.396 3.672-2.925-10.753-29.005-3.854 2.82 2.117 6.059-6.48 4.82zM104.749 87.544l-3.778 2.704 4.469 20.514L94.219 95.08l-3.795 2.715 17.405 24.32 3.896-2.788-4.316-20.05 10.95 15.303 3.794-2.716-17.404-24.32zM113.197 85.219c0 2.606 2.341 5.39 3.48 6.893l4.736 6.55m11.168-11.786l-9.238-12.488-2.162 1.556.108 1.266c-1.68.072-2.38.202-4.793 1.94-2.326 1.674-3.429 4.595-3.299 6.069.315 3.027 2.341 5.39 3.48 6.893l4.736 6.55c3.288 4.568 3.95 5.6 6.707 6.287 2.231.606 3.908-.17 6.395-1.96 3.058-2.202 3.766-4.202 3.766-6.13 0-2.657-1.307-3.82-3.78-7.243l-3.834 2.802c1.743 2.406 3.776 4.44 1.265 6.452-1.058.849-1.452 1.142-2.178 1.142-1.157 0-1.587-.238-3.03-2.241l-5.87-8.05c-1.272-1.766-2.78-3.752-2.78-4.44 0-1.35.75-1.833 2.094-2.801 2.202-1.585 3.188-.215 5.6 3.135l.707.983-3.817 2.708 2.116 3.092 7.807-5.522zM153.065 83.582l-5.787 4.321-4.512-6.042 5.76-4.301-2.802-3.753-5.76 4.301-4.764-6.38 5.788-4.322-2.827-3.785-9.616 7.18 17.756 23.78 9.617-7.18-2.853-3.819zM69.442 135.019c1.827-1.34 2.846-2.276 3.842-2.312 1.058-.038 1.866.95 2.634 1.995.746 1.017 1.464 1.953 1.111 2.95-.333.94-1.55 1.763-3.379 3.103l-1.578 1.158-4.208-5.736 1.578-1.158zm-12.068-13.262l-3.86 2.832 17.612 24.004 6.22-4.563c3.412-2.504 4.193-3.28 4.69-5.194.601-2.19.107-3.735-.88-5.086l-2.92-3.836c-.886-1.208-2.54-2.131-3.807-2.244-1.584-.141-2.935.415-3.04.435L67.77 114.13l-3.908 2.867 3.698 13.69-2.374 1.743-7.812-10.673zM183.408 57.302c2.74 2.583 2.292 5.165.498 6.349-1.645 1.087-3.699 1.505-5.322-.56-.63-.805-.89-1.961-.644-3.133.204-1.144-.064-1.441 1.485-5.333 1.183-3.117 1.276-4.71 1.276-6.286 0-.373-.098-3.65-1.463-5.073-3.704-3.86-7.424-4.475-12.542-.342-7.75 6.255-.114 12.677.218 13.32l3.142-2.272c-1.586-2.428-4.444-5.674.296-8.308 1.292-.717 3.602-1.46 5.09.434.94 1.199 1.107 2.948-.56 7.314-1.968 5.175-1.883 5.535-2.072 7.359-.173 1.76.342 3.49 1.468 4.926 3.021 3.846 8.386 5.124 13.052 1.035 5.788-5.073 1.961-9.118-.063-12.325l-3.859 2.895z" fill="#fff"/></g></svg>