<svg xmlns="http://www.w3.org/2000/svg" width="212.204" height="250" viewBox="0 0 212.204 250"><path d="M150.553 92.802l-23.5-32.19-7.67 3.598s-2.822-1.594-13.947-3.167l5.525-5.55V42.766h-3.937c2.504-3.346 2.914-8.49 2.914-12.86 0-4.37-.092-14.386 12.746-22.888H72.13c-29.704 10.003-31.294 54.62-28.657 84.8l7.318-2.84s-4.858 10.942-2.56 16.85c-3.392 7.977-2.262 15.58 1.024 21.338l-3.688 5.19.82 23.42s-.464.65-.89 1.23c-.99 1.354-3.455 3.453-12.325 5.087-9.814 1.81-12.05 3.83-13.04 7.956-.996 4.14-9.944 7.174-10.847 7.455 0 0-.933 2.72-.933 5.86 0 12.523 15.736 20.556 34.04 27.622 19.34 7.466 42.987 13.555 51.04 24.235 9.89 4.968 21.24 7.757 33.65 7.757 43.725 0 76.772-36.215 76.772-77.197 0-34.127-22.278-62.633-53.3-72.98z"/><path fill="#E4173E" d="M48.753 81.44s-3.79-55.182 23.07-66.38l3.88 24.816.82-26.13 33.14.045c-3.623 2.3-4.848 5.11-5.553 8.24-1.49 6.614-.296 15.206-3.027 19.85l-25.266-.023L48.753 81.44zm-24.763 95.6l2.32 4.347-2.083 2.186 33.835 15.5c-22.967-14.658-32.89-20.576-32.89-26.63 0-5.703 13.53-3.69 21.076-9.083 2.003 12.04-15.16 12.405-15.16 12.405l28.226 15.57C73.017 204.467 88.86 208.7 88.86 208.7c3.413 3.962 4.096 7.513 4.096 7.513s-16.935-10.448-25.54-11.61c0 0 5.377 2.63 11.678 6.01 10.13 5.435 22.88 13.522 21.237 21.102C86 211.423 15.25 205.07 15.25 184.392c0-5.578 7.693-5.578 8.74-7.353zm101.38 51.396c3.983-12.243 12.672-19.09 23.536-27.063 9.94-7.298 19.098-14.167 19.098-27.77-.41-1.435-11.37-5.84-12.6-6.18 0 0 6.966 5.77 6.966 8.16 0 2.39-15.398 11.37-15.398 11.37s1.533-1.934 3.482-4.27c2.69-3.225 6.043-7.35 6.043-9.39 0-2.833-5.292-3.72-6.942-9.616 0 0-1.436 2.205-2.833 5.26-1.475 3.22-2.914 7.345-2.914 9.33l2.686 18.734-7.442-.864c-.677.552-13.787 12.927-13.682 32.3z"/><path fill="#D69F0F" d="M136.068 190.88l2.73-7.103 1.55 7.74zm-54.901-63.37l43.248-14.932 21.94 12.838.184 2.002s-.826-.717-2.25-1.496c-2.287-1.254-6.08-2.806-10.18-2.806-2.48.01-4.93 1.398-6.714 3.05-2.13 1.972-3.403 4.19-3.403 4.19s-2.766-6.99-15.262-6.99c-11.744 0-27.563 4.144-27.563 4.144zm-12.155-7.01l2.117 6.577 57.2-22.99 22.58 19.735-.527-8.75c-.277.112-.593.19-.93.19-2.413 0-7.01-3.05-7.01-3.05l.863-.727s3.142 1.092 4.416 1.092c.673 0 1.678-.28 2.478-.542l-.52-8.653L124.927 68.8l-5.52 1.987s-12.543-5.053-23.878-5.053c-18.795 0-40.54 18.346-40.54 37.466l12.018.82L99.922 79.3l-33.187 32.777s-2.595-5.736-7.375-5.736c-2.066.053-7 3.43-7 11.336 0 6.874 3.267 10.607 3.267 10.607l-3.8 5.28c1.603 32.223 1.12 47.358-9.993 44.067l16.16 7.876s-.317-20.76-.317-26.586c0-10.668.872-11.785 2.185-11.745 3.566 0 4.53 18.66 4.945 30.644.24 6.94.495 12.307.495 12.307s12.952 14.227 35.987 16.23C81.314 192.27 83.59 175.22 85.08 163.7c.686-5.297 1.416-10.822 2.73-16.89-18.345-.18-18.482-10.378-18.482-13.02s.393-3.994.393-3.994c-.802.558-4.535 3.472-9.292 2.06 8.604-2.798 8.582-11.357 8.582-11.357zm9.946-29.558L65.37 99.99l-7.545-.24c0-1.753.854-16.832 21.44-26.494-1.71 1.145-3.192 2.488-4.71 3.72-3.723 3.026-9.32 8.468-9.32 11.302-.002 3.484 4.54 4.782 13.723 2.664zm62.243 5.896c.172 0 4.61 3.87 4.61 9.458 0 1.502.865 2.777.865 2.777l-.273.592s-1.047-.592-1.41-.592-.866.456-2.05.456-3.505-1.458-6.01-4.28c0 0 .32-.228.73-.228s2.367 1.958 3.688 1.958.956-.73 2.776-.592c0 0-.455-1.366-.455-2.322 0-3.99-2.594-6.26-2.594-6.692 0-.457.125-.536.125-.536zm-8.774.008c.133 0 2.14 2.222 3.312 2.222.668 0 .943-.307 1.64-.307 0 0-.064-.262-.052-.597.066-1.088.38-1.546.41-2.373.036-1.037-1.135-3.967-1.167-4.063-.132-.39.048-1.428.204-1.25.592.71 2.913 4.415 2.913 6.918 0 1.187-.1 1.786-.137 2.8s.54 2.03.54 2.03l-.195.53s-.81-1.126-2.177-1.126c-1.477 0-2.065-.31-2.92-1.094s-2.765-3.338-2.76-3.482c.002-.097.092-.208.388-.208zm-11.78-17.888s-1.603 1.707-1.603 6.453c0 7.295 3.845 11.85 8.16 11.85.648 0 2.9-.445 2.9-.445s-1.16 2.97-4.744 2.97c-4.713 0-9.766-6.418-9.766-11.915 0-6.42 5.053-8.912 5.053-8.912zm-17.64 18.63c0-.878-.057-1.055-.057-1.81s.623-2.405 1-3.163c.488-.98 3.41-4.065 4.166-4.598.2-.13.33.83.153 1.15-.045.078-.557.6-1.042 1.365-.598.943-1.187 2.225-1.187 3.124 0 .717.402 1 .436 1.946 0 .29-.16.563-.16.563.928 0 1.33.706 2.482.706 2.97 0 4.905-1.797 5.463-1.797.16 0 .524.085.524.32 0 .124-1.366 1.177-3.187 2.218-1.565.897-3.475 1.81-5.053 1.81-2.014 0-1.81-.386-2.572-.386-.763 0-1.753.75-1.753.75l-.542-.093c.003 0 1.328-1.222 1.328-2.1zm-9.457 6.977c.132-.302.276-2.165.614-3.46.268-1.027.692-1.45 1.07-2.208.94-1.89 4.595-4.42 5.43-5.008.198-.132.256.33.08.648-.123.22-2.015 1.723-3.074 3.813-.48.95-.65 2.05-.65 3.153 0 .842-.18 1.514-.18 1.514 1.356 0 2.346 1.23 3.254 1.23 2.97 0 6.203-1.816 6.76-1.816.16 0 .824.135.824.368s-6.014 3.917-9.428 3.917c-2.014 0-3.312-.774-4.074-.774s-1.252.48-1.252.48l-.34-.456c-.002 0 .727-.857.965-1.4zm-10.46 3.944c.324-.496 1.105-3.524 2.23-5.07.456-.627 3.105-2.497 3.278-2.62.193-.136.546.217.32.5-.23.286-.946.764-1.515 1.96-.57 1.194-.626 2.548-.865 3.106a4.782 4.782 0 0 1-.614 1.013c2.55 0 1.806 2.49 6.83 2.49.955 0 5.77-.75 5.77-.75l1.5.99s-4.95 2.288-9.56 2.288c-4.164 0-5.53-2.15-7.852-2.117-.307 0-1.64.274-1.64.274l-.204-.24s1.998-1.33 2.322-1.825zm-12.348 5.593s1.155-.305 1.434-1.73c.706-3.607 2.754-3.71 3.88-4.768.246-.21.413.11.274.256-.324.342-.546 1.008-.546 1.247 0 .24.188.973.188 1.332 0 .99-1.11 1.877-1.11 1.877 2.62 0 2.022 1.878 5.873 1.878.922 0 1.23-.137 1.673-.137s1.537.24 2.697 1.417c-2.697.34-3.636 1.246-6.59 1.246-4.88 0-5.018-2.133-7.237-2.133-.222 0-.26.14-.474.14s-.38-.076-.38-.31c0-.236.318-.314.318-.314zM60.226 129.65c-3.665 0-5.372-5.6-5.372-5.6s1.662 2.647 3.884 2.647c1.596 0 5.95-3.635 5.95-9.386 0-3.573-.82-5.098-.82-5.098s3.187 3.873 3.187 7.307c0 6.422-4.614 10.13-6.83 10.13zM57.22 77.797l1.117 5.076C60.5 79.39 73.7 61.317 99.035 61.443l3.63-3.796-18.995-.005-16.195 12.985 14.312-16.792 23.188-.003v-6.695H79.727L57.22 77.797zm100.783 25.333l-.034 24.743c11.163 9.19 18.022 22.677 18.022 37.996 0 21.208-12.873 38.797-32.454 46.387-4.182 6.94-7.744 16.58-4.603 22.902 34.28-7.13 57.952-34.813 57.952-69.274 0-27.5-15.393-50.81-38.884-62.757zm30.02 44.207s.36.938.505 2.357c.163 1.582.37 3.413-.67 5.325-.24.44-.743.85-1.004 1.328-.794 1.46-.562 2.552-.562 2.552s-.43-1.316-1.048-1.755c-.616-.438-.916-.382-2.5-1.71-2.005-1.68-2.81-6.48-2.81-6.48 1.645.116 2.875 3 4.833 2.724 1.6-.227 1.705-3.816 3.255-4.343zm-3.9-9.81s.506.868.878 2.244c.416 1.537.914 3.31.195 5.365-.165.473-.597.958-.777 1.474-.55 1.567-.144 2.607-.144 2.607s-.637-1.23-1.316-1.564c-.68-.333-.966-.23-2.742-1.284-2.25-1.337-3.816-5.948-3.816-5.948 1.644-.148 3.322 2.5 5.21 1.913 1.54-.48 1.067-4.04 2.512-4.81zm-25.543-22.4s9.674 3.505 9.674 6.237c0 1.047-.638 1.593-1.548 1.593-3.096 0-8.126-7.83-8.126-7.83zm6.777 10.556c1.502-.683 3.96 1.264 5.548.085 1.297-.96-.324-4.166.785-5.37 0 0 .766.654 1.57 1.83.9 1.313 1.955 2.823 1.955 5 0 .5-.247 1.1-.247 1.646 0 1.662.726 2.51.726 2.51s-1.008-.95-1.76-1.04c-.75-.093-.986.1-3.012-.31-2.564-.516-5.565-4.35-5.565-4.35zm6.194 6.85c1.6-.41 3.684 1.932 5.45 1.046 1.443-.724.402-4.16 1.703-5.152 0 0 .642.775 1.23 2.073.658 1.45 1.437 3.12 1.06 5.263-.087.493-.434 1.042-.528 1.58-.288 1.637.28 2.597.28 2.597s-.828-1.11-1.552-1.33c-.725-.22-.99-.07-2.915-.824-2.435-.955-4.727-5.252-4.727-5.252zm-21.06 89.648c-.962 2.558-11.25 2.435-11.25 2.435s7.464-5.56 10.36-4.47c.854.32 1.258 1.055.89 2.036zm8.093-4.327c-.192.512-.172 1.16-.35 1.63-.765 2.037-2.284 3.078-3.588 3.99-1.167.818-2.113 1.16-2.113 1.16-.615-1.517 2.03-3.945 1.154-5.302-1.07-1.66-4.058-.704-5.224-1.872 0 0 4.16-2.533 6.74-2.116 2.042.33 2.194.594 2.93.773.735.18 2.013-.356 2.013-.356s-.978.538-1.562 2.093zm9.362-6.866c-.1.537.036 1.172-.054 1.665-.392 2.14-1.702 3.435-2.823 4.564-1.004 1.012-1.875 1.517-1.875 1.517-.874-1.385 1.297-4.243.195-5.423-1.35-1.445-4.117.026-5.472-.916 0 0 3.643-3.23 6.26-3.28 2.065-.036 2.263.196 3.018.242.756.046 1.917-.707 1.917-.707s-.866.703-1.165 2.337zm7.385-6.314c.015 2.177-1.03 3.693-1.92 5.012-.8 1.183-1.56 1.84-1.56 1.84-1.118-1.196.48-4.41-.82-5.363-1.596-1.168-4.04.795-5.548.122 0 0 2.976-3.854 5.536-4.39 2.023-.424 2.26-.23 3.01-.327.752-.097 1.753-1.054 1.753-1.054s-.72.854-.708 2.515c.003.545.255 1.144.258 1.645zm4.86-3.59c-.6 1.292-1.248 2.062-1.248 2.062-1.292-1.005-.22-4.432-1.656-5.167-1.76-.9-3.865 1.422-5.46.995 0 0 2.332-4.275 4.776-5.208 1.93-.736 2.195-.585 2.922-.798.726-.213 1.563-1.316 1.563-1.316s-.576.957-.304 2.596c.09.54.433 1.09.515 1.585.358 2.147-.436 3.81-1.107 5.252zm5.228-9.864c-.34 1.384-.828 2.264-.828 2.264-1.462-.737-1.068-4.306-2.62-4.752-1.9-.546-3.52 2.14-5.165 2.026 0 0 1.465-4.644 3.685-6.03 1.753-1.093 2.042-.995 2.714-1.344.67-.35 1.28-1.592 1.28-1.592s-.382 1.05.202 2.604c.19.512.634.986.81 1.456.763 2.04.303 3.823-.078 5.367zm3.437-9.936c-.12 1.42-.462 2.366-.462 2.366-1.56-.498-1.733-4.084-3.335-4.28-1.963-.24-3.14 2.668-4.782 2.816 0 0 .715-4.817 2.688-6.535 1.56-1.355 1.86-1.304 2.468-1.754.608-.45 1.015-1.774 1.015-1.774s-.212 1.095.61 2.54c.27.475.78.875 1.028 1.31 1.075 1.892.902 3.726.77 5.312zm-2.415-11.642c-2 0-3.62-1.654-3.62-3.696 0-2.04 1.62-3.695 3.62-3.695s3.62 1.655 3.62 3.696c0 2.04-1.62 3.696-3.62 3.696z"/><path fill="#fff" d="M140.655 134.782l3.96 1.775-.58-6.316s-7.38-7.023-13.28-1.98c-1.88 1.605-7.65 8.867-7.65 8.867-2.752-5.588-9-9.11-17.582-9.31-4.1-.096-8.98.603-14.75 1.97-7.128 1.684-12.45 3.777-12.45 3.777s-1.14 1.297-1.14 3.323c0 6.327 10.54 6.373 12.224 6.373 1.684 0 4.302-.114 4.302-.114l-2.596 11.61 9.856 1.376s-7.693 16.172-7.693 29.056c0 .917.548 3.475 1.798 4.734 1.046 1.127 5.442 5.484 9.014 8.672 1.046.935 2.13 1.873 3.038 2.578.692.537 1.286.92 1.673 1.178.816.546 1.608.82 2.23.82 5.382 0 8.946-.8 11.382-1.503 1.21-.35 3.574-1.385 4.16-2.015.676-.726.894-2.555.894-2.856 0-2.186-.592-5.873-8.923-5.873s-11.757 3.096-11.757 3.096l1.844-6.01s.457-.754 2.117-1.332c1.406-.49 3.673-.82 7.307-.82 3.14 0 8.706.65 8.706.65l-.41-5.36-3.346.614-7.716-1.195-16.685.48-.774-.66 20.326-3.78 4.473.99 3.687-.888-1.98-1.913-2.22.956-.41-4.54-12.223-2.015 9.595-3.45 6.076 2.392 4.61-2.22-5.055-19.734 1.947-6.01 13.998-5.394zm-23.343 12.576l-8.08-1.093 4.28-3.392-5.473-1.545s-1.554 2.638-4.337 2.638c-3.705 0-4.806-4.098-4.806-4.098l-19.46-2.526 22.62-3.705 18.44 7.46-3.185 6.26zm18.598 30.102l-1.128-2.63-3.414-3.89 4.473-3.723-2.68-5.65-3.056-9.85 1.844-6.66s1.195 1.913 3.073 1.913c2.835 0 3.723-4.13 3.723-4.13l3.79-.764-1.002 3.55s3.336 6.454 3.336 8.833l-4.04 6.713-4.917 16.288zm-20 43.66l2.86-9.858-9.527-1.33-4.13 3.686z"/></svg>