<svg xmlns="http://www.w3.org/2000/svg" width="227" height="160" version="1"><defs><clipPath id="a"><path d="M0 2000h2000V0H0v2000z"/></clipPath></defs><g clip-path="url(#a)"><path d="M74.865 157.43H46.022c-7.73 0-22.203-1.708-32.292-13.147C3.15 132.29 2.756 116.556 2.626 111.387l-.005-.194-.032-1.26h11.018l-.044-.045c-1.57-1.554-3.397-3.46-5.198-6.432a31.629 31.629 0 0 1-2.252-4.482c-.315-.78-.565-1.54-.83-2.345a81.01 81.01 0 0 0-.35-1.054c-1.78-5.187-2.68-12.29-2.68-21.11v-1.23H13.57c-3.55-4.078-6.203-8.047-8.116-13.622-1.882-5.48-2.784-12.51-2.61-20.323.003-.165.006-.286.006-.355v-1.23h1.23l10.968-.012c-3.316-3.35-5.905-6.947-7.716-10.727C2.61 17.11 2.842 7.14 2.927 3.386l.028-1.2 1.2-.002c1.323 0 132.428-.113 149.816-.113 19.396 0 37.46 7.43 50.868 20.92a70.112 70.112 0 0 1 14.984 22.36 69.129 69.129 0 0 1 5.428 26.923c0 9.537-1.866 18.772-5.545 27.448a69.747 69.747 0 0 1-15.115 22.33 70.109 70.109 0 0 1-22.41 15.006c-8.684 3.644-17.913 5.49-27.43 5.49-8.572 0-16.883-1.487-24.703-4.42-6.254-2.347-12.207-5.618-17.694-9.723-6.833-5.112-11.183-10.18-13.106-12.652L75.22 156.82l-.355.61z" fill="#fff"/><path d="M153.97.84C136.583.84 5.478.952 4.156.953L1.753.955l-.056 2.4c-.088 3.835-.324 14.02 4.526 24.142 1.497 3.125 3.506 6.127 6 8.968l-8.146.01-2.457.002v2.457l-.006.33c-.177 7.956.748 15.13 2.676 20.748 1.656 4.826 3.84 8.475 6.65 11.994H1.02v2.46c0 8.956.925 16.193 2.747 21.508.12.347.235.698.346 1.037.26.79.528 1.607.86 2.424a32.661 32.661 0 0 0 2.338 4.658 31.777 31.777 0 0 0 3.41 4.61H1.327l.064 2.52.005.195c.133 5.28.537 21.35 11.413 33.68 4.556 5.164 10.443 8.928 17.5 11.186 6.136 1.964 11.933 2.376 15.715 2.376H75.57l.713-1.22 23.127-39.53c2.322 2.782 6.385 7.124 12.206 11.48 5.58 4.173 11.636 7.5 18 9.888 7.957 2.986 16.414 4.5 25.134 4.5 9.68 0 19.07-1.88 27.905-5.586a71.862 71.862 0 0 0 12.185-6.564 71.706 71.706 0 0 0 19.379-19.272 71.153 71.153 0 0 0 6.617-12.152c3.744-8.828 5.642-18.225 5.642-27.928a70.39 70.39 0 0 0-5.524-27.4 71.607 71.607 0 0 0-6.532-12.117 72.074 72.074 0 0 0-8.714-10.632 72.01 72.01 0 0 0-10.652-8.83 72.02 72.02 0 0 0-12.344-6.706c-9.03-3.813-18.7-5.747-28.743-5.747m0 2.46c39.92 0 70.05 31.828 70.05 68.972 0 38.352-31.036 69.044-69.27 69.044-36.93 0-55.622-27.798-55.622-27.798l-24.97 42.68H46.024c-7.74 0-21.712-1.78-31.37-12.73C4.234 131.66 3.974 115.99 3.85 111.165h12.71s-.682-.71-2.133-2.147c-1.33-1.317-3.21-3.222-5.012-6.196a30.69 30.69 0 0 1-2.163-4.305c-.434-1.075-.758-2.17-1.158-3.336-1.83-5.34-2.614-12.49-2.614-20.71h12.854c-4.708-5.08-7.642-9.206-9.717-15.252C3.582 50.37 4.08 39.918 4.08 38.934l14.048-.015c-4.402-3.93-7.622-8.177-9.687-12.486C4.075 17.32 4.047 8.23 4.158 3.414c0 0 132.225-.114 149.814-.114"/><path d="M153.31 8.2l-143.054.002c0 11.222 5.64 21.016 9.2 24.575 4.567 4.567 11.416 8.274 21.52 8.274l55.062.037c.377 0 1.3.846 1.3 1.476s-.84 1.59-1.3 1.59H10.86c0 1.39-.142 15.513 8.795 24.45 8.89 8.89 17.918 8.05 22.048 8.877h32.75c.368 0 1.544 1.21 1.544 1.64 0 .615-1.115 1.435-1.545 1.435l-64.514-.03c0 1.857.408 12.712 6.29 21.34 6.21 9.112 16.85 12.023 23.046 12.023l13.115.015c.675 0 1.782 1.06 1.782 1.63 0 .584-1.015 1.537-1.768 1.537l-42.09-.015c0 1.87-.005 12.726 8.91 22.54 9.45 10.4 19.05 11.07 23.494 11.07l28.68.02L127.593 56v.002c5.553-9.18 15.652-15.32 27.192-15.32 17.523 0 31.73 14.157 31.73 31.62 0 17.465-14.207 31.623-31.73 31.623-17.39 0-31.507-13.94-31.724-31.22l-21.258 36.15c6.29 8.63 22.495 27.572 53.674 27.572 34.946 0 63.668-28.64 63.668-64.313 0-32.033-25.3-63.914-65.836-63.914"/><path d="M173.057 72.314c0 10.065-8.186 18.225-18.283 18.225-10.098 0-18.284-8.16-18.284-18.226 0-10.065 8.186-18.225 18.284-18.225 10.097 0 18.283 8.16 18.283 18.224" fill="#f4793e"/></g></svg>