<svg xmlns="http://www.w3.org/2000/svg" version="1" width="204.925" height="192.044"><g fill-rule="evenodd"><path d="M177.768 75.299c-.32.476-.884 1.301-1.41 2.066a68.808 68.808 0 0 1 4.25 1.6c1.468.605 3.752 1.43 6.227 2.282-.032-1.092-.071-2.342-.091-2.97-1.381-.464-7.506-2.48-8.976-2.978z" fill="#fff"/><path d="M204.341 81.208c-1.054 2.462-4.154 4.768-4.856 5.283.009.558-.119 1.242-.369 1.996-.554 1.63-2.999 4.082-7.894 3.257-4.906-.813-6.812-1.627-6.812-1.627s-2.444 5.976-7.884 3.804c0 0-.817 7.346-4.899 9.523-4.078 2.172-32.112 11.955-32.112 11.955s-.279.608-.994 1.24l-6.057 10.537.804 4.537s4.896 5.711 4.896 9.794l-3.536 1.627h-.747c.339 1.053.735 2.304.946 2.94h4.825v4.02h-20.377l-24.14 41.95-26.516-45.017c-2.591 2.215-5.291 3.575-7.337 3.575l-4.936.011H7.916l8.31-14.956h44.757c.327 0 .625-.01.924-.03L0 30.542h31.798l4.05-4.052s3.536-3.544 4.895-7.346c1.363-3.806 2.723-7.339 8.163-10.875 5.442-3.527 8.977-5.432 12.525-7.07 3.535-1.63 8.431-2.177 12.512 2.172 4.082 4.352 6.255 6.258 7.617 7.617 1.36 1.363 4.08 7.618 11.975 4.35 7.885-3.257 19.593-9.512 26.943-9.245 7.338.279 19.583 6.792 23.664 11.421 0 0 3.258-2.872 6.802-2.452 2.989.366 4.36 3.544 7.08 8.977 0 0 6.257 1.627 6.257 5.173 0 0 .149-.039.366-.02.12-.129.23-.25.357-.376 1.372-1.371 2.196-2.196 3.119-2.813.208-.138.437-.227.676-.306-.197-.518-.468-1.529.259-2.086.982-.774 3.314-1.639 5.767.495 2.118 1.85 2.176 2.584 2.176 2.584s1.788 2.134.755 3.852h10.308l-34.398 59.784c.087.377.188.763.278 1.15 0 0 4.35 1.628 5.71 3.258 0 0 3.802 0 5.72-.268 1.896-.267 2.175-.267 2.442-1.362.279-1.093.279-2.173-.267-4.071-.547-1.906-1.363-11.42 1.092-12.512.724-.326 1.678-.408 2.779-.307.01-1.123.03-2.522.03-3.217-1.142-.378-4.576-1.52-4.576-1.52l1.261-3.823 36.79 12.175-.584 1.38z" fill="#fff"/><path d="M123.278 143.135l-1.57 2.721h6.406c.17-.605.496-1.747.774-2.721h-5.61zM193.459 80.493c-.381.526-1.116 1.528-1.749 2.403 1.598.528 3.076 1.014 4.279 1.4-.248-1.281-.515-2.632-.625-3.167a215.07 215.07 0 0 1-1.905-.636z" fill="#fff"/><path d="M130.319 143.135l-1.171 4.1h-11.46l-1.502-4.1h-2.293l-1.3 4.1h-3.823l-2.325-4.1h-1.549c-.645.934-2.325 3.535-2.493 5.592h35.87v-1.283h-4.458l-1.371-4.31h-2.125zM172.79 76.41c.696.13 1.43.31 2.196.527l2.224-3.265 10.885 3.603.128 4.45c.706.238 1.42.477 2.125.716l2.585-3.567 3.633 1.203.923 4.705c.722.24 1.211.397 1.351.437.009 0 .009.011.02.011.845-.616 3.386-2.612 4.22-4.569l-34.072-11.27-.397 1.213 4.23 1.399-.05 4.408zM92.175 92.011a149.704 149.704 0 0 0 9.275 5.464c6.286-6.595 20.01-21.025 30.794-32.343-3.305-4.36-7.288-9.008-12.045-13.894-27.477-28.292-46.456-12.105-49.791-6.802-7.896 12.512-2.177 32.352 21.767 47.575zM109.971 101.734c16.277 7.39 29.383 8.997 33.634 4.152 4.2-4.807 4.429-16.832-6.714-34.13a11646.155 11646.155 0 0 1-26.92 29.978zM25.779 38.995c-2.176 2.451-2.443 9.523-2.443 9.523l17.686-15.235-7.08 13.05s11.975-5.432 13.059-8.155c0 0-2.451-5.976-7.885-11.42 0 0-11.152 9.793-13.337 12.237zM192.801 86.888c-1.31.319-2.235 1.17-2.056 1.897.168.735 1.381 1.062 2.69.755 1.324-.318 2.246-1.171 2.066-1.897-.168-.735-1.39-1.072-2.7-.755zM105.75 140.564c.468.586 1.709.396 2.769-.438 1.065-.824 1.56-1.985 1.095-2.571-.459-.598-1.7-.408-2.771.425-1.063.836-1.56 1.999-1.093 2.584zM50.128 18.814c-.168-1.945 2.047-3.308 3.06-5.004-1.013-1.36-2.801-1.946-4.241-1.183-.257 3.983-1.45 7.636-2.382 11.283 2.035 1.528 1.528-2.373 3.744-2.453 1.27-.44 1.944.755 2.711 1.518.425 1.103.168 2.553-.676 3.487l2.035-.18c.844-1.013 1.103-2.542.684-3.814-.594-2.294-3.316-2.463-4.935-3.654zM154.22 21.289c-.436-1.43-1.16-2.774-1.964-4.203-.538-.358-1.698-.267-1.51.715 1.062 1.072 1.51 3.755 3.474 3.488zM154.134 25.755c-2.059-2.77-3.934-5.63-6.169-8.39-.805 0-1.696.436-1.877 1.331 2.145 2.322 4.658 4.647 6.525 6.962.357.357 1.072.993 1.52.097zM150.468 29.598c.535.35 1.886.35 1.708-.715l-7.338-8.4c-.985-.625-2.145 0-2.682.983 2.77 2.77 5.988 4.916 8.312 8.132zM149.396 30.305l-7.33-6.246c-1.16-1.164-2.86-.983-3.396.805 3.308 2.501 6.961 4.1 10.01 7.139.904.09 1.163-1.062.716-1.698zM158.521 33.7c1.25-1.875 4.38-1.697 3.575-4.468-.18-1.242-1.886-2.145-3.397-1.779-5.54 3.656-9.484 9.286-10.188 15.097.794.892 1.868.982 3.03.982 2.423-3.049 3.664-6.972 6.98-9.832zM146.893 35.4c.625-.09 1.52-1.073.892-1.877-3.575-2.056-6.879-4.817-10.732-6.247-.625.617-.807 1.52-.717 2.412l10.557 5.712zM145.195 38.618c.625-.18 1.34-.985.715-1.521-3.307-1.697-6.536-3.842-10.1-5.094-.447.537-1.084 1.52-.537 1.966 3.575 1.082 6.517 3.218 9.922 4.649zM153.875 43.623c.525 1.241 1.509 1.241 2.761.884 3.574-1.957 6.085-5.802 6.8-9.822-.098-.628-.892-.985-1.43-1.162-3.752 2.502-6.077 6.423-8.13 10.1zM166.218 35.05l4.01 7.052c-.157-2.93-1.43-5.402-3.138-7.676-.207.04-.405.07-.605.078l-.267.547zM169.694 45.222c.087-3.12-2.86-5.621-4.47-8.392l-1.073 2.144 4.29 6.425c.37-.08.983.18 1.253-.177zM142.87 39.77c-2.957-1.333-5.817-2.853-8.945-3.745l-.271.805c2.334 2.581 5.641 3.037 9.216 2.94zM161.829 42.995c1.607 1.87 1.607 5.264 4.11 5.71.625-2.59-1.25-4.996-2.77-6.87-.625 0-1.253.527-1.34 1.16zM158.78 45.677c-.081 2.672 1.886 5.084 3.136 7.398l1.52.28c.358-2.951-1.877-5.006-2.95-7.32l-1.706-.358zM147.07 47.276c.16.586.22 1.352.488 1.897.706-.478 1.63-.687 2.532-.616-.446-1.151-1.174-2.703-2.75-2.354l-.27 1.073zM160.041 57.376l.087-2.78c-.903-2.683-1.787-5.175-4.02-7.32-1.083.09-3.228-.267-3.675.983 1.083 3.574 3.318 8.848 7.608 9.117zM84.071 98.717c-.365-1.878.17-4.113-1.072-5.633-.456-.445-1.25-.177-1.351.46-.625 1.685-.088 3.653.895 5.082.456.448.982.448 1.528.09zM88.62 102.379c-.706-2.958 1.262-7.775-1.956-9.374-1.084 2.047-.18 5.433-.268 8.214 0 1.073 1.329 1.608 2.225 1.16zM80.566 101.307c-1.877-2.413.826-9.296-4.28-7.764-3.306 3.038 1.877 4.994 2.502 8.034.448.177 1.52.444 1.778-.27zM90.14 94.168c-.168 2.762 0 5.253.457 7.767.703.169 1.776.625 2.412-.181-.636-2.593 1.162-7.684-2.869-7.586zM95.154 96.749c-.09 2.325-.448 4.828.805 6.623 1.52-.366.624-2.6.982-3.95-.805-.885.09-3.018-1.787-2.673zM72.533 97.016c-.625.896-1.073 1.878-1.162 2.95-.09 2.683 1.966 4.46 3.307 6.525 1.073-.277 2.323.08 3.127-.981-1.081-3.04-2.334-6.517-5.272-8.494zM85.85 107.655l.098-1.343-.813-1.34c-3.743-.448-6.972 1.6-9.028 4.638-.447.905-.089 1.875.178 2.591 2.95-2.232 5.622-5.184 9.566-4.546zM94.348 107.017c-.266-1.778-2.231-1.507-3.662-1.687-1.26.259-2.682.982-2.415 2.502.44 1.6 1.253 3.028 2.86 3.567 1.61-1.064 3.744-2.227 3.217-4.382zM97.031 108.19c-1.52.349-1.61 2.325-1.61 3.744.18.715.896 1.252 1.61 1.16.983-.714.983-2.134 1.082-3.395-.358-.527-.099-1.687-1.082-1.51zM102.841 112.649c-.27-.795-.628-2.504-2.057-2.235-2.055 1.966.09 5.542-1.34 7.686.624.892.18 2.502 1.618 2.672 2.86-1.33 1.241-5.44 1.78-8.123zM86.396 110.86c-1.53-.446-3.138-.715-4.289.181.892 5.091 5.807 18.669 7.775 18.759 1.25-4.023.625-7.24.982-11.7-.892-2.86-1.795-5.63-4.468-7.24zM104.449 111.485l-.26 2.502 1.69.272.447-1.423c-.616-.545-.973-1.617-1.877-1.351zM79.502 112.47c-.813.892-1.516 1.966-1.874 2.949a24.227 24.227 0 0 0 1.757 7.44c1.112 2.69 2.722 5.142 4.835 7.168.269.257.547.515.825.755.625-.267 1.619-.267 1.162-1.072-2.414-3.12-5.809-15.274-6.705-17.24zM93.367 115.419c0 4.2.537 8.76-1.164 12.322-.255.806-.625 2.951.985 2.684l.08-.715c2.522-2.055 3.496-5.623 3.763-9.108-.625-2.235.268-7.953-3.664-5.183zM68.86 134.664c-1.631 1.48-3.567 2.82-7.877 2.82l-5.103 11.283h5.402c2.086 0 5.798-2.216 8.917-5.928 3.116-3.715 11.34-12.682 11.34-12.682l-3.346-4.768s-7.695 7.797-9.333 9.275zM11.031 148.775h7.28l6.278-11.29h-7.28l-6.278 11.29zM148.433 50.811c-1.033 1.034-50.348 52.77-50.348 52.77-.29.378-.35.765-.26 1.143.26 1.13 1.887 2.153 3.198 2.463.655.15 1.23.12 1.508-.16 1.045-1.03 45.902-50.785 48.235-53.634 2.333-2.84-1.292-3.614-2.333-2.582zM171.221 29.857c2.068-2.074-1.3-2.848-2.073-2.333-.778.515-1.56 1.292-2.852 2.593-3.226 3.225.904 3.743 4.925-.26z" fill="#fff"/><path d="M145.234 43.89l-1.091-2.444s-4.9 1.36-12.245-2.722c-1.202-.675.278-3.81.278-3.81s-.458-.637-1.213-1.292h-5.957c-2.84 2.82 1.23 4.895 2.543 6.464.722.865 6.234 7.06 12.262 17.11 3.02-3.167 5.334-5.602 6.505-6.823l-1.082-6.483zM129.148 120.296l.535 5.54 4.43-7.707c-.188 0-.38 0-.577-.01l-4.388 2.177zM118.451 145.341l1.272-2.206h-2.067c.28.756.578 1.59.795 2.206zM77.357 123.581l.101-.099c-2.125-4.616-2.155-8.897-2.155-8.897s-1.897-4.616-1.08-5.709c0 0-6.27-5.165-4.36-11.42l-1.91-2.99c-1.627-2.99-18.778-28.282-12.78-39.693 0 0 4.081-4.628 1.083-10.616-2.99-5.979-5.987-3.802-8.163-2.71-2.176 1.08-19.592 11.42-19.592 11.42l4.628-10.607s-8.709 8.422-11.164 11.42c0 0-1.894-11.42 3.28-16.594 1.159-1.16 2.342-2.341 3.473-3.464H5.402l59.702 101.36c1.073-.436 1.827-1.033 2.523-1.67 1.578-1.43 9.652-9.65 9.73-9.73zM169.235 33.622a10.69 10.69 0 0 1-.675.325c1.421 1.473 3.685 4.609 2.521 8.86 0 0 0 2.989-1.627 2.989 0 0 .267 6.792-3.813 5.979 0 0 .545 9.244-10.337 5.709 0 0-2.265-.15-4.529-1.301-1.489 1.677-3.981 4.49-7.08 7.955 3.306 6.356 6.484 13.754 8.848 21.957l30.198-52.473h-13.506zM109.571 145.856h2.02c.177-.585.545-1.717.86-2.721h-4.427a221.75 221.75 0 0 0 1.547 2.721z" fill="#d0bd7f"/><path d="M120.199 110.782c-.268-.813-11.966-3.803-13.338-4.627 0 0-2.54.446-.535 2.451 2.174 2.176 1.907 5.444.268 9.783l-1.906.545s-3.803 7.07-6.246 5.987c0 0-3.277 7.071-7.358 7.34-2.722.179-5.088.726-7.817-1.2-1.867 2.034-9.006 9.79-11.669 12.949a16.91 16.91 0 0 1-.695.804l24.2 41.102 20.617-35.821h-14.815l.129-1.489c.157-2.004 1.439-4.277 2.291-5.59 0-.962.251-7.487 6.804-7.487 0 0 6.801-.28 7.626-1.093.816-.814.27-6.255.27-6.255h2.174s0-4.619-.814-7.339c-.814-2.722-1.63-5.978-1.36-7.07.268-1.085 2.453-2.177 2.174-2.99z" fill="#d0bd7f"/><path d="M168.135 67.654l-1.261 3.823s3.434 1.142 4.576 1.52c0 .695-.02 2.094-.03 3.217-1.101-.101-2.055-.02-2.779.307-2.455 1.092-1.638 10.606-1.092 12.512.546 1.898.546 2.978.267 4.07-.267 1.096-.546 1.096-2.442 1.363-1.918.268-5.72.268-5.72.268-1.36-1.63-5.71-3.257-5.71-3.257-.09-.388-.192-.774-.278-1.151l34.398-59.784h-10.308c1.033-1.718-.755-3.852-.755-3.852s-.059-.734-2.176-2.584c-2.453-2.134-4.785-1.27-5.768-.495-.726.557-.455 1.568-.258 2.086-.239.08-.468.168-.677.306-.922.617-1.746 1.442-3.118 2.813-.127.127-.237.247-.357.377-.217-.02-.366.02-.366.02 0-3.547-6.257-5.174-6.257-5.174-2.72-5.433-4.092-8.61-7.08-8.977-3.544-.42-6.802 2.452-6.802 2.452-4.08-4.629-16.326-11.142-23.664-11.42-7.35-.268-19.058 5.987-26.943 9.244-7.895 3.268-10.615-2.987-11.975-4.35-1.362-1.36-3.535-3.265-7.617-7.617-4.08-4.35-8.977-3.802-12.512-2.173-3.548 1.639-7.083 3.544-12.525 7.07-5.44 3.537-6.8 7.07-8.163 10.876-1.36 3.802-4.895 7.346-4.895 7.346l-4.05 4.052H0l61.907 105.085c-.3.02-.597.03-.924.03H16.226l-8.31 14.956h48.43l4.936-.011c2.046 0 4.746-1.36 7.337-3.575l26.515 45.017 24.141-41.95h20.377v-4.02h-4.825c-.21-.636-.607-1.887-.946-2.94h.746l3.537-1.627c0-4.083-4.897-9.794-4.897-9.794l-.803-4.537 6.057-10.537c.715-.632.994-1.24.994-1.24s28.034-9.783 32.112-11.955c4.082-2.177 4.9-9.523 4.9-9.523 5.44 2.172 7.883-3.804 7.883-3.804s1.906.814 6.812 1.627c4.895.825 7.34-1.627 7.894-3.257.25-.754.378-1.438.369-1.996.702-.515 3.802-2.82 4.856-5.283l.584-1.38-36.79-12.174zm-1.839-37.537c1.292-1.301 2.074-2.078 2.852-2.593.773-.515 4.14.259 2.073 2.333-4.021 4.003-8.151 3.485-4.925.26zm.794 4.309c1.709 2.274 2.981 4.746 3.139 7.676l-4.012-7.051.268-.547c.2-.007.397-.039.605-.078zm-1.866 2.404c1.61 2.77 4.557 5.272 4.47 8.392-.27.358-.884.098-1.253.177l-4.29-6.425 1.073-2.144zm-6.444 8.847l1.706.358c1.073 2.314 3.308 4.369 2.95 7.32l-1.52-.28c-1.25-2.314-3.217-4.726-3.136-7.398zm1.348 8.919l-.087 2.78c-4.29-.27-6.525-5.543-7.608-9.117.447-1.25 2.592-.892 3.676-.983 2.232 2.145 3.116 4.637 4.019 7.32zm1.7-11.6c.088-.634.716-1.16 1.34-1.16 1.52 1.873 3.396 4.278 2.77 6.87-2.502-.447-2.502-3.842-4.11-5.71zm1.608-8.311c-.715 4.02-3.226 7.865-6.8 9.822-1.252.357-2.236.357-2.761-.884 2.054-3.677 4.379-7.598 8.131-10.1.538.177 1.331.534 1.43 1.162zm-4.737-7.232c1.511-.366 3.217.537 3.397 1.779.805 2.77-2.325 2.593-3.575 4.468-3.316 2.86-4.557 6.783-6.981 9.832-1.161 0-2.235-.09-3.029-.982.704-5.81 4.648-11.44 10.188-15.097zm-56.168 79.573c-.278.28-.853.31-1.508.161-1.311-.31-2.938-1.332-3.198-2.463-.09-.378-.03-.765.26-1.143 0 0 49.315-51.736 50.347-52.77 1.042-1.032 4.667-.258 2.334 2.582-2.334 2.85-47.19 52.603-48.235 53.633zm3.795 5.81l-.447 1.423-1.69-.272.26-2.502c.904-.266 1.261.806 1.877 1.351zm-5.264 7.936c-1.438-.17-.994-1.78-1.619-2.672 1.431-2.144-.714-5.72 1.34-7.686 1.43-.27 1.788 1.44 2.058 2.235-.538 2.682 1.082 6.792-1.779 8.123zM77.805 105.51c-.804 1.061-2.054.704-3.127.981-1.34-2.065-3.398-3.842-3.307-6.524.089-1.073.537-2.055 1.162-2.95 2.938 1.976 4.19 5.453 5.272 8.493zm-1.52-11.967c5.107-1.532 2.404 5.35 4.281 7.764-.258.714-1.33.447-1.778.27-.625-3.04-5.808-4.996-2.503-8.034zm-.178 16.067c2.056-3.039 5.285-5.086 9.028-4.639l.813 1.341-.097 1.343c-3.944-.638-6.615 2.314-9.566 4.546-.267-.716-.625-1.686-.178-2.591zm5.541-16.067c.101-.636.895-.904 1.351-.459 1.242 1.52.707 3.755 1.072 5.633-.546.357-1.072.357-1.528-.09-.983-1.43-1.52-3.398-.895-5.084zm-2.146 18.927c.896 1.966 4.29 14.12 6.705 17.24.457.804-.537.804-1.162 1.072a22.46 22.46 0 0 1-.825-.755c-2.113-2.026-3.723-4.479-4.835-7.168a24.227 24.227 0 0 1-1.757-7.44c.358-.983 1.061-2.057 1.874-2.95zm2.605-1.429c1.151-.896 2.759-.627 4.29-.181 2.672 1.61 3.575 4.38 4.467 7.24-.357 4.46.268 7.677-.982 11.7-1.968-.09-6.883-13.668-7.775-18.759zm6.514-8.662c-.896.448-2.225-.087-2.225-1.16.088-2.78-.816-6.167.268-8.214 3.218 1.6 1.25 6.416 1.957 9.374zm-.35 5.453c-.267-1.52 1.154-2.243 2.415-2.502 1.43.18 3.396-.091 3.662 1.687.527 2.155-1.606 3.318-3.216 4.382-1.608-.54-2.421-1.968-2.86-3.567zm4.738-6.078c-.636.806-1.709.35-2.412.18-.457-2.513-.625-5.004-.457-7.766 4.031-.098 2.233 4.993 2.87 7.586zm-.806 25.987c1.7-3.563 1.164-8.121 1.164-12.322 3.932-2.77 3.04 2.948 3.664 5.183-.267 3.485-1.241 7.052-3.763 9.107l-.08.715c-1.61.268-1.24-1.877-.985-2.683zm3.756-24.369c-1.253-1.795-.896-4.298-.805-6.623 1.877-.345.982 1.788 1.787 2.672-.358 1.35.538 3.585-.982 3.951zm-.538 8.562c0-1.42.09-3.395 1.61-3.744.983-.178.724.982 1.082 1.509-.099 1.26-.099 2.68-1.082 3.396-.714.091-1.43-.446-1.61-1.161zm51.649-64.658l.27-1.073c1.576-.349 2.304 1.203 2.75 2.354-.903-.07-1.826.138-2.533.616-.267-.545-.327-1.31-.487-1.897zm5.186-30.19c.804 1.43 1.528 2.772 1.964 4.203-1.964.267-2.413-2.416-3.474-3.488-.189-.982.971-1.073 1.51-.715zm-4.291.278c2.235 2.761 4.11 5.622 6.169 8.391-.449.896-1.164.26-1.522-.097-1.866-2.315-4.38-4.64-6.525-6.962.182-.895 1.073-1.332 1.878-1.332zm-3.128 3.12l7.34 8.399c.177 1.064-1.175 1.064-1.71.715-2.323-3.216-5.542-5.362-8.31-8.132.535-.983 1.695-1.608 2.68-.983zm-2.772 3.575l7.331 6.246c.446.636.188 1.787-.716 1.698-3.049-3.038-6.703-4.638-10.01-7.139.535-1.788 2.236-1.969 3.395-.805zm-5.013 3.217c3.854 1.43 7.158 4.191 10.733 6.247.627.804-.268 1.787-.893 1.877l-10.556-5.712c-.09-.892.091-1.795.716-2.412zm-1.242 4.727c3.564 1.252 6.792 3.397 10.1 5.094.625.536-.09 1.34-.715 1.52-3.405-1.43-6.348-3.566-9.923-4.648-.546-.446.09-1.43.538-1.966zm-1.885 4.022c3.127.892 5.987 2.412 8.945 3.744-3.575.098-6.883-.358-9.216-2.94l.271-.804zm-8.919-2.403h5.956a8.535 8.535 0 0 1 1.214 1.291s-1.48 3.136-.279 3.811c7.347 4.082 12.245 2.722 12.245 2.722l1.092 2.444 1.082 6.483c-1.171 1.22-3.485 3.656-6.505 6.823-6.029-10.05-11.54-16.245-12.262-17.11-1.313-1.57-5.384-3.645-2.543-6.464zM70.408 44.436c3.335-5.303 22.314-21.49 49.79 6.802 4.758 4.886 8.74 9.533 12.046 13.894C121.46 76.45 107.736 90.88 101.45 97.475a149.704 149.704 0 0 1-9.275-5.464C68.231 76.788 62.512 56.948 70.408 44.436zm-21.461-31.81c1.44-.762 3.228-.176 4.241 1.184-1.013 1.696-3.228 3.059-3.06 5.004 1.619 1.19 4.341 1.36 4.935 3.654.42 1.272.16 2.801-.684 3.815l-2.035.18c.844-.935 1.1-2.385.676-3.488-.767-.763-1.442-1.957-2.711-1.518-2.216.08-1.71 3.98-3.744 2.453.931-3.647 2.125-7.3 2.382-11.283zm-9.83 14.132C44.55 32.202 47 38.178 47 38.178c-1.084 2.723-13.058 8.155-13.058 8.155l7.079-13.05-17.686 15.235s.267-7.072 2.443-9.523c2.185-2.444 13.337-12.237 13.337-12.237zM5.401 33.622h23.316a1320.73 1320.73 0 0 0-3.474 3.464c-5.173 5.174-3.279 16.594-3.279 16.594C24.42 50.682 33.13 42.26 33.13 42.26L28.5 52.867s17.416-10.34 19.592-11.42c2.176-1.092 5.174-3.269 8.163 2.71 2.998 5.988-1.083 10.616-1.083 10.616-5.998 11.41 11.153 36.704 12.78 39.693l1.91 2.99c-1.91 6.255 4.36 11.42 4.36 11.42-.817 1.093 1.08 5.709 1.08 5.709s.03 4.281 2.155 8.897l-.1.1c-.079.08-8.153 8.3-9.731 9.73-.696.636-1.45 1.234-2.523 1.669L5.402 33.62zM18.31 148.774h-7.28l6.277-11.29h7.28l-6.277 11.29zm42.97-.007h-5.4l5.102-11.283c4.31 0 6.246-1.34 7.877-2.82 1.638-1.478 9.333-9.276 9.333-9.276l3.345 4.769s-8.223 8.966-11.339 12.681c-3.119 3.713-6.831 5.929-8.917 5.929zm33.823 37.149l-24.2-41.103c.239-.259.467-.525.694-.804 2.663-3.158 9.802-10.915 11.669-12.948 2.73 1.926 5.095 1.378 7.817 1.2 4.08-.27 7.358-7.34 7.358-7.34 2.443 1.083 6.246-5.987 6.246-5.987l1.906-.545c1.639-4.34 1.906-7.607-.268-9.783-2.006-2.005.535-2.451.535-2.451 1.372.824 13.07 3.814 13.338 4.627.279.813-1.906 1.905-2.174 2.99-.27 1.092.546 4.348 1.36 7.07.814 2.72.814 7.339.814 7.339h-2.174s.546 5.44-.27 6.255c-.825.813-7.626 1.092-7.626 1.092-6.553 0-6.804 6.525-6.804 7.488-.852 1.312-2.134 3.586-2.291 5.59l-.13 1.488h14.816l-20.616 35.822zm24.619-42.782l-1.272 2.207a161.29 161.29 0 0 0-.795-2.207h2.067zm-7.272 0c-.315 1.004-.683 2.137-.86 2.722h-2.02a221.75 221.75 0 0 1-1.547-2.722h4.427zm-6.7-2.57c-.468-.586.03-1.748 1.092-2.585 1.07-.832 2.312-1.022 2.77-.425.466.587-.03 1.748-1.094 2.572-1.06.833-2.301 1.023-2.769.437zm28.064 6.88h4.459v1.283h-35.871c.168-2.058 1.848-4.659 2.493-5.593h1.55l2.324 4.1h3.823l1.3-4.1h2.293l1.502 4.1h11.46l1.17-4.1h2.126l1.371 4.31zm-12.107-1.588l1.57-2.722h5.61c-.278.974-.604 2.117-.774 2.722h-6.406zm7.974-20.02l-.535-5.54 4.39-2.176c.195.009.388.009.575.009l-4.43 7.707zm13.923-19.95c-4.251 4.845-17.358 3.239-33.634-4.152 6.275-6.95 17.578-19.544 26.92-29.979 11.143 17.299 10.914 29.324 6.714 34.131zm.09-41.748c3.099-3.466 5.591-6.278 7.08-7.955 2.264 1.15 4.529 1.3 4.529 1.3 10.882 3.536 10.337-5.708 10.337-5.708 4.08.813 3.813-5.98 3.813-5.98 1.627 0 1.627-2.989 1.627-2.989 1.164-4.25-1.1-7.386-2.521-8.859.23-.098.447-.208.675-.325h13.506l-30.199 52.473c-2.363-8.203-5.54-15.6-8.847-21.957zm36.912 14.827a68.808 68.808 0 0 0-4.25-1.6c.527-.765 1.092-1.59 1.41-2.066 1.47.498 7.595 2.514 8.977 2.978.02.628.059 1.878.091 2.97-2.475-.853-4.759-1.677-6.228-2.282zm12.828 10.575c-1.309.307-2.523-.02-2.69-.755-.179-.726.745-1.578 2.056-1.897 1.31-.317 2.531.02 2.7.755.18.726-.742 1.58-2.066 1.897zm-1.725-6.644c.632-.875 1.367-1.877 1.749-2.403.733.248 1.268.427 1.905.636.11.535.377 1.886.625 3.166a560.803 560.803 0 0 1-4.279-1.399zm7.15 2.334c-.011 0-.011-.01-.02-.01-.14-.04-.629-.198-1.351-.438l-.923-4.705-3.634-1.203-2.585 3.567c-.703-.24-1.418-.478-2.125-.715l-.127-4.45-10.885-3.604-2.224 3.265c-.766-.216-1.5-.397-2.196-.526l.05-4.408-4.229-1.4.396-1.212 34.073 11.27c-.834 1.957-3.375 3.953-4.22 4.57zM116.494 175.211a5.348 5.348 0 0 0-5.351 5.354 5.355 5.355 0 0 0 5.35 5.351 5.356 5.356 0 0 0 5.355-5.351 5.348 5.348 0 0 0-5.354-5.354zm0 9.553a4.206 4.206 0 0 1-4.211-4.2 4.211 4.211 0 0 1 8.423 0 4.203 4.203 0 0 1-4.212 4.2z" fill="#161413"/><path d="M118.69 179.324a1.818 1.818 0 0 0-1.819-1.82h-2.58v6.117h1.15v-2.491h.825l1.163 2.491h1.261l-1.202-2.592a1.818 1.818 0 0 0 1.202-1.705zm-1.819.663h-1.43v-1.34h1.43a.67.67 0 1 1 0 1.34z" fill="#161413"/></g></svg>