<?xml version="1.0" encoding="UTF-8" standalone="no"?>
<!-- Created with Inkscape (http://www.inkscape.org/) -->
<svg
   xmlns:svg="http://www.w3.org/2000/svg"
   xmlns="http://www.w3.org/2000/svg"
   version="1.0"
   width="204.925"
   height="192.04443"
   id="svg2610">
  <defs
     id="defs2612" />
  <g
     transform="translate(-263.25179,-233.48282)"
     id="layer1">
    <g
       transform="matrix(1.25,0,0,1.25,439.60941,308.78163)"
       id="g8"
       style="fill:#ffffff;fill-rule:evenodd;stroke:none;stroke-width:1;stroke-linecap:butt;stroke-linejoin:miter;stroke-dasharray:none">
      <path
         d="M 1.128,0 C 0.873,0.3808 0.421,1.041 0,1.6533 C 1.112,2.0273 2.263,2.4638 3.4,2.9326 C 4.575,3.417 6.402,4.0762 8.382,4.7588 C 8.356,3.8847 8.325,2.8847 8.309,2.3828 C 7.204,2.0117 2.304,0.3984 1.128,0 z"
         id="path10" />
    </g>
    <g
       transform="matrix(1.25,0,0,1.25,263.25179,232.50475)"
       id="g16"
       style="fill:#ffffff;fill-rule:evenodd;stroke:none;stroke-width:1;stroke-linecap:butt;stroke-linejoin:miter;stroke-dasharray:none">
      <path
         d="M 163.473,65.749 C 162.63,67.7187 160.15,69.5635 159.588,69.9756 C 159.595,70.4219 159.493,70.9687 159.293,71.5723 C 158.85,72.876 156.894,74.8379 152.978,74.1777 C 149.053,73.5273 147.528,72.876 147.528,72.876 C 147.528,72.876 145.573,77.6572 141.221,75.9189 C 141.221,75.9189 140.567,81.7959 137.302,83.5373 C 134.039,85.2753 111.612,93.1013 111.612,93.1013 C 111.612,93.1013 111.389,93.5883 110.817,94.0933 C 110.817,94.0933 105.971,102.523 105.971,102.523 C 105.971,102.523 106.614,106.153 106.614,106.153 C 106.614,106.153 110.531,110.722 110.531,113.988 C 110.531,113.988 107.702,115.29 107.702,115.29 C 107.702,115.29 107.105,115.29 107.105,115.29 C 107.376,116.132 107.693,117.133 107.862,117.642 C 108.821,117.642 111.722,117.642 111.722,117.642 C 111.722,117.642 111.722,120.858 111.722,120.858 C 111.722,120.858 95.4201,120.858 95.4201,120.858 C 95.4201,120.858 76.1075,154.418 76.1075,154.418 C 76.1075,154.418 54.8955,118.404 54.8955,118.404 C 52.8223,120.176 50.6621,121.264 49.0254,121.264 C 49.0254,121.264 45.0772,121.273 45.0772,121.273 C 45.0772,121.273 6.3321,121.273 6.3321,121.273 C 6.3321,121.273 12.9805,109.308 12.9805,109.308 C 12.9805,109.308 48.7862,109.308 48.7862,109.308 C 49.0479,109.308 49.2862,109.3 49.5254,109.284 C 49.5254,109.284 0,25.2158 0,25.2158 C 0,25.2158 25.4385,25.2158 25.4385,25.2158 C 27.336,23.3174 28.6787,21.9746 28.6787,21.9746 C 28.6787,21.9746 31.5069,19.1396 32.5948,16.0977 C 33.6846,13.0527 34.7725,10.2266 39.125,7.3975 C 43.4785,4.5762 46.3067,3.0518 49.1446,1.7412 C 51.9727,0.4375 55.8897,0 59.1543,3.4795 C 62.42,6.9609 64.1582,8.4853 65.2481,9.5732 C 66.336,10.6631 68.5117,15.667 74.8282,13.0527 C 81.1358,10.4473 90.5021,5.4434 96.3821,5.6572 C 102.253,5.8799 112.049,11.0908 115.314,14.7939 C 115.314,14.7939 117.92,12.4961 120.755,12.832 C 123.146,13.125 124.243,15.667 126.419,20.0137 C 126.419,20.0137 131.425,21.3154 131.425,24.1523 C 131.425,24.1523 131.544,24.1211 131.718,24.1367 C 131.814,24.0332 131.902,23.9365 132.003,23.835 C 133.101,22.7383 133.76,22.0781 134.498,21.585 C 134.665,21.4746 134.848,21.4033 135.039,21.3398 C 134.882,20.9258 134.665,20.1172 135.246,19.6709 C 136.032,19.0518 137.898,18.3603 139.86,20.0674 C 141.554,21.5469 141.601,22.1348 141.601,22.1348 C 141.601,22.1348 143.031,23.8418 142.205,25.2158 C 142.205,25.2158 150.451,25.2158 150.451,25.2158 C 150.451,25.2158 122.933,73.043 122.933,73.043 C 123.002,73.3447 123.083,73.6533 123.155,73.9639 C 123.155,73.9639 126.635,75.2656 127.723,76.5693 C 127.723,76.5693 130.765,76.5693 132.299,76.3555 C 133.816,76.1416 134.039,76.1416 134.253,75.2656 C 134.476,74.3916 134.476,73.5273 134.039,72.0088 C 133.602,70.4844 132.949,62.873 134.913,61.999 C 135.492,61.7383 136.255,61.6728 137.136,61.7539 C 137.144,60.8555 137.16,59.7363 137.16,59.1797 C 136.246,58.8779 133.499,57.9639 133.499,57.9639 C 133.499,57.9639 134.508,54.9053 134.508,54.9053 C 134.508,54.9053 163.94,64.6455 163.94,64.6455 C 163.94,64.6455 163.473,65.749 163.473,65.749 z"
         id="path18" />
    </g>
    <g
       transform="matrix(1.25,0,0,1.25,384.95941,376.61763)"
       id="g20"
       style="fill:#ffffff;fill-rule:evenodd;stroke:none;stroke-width:1;stroke-linecap:butt;stroke-linejoin:miter;stroke-dasharray:none">
      <path
         d="M 1.256,0 C 1.256,0 0,2.177 0,2.177 C 1.932,2.177 4.321,2.177 5.125,2.177 C 5.261,1.693 5.522,0.779 5.744,0 C 5.744,0 1.256,0 1.256,0 z"
         id="path22" />
    </g>
    <g
       transform="matrix(1.25,0,0,1.25,454.96191,313.97575)"
       id="g24"
       style="fill:#ffffff;fill-rule:evenodd;stroke:none;stroke-width:1;stroke-linecap:butt;stroke-linejoin:miter;stroke-dasharray:none">
      <path
         d="M 1.399,0 C 1.094,0.4209 0.506,1.2226 0,1.9228 C 1.278,2.3447 2.461,2.7334 3.423,3.0419 C 3.225,2.0175 3.011,0.9365 2.923,0.5087 C 2.414,0.3418 1.986,0.1982 1.399,0 z"
         id="path26" />
    </g>
    <g
       transform="matrix(1.25,0,0,1.25,365.65441,376.61763)"
       id="g28"
       style="fill:#ffffff;fill-rule:evenodd;stroke:none;stroke-width:1;stroke-linecap:butt;stroke-linejoin:miter;stroke-dasharray:none">
      <path
         d="M 22.333,0 C 22.333,0 21.396,3.28 21.396,3.28 C 21.396,3.28 12.228,3.28 12.228,3.28 C 12.228,3.28 11.027,0 11.027,0 C 11.027,0 9.192,0 9.192,0 C 9.192,0 8.152,3.28 8.152,3.28 C 8.152,3.28 5.094,3.28 5.094,3.28 C 5.094,3.28 3.234,0 3.234,0 C 3.234,0 1.995,0 1.995,0 C 1.479,0.747 0.135,2.828 0,4.474 C 0,4.474 28.697,4.474 28.697,4.474 C 28.697,4.474 28.697,3.447 28.697,3.447 C 28.697,3.447 25.13,3.447 25.13,3.447 C 25.13,3.447 24.033,0 24.033,0 C 24.033,0 22.333,0 22.333,0 z"
         id="path30" />
    </g>
    <g
       transform="matrix(1.25,0,0,1.25,431.86316,302.87338)"
       id="g32"
       style="fill:#ffffff;fill-rule:evenodd;stroke:none;stroke-width:1;stroke-linecap:butt;stroke-linejoin:miter;stroke-dasharray:none">
      <path
         d="M 3.343,5.6162 C 3.9,5.7197 4.487,5.8643 5.1,6.0371 C 5.1,6.0371 6.879,3.4248 6.879,3.4248 C 6.879,3.4248 15.587,6.3076 15.587,6.3076 C 15.587,6.3076 15.689,9.8682 15.689,9.8682 C 16.254,10.0576 16.826,10.249 17.389,10.4404 C 17.389,10.4404 19.457,7.5869 19.457,7.5869 C 19.457,7.5869 22.364,8.5488 22.364,8.5488 C 22.364,8.5488 23.102,12.3135 23.102,12.3135 C 23.68,12.5049 24.071,12.6309 24.183,12.6631 C 24.19,12.6631 24.19,12.6719 24.199,12.6719 C 24.875,12.1787 26.908,10.582 27.575,9.0166 C 27.575,9.0166 0.317,0 0.317,0 C 0.317,0 0,0.9707 0,0.9707 C 0,0.9707 3.383,2.0899 3.383,2.0899 C 3.383,2.0899 3.343,5.6162 3.343,5.6162 z"
         id="path34" />
    </g>
    <g
       transform="matrix(1.25,0,0,1.25,325.76404,256.42925)"
       id="g36"
       style="fill:#ffffff;fill-rule:evenodd;stroke:none;stroke-width:1;stroke-linecap:butt;stroke-linejoin:miter;stroke-dasharray:none">
      <path
         d="M 23.7305,55.252 C 26.2412,56.8487 28.7187,58.3125 31.1504,59.6231 C 36.1793,54.3467 47.1583,42.8028 55.7853,33.7481 C 53.1413,30.2598 49.9553,26.542 46.1493,22.6329 C 24.168,0 8.9844,12.9493 6.3164,17.1915 C 0,27.2012 4.5752,43.0733 23.7305,55.252 z"
         id="path38" />
    </g>
    <g
       transform="matrix(1.25,0,0,1.25,373.22316,305.23788)"
       id="g40"
       style="fill:#ffffff;fill-rule:evenodd;stroke:none;stroke-width:1;stroke-linecap:butt;stroke-linejoin:miter;stroke-dasharray:none">
      <path
         d="M 0,23.9834 C 13.021,29.8958 23.506,31.1808 26.907,27.3048 C 30.267,23.459 30.45,13.8389 21.536,0 C 14.062,8.3477 5.02,18.4238 0,23.9834 z"
         id="path42" />
    </g>
    <g
       transform="matrix(1.25,0,0,1.25,286.58804,260.24038)"
       id="g44"
       style="fill:#ffffff;fill-rule:evenodd;stroke:none;stroke-width:1;stroke-linecap:butt;stroke-linejoin:miter;stroke-dasharray:none">
      <path
         d="M 1.9541,9.79 C 0.2138,11.7509 0,17.4082 0,17.4082 C 0,17.4082 14.1484,5.2207 14.1484,5.2207 C 14.1484,5.2207 8.4853,15.6601 8.4853,15.6601 C 8.4853,15.6601 18.0644,11.3144 18.9316,9.1367 C 18.9316,9.1367 16.9707,4.3554 12.624,0 C 12.624,0 3.7021,7.8349 1.9541,9.79 z"
         id="path46" />
    </g>
    <g
       transform="matrix(1.25,0,0,1.25,453.81816,320.05363)"
       id="g48"
       style="fill:#ffffff;fill-rule:evenodd;stroke:none;stroke-width:1;stroke-linecap:butt;stroke-linejoin:miter;stroke-dasharray:none">
      <path
         d="M 1.788,0.2539 C 0.739,0.5087 0,1.1904 0.143,1.7714 C 0.277,2.3593 1.248,2.6211 2.295,2.375 C 3.354,2.1211 4.092,1.4384 3.948,0.8574 C 3.813,0.2695 2.836,0 1.788,0.2539 z"
         id="path50" />
    </g>
    <g
       transform="matrix(1.25,0,0,1.25,368.53441,370.44013)"
       id="g52"
       style="fill:#ffffff;fill-rule:evenodd;stroke:none;stroke-width:1;stroke-linecap:butt;stroke-linejoin:miter;stroke-dasharray:none">
      <path
         d="M 0.374,2.885 C 0.748,3.354 1.741,3.202 2.589,2.535 C 3.441,1.876 3.837,0.947 3.465,0.478 C 3.098,0 2.105,0.152 1.248,0.818 C 0.398,1.487 0,2.417 0.374,2.885 z"
         id="path54" />
    </g>
    <g
       transform="matrix(1.25,0,0,1.25,309.81679,245.3465)"
       id="g56"
       style="fill:#ffffff;fill-rule:evenodd;stroke:none;stroke-width:1;stroke-linecap:butt;stroke-linejoin:miter;stroke-dasharray:none">
      <path
         d="M 2.8506,5.5606 C 2.7158,4.0039 4.4883,2.9141 5.2988,1.5567 C 4.4883,0.4688 3.0576,0 1.9053,0.6104 C 1.7002,3.7969 0.7451,6.7198 0,9.6368 C 1.6279,10.8594 1.2226,7.7383 2.9951,7.6748 C 4.0107,7.3233 4.5508,8.2784 5.164,8.8887 C 5.5039,9.7715 5.2988,10.9317 4.623,11.6787 C 4.623,11.6787 6.251,11.5352 6.251,11.5352 C 6.9267,10.7246 7.1338,9.501 6.7988,8.4834 C 6.3232,6.6485 4.1455,6.5127 2.8506,5.5606 z"
         id="path58" />
    </g>
    <g
       transform="matrix(1.25,0,0,1.25,413.80941,250.211)"
       id="g60"
       style="fill:#ffffff;fill-rule:evenodd;stroke:none;stroke-width:1;stroke-linecap:butt;stroke-linejoin:miter;stroke-dasharray:none">
      <path
         d="M 2.93,3.6485 C 2.581,2.5039 2.002,1.4297 1.359,0.2862 C 0.928,0 0,0.0723 0.151,0.8584 C 1,1.7159 1.359,3.8623 2.93,3.6485 z"
         id="path62" />
    </g>
    <g
       transform="matrix(1.25,0,0,1.25,409.33941,250.847)"
       id="g64"
       style="fill:#ffffff;fill-rule:evenodd;stroke:none;stroke-width:1;stroke-linecap:butt;stroke-linejoin:miter;stroke-dasharray:none">
      <path
         d="M 6.437,6.7129 C 4.79,4.4971 3.29,2.209 1.502,0 C 0.858,0 0.145,0.3496 0,1.0655 C 1.716,2.9229 3.727,4.7832 5.22,6.6348 C 5.506,6.9209 6.078,7.4297 6.437,6.7129 z"
         id="path66" />
    </g>
    <g
       transform="matrix(1.25,0,0,1.25,405.40816,253.34088)"
       id="g68"
       style="fill:#ffffff;fill-rule:evenodd;stroke:none;stroke-width:1;stroke-linecap:butt;stroke-linejoin:miter;stroke-dasharray:none">
      <path
         d="M 6.649,7.792 C 7.077,8.0713 8.158,8.0713 8.016,7.2198 C 8.016,7.2198 2.145,0.5 2.145,0.5 C 1.357,0 0.429,0.5 0,1.2862 C 2.215,3.502 4.79,5.2188 6.649,7.792 z"
         id="path70" />
    </g>
    <g
       transform="matrix(1.25,0,0,1.25,401.92191,256.378)"
       id="g72"
       style="fill:#ffffff;fill-rule:evenodd;stroke:none;stroke-width:1;stroke-linecap:butt;stroke-linejoin:miter;stroke-dasharray:none">
      <path
         d="M 8.581,5.9278 C 8.581,5.9278 2.716,0.9307 2.716,0.9307 C 1.789,0 0.428,0.1446 0,1.5752 C 2.646,3.5762 5.569,4.8555 8.008,7.2862 C 8.731,7.3575 8.938,6.4366 8.581,5.9278 z"
         id="path74" />
    </g>
    <g
       transform="matrix(1.25,0,0,1.25,411.76316,260.56988)"
       id="g76"
       style="fill:#ffffff;fill-rule:evenodd;stroke:none;stroke-width:1;stroke-linecap:butt;stroke-linejoin:miter;stroke-dasharray:none">
      <path
         d="M 8.008,5.2901 C 9.008,3.7901 11.512,3.9327 10.868,1.7159 C 10.724,0.7227 9.359,0 8.15,0.293 C 3.718,3.2178 0.563,7.7217 0,12.3702 C 0.635,13.084 1.494,13.1563 2.423,13.1563 C 4.362,10.7168 5.355,7.5782 8.008,5.2901 z"
         id="path78" />
    </g>
    <g
       transform="matrix(1.25,0,0,1.25,399.49816,260.75913)"
       id="g80"
       style="fill:#ffffff;fill-rule:evenodd;stroke:none;stroke-width:1;stroke-linecap:butt;stroke-linejoin:miter;stroke-dasharray:none">
      <path
         d="M 8.517,6.499 C 9.017,6.4268 9.733,5.6406 9.231,4.9971 C 6.371,3.3526 3.728,1.1436 0.645,0 C 0.145,0.4932 0,1.2158 0.072,1.9297 C 0.072,1.9297 8.517,6.499 8.517,6.499 z"
         id="path82" />
    </g>
    <g
       transform="matrix(1.25,0,0,1.25,397.97816,265.48575)"
       id="g84"
       style="fill:#ffffff;fill-rule:evenodd;stroke:none;stroke-width:1;stroke-linecap:butt;stroke-linejoin:miter;stroke-dasharray:none">
      <path
         d="M 8.375,5.292 C 8.875,5.1474 9.447,4.5039 8.947,4.0752 C 6.301,2.7177 3.718,1.0019 0.867,0 C 0.509,0.4296 0,1.2158 0.437,1.5732 C 3.297,2.4384 5.651,4.1474 8.375,5.292 z"
         id="path86" />
    </g>
    <g
       transform="matrix(1.25,0,0,1.25,417.12691,267.0055)"
       id="g88"
       style="fill:#ffffff;fill-rule:evenodd;stroke:none;stroke-width:1;stroke-linecap:butt;stroke-linejoin:miter;stroke-dasharray:none">
      <path
         d="M 0,8.0801 C 0.42,9.0732 1.207,9.0732 2.209,8.7871 C 5.068,7.2217 7.077,4.1455 7.649,0.9297 C 7.57,0.4277 6.935,0.1416 6.505,0 C 3.503,2.0019 1.643,5.1387 0,8.0801 z"
         id="path90" />
    </g>
    <g
       transform="matrix(1.25,0,0,1.25,429.46941,267.90875)"
       id="g92"
       style="fill:#ffffff;fill-rule:evenodd;stroke:none;stroke-width:1;stroke-linecap:butt;stroke-linejoin:miter;stroke-dasharray:none">
      <path
         d="M 0,0.5 C 0,0.5 3.209,6.1407 3.209,6.1407 C 3.083,3.7969 2.065,1.8194 0.698,0 C 0.532,0.0313 0.374,0.0567 0.214,0.0625 C 0.214,0.0625 0,0.5 0,0.5 z"
         id="path94" />
    </g>
    <g
       transform="matrix(1.25,0,0,1.25,427.40316,270.31238)"
       id="g96"
       style="fill:#ffffff;fill-rule:evenodd;stroke:none;stroke-width:1;stroke-linecap:butt;stroke-linejoin:miter;stroke-dasharray:none">
      <path
         d="M 4.434,6.7139 C 4.504,4.2178 2.146,2.2168 0.858,0 C 0.858,0 0,1.7158 0,1.7158 C 0,1.7158 3.432,6.8555 3.432,6.8555 C 3.727,6.792 4.218,7 4.434,6.7139 z"
         id="path98" />
    </g>
    <g
       transform="matrix(1.25,0,0,1.25,396.90566,269.50788)"
       id="g100"
       style="fill:#ffffff;fill-rule:evenodd;stroke:none;stroke-width:1;stroke-linecap:butt;stroke-linejoin:miter;stroke-dasharray:none">
      <path
         d="M 7.373,2.9952 C 5.007,1.9297 2.719,0.7139 0.217,0 C 0.217,0 0,0.6436 0,0.6436 C 1.867,2.709 4.513,3.0733 7.373,2.9952 z"
         id="path102" />
    </g>
    <g
       transform="matrix(1.25,0,0,1.25,425.08066,275.3185)"
       id="g104"
       style="fill:#ffffff;fill-rule:evenodd;stroke:none;stroke-width:1;stroke-linecap:butt;stroke-linejoin:miter;stroke-dasharray:none">
      <path
         d="M 0,0.9277 C 1.286,2.4228 1.286,5.1386 3.288,5.4961 C 3.788,3.4228 2.288,1.499 1.072,0 C 0.572,0 0.07,0.4209 0,0.9277 z"
         id="path106" />
    </g>
    <g
       transform="matrix(1.25,0,0,1.25,421.95066,279.16)"
       id="g108"
       style="fill:#ffffff;fill-rule:evenodd;stroke:none;stroke-width:1;stroke-linecap:butt;stroke-linejoin:miter;stroke-dasharray:none">
      <path
         d="M 0.065,0 C 0,2.1377 1.574,4.0674 2.574,5.918 C 2.574,5.918 3.79,6.1416 3.79,6.1416 C 4.076,3.7813 2.288,2.1377 1.43,0.2861 C 1.43,0.2861 0.065,0 0.065,0 z"
         id="path110" />
    </g>
    <g
       transform="matrix(1.25,0,0,1.25,410.32191,279.337)"
       id="g112"
       style="fill:#ffffff;fill-rule:evenodd;stroke:none;stroke-width:1;stroke-linecap:butt;stroke-linejoin:miter;stroke-dasharray:none">
      <path
         d="M 0,1.1377 C 0.128,1.6065 0.176,2.2188 0.39,2.6553 C 0.955,2.2725 1.694,2.1055 2.416,2.1621 C 2.059,1.2412 1.477,0 0.216,0.2793 C 0.216,0.2793 0,1.1377 0,1.1377 z"
         id="path114" />
    </g>
    <g
       transform="matrix(1.25,0,0,1.25,415.68441,280.49175)"
       id="g116"
       style="fill:#ffffff;fill-rule:evenodd;stroke:none;stroke-width:1;stroke-linecap:butt;stroke-linejoin:miter;stroke-dasharray:none">
      <path
         d="M 6.087,8.294 C 6.087,8.294 6.156,6.0694 6.156,6.0694 C 5.434,3.9229 4.727,1.9297 2.941,0.2139 C 2.074,0.2862 0.358,0 0,1 C 0.867,3.8594 2.655,8.0782 6.087,8.294 z"
         id="path118" />
    </g>
    <g
       transform="matrix(1.25,0,0,1.25,344.27478,326.12176)"
       id="g120"
       style="fill:#ffffff;fill-rule:evenodd;stroke:none;stroke-width:1;stroke-linecap:butt;stroke-linejoin:miter;stroke-dasharray:none">
      <path
         d="M 2.4385,4.8623 C 2.1465,3.3603 2.5742,1.5722 1.581,0.3564 C 1.2158,0 0.581,0.2148 0.5,0.7236 C 0,2.0722 0.4297,3.6464 1.2158,4.79 C 1.581,5.1484 2.0019,5.1484 2.4385,4.8623 z"
         id="path122" />
    </g>
    <g
       transform="matrix(1.25,0,0,1.25,348.83166,326.48788)"
       id="g124"
       style="fill:#ffffff;fill-rule:evenodd;stroke:none;stroke-width:1;stroke-linecap:butt;stroke-linejoin:miter;stroke-dasharray:none">
      <path
         d="M 2.4326,7.4988 C 1.8672,5.1328 3.4414,1.2793 0.8672,0 C 0,1.6377 0.7236,4.3467 0.6533,6.5713 C 0.6533,7.4298 1.7158,7.8578 2.4326,7.4988 z"
         id="path126" />
    </g>
    <g
       transform="matrix(1.25,0,0,1.25,336.23154,325.49426)"
       id="g128"
       style="fill:#ffffff;fill-rule:evenodd;stroke:none;stroke-width:1;stroke-linecap:butt;stroke-linejoin:miter;stroke-dasharray:none">
      <path
         d="M 6.0694,7.4365 C 4.5674,5.5059 6.7295,0 2.6446,1.2256 C 0,3.6553 4.1465,5.2207 4.6465,7.6523 C 5.0049,7.7939 5.8623,8.0077 6.0694,7.4365 z"
         id="path130" />
    </g>
    <g
       transform="matrix(1.25,0,0,1.25,353.22379,327.55238)"
       id="g132"
       style="fill:#ffffff;fill-rule:evenodd;stroke:none;stroke-width:1;stroke-linecap:butt;stroke-linejoin:miter;stroke-dasharray:none">
      <path
         d="M 0.1347,0.0791 C 0,2.2881 0.1347,4.2812 0.5,6.292 C 1.0625,6.4272 1.9209,6.7922 2.4297,6.1474 C 1.9209,4.0732 3.3593,0 0.1347,0.0791 z"
         id="path134" />
    </g>
    <g
       transform="matrix(1.25,0,0,1.25,357.95766,329.88638)"
       id="g136"
       style="fill:#ffffff;fill-rule:evenodd;stroke:none;stroke-width:1;stroke-linecap:butt;stroke-linejoin:miter;stroke-dasharray:none">
      <path
         d="M 0.3584,0.2763 C 0.2861,2.1367 0,4.1386 1.0029,5.575 C 2.2187,5.282 1.5019,3.4941 1.7881,2.414 C 1.1445,1.707 1.8603,0 0.3584,0.2763 z"
         id="path138" />
    </g>
    <g
       transform="matrix(1.25,0,0,1.25,334.53229,330.49913)"
       id="g140"
       style="fill:#ffffff;fill-rule:evenodd;stroke:none;stroke-width:1;stroke-linecap:butt;stroke-linejoin:miter;stroke-dasharray:none">
      <path
         d="M 1.002,0 C 0.502,0.7168 0.1436,1.502 0.0723,2.3604 C 0,4.5058 1.6456,5.9278 2.7178,7.5798 C 3.5762,7.3578 4.5762,7.6438 5.2198,6.7948 C 4.3545,4.3628 3.3526,1.5811 1.002,0 z"
         id="path142" />
    </g>
    <g
       transform="matrix(1.25,0,0,1.25,338.91229,338.00638)"
       id="g144"
       style="fill:#ffffff;fill-rule:evenodd;stroke:none;stroke-width:1;stroke-linecap:butt;stroke-linejoin:miter;stroke-dasharray:none">
      <path
         d="M 8.1523,2.505 C 8.1523,2.505 8.2304,1.431 8.2304,1.431 C 8.2304,1.431 7.58,0.358 7.58,0.358 C 4.5849,0 2.0019,1.638 0.3574,4.069 C 0,4.793 0.2861,5.569 0.5,6.142 C 2.8603,4.356 4.997,1.995 8.1523,2.505 z"
         id="path146" />
    </g>
    <g
       transform="matrix(1.25,0,0,1.25,351.25604,338.72138)"
       id="g148"
       style="fill:#ffffff;fill-rule:evenodd;stroke:none;stroke-width:1;stroke-linecap:butt;stroke-linejoin:miter;stroke-dasharray:none">
      <path
         d="M 5.0751,1.423 C 4.8623,0 3.29,0.217 2.1455,0.073 C 1.1367,0.28 0,0.859 0.2138,2.075 C 0.5654,3.354 1.2158,4.497 2.5019,4.928 C 3.79,4.077 5.497,3.147 5.0751,1.423 z"
         id="path150" />
    </g>
    <g
       transform="matrix(1.25,0,0,1.25,358.67291,341.49513)"
       id="g152"
       style="fill:#ffffff;fill-rule:evenodd;stroke:none;stroke-width:1;stroke-linecap:butt;stroke-linejoin:miter;stroke-dasharray:none">
      <path
         d="M 1.2881,0.142 C 0.0723,0.421 0,2.002 0,3.137 C 0.1446,3.709 0.7168,4.139 1.2881,4.066 C 2.0743,3.494 2.0743,2.358 2.1534,1.349 C 1.8672,0.928 2.0743,0 1.2881,0.142 z"
         id="path154" />
    </g>
    <g
       transform="matrix(1.25,0,0,1.25,361.98104,343.62763)"
       id="g156"
       style="fill:#ffffff;fill-rule:evenodd;stroke:none;stroke-width:1;stroke-linecap:butt;stroke-linejoin:miter;stroke-dasharray:none">
      <path
         d="M 3.2897,2.003 C 3.0737,1.367 2.7871,0 1.6436,0.215 C 0,1.788 1.7158,4.649 0.5713,6.364 C 1.0713,7.078 0.7158,8.366 1.8662,8.502 C 4.1547,7.437 2.8594,4.149 3.2897,2.003 z"
         id="path158" />
    </g>
    <g
       transform="matrix(1.25,0,0,1.25,345.35879,343.62763)"
       id="g160"
       style="fill:#ffffff;fill-rule:evenodd;stroke:none;stroke-width:1;stroke-linecap:butt;stroke-linejoin:miter;stroke-dasharray:none">
      <path
         d="M 3.4316,0.572 C 2.207,0.215 0.9209,0 0,0.717 C 0.7138,4.79 4.6455,15.652 6.2197,15.724 C 7.2197,12.506 6.7197,9.932 7.0058,6.364 C 6.292,4.076 5.5693,1.86 3.4316,0.572 z"
         id="path162" />
    </g>
    <g
       transform="matrix(1.25,0,0,1.25,367.44066,344.70138)"
       id="g164"
       style="fill:#ffffff;fill-rule:evenodd;stroke:none;stroke-width:1;stroke-linecap:butt;stroke-linejoin:miter;stroke-dasharray:none">
      <path
         d="M 0.208,0.213 C 0.208,0.213 0,2.215 0,2.215 C 0,2.215 1.352,2.432 1.352,2.432 C 1.352,2.432 1.71,1.294 1.71,1.294 C 1.217,0.858 0.931,0 0.208,0.213 z"
         id="path166" />
    </g>
    <g
       transform="matrix(1.25,0,0,1.25,340.88004,345.95263)"
       id="g168"
       style="fill:#ffffff;fill-rule:evenodd;stroke:none;stroke-width:1;stroke-linecap:butt;stroke-linejoin:miter;stroke-dasharray:none">
      <path
         d="M 1.499,0 C 0.8486,0.714 0.2861,1.573 0,2.359 C 0.1572,4.417 0.6259,6.435 1.4052,8.311 C 2.2949,10.463 3.583,12.425 5.2734,14.046 C 5.4883,14.251 5.7109,14.458 5.9336,14.65 C 6.4336,14.436 7.2285,14.436 6.8633,13.792 C 4.9316,11.296 2.2158,1.573 1.499,0 z"
         id="path170" />
    </g>
    <g
       transform="matrix(1.25,0,0,1.25,354.83016,346.13138)"
       id="g172"
       style="fill:#ffffff;fill-rule:evenodd;stroke:none;stroke-width:1;stroke-linecap:butt;stroke-linejoin:miter;stroke-dasharray:none">
      <path
         d="M 1.4307,2.216 C 1.4307,5.577 1.8604,9.224 0.5,12.074 C 0.2959,12.719 0,14.435 1.2881,14.221 C 1.2881,14.221 1.3516,13.649 1.3516,13.649 C 3.3692,12.005 4.1485,9.151 4.3623,6.363 C 3.8623,4.575 4.5762,0 1.4307,2.216 z"
         id="path174" />
    </g>
    <g
       transform="matrix(1.25,0,0,1.25,319.13191,358.87138)"
       id="g176"
       style="fill:#ffffff;fill-rule:evenodd;stroke:none;stroke-width:1;stroke-linecap:butt;stroke-linejoin:miter;stroke-dasharray:none">
      <path
         d="M 10.3838,7.42 C 9.0791,8.605 7.5303,9.677 4.0821,9.677 C 4.0821,9.677 0,18.703 0,18.703 C 0,18.703 2.6612,18.703 4.3213,18.703 C 5.9903,18.703 8.96,16.93 11.4551,13.96 C 13.9483,10.988 20.5264,3.815 20.5264,3.815 C 20.5264,3.815 17.8506,0 17.8506,0 C 17.8506,0 11.6944,6.238 10.3838,7.42 z"
         id="path178" />
    </g>
    <g
       transform="matrix(1.25,0,0,1.25,274.28329,370.96763)"
       id="g180"
       style="fill:#ffffff;fill-rule:evenodd;stroke:none;stroke-width:1;stroke-linecap:butt;stroke-linejoin:miter;stroke-dasharray:none">
      <path
         d="M 0,9.032 C 0,9.032 5.8233,9.032 5.8233,9.032 C 5.8233,9.032 10.8457,0 10.8457,0 C 10.8457,0 5.0215,0 5.0215,0 C 5.0215,0 0,9.032 0,9.032 z"
         id="path182" />
    </g>
    <g
       transform="matrix(1.25,0,0,1.25,360.98741,283.26163)"
       id="g184"
       style="fill:#ffffff;fill-rule:evenodd;stroke:none;stroke-width:1;stroke-linecap:butt;stroke-linejoin:miter;stroke-dasharray:none">
      <path
         d="M 40.5576,0.8261 C 39.7316,1.6533 0.2793,43.0418 0.2793,43.0418 C 0.0469,43.3438 0,43.6538 0.0713,43.9558 C 0.2793,44.8608 1.5811,45.6788 2.6299,45.9268 C 3.1543,46.0458 3.6143,46.0218 3.8366,45.7978 C 4.6726,44.9738 40.5576,5.1709 42.4246,2.8916 C 44.2906,0.6191 41.3906,0 40.5576,0.8261 z"
         id="path186" />
    </g>
    <g
       transform="matrix(1.25,0,0,1.25,426.32191,260.49175)"
       id="g188"
       style="fill:#ffffff;fill-rule:evenodd;stroke:none;stroke-width:1;stroke-linecap:butt;stroke-linejoin:miter;stroke-dasharray:none">
      <path
         d="M 6.521,2.2784 C 8.175,0.6192 5.481,0 4.862,0.4122 C 4.24,0.8243 3.614,1.4454 2.581,2.4864 C 0,5.0665 3.304,5.4805 6.521,2.2784 z"
         id="path190" />
    </g>
    <g
       transform="matrix(1.25,0,0,1.25,385.41691,267.10438)"
       id="g192"
       style="fill:#d0bd7f;fill-rule:evenodd;stroke:none;stroke-width:1;stroke-linecap:butt;stroke-linejoin:miter;stroke-dasharray:none">
      <path
         d="M 18.455,8.2148 C 18.455,8.2148 17.582,6.2597 17.582,6.2597 C 17.582,6.2597 13.663,7.3476 7.786,4.082 C 6.825,3.542 8.009,1.0332 8.009,1.0332 C 8.009,1.0332 7.642,0.5244 7.038,0 C 7.038,0 2.273,0 2.273,0 C 0,2.2558 3.257,3.916 4.307,5.1719 C 4.885,5.8633 9.294,10.8203 14.117,18.8594 C 16.533,16.3262 18.384,14.3779 19.321,13.4014 C 18.455,8.2148 18.455,8.2148 18.455,8.2148 z"
         id="path194" />
    </g>
    <g
       transform="matrix(1.25,0,0,1.25,392.39941,351.60263)"
       id="g196"
       style="fill:#d0bd7f;fill-rule:evenodd;stroke:none;stroke-width:1;stroke-linecap:butt;stroke-linejoin:miter;stroke-dasharray:none">
      <path
         d="M 0,1.741 C 0,1.741 0.428,6.173 0.428,6.173 C 0.428,6.173 3.972,0.007 3.972,0.007 C 3.822,0.007 3.668,0.007 3.511,0 C 3.511,0 0,1.741 0,1.741 z"
         id="path198" />
    </g>
    <g
       transform="matrix(1.25,0,0,1.25,380.90816,376.61763)"
       id="g200"
       style="fill:#d0bd7f;fill-rule:evenodd;stroke:none;stroke-width:1;stroke-linecap:butt;stroke-linejoin:miter;stroke-dasharray:none">
      <path
         d="M 0.636,1.765 C 0.636,1.765 1.653,0 1.653,0 C 1.653,0 0,0 0,0 C 0.224,0.605 0.462,1.272 0.636,1.765 z"
         id="path202" />
    </g>
    <g
       transform="matrix(1.25,0,0,1.25,268.65341,267.10438)"
       id="g204"
       style="fill:#d0bd7f;fill-rule:evenodd;stroke:none;stroke-width:1;stroke-linecap:butt;stroke-linejoin:miter;stroke-dasharray:none">
      <path
         d="M 57.5645,71.9676 C 57.5645,71.9676 57.6455,71.8886 57.6455,71.8886 C 55.9453,68.1956 55.9209,64.7706 55.9209,64.7706 C 55.9209,64.7706 54.4033,61.0776 55.0567,60.2036 C 55.0567,60.2036 50.041,56.0716 51.5684,51.0674 C 51.5684,51.0674 50.041,48.6758 50.041,48.6758 C 48.7393,46.2842 35.0186,26.0498 39.8174,16.9209 C 39.8174,16.9209 43.0821,13.2187 40.6836,8.4287 C 38.292,3.6455 35.8936,5.3867 34.1533,6.2597 C 32.4121,7.125 18.4795,15.3965 18.4795,15.3965 C 18.4795,15.3965 22.1817,6.9111 22.1817,6.9111 C 22.1817,6.9111 15.2149,13.6484 13.251,16.0469 C 13.251,16.0469 11.7354,6.9111 15.874,2.7715 C 16.8018,1.8437 17.7481,0.8984 18.6533,0 C 18.6533,0 0,0 0,0 C 0,0 47.7617,81.0876 47.7617,81.0876 C 48.6201,80.7396 49.2237,80.2616 49.7803,79.7526 C 51.043,78.6086 57.502,72.0316 57.5645,71.9676 z"
         id="path206" />
    </g>
    <g
       transform="matrix(1.25,0,0,1.25,406.94691,267.10438)"
       id="g208"
       style="fill:#d0bd7f;fill-rule:evenodd;stroke:none;stroke-width:1;stroke-linecap:butt;stroke-linejoin:miter;stroke-dasharray:none">
      <path
         d="M 20.432,0 C 20.25,0.0937 20.076,0.1816 19.892,0.2607 C 21.029,1.4385 22.84,3.9472 21.909,7.3476 C 21.909,7.3476 21.909,9.7392 20.607,9.7392 C 20.607,9.7392 20.821,15.1728 17.557,14.5224 C 17.557,14.5224 17.993,21.918 9.287,19.0898 C 9.287,19.0898 7.475,18.9697 5.664,18.0488 C 4.473,19.3906 2.479,21.6406 0,24.4131 C 2.645,29.498 5.187,35.416 7.078,41.9785 C 7.078,41.9785 31.237,0 31.237,0 C 31.237,0 20.432,0 20.432,0 z"
         id="path210" />
    </g>
    <g
       transform="matrix(1.25,0,0,1.25,371.27566,376.61763)"
       id="g212"
       style="fill:#d0bd7f;fill-rule:evenodd;stroke:none;stroke-width:1;stroke-linecap:butt;stroke-linejoin:miter;stroke-dasharray:none">
      <path
         d="M 1.238,2.177 C 1.772,2.177 2.225,2.177 2.853,2.177 C 2.995,1.709 3.29,0.803 3.542,0 C 3.542,0 0,0 0,0 C 0.5,0.891 1.024,1.812 1.238,2.177 z"
         id="path214" />
    </g>
    <g
       transform="matrix(1.25,0,0,1.25,334.15516,339.63763)"
       id="g216"
       style="fill:#d0bd7f;fill-rule:evenodd;stroke:none;stroke-width:1;stroke-linecap:butt;stroke-linejoin:miter;stroke-dasharray:none">
      <path
         d="M 39.4364,3.702 C 39.2224,3.051 29.8634,0.659 28.7664,0 C 28.7664,0 26.7334,0.357 28.3384,1.961 C 30.0774,3.702 29.8634,6.316 28.5524,9.787 C 28.5524,9.787 27.0274,10.223 27.0274,10.223 C 27.0274,10.223 23.9853,15.88 22.0312,15.013 C 22.0312,15.013 19.4092,20.67 16.1445,20.885 C 13.9668,21.028 12.0742,21.466 9.8906,19.925 C 8.3974,21.552 2.6865,27.757 0.5557,30.284 C 0.374,30.507 0.1914,30.72 0,30.927 C 0,30.927 19.3603,63.809 19.3603,63.809 C 19.3603,63.809 35.8534,35.152 35.8534,35.152 C 35.8534,35.152 24.001,35.152 24.001,35.152 C 24.001,35.152 24.1045,33.961 24.1045,33.961 C 24.2305,32.358 25.2554,30.539 25.9374,29.489 C 25.9374,28.719 26.1384,23.499 31.3804,23.499 C 31.3804,23.499 36.8214,23.276 37.4814,22.625 C 38.1344,21.974 37.6974,17.621 37.6974,17.621 C 37.6974,17.621 39.4364,17.621 39.4364,17.621 C 39.4364,17.621 39.4364,13.926 38.7854,11.75 C 38.1344,9.572 37.4814,6.967 37.6974,6.094 C 37.9114,5.226 39.6594,4.352 39.4364,3.702 z"
         id="path218" />
    </g>
    <g
       transform="matrix(1.25,0,0,1.25,263.25179,232.50475)"
       id="g220"
       style="fill:#161413;fill-rule:evenodd;stroke:none;stroke-width:1;stroke-linecap:butt;stroke-linejoin:miter;stroke-dasharray:none">
      <path
         d="M 134.508,54.9053 C 134.508,54.9053 133.499,57.9639 133.499,57.9639 C 133.499,57.9639 136.246,58.8779 137.16,59.1797 C 137.16,59.7363 137.144,60.8555 137.136,61.7539 C 136.255,61.6728 135.492,61.7383 134.913,61.999 C 132.949,62.873 133.602,70.4844 134.039,72.0088 C 134.476,73.5273 134.476,74.3916 134.253,75.2656 C 134.039,76.1416 133.816,76.1416 132.299,76.3555 C 130.765,76.5693 127.723,76.5693 127.723,76.5693 C 126.635,75.2656 123.155,73.9639 123.155,73.9639 C 123.083,73.6533 123.002,73.3447 122.933,73.043 C 122.933,73.043 150.451,25.2158 150.451,25.2158 C 150.451,25.2158 142.205,25.2158 142.205,25.2158 C 143.031,23.8418 141.601,22.1348 141.601,22.1348 C 141.601,22.1348 141.554,21.5469 139.86,20.0674 C 137.898,18.3603 136.032,19.0518 135.246,19.6709 C 134.665,20.1172 134.882,20.9258 135.039,21.3398 C 134.848,21.4033 134.665,21.4746 134.498,21.585 C 133.76,22.0781 133.101,22.7383 132.003,23.835 C 131.902,23.9365 131.814,24.0332 131.718,24.1367 C 131.544,24.1211 131.425,24.1523 131.425,24.1523 C 131.425,21.3154 126.419,20.0137 126.419,20.0137 C 124.243,15.667 123.146,13.125 120.755,12.832 C 117.92,12.4961 115.314,14.7939 115.314,14.7939 C 112.049,11.0908 102.253,5.8799 96.3821,5.6572 C 90.5021,5.4434 81.1358,10.4473 74.8282,13.0527 C 68.5117,15.667 66.336,10.6631 65.2481,9.5732 C 64.1582,8.4853 62.42,6.9609 59.1543,3.4795 C 55.8897,0 51.9727,0.4375 49.1446,1.7412 C 46.3067,3.0518 43.4785,4.5762 39.125,7.3975 C 34.7725,10.2266 33.6846,13.0527 32.5948,16.0977 C 31.5069,19.1396 28.6787,21.9746 28.6787,21.9746 C 28.6787,21.9746 27.336,23.3174 25.4385,25.2158 C 25.4385,25.2158 0,25.2158 0,25.2158 C 0,25.2158 49.5254,109.284 49.5254,109.284 C 49.2862,109.3 49.0479,109.308 48.7862,109.308 C 48.7862,109.308 12.9805,109.308 12.9805,109.308 C 12.9805,109.308 6.3321,121.273 6.3321,121.273 C 6.3321,121.273 45.0772,121.273 45.0772,121.273 C 45.0772,121.273 49.0254,121.264 49.0254,121.264 C 50.6621,121.264 52.8223,120.176 54.8955,118.404 C 54.8955,118.404 76.1075,154.418 76.1075,154.418 C 76.1075,154.418 95.4201,120.858 95.4201,120.858 C 95.4201,120.858 111.722,120.858 111.722,120.858 C 111.722,120.858 111.722,117.642 111.722,117.642 C 111.722,117.642 108.821,117.642 107.862,117.642 C 107.693,117.133 107.376,116.132 107.105,115.29 C 107.105,115.29 107.702,115.29 107.702,115.29 C 107.702,115.29 110.531,113.988 110.531,113.988 C 110.531,110.722 106.614,106.153 106.614,106.153 C 106.614,106.153 105.971,102.523 105.971,102.523 C 105.971,102.523 110.817,94.0933 110.817,94.0933 C 111.389,93.5883 111.612,93.1013 111.612,93.1013 C 111.612,93.1013 134.039,85.2753 137.302,83.5373 C 140.567,81.7959 141.221,75.9189 141.221,75.9189 C 145.573,77.6572 147.528,72.876 147.528,72.876 C 147.528,72.876 149.053,73.5273 152.978,74.1777 C 156.894,74.8379 158.85,72.876 159.293,71.5723 C 159.493,70.9687 159.595,70.4219 159.588,69.9756 C 160.15,69.5635 162.63,67.7187 163.473,65.749 C 163.473,65.749 163.94,64.6455 163.94,64.6455 C 163.94,64.6455 134.508,54.9053 134.508,54.9053 z M 133.037,24.876 C 134.07,23.835 134.696,23.2139 135.318,22.8018 C 135.937,22.3896 138.631,23.0088 136.977,24.668 C 133.76,27.8701 130.456,27.4561 133.037,24.876 z M 133.672,28.3232 C 135.039,30.1426 136.057,32.1201 136.183,34.4639 C 136.183,34.4639 132.974,28.8232 132.974,28.8232 C 132.974,28.8232 133.188,28.3857 133.188,28.3857 C 133.348,28.3799 133.506,28.3545 133.672,28.3232 z M 132.179,30.2461 C 133.467,32.4629 135.825,34.4639 135.755,36.96 C 135.539,37.2461 135.048,37.0381 134.753,37.1016 C 134.753,37.1016 131.321,31.9619 131.321,31.9619 C 131.321,31.9619 132.179,30.2461 132.179,30.2461 z M 127.024,37.3242 C 127.024,37.3242 128.389,37.6103 128.389,37.6103 C 129.247,39.4619 131.035,41.1055 130.749,43.4658 C 130.749,43.4658 129.533,43.2422 129.533,43.2422 C 128.533,41.3916 126.959,39.4619 127.024,37.3242 z M 128.102,44.459 C 128.102,44.459 128.033,46.6836 128.033,46.6836 C 124.601,46.4678 122.813,42.249 121.946,39.3896 C 122.304,38.3896 124.02,38.6758 124.887,38.6035 C 126.673,40.3193 127.38,42.3125 128.102,44.459 z M 129.463,35.1787 C 129.533,34.6719 130.035,34.251 130.535,34.251 C 131.751,35.75 133.251,37.6738 132.751,39.7471 C 130.749,39.3896 130.749,36.6738 129.463,35.1787 z M 130.749,28.5303 C 130.177,31.7461 128.168,34.8223 125.309,36.3877 C 124.307,36.6738 123.52,36.6738 123.1,35.6807 C 124.743,32.7393 126.603,29.6025 129.605,27.6006 C 130.035,27.7422 130.67,28.0283 130.749,28.5303 z M 126.959,22.7451 C 128.168,22.4521 129.533,23.1748 129.677,24.168 C 130.321,26.3848 127.817,26.2422 126.817,27.7422 C 124.164,30.0303 123.171,33.1689 121.232,35.6084 C 120.303,35.6084 119.444,35.5361 118.809,34.8223 C 119.372,30.1738 122.527,25.6699 126.959,22.7451 z M 82.0251,86.4033 C 81.8028,86.6273 81.3428,86.6513 80.8184,86.5323 C 79.7696,86.2843 78.4678,85.4663 78.2598,84.5613 C 78.1885,84.2593 78.2354,83.9493 78.4678,83.6473 C 78.4678,83.6473 117.92,42.2588 118.746,41.4316 C 119.579,40.6055 122.479,41.2246 120.613,43.4971 C 118.746,45.7764 82.8611,85.5793 82.0251,86.4033 z M 85.0611,91.0513 C 85.0611,91.0513 84.7031,92.1893 84.7031,92.1893 C 84.7031,92.1893 83.3511,91.9723 83.3511,91.9723 C 83.3511,91.9723 83.5591,89.9703 83.5591,89.9703 C 84.2821,89.7573 84.5681,90.6153 85.0611,91.0513 z M 80.8496,97.4003 C 79.6992,97.2643 80.0547,95.9763 79.5547,95.2623 C 80.6992,93.5473 78.9834,90.6863 80.627,89.1133 C 81.7705,88.8983 82.0571,90.2653 82.2731,90.9013 C 81.8428,93.0473 83.1381,96.3353 80.8496,97.4003 z M 62.2442,85.1903 C 61.6006,86.0393 60.6006,85.7533 59.7422,85.9753 C 58.67,84.3233 57.0244,82.9013 57.0967,80.7559 C 57.168,79.8975 57.5264,79.1123 58.0264,78.3955 C 60.377,79.9766 61.3789,82.7583 62.2442,85.1903 z M 61.0284,75.6172 C 65.1133,74.3916 62.9512,79.8975 64.4532,81.8281 C 64.2461,82.3993 63.3887,82.1855 63.0303,82.0439 C 62.5303,79.6123 58.3838,78.0469 61.0284,75.6172 z M 60.8858,88.4703 C 62.5303,86.0393 65.1133,84.4013 68.1084,84.7593 C 68.1084,84.7593 68.7588,85.8323 68.7588,85.8323 C 68.7588,85.8323 68.6807,86.9063 68.6807,86.9063 C 65.5254,86.3963 63.3887,88.7573 61.0284,90.5433 C 60.8145,89.9703 60.5284,89.1943 60.8858,88.4703 z M 65.3184,75.6172 C 65.3994,75.1084 66.0342,74.8936 66.3994,75.25 C 67.3926,76.4658 66.9649,78.2539 67.2569,79.7559 C 66.8203,80.042 66.3994,80.042 66.0342,79.6836 C 65.2481,78.54 64.8184,76.9658 65.3184,75.6172 z M 63.6016,90.7583 C 64.3184,92.3313 67.0342,102.054 68.9659,104.55 C 69.3311,105.194 68.5362,105.194 68.0362,105.408 C 67.8135,105.216 67.5909,105.009 67.376,104.804 C 65.6856,103.183 64.3975,101.221 63.5078,99.0693 C 62.7285,97.1933 62.2598,95.1753 62.1026,93.1173 C 62.3887,92.3313 62.9512,91.4723 63.6016,90.7583 z M 65.6856,89.6153 C 66.6065,88.8983 67.8926,89.1133 69.1172,89.4703 C 71.2549,90.7583 71.9776,92.9743 72.6914,95.2623 C 72.4053,98.8303 72.9053,101.404 71.9053,104.622 C 70.3311,104.55 66.3994,93.6883 65.6856,89.6153 z M 70.8965,82.6853 C 70.1797,83.0443 69.1172,82.6163 69.1172,81.7578 C 69.1875,79.5332 68.4639,76.8242 69.3311,75.1865 C 71.9053,76.4658 70.3311,80.3193 70.8965,82.6853 z M 70.6172,87.0483 C 70.4034,85.8323 71.5401,85.2533 72.5489,85.0463 C 73.6934,85.1903 75.2657,84.9733 75.4785,86.3963 C 75.9004,88.1203 74.1934,89.0503 72.9053,89.9013 C 71.6192,89.4703 70.9688,88.3273 70.6172,87.0483 z M 74.4073,82.1855 C 73.8985,82.8303 73.0401,82.4653 72.4776,82.3301 C 72.1123,80.3193 71.9776,78.3262 72.1123,76.1172 C 75.3369,76.0381 73.8985,80.1113 74.4073,82.1855 z M 73.7627,102.975 C 75.1231,100.125 74.6934,96.4783 74.6934,93.1173 C 77.8389,90.9013 77.125,95.4763 77.625,97.2643 C 77.4112,100.052 76.6319,102.906 74.6143,104.55 C 74.6143,104.55 74.5508,105.122 74.5508,105.122 C 73.2627,105.336 73.5586,103.62 73.7627,102.975 z M 76.7676,83.4803 C 75.7647,82.0439 76.0508,80.042 76.1231,78.1816 C 77.625,77.9053 76.9092,79.6123 77.5528,80.3193 C 77.2666,81.3994 77.9834,83.1873 76.7676,83.4803 z M 76.3369,90.3293 C 76.3369,89.1943 76.4092,87.6133 77.625,87.3343 C 78.4112,87.1923 78.2041,88.1203 78.4903,88.5413 C 78.4112,89.5503 78.4112,90.6863 77.625,91.2583 C 77.0537,91.3313 76.4815,90.9013 76.3369,90.3293 z M 117.656,38.6035 C 117.656,38.6035 117.872,37.7451 117.872,37.7451 C 119.133,37.4658 119.715,38.707 120.072,39.6279 C 119.35,39.5713 118.611,39.7383 118.046,40.1211 C 117.832,39.6846 117.784,39.0723 117.656,38.6035 z M 121.805,14.4512 C 122.448,15.5947 123.027,16.6689 123.376,17.8135 C 121.805,18.0273 121.446,15.8809 120.597,15.0234 C 120.446,14.2373 121.374,14.165 121.805,14.4512 z M 118.372,14.6738 C 120.16,16.8828 121.66,19.1709 123.307,21.3867 C 122.948,22.1035 122.376,21.5947 122.09,21.3086 C 120.597,19.457 118.586,17.5967 116.87,15.7393 C 117.015,15.0234 117.728,14.6738 118.372,14.6738 z M 115.87,17.1689 C 115.87,17.1689 121.741,23.8887 121.741,23.8887 C 121.883,24.7402 120.802,24.7402 120.374,24.4609 C 118.515,21.8877 115.94,20.1709 113.725,17.9551 C 114.154,17.1689 115.082,16.6689 115.87,17.1689 z M 113.652,20.0293 C 113.652,20.0293 119.517,25.0264 119.517,25.0264 C 119.874,25.5352 119.667,26.4561 118.944,26.3848 C 116.505,23.9541 113.582,22.6748 110.936,20.6738 C 111.364,19.2432 112.725,19.0986 113.652,20.0293 z M 109.642,22.6035 C 112.725,23.7471 115.368,25.9561 118.228,27.6006 C 118.73,28.2441 118.014,29.0303 117.514,29.1025 C 117.514,29.1025 109.069,24.5332 109.069,24.5332 C 108.997,23.8193 109.142,23.0967 109.642,22.6035 z M 108.648,26.3848 C 111.499,27.3867 114.082,29.1025 116.728,30.46 C 117.228,30.8887 116.656,31.5322 116.156,31.6768 C 113.432,30.5322 111.078,28.8232 108.218,27.958 C 107.781,27.6006 108.29,26.8144 108.648,26.3848 z M 107.14,29.6025 C 109.642,30.3164 111.93,31.5322 114.296,32.5977 C 111.436,32.6758 108.79,32.3115 106.923,30.2461 C 106.923,30.2461 107.14,29.6025 107.14,29.6025 z M 100.005,27.6797 C 100.005,27.6797 104.77,27.6797 104.77,27.6797 C 105.374,28.2041 105.741,28.7129 105.741,28.7129 C 105.741,28.7129 104.557,31.2217 105.518,31.7617 C 111.395,35.0273 115.314,33.9394 115.314,33.9394 C 115.314,33.9394 116.187,35.8945 116.187,35.8945 C 116.187,35.8945 116.187,35.8945 117.053,41.0811 C 116.116,42.0576 114.265,44.0059 111.849,46.5391 C 107.026,38.5 102.617,33.543 102.039,32.8516 C 100.989,31.5957 97.7321,29.9355 100.005,27.6797 z M 56.3262,36.3311 C 58.9942,32.0889 74.1778,19.1396 96.1591,41.7725 C 99.9651,45.6816 103.151,49.3994 105.795,52.8877 C 97.1681,61.9424 86.1891,73.4863 81.1602,78.7627 C 78.7285,77.4521 76.251,75.9883 73.7403,74.3916 C 54.585,62.2129 50.0098,46.3408 56.3262,36.3311 z M 39.1573,10.8838 C 40.3096,10.2734 41.7403,10.7422 42.5508,11.8301 C 41.7403,13.1875 39.9678,14.2773 40.1026,15.834 C 41.3975,16.7861 43.5752,16.9219 44.0508,18.7568 C 44.3858,19.7744 44.1787,20.998 43.503,21.8086 C 43.503,21.8086 41.875,21.9521 41.875,21.9521 C 42.5508,21.2051 42.7559,20.0449 42.416,19.1621 C 41.8028,18.5518 41.2627,17.5967 40.2471,17.9482 C 38.4746,18.0117 38.8799,21.1328 37.252,19.9102 C 37.9971,16.9932 38.9522,14.0703 39.1573,10.8838 z M 31.293,22.1885 C 35.6397,26.5439 37.6006,31.3252 37.6006,31.3252 C 36.7334,33.5029 27.1543,37.8486 27.1543,37.8486 C 27.1543,37.8486 32.8174,27.4092 32.8174,27.4092 C 32.8174,27.4092 18.669,39.5967 18.669,39.5967 C 18.669,39.5967 18.8828,33.9394 20.6231,31.9785 C 22.3711,30.0234 31.293,22.1885 31.293,22.1885 z M 4.3213,27.6797 C 4.3213,27.6797 22.9746,27.6797 22.9746,27.6797 C 22.0694,28.5781 21.1231,29.5234 20.1953,30.4512 C 16.0567,34.5908 17.5723,43.7266 17.5723,43.7266 C 19.5362,41.3281 26.503,34.5908 26.503,34.5908 C 26.503,34.5908 22.8008,43.0762 22.8008,43.0762 C 22.8008,43.0762 36.7334,34.8047 38.4746,33.9394 C 40.2149,33.0664 42.6133,31.3252 45.0049,36.1084 C 47.4034,40.8984 44.1387,44.6006 44.1387,44.6006 C 39.3399,53.7295 53.0606,73.9639 54.3623,76.3555 C 54.3623,76.3555 55.8897,78.7471 55.8897,78.7471 C 54.3623,83.7513 59.378,87.8833 59.378,87.8833 C 58.7246,88.7573 60.2422,92.4503 60.2422,92.4503 C 60.2422,92.4503 60.2666,95.8753 61.9668,99.5683 C 61.9668,99.5683 61.8858,99.6473 61.8858,99.6473 C 61.8233,99.7113 55.3643,106.288 54.1016,107.432 C 53.545,107.941 52.9414,108.419 52.083,108.767 C 52.083,108.767 4.3213,27.6797 4.3213,27.6797 z M 14.6485,119.802 C 14.6485,119.802 8.8252,119.802 8.8252,119.802 C 8.8252,119.802 13.8467,110.77 13.8467,110.77 C 13.8467,110.77 19.6709,110.77 19.6709,110.77 C 19.6709,110.77 14.6485,119.802 14.6485,119.802 z M 49.0254,119.796 C 47.3653,119.796 44.7041,119.796 44.7041,119.796 C 44.7041,119.796 48.7862,110.77 48.7862,110.77 C 52.2344,110.77 53.7832,109.698 55.0879,108.513 C 56.3985,107.331 62.5547,101.093 62.5547,101.093 C 62.5547,101.093 65.2305,104.908 65.2305,104.908 C 65.2305,104.908 58.6524,112.081 56.1592,115.053 C 53.6641,118.023 50.6944,119.796 49.0254,119.796 z M 76.083,149.515 C 76.083,149.515 56.7227,116.633 56.7227,116.633 C 56.9141,116.426 57.0967,116.213 57.2784,115.99 C 59.4092,113.463 65.1201,107.258 66.6133,105.631 C 68.7969,107.172 70.6895,106.734 72.8672,106.591 C 76.1319,106.376 78.7539,100.719 78.7539,100.719 C 80.708,101.586 83.7501,95.9293 83.7501,95.9293 C 83.7501,95.9293 85.2751,95.4933 85.2751,95.4933 C 86.5861,92.0223 86.8001,89.4083 85.0611,87.6673 C 83.4561,86.0633 85.4891,85.7063 85.4891,85.7063 C 86.5861,86.3653 95.9451,88.7573 96.1591,89.4083 C 96.3821,90.0583 94.6341,90.9323 94.4201,91.8003 C 94.2041,92.6733 94.8571,95.2783 95.5081,97.4563 C 96.1591,99.6323 96.1591,103.327 96.1591,103.327 C 96.1591,103.327 94.4201,103.327 94.4201,103.327 C 94.4201,103.327 94.8571,107.68 94.2041,108.331 C 93.5441,108.982 88.1031,109.205 88.1031,109.205 C 82.8611,109.205 82.6601,114.425 82.6601,115.195 C 81.9781,116.245 80.9532,118.064 80.8272,119.667 C 80.8272,119.667 80.7237,120.858 80.7237,120.858 C 80.7237,120.858 92.5761,120.858 92.5761,120.858 C 92.5761,120.858 76.083,149.515 76.083,149.515 z M 95.7781,115.29 C 95.7781,115.29 94.7611,117.055 94.7611,117.055 C 94.5871,116.562 94.3491,115.895 94.1251,115.29 C 94.1251,115.29 95.7781,115.29 95.7781,115.29 z M 89.9611,115.29 C 89.7091,116.093 89.4141,116.999 89.2721,117.467 C 88.6441,117.467 88.1911,117.467 87.6571,117.467 C 87.4431,117.102 86.9191,116.181 86.4191,115.29 C 86.4191,115.29 89.9611,115.29 89.9611,115.29 z M 84.6001,113.233 C 84.2261,112.765 84.6241,111.835 85.4741,111.166 C 86.3311,110.5 87.3241,110.348 87.6911,110.826 C 88.0631,111.295 87.6671,112.224 86.8151,112.883 C 85.9671,113.55 84.9741,113.702 84.6001,113.233 z M 107.052,118.737 C 107.052,118.737 110.619,118.737 110.619,118.737 C 110.619,118.737 110.619,119.764 110.619,119.764 C 110.619,119.764 81.9221,119.764 81.9221,119.764 C 82.0571,118.118 83.4011,116.037 83.9171,115.29 C 83.9171,115.29 85.1561,115.29 85.1561,115.29 C 85.1561,115.29 87.0161,118.57 87.0161,118.57 C 87.0161,118.57 90.0741,118.57 90.0741,118.57 C 90.0741,118.57 91.1141,115.29 91.1141,115.29 C 91.1141,115.29 92.9491,115.29 92.9491,115.29 C 92.9491,115.29 94.1501,118.57 94.1501,118.57 C 94.1501,118.57 103.318,118.57 103.318,118.57 C 103.318,118.57 104.255,115.29 104.255,115.29 C 104.255,115.29 105.955,115.29 105.955,115.29 C 105.955,115.29 107.052,118.737 107.052,118.737 z M 97.3661,117.467 C 97.3661,117.467 98.6221,115.29 98.6221,115.29 C 98.6221,115.29 103.11,115.29 103.11,115.29 C 102.888,116.069 102.627,116.983 102.491,117.467 C 101.687,117.467 99.2981,117.467 97.3661,117.467 z M 103.746,101.451 C 103.746,101.451 103.318,97.0193 103.318,97.0193 C 103.318,97.0193 106.829,95.2783 106.829,95.2783 C 106.986,95.2853 107.14,95.2853 107.29,95.2853 C 107.29,95.2853 103.746,101.451 103.746,101.451 z M 114.884,85.4913 C 111.483,89.3673 100.998,88.0823 87.9771,82.1699 C 92.9971,76.6103 102.039,66.5342 109.513,58.1865 C 118.427,72.0254 118.244,81.6455 114.884,85.4913 z M 114.956,52.0928 C 117.435,49.3203 119.429,47.0703 120.62,45.7285 C 122.431,46.6494 124.243,46.7695 124.243,46.7695 C 132.949,49.5977 132.513,42.2021 132.513,42.2021 C 135.777,42.8525 135.563,37.4189 135.563,37.4189 C 136.865,37.4189 136.865,35.0273 136.865,35.0273 C 137.796,31.6269 135.985,29.1182 134.848,27.9404 C 135.032,27.8613 135.206,27.7734 135.388,27.6797 C 135.388,27.6797 146.193,27.6797 146.193,27.6797 C 146.193,27.6797 122.034,69.6582 122.034,69.6582 C 120.143,63.0957 117.601,57.1777 114.956,52.0928 z M 144.486,63.9541 C 143.349,63.4853 142.198,63.0488 141.086,62.6748 C 141.507,62.0625 141.959,61.4023 142.214,61.0215 C 143.39,61.4199 148.29,63.0332 149.395,63.4043 C 149.411,63.9062 149.442,64.9062 149.468,65.7803 C 147.488,65.0977 145.661,64.4385 144.486,63.9541 z M 154.748,72.4141 C 153.701,72.6602 152.73,72.3984 152.596,71.8105 C 152.453,71.2295 153.192,70.5478 154.241,70.293 C 155.289,70.0391 156.266,70.3086 156.401,70.8965 C 156.545,71.4775 155.807,72.1602 154.748,72.4141 z M 153.368,67.0996 C 153.874,66.3994 154.462,65.5977 154.767,65.1768 C 155.354,65.375 155.782,65.5186 156.291,65.6855 C 156.379,66.1133 156.593,67.1943 156.791,68.2187 C 155.829,67.9102 154.646,67.5215 153.368,67.0996 z M 159.088,68.9668 C 159.079,68.9668 159.079,68.958 159.072,68.958 C 158.96,68.9258 158.569,68.7998 157.991,68.6084 C 157.991,68.6084 157.253,64.8437 157.253,64.8437 C 157.253,64.8437 154.346,63.8818 154.346,63.8818 C 154.346,63.8818 152.278,66.7353 152.278,66.7353 C 151.715,66.5439 151.143,66.3525 150.578,66.1631 C 150.578,66.1631 150.476,62.6025 150.476,62.6025 C 150.476,62.6025 141.768,59.7197 141.768,59.7197 C 141.768,59.7197 139.989,62.332 139.989,62.332 C 139.376,62.1592 138.789,62.0146 138.232,61.9111 C 138.232,61.9111 138.272,58.3848 138.272,58.3848 C 138.272,58.3848 134.889,57.2656 134.889,57.2656 C 134.889,57.2656 135.206,56.2949 135.206,56.2949 C 135.206,56.2949 162.464,65.3115 162.464,65.3115 C 161.797,66.8769 159.764,68.4736 159.088,68.9668 z"
         id="path222" />
    </g>
    <g
       transform="matrix(1.25,0,0,1.25,374.39441,408.69388)"
       id="g224"
       style="fill:#161413;fill-rule:evenodd;stroke:none;stroke-width:1;stroke-linecap:butt;stroke-linejoin:miter;stroke-dasharray:none">
      <path
         d="M 4.281,0 C 1.914,0 0,1.914 0,4.283 C 0,6.64 1.914,8.564 4.281,8.564 C 6.65,8.564 8.564,6.64 8.564,4.283 C 8.564,1.914 6.65,0 4.281,0 z M 4.281,7.642 C 2.423,7.642 0.912,6.14 0.912,4.283 C 0.912,2.423 2.423,0.914 4.281,0.914 C 6.142,0.914 7.65,2.423 7.65,4.283 C 7.65,6.14 6.142,7.642 4.281,7.642 z"
         id="path226" />
    </g>
    <g
       transform="matrix(1.25,0,0,1.25,377.54191,410.98763)"
       id="g228"
       style="fill:#161413;fill-rule:evenodd;stroke:none;stroke-width:1;stroke-linecap:butt;stroke-linejoin:miter;stroke-dasharray:none">
      <path
         d="M 3.52,1.455 C 3.52,0.651 2.869,0 2.065,0 C 2.065,0 0,0 0,0 C 0,0 0,4.893 0,4.893 C 0,4.893 0.92,4.893 0.92,4.893 C 0.92,4.893 0.92,2.9 0.92,2.9 C 0.92,2.9 1.581,2.9 1.581,2.9 C 1.581,2.9 2.511,4.893 2.511,4.893 C 2.511,4.893 3.52,4.893 3.52,4.893 C 3.52,4.893 2.558,2.819 2.558,2.819 C 3.115,2.621 3.52,2.081 3.52,1.455 z M 2.065,1.986 C 2.065,1.986 0.92,1.986 0.92,1.986 C 0.92,1.986 0.92,0.914 0.92,0.914 C 0.92,0.914 2.065,0.914 2.065,0.914 C 2.367,0.914 2.605,1.153 2.605,1.455 C 2.605,1.748 2.367,1.986 2.065,1.986 z"
         id="path230" />
    </g>
  </g>
</svg>
