<svg xmlns="http://www.w3.org/2000/svg" version="1" width="640" height="480"><defs><clipPath id="b"><path d="M49.5 39.144h126v113.312h-126V39.144z"/></clipPath><clipPath id="a"><path d="M0 0h360v576H0V0z"/></clipPath><clipPath id="e"><path d="M56.171 48.831h112.658v93.937H56.171V48.831z"/></clipPath><clipPath id="d"><path d="M49.5 39.144h126v113.312h-126V39.144z"/></clipPath><clipPath id="c"><path d="M0 0h360v576H0V0z"/></clipPath><clipPath id="g"><path d="M49.5 39.144h126v113.312h-126V39.144z"/></clipPath><clipPath id="f"><path d="M0 0h360v576H0V0z"/></clipPath></defs><g clip-path="url(#a)" transform="matrix(5.00806 0 0 -4.89135 -243.294 705.278)"><g clip-path="url(#b)"><path d="M129.604 64.288c-.199.301-.675.448-.866.971-.088.236-.144.533-.341.635 0 0-.776-1.189-.407-2.959.792-.194 1.593.619 1.593.619s.16.524.021.734m-4.769 1.568c-.962-.374-1.269-1.083-1.269-1.083s.196-.152.382-.425.234-.66.246-.781c.012-.12 1.032.02 1.032.02.288.072 1.082 2.21 1.082 2.21s.168.477.09.579c-.079.103-.599-.144-1.563-.52" fill="#fff"/><path d="M152.159 120.411l-5.598-1.116c-.224-.045-22.61-4.456-36.722-4.456-13.938 0-35.893 4.275-36.821 4.457l-7.111 1.356 43.884-70.909 43.934 71.026-1.566-.358z" fill="#010101"/><path d="M146.884 117.504c-.928-.184-22.89-4.489-37.045-4.489-14.098 0-36.204 4.305-37.138 4.488l-3.124.619 40.214-64.096 40.214 64.1-3.121-.622z" fill="#f28f20"/><path d="M146.981 116.96c-.929-.184-22.922-4.499-37.142-4.499-14.147 0-36.307 4.316-37.243 4.499l-1.894.376 39.089-62.304 39.089 62.307-1.899-.379z" fill="#05535d"/><path d="M145.729 115.371c-3.72-.695-22.935-4.162-35.89-4.162-12.95 0-32.114 3.56-35.825 4.273l-.458.088 36.236-57.716 36.394 57.602-.457-.085z" fill="#fff"/><path d="M68.178 119.132l15.788-25.179s-1.163 10.242 4.395 12.809c5.558 2.568 12.228 7.587 12.228 7.587l-32.411 4.783z" fill="#010101"/><path d="M142.897 104.288c-5.913-2.536-7.31-3.356-7.724-3.915l-.018-.026c-4.293 3.755-9.042 7.366-13.454 10.213 0 0 2.888.113 2.326.472-.66 1.408-1.517 2.899-2.537 4.496-1.701.001-8.125-.689-11.651-.689-1.659 0-3.432.061-5.268.168.148-.342.277-.672.381-.992-1.099-.085-3.884-.724-4.663-.828-.919-.123-2.492-.472-3.703-.833-10.26-2.189-13.873-7.02-14.035-7.296l.163-.326.088-.525c-.008-.076 1.469-.138 1.469-1.11 0-2.265 1.331-7.136 3.226-11.77-1.065-.096 6.242-13.902 5.042-13.871l.893-1.28c6.771-1.742 9.147-1.986 15.436-1.852l.687.014c1.625-1.063 3.458-2.262 5.248-3.348 1.076-.653 2.495-1.566 3.998-2.533.636-.409 2.516.441 3.105.066 0 0 21.723 34.922 21.861 36.147 0 0-.592-.263-.87-.382" fill="#fff"/><path d="M84.731 92.32c.119-.32.416-.819.647-1.369 1.863 0 3.217.323 4.407.365 0 0 5.214-5.416 5.32-3.444.106 1.969-3.225 5.993-6.211 5.549-2.987-.445-4.573.324-4.163-1.101" fill="#05535d"/><path d="M152.886 75.472c-1.268 2.831-1.457 3.397-1.457 3.397s-1.079 4.918-1.952 6c-.872 1.083-2.379 1.748-2.379 1.748s-.167.219-.469.601c1.331 2.346 3.54 6.527 5.455 11.512 2.974 7.743 4.223 11.051 3.213 10.677-1.012-.375-7.909-3.996-12.133-5.806-4.221-1.811-7.017-3.123-7.432-3.684-.185-.25-.311-.461-.447-.648-4.023 3.567-8.942 7.423-13.954 10.658-6.581 4.245-7.452 4.661-10.546 4.911-3.092.25-8.559-.078-11.196-.43-1.001-.134-2.097-.406-3.12-.711-10.108-2.14-13.918-8.639-13.918-8.639s-.605-6.117 2.18-12.738c1.863 0 3.331.291 4.52.333 6.42-3.864 5.556-5.59 3.571-6.665 2.998-2.202 7.983-6.303 8.913-6.617 1.487-.506 2.948-1.167 3.671-1.556 1.961-1.062 5.945-3.871 9.751-6.182 3.806-2.31 11.713-7.744 13.556-8.056 1.843-.312 4.465-.763 5.892-.7 1.425.061 2.278.408 2.278.408s1.933-.583 3.835-.583c1.904 0 3.279.752 3.279.752s1.427-.874 4.519-1.124c0 0 2.026-.169 3.929-.145 1.965-.045 3.394.3 3.615.576.361.451-1.905 9.881-3.174 12.711" fill="#010101"/><path d="M137.451 64.643c-1.51-.001-4.222-.003-5.316.197l-.478.086.419.259c.624.388 1.342.848 1.801 1.22-1.77-.075-4.638.02-5.498.246l-.317.083.24.235c.231.227.578.51.945.808.394.321.816.669 1.112.961-1.291-.142-3.242-.307-4.201-.268l-.392.015.337.376c.287.319.826.922 1.084 1.418l-.054-.01c-1.045-.185-2.476-.44-3.078-.417l-.33.012.189.283c.27.398.544.815.726 1.128l-.27-.054c-.755-.163-1.693-.368-2.199-.204l-.24.077.149.212c.288.412.407.695.464.885-.555-.146-1.448-.323-1.95-.107l-.247.105.189.2c.143.15.271.395.346.6-2.138.021-3.366-.357-3.366-.357 3.33-.125 6.699-5.286 7.572-6.243.872-.957 3.488-2.207 6.779-2.581 2.503-.285 4.257.052 4.761.17.268.18.542.402.823.665" fill="#fff"/><path d="M134.721 67.971c-3.607 1.955-5.788 3.745-10.148 4.619-1.25.251-2.365.361-3.317.391a2.52 2.52 0 0 0-.284-.61c.458-.056 1.171.083 1.754.259l.228.067v-.248c0-.17-.078-.537-.425-1.105.472-.031 1.201.121 1.768.245l.979.194-.134-.324c-.101-.246-.368-.672-.732-1.222.69.052 1.85.257 2.663.401l.656.116-.076-.284c-.138-.519-.679-1.172-1.08-1.629 1.063.007 2.873.162 4.217.323l.389.046-.222-.338c-.241-.372-.876-.89-1.491-1.39-.236-.193-.449-.37-.64-.535 1.18-.175 3.968-.257 5.531-.144l.433.03-.286-.342c-.303-.361-1.038-.864-1.803-1.348 1.276-.128 3.53-.126 4.821-.125l.815.001-.306-.32a7.627 7.627 0 0 0-.839-.772c.594-.125 1.695-.339 2.365-.369 1.109-.047 2.418-.166 3.806.166-1.943.915-5.035 2.29-8.642 4.247" fill="#fff"/><path d="M106.019 102.31s2.061-1.582 4.202-4.495c2.142-2.914 3.568-5.162 3.172-5.412-.396-.25-1.982.5-1.982.5s3.448-2.242 6.62-5.155c3.17-2.915 4.796-4.585 4.796-4.585s5.155.084 5.709-1.249c.556-1.332.794-1.914 1.19-2.664.396-.749 2.855-4.495 3.171-4.495.318 0 1.277.005 1.515.255.238.251.626 1.077.626 1.077s.318-1.832-.317-2.747c.626-.503 6.506-4.474 11.622-6.736 4.453-1.967 8.448-3.563 8.844-3.146.397.416-1.755 8.717-3.023 11.547-1.269 2.83-1.458 3.397-1.458 3.397s-1.079 4.918-1.952 6c-.871 1.083-2.378 1.749-2.378 1.749s-3.884 5.087-8.325 9.416c-4.439 4.329-10.863 9.647-17.442 13.893-6.582 4.246-7.453 4.662-10.546 4.911-3.092.25-8.007-.24-10.623-.739-2.617-.5-6.107-1.831-6.107-1.831s3.569-1.749 7.295-4.829l5.391-4.662z" fill="#05535d"/><path d="M126.039 80.208s1.387-1.332 2.22-2.58c.833-1.25 2.22-3.539 2.22-3.539s-1.864.874-2.378 1.166c-.515.292-.951.624-.951.624s-.595 1.415-.754 2.289c-.159.875-.357 2.04-.357 2.04" fill="#f28f20"/><path d="M116.215 84.025l.942-1.362s-1.031-4.397-.907-5.708c0 0-.76 3.15-.035 7.07M113.914 86.262l.941-1.564s-.864-4.869-.646-6.522c0 0-1.018 3.588-.295 8.086M111.637 88.297l.941-1.362s-.743-5.098-.524-7.284c0 0-1.163 3.839-.417 8.646" fill="#05535d"/></g></g><g clip-path="url(#c)" transform="matrix(5.00806 0 0 -4.89135 -243.294 705.278)"><g clip-path="url(#d)"><g clip-path="url(#e)"><path d="M106.455 96.233s-8.206 5.412-13.597 6.951c-5.392 1.54-5.867 1.749-6.185 1.498-.317-.249-1.228-.957-1.228-.957s.792 1.665 1.189 1.665 3.727-.583 8.444-2.497c4.628-1.879 8.524-4.62 11.377-6.66" fill="#05535d"/><path d="M89.231 92.05s-4.938-.534-14.096-.909c-9.158-.375-18.917-.46-18.962-.651-.178-.749 11.804-6.506 26.268-10.524 15.613-4.336 17.671-5.086 26.413-4.899-.892 1.311-1.902 2.372-3.627 3.809-1.725 1.436-10.109 9.927-15.996 13.174M104.216 102.039s4.697.875 10.05-.187c5.352-1.061 14.544-4.501 15.09-4.142.952.623-6.941 16.607-14.129 25.654-6.414 8.073-15.649 16.276-22.487 19.397-.742.339 5.768-11.301 8.443-18.98 2.676-7.68 2.23-11.565 2.23-11.565s-6.392.375-10.911-.749c-4.52-1.124 2.794-7.367 11.714-9.428M128.924 68.777c-.022.026-.467.408-.741.818-.014.262-.065.831-.272 1.024-.042.257-.422.349-.855.344-.747-.009-.946.238-2.005.062-1.061-.177-3.258-.654-9.04-.633 0 0-7.865-.043-11.801.246-3.936.29-5.67.602-5.983.39-.312-.208-6.167-4.73-9.556-8.317-3.386-3.588-6.142-7.292-7.814-9.418-1.671-2.122-2.368-3.368-2.326-3.533.022-.085.426-.729.479-.866.082-.206 3.145.156 5.622.224 2.477.067 5.742.101 5.858.268.117.166 1.843 4.727 5.265 8.604 3.426 3.877 7.243 7.716 7.635 7.678.395-.036 9.83.271 14.232.73 4.399.459 10.136 1.099 10.487 1.349.351.252 1.093.703.815 1.03" fill="#010101"/></g></g></g><g clip-path="url(#f)" transform="matrix(5.00806 0 0 -4.89135 -243.294 705.278)"><g clip-path="url(#g)"><path d="M95.211 64.324a70.874 70.874 0 0 1-3.708.156 48.653 48.653 0 0 1-2.421-2.365l-.488-.524c2.349.277 6.335.636 8.907.264.462.519.931 1.037 1.392 1.537-.704.429-1.841.811-3.682.932M88.209 61.171a86.093 86.093 0 0 1-2.204-2.521c.975.099 2.389.188 4.508.256 1.81.056 3.205-.056 4.147-.326.122.156.233.289.328.397l.044.05c.639.744 1.391 1.611 2.173 2.496-2.513.295-6.418-.033-8.996-.352M90.524 58.533c-2.411-.076-3.9-.182-4.866-.297-.25-.304-.494-.599-.733-.892.707.124 1.677.269 2.989.417l.425.05c2.385.27 4.665.53 5.948.277.046.063.089.124.134.181-.764.194-1.977.325-3.897.264M87.045 53.564c2.155.098 3.097.141 4.283-.13.332.6.677 1.187 1.02 1.748-.755.317-1.856.593-3.417.609-2.008.02-3.83-.011-5.317-.087-.512-.648-.987-1.26-1.42-1.821l-.664-.85c1.289.21 3.025.418 4.863.501l.652.03z" fill="#fff"/><path d="M88.376 57.44l-.424-.048a44.9 44.9 0 0 1-3.387-.494c-.221-.274-.437-.545-.647-.809 1.433.066 3.143.094 5.015.073 1.657-.017 2.817-.312 3.614-.657a43.251 43.251 0 0 0 1.501 2.256c-1.269.182-3.576-.081-5.672-.321M92.055 64.983c-.05-.046-.102-.09-.152-.138a75.489 75.489 0 0 0 3.33-.15c1.721-.114 3.031-.458 3.916-1.025l.299.32a7.988 7.988 0 0 1-.821.338c-1.023.356-4.804.571-6.572.655" fill="#fff"/><path d="M94.948 67.485c-.79-.659-1.649-1.392-2.499-2.148 1.904-.095 5.287-.308 6.289-.656a7.98 7.98 0 0 0 .974-.411c.809.852 1.555 1.598 2.15 2.115-.609.339-1.616.657-3.268.865-1.498.19-2.692.25-3.646.235M92.72 55.107l.084-.505c.451.721.921 1.405 1.406 2.053l-.094.581a43.887 43.887 0 0 1-1.396-2.129M94.934 57.576c.186.225.372.451.562.666.024.027.785.887 1.83 2.023-.024.2-.06.456-.101.733a227.258 227.258 0 0 1-1.93-2.219l-.047-.054a11.885 11.885 0 0 1-.433-.532l.119-.617M99.191 63.174l.184-.72.283.296-.103.818c-.119-.128-.241-.259-.364-.394M101.849 65.899a44.673 44.673 0 0 1-1.978-1.996c.031-.259.069-.551.103-.829a48.937 48.937 0 0 0 1.897 1.861c-.006.313-.014.659-.022.964M92.521 54.137l-.083.506a45.06 45.06 0 0 1-.832-1.442c.027-.175.053-.357.079-.532.271.503.55.993.836 1.468M98.904 62.862c-.433-.471-.89-.978-1.369-1.516l.104-.74c.453.489.944 1.017 1.447 1.545l-.182.711M94.527 57.811l-.117-.164c.031-.202.065-.408.098-.607.045.058.087.118.135.176l-.116.595" fill="#fff"/><path d="M128.063 68.89c-.204.099-.511.25-.559.669l-.013.26c-.009.427-.035.44-.27.438-.312-.003-.545.035-.749.068-.324.053-.603.099-1.207-.002l-.288-.05c-1.129-.196-3.479-.607-8.805-.587-.079 0-7.925-.039-11.828.248l-3.57.309c-1.131.108-2.022.192-2.213.128a89.168 89.168 0 0 1-3.164-2.515 27.301 27.301 0 0 0 3.239-.236c1.605-.203 2.781-.532 3.523-.985.404.327.712.511.878.496.579-.042 10.032.112 14.36.565l7.709.781c1.426.139 1.808.177 1.91.218l.03.013h.031c.295.002.77.03 1.18.067a1.323 1.323 0 0 1-.194.115M87.06 53.192l-.651-.029a42.393 42.393 0 0 1-5.217-.564c-1.103-1.411-1.591-2.189-1.805-2.601.636.03 1.635.091 2.5.144l2.809.152c1.573.046 4.553.141 5.193.208.349.839.784 1.724 1.256 2.595-1.083.233-1.998.192-4.085.095" fill="#f28f20"/><path d="M168.691 103.971c.138 1.051.138 2.042.138 2.042s-1.71.469-2.727.496c-1.017.025-2.726-.248-2.726-.248s-.954-1.43-1.178-2.045c-.06-.157.253-1.68.253-1.68s-1.464-2.739-2.477-4.771a117.692 117.692 0 0 0-5.026-9.041c-2.124-3.464-3.717-6.081-3.717-6.081l.73-1.774.686.528.174.069.594-.051s1.083 1.28 2.477 2.748c1.396 1.466 4.502 6.56 6.492 9.457 1.987 2.897 3.901 7.188 3.901 7.188s.987.108 1.552.372c.565.265.697 1.142.697 1.142s.036.722.157 1.649" fill="#010101"/><path d="M164.9 104.387l2.212-.046c.142.162.571.67.853 1.199-.431.053-1.303.151-2.021.169-.814.021-1.898-.26-2.22-.35a11.44 11.44 0 0 1-.732-1.16c.49.111 1.133.2 1.908.188M153.054 83.841l.263.26-.13-.398a1.27 1.27 0 0 0-.086-.311c.123.038.507.241.507.241s-.6-1.117-.767-1.353c.046.03.574.467.62.496.574.413 3.718 4.895 6.569 9.79 1.317 2.264 4.42 7.884 6.134 10.628-.303.038-.755.064-1.148.086-.641.037-.986-.109-1.293-.236l-.371-.133c-.135-.157-.479-.801-.479-.801a268.513 268.513 0 0 1-2.425-4.716c-.979-1.966-2.959-5.634-4.893-8.919-1.266-2.15-2.708-4.237-3.705-5.389.201.177 1.085.638 1.204.755" fill="#f28f20"/><path d="M152.785 83.028c-.103-.032-.198-.059-.208-.062-.304-.267-.701-.354-.849-.416.049-.104.388-.822.439-.933l.272.209c-.03.089-.067.2-.109.337.154.278.322.679.455.865" fill="#f28f20"/><path d="M125.226 63.587s-1.02-.14-1.032-.02c-.012.121-.06.508-.246.781s-.382.425-.382.425.307.709 1.269 1.083c.964.376 1.484.623 1.563.52.078-.102-.09-.579-.09-.579s-.794-2.138-1.082-2.21" fill="#010101"/><path d="M125.882 65.927l-.332-.132-.58-.23a2.081 2.081 0 0 1-.969-.732 2.28 2.28 0 0 0 .255-.313c.075-.109.267-.443.309-.562.425.591 1.219 1.572 1.317 1.969" fill="#f28f20"/><path d="M155.587 78.577s.888.531.817.65c-.07.122-.29.519-.328.897-.036.376.016.648.016.648s-.708.466-1.708.195c-1.001-.273-1.571-.379-1.562-.526.006-.147.136-.547.136-.547s2.357-1.438 2.629-1.317" fill="#010101"/><path d="M153.522 80.352c.109.032.228.061.346.092l.606.16c.56.153 1.001.038 1.239-.058a3.073 3.073 0 0 1 .01-.46c.014-.151.051-.299.096-.438-.723.28-1.642.601-2.297.704" fill="#f28f20"/><path d="M129.604 64.288c-.199.301-.675.448-.866.971-.088.236-.144.533-.341.635 0 0-.776-1.189-.407-2.959.792-.194 1.593.619 1.593.619s.16.524.021.734" fill="#010101"/><path d="M129.092 63.732l.049.044-.044.065c-.162.25-.396.64-.593 1.102l-.069.158-.045-.149a4.116 4.116 0 0 1-.153-1.557l.009-.1.291.081c.176.073.363.193.555.356" fill="#f28f20"/><path d="M113.15 49.682v2.015h-.59v.41h1.58v-.41h-.59v-2.015h-.4zM114.392 49.682v2.425h.601l.361-1.656.355 1.656h.606v-2.425h-.374v1.911l-.396-1.911h-.386l-.392 1.911v-1.911h-.375z" fill="#010101"/></g></g></svg>