<svg xmlns="http://www.w3.org/2000/svg" width="250" height="214" viewBox="0 0 250 214"><path fill="#0F1F48" d="M47.296 10.8s9.19 13.777 11.88 20.833c.1.243.16.582.24.81.577 1.656.564 3.23.147 3.805-.986 1.362-2.64 1.965-6.57 1.866L35.856 10.8H5l72.2 117.35a83.396 83.396 0 0 0-2.722-.048c-13.668 0-26.444 3.502-35.972 9.858-11.17 7.452-16.835 16.8-16.835 27.78 0 10.58 6 20.407 16.894 27.672 9.463 6.312 22.22 9.788 35.917 9.788 13.33 0 26.01-3.565 35.712-10.04 10.83-7.226 16.795-16.95 16.795-27.386 0-4.72-1.252-9.277-3.94-14.344l-.125-.235-16.847-26.9c3.256.544 6.485.597 8.844.597 4.655 0 8.482-.702 8.633-.734 1.3-.273 4.982-1.11 4.982-1.11l-4.714-6.85c1.767.124 11.185.595 19.482.04 5.795-.387 11.043-1.696 12.762-2.183 1.5-.425 5.936-2.045 5.936-2.045l-6.034-5.99c6.51-.103 13.215-1.67 22.012-5.68 14.357-6.548 22.52-15.995 25.492-19.856h-1.562c2.225-1.253 4.79-2.912 6.92-4.65 4.115-3.36 7.107-6.75 9.343-10.29.912-1.443 1.8-2.882 2.41-4.114.858-1.74 1.263-3.03 1.263-3.03h-1.672c1.28-1.058 5.276-4.755 8.097-9.91 1.313-2.4 2.393-5.15 3.084-7.318.666-2.087.967-3.64.967-3.64h-2.63c2.854-1.997 7.308-6.34 10.675-12.596 1.632-3.033 2.905-6.346 3.652-9.09.768-2.83.986-5.046.986-5.046H47.296z"/><path fill="#fff" d="M53.053 14.293l2.408 3.486c.05.072 5.047 7.34 7.184 13.482 1.02 2.928.62 5.73.192 6.514-1.77 3.24-8.08 3.59-10.71 3.59-.375 0-.756-.007-1.134-.02L33.93 14.292H11.25L83.764 132.15a79.528 79.528 0 0 0-9.286-.555c-12.986 0-25.073 3.292-34.034 9.27-10.14 6.765-15.28 15.134-15.28 24.874 0 9.374 5.447 18.17 15.338 24.766 8.896 5.934 20.963 9.2 33.98 9.2 12.644 0 24.638-3.355 33.77-9.45 9.83-6.56 15.24-15.253 15.24-24.48 0-4.128-1.122-8.166-3.53-12.707l-.067-.126-21.33-34.06c2.552.67 12.038 2.515 16.354 2.515 4.315 0 7.62-.756 7.62-.756l-6.152-8.674c2.53.16 12.388 1.313 21.423.907 9.676-.435 13.41-1.363 17.6-2.376l-7.265-7.62c6.192-.113 16.234-.296 28.25-5.777 11.145-5.08 17.838-11.988 20.895-15.958h-6.3c6.062-1.707 10.794-4.07 15.63-8.02 6.88-5.62 9.67-12.252 9.67-12.252l-6.575-.014c1.052-.67 3.484-1.923 6.193-3.97 2.488-1.882 5.17-4.514 7.22-7.067 1.346-1.675 3.83-5.862 4.28-9.805l-6.727-.01c2.807-2.02 9.84-7.26 14.36-13.725 1.72-2.458 3.216-5.28 4.05-7.582.914-2.52 1.085-4.41 1.085-4.41l-187.122.003z"/><path fill="#FFC325" d="M57.29 16.516s5.188 7.506 7.453 14.016c1.23 3.537.773 6.975.043 8.31-2.257 4.13-8.9 4.747-12.66 4.747-.972 0-1.803-.043-2.402-.085l-17.02-26.99H15.228L88.176 135.08c-4.29-.827-9.157-1.262-13.698-1.262-12.332 0-24.017 3.037-32.8 8.896-9.546 6.368-14.292 14.017-14.292 23.024 0 8.713 5.288 16.874 14.348 22.917 8.78 5.856 20.412 8.828 32.746 8.828 12.346 0 23.762-3.222 32.538-9.078 9.052-6.04 14.25-13.917 14.25-22.632 0-3.75-1.04-7.456-3.272-11.665l-.033-.063-24.002-39.028c6.085 1.812 15.52 4.278 20.88 4.035l4.265-.194-2.604-3.383c-.03-.038-2.167-2.823-3.997-5.79 5.165.386 14.348.97 22.575.97 3.02 0 8.222-.214 11.983-.57 2.554-.244 4.476-.676 4.476-.676l-7.976-8.46c.495.007 1.017.012 1.564.012h.002c5.752 0 18.615-.48 29.415-5.288 5.6-2.494 10.616-5.612 14.013-8.535 2.78-2.394 4.48-4.884 4.48-4.884h-9.405c8.202-2.642 15.448-5.67 22.14-11.194 2.714-2.24 4.482-4.954 5.383-6.67.44-.84.62-1.47.704-1.63h-9.442c.865-.47 10.717-5.663 16.323-11.23 2.724-2.704 4.248-5.503 4.845-7.41.393-1.26.25-2.21.25-2.21h-10.174c4.472-2.805 12.38-8.138 17.572-14.398 2.007-2.42 3.906-5.302 4.883-7.502.907-2.043.962-3.497.962-3.497H57.29z"/><path fill="#0447A0" d="M233.996 18.74H61.426c19.958 31.123-13 26.877-13 26.877L31.477 18.74h-12.28l73.34 119.736c-5.438-1.56-11.73-2.436-18.058-2.436-24.598 0-44.57 13.326-44.57 29.733 0 16.434 19.972 29.74 44.57 29.74 24.63 0 44.57-13.307 44.57-29.74 0-3.826-1.213-7.228-3.015-10.623l-27.09-44.048s17.9 6.09 25.797 5.73c0 0-4.332-5.626-6.146-9.693 0 0 26.422 2.4 38.282.658l-8.655-9.346s32.8 3.5 49.598-13.974H97.856l-1.436-2.243h79.225c10.81-2.79 26.975-8.31 32.224-17.252H86.052l-1.436-2.243H197.65c7.562-3.813 21.817-11.81 23.39-18.604H72.95l-1.436-2.243H209.39c7.102-4.167 21.428-13.564 24.606-23.154z"/></svg>