<?xml version="1.0" encoding="utf-8"?>
<!-- Generator: Adobe Illustrator 14.0.0, SVG Export Plug-In . SVG Version: 6.00 Build 43363)  -->
<!DOCTYPE svg PUBLIC "-//W3C//DTD SVG 1.1//EN" "http://www.w3.org/Graphics/SVG/1.1/DTD/svg11.dtd">
<svg version="1.1" id="Layer_3" xmlns="http://www.w3.org/2000/svg" xmlns:xlink="http://www.w3.org/1999/xlink" x="0px" y="0px"
	 width="250px" height="214px" viewBox="0 0 250 214" enable-background="new 0 0 250 214" xml:space="preserve">
<g>
	<path fill="#0F1F48" d="M47.296,10.8c0,0,9.189,13.777,11.879,20.833c0.102,0.243,0.162,0.582,0.242,0.811
		c0.576,1.655,0.563,3.229,0.146,3.804c-0.986,1.362-2.64,1.965-6.57,1.866L35.856,10.8H5l72.201,117.35
		c-0.917-0.031-1.828-0.048-2.723-0.048c-13.668,0-26.444,3.502-35.972,9.858c-11.171,7.452-16.835,16.799-16.835,27.779
		c0,10.58,6,20.408,16.893,27.673c9.463,6.312,22.219,9.788,35.917,9.788c13.328,0,26.01-3.565,35.711-10.039
		c10.83-7.227,16.795-16.952,16.795-27.387c0-4.72-1.252-9.277-3.94-14.344l-0.125-0.235l-16.847-26.899
		c3.256,0.543,6.485,0.596,8.844,0.596c4.656,0,8.483-0.702,8.634-0.734c1.3-0.273,4.982-1.111,4.982-1.111l-4.714-6.848
		c1.766,0.123,11.184,0.594,19.481,0.039c5.795-0.387,11.043-1.696,12.762-2.183c1.501-0.425,5.936-2.045,5.936-2.045l-6.034-5.989
		c6.51-0.104,13.215-1.67,22.012-5.682c14.357-6.547,22.519-15.994,25.492-19.855h-1.562c2.225-1.253,4.791-2.912,6.92-4.651
		c4.115-3.36,7.107-6.748,9.343-10.288c0.911-1.444,1.799-2.883,2.408-4.115c0.859-1.739,1.264-3.03,1.264-3.03l-1.672,0
		c1.278-1.058,5.275-4.755,8.096-9.911c1.313-2.398,2.393-5.149,3.084-7.317c0.665-2.087,0.966-3.639,0.966-3.639l-2.63,0
		c2.854-1.998,7.308-6.341,10.675-12.597c1.632-3.033,2.905-6.346,3.652-9.091C244.782,13.015,245,10.8,245,10.8L47.296,10.8z"/>
	<path fill="#FFFFFF" d="M53.053,14.293l2.408,3.486c0.05,0.073,5.046,7.342,7.183,13.483c1.019,2.928,0.62,5.73,0.192,6.514
		c-1.771,3.239-8.08,3.59-10.71,3.59c-0.375,0-0.756-0.007-1.134-0.021L33.929,14.293H11.25l72.514,117.858
		c-3.04-0.363-6.218-0.556-9.286-0.556c-12.986,0-25.073,3.292-34.034,9.271c-10.139,6.764-15.28,15.133-15.28,24.873
		c0,9.375,5.447,18.17,15.338,24.767c8.896,5.934,20.963,9.201,33.979,9.201c12.645,0,24.639-3.356,33.772-9.452
		c9.828-6.558,15.24-15.252,15.24-24.48c0-4.127-1.123-8.165-3.532-12.706l-0.066-0.125l-21.331-34.06
		c2.553,0.669,12.039,2.515,16.355,2.515c4.316,0,7.622-0.755,7.622-0.755l-6.153-8.674c2.531,0.161,12.388,1.313,21.423,0.907
		c9.675-0.435,13.41-1.363,17.599-2.376l-7.265-7.622c6.192-0.112,16.234-0.295,28.251-5.776
		c11.144-5.081,17.837-11.988,20.894-15.958h-6.299c6.061-1.707,10.793-4.07,15.628-8.019c6.882-5.62,9.672-12.253,9.672-12.253
		l-6.576-0.014c1.052-0.67,3.484-1.922,6.193-3.97c2.488-1.881,5.169-4.513,7.22-7.066c1.346-1.675,3.829-5.862,4.279-9.805
		l-6.726-0.01c2.806-2.02,9.838-7.26,14.36-13.725c1.72-2.458,3.215-5.281,4.049-7.582c0.914-2.52,1.085-4.41,1.085-4.41
		L53.053,14.293z"/>
	<path fill="#FFC325" d="M57.29,16.516c0,0,5.188,7.506,7.453,14.016c1.231,3.537,0.773,6.975,0.043,8.311
		c-2.257,4.129-8.901,4.746-12.661,4.746c-0.971,0-1.802-0.042-2.401-0.084L32.703,16.516H15.229L88.177,135.08
		c-4.29-0.827-9.157-1.262-13.698-1.262c-12.331,0-24.016,3.037-32.8,8.896c-9.545,6.368-14.291,14.017-14.291,23.024
		c0,8.713,5.288,16.874,14.348,22.917c8.78,5.856,20.412,8.828,32.746,8.828c12.346,0,23.762-3.222,32.538-9.078
		c9.052-6.04,14.251-13.917,14.251-22.632c0-3.749-1.04-7.456-3.273-11.665l-0.033-0.063l-24.002-39.028
		c6.085,1.812,15.521,4.278,20.88,4.035l4.265-0.194l-2.604-3.383c-0.03-0.038-2.167-2.823-3.997-5.791
		c5.165,0.387,14.348,0.971,22.575,0.971c3.021,0,8.222-0.214,11.983-0.571c2.554-0.243,4.476-0.675,4.476-0.675l-7.977-8.46
		c0.495,0.008,1.017,0.013,1.564,0.013c0.001,0,0.001,0,0.002,0c5.752,0,18.615-0.479,29.415-5.288
		c5.599-2.494,10.616-5.612,14.013-8.535c2.781-2.393,4.481-4.883,4.481-4.883h-9.406c8.202-2.642,15.448-5.67,22.141-11.194
		c2.713-2.24,4.481-4.954,5.382-6.669c0.441-0.842,0.621-1.47,0.704-1.632h-9.442c0.865-0.468,10.717-5.662,16.323-11.23
		c2.723-2.703,4.247-5.502,4.844-7.41c0.393-1.258,0.251-2.208,0.251-2.208h-10.175c4.471-2.806,12.379-8.139,17.571-14.399
		c2.007-2.419,3.906-5.302,4.883-7.502c0.907-2.043,0.962-3.497,0.962-3.497H57.29z"/>
	<path fill="#0447A0" d="M233.996,18.739H61.426c19.958,31.124-12.999,26.878-12.999,26.878L31.477,18.739H19.197l73.339,119.737
		c-5.438-1.561-11.729-2.436-18.058-2.436c-24.598,0-44.57,13.326-44.57,29.733c0,16.434,19.972,29.74,44.57,29.74
		c24.63,0,44.569-13.307,44.569-29.74c0-3.826-1.212-7.228-3.014-10.623l-27.089-44.048c0,0,17.9,6.089,25.796,5.729
		c0,0-4.332-5.625-6.146-9.692c0,0,26.422,2.402,38.282,0.659l-8.655-9.346c0,0,32.798,3.499,49.597-13.974h-3.66H97.856
		l-1.436-2.243h79.225c10.81-2.79,26.975-8.31,32.224-17.252h-3.584H86.053l-1.436-2.243h113.032
		c7.563-3.813,21.818-11.81,23.39-18.604h-5.78H72.95l-1.436-2.243h137.877C216.492,37.726,230.818,28.329,233.996,18.739z"/>
</g>
</svg>
