<svg xmlns="http://www.w3.org/2000/svg" xmlns:xlink="http://www.w3.org/1999/xlink" width="385.248" height="359.438" viewBox="0 0 385.248 359.438"><pattern x="-448.362" y="943.438" width="69" height="69" patternUnits="userSpaceOnUse" viewBox="2.125 -70.896 69 69" overflow="visible"><path fill="none" d="M71.125-1.896h-69v-69h69z"/><path fill="#F6BB60" d="M71.125-1.896h-69v-69h69z"/><g fill="#fff"><path d="M61.772-71.653c.018.072.007.127-.026.19-.053.1-.112.063-.165.128-.05.063-.098.276-.078.362-.17.058-.01.227-.015.35-.002.05-.04.105-.045.16-.01.12.017.267.068.37.097.2.268.414.435.545.19.148.365.572.608.63.177.043.384-.103.543-.142.18-.043.397.01.57-.053.223-.08.128-.337.29-.45.103-.074.286-.01.405-.05.2-.07.34-.264.377-.46.016-.083.01-.146.04-.222.038-.103.11-.16.09-.293-.01-.062-.053-.12-.065-.187-.022-.114.002-.224 0-.337-.003-.2.017-.38-.078-.55-.38-.688-1.236-.93-1.975-.79-.18.035-.288.127-.443.208-.17.088-.14.166-.318.224-.082.026-.217.124-.216.224 0 .115.005.05.012.17-.02.01-.02-.006-.03-.026M54.105-71.653c.018.072.007.127-.026.19-.054.1-.113.063-.166.128-.05.063-.1.276-.08.362-.168.058-.01.227-.014.35-.002.05-.04.105-.045.16-.01.12.017.267.068.37.097.2.268.414.435.545.19.148.365.572.608.63.177.043.384-.103.543-.142.18-.043.396.01.57-.053.222-.08.127-.337.288-.45.104-.074.287-.01.406-.05.2-.07.34-.264.376-.46.016-.083.01-.146.04-.222.038-.103.11-.16.09-.293-.01-.062-.053-.12-.065-.187-.022-.114.002-.224 0-.337-.003-.2.017-.38-.078-.55-.38-.688-1.236-.93-1.975-.79-.18.035-.287.127-.442.208-.17.088-.14.166-.318.224-.08.026-.216.124-.215.224 0 .115.005.05.012.17-.022.01-.022-.006-.03-.026M46.44-71.653c.017.072.006.127-.027.19-.053.1-.112.063-.165.128-.05.063-.1.276-.08.362-.168.058-.01.227-.014.35-.002.05-.04.105-.045.16-.01.12.016.267.067.37.097.2.268.414.435.545.19.148.365.572.608.63.177.043.384-.103.543-.142.18-.043.397.01.57-.053.223-.08.128-.337.29-.45.103-.074.286-.01.405-.05.2-.07.34-.264.376-.46.016-.083.01-.146.04-.222.038-.103.11-.16.09-.293-.01-.062-.053-.12-.065-.187-.023-.114 0-.224 0-.337-.004-.2.016-.38-.08-.55-.38-.688-1.235-.93-1.974-.79-.18.035-.287.127-.442.208-.17.088-.14.166-.318.224-.08.026-.216.124-.215.224.002.115.006.05.013.17-.02.01-.02-.006-.03-.026M38.772-71.653c.018.072.007.127-.026.19-.053.1-.112.063-.165.128-.05.063-.098.276-.078.362-.17.058-.01.227-.015.35-.002.05-.04.105-.045.16-.01.12.017.267.068.37.097.2.268.414.435.545.19.148.365.572.608.63.177.043.384-.103.543-.142.18-.043.397.01.57-.053.223-.08.128-.337.29-.45.103-.074.286-.01.405-.05.2-.07.34-.264.377-.46.016-.083.01-.146.04-.222.038-.103.11-.16.09-.293-.01-.062-.053-.12-.065-.187-.022-.114.002-.224 0-.337-.003-.2.017-.38-.078-.55-.38-.688-1.236-.93-1.975-.79-.18.035-.288.127-.443.208-.17.088-.14.166-.318.224-.082.026-.217.124-.216.224 0 .115.005.05.012.17-.02.01-.02-.006-.03-.026M31.105-71.653c.018.072.007.127-.026.19-.054.1-.113.063-.166.128-.05.063-.1.276-.08.362-.168.058-.01.227-.014.35-.002.05-.04.105-.045.16-.01.12.017.267.068.37.097.2.268.414.435.545.19.148.365.572.608.63.177.043.384-.103.543-.142.18-.043.396.01.57-.053.222-.08.127-.337.288-.45.104-.074.287-.01.406-.05.2-.07.34-.264.376-.46.016-.083.01-.146.04-.222.038-.103.11-.16.09-.293-.01-.062-.053-.12-.065-.187-.022-.114.002-.224 0-.337-.003-.2.017-.38-.078-.55-.38-.688-1.236-.93-1.975-.79-.18.035-.287.127-.442.208-.17.088-.14.166-.318.224-.08.026-.216.124-.215.224 0 .115.005.05.012.17-.022.01-.022-.006-.03-.026M23.44-71.653c.017.072.006.127-.027.19-.053.1-.112.063-.165.128-.05.063-.1.276-.08.362-.168.058-.01.227-.014.35-.002.05-.04.105-.045.16-.01.12.016.267.067.37.097.2.268.414.435.545.19.148.365.572.608.63.177.043.384-.103.543-.142.18-.043.397.01.57-.053.223-.08.128-.337.29-.45.103-.074.286-.01.405-.05.2-.07.34-.264.376-.46.016-.083.01-.146.04-.222.038-.103.11-.16.09-.293-.01-.062-.053-.12-.065-.187-.023-.114 0-.224 0-.337-.004-.2.016-.38-.08-.55-.38-.688-1.235-.93-1.974-.79-.18.035-.287.127-.442.208-.17.088-.14.166-.318.224-.08.026-.216.124-.215.224.002.115.006.05.013.17-.02.01-.02-.006-.03-.026M15.772-71.653c.018.072.007.127-.026.19-.053.1-.112.063-.165.128-.05.063-.098.276-.078.362-.17.058-.01.227-.015.35-.002.05-.04.105-.045.16-.01.12.017.267.068.37.097.2.268.414.435.545.19.148.365.572.608.63.177.043.384-.103.543-.142.18-.043.397.01.57-.053.223-.08.128-.337.29-.45.103-.074.286-.01.405-.05.2-.07.34-.264.377-.46.016-.083.01-.146.04-.222.038-.103.11-.16.09-.293-.01-.062-.053-.12-.065-.187-.022-.114.002-.224 0-.337-.003-.2.017-.38-.078-.55-.38-.688-1.236-.93-1.975-.79-.18.035-.288.127-.443.208-.17.088-.14.166-.318.224-.082.026-.217.124-.216.224 0 .115.005.05.012.17-.02.01-.02-.006-.03-.026M8.105-71.653c.018.072.007.127-.026.19-.054.1-.113.063-.166.128-.05.063-.1.276-.08.362-.168.058-.01.227-.014.35-.002.05-.04.105-.045.16-.01.12.017.267.068.37.097.2.268.414.435.545.19.148.365.572.608.63.177.043.384-.103.543-.142.18-.043.396.01.57-.053.222-.08.127-.337.288-.45.104-.074.287-.01.406-.05.2-.07.34-.264.376-.46.016-.083.01-.146.04-.222.038-.103.11-.16.09-.293-.01-.062-.053-.12-.065-.187-.022-.114.002-.224 0-.337-.003-.2.017-.38-.078-.55-.38-.688-1.236-.93-1.975-.79-.18.035-.287.127-.442.208-.17.088-.14.166-.318.224-.08.026-.216.124-.215.224 0 .115.005.05.012.17-.022.01-.022-.006-.03-.026M.44-71.653c.017.072.007.127-.027.19-.052.1-.113.063-.165.128-.05.063-.1.276-.08.362-.168.058-.01.227-.014.35-.002.05-.04.105-.045.16-.01.12.016.267.067.37.097.2.268.414.435.545.19.148.365.572.608.63.177.043.384-.103.543-.142.18-.043.397.01.57-.053.223-.08.128-.337.29-.45.103-.074.286-.01.405-.05.2-.07.34-.264.376-.46.016-.083.01-.146.04-.222.037-.103.11-.16.09-.293-.01-.062-.052-.12-.065-.187-.022-.114 0-.224 0-.337-.004-.2.016-.38-.08-.55-.38-.688-1.235-.93-1.974-.79-.18.035-.287.127-.442.208-.17.088-.14.166-.318.224-.08.026-.215.124-.215.224.003.115.006.05.013.17-.02.01-.02-.006-.03-.026"/></g><path fill="#fff" d="M69.44-71.653c.017.072.007.127-.027.19-.052.1-.113.063-.165.128-.05.063-.1.276-.08.362-.168.058-.01.227-.014.35-.002.05-.04.105-.045.16-.01.12.016.267.067.37.097.2.268.414.435.545.19.148.365.572.608.63.177.043.384-.103.543-.142.18-.043.397.01.57-.053.223-.08.128-.337.29-.45.103-.074.286-.01.405-.05.2-.07.34-.264.376-.46.016-.083.01-.146.04-.222.037-.103.11-.16.09-.293-.01-.062-.052-.12-.065-.187-.022-.114 0-.224 0-.337-.004-.2.016-.38-.08-.55-.38-.688-1.235-.93-1.974-.79-.18.035-.287.127-.442.208-.17.088-.14.166-.318.224-.08.026-.215.124-.215.224.003.115.006.05.013.17-.02.01-.02-.006-.03-.026M.495-71.653c.018.072.008.127-.026.19-.053.1-.114.063-.166.128-.05.063-.1.276-.08.362-.168.058-.01.227-.014.35-.002.05-.04.105-.045.16-.01.12.017.267.068.37.097.2.268.414.435.545.19.148.365.572.608.63.177.043.384-.103.543-.142.18-.043.396.01.57-.053.222-.08.127-.337.288-.45.104-.074.287-.01.406-.05.2-.07.34-.264.376-.46.016-.083.01-.146.04-.222.037-.103.11-.16.09-.293-.01-.062-.052-.12-.065-.187-.02-.114.002-.224 0-.337-.003-.2.017-.38-.078-.55-.38-.688-1.236-.93-1.975-.79-.18.035-.287.127-.442.208-.17.088-.14.166-.318.224-.08.026-.215.124-.215.224.003.116.006.052.013.17-.02.01-.02-.005-.03-.025"/><g fill="#fff"><path d="M69.44-64c.017.07.006.126-.027.19-.053.1-.112.062-.165.127-.05.063-.1.276-.08.362-.168.057-.01.226-.014.35-.002.05-.04.104-.045.16-.01.12.016.266.067.37.097.198.268.413.435.544.19.148.365.572.608.63.177.043.384-.103.543-.142.18-.043.397.01.57-.053.223-.08.128-.338.29-.45.103-.075.286-.01.405-.052.2-.07.34-.263.376-.46.016-.082.01-.145.04-.22.038-.104.11-.16.09-.294-.01-.062-.053-.12-.065-.187-.023-.114 0-.224 0-.337-.004-.2.016-.38-.08-.55-.38-.688-1.235-.93-1.974-.79-.18.035-.287.127-.442.208-.17.088-.14.166-.318.224-.08.026-.216.124-.215.224.002.115.006.05.013.17-.02.01-.02-.006-.03-.026M61.778-64c.018.07.007.126-.026.19-.053.1-.112.062-.165.127-.05.063-.1.276-.08.362-.168.057-.008.226-.014.35-.002.05-.04.104-.045.16-.01.12.017.266.068.37.097.198.268.413.435.544.19.148.366.572.61.63.176.043.383-.103.542-.142.18-.043.397.01.57-.053.223-.08.128-.338.29-.45.103-.075.286-.01.405-.052.2-.07.34-.263.376-.46.016-.082.01-.145.04-.22.038-.104.11-.16.09-.294-.01-.062-.053-.12-.065-.187-.022-.114.002-.224 0-.337-.003-.2.017-.38-.078-.55-.38-.688-1.236-.93-1.975-.79-.18.035-.287.127-.442.208-.17.088-.14.166-.318.224-.08.026-.216.124-.215.224 0 .115.005.05.012.17-.02.01-.02-.006-.03-.026M54.118-64c.018.07.007.126-.026.19-.053.1-.112.062-.165.127-.05.063-.1.276-.08.362-.168.057-.008.226-.014.35-.002.05-.04.104-.045.16-.01.12.017.266.068.37.097.198.268.413.435.544.19.148.366.572.61.63.176.043.383-.103.542-.142.18-.043.397.01.57-.053.223-.08.128-.338.29-.45.103-.075.286-.01.405-.052.2-.07.34-.263.376-.46.016-.082.01-.145.04-.22.038-.104.11-.16.09-.294-.01-.062-.053-.12-.065-.187-.022-.114.002-.224 0-.337-.003-.2.017-.38-.078-.55-.38-.688-1.236-.93-1.975-.79-.18.035-.287.127-.442.208-.17.088-.14.166-.318.224-.08.026-.216.124-.215.224 0 .115.005.05.012.17-.02.01-.02-.006-.03-.026M46.458-64c.018.07.007.126-.026.19-.053.1-.112.062-.165.127-.05.063-.1.276-.08.362-.168.057-.008.226-.014.35-.002.05-.04.104-.045.16-.01.12.017.266.068.37.097.198.268.413.435.544.19.148.366.572.61.63.176.043.383-.103.542-.142.18-.043.397.01.57-.053.223-.08.128-.338.29-.45.103-.075.286-.01.405-.052.2-.07.34-.263.376-.46.016-.082.01-.145.04-.22.038-.104.11-.16.09-.294-.01-.062-.053-.12-.065-.187-.022-.114.002-.224 0-.337-.003-.2.017-.38-.078-.55-.38-.688-1.236-.93-1.975-.79-.18.035-.287.127-.442.208-.17.088-.14.166-.318.224-.08.026-.216.124-.215.224 0 .115.005.05.012.17-.02.01-.02-.006-.03-.026M38.797-64c.018.07.007.126-.026.19-.052.1-.11.062-.164.127-.05.063-.1.276-.08.362-.168.057-.008.226-.014.35-.002.05-.04.104-.045.16-.01.12.017.266.068.37.097.198.268.413.435.544.19.148.365.572.608.63.177.043.384-.103.543-.142.18-.043.398.01.572-.053.222-.08.127-.338.288-.45.104-.075.287-.01.406-.052.2-.07.34-.263.376-.46.016-.082.01-.145.04-.22.038-.104.11-.16.09-.294-.01-.062-.053-.12-.065-.187-.022-.114.002-.224 0-.337-.003-.2.017-.38-.078-.55-.38-.688-1.237-.93-1.976-.79-.18.035-.287.127-.442.208-.17.088-.14.166-.318.224-.08.026-.216.124-.215.224 0 .115.004.05.01.17-.02.01-.02-.006-.03-.026M31.137-64c.018.07.007.126-.026.19-.052.1-.11.062-.164.127-.05.063-.1.276-.08.362-.168.057-.008.226-.014.35-.002.05-.04.104-.045.16-.01.12.017.266.068.37.097.198.268.413.435.544.19.148.365.572.608.63.177.043.384-.103.543-.142.18-.043.398.01.572-.053.222-.08.127-.338.288-.45.104-.075.287-.01.406-.052.2-.07.34-.263.376-.46.016-.082.01-.145.04-.22.038-.104.11-.16.09-.294-.01-.062-.053-.12-.065-.187-.022-.114.002-.224 0-.337-.003-.2.017-.38-.078-.55-.38-.688-1.237-.93-1.976-.79-.18.035-.287.127-.442.208-.17.088-.14.166-.318.224-.08.026-.216.124-.215.224 0 .115.004.05.01.17-.02.01-.02-.006-.03-.026M23.477-64c.018.07.007.126-.026.19-.052.1-.11.062-.164.127-.05.063-.1.276-.08.362-.168.057-.008.226-.014.35-.002.05-.04.104-.045.16-.01.12.017.266.068.37.097.198.268.413.435.544.19.148.365.572.608.63.177.043.384-.103.543-.142.18-.043.398.01.572-.053.222-.08.127-.338.288-.45.104-.075.287-.01.406-.052.2-.07.34-.263.376-.46.016-.082.01-.145.04-.22.038-.104.11-.16.09-.294-.01-.062-.053-.12-.065-.187-.022-.114.002-.224 0-.337-.003-.2.017-.38-.078-.55-.38-.688-1.237-.93-1.976-.79-.18.035-.287.127-.442.208-.17.088-.14.166-.318.224-.08.026-.216.124-.215.224 0 .115.004.05.01.17-.02.01-.02-.006-.03-.026M15.816-64c.018.07.007.126-.026.19-.053.1-.112.062-.165.127-.05.063-.1.276-.08.362-.168.057-.008.226-.014.35 0 .05-.04.104-.044.16-.01.12.017.266.068.37.097.198.268.413.435.544.19.148.364.572.607.63.177.043.384-.103.543-.142.18-.043.397.01.57-.053.223-.08.128-.338.29-.45.103-.075.286-.01.405-.052.2-.07.34-.263.376-.46.017-.082.01-.145.04-.22.04-.104.11-.16.09-.294-.01-.062-.052-.12-.064-.187-.022-.114.002-.224 0-.337-.003-.2.017-.38-.078-.55-.38-.688-1.236-.93-1.975-.79-.18.035-.287.127-.442.208-.17.088-.138.166-.317.224-.08.026-.216.124-.215.224 0 .115.005.05.012.17-.02.01-.02-.006-.03-.026M8.156-64c.018.07.007.126-.026.19-.053.1-.112.062-.165.127-.05.063-.1.276-.08.362-.168.057-.008.226-.014.35 0 .05-.04.104-.044.16-.01.12.017.266.068.37.097.198.268.413.435.544.19.148.364.572.607.63.177.043.384-.103.543-.142.18-.043.397.01.57-.053.223-.08.128-.338.29-.45.103-.075.286-.01.405-.052.2-.07.34-.263.376-.46.017-.082.01-.145.04-.22.04-.104.11-.16.09-.294-.01-.062-.052-.12-.064-.187-.022-.114.002-.224 0-.337-.003-.2.017-.38-.078-.55-.38-.688-1.236-.93-1.975-.79-.18.035-.287.127-.442.208-.17.088-.138.166-.317.224-.08.026-.216.124-.215.224 0 .115.005.05.012.17-.02.01-.02-.006-.03-.026M.495-64c.018.07.007.126-.026.19-.054.1-.113.062-.166.127-.05.063-.1.276-.08.362-.168.057-.01.226-.014.35-.002.05-.04.104-.045.16-.01.12.017.266.068.37.097.198.268.413.435.544.19.148.365.572.608.63.177.043.384-.103.543-.142.18-.042.397.01.57-.052.223-.08.128-.337.29-.45.103-.074.286-.01.405-.05.2-.07.34-.264.376-.46.017-.083.01-.146.04-.222.04-.103.11-.16.09-.293-.01-.062-.052-.12-.064-.187-.022-.114.002-.224 0-.337-.003-.2.017-.378-.078-.55-.38-.687-1.236-.928-1.975-.788-.18.034-.287.126-.442.207-.17.087-.138.165-.317.223-.08.026-.216.124-.215.224 0 .115.005.05.012.17-.02.01-.02-.006-.03-.026M69.44-56.348c.017.072.006.127-.027.19-.053.1-.112.063-.165.128-.05.063-.1.276-.08.362-.168.058-.01.227-.014.35-.002.05-.04.105-.045.16-.01.12.016.267.067.37.097.2.268.414.435.545.19.148.365.572.608.63.177.043.384-.103.543-.142.18-.043.397.01.57-.053.223-.08.128-.337.29-.45.103-.074.286-.01.405-.05.2-.07.34-.264.376-.46.016-.083.01-.146.04-.222.038-.103.11-.16.09-.293-.01-.062-.053-.12-.065-.187-.023-.114 0-.224 0-.337-.004-.2.016-.38-.08-.55-.38-.688-1.235-.93-1.974-.79-.18.035-.287.127-.442.208-.17.09-.14.167-.318.225-.08.026-.216.124-.215.224.002.114.006.05.013.168-.02.01-.02-.005-.03-.025M61.778-56.348c.018.072.007.127-.026.19-.053.1-.112.063-.165.128-.05.063-.1.276-.08.362-.168.058-.008.227-.014.35-.002.05-.04.105-.045.16-.01.12.017.267.068.37.097.2.268.414.435.545.19.148.366.572.61.63.176.043.383-.103.542-.142.18-.043.397.01.57-.053.223-.08.128-.337.29-.45.103-.074.286-.01.405-.05.2-.07.34-.264.376-.46.016-.083.01-.146.04-.222.038-.103.11-.16.09-.293-.01-.062-.053-.12-.065-.187-.022-.114.002-.224 0-.337-.003-.2.017-.38-.078-.55-.38-.688-1.236-.93-1.975-.79-.18.035-.287.127-.442.208-.17.09-.14.167-.318.225-.08.026-.216.124-.215.224 0 .114.005.05.012.168-.02.01-.02-.005-.03-.025M54.118-56.348c.018.072.007.127-.026.19-.053.1-.112.063-.165.128-.05.063-.1.276-.08.362-.168.058-.008.227-.014.35-.002.05-.04.105-.045.16-.01.12.017.267.068.37.097.2.268.414.435.545.19.148.366.572.61.63.176.043.383-.103.542-.142.18-.043.397.01.57-.053.223-.08.128-.337.29-.45.103-.074.286-.01.405-.05.2-.07.34-.264.376-.46.016-.083.01-.146.04-.222.038-.103.11-.16.09-.293-.01-.062-.053-.12-.065-.187-.022-.114.002-.224 0-.337-.003-.2.017-.38-.078-.55-.38-.688-1.236-.93-1.975-.79-.18.035-.287.127-.442.208-.17.09-.14.167-.318.225-.08.026-.216.124-.215.224 0 .114.005.05.012.168-.02.01-.02-.005-.03-.025M46.458-56.348c.018.072.007.127-.026.19-.053.1-.112.063-.165.128-.05.063-.1.276-.08.362-.168.058-.008.227-.014.35-.002.05-.04.105-.045.16-.01.12.017.267.068.37.097.2.268.414.435.545.19.148.366.572.61.63.176.043.383-.103.542-.142.18-.043.397.01.57-.053.223-.08.128-.337.29-.45.103-.074.286-.01.405-.05.2-.07.34-.264.376-.46.016-.083.01-.146.04-.222.038-.103.11-.16.09-.293-.01-.062-.053-.12-.065-.187-.022-.114.002-.224 0-.337-.003-.2.017-.38-.078-.55-.38-.688-1.236-.93-1.975-.79-.18.035-.287.127-.442.208-.17.09-.14.167-.318.225-.08.026-.216.124-.215.224 0 .114.005.05.012.168-.02.01-.02-.005-.03-.025M38.797-56.348c.018.072.007.127-.026.19-.052.1-.11.063-.164.128-.05.063-.1.276-.08.362-.168.058-.008.227-.014.35-.002.05-.04.105-.045.16-.01.12.017.267.068.37.097.2.268.414.435.545.19.148.365.572.608.63.177.043.384-.103.543-.142.18-.043.398.01.572-.053.222-.08.127-.337.288-.45.104-.074.287-.01.406-.05.2-.07.34-.264.376-.46.016-.083.01-.146.04-.222.038-.103.11-.16.09-.293-.01-.062-.053-.12-.065-.187-.022-.114.002-.224 0-.337-.003-.2.017-.38-.078-.55-.38-.688-1.237-.93-1.976-.79-.18.035-.287.127-.442.208-.17.09-.14.167-.318.225-.08.026-.216.124-.215.224 0 .114.004.05.01.168-.02.01-.02-.005-.03-.025M31.137-56.348c.018.072.007.127-.026.19-.052.1-.11.063-.164.128-.05.063-.1.276-.08.362-.168.058-.008.227-.014.35-.002.05-.04.105-.045.16-.01.12.017.267.068.37.097.2.268.414.435.545.19.148.365.572.608.63.177.043.384-.103.543-.142.18-.043.398.01.572-.053.222-.08.127-.337.288-.45.104-.074.287-.01.406-.05.2-.07.34-.264.376-.46.016-.083.01-.146.04-.222.038-.103.11-.16.09-.293-.01-.062-.053-.12-.065-.187-.022-.114.002-.224 0-.337-.003-.2.017-.38-.078-.55-.38-.688-1.237-.93-1.976-.79-.18.035-.287.127-.442.208-.17.09-.14.167-.318.225-.08.026-.216.124-.215.224 0 .114.004.05.01.168-.02.01-.02-.005-.03-.025M23.477-56.348c.018.072.007.127-.026.19-.052.1-.11.063-.164.128-.05.063-.1.276-.08.362-.168.058-.008.227-.014.35-.002.05-.04.105-.045.16-.01.12.017.267.068.37.097.2.268.414.435.545.19.148.365.572.608.63.177.043.384-.103.543-.142.18-.043.398.01.572-.053.222-.08.127-.337.288-.45.104-.074.287-.01.406-.05.2-.07.34-.264.376-.46.016-.083.01-.146.04-.222.038-.103.11-.16.09-.293-.01-.062-.053-.12-.065-.187-.022-.114.002-.224 0-.337-.003-.2.017-.38-.078-.55-.38-.688-1.237-.93-1.976-.79-.18.035-.287.127-.442.208-.17.09-.14.167-.318.225-.08.026-.216.124-.215.224 0 .114.004.05.01.168-.02.01-.02-.005-.03-.025M15.816-56.348c.018.072.007.127-.026.19-.053.1-.112.063-.165.128-.05.063-.1.276-.08.362-.168.058-.008.227-.014.35 0 .05-.04.105-.044.16-.01.12.017.267.068.37.097.2.268.414.435.545.19.148.364.572.607.63.177.043.384-.103.543-.142.18-.043.397.01.57-.053.223-.08.128-.337.29-.45.103-.074.286-.01.405-.05.2-.07.34-.264.376-.46.017-.083.01-.146.04-.222.04-.103.11-.16.09-.293-.01-.062-.052-.12-.064-.187-.022-.114.002-.224 0-.337-.003-.2.017-.38-.078-.55-.38-.688-1.236-.93-1.975-.79-.18.035-.287.127-.442.208-.17.09-.138.167-.317.225-.08.026-.216.124-.215.224 0 .114.005.05.012.168-.02.01-.02-.005-.03-.025M8.156-56.348c.018.072.007.127-.026.19-.053.1-.112.063-.165.128-.05.063-.1.276-.08.362-.168.058-.008.227-.014.35 0 .05-.04.105-.044.16-.01.12.017.267.068.37.097.2.268.414.435.545.19.148.364.572.607.63.177.043.384-.103.543-.142.18-.043.397.01.57-.053.223-.08.128-.337.29-.45.103-.074.286-.01.405-.05.2-.07.34-.264.376-.46.017-.083.01-.146.04-.222.04-.103.11-.16.09-.293-.01-.062-.052-.12-.064-.187-.022-.114.002-.224 0-.337-.003-.2.017-.38-.078-.55-.38-.688-1.236-.93-1.975-.79-.18.035-.287.127-.442.208-.17.09-.138.167-.317.225-.08.026-.216.124-.215.224 0 .114.005.05.012.168-.02.01-.02-.005-.03-.025M.495-56.348c.018.072.007.127-.026.19-.054.1-.113.063-.166.128-.05.063-.1.276-.08.362-.168.058-.01.227-.014.35-.002.05-.04.105-.045.16-.01.12.017.267.068.37.097.2.268.414.435.545.19.148.365.572.608.63.177.043.384-.103.543-.142.18-.043.396.01.57-.053.222-.08.127-.337.288-.45.104-.074.287-.01.406-.05.2-.07.34-.264.376-.46.016-.083.01-.146.04-.222.038-.103.11-.16.09-.293-.01-.062-.053-.12-.065-.187-.022-.114.002-.224 0-.337-.003-.2.017-.38-.078-.55-.38-.688-1.236-.93-1.975-.79-.18.035-.287.127-.442.208-.17.09-.14.167-.318.225-.08.026-.216.124-.215.224.003.116.006.052.013.17-.02.01-.02-.005-.03-.025M69.44-48.695c.017.072.006.127-.027.19-.053.1-.112.063-.165.128-.05.063-.1.276-.08.362-.168.058-.01.227-.014.35-.002.05-.04.105-.045.16-.01.12.016.267.067.37.097.2.268.414.435.545.19.148.365.572.608.63.177.043.384-.103.543-.142.18-.043.397.01.57-.053.223-.08.128-.337.29-.45.103-.074.286-.01.405-.05.2-.07.34-.264.376-.46.016-.083.01-.146.04-.222.038-.103.11-.16.09-.293-.01-.062-.053-.12-.065-.187-.023-.114 0-.224 0-.337-.004-.2.016-.38-.08-.55-.38-.688-1.235-.93-1.974-.79-.18.035-.287.127-.442.208-.17.088-.14.166-.318.224-.08.026-.216.124-.215.224.002.115.006.05.013.17-.02.01-.02-.006-.03-.026M61.778-48.695c.018.072.007.127-.026.19-.053.1-.112.063-.165.128-.05.063-.1.276-.08.362-.168.058-.008.227-.014.35-.002.05-.04.105-.045.16-.01.12.017.267.068.37.097.2.268.414.435.545.19.148.366.572.61.63.176.043.383-.103.542-.142.18-.043.397.01.57-.053.223-.08.128-.337.29-.45.103-.074.286-.01.405-.05.2-.07.34-.264.376-.46.016-.083.01-.146.04-.222.038-.103.11-.16.09-.293-.01-.062-.053-.12-.065-.187-.022-.114.002-.224 0-.337-.003-.2.017-.38-.078-.55-.38-.688-1.236-.93-1.975-.79-.18.035-.287.127-.442.208-.17.088-.14.166-.318.224-.08.026-.216.124-.215.224 0 .115.005.05.012.17-.02.01-.02-.006-.03-.026M54.118-48.695c.018.072.007.127-.026.19-.053.1-.112.063-.165.128-.05.063-.1.276-.08.362-.168.058-.008.227-.014.35-.002.05-.04.105-.045.16-.01.12.017.267.068.37.097.2.268.414.435.545.19.148.366.572.61.63.176.043.383-.103.542-.142.18-.043.397.01.57-.053.223-.08.128-.337.29-.45.103-.074.286-.01.405-.05.2-.07.34-.264.376-.46.016-.083.01-.146.04-.222.038-.103.11-.16.09-.293-.01-.062-.053-.12-.065-.187-.022-.114.002-.224 0-.337-.003-.2.017-.38-.078-.55-.38-.688-1.236-.93-1.975-.79-.18.035-.287.127-.442.208-.17.088-.14.166-.318.224-.08.026-.216.124-.215.224 0 .115.005.05.012.17-.02.01-.02-.006-.03-.026M46.458-48.695c.018.072.007.127-.026.19-.053.1-.112.063-.165.128-.05.063-.1.276-.08.362-.168.058-.008.227-.014.35-.002.05-.04.105-.045.16-.01.12.017.267.068.37.097.2.268.414.435.545.19.148.366.572.61.63.176.043.383-.103.542-.142.18-.043.397.01.57-.053.223-.08.128-.337.29-.45.103-.074.286-.01.405-.05.2-.07.34-.264.376-.46.016-.083.01-.146.04-.222.038-.103.11-.16.09-.293-.01-.062-.053-.12-.065-.187-.022-.114.002-.224 0-.337-.003-.2.017-.38-.078-.55-.38-.688-1.236-.93-1.975-.79-.18.035-.287.127-.442.208-.17.088-.14.166-.318.224-.08.026-.216.124-.215.224 0 .115.005.05.012.17-.02.01-.02-.006-.03-.026M38.797-48.695c.018.072.007.127-.026.19-.052.1-.11.063-.164.128-.05.063-.1.276-.08.362-.168.058-.008.227-.014.35-.002.05-.04.105-.045.16-.01.12.017.267.068.37.097.2.268.414.435.545.19.148.365.572.608.63.177.043.384-.103.543-.142.18-.043.398.01.572-.053.222-.08.127-.337.288-.45.104-.074.287-.01.406-.05.2-.07.34-.264.376-.46.016-.083.01-.146.04-.222.038-.103.11-.16.09-.293-.01-.062-.053-.12-.065-.187-.022-.114.002-.224 0-.337-.003-.2.017-.38-.078-.55-.38-.688-1.237-.93-1.976-.79-.18.035-.287.127-.442.208-.17.088-.14.166-.318.224-.08.026-.216.124-.215.224 0 .115.004.05.01.17-.02.01-.02-.006-.03-.026M31.137-48.695c.018.072.007.127-.026.19-.052.1-.11.063-.164.128-.05.063-.1.276-.08.362-.168.058-.008.227-.014.35-.002.05-.04.105-.045.16-.01.12.017.267.068.37.097.2.268.414.435.545.19.148.365.572.608.63.177.043.384-.103.543-.142.18-.043.398.01.572-.053.222-.08.127-.337.288-.45.104-.074.287-.01.406-.05.2-.07.34-.264.376-.46.016-.083.01-.146.04-.222.038-.103.11-.16.09-.293-.01-.062-.053-.12-.065-.187-.022-.114.002-.224 0-.337-.003-.2.017-.38-.078-.55-.38-.688-1.237-.93-1.976-.79-.18.035-.287.127-.442.208-.17.088-.14.166-.318.224-.08.026-.216.124-.215.224 0 .115.004.05.01.17-.02.01-.02-.006-.03-.026M23.477-48.695c.018.072.007.127-.026.19-.052.1-.11.063-.164.128-.05.063-.1.276-.08.362-.168.058-.008.227-.014.35-.002.05-.04.105-.045.16-.01.12.017.267.068.37.097.2.268.414.435.545.19.148.365.572.608.63.177.043.384-.103.543-.142.18-.043.398.01.572-.053.222-.08.127-.337.288-.45.104-.074.287-.01.406-.05.2-.07.34-.264.376-.46.016-.083.01-.146.04-.222.038-.103.11-.16.09-.293-.01-.062-.053-.12-.065-.187-.022-.114.002-.224 0-.337-.003-.2.017-.38-.078-.55-.38-.688-1.237-.93-1.976-.79-.18.035-.287.127-.442.208-.17.088-.14.166-.318.224-.08.026-.216.124-.215.224 0 .115.004.05.01.17-.02.01-.02-.006-.03-.026M15.816-48.695c.018.072.007.127-.026.19-.053.1-.112.063-.165.128-.05.063-.1.276-.08.362-.168.058-.008.227-.014.35 0 .05-.04.105-.044.16-.01.12.017.267.068.37.097.2.268.414.435.545.19.148.364.572.607.63.177.043.384-.103.543-.142.18-.043.397.01.57-.053.223-.08.128-.337.29-.45.103-.074.286-.01.405-.05.2-.07.34-.264.376-.46.017-.083.01-.146.04-.222.04-.103.11-.16.09-.293-.01-.062-.052-.12-.064-.187-.022-.114.002-.224 0-.337-.003-.2.017-.38-.078-.55-.38-.688-1.236-.93-1.975-.79-.18.035-.287.127-.442.208-.17.088-.138.166-.317.224-.08.026-.216.124-.215.224 0 .115.005.05.012.17-.02.01-.02-.006-.03-.026M8.156-48.695c.018.072.007.127-.026.19-.053.1-.112.063-.165.128-.05.063-.1.276-.08.362-.168.058-.008.227-.014.35 0 .05-.04.105-.044.16-.01.12.017.267.068.37.097.2.268.414.435.545.19.148.364.572.607.63.177.043.384-.103.543-.142.18-.043.397.01.57-.053.223-.08.128-.337.29-.45.103-.074.286-.01.405-.05.2-.07.34-.264.376-.46.017-.083.01-.146.04-.222.04-.103.11-.16.09-.293-.01-.062-.052-.12-.064-.187-.022-.114.002-.224 0-.337-.003-.2.017-.38-.078-.55-.38-.688-1.236-.93-1.975-.79-.18.035-.287.127-.442.208-.17.088-.138.166-.317.224-.08.026-.216.124-.215.224 0 .115.005.05.012.17-.02.01-.02-.006-.03-.026M.495-48.695c.018.072.007.127-.026.19-.054.1-.113.063-.166.128-.05.063-.1.276-.08.362-.168.058-.01.227-.014.35-.002.05-.04.105-.045.16-.01.12.017.267.068.37.097.2.268.414.435.545.19.148.365.572.608.63.177.043.384-.103.543-.142.18-.043.396.01.57-.053.222-.08.127-.337.288-.45.104-.074.287-.01.406-.05.2-.07.34-.264.376-.46.016-.083.01-.146.04-.222.038-.103.11-.16.09-.293-.01-.062-.053-.12-.065-.187-.022-.114.002-.224 0-.337-.003-.2.017-.38-.078-.55-.38-.688-1.236-.93-1.975-.79-.18.035-.287.127-.442.208-.17.088-.14.166-.318.224-.08.026-.216.124-.215.224 0 .115.005.05.012.17-.022.01-.022-.006-.03-.026M69.44-41.042c.017.072.006.127-.027.19-.053.1-.112.063-.165.128-.05.063-.1.276-.08.362-.168.058-.01.227-.014.35-.002.05-.04.105-.045.16-.01.12.016.267.067.37.097.2.268.414.435.545.19.148.365.572.608.63.177.043.384-.103.543-.142.18-.042.397.01.57-.052.223-.08.128-.337.29-.45.103-.074.286-.01.405-.05.2-.07.34-.264.376-.46.016-.083.01-.146.04-.222.038-.103.11-.16.09-.293-.01-.062-.053-.12-.065-.187-.023-.114 0-.224 0-.337-.004-.2.016-.38-.08-.55-.38-.69-1.235-.93-1.974-.79-.18.034-.287.126-.442.207-.17.088-.14.166-.318.224-.08.027-.216.125-.215.225.002.115.006.05.013.17-.02.01-.02-.006-.03-.026M61.778-41.042c.018.072.007.127-.026.19-.053.1-.112.063-.165.128-.05.063-.1.276-.08.362-.168.058-.008.227-.014.35-.002.05-.04.105-.045.16-.01.12.017.267.068.37.097.2.268.414.435.545.19.148.366.572.61.63.176.043.383-.103.542-.142.18-.042.397.01.57-.052.223-.08.128-.337.29-.45.103-.074.286-.01.405-.05.2-.07.34-.264.376-.46.016-.083.01-.146.04-.222.038-.103.11-.16.09-.293-.01-.062-.053-.12-.065-.187-.022-.114.002-.224 0-.337-.003-.2.017-.38-.078-.55-.38-.69-1.236-.93-1.975-.79-.18.034-.287.126-.442.207-.17.088-.14.166-.318.224-.08.027-.216.125-.215.225 0 .115.005.05.012.17-.02.01-.02-.006-.03-.026M54.118-41.042c.018.072.007.127-.026.19-.053.1-.112.063-.165.128-.05.063-.1.276-.08.362-.168.058-.008.227-.014.35-.002.05-.04.105-.045.16-.01.12.017.267.068.37.097.2.268.414.435.545.19.148.366.572.61.63.176.043.383-.103.542-.142.18-.042.397.01.57-.052.223-.08.128-.337.29-.45.103-.074.286-.01.405-.05.2-.07.34-.264.376-.46.016-.083.01-.146.04-.222.038-.103.11-.16.09-.293-.01-.062-.053-.12-.065-.187-.022-.114.002-.224 0-.337-.003-.2.017-.38-.078-.55-.38-.69-1.236-.93-1.975-.79-.18.034-.287.126-.442.207-.17.088-.14.166-.318.224-.08.027-.216.125-.215.225 0 .115.005.05.012.17-.02.01-.02-.006-.03-.026M46.458-41.042c.018.072.007.127-.026.19-.053.1-.112.063-.165.128-.05.063-.1.276-.08.362-.168.058-.008.227-.014.35-.002.05-.04.105-.045.16-.01.12.017.267.068.37.097.2.268.414.435.545.19.148.366.572.61.63.176.043.383-.103.542-.142.18-.042.397.01.57-.052.223-.08.128-.337.29-.45.103-.074.286-.01.405-.05.2-.07.34-.264.376-.46.016-.083.01-.146.04-.222.038-.103.11-.16.09-.293-.01-.062-.053-.12-.065-.187-.022-.114.002-.224 0-.337-.003-.2.017-.38-.078-.55-.38-.69-1.236-.93-1.975-.79-.18.034-.287.126-.442.207-.17.088-.14.166-.318.224-.08.027-.216.125-.215.225 0 .115.005.05.012.17-.02.01-.02-.006-.03-.026M38.797-41.042c.018.072.007.127-.026.19-.052.1-.11.063-.164.128-.05.063-.1.276-.08.362-.168.058-.008.227-.014.35-.002.05-.04.105-.045.16-.01.12.017.267.068.37.097.2.268.414.435.545.19.148.365.572.608.63.177.043.384-.103.543-.142.18-.042.398.01.572-.052.222-.08.127-.337.288-.45.104-.074.287-.01.406-.05.2-.07.34-.264.376-.46.016-.083.01-.146.04-.222.038-.103.11-.16.09-.293-.01-.062-.053-.12-.065-.187-.022-.114.002-.224 0-.337-.003-.2.017-.38-.078-.55-.38-.69-1.237-.93-1.976-.79-.18.034-.287.126-.442.207-.17.088-.14.166-.318.224-.08.027-.216.125-.215.225 0 .115.004.05.01.17-.02.01-.02-.006-.03-.026M31.137-41.042c.018.072.007.127-.026.19-.052.1-.11.063-.164.128-.05.063-.1.276-.08.362-.168.058-.008.227-.014.35-.002.05-.04.105-.045.16-.01.12.017.267.068.37.097.2.268.414.435.545.19.148.365.572.608.63.177.043.384-.103.543-.142.18-.042.398.01.572-.052.222-.08.127-.337.288-.45.104-.074.287-.01.406-.05.2-.07.34-.264.376-.46.016-.083.01-.146.04-.222.038-.103.11-.16.09-.293-.01-.062-.053-.12-.065-.187-.022-.114.002-.224 0-.337-.003-.2.017-.38-.078-.55-.38-.69-1.237-.93-1.976-.79-.18.034-.287.126-.442.207-.17.088-.14.166-.318.224-.08.027-.216.125-.215.225 0 .115.004.05.01.17-.02.01-.02-.006-.03-.026M23.477-41.042c.018.072.007.127-.026.19-.052.1-.11.063-.164.128-.05.063-.1.276-.08.362-.168.058-.008.227-.014.35-.002.05-.04.105-.045.16-.01.12.017.267.068.37.097.2.268.414.435.545.19.148.365.572.608.63.177.043.384-.103.543-.142.18-.042.398.01.572-.052.222-.08.127-.337.288-.45.104-.074.287-.01.406-.05.2-.07.34-.264.376-.46.016-.083.01-.146.04-.222.038-.103.11-.16.09-.293-.01-.062-.053-.12-.065-.187-.022-.114.002-.224 0-.337-.003-.2.017-.38-.078-.55-.38-.69-1.237-.93-1.976-.79-.18.034-.287.126-.442.207-.17.088-.14.166-.318.224-.08.027-.216.125-.215.225 0 .115.004.05.01.17-.02.01-.02-.006-.03-.026M15.816-41.042c.018.072.007.127-.026.19-.053.1-.112.063-.165.128-.05.063-.1.276-.08.362-.168.058-.008.227-.014.35 0 .05-.04.105-.044.16-.01.12.017.267.068.37.097.2.268.414.435.545.19.148.364.572.607.63.177.043.384-.103.543-.142.18-.042.397.01.57-.052.223-.08.128-.337.29-.45.103-.074.286-.01.405-.05.2-.07.34-.264.376-.46.017-.083.01-.146.04-.222.04-.103.11-.16.09-.293-.01-.062-.052-.12-.064-.187-.022-.114.002-.224 0-.337-.003-.2.017-.38-.078-.55-.38-.69-1.236-.93-1.975-.79-.18.034-.287.126-.442.207-.17.088-.138.166-.317.224-.08.027-.216.125-.215.225 0 .115.005.05.012.17-.02.01-.02-.006-.03-.026M8.156-41.042c.018.072.007.127-.026.19-.053.1-.112.063-.165.128-.05.063-.1.276-.08.362-.168.058-.008.227-.014.35 0 .05-.04.105-.044.16-.01.12.017.267.068.37.097.2.268.414.435.545.19.148.364.572.607.63.177.043.384-.103.543-.142.18-.042.397.01.57-.052.223-.08.128-.337.29-.45.103-.074.286-.01.405-.05.2-.07.34-.264.376-.46.017-.083.01-.146.04-.222.04-.103.11-.16.09-.293-.01-.062-.052-.12-.064-.187-.022-.114.002-.224 0-.337-.003-.2.017-.38-.078-.55-.38-.69-1.236-.93-1.975-.79-.18.034-.287.126-.442.207-.17.088-.138.166-.317.224-.08.027-.216.125-.215.225 0 .115.005.05.012.17-.02.01-.02-.005-.03-.025M.495-41.042c.018.072.007.127-.026.19-.054.1-.113.063-.166.128-.05.063-.1.276-.08.362-.168.058-.01.227-.014.35-.002.05-.04.105-.045.16-.01.12.017.267.068.37.097.2.268.414.435.545.19.148.365.572.608.63.177.043.384-.103.543-.142.18-.042.396.01.57-.052.222-.08.127-.337.288-.45.104-.074.287-.01.406-.05.2-.07.34-.264.376-.46.016-.083.01-.146.04-.222.038-.103.11-.16.09-.293-.01-.062-.053-.12-.065-.187-.022-.114.002-.224 0-.337-.003-.2.017-.38-.078-.55-.38-.69-1.236-.93-1.975-.79-.18.034-.287.126-.442.207-.17.088-.14.166-.318.224-.08.027-.216.125-.215.225 0 .115.005.05.012.17-.022.01-.022-.006-.03-.026M69.44-33.39c.017.072.006.127-.027.19-.053.1-.112.063-.165.128-.05.063-.1.276-.08.362-.168.058-.01.227-.014.35-.002.05-.04.105-.045.16-.01.12.016.267.067.37.097.2.268.414.435.545.19.148.365.572.608.63.177.043.384-.103.543-.142.18-.043.397.01.57-.053.223-.08.128-.337.29-.45.103-.074.286-.01.405-.05.2-.07.34-.264.376-.46.016-.083.01-.146.04-.222.038-.103.11-.16.09-.293-.01-.062-.053-.12-.065-.187-.023-.114 0-.224 0-.337-.004-.2.016-.378-.08-.55-.38-.687-1.235-.928-1.974-.788-.18.034-.287.126-.442.207-.17.087-.14.165-.318.223-.08.026-.216.124-.215.224.002.115.006.05.013.17-.02.01-.02-.006-.03-.026M61.778-33.39c.018.072.007.127-.026.19-.053.1-.112.063-.165.128-.05.063-.1.276-.08.362-.168.058-.008.227-.014.35-.002.05-.04.105-.045.16-.01.12.017.267.068.37.097.2.268.414.435.545.19.148.366.572.61.63.176.043.383-.103.542-.142.18-.043.397.01.57-.053.223-.08.128-.337.29-.45.103-.074.286-.01.405-.05.2-.07.34-.264.376-.46.016-.083.01-.146.04-.222.038-.103.11-.16.09-.293-.01-.062-.053-.12-.065-.187-.022-.114.002-.224 0-.337-.003-.2.017-.378-.078-.55-.38-.687-1.236-.928-1.975-.788-.18.034-.287.126-.442.207-.17.087-.14.165-.318.223-.08.026-.216.124-.215.224 0 .115.005.05.012.17-.02.01-.02-.006-.03-.026M54.118-33.39c.018.072.007.127-.026.19-.053.1-.112.063-.165.128-.05.063-.1.276-.08.362-.168.058-.008.227-.014.35-.002.05-.04.105-.045.16-.01.12.017.267.068.37.097.2.268.414.435.545.19.148.366.572.61.63.176.043.383-.103.542-.142.18-.043.397.01.57-.053.223-.08.128-.337.29-.45.103-.074.286-.01.405-.05.2-.07.34-.264.376-.46.016-.083.01-.146.04-.222.038-.103.11-.16.09-.293-.01-.062-.053-.12-.065-.187-.022-.114.002-.224 0-.337-.003-.2.017-.378-.078-.55-.38-.687-1.236-.928-1.975-.788-.18.034-.287.126-.442.207-.17.087-.14.165-.318.223-.08.026-.216.124-.215.224 0 .115.005.05.012.17-.02.01-.02-.006-.03-.026M46.458-33.39c.018.072.007.127-.026.19-.053.1-.112.063-.165.128-.05.063-.1.276-.08.362-.168.058-.008.227-.014.35-.002.05-.04.105-.045.16-.01.12.017.267.068.37.097.2.268.414.435.545.19.148.366.572.61.63.176.043.383-.103.542-.142.18-.043.397.01.57-.053.223-.08.128-.337.29-.45.103-.074.286-.01.405-.05.2-.07.34-.264.376-.46.016-.083.01-.146.04-.222.038-.103.11-.16.09-.293-.01-.062-.053-.12-.065-.187-.022-.114.002-.224 0-.337-.003-.2.017-.378-.078-.55-.38-.687-1.236-.928-1.975-.788-.18.034-.287.126-.442.207-.17.087-.14.165-.318.223-.08.026-.216.124-.215.224 0 .115.005.05.012.17-.02.01-.02-.006-.03-.026M38.797-33.39c.018.072.007.127-.026.19-.052.1-.11.063-.164.128-.05.063-.1.276-.08.362-.168.058-.008.227-.014.35-.002.05-.04.105-.045.16-.01.12.017.267.068.37.097.2.268.414.435.545.19.148.365.572.608.63.177.043.384-.103.543-.142.18-.043.398.01.572-.053.222-.08.127-.337.288-.45.104-.074.287-.01.406-.05.2-.07.34-.264.376-.46.016-.083.01-.146.04-.222.038-.103.11-.16.09-.293-.01-.062-.053-.12-.065-.187-.022-.114.002-.224 0-.337-.003-.2.017-.378-.078-.55-.38-.687-1.237-.928-1.976-.788-.18.034-.287.126-.442.207-.17.087-.14.165-.318.223-.08.026-.216.124-.215.224 0 .115.004.05.01.17-.02.01-.02-.006-.03-.026M31.137-33.39c.018.072.007.127-.026.19-.052.1-.11.063-.164.128-.05.063-.1.276-.08.362-.168.058-.008.227-.014.35-.002.05-.04.105-.045.16-.01.12.017.267.068.37.097.2.268.414.435.545.19.148.365.572.608.63.177.043.384-.103.543-.142.18-.043.398.01.572-.053.222-.08.127-.337.288-.45.104-.074.287-.01.406-.05.2-.07.34-.264.376-.46.016-.083.01-.146.04-.222.038-.103.11-.16.09-.293-.01-.062-.053-.12-.065-.187-.022-.114.002-.224 0-.337-.003-.2.017-.378-.078-.55-.38-.687-1.237-.928-1.976-.788-.18.034-.287.126-.442.207-.17.087-.14.165-.318.223-.08.026-.216.124-.215.224 0 .115.004.05.01.17-.02.01-.02-.006-.03-.026M23.477-33.39c.018.072.007.127-.026.19-.052.1-.11.063-.164.128-.05.063-.1.276-.08.362-.168.058-.008.227-.014.35-.002.05-.04.105-.045.16-.01.12.017.267.068.37.097.2.268.414.435.545.19.148.365.572.608.63.177.043.384-.103.543-.142.18-.043.398.01.572-.053.222-.08.127-.337.288-.45.104-.074.287-.01.406-.05.2-.07.34-.264.376-.46.016-.083.01-.146.04-.222.038-.103.11-.16.09-.293-.01-.062-.053-.12-.065-.187-.022-.114.002-.224 0-.337-.003-.2.017-.378-.078-.55-.38-.687-1.237-.928-1.976-.788-.18.034-.287.126-.442.207-.17.087-.14.165-.318.223-.08.026-.216.124-.215.224 0 .115.004.05.01.17-.02.01-.02-.006-.03-.026M15.816-33.39c.018.072.007.127-.026.19-.053.1-.112.063-.165.128-.05.063-.1.276-.08.362-.168.058-.008.227-.014.35 0 .05-.04.105-.044.16-.01.12.017.267.068.37.097.2.268.414.435.545.19.148.364.572.607.63.177.043.384-.103.543-.142.18-.043.397.01.57-.053.223-.08.128-.337.29-.45.103-.074.286-.01.405-.05.2-.07.34-.264.376-.46.017-.083.01-.146.04-.222.04-.103.11-.16.09-.293-.01-.062-.052-.12-.064-.187-.022-.114.002-.224 0-.337-.003-.2.017-.378-.078-.55-.38-.687-1.236-.928-1.975-.788-.18.034-.287.126-.442.207-.17.087-.138.165-.317.223-.08.026-.216.124-.215.224 0 .115.005.05.012.17-.02.01-.02-.006-.03-.026M8.156-33.39c.018.072.007.127-.026.19-.053.1-.112.063-.165.128-.05.063-.1.276-.08.362-.168.058-.008.227-.014.35 0 .05-.04.105-.044.16-.01.12.017.267.068.37.097.2.268.414.435.545.19.148.364.572.607.63.177.043.384-.103.543-.142.18-.043.397.01.57-.053.223-.08.128-.337.29-.45.103-.074.286-.01.405-.05.2-.07.34-.264.376-.46.017-.083.01-.146.04-.222.04-.103.11-.16.09-.293-.01-.062-.052-.12-.064-.187-.022-.114.002-.224 0-.337-.003-.2.017-.378-.078-.55-.38-.687-1.236-.928-1.975-.788-.18.034-.287.126-.442.207-.17.087-.138.165-.317.223-.08.026-.216.124-.215.224 0 .115.005.05.012.17-.02.01-.02-.006-.03-.026M.495-33.39c.018.072.007.127-.026.19-.054.1-.113.063-.166.128-.05.063-.1.276-.08.362-.168.058-.01.227-.014.35-.002.05-.04.105-.045.16-.01.12.017.267.068.37.097.2.268.414.435.545.19.148.365.572.608.63.177.043.384-.103.543-.142.18-.043.396.01.57-.053.222-.08.127-.337.288-.45.104-.074.287-.01.406-.05.2-.07.34-.264.376-.46.016-.083.01-.146.04-.222.038-.103.11-.16.09-.293-.01-.062-.053-.12-.065-.187-.022-.114.002-.224 0-.337-.003-.2.017-.378-.078-.55-.38-.687-1.236-.928-1.975-.788-.18.034-.287.126-.442.207-.17.087-.14.165-.318.223-.08.026-.216.124-.215.224.003.117.006.053.013.17-.02.012-.02-.004-.03-.024M69.44-25.736c.017.072.006.127-.027.19-.053.1-.112.063-.165.128-.05.063-.1.276-.08.362-.168.058-.01.227-.014.35-.002.05-.04.105-.045.16-.01.12.016.267.067.37.097.2.268.414.435.545.19.147.365.57.608.63.177.042.384-.104.543-.143.18-.043.397.01.57-.053.223-.08.128-.337.29-.45.103-.074.286-.01.405-.05.2-.07.34-.264.376-.46.016-.083.01-.146.04-.222.038-.103.11-.16.09-.293-.01-.063-.053-.12-.065-.188-.023-.114 0-.224 0-.337-.004-.2.016-.38-.08-.55-.38-.688-1.235-.93-1.974-.79-.18.035-.287.127-.442.208-.17.088-.14.166-.318.224-.08.026-.216.124-.215.224.002.116.006.052.013.17-.02.01-.02-.005-.03-.025M61.778-25.736c.018.072.007.127-.026.19-.053.1-.112.063-.165.128-.05.063-.1.276-.08.362-.168.058-.008.227-.014.35-.002.05-.04.105-.045.16-.01.12.017.267.068.37.097.2.268.414.435.545.19.147.366.57.61.63.176.042.383-.104.542-.143.18-.043.397.01.57-.053.223-.08.128-.337.29-.45.103-.074.286-.01.405-.05.2-.07.34-.264.376-.46.016-.083.01-.146.04-.222.038-.103.11-.16.09-.293-.01-.063-.053-.12-.065-.188-.022-.114.002-.224 0-.337-.003-.2.017-.38-.078-.55-.38-.688-1.236-.93-1.975-.79-.18.035-.287.127-.442.208-.17.088-.14.166-.318.224-.08.026-.216.124-.215.224 0 .116.005.052.012.17-.02.01-.02-.005-.03-.025M54.118-25.736c.018.072.007.127-.026.19-.053.1-.112.063-.165.128-.05.063-.1.276-.08.362-.168.058-.008.227-.014.35-.002.05-.04.105-.045.16-.01.12.017.267.068.37.097.2.268.414.435.545.19.147.366.57.61.63.176.042.383-.104.542-.143.18-.043.397.01.57-.053.223-.08.128-.337.29-.45.103-.074.286-.01.405-.05.2-.07.34-.264.376-.46.016-.083.01-.146.04-.222.038-.103.11-.16.09-.293-.01-.063-.053-.12-.065-.188-.022-.114.002-.224 0-.337-.003-.2.017-.38-.078-.55-.38-.688-1.236-.93-1.975-.79-.18.035-.287.127-.442.208-.17.088-.14.166-.318.224-.08.026-.216.124-.215.224 0 .116.005.052.012.17-.02.01-.02-.005-.03-.025M46.458-25.736c.018.072.007.127-.026.19-.053.1-.112.063-.165.128-.05.063-.1.276-.08.362-.168.058-.008.227-.014.35-.002.05-.04.105-.045.16-.01.12.017.267.068.37.097.2.268.414.435.545.19.147.366.57.61.63.176.042.383-.104.542-.143.18-.043.397.01.57-.053.223-.08.128-.337.29-.45.103-.074.286-.01.405-.05.2-.07.34-.264.376-.46.016-.083.01-.146.04-.222.038-.103.11-.16.09-.293-.01-.063-.053-.12-.065-.188-.022-.114.002-.224 0-.337-.003-.2.017-.38-.078-.55-.38-.688-1.236-.93-1.975-.79-.18.035-.287.127-.442.208-.17.088-.14.166-.318.224-.08.026-.216.124-.215.224 0 .116.005.052.012.17-.02.01-.02-.005-.03-.025M38.797-25.736c.018.072.007.127-.026.19-.052.1-.11.063-.164.128-.05.063-.1.276-.08.362-.168.058-.008.227-.014.35-.002.05-.04.105-.045.16-.01.12.017.267.068.37.097.2.268.414.435.545.19.147.365.57.608.63.177.042.384-.104.543-.143.18-.043.398.01.572-.053.222-.08.127-.337.288-.45.104-.074.287-.01.406-.05.2-.07.34-.264.376-.46.016-.083.01-.146.04-.222.038-.103.11-.16.09-.293-.01-.063-.053-.12-.065-.188-.022-.114.002-.224 0-.337-.003-.2.017-.38-.078-.55-.38-.688-1.237-.93-1.976-.79-.18.035-.287.127-.442.208-.17.088-.14.166-.318.224-.08.026-.216.124-.215.224 0 .116.004.052.01.17-.02.01-.02-.005-.03-.025M31.137-25.736c.018.072.007.127-.026.19-.052.1-.11.063-.164.128-.05.063-.1.276-.08.362-.168.058-.008.227-.014.35-.002.05-.04.105-.045.16-.01.12.017.267.068.37.097.2.268.414.435.545.19.147.365.57.608.63.177.042.384-.104.543-.143.18-.043.398.01.572-.053.222-.08.127-.337.288-.45.104-.074.287-.01.406-.05.2-.07.34-.264.376-.46.016-.083.01-.146.04-.222.038-.103.11-.16.09-.293-.01-.063-.053-.12-.065-.188-.022-.114.002-.224 0-.337-.003-.2.017-.38-.078-.55-.38-.688-1.237-.93-1.976-.79-.18.035-.287.127-.442.208-.17.088-.14.166-.318.224-.08.026-.216.124-.215.224 0 .116.004.052.01.17-.02.01-.02-.005-.03-.025M23.477-25.736c.018.072.007.127-.026.19-.052.1-.11.063-.164.128-.05.063-.1.276-.08.362-.168.058-.008.227-.014.35-.002.05-.04.105-.045.16-.01.12.017.267.068.37.097.2.268.414.435.545.19.147.365.57.608.63.177.042.384-.104.543-.143.18-.043.398.01.572-.053.222-.08.127-.337.288-.45.104-.074.287-.01.406-.05.2-.07.34-.264.376-.46.016-.083.01-.146.04-.222.038-.103.11-.16.09-.293-.01-.063-.053-.12-.065-.188-.022-.114.002-.224 0-.337-.003-.2.017-.38-.078-.55-.38-.688-1.237-.93-1.976-.79-.18.035-.287.127-.442.208-.17.088-.14.166-.318.224-.08.026-.216.124-.215.224 0 .116.004.052.01.17-.02.01-.02-.005-.03-.025M15.816-25.736c.018.072.007.127-.026.19-.053.1-.112.063-.165.128-.05.063-.1.276-.08.362-.168.058-.008.227-.014.35 0 .05-.04.105-.044.16-.01.12.017.267.068.37.097.2.268.414.435.545.19.147.364.57.607.63.177.042.384-.104.543-.143.18-.043.397.01.57-.053.223-.08.128-.337.29-.45.103-.074.286-.01.405-.05.2-.07.34-.264.376-.46.017-.083.01-.146.04-.222.04-.103.11-.16.09-.293-.01-.063-.052-.12-.064-.188-.022-.114.002-.224 0-.337-.003-.2.017-.38-.078-.55-.38-.688-1.236-.93-1.975-.79-.18.035-.287.127-.442.208-.17.088-.138.166-.317.224-.08.026-.216.124-.215.224 0 .116.005.052.012.17-.02.01-.02-.005-.03-.025M8.156-25.736c.018.072.007.127-.026.19-.053.1-.112.063-.165.128-.05.063-.1.276-.08.362-.168.058-.008.227-.014.35 0 .05-.04.105-.044.16-.01.12.017.267.068.37.097.2.268.414.435.545.19.147.364.57.607.63.177.042.384-.104.543-.143.18-.043.397.01.57-.053.223-.08.128-.337.29-.45.103-.074.286-.01.405-.05.2-.07.34-.264.376-.46.017-.083.01-.146.04-.222.04-.103.11-.16.09-.293-.01-.063-.052-.12-.064-.188-.022-.114.002-.224 0-.337-.003-.2.017-.38-.078-.55-.38-.688-1.236-.93-1.975-.79-.18.035-.287.127-.442.208-.17.088-.138.166-.317.224-.08.026-.216.124-.215.224 0 .116.005.052.012.17-.02.01-.02-.005-.03-.025M.495-25.736c.018.072.007.127-.026.19-.054.1-.113.063-.166.128-.05.063-.1.276-.08.362-.168.058-.01.227-.014.35-.002.05-.04.105-.045.16-.01.12.017.267.068.37.097.2.268.414.435.545.19.147.365.57.608.63.177.042.384-.104.543-.143.18-.043.396.01.57-.053.222-.08.127-.337.288-.45.104-.074.287-.01.406-.05.2-.07.34-.264.376-.46.016-.083.01-.146.04-.222.038-.103.11-.16.09-.293-.01-.063-.053-.12-.065-.188-.022-.114.002-.224 0-.337-.003-.2.017-.38-.078-.55-.38-.688-1.236-.93-1.975-.79-.18.035-.287.127-.442.208-.17.088-.14.166-.318.224-.08.026-.216.124-.215.224 0 .116.005.052.012.17-.022.01-.022-.005-.03-.025M69.44-18.084c.017.072.006.127-.027.19-.053.1-.112.063-.165.128-.05.063-.1.276-.08.362-.168.058-.01.227-.014.35-.002.05-.04.105-.045.16-.01.12.016.267.067.37.097.2.268.414.435.545.19.15.365.573.608.632.177.042.384-.104.543-.143.18-.044.397.01.57-.054.223-.08.128-.337.29-.45.103-.074.286-.01.405-.05.2-.07.34-.264.376-.46.016-.083.01-.146.04-.222.038-.103.11-.16.09-.293-.01-.06-.053-.12-.065-.186-.023-.114 0-.224 0-.337-.004-.2.016-.38-.08-.55-.38-.688-1.235-.93-1.974-.79-.18.035-.287.127-.442.208-.17.088-.14.166-.318.224-.08.025-.216.123-.215.223.002.115.006.05.013.17-.02.01-.02-.006-.03-.026M61.778-18.084c.018.072.007.127-.026.19-.053.1-.112.063-.165.128-.05.063-.1.276-.08.362-.168.058-.008.227-.014.35-.002.05-.04.105-.045.16-.01.12.017.267.068.37.097.2.268.414.435.545.19.15.366.573.61.632.176.042.383-.104.542-.143.18-.044.397.01.57-.054.223-.08.128-.337.29-.45.103-.074.286-.01.405-.05.2-.07.34-.264.376-.46.016-.083.01-.146.04-.222.038-.103.11-.16.09-.293-.01-.06-.053-.12-.065-.186-.022-.114.002-.224 0-.337-.003-.2.017-.38-.078-.55-.38-.688-1.236-.93-1.975-.79-.18.035-.287.127-.442.208-.17.088-.14.166-.318.224-.08.025-.216.123-.215.223 0 .115.005.05.012.17-.02.01-.02-.006-.03-.026M54.118-18.084c.018.072.007.127-.026.19-.053.1-.112.063-.165.128-.05.063-.1.276-.08.362-.168.058-.008.227-.014.35-.002.05-.04.105-.045.16-.01.12.017.267.068.37.097.2.268.414.435.545.19.15.366.573.61.632.176.042.383-.104.542-.143.18-.044.397.01.57-.054.223-.08.128-.337.29-.45.103-.074.286-.01.405-.05.2-.07.34-.264.376-.46.016-.083.01-.146.04-.222.038-.103.11-.16.09-.293-.01-.06-.053-.12-.065-.186-.022-.114.002-.224 0-.337-.003-.2.017-.38-.078-.55-.38-.688-1.236-.93-1.975-.79-.18.035-.287.127-.442.208-.17.088-.14.166-.318.224-.08.025-.216.123-.215.223 0 .115.005.05.012.17-.02.01-.02-.006-.03-.026M46.458-18.084c.018.072.007.127-.026.19-.053.1-.112.063-.165.128-.05.063-.1.276-.08.362-.168.058-.008.227-.014.35-.002.05-.04.105-.045.16-.01.12.017.267.068.37.097.2.268.414.435.545.19.15.366.573.61.632.176.042.383-.104.542-.143.18-.044.397.01.57-.054.223-.08.128-.337.29-.45.103-.074.286-.01.405-.05.2-.07.34-.264.376-.46.016-.083.01-.146.04-.222.038-.103.11-.16.09-.293-.01-.06-.053-.12-.065-.186-.022-.114.002-.224 0-.337-.003-.2.017-.38-.078-.55-.38-.688-1.236-.93-1.975-.79-.18.035-.287.127-.442.208-.17.088-.14.166-.318.224-.08.025-.216.123-.215.223 0 .115.005.05.012.17-.02.01-.02-.006-.03-.026M38.797-18.084c.018.072.007.127-.026.19-.052.1-.11.063-.164.128-.05.063-.1.276-.08.362-.168.058-.008.227-.014.35-.002.05-.04.105-.045.16-.01.12.017.267.068.37.097.2.268.414.435.545.19.15.365.573.608.632.177.042.384-.104.543-.143.18-.044.398.01.572-.054.222-.08.127-.337.288-.45.104-.074.287-.01.406-.05.2-.07.34-.264.376-.46.016-.083.01-.146.04-.222.038-.103.11-.16.09-.293-.01-.06-.053-.12-.065-.186-.022-.114.002-.224 0-.337-.003-.2.017-.38-.078-.55-.38-.688-1.237-.93-1.976-.79-.18.035-.287.127-.442.208-.17.088-.14.166-.318.224-.08.025-.216.123-.215.223 0 .115.004.05.01.17-.02.01-.02-.006-.03-.026M31.137-18.084c.018.072.007.127-.026.19-.052.1-.11.063-.164.128-.05.063-.1.276-.08.362-.168.058-.008.227-.014.35-.002.05-.04.105-.045.16-.01.12.017.267.068.37.097.2.268.414.435.545.19.15.365.573.608.632.177.042.384-.104.543-.143.18-.044.398.01.572-.054.222-.08.127-.337.288-.45.104-.074.287-.01.406-.05.2-.07.34-.264.376-.46.016-.083.01-.146.04-.222.038-.103.11-.16.09-.293-.01-.06-.053-.12-.065-.186-.022-.114.002-.224 0-.337-.003-.2.017-.38-.078-.55-.38-.688-1.237-.93-1.976-.79-.18.035-.287.127-.442.208-.17.088-.14.166-.318.224-.08.025-.216.123-.215.223 0 .115.004.05.01.17-.02.01-.02-.006-.03-.026M23.477-18.084c.018.072.007.127-.026.19-.052.1-.11.063-.164.128-.05.063-.1.276-.08.362-.168.058-.008.227-.014.35-.002.05-.04.105-.045.16-.01.12.017.267.068.37.097.2.268.414.435.545.19.15.365.573.608.632.177.042.384-.104.543-.143.18-.044.398.01.572-.054.222-.08.127-.337.288-.45.104-.074.287-.01.406-.05.2-.07.34-.264.376-.46.016-.083.01-.146.04-.222.038-.103.11-.16.09-.293-.01-.06-.053-.12-.065-.186-.022-.114.002-.224 0-.337-.003-.2.017-.38-.078-.55-.38-.688-1.237-.93-1.976-.79-.18.035-.287.127-.442.208-.17.088-.14.166-.318.224-.08.025-.216.123-.215.223 0 .115.004.05.01.17-.02.01-.02-.006-.03-.026M15.816-18.084c.018.072.007.127-.026.19-.053.1-.112.063-.165.128-.05.063-.1.276-.08.362-.168.058-.008.227-.014.35 0 .05-.04.105-.044.16-.01.12.017.267.068.37.097.2.268.414.435.545.19.15.364.573.607.632.177.042.384-.104.543-.143.18-.044.397.01.57-.054.223-.08.128-.337.29-.45.103-.074.286-.01.405-.05.2-.07.34-.264.376-.46.017-.083.01-.146.04-.222.04-.103.11-.16.09-.293-.01-.06-.052-.12-.064-.186-.022-.114.002-.224 0-.337-.003-.2.017-.38-.078-.55-.38-.688-1.236-.93-1.975-.79-.18.035-.287.127-.442.208-.17.088-.138.166-.317.224-.08.025-.216.123-.215.223 0 .115.005.05.012.17-.02.01-.02-.006-.03-.026M8.156-18.084c.018.072.007.127-.026.19-.053.1-.112.063-.165.128-.05.063-.1.276-.08.362-.168.058-.008.227-.014.35 0 .05-.04.105-.044.16-.01.12.017.267.068.37.097.2.268.414.435.545.19.15.364.573.607.632.177.042.384-.104.543-.143.18-.044.397.01.57-.054.223-.08.128-.337.29-.45.103-.074.286-.01.405-.05.2-.07.34-.264.376-.46.017-.083.01-.146.04-.222.04-.103.11-.16.09-.293-.01-.06-.052-.12-.064-.186-.022-.114.002-.224 0-.337-.003-.2.017-.38-.078-.55-.38-.688-1.236-.93-1.975-.79-.18.035-.287.127-.442.208-.17.088-.138.166-.317.224-.08.025-.216.123-.215.223 0 .115.005.05.012.17-.02.01-.02-.006-.03-.026M.495-18.084c.018.072.007.127-.026.19-.054.1-.113.063-.166.128-.05.063-.1.276-.08.362-.168.058-.01.227-.014.35-.002.05-.04.105-.045.16-.01.12.017.267.068.37.097.2.268.414.435.545.19.15.365.573.608.632.177.042.384-.104.543-.143.18-.044.396.01.57-.054.222-.08.127-.337.288-.45.104-.074.287-.01.406-.05.2-.07.34-.264.376-.46.016-.083.01-.146.04-.222.038-.103.11-.16.09-.293-.01-.06-.053-.12-.065-.186-.022-.114.002-.224 0-.337-.003-.2.017-.38-.078-.55-.38-.688-1.236-.93-1.975-.79-.18.035-.287.127-.442.208-.17.088-.14.166-.318.224-.08.025-.216.123-.215.223.003.117.006.052.013.17-.02.01-.02-.005-.03-.025M69.44-10.43c.017.07.006.126-.027.19-.053.1-.112.062-.165.127-.05.063-.1.276-.08.362-.168.058-.01.227-.014.35-.002.05-.04.105-.045.16-.01.12.016.267.067.37.097.2.268.414.435.545.19.148.365.572.608.63.177.043.384-.103.543-.142.18-.043.397.01.57-.053.223-.08.128-.337.29-.45.103-.074.286-.01.405-.05.2-.07.34-.264.376-.46.016-.083.01-.146.04-.222.038-.103.11-.16.09-.293-.01-.062-.053-.12-.065-.187-.023-.114 0-.224 0-.337-.004-.2.016-.378-.08-.55-.38-.687-1.235-.928-1.974-.788-.18.034-.287.126-.442.207-.17.087-.14.165-.318.223-.08.026-.216.124-.215.224.002.115.006.05.013.17-.02.01-.02-.006-.03-.026M61.778-10.43c.018.07.007.126-.026.19-.053.1-.112.062-.165.127-.05.063-.1.276-.08.362-.168.057-.008.226-.014.35-.002.05-.04.104-.045.16-.01.12.017.266.068.37.097.198.268.413.435.544.19.148.366.572.61.63.176.043.383-.103.542-.142.18-.043.397.01.57-.053.223-.08.128-.338.29-.45.103-.075.286-.01.405-.052.2-.07.34-.263.376-.46.016-.082.01-.145.04-.22.038-.104.11-.16.09-.294-.01-.062-.053-.12-.065-.187-.022-.114.002-.224 0-.337-.003-.2.017-.38-.078-.55-.38-.688-1.236-.93-1.975-.79-.18.035-.287.127-.442.208-.17.088-.14.166-.318.224-.08.026-.216.124-.215.224 0 .115.005.05.012.17-.02.01-.02-.006-.03-.026M54.118-10.43c.018.07.007.126-.026.19-.053.1-.112.062-.165.127-.05.063-.1.276-.08.362-.168.057-.008.226-.014.35-.002.05-.04.104-.045.16-.01.12.017.266.068.37.097.198.268.413.435.544.19.148.366.572.61.63.176.043.383-.103.542-.142.18-.043.397.01.57-.053.223-.08.128-.338.29-.45.103-.075.286-.01.405-.052.2-.07.34-.263.376-.46.016-.082.01-.145.04-.22.038-.104.11-.16.09-.294-.01-.062-.053-.12-.065-.187-.022-.114.002-.224 0-.337-.003-.2.017-.38-.078-.55-.38-.688-1.236-.93-1.975-.79-.18.035-.287.127-.442.208-.17.088-.14.166-.318.224-.08.026-.216.124-.215.224 0 .115.005.05.012.17-.02.01-.02-.006-.03-.026M46.458-10.43c.018.07.007.126-.026.19-.053.1-.112.062-.165.127-.05.063-.1.276-.08.362-.168.057-.008.226-.014.35-.002.05-.04.104-.045.16-.01.12.017.266.068.37.097.198.268.413.435.544.19.148.366.572.61.63.176.043.383-.103.542-.142.18-.043.397.01.57-.053.223-.08.128-.338.29-.45.103-.075.286-.01.405-.052.2-.07.34-.263.376-.46.016-.082.01-.145.04-.22.038-.104.11-.16.09-.294-.01-.062-.053-.12-.065-.187-.022-.114.002-.224 0-.337-.003-.2.017-.38-.078-.55-.38-.688-1.236-.93-1.975-.79-.18.035-.287.127-.442.208-.17.088-.14.166-.318.224-.08.026-.216.124-.215.224 0 .115.005.05.012.17-.02.01-.02-.006-.03-.026M38.797-10.43c.018.07.007.126-.026.19-.052.1-.11.062-.164.127-.05.063-.1.276-.08.362-.168.057-.008.226-.014.35-.002.05-.04.104-.045.16-.01.12.017.266.068.37.097.198.268.413.435.544.19.148.365.572.608.63.177.043.384-.103.543-.142.18-.043.398.01.572-.053.222-.08.127-.338.288-.45.104-.075.287-.01.406-.052.2-.07.34-.263.376-.46.016-.082.01-.145.04-.22.038-.104.11-.16.09-.294-.01-.062-.053-.12-.065-.187-.022-.114.002-.224 0-.337-.003-.2.017-.38-.078-.55-.38-.688-1.237-.93-1.976-.79-.18.035-.287.127-.442.208-.17.088-.14.166-.318.224-.08.026-.216.124-.215.224 0 .115.004.05.01.17-.02.01-.02-.006-.03-.026M31.137-10.43c.018.07.007.126-.026.19-.052.1-.11.062-.164.127-.05.063-.1.276-.08.362-.168.057-.008.226-.014.35-.002.05-.04.104-.045.16-.01.12.017.266.068.37.097.198.268.413.435.544.19.148.365.572.608.63.177.043.384-.103.543-.142.18-.043.398.01.572-.053.222-.08.127-.338.288-.45.104-.075.287-.01.406-.052.2-.07.34-.263.376-.46.016-.082.01-.145.04-.22.038-.104.11-.16.09-.294-.01-.062-.053-.12-.065-.187-.022-.114.002-.224 0-.337-.003-.2.017-.38-.078-.55-.38-.688-1.237-.93-1.976-.79-.18.035-.287.127-.442.208-.17.088-.14.166-.318.224-.08.026-.216.124-.215.224 0 .115.004.05.01.17-.02.01-.02-.006-.03-.026M23.477-10.43c.018.07.007.126-.026.19-.052.1-.11.062-.164.127-.05.063-.1.276-.08.362-.168.057-.008.226-.014.35-.002.05-.04.104-.045.16-.01.12.017.266.068.37.097.198.268.413.435.544.19.148.365.572.608.63.177.043.384-.103.543-.142.18-.043.398.01.572-.053.222-.08.127-.338.288-.45.104-.075.287-.01.406-.052.2-.07.34-.263.376-.46.016-.082.01-.145.04-.22.038-.104.11-.16.09-.294-.01-.062-.053-.12-.065-.187-.022-.114.002-.224 0-.337-.003-.2.017-.38-.078-.55-.38-.688-1.237-.93-1.976-.79-.18.035-.287.127-.442.208-.17.088-.14.166-.318.224-.08.026-.216.124-.215.224 0 .115.004.05.01.17-.02.01-.02-.006-.03-.026M15.816-10.43c.018.07.007.126-.026.19-.053.1-.112.062-.165.127-.05.063-.1.276-.08.362-.168.057-.008.226-.014.35 0 .05-.04.104-.044.16-.01.12.017.266.068.37.097.198.268.413.435.544.19.148.364.572.607.63.177.043.384-.103.543-.142.18-.043.397.01.57-.053.223-.08.13-.337.29-.45.104-.074.287-.01.406-.05.2-.07.34-.264.376-.46.016-.083.01-.146.04-.222.038-.103.11-.16.09-.293-.01-.062-.053-.12-.065-.187-.022-.114.002-.224 0-.337-.003-.2.017-.378-.078-.55-.38-.687-1.237-.928-1.976-.788-.18.034-.287.126-.442.207-.17.087-.14.165-.318.223-.08.026-.216.124-.215.224 0 .115.004.05.01.17-.02.01-.02-.006-.03-.026M8.156-10.43c.018.07.007.126-.026.19-.053.1-.112.062-.165.127-.05.063-.1.277-.08.363-.168.058-.01.227-.014.35-.002.05-.04.105-.044.16-.01.12.017.267.068.37.097.2.268.414.435.545.19.148.364.572.607.63.177.043.384-.104.543-.142.18-.043.397.01.57-.053.223-.08.128-.337.29-.45.103-.074.286-.01.405-.05.2-.07.34-.264.376-.46.017-.083.01-.146.04-.222.04-.103.11-.16.09-.293-.01-.062-.052-.12-.064-.187-.022-.114.002-.224 0-.337-.003-.2.017-.378-.078-.55-.38-.687-1.236-.928-1.975-.788-.18.034-.287.126-.442.207-.17.087-.138.165-.317.223-.08.026-.216.124-.215.224 0 .115.005.05.012.17-.02.01-.02-.006-.03-.026M.495-10.43c.018.07.007.126-.026.19-.054.1-.113.062-.166.127-.05.063-.1.277-.08.363-.168.058-.01.227-.014.35-.002.05-.04.105-.045.16-.01.12.017.267.068.37.097.2.268.414.435.545.19.148.365.572.608.63.178.043.384-.104.543-.142.18-.043.397.01.57-.053.223-.08.128-.337.29-.45.103-.074.286-.01.405-.05.2-.07.34-.264.376-.46.017-.083.01-.145.04-.22.04-.104.11-.16.09-.294-.01-.062-.052-.12-.064-.187-.022-.115.002-.225 0-.338-.003-.2.017-.38-.078-.55-.38-.688-1.236-.93-1.975-.79-.18.035-.287.127-.442.208-.17.088-.138.166-.317.224-.08.026-.216.124-.215.224 0 .115.005.05.012.17-.02.01-.02-.006-.03-.026"/></g><g fill="#fff"><path d="M69.44-2.778c.017.072.007.127-.027.19-.052.1-.113.063-.165.128-.05.063-.1.276-.08.362-.168.058-.01.227-.014.35-.002.05-.04.105-.045.16-.01.12.016.267.067.37.097.2.268.414.435.545.19.148.365.572.608.63.177.043.384-.103.543-.142.18-.043.397.01.57-.053.223-.08.128-.337.29-.45.103-.074.286-.01.405-.05.2-.07.34-.264.376-.46.016-.083.01-.146.04-.222.037-.103.11-.16.09-.293-.01-.062-.052-.12-.065-.187-.022-.114 0-.224 0-.337-.004-.2.016-.38-.08-.55-.38-.688-1.235-.93-1.974-.79-.18.035-.287.127-.442.208-.17.09-.14.167-.318.225-.08.026-.215.124-.215.224.003.114.006.05.013.168-.02.01-.02-.005-.03-.025M61.778-2.778c.018.072.007.127-.026.19-.052.1-.112.063-.165.128-.05.063-.1.276-.08.362-.168.058-.01.227-.014.35-.002.05-.04.105-.045.16-.01.12.017.267.068.37.097.2.268.414.435.545.19.148.366.572.61.63.177.043.383-.103.543-.142.18-.043.397.01.57-.053.223-.08.128-.337.29-.45.103-.074.286-.01.405-.05.2-.07.34-.264.376-.46.016-.083.01-.146.04-.222.038-.103.11-.16.09-.293-.01-.062-.053-.12-.065-.187-.023-.114 0-.224 0-.337-.004-.2.016-.38-.08-.55-.38-.688-1.235-.93-1.974-.79-.18.035-.287.127-.442.208-.17.09-.14.167-.318.225-.08.028-.216.125-.215.225.002.115.006.05.013.17-.02.01-.02-.006-.03-.026M54.118-2.778c.018.072.007.127-.026.19-.052.1-.112.063-.165.128-.05.063-.1.276-.08.362-.168.058-.01.227-.014.35-.002.05-.04.105-.045.16-.01.12.017.267.068.37.097.2.268.414.435.545.19.148.366.572.61.63.177.043.383-.103.542-.142.18-.043.397.01.57-.053.223-.08.128-.337.29-.45.103-.074.286-.01.405-.05.2-.07.34-.264.376-.46.016-.083.01-.146.04-.222.038-.103.11-.16.09-.293-.01-.062-.053-.12-.065-.187-.022-.114.002-.224 0-.337-.003-.2.017-.38-.078-.55-.38-.688-1.236-.93-1.975-.79-.18.035-.287.127-.442.208-.17.09-.14.167-.318.225-.08.028-.215.125-.214.225.002.115.006.05.013.17-.02.01-.02-.006-.03-.026M46.458-2.778c.018.072.007.127-.026.19-.053.1-.112.063-.165.128-.05.063-.1.276-.08.362-.168.058-.01.227-.014.35-.002.05-.04.105-.045.16-.01.12.017.267.068.37.097.2.268.414.435.545.19.148.366.572.61.63.176.043.383-.103.542-.142.18-.043.397.01.57-.053.223-.08.128-.337.29-.45.103-.074.286-.01.405-.05.2-.07.34-.264.376-.46.016-.083.01-.146.04-.222.038-.103.11-.16.09-.293-.01-.062-.053-.12-.065-.187-.022-.114.002-.224 0-.337-.003-.2.017-.38-.078-.55-.38-.688-1.236-.93-1.975-.79-.18.035-.287.127-.442.208-.17.09-.14.167-.318.225-.08.028-.216.125-.215.225 0 .115.005.05.012.17-.02.01-.02-.006-.03-.026M38.797-2.778c.018.072.007.127-.026.19-.052.1-.11.063-.164.128-.05.063-.1.276-.08.362-.168.058-.01.227-.014.35-.002.05-.04.105-.045.16-.01.12.017.267.068.37.097.2.268.414.435.545.19.148.365.572.608.63.178.043.384-.103.544-.142.18-.043.397.01.57-.053.223-.08.128-.337.29-.45.103-.074.286-.01.405-.05.2-.07.34-.264.376-.46.016-.083.01-.146.04-.222.038-.103.11-.16.09-.293-.01-.062-.053-.12-.065-.187-.022-.114.002-.224 0-.337-.003-.2.017-.38-.078-.55-.38-.688-1.236-.93-1.975-.79-.18.035-.287.127-.442.208-.17.09-.14.167-.318.225-.08.028-.216.125-.215.225 0 .115.005.05.012.17-.02.01-.02-.006-.03-.026M31.137-2.778c.018.072.007.127-.026.19-.052.1-.11.063-.164.128-.05.063-.1.276-.08.362-.168.058-.01.227-.014.35-.002.05-.04.105-.045.16-.01.12.017.267.068.37.097.2.268.414.435.545.19.148.365.572.608.63.177.043.384-.103.543-.142.18-.043.398.01.572-.053.222-.08.127-.337.288-.45.104-.074.287-.01.406-.05.2-.07.34-.264.376-.46.016-.083.01-.146.04-.222.038-.103.11-.16.09-.293-.01-.062-.053-.12-.065-.187-.022-.114.002-.224 0-.337-.003-.2.017-.38-.078-.55-.38-.688-1.237-.93-1.976-.79-.18.035-.287.127-.442.208-.17.09-.14.167-.318.225-.08.028-.215.125-.214.225 0 .115.005.05.012.17-.02.01-.02-.006-.03-.026M23.477-2.778c.018.072.007.127-.026.19-.052.1-.11.063-.164.128-.05.063-.1.276-.08.362-.168.058-.01.227-.014.35-.002.05-.04.105-.045.16-.01.12.017.267.068.37.097.2.268.414.435.545.19.148.365.572.608.63.177.043.384-.103.543-.142.18-.043.398.01.572-.053.222-.08.127-.337.288-.45.104-.074.287-.01.406-.05.2-.07.34-.264.376-.46.016-.083.01-.146.04-.222.038-.103.11-.16.09-.293-.01-.062-.053-.12-.065-.187-.022-.114.002-.224 0-.337-.003-.2.017-.38-.078-.55-.38-.688-1.237-.93-1.976-.79-.18.035-.287.127-.442.208-.17.09-.14.167-.318.225-.08.026-.216.124-.215.224 0 .114.004.05.01.168-.02.01-.02-.005-.03-.025M15.816-2.778c.018.072.007.127-.026.19-.053.1-.112.063-.165.128-.05.063-.1.276-.08.362-.168.058-.01.227-.014.35 0 .05-.04.105-.044.16-.01.12.017.267.068.37.097.2.268.414.435.545.19.148.364.572.607.63.177.043.384-.103.543-.142.18-.043.397.01.57-.053.223-.08.128-.337.29-.45.103-.074.286-.01.405-.05.2-.07.34-.264.376-.46.017-.083.01-.146.04-.222.04-.103.11-.16.09-.293-.01-.062-.052-.12-.064-.187-.022-.114.002-.224 0-.337-.003-.2.017-.38-.078-.55-.38-.688-1.236-.93-1.975-.79-.18.035-.287.127-.442.208-.17.09-.138.167-.317.225-.08.026-.216.124-.215.224 0 .114.005.05.012.168-.02.012-.02-.004-.03-.024M8.156-2.778c.018.072.007.127-.026.19-.053.1-.112.063-.165.128-.05.063-.1.276-.08.362-.168.058-.01.227-.014.35-.002.05-.04.105-.044.16-.01.12.017.267.068.37.097.2.268.414.435.545.19.148.364.572.607.63.177.043.384-.103.543-.142.18-.043.397.01.57-.053.223-.08.128-.337.29-.45.103-.074.286-.01.405-.05.2-.07.34-.264.376-.46.017-.083.01-.146.04-.222.04-.103.11-.16.09-.293-.01-.062-.052-.12-.064-.187-.022-.114.002-.224 0-.337-.003-.2.017-.38-.078-.55-.38-.688-1.236-.93-1.975-.79-.18.037-.286.13-.44.21-.17.088-.14.166-.32.224-.08.026-.215.123-.214.223 0 .115.004.05.01.17-.02.01-.02-.006-.03-.026M.495-2.778c.018.072.008.127-.026.19-.053.1-.114.063-.166.128-.05.063-.1.276-.08.362-.168.058-.01.227-.014.35-.002.05-.04.105-.045.16-.01.12.017.267.068.37.097.2.268.414.435.545.19.148.365.572.608.63.178.043.384-.103.543-.142.18-.043.397.01.57-.052.223-.08.128-.337.29-.45.103-.074.286-.01.405-.05.2-.07.34-.264.376-.46.017-.083.01-.146.04-.222.038-.102.11-.16.09-.292-.01-.062-.05-.12-.064-.187-.02-.113.002-.223 0-.336-.003-.2.017-.38-.078-.55-.38-.688-1.236-.93-1.975-.79-.18.036-.286.128-.442.21-.17.087-.138.165-.317.223-.08.026-.215.123-.215.223.002.115.005.05.012.17-.02.01-.022-.006-.03-.026"/></g></pattern><defs><path id="a" d="M0 .008h385.248v359.43H0z"/></defs><clipPath id="b"><use xlink:href="#a" overflow="visible"/></clipPath><path clip-path="url(#b)" fill="#003E7E" d="M385.248 162.556c0-39.07-24.285-77.583-67.394-101.246L301.34 74.414c29.457 18.532 46.795 46.235 46.795 77.676 0 73.37-90.674 139.83-191.577 139.83-10.353 0-20.516-.76-30.32-2.216l-34.054 25.202c21.5 7.273 45.49 11.132 70.566 11.132 119.782 0 222.498-80.866 222.498-163.482M232.897 189.835l-61.625 12.057L307.96 89.57l-63.637 8.53L368.01 0 224.022 37.89c-1.898-.04-3.812-.07-5.726-.07C100.292 37.82 0 118.012 0 202.623c0 41.522 22.36 74.542 57.017 95.94L3.807 359.43l229.09-169.595zm-216.445.28c0-75.87 94.945-139.83 191.578-139.83.67 0 1.322.016 1.99.023l-93.423 104.52 53.72-8.498L64.47 248.688l42.926-7.748-29.982 34.304c-36.443-17.254-60.964-47.014-60.964-85.13"/><path clip-path="url(#b)" fill="#003E7E" d="M328.58 276.924h2.38v7.155h.857v-7.156h2.488v-.864h-5.724zM338.895 282.586l-2.062-6.518h-1.368v8.02h.847v-6.822l2.156 6.82h.863l2.14-6.82v6.82h.863v-8.018h-1.385z"/></svg>