<svg xmlns="http://www.w3.org/2000/svg" xmlns:xlink="http://www.w3.org/1999/xlink" width="385.248" height="359.438" viewBox="0 0 385.248 359.438"><defs><path id="a" d="M0 .008h385.248v359.43H0z"/></defs><clipPath id="b"><use xlink:href="#a" overflow="visible"/></clipPath><path clip-path="url(#b)" fill="#003E7E" d="M385.248 162.556c0-39.07-24.285-77.583-67.394-101.246L301.34 74.414c29.457 18.532 46.795 46.235 46.795 77.676 0 73.37-90.674 139.83-191.577 139.83-10.353 0-20.516-.76-30.32-2.216l-34.054 25.202c21.5 7.273 45.49 11.132 70.566 11.132 119.782 0 222.498-80.866 222.498-163.482m-152.351 27.279l-61.625 12.057L307.96 89.57l-63.637 8.53L368.01 0 224.022 37.89c-1.898-.04-3.812-.07-5.726-.07C100.292 37.82 0 118.012 0 202.623c0 41.522 22.36 74.542 57.017 95.94L3.807 359.43l229.09-169.595zm-216.445.28c0-75.87 94.945-139.83 191.578-139.83.67 0 1.322.016 1.99.023l-93.423 104.52 53.72-8.498L64.47 248.688l42.926-7.748-29.982 34.304C40.971 257.99 16.45 228.23 16.45 190.114"/><path clip-path="url(#b)" fill="#003E7E" d="M328.58 276.924h2.38v7.155h.857v-7.156h2.488v-.864h-5.724zm10.315 5.662l-2.062-6.518h-1.368v8.02h.847v-6.822l2.156 6.82h.863l2.14-6.82v6.82h.863v-8.018h-1.385z"/></svg>