<svg version="1" xmlns="http://www.w3.org/2000/svg" width="200" height="200" viewBox="0 0 200 200"><switch><g><path fill="#FFF" d="M146 152.75H54.5l-10.75-66H158z"/><path fill-rule="evenodd" clip-rule="evenodd" fill="#003876" d="M81.099 92.908c1.517 0 3.049.729 3.049 2.626.03 1.576-1.08 2.582-3.049 2.625v-5.251zM105.255 113.929c4.144 0 4.202 4.726-.028 4.726l.028-4.726zM90.697 115.117l1.641 5.623-3.216.015zM100.839 137.009l1.816 5.809-3.38-.007z"/><path fill-rule="evenodd" clip-rule="evenodd" fill="#003876" d="M180.146 105.351c2.881-11.438 7.011-25.031 9.452-35.709-11.575-2.545-24.624-3.617-36.41-5.952-7.651 3.901-15.27 9.703-22.405 12.954 3.507-15.748 7.348-31.702 10.918-47.387-3.479.219-6.374.423-9.802-.197-5.445-.984-12.464-8.069-16.399-11.31-5.5-4.528-15.087-12.759-15.087-12.759S85.902 17.419 78.269 23.779c-4.796 3.997-9.129 6.79-18.905 5.602 3.372 15.883 10.853 46.913 10.853 46.913S54.38 67.405 48.161 63.69c-12.076 2.045-24.478 3.763-36.76 5.602 2.223 10.816 6.387 24.013 9.453 36.059 1.057 4.151 2.716 9.398 2.101 12.954-.589 3.399-3.288 4.779-5.251 8.052 4.298 2.626 9.966 4.996 16.13 8.228 4.831 2.533 13.271 5.943 13.978 11.378.472 3.629-1.723 6.733-3.151 9.803a162.732 162.732 0 0 1-4.41 8.752h49.922v31.158h20.656v-31.158h50.047c-1.813-2.829-3.509-5.728-4.886-8.752-1.408-3.094-3.344-6.735-2.801-10.153.852-5.349 9.312-8.002 14.004-10.503 5.854-3.119 11.31-6.191 16.104-8.401-1.196-3.463-4.638-4.819-5.251-8.402-.62-3.622 1.037-8.735 2.1-12.956zm-55.183 17.599l-1.072 4.333h-9.103c0-5.718-.109-16.681-.109-16.681l4.551-.029v12.399l5.733-.022zm-15.535-32.996l4.813-.007 5.688 8.402v-8.402h4.201v16.804h-4.259l-5.894-8.635v8.635h-4.551V89.954zM99.1 89.247a8.87 8.87 0 1 1 0 17.739 8.87 8.87 0 0 1 0-17.739zm.284 38.036h-4.901l-1.043-2.866-5.281.007-.934 2.859h-4.646c1.868-5.717 3.368-11.22 5.492-16.681h5.602a416.873 416.873 0 0 1 5.711 16.681zm-42.47-33.281h-3.151v12.749h-4.551V93.959l-3.501-.015.7-3.997h10.503v4.055zm.583 4.114a8.87 8.87 0 1 1 17.739 0 8.87 8.87 0 0 1-17.739 0zm21.363 51.113h-9.343v-16.571h4.551v12.604h5.755l-.963 3.967zm-2.932-21.939l-.788-7.753-3.479 7.681-3.698-7.571-1.138 7.637h-4.201l2.137-16.681h4.055l2.801 7.352 2.801-7.352h4.201l1.86 16.681-4.551.006zm.941-20.539V89.947c7.855-.146 11.4-.255 11.4 5.434 0 1.707-.9 3.03-2.735 3.851 1.118 2.266 3.348 7.527 3.348 7.527l-5.011-.008-2.823-7.541.022 7.541h-4.201zm13.697 42.478l-8.446-.022v-16.549h8.402l.853 3.574h-5.054v2.845h3.457l.044 3.391h-3.501v2.91l5.361-.043-1.116 3.894zm13.843 0l-.729-2.582h-5.514l-.802 2.611-4.595-.029 5.368-16.571h5.689l5.499 16.571h-4.916zm.818-27.175l.109 5.229-4.552.007s-.109-10.853-.109-16.338c6.739 0 11.729-.89 11.729 5.325-.001 3.501-1.182 5.864-7.177 5.777zm13.302 17.723v3.785l-3.15-.022v5.689h-4.376s.044-10.97.044-16.571h7.833c.467 1.283 1.05 3.88 1.05 3.88h-4.551v3.217l3.15.022zm3.152 9.555v-4.07s6.302 1.371 6.346-.89c.03-1.57-2.149-1.894-3.868-2.708-1.996-.946-2.608-2.368-2.608-4.075 0-4.245 3.063-5.55 6.626-5.55 1.36 0 1.994.211 3.68.451 0 1.4-.022 2.663-.022 4.063-1.747-.784-5.995-1.124-5.995.86 0 1.983 6.39 1.794 6.914 6.258.576 4.91-4.213 6.382-11.073 5.661zm14.463-22.049h-9.103l-.109-16.681h8.753l.7 3.793h-4.901v2.654h3.398v3.473h-3.398v2.873l5.354-.015-.694 3.903zm.941-33.135h-3.151v12.603h-4.551V94.134l-3.501.014.854-4.201h10.35v4.201zm9.54 12.837a8.87 8.87 0 1 1 0-17.739 8.87 8.87 0 0 1 0 17.739z"/><ellipse fill-rule="evenodd" clip-rule="evenodd" fill="#003876" cx="66.41" cy="98.16" rx="4.42" ry="4.595"/><ellipse fill-rule="evenodd" clip-rule="evenodd" fill="#003876" cx="99.144" cy="98.16" rx="4.42" ry="4.595"/><ellipse fill-rule="evenodd" clip-rule="evenodd" fill="#003876" cx="146.581" cy="98.16" rx="4.42" ry="4.595"/><path fill="#003876" d="M124.496 172.646c.817 0 1.616.21 2.396.63s1.387 1.021 1.821 1.802.652 1.596.652 2.444c0 .839-.215 1.646-.643 2.421-.429.775-1.029 1.377-1.802 1.806s-1.581.643-2.425.643-1.652-.214-2.425-.643-1.375-1.03-1.805-1.806a4.9 4.9 0 0 1-.646-2.421c0-.849.219-1.663.655-2.444a4.51 4.51 0 0 1 1.825-1.802c.78-.421 1.579-.63 2.397-.63zm0 .807c-.685 0-1.351.175-1.999.525a3.798 3.798 0 0 0-1.521 1.505 4.11 4.11 0 0 0-.549 2.038c0 .702.18 1.374.539 2.018s.862 1.146 1.508 1.505 1.319.539 2.021.539c.701 0 1.375-.18 2.021-.539a3.794 3.794 0 0 0 1.504-1.505 4.102 4.102 0 0 0 .536-2.018c0-.706-.182-1.386-.545-2.038a3.767 3.767 0 0 0-1.521-1.505 4.152 4.152 0 0 0-1.994-.525zm-2.138 6.761v-5.243h1.802c.615 0 1.061.048 1.337.146.275.097.495.266.658.507.164.241.246.497.246.768 0 .384-.137.718-.41 1.001-.273.284-.637.444-1.088.479.185.077.333.17.445.277.211.207.469.554.774 1.04l.64 1.026h-1.033l-.465-.826c-.366-.65-.661-1.058-.885-1.221-.155-.12-.381-.181-.679-.181h-.497v2.228h-.845zm.846-2.951h1.027c.49 0 .825-.073 1.004-.22a.712.712 0 0 0 .268-.581.707.707 0 0 0-.129-.416.757.757 0 0 0-.358-.274c-.152-.061-.436-.091-.85-.091h-.962v1.582z"/></g></switch></svg>