<svg xmlns="http://www.w3.org/2000/svg" width="200.1" height="192.818"><path d="M99.39 119.476l42.573-21.207c29.128 8.162 37.77 19.205 37.77 19.205L196.42 98.63c.92-.96 3.68-4.362 3.68-10.564 0-6.722-7.002-11.883-11.884-15.404-8.282-21.767-54.216-28.09-57.617-35.65-1.16-2.602-7.883-25.288-7.883-25.288C118.717 0 106.912 0 102.47 0c-4.48 0-14.043 1.52-14.043 1.52 0 16.325-2.2 36.25-4.522 39.892 0 0-8.282 4.362-18.045 7.843L42.653 33.61l6.122 21.086C9.563 76.223 0 113.754 0 113.754s10.083 79.064 109.193 79.064c52.415 0 82.665-25.328 82.665-25.328l-16.886-37.77s-25.767 13.403-58.737 13.403c-30.37 0-42.253-14.164-46.614-22.407 25.73.8 29.77-1.24 29.77-1.24z" fill="#a7a9ac"/><path fill="#a7a9ac" d="M40.412 95.51L66.1 78.222l-1.92 13.725zM72.062 75.863L67.26 64.3l18.566-10.404zM78.544 74.542l11.003 9.203-22.167-3z"/><path d="M184.615 75.623c-8.082-21.887-52.735-25.888-57.697-36.17-1.96-4.162-4.52-14.045-8.202-26.09-2.96-8.722-11.684-8.722-16.045-8.722-4.16 0-9.562.882-9.562.882 0 8.882-1.68 34.77-5.802 39.29-1.04 1.282-8.642 4.363-16.925 7.564l2.482 1.68-2.52 2.52c8.242-4.32 15.124-5.84 19.245-9.282 6.002-6.162 81.064 36.93 76.783 36.93-1.88 0-8.803 2.682-14.564 4.963 19.245 6.322 29.088 13.124 30.41 14.084l-2.842 3.202s-11.404-9.243-38.092-16.325c-11.483 5.762-45.173.64-45.173.64-18.567 3.8-36.292 21.447-37.172 22.327 2.52 12.404 14.644 38.01 57.457 38.01 30.93 0 54.856-10.802 54.856-10.802l11.085 24.808s-29.05 20.126-72.982 20.126c-89.827 0-101.23-70.622-101.23-70.622 12.403-33.13 33.25-47.654 46.493-53.776l-4.16-.48-.36-1.24C15.085 78.504 4.76 114.274 4.76 114.274s10.645 74.303 104.633 74.303c48.094 0 77.183-22.287 77.183-22.287l-13.604-30.41s-25.408 11.924-56.537 11.924c-46.374 0-53.216-31.65-53.216-31.65s26.407 1.6 34.85-.68l43.653-21.806c29.568 8.323 38.09 17.365 38.09 17.365L193.34 95.79s2.48-2.322 2.48-7.564c0-4.88-7.32-9.802-11.203-12.603" fill="#003e7e"/><path d="M173.612 77.143c-18.525-1.48-25.728-7.562-25.728-12.364 0-2.28 2.08-2.72 3.52-2.72 7.564 0 19.247 6 21.168 11.082-3.32-3.56-9.123-6.682-13.524-6.682-.96 0-1.92.28-1.92 1.44 0 3 5.32 7.683 24.727 9.843-7.443-21.446-48.455-22.967-57.658-36.41-2.56-3.722-6.802-27.69-11.083-30.93-4.68-3.6-16.725-1.96-16.725-1.96 0 3.32-.8 32.69-6.883 38.81-4.08 3.442-11.003 4.963-19.246 9.284l-4.76 4.8-5.242 16.406-6.802-3.56 2.44 6.04-12.163 2.042 6.882 2.36L30.77 99.83l5.36.4-7.04 12.764c10.202-4.6 13.283-5.522 13.283-5.522l-2.92-3 20.525-8.283s-1.56 4.12-1.56 12.082c0 1.16.16 2.8.56 4.762.88-1.68 17.045-31.45 51.655-33.49l-43.213 33.45s23.687 1 29.49-.64c18.285-8.483 32.93-16.445 44.412-22.207 11.004-5.522 19.166-9.003 24.768-9.003 6.922 0 16.605 6.722 24.807 12.404 0 0 .52-.44.96-1.32 2-7.203-8.322-12.724-18.245-15.085" fill="#002e56"/><path d="M58.978 113.074c.88-.84 18.605-18.486 37.17-22.287l14.485-11.203c-34.61 2.04-50.775 31.81-51.655 33.49M192.538 89.107c0-4.402-5.802-7.362-10.723-11.324-19.446-2.16-24.728-6.842-24.728-9.843 0-1.16 1-1.44 1.92-1.44 4.402 0 10.244 3.12 13.525 6.682-1.92-5.082-13.604-11.083-21.167-11.083-1.44 0-3.52.44-3.52 2.72 0 4.8 7.2 10.843 25.727 12.363 9.923 2.36 20.246 7.883 18.246 15.045.4-.76.72-1.8.72-3.12M156.127 89.067l7.202 2.56c1.32-.56 2.76-1.28 2.88-1.44.08-.2.08-.36-.2-.64-.2-.2-3.44-1.4-5.442-2.12l-4.44 1.64zM162.21 86.786c1.92.76 4.56 1.84 4.8 1.88.32.04.8.08 1.12 0 .24-.08 1.8-.88 2.96-1.44-1.12-.56-3.36-1.6-4.88-1.6-1.44-.04-4 1.16-4 1.16M169.33 89.267c-.08.16 0 .24.24.44.28.2 4.042 2.16 4.322 2.16.28.04.56.04.84-.04.2-.04 1.52-.88 2.4-1.48l-5-2.68c-1.28.68-2.68 1.44-2.8 1.6M172.892 93.228c.08-.2.12-.32.08-.48-.24-.28-3.96-2.2-4.36-2.24-.442-.04-.682-.04-1.042.12-.32.16-2.2 1.2-2.88 1.56l5.8 2.64c1.12-.68 2.282-1.44 2.402-1.6M180.014 95.27c.12.04.52-.08.92-.2.2-.08 1.08-.762 1.64-1.242l-4.48-2.84c-1.08.68-2.2 1.44-2.32 1.6 0 .04 0 .16.24.48l4 2.2zM181.855 95.71c-.12.24-.16.36-.08.44.16.12 2.48 1.68 4.04 2.72l1.8-1.8-4.12-2.682c-.76.56-1.56 1.2-1.64 1.32M179.294 96.47c.08-.12.04-.36-.12-.52-.24-.24-3.8-2.162-4.082-2.202-.32-.08-.84 0-1.16.12-.16.04-1.2.76-2.16 1.48l5.48 2.56c.92-.6 1.962-1.28 2.042-1.44M180.254 97.19c-.16.04-1.2.84-1.96 1.44l4.96 3.08 1.842-2.04c-1.52-1.04-3.682-2.52-3.882-2.6-.2-.04-.72.04-.96.12" fill="#fff"/><path d="M77.143 76.983l8.483 4.922-14.445-1.76 5.963-3.162zm1.4-2.44l-11.123 6.2 22.127 3.002-11.003-9.203zM62.42 90.627l-15.766 2.44L64.06 81.265l-1.64 9.363zm1.76 1.32l1.96-13.724L40.412 95.51l23.767-3.562zM70.06 64.94l11.765-6.643L71.66 72.062l-1.6-7.123zm15.766-11.044L67.22 64.3l4.842 11.563 13.764-21.967z" fill="#aeb0b2"/><path d="M169.45 144.963c-7.762 3-28.008 9.763-52.975 9.763-49.255 0-61.66-33.73-61.66-46.454 0-2.8.2-5.2.442-7.122l-11.324 3.76 1.48 3.202-8.842 3.2-7.6 5.003 15.483 2.88-3.2 11.044 6.64-1.962 6.363 16.205 7.643-1 2.52 11.403s14.364 9.963 38.65 12.124c32.09 2.88 60.86-8.082 60.86-8.082s-34.29 13.444-65.42 10.123c-23.808-2.52-39.292-12.203-39.292-12.203l-.2-10.283-9.403.12-4.44-15.725-8.364 3.92 3.682-14.084-16.045-1.96 3.28-9.843 3.802-7.683-5.122.12 21.446-15.964-9.362-3.64 15.244-2.922-5.32-10.684 9.4 5.362L61.54 61.9c-11.283 3.92-35.57 16.403-49.614 53.094 1.72 8.403 16.404 66.66 97.47 66.66 35.01 0 60.577-13.284 68.42-17.925l-8.363-18.767zM64.46 61.258l4.64-6.242-22.606-15.644 6.482 19.046z" fill="#003e7e"/><path d="M117.995 45.534s-6.282-2.64-7.962-4.802c-1.68-2.12-3.68-23.487-3.68-23.487s-.36 21.767-1.602 23.727c-1.28 1.92-7.52 5.522-7.52 5.522s6.92-2.28 10.322-2.44c2.52-.16 10.443 1.48 10.443 1.48" fill="#fff"/><path d="M107.592 44.053c-3.4.2-10.323 2.44-10.323 2.44s6.24-3.6 7.48-5.52c1.242-1.92 1.602-23.728 1.602-23.728s2 21.327 3.68 23.487c1.722 2.16 8.003 4.802 8.003 4.802s-7.962-1.64-10.443-1.48M141.322 90.147c26.688 7.082 38.092 16.325 38.092 16.325l2.84-3.2c-1.32-.96-11.163-7.763-30.408-14.085 5.72-2.28 12.683-4.962 14.564-4.962 4.24 0 13.004 5.562 22.407 11.684l2.16-2.402c-8.202-5.682-17.845-12.404-24.807-12.404-5.682 0-13.804 3.48-24.848 9.043" fill="#fff"/><path fill="#003e7e" d="M85.626 81.905l-8.483-4.922-6.002 3.16zM70.06 64.94l1.6 7.082 10.165-13.725zM64.06 81.304L46.653 93.108l15.765-2.48z"/></svg>