<?xml version="1.0" encoding="utf-8"?>
<!-- Generator: Adobe Illustrator 15.0.2, SVG Export Plug-In . SVG Version: 6.00 Build 0)  -->
<!DOCTYPE svg PUBLIC "-//W3C//DTD SVG 1.1//EN" "http://www.w3.org/Graphics/SVG/1.1/DTD/svg11.dtd">
<svg version="1.1" id="Layer_1" xmlns="http://www.w3.org/2000/svg" xmlns:xlink="http://www.w3.org/1999/xlink" x="0px" y="0px"
	 width="2000px" height="2000px" viewBox="0 0 2000 2000" enable-background="new 0 0 2000 2000" xml:space="preserve">
<polygon fill="#002E62" points="1681.482,1758.648 1695.792,1758.648 1695.792,1801.73 1700.954,1801.73 1700.954,1758.648 
	1715.956,1758.648 1715.956,1753.486 1681.482,1753.486 "/>
<polygon fill="#002E62" points="1743.561,1792.751 1731.188,1753.476 1722.841,1753.476 1722.841,1801.738 1728.039,1801.738 
	1728.039,1760.75 1740.967,1801.738 1746.137,1801.738 1759.074,1760.75 1759.074,1801.738 1764.271,1801.738 1764.271,1753.476 
	1755.934,1753.476 "/>
<path fill="#A8A9AD" d="M1975.109,1002.595c0,537.144-435.219,972.527-972.397,972.527C465.579,1975.123,30,1539.738,30,1002.595
	C30,465.408,465.442,30,1002.581,30C1539.802,30,1975.109,465.408,1975.109,1002.595"/>
<path fill="#002E62" d="M1909.805,1002.595c0,501.006-406.016,907.259-907.085,907.259c-501.116,0-907.357-406.252-907.357-907.259
	c0-501.075,406.141-907.308,907.21-907.308C1503.686,95.288,1909.805,501.521,1909.805,1002.595"/>
<path fill="#FFFFFF" d="M1090.398,339.442l-87.747-221.075l-93.056,221.092c-327.39,44.181-579.894,324.563-579.894,664.076
	c0,370.205,302.753,670.313,672.949,670.313c370.204,0,667.62-300.106,667.62-670.313
	C1670.271,663.996,1417.793,383.64,1090.398,339.442"/>
<path fill="#810120" d="M593.155,877.498l55.604,133.779l253.468-120.931l13.705-155.313l18.815-86.907l-127.712-83.729
	c0,0,51.366,304.24,51.393,304.362L722.523,733.135l-3.729,107.037l-198.918-75.057l73.783,195.303v-17.126L593.155,877.498z"/>
<polygon fill="#810120" points="889.48,1174.186 709.135,1162.171 782.061,1225.771 739.193,1279.15 832.235,1294.285 
	889.48,1211.964 "/>
<polygon fill="#810120" points="1002.651,1495.044 946.664,1367.962 945.609,1370.669 1002.651,1647.886 1060.445,1368.587 
	1060.226,1368.005 "/>
<polygon fill="#810120" points="1117.405,1211.955 1174.672,1294.365 1268.813,1279.186 1225.906,1225.771 1298.958,1162.048 
	1117.405,1174.186 "/>
<path fill="#810120" d="M1104.6,890.351l253.473,120.91l54.119-135.442l1.028,67.465v20.261l74.97-198.429l-198.957,75.069
	l-3.773-107.046l-135.92,135.637c3.509-21.099,51.427-304.372,51.427-304.372l-128.701,84.51l18.671,86.134L1104.6,890.351z"/>
<polygon fill="#810120" points="1522.777,966.781 1413.211,966.262 1413.211,1062.376 "/>
<polygon fill="#810120" points="485.22,966.781 593.661,1061.382 593.661,966.262 "/>
<polygon fill="#6E6D75" points="1412.227,875.801 1358.107,1011.273 1104.654,890.347 1090.988,735.034 1002.711,331.624 
	915.967,735.034 902.306,890.347 648.813,1011.273 593.181,877.494 593.691,943.288 593.691,1177.173 633.989,1157.107 
	889.52,1174.186 889.52,1211.955 773.451,1378.912 773.451,1480.13 933.48,1401.212 946.703,1367.962 1002.581,1495.642 
	1060.261,1368.005 1073.409,1401.212 1233.468,1480.13 1233.468,1378.876 1117.431,1211.955 1117.431,1174.186 1372.952,1157.107 
	1413.254,1177.173 1413.254,943.288 "/>
<polygon fill="#A8A9AD" points="933.292,737.47 918.848,901.84 918.76,901.884 910.924,994.944 894.303,913.568 639.688,1035.009 
	611.2,966.464 611.2,1148.945 630.371,1139.369 906.988,1157.863 906.988,1217.443 790.951,1384.398 790.951,1451.972 
	919.696,1388.523 939.605,1338.351 928.459,1282.826 947.288,1326.445 1002.581,1452.095 1002.651,402.346 "/>
<path fill="#C60F2F" d="M889.26,1174.186l-165.314-11.013l69.882,60.937c-1.108,3.104-37.903,48.658-37.903,48.658l81.813,13.276
	l51.523-74.08V1174.186z"/>
<path fill="#C60F2F" d="M932.514,657.44l-113.162-74.347c0,0,0.065,0.523,0.229,1.377l90.024,219.988l6.095-69.403L932.514,657.44z"
	/>
<path fill="#C60F2F" d="M858.371,881.314c-0.127-0.053-0.188-0.149-0.333-0.215L730.795,754.192l-3.711,98.516l-190.268-71.575
	l185.766,194.863l156.188-74.561L858.371,881.314z"/>
<polygon fill="#C60F2F" points="961.46,1401.705 1002.757,1610.388 1002.581,1495.757 "/>
<polygon fill="#C60F2F" points="509.119,975.663 593.428,1049.283 593.428,975.284 "/>
<polygon fill="#C60F2F" points="1187.775,583.807 1074.182,658.768 1086.933,717.438 "/>
<polygon fill="#C60F2F" points="1472.598,780.949 1282.611,852.81 1227.058,948.85 1265.04,967.005 "/>
</svg>
