<svg xmlns="http://www.w3.org/2000/svg" width="2000" height="2000" viewBox="0 0 2000 2000"><path fill="#002E62" d="M1681.482 1758.648h14.31v43.082h5.162v-43.082h15.002v-5.162h-34.474zm62.078 34.102l-12.372-39.274h-8.347v48.262h5.2v-40.988l12.927 40.988h5.17l12.937-40.988v40.988h5.197v-48.262h-8.336z"/><path fill="#A8A9AD" d="M1975.11 1002.595c0 537.144-435.22 972.527-972.398 972.527C465.58 1975.122 30 1539.738 30 1002.595 30 465.408 465.442 30 1002.58 30c537.222 0 972.53 435.408 972.53 972.595"/><path fill="#002E62" d="M1909.805 1002.595c0 501.006-406.016 907.26-907.085 907.26-501.116 0-907.357-406.253-907.357-907.26 0-501.075 406.14-907.308 907.21-907.308 501.113 0 907.232 406.234 907.232 907.308"/><path fill="#fff" d="M1090.398 339.442l-87.747-221.075-93.055 221.092C582.205 383.64 329.7 664.02 329.7 1003.534c0 370.205 302.754 670.313 672.95 670.313 370.204 0 667.62-300.106 667.62-670.313 0-339.54-252.477-619.895-579.872-664.093"/><path fill="#810120" d="M593.155 877.498l55.604 133.78 253.467-120.932 13.705-155.313 18.815-86.907-127.712-83.73s51.366 304.24 51.393 304.363L722.523 733.134l-3.73 107.037-198.917-75.057 73.783 195.303v-17.126l-.505-65.794zm296.325 296.688l-180.345-12.015 72.926 63.6-42.867 53.38 93.042 15.135 57.245-82.32zm113.17 320.858l-55.986-127.082-1.055 2.707 57.04 277.216 57.795-279.3-.22-.58zm114.755-283.089l57.267 82.41 94.14-15.18-42.906-53.414 73.052-63.722-181.553 12.138zM1104.6 890.35l253.473 120.91 54.12-135.44 1.027 67.464v20.26l74.97-198.428-198.957 75.07-3.773-107.047-135.92 135.636c3.51-21.1 51.427-304.372 51.427-304.372l-128.7 84.51 18.67 86.134L1104.6 890.35zm418.177 76.43l-109.566-.518v96.114zm-1037.557 0l108.44 94.602v-95.12z"/><path fill="#6E6D75" d="M1412.227 875.8l-54.12 135.473-253.453-120.926-13.666-155.313-88.277-403.41-86.743 403.41-13.66 155.313-253.494 120.926-55.632-133.78.51 65.795v233.885l40.3-20.066 255.53 17.08v37.768l-116.07 166.957v101.218l160.03-78.918 13.223-33.25 55.878 127.68 57.68-127.637 13.15 33.207 160.058 78.918v-101.254l-116.037-166.92v-37.77l255.522-17.08 40.302 20.067V943.288z"/><path fill="#A8A9AD" d="M933.292 737.47l-14.444 164.37-.088.044-7.836 93.06-16.62-81.376-254.616 121.44-28.488-68.544v182.48l19.17-9.575 276.618 18.493v59.58L790.95 1384.398v67.574l128.746-63.45 19.91-50.17-11.147-55.526 18.828 43.62 55.293 125.65.07-1049.75z"/><path fill="#C60F2F" d="M889.26 1174.186l-165.314-11.013 69.882 60.937c-1.108 3.104-37.903 48.658-37.903 48.658l81.813 13.276 51.523-74.08v-37.778zm43.254-516.746l-113.162-74.347s.065.523.23 1.377l90.023 219.988 6.095-69.403 16.814-77.615zM858.37 881.314c-.126-.053-.187-.15-.332-.215L730.795 754.19l-3.71 98.516-190.27-71.575 185.767 194.863 156.188-74.56-20.4-20.122zm103.09 520.391l41.297 208.683-.176-114.63zM509.12 975.663l84.308 73.62v-74zm678.655-391.856l-113.593 74.96 12.75 58.67zm284.823 197.143l-189.987 71.86-55.552 96.04 37.982 18.155z"/></svg>