<svg xmlns="http://www.w3.org/2000/svg" width="227" height="147" version="1"><defs><clipPath id="a"><path d="M0 2000h2000V0H0v2000z"/></clipPath></defs><g clip-path="url(#a)" transform="matrix(.30433 0 0 -.30433 -25.299 187.775)"><path d="M202.333 398s3.792 47.125 19.417 47.125h28.625s2.875 66.792 27.625 66.792h285.292L606.5 612.999h46.166L563.5 398h56.125c23.625 0 34.875-18.125 34.875-18.125l46.166 113.208h46.771l-42.02-102.917s14.084 7.667 21.416 7.667h98.918L809.25 358H794s8.5-8.5 8.5-20.125c0-17.5-16.375-39.875-37.375-39.875h-200c-18.5 0-33.314 14.812-33.126 25.375l-23.5-57.708s-1.063-1.917-1.063-5.917.427-4.427 1.063-5.063l51.416-44.104 26.334 32.542 85.125.125-37-46.25h-67.75l-40.292-59s-48.5 76.167-53.833 85.167c-5.334 9-7.167 23-7.167 30.333 0 19.833 5.63 32.906 7.167 36.833l3 7.667H338l-18.667-46H272.5l19.166 46.167H230.25c-16.875 0-26.729 15.979-26.729 15.979S181.833 298 165.501 298h-47c-19.835 0-32.085 17.917-32.085 30.167 0 27.75 42.084 69.833 95.834 69.833h20.083z" fill="#fff"/><path d="M179.508 369.333h28.367l7.203 17.417H184.25C139 386.75 98 352.553 98 328.166c0-12.666 14.125-18.833 17.166-18.833h49.167c12.668 0 34.833 15.833 34.833 15.833l-17.5 8.167s-8.666-6.334-14.833-6.334h-42.167c-3.167 0-4.499 2.334-4.499 5.668 0 7.416 17.833 36.666 59.341 36.666M271.313 326.969l-37.86.03c-2.25 0-2.579 2.5-2.579 4s2.875 10.126 11.375 10.126h35.438c2.001 0 9.313 3.125 9.313 3.125s-4.813-17.281-15.688-17.281m14.625 59.78h-57.65l-7.099-17.416h61.593c9.588 0 10.72-3.834 10.72-9.833h-45.376c-26.762 0-38.126-18.967-38.126-28.25 0-16.083 14.563-21.875 21.375-21.875H261.5C267.125 309.375 274 314 274 314l-1.75-4.667 21.937.02 17.146 40.855c1.548 3.689 3.667 10.71 3.667 13.959 0 12.916-10.376 22.583-29.063 22.583M288.75 263.5l21.417 48.417c2.909 6.576 21.567 74.833 92.833 74.833h52.25L432.75 332c-4.505-10.964-14.417-22.667-25.5-22.667h-65.417L349 326.999h52.25c7.941 0 10.159 6.134 12.417 11.834l12.083 30.5H404.5c-30.812 0-56.29-19.138-63.5-36.166L311.5 263.5h-22.75zM456.368 359.625l-20.64-50.292h21.834l20.68 50.292h-21.874zM482.234 369.333l7.162 17.417H467.5l-7.148-17.417h21.882zM498.25 386.75l-6.948-17.417h26.073l-35.042-84c-2.544-6.1-5.666-14.666-5.666-35.333 0-7.333 1.352-14.597 3.333-17.667l47-72.833 28.5 40.5-56.125 46.875c-1.696 1.416-3.208 5.124-3.208 12.458 0 7.334 1.418 9.532 3.333 14.167L635.25 602h-21.375L525.12 386.75h-26.87z" fill="#00214d"/><path d="M603.625 326.948l-37.859.03c-2.25 0-2.579 2.501-2.579 4.001 0 1.5 2.875 10.125 11.375 10.125H610c2.001 0 9.313 3.125 9.313 3.125s-4.813-17.28-15.688-17.28m14.625 59.78h-65.003l-7.099-17.417h68.946c9.588 0 10.719-3.834 10.719-9.833h-45.376c-26.761 0-38.125-18.967-38.125-28.25 0-16.083 14.563-21.875 21.375-21.875h30.125c5.625 0 12.501 4.625 12.501 4.625l-1.75-4.667 21.937.021 17.146 40.854c1.548 3.69 3.667 10.711 3.667 13.96 0 12.915-10.376 22.582-29.063 22.582M659.013 309.333l71.56 173.167h-21.374l-71.403-173.167h21.217zM671.031 309.333l7.01 17.666s76.96-.03 81.99-.03c5.031 0 8.97 4.989 8.97 7.697s-1.564 4.959-4.876 4.959h-48.938c-5.25 0-17.27 6.624-17.27 17.791 0 11.167 6.207 29.334 39.145 29.334H809l-7.167-17.417h-73.75c-5.798 0-9.083-5.917-9.083-9 0-2.75 2.75-4 3.416-4h45.751c10.417 0 21.833-3.668 21.833-18.334s-9.287-28.666-32-28.666h-86.969z" fill="#00214d"/><path d="M629.5 209.5l18 21.667h-56.333L574 209.5h55.5zM245.443 412.648h-6.464l1.974 17.458-14.482-17.458h-6.59l1.09 24.03h6.251l-.68-16.865 12.812 16.71h6.931l-.91-16.53 13.232 16.53h6.19l-19.354-23.875zM277.468 421.898l-.06 9.608-9.244-9.608h9.304zm.063-3.974h-12.312l-4.687-5.276h-6.57l21.897 23.874h7.099l.717-23.874h-6.061l-.083 5.276zM289.118 420.385l6.126.244c-.185-1.488-.035-2.492.45-3.014.779-.846 2.426-1.27 4.942-1.27 2.09 0 3.654.288 4.69.864 1.038.574 1.63 1.27 1.777 2.084.128.705-.145 1.303-.82 1.79-.472.36-1.84.94-4.102 1.744-2.263.804-3.901 1.474-4.912 2.01-1.012.538-1.758 1.236-2.238 2.094-.48.857-.617 1.86-.408 3.013.364 2.009 1.612 3.675 3.746 5 2.133 1.325 4.994 1.987 8.582 1.987 3.646 0 6.349-.657 8.11-1.971 1.76-1.314 2.543-3.061 2.345-5.244l-6.163-.211c.05 1.14-.327 2.013-1.136 2.62-.807.61-2.11.913-3.903.913-1.767 0-3.07-.238-3.913-.715-.842-.48-1.33-1.082-1.462-1.81-.123-.683.12-1.247.732-1.692.609-.457 2.03-1.082 4.26-1.873 3.36-1.184 5.46-2.145 6.3-2.883 1.259-1.086 1.735-2.481 1.426-4.186-.382-2.106-1.793-3.906-4.232-5.398-2.44-1.493-5.595-2.24-9.466-2.24-2.67 0-4.921.345-6.753 1.035-1.832.689-3.04 1.647-3.623 2.874-.582 1.227-.701 2.638-.355 4.235M338.716 423.315H326.7l-4.837-10.667h-6.4l10.834 23.874h6.38l-4.172-9.217h12.016l4.192 9.217h6.38l-10.813-23.874h-6.4l4.837 10.667zM345.968 412.648l10.833 23.874h6.379l-10.812-23.874h-6.4zM384.789 412.648h-5.955l-5.676 16.041-7.731-16.04h-5.955l11.27 23.873h5.977l5.708-15.976 6.59 15.976h5.936l-10.164-23.874zM410.75 425.4h13.902l-4.653-10.244c-1.788-.815-3.923-1.504-6.405-2.069a33.47 33.47 0 0 0-7.434-.846c-3.843 0-6.668.667-8.474 2.003-2.467 1.824-3.387 4.468-2.759 7.931.422 2.324 1.426 4.55 3.012 6.677 1.905 2.563 4.314 4.55 7.226 5.961 2.912 1.411 6.162 2.117 9.751 2.117 3.59 0 6.351-.64 8.288-1.922 1.936-1.28 2.036-3.448 2.298-5.9l-6.05.017c-.279 1.345.061 2.121-.98 2.805-1.042.685-2.447 1.027-4.213 1.027-2.062 0-4.03-.413-5.904-1.238-1.873-.826-3.454-2.1-4.74-3.828-1.289-1.726-2.117-3.609-2.488-5.65-.363-2.01-.04-3.494.974-4.455 1.012-.96 2.662-1.442 4.951-1.442 1.37 0 2.803.15 4.3.45 1.495.297 2.801.653 3.922 1.066l1.598 3.55h-7.926l1.803 3.99zM436.3 412.648h-6.398l9.028 19.885h-9.112l1.803 3.99h24.478l-1.803-3.99h-8.987l-9.008-19.885zM458.553 422.11c-.297-1.64.104-3.013 1.203-4.12 1.099-1.108 2.708-1.662 4.827-1.662 1.724 0 3.459.437 5.208 1.311 1.747.874 3.302 2.2 4.66 3.974 1.362 1.776 2.194 3.505 2.499 5.187.34 1.878-.048 3.353-1.17 4.422-1.12 1.07-2.697 1.604-4.731 1.604-3.123 0-5.865-1.118-8.227-3.355-2.363-2.237-3.785-4.69-4.27-7.36m-6.332-.099c.256 1.411.8 2.9 1.635 4.462a18.884 18.884 0 0 0 4.283 5.456c1.757 1.541 3.839 2.761 6.248 3.657 2.409.895 5.047 1.343 7.916 1.343 3.842 0 6.78-.918 8.814-2.752 2.035-1.836 2.777-4.267 2.228-7.297-.457-2.518-1.668-4.956-3.635-7.312-1.968-2.355-4.386-4.169-7.26-5.439-2.872-1.27-5.975-1.906-9.31-1.906-2.895 0-5.234.505-7.015 1.516-1.781 1.01-2.946 2.26-3.495 3.753-.55 1.493-.684 3-.41 4.52M506.606 412.648h-5.955l-5.485 16.041-7.273-16.04h-5.955l10.812 23.873h5.976l5.518-15.976 7.24 15.976h5.935l-10.813-23.874zM306.137 475.478l16.238 12.021H302.24l-6.116 18.875-5.913-18.875h-19.587l15.92-11.7-6.045-19.3 16.094 11.915L312.124 457l-5.987 18.479zM411.137 475.478l16.238 12.021H407.24l-6.116 18.875-5.913-18.875h-19.587l15.92-11.7-6.045-19.3 16.094 11.915L417.124 457l-5.987 18.479zM515.803 475.478l16.238 12.021h-20.134l-6.116 18.875-5.913-18.875h-19.587l15.921-11.7-6.046-19.3 16.094 11.915L521.791 457l-5.988 18.479z" fill="#cf132b"/></g></svg>